%TF.GenerationSoftware,KiCad,Pcbnew,9.0.5*%
%TF.CreationDate,2025-12-11T22:34:33+05:30*%
%TF.ProjectId,GPS_with_STM32,4750535f-7769-4746-985f-53544d33322e,rev?*%
%TF.SameCoordinates,Original*%
%TF.FileFunction,Drillmap*%
%TF.FilePolarity,Positive*%
%FSLAX45Y45*%
G04 Gerber Fmt 4.5, Leading zero omitted, Abs format (unit mm)*
G04 Created by KiCad (PCBNEW 9.0.5) date 2025-12-11 22:34:33*
%MOMM*%
%LPD*%
G01*
G04 APERTURE LIST*
%ADD10C,0.050000*%
%ADD11C,0.200000*%
%ADD12C,0.220000*%
G04 APERTURE END LIST*
D10*
X9960000Y-8723245D02*
G75*
G02*
X9610000Y-9073245I-350000J0D01*
G01*
X5720070Y-9069991D02*
G75*
G02*
X5377500Y-8725000I2430J344991D01*
G01*
X9945000Y-3850000D02*
X9960000Y-8723240D01*
X5372500Y-3855000D02*
G75*
G02*
X5715000Y-3512500I342500J0D01*
G01*
X5715000Y-3512500D02*
X9600000Y-3505000D01*
X9610000Y-9073245D02*
X5720070Y-9069991D01*
X5377500Y-8725000D02*
X5372500Y-3855000D01*
X9600000Y-3505000D02*
G75*
G02*
X9945000Y-3850000I0J-345000D01*
G01*
D11*
D12*
X5605185Y-3745595D02*
X5825185Y-3965595D01*
X5825185Y-3745595D02*
X5605185Y-3965595D01*
X5611768Y-8614612D02*
X5831768Y-8834612D01*
X5831768Y-8614612D02*
X5611768Y-8834612D01*
X9487736Y-3742332D02*
X9707736Y-3962332D01*
X9707736Y-3742332D02*
X9487736Y-3962332D01*
X9502860Y-8615497D02*
X9722860Y-8835497D01*
X9722860Y-8615497D02*
X9502860Y-8835497D01*
D11*
X5630777Y-9387229D02*
X5630777Y-9187229D01*
X5630777Y-9187229D02*
X5678396Y-9187229D01*
X5678396Y-9187229D02*
X5706967Y-9196753D01*
X5706967Y-9196753D02*
X5726015Y-9215800D01*
X5726015Y-9215800D02*
X5735539Y-9234848D01*
X5735539Y-9234848D02*
X5745062Y-9272943D01*
X5745062Y-9272943D02*
X5745062Y-9301515D01*
X5745062Y-9301515D02*
X5735539Y-9339610D01*
X5735539Y-9339610D02*
X5726015Y-9358657D01*
X5726015Y-9358657D02*
X5706967Y-9377705D01*
X5706967Y-9377705D02*
X5678396Y-9387229D01*
X5678396Y-9387229D02*
X5630777Y-9387229D01*
X5830777Y-9387229D02*
X5830777Y-9253895D01*
X5830777Y-9291991D02*
X5840301Y-9272943D01*
X5840301Y-9272943D02*
X5849824Y-9263419D01*
X5849824Y-9263419D02*
X5868872Y-9253895D01*
X5868872Y-9253895D02*
X5887920Y-9253895D01*
X5954586Y-9387229D02*
X5954586Y-9253895D01*
X5954586Y-9187229D02*
X5945062Y-9196753D01*
X5945062Y-9196753D02*
X5954586Y-9206276D01*
X5954586Y-9206276D02*
X5964110Y-9196753D01*
X5964110Y-9196753D02*
X5954586Y-9187229D01*
X5954586Y-9187229D02*
X5954586Y-9206276D01*
X6078396Y-9387229D02*
X6059348Y-9377705D01*
X6059348Y-9377705D02*
X6049824Y-9358657D01*
X6049824Y-9358657D02*
X6049824Y-9187229D01*
X6183158Y-9387229D02*
X6164110Y-9377705D01*
X6164110Y-9377705D02*
X6154586Y-9358657D01*
X6154586Y-9358657D02*
X6154586Y-9187229D01*
X6411729Y-9387229D02*
X6411729Y-9187229D01*
X6411729Y-9187229D02*
X6478396Y-9330086D01*
X6478396Y-9330086D02*
X6545062Y-9187229D01*
X6545062Y-9187229D02*
X6545062Y-9387229D01*
X6726015Y-9387229D02*
X6726015Y-9282467D01*
X6726015Y-9282467D02*
X6716491Y-9263419D01*
X6716491Y-9263419D02*
X6697443Y-9253895D01*
X6697443Y-9253895D02*
X6659348Y-9253895D01*
X6659348Y-9253895D02*
X6640301Y-9263419D01*
X6726015Y-9377705D02*
X6706967Y-9387229D01*
X6706967Y-9387229D02*
X6659348Y-9387229D01*
X6659348Y-9387229D02*
X6640301Y-9377705D01*
X6640301Y-9377705D02*
X6630777Y-9358657D01*
X6630777Y-9358657D02*
X6630777Y-9339610D01*
X6630777Y-9339610D02*
X6640301Y-9320562D01*
X6640301Y-9320562D02*
X6659348Y-9311038D01*
X6659348Y-9311038D02*
X6706967Y-9311038D01*
X6706967Y-9311038D02*
X6726015Y-9301515D01*
X6821253Y-9253895D02*
X6821253Y-9453895D01*
X6821253Y-9263419D02*
X6840301Y-9253895D01*
X6840301Y-9253895D02*
X6878396Y-9253895D01*
X6878396Y-9253895D02*
X6897443Y-9263419D01*
X6897443Y-9263419D02*
X6906967Y-9272943D01*
X6906967Y-9272943D02*
X6916491Y-9291991D01*
X6916491Y-9291991D02*
X6916491Y-9349134D01*
X6916491Y-9349134D02*
X6906967Y-9368181D01*
X6906967Y-9368181D02*
X6897443Y-9377705D01*
X6897443Y-9377705D02*
X6878396Y-9387229D01*
X6878396Y-9387229D02*
X6840301Y-9387229D01*
X6840301Y-9387229D02*
X6821253Y-9377705D01*
X7002205Y-9368181D02*
X7011729Y-9377705D01*
X7011729Y-9377705D02*
X7002205Y-9387229D01*
X7002205Y-9387229D02*
X6992682Y-9377705D01*
X6992682Y-9377705D02*
X7002205Y-9368181D01*
X7002205Y-9368181D02*
X7002205Y-9387229D01*
X7002205Y-9263419D02*
X7011729Y-9272943D01*
X7011729Y-9272943D02*
X7002205Y-9282467D01*
X7002205Y-9282467D02*
X6992682Y-9272943D01*
X6992682Y-9272943D02*
X7002205Y-9263419D01*
X7002205Y-9263419D02*
X7002205Y-9282467D01*
X5170000Y-9615745D02*
X5370000Y-9815745D01*
X5370000Y-9615745D02*
X5170000Y-9815745D01*
X5621253Y-9626276D02*
X5630777Y-9616753D01*
X5630777Y-9616753D02*
X5649824Y-9607229D01*
X5649824Y-9607229D02*
X5697443Y-9607229D01*
X5697443Y-9607229D02*
X5716491Y-9616753D01*
X5716491Y-9616753D02*
X5726015Y-9626276D01*
X5726015Y-9626276D02*
X5735539Y-9645324D01*
X5735539Y-9645324D02*
X5735539Y-9664372D01*
X5735539Y-9664372D02*
X5726015Y-9692943D01*
X5726015Y-9692943D02*
X5611729Y-9807229D01*
X5611729Y-9807229D02*
X5735539Y-9807229D01*
X5821253Y-9788181D02*
X5830777Y-9797705D01*
X5830777Y-9797705D02*
X5821253Y-9807229D01*
X5821253Y-9807229D02*
X5811729Y-9797705D01*
X5811729Y-9797705D02*
X5821253Y-9788181D01*
X5821253Y-9788181D02*
X5821253Y-9807229D01*
X5906967Y-9626276D02*
X5916491Y-9616753D01*
X5916491Y-9616753D02*
X5935539Y-9607229D01*
X5935539Y-9607229D02*
X5983158Y-9607229D01*
X5983158Y-9607229D02*
X6002205Y-9616753D01*
X6002205Y-9616753D02*
X6011729Y-9626276D01*
X6011729Y-9626276D02*
X6021253Y-9645324D01*
X6021253Y-9645324D02*
X6021253Y-9664372D01*
X6021253Y-9664372D02*
X6011729Y-9692943D01*
X6011729Y-9692943D02*
X5897443Y-9807229D01*
X5897443Y-9807229D02*
X6021253Y-9807229D01*
X6145062Y-9607229D02*
X6164110Y-9607229D01*
X6164110Y-9607229D02*
X6183158Y-9616753D01*
X6183158Y-9616753D02*
X6192682Y-9626276D01*
X6192682Y-9626276D02*
X6202205Y-9645324D01*
X6202205Y-9645324D02*
X6211729Y-9683419D01*
X6211729Y-9683419D02*
X6211729Y-9731038D01*
X6211729Y-9731038D02*
X6202205Y-9769134D01*
X6202205Y-9769134D02*
X6192682Y-9788181D01*
X6192682Y-9788181D02*
X6183158Y-9797705D01*
X6183158Y-9797705D02*
X6164110Y-9807229D01*
X6164110Y-9807229D02*
X6145062Y-9807229D01*
X6145062Y-9807229D02*
X6126015Y-9797705D01*
X6126015Y-9797705D02*
X6116491Y-9788181D01*
X6116491Y-9788181D02*
X6106967Y-9769134D01*
X6106967Y-9769134D02*
X6097443Y-9731038D01*
X6097443Y-9731038D02*
X6097443Y-9683419D01*
X6097443Y-9683419D02*
X6106967Y-9645324D01*
X6106967Y-9645324D02*
X6116491Y-9626276D01*
X6116491Y-9626276D02*
X6126015Y-9616753D01*
X6126015Y-9616753D02*
X6145062Y-9607229D01*
X6335539Y-9607229D02*
X6354586Y-9607229D01*
X6354586Y-9607229D02*
X6373634Y-9616753D01*
X6373634Y-9616753D02*
X6383158Y-9626276D01*
X6383158Y-9626276D02*
X6392682Y-9645324D01*
X6392682Y-9645324D02*
X6402205Y-9683419D01*
X6402205Y-9683419D02*
X6402205Y-9731038D01*
X6402205Y-9731038D02*
X6392682Y-9769134D01*
X6392682Y-9769134D02*
X6383158Y-9788181D01*
X6383158Y-9788181D02*
X6373634Y-9797705D01*
X6373634Y-9797705D02*
X6354586Y-9807229D01*
X6354586Y-9807229D02*
X6335539Y-9807229D01*
X6335539Y-9807229D02*
X6316491Y-9797705D01*
X6316491Y-9797705D02*
X6306967Y-9788181D01*
X6306967Y-9788181D02*
X6297443Y-9769134D01*
X6297443Y-9769134D02*
X6287920Y-9731038D01*
X6287920Y-9731038D02*
X6287920Y-9683419D01*
X6287920Y-9683419D02*
X6297443Y-9645324D01*
X6297443Y-9645324D02*
X6306967Y-9626276D01*
X6306967Y-9626276D02*
X6316491Y-9616753D01*
X6316491Y-9616753D02*
X6335539Y-9607229D01*
X6487920Y-9807229D02*
X6487920Y-9673895D01*
X6487920Y-9692943D02*
X6497443Y-9683419D01*
X6497443Y-9683419D02*
X6516491Y-9673895D01*
X6516491Y-9673895D02*
X6545063Y-9673895D01*
X6545063Y-9673895D02*
X6564110Y-9683419D01*
X6564110Y-9683419D02*
X6573634Y-9702467D01*
X6573634Y-9702467D02*
X6573634Y-9807229D01*
X6573634Y-9702467D02*
X6583158Y-9683419D01*
X6583158Y-9683419D02*
X6602205Y-9673895D01*
X6602205Y-9673895D02*
X6630777Y-9673895D01*
X6630777Y-9673895D02*
X6649824Y-9683419D01*
X6649824Y-9683419D02*
X6659348Y-9702467D01*
X6659348Y-9702467D02*
X6659348Y-9807229D01*
X6754586Y-9807229D02*
X6754586Y-9673895D01*
X6754586Y-9692943D02*
X6764110Y-9683419D01*
X6764110Y-9683419D02*
X6783158Y-9673895D01*
X6783158Y-9673895D02*
X6811729Y-9673895D01*
X6811729Y-9673895D02*
X6830777Y-9683419D01*
X6830777Y-9683419D02*
X6840301Y-9702467D01*
X6840301Y-9702467D02*
X6840301Y-9807229D01*
X6840301Y-9702467D02*
X6849824Y-9683419D01*
X6849824Y-9683419D02*
X6868872Y-9673895D01*
X6868872Y-9673895D02*
X6897443Y-9673895D01*
X6897443Y-9673895D02*
X6916491Y-9683419D01*
X6916491Y-9683419D02*
X6926015Y-9702467D01*
X6926015Y-9702467D02*
X6926015Y-9807229D01*
X7316491Y-9597705D02*
X7145063Y-9854848D01*
X7573634Y-9607229D02*
X7592682Y-9607229D01*
X7592682Y-9607229D02*
X7611729Y-9616753D01*
X7611729Y-9616753D02*
X7621253Y-9626276D01*
X7621253Y-9626276D02*
X7630777Y-9645324D01*
X7630777Y-9645324D02*
X7640301Y-9683419D01*
X7640301Y-9683419D02*
X7640301Y-9731038D01*
X7640301Y-9731038D02*
X7630777Y-9769134D01*
X7630777Y-9769134D02*
X7621253Y-9788181D01*
X7621253Y-9788181D02*
X7611729Y-9797705D01*
X7611729Y-9797705D02*
X7592682Y-9807229D01*
X7592682Y-9807229D02*
X7573634Y-9807229D01*
X7573634Y-9807229D02*
X7554586Y-9797705D01*
X7554586Y-9797705D02*
X7545063Y-9788181D01*
X7545063Y-9788181D02*
X7535539Y-9769134D01*
X7535539Y-9769134D02*
X7526015Y-9731038D01*
X7526015Y-9731038D02*
X7526015Y-9683419D01*
X7526015Y-9683419D02*
X7535539Y-9645324D01*
X7535539Y-9645324D02*
X7545063Y-9626276D01*
X7545063Y-9626276D02*
X7554586Y-9616753D01*
X7554586Y-9616753D02*
X7573634Y-9607229D01*
X7726015Y-9788181D02*
X7735539Y-9797705D01*
X7735539Y-9797705D02*
X7726015Y-9807229D01*
X7726015Y-9807229D02*
X7716491Y-9797705D01*
X7716491Y-9797705D02*
X7726015Y-9788181D01*
X7726015Y-9788181D02*
X7726015Y-9807229D01*
X7859348Y-9607229D02*
X7878396Y-9607229D01*
X7878396Y-9607229D02*
X7897444Y-9616753D01*
X7897444Y-9616753D02*
X7906967Y-9626276D01*
X7906967Y-9626276D02*
X7916491Y-9645324D01*
X7916491Y-9645324D02*
X7926015Y-9683419D01*
X7926015Y-9683419D02*
X7926015Y-9731038D01*
X7926015Y-9731038D02*
X7916491Y-9769134D01*
X7916491Y-9769134D02*
X7906967Y-9788181D01*
X7906967Y-9788181D02*
X7897444Y-9797705D01*
X7897444Y-9797705D02*
X7878396Y-9807229D01*
X7878396Y-9807229D02*
X7859348Y-9807229D01*
X7859348Y-9807229D02*
X7840301Y-9797705D01*
X7840301Y-9797705D02*
X7830777Y-9788181D01*
X7830777Y-9788181D02*
X7821253Y-9769134D01*
X7821253Y-9769134D02*
X7811729Y-9731038D01*
X7811729Y-9731038D02*
X7811729Y-9683419D01*
X7811729Y-9683419D02*
X7821253Y-9645324D01*
X7821253Y-9645324D02*
X7830777Y-9626276D01*
X7830777Y-9626276D02*
X7840301Y-9616753D01*
X7840301Y-9616753D02*
X7859348Y-9607229D01*
X8040301Y-9692943D02*
X8021253Y-9683419D01*
X8021253Y-9683419D02*
X8011729Y-9673895D01*
X8011729Y-9673895D02*
X8002206Y-9654848D01*
X8002206Y-9654848D02*
X8002206Y-9645324D01*
X8002206Y-9645324D02*
X8011729Y-9626276D01*
X8011729Y-9626276D02*
X8021253Y-9616753D01*
X8021253Y-9616753D02*
X8040301Y-9607229D01*
X8040301Y-9607229D02*
X8078396Y-9607229D01*
X8078396Y-9607229D02*
X8097444Y-9616753D01*
X8097444Y-9616753D02*
X8106967Y-9626276D01*
X8106967Y-9626276D02*
X8116491Y-9645324D01*
X8116491Y-9645324D02*
X8116491Y-9654848D01*
X8116491Y-9654848D02*
X8106967Y-9673895D01*
X8106967Y-9673895D02*
X8097444Y-9683419D01*
X8097444Y-9683419D02*
X8078396Y-9692943D01*
X8078396Y-9692943D02*
X8040301Y-9692943D01*
X8040301Y-9692943D02*
X8021253Y-9702467D01*
X8021253Y-9702467D02*
X8011729Y-9711991D01*
X8011729Y-9711991D02*
X8002206Y-9731038D01*
X8002206Y-9731038D02*
X8002206Y-9769134D01*
X8002206Y-9769134D02*
X8011729Y-9788181D01*
X8011729Y-9788181D02*
X8021253Y-9797705D01*
X8021253Y-9797705D02*
X8040301Y-9807229D01*
X8040301Y-9807229D02*
X8078396Y-9807229D01*
X8078396Y-9807229D02*
X8097444Y-9797705D01*
X8097444Y-9797705D02*
X8106967Y-9788181D01*
X8106967Y-9788181D02*
X8116491Y-9769134D01*
X8116491Y-9769134D02*
X8116491Y-9731038D01*
X8116491Y-9731038D02*
X8106967Y-9711991D01*
X8106967Y-9711991D02*
X8097444Y-9702467D01*
X8097444Y-9702467D02*
X8078396Y-9692943D01*
X8287920Y-9607229D02*
X8249825Y-9607229D01*
X8249825Y-9607229D02*
X8230777Y-9616753D01*
X8230777Y-9616753D02*
X8221253Y-9626276D01*
X8221253Y-9626276D02*
X8202206Y-9654848D01*
X8202206Y-9654848D02*
X8192682Y-9692943D01*
X8192682Y-9692943D02*
X8192682Y-9769134D01*
X8192682Y-9769134D02*
X8202206Y-9788181D01*
X8202206Y-9788181D02*
X8211729Y-9797705D01*
X8211729Y-9797705D02*
X8230777Y-9807229D01*
X8230777Y-9807229D02*
X8268872Y-9807229D01*
X8268872Y-9807229D02*
X8287920Y-9797705D01*
X8287920Y-9797705D02*
X8297444Y-9788181D01*
X8297444Y-9788181D02*
X8306967Y-9769134D01*
X8306967Y-9769134D02*
X8306967Y-9721515D01*
X8306967Y-9721515D02*
X8297444Y-9702467D01*
X8297444Y-9702467D02*
X8287920Y-9692943D01*
X8287920Y-9692943D02*
X8268872Y-9683419D01*
X8268872Y-9683419D02*
X8230777Y-9683419D01*
X8230777Y-9683419D02*
X8211729Y-9692943D01*
X8211729Y-9692943D02*
X8202206Y-9702467D01*
X8202206Y-9702467D02*
X8192682Y-9721515D01*
X8478396Y-9607229D02*
X8440301Y-9607229D01*
X8440301Y-9607229D02*
X8421253Y-9616753D01*
X8421253Y-9616753D02*
X8411729Y-9626276D01*
X8411729Y-9626276D02*
X8392682Y-9654848D01*
X8392682Y-9654848D02*
X8383158Y-9692943D01*
X8383158Y-9692943D02*
X8383158Y-9769134D01*
X8383158Y-9769134D02*
X8392682Y-9788181D01*
X8392682Y-9788181D02*
X8402206Y-9797705D01*
X8402206Y-9797705D02*
X8421253Y-9807229D01*
X8421253Y-9807229D02*
X8459349Y-9807229D01*
X8459349Y-9807229D02*
X8478396Y-9797705D01*
X8478396Y-9797705D02*
X8487920Y-9788181D01*
X8487920Y-9788181D02*
X8497444Y-9769134D01*
X8497444Y-9769134D02*
X8497444Y-9721515D01*
X8497444Y-9721515D02*
X8487920Y-9702467D01*
X8487920Y-9702467D02*
X8478396Y-9692943D01*
X8478396Y-9692943D02*
X8459349Y-9683419D01*
X8459349Y-9683419D02*
X8421253Y-9683419D01*
X8421253Y-9683419D02*
X8402206Y-9692943D01*
X8402206Y-9692943D02*
X8392682Y-9702467D01*
X8392682Y-9702467D02*
X8383158Y-9721515D01*
X8573634Y-9607229D02*
X8573634Y-9645324D01*
X8649825Y-9607229D02*
X8649825Y-9645324D01*
X8945063Y-9883419D02*
X8935539Y-9873895D01*
X8935539Y-9873895D02*
X8916491Y-9845324D01*
X8916491Y-9845324D02*
X8906968Y-9826276D01*
X8906968Y-9826276D02*
X8897444Y-9797705D01*
X8897444Y-9797705D02*
X8887920Y-9750086D01*
X8887920Y-9750086D02*
X8887920Y-9711991D01*
X8887920Y-9711991D02*
X8897444Y-9664372D01*
X8897444Y-9664372D02*
X8906968Y-9635800D01*
X8906968Y-9635800D02*
X8916491Y-9616753D01*
X8916491Y-9616753D02*
X8935539Y-9588181D01*
X8935539Y-9588181D02*
X8945063Y-9578657D01*
X9106968Y-9673895D02*
X9106968Y-9807229D01*
X9059349Y-9597705D02*
X9011730Y-9740562D01*
X9011730Y-9740562D02*
X9135539Y-9740562D01*
X9364111Y-9807229D02*
X9364111Y-9607229D01*
X9449825Y-9807229D02*
X9449825Y-9702467D01*
X9449825Y-9702467D02*
X9440301Y-9683419D01*
X9440301Y-9683419D02*
X9421253Y-9673895D01*
X9421253Y-9673895D02*
X9392682Y-9673895D01*
X9392682Y-9673895D02*
X9373634Y-9683419D01*
X9373634Y-9683419D02*
X9364111Y-9692943D01*
X9573634Y-9807229D02*
X9554587Y-9797705D01*
X9554587Y-9797705D02*
X9545063Y-9788181D01*
X9545063Y-9788181D02*
X9535539Y-9769134D01*
X9535539Y-9769134D02*
X9535539Y-9711991D01*
X9535539Y-9711991D02*
X9545063Y-9692943D01*
X9545063Y-9692943D02*
X9554587Y-9683419D01*
X9554587Y-9683419D02*
X9573634Y-9673895D01*
X9573634Y-9673895D02*
X9602206Y-9673895D01*
X9602206Y-9673895D02*
X9621253Y-9683419D01*
X9621253Y-9683419D02*
X9630777Y-9692943D01*
X9630777Y-9692943D02*
X9640301Y-9711991D01*
X9640301Y-9711991D02*
X9640301Y-9769134D01*
X9640301Y-9769134D02*
X9630777Y-9788181D01*
X9630777Y-9788181D02*
X9621253Y-9797705D01*
X9621253Y-9797705D02*
X9602206Y-9807229D01*
X9602206Y-9807229D02*
X9573634Y-9807229D01*
X9754587Y-9807229D02*
X9735539Y-9797705D01*
X9735539Y-9797705D02*
X9726015Y-9778657D01*
X9726015Y-9778657D02*
X9726015Y-9607229D01*
X9906968Y-9797705D02*
X9887920Y-9807229D01*
X9887920Y-9807229D02*
X9849825Y-9807229D01*
X9849825Y-9807229D02*
X9830777Y-9797705D01*
X9830777Y-9797705D02*
X9821253Y-9778657D01*
X9821253Y-9778657D02*
X9821253Y-9702467D01*
X9821253Y-9702467D02*
X9830777Y-9683419D01*
X9830777Y-9683419D02*
X9849825Y-9673895D01*
X9849825Y-9673895D02*
X9887920Y-9673895D01*
X9887920Y-9673895D02*
X9906968Y-9683419D01*
X9906968Y-9683419D02*
X9916492Y-9702467D01*
X9916492Y-9702467D02*
X9916492Y-9721515D01*
X9916492Y-9721515D02*
X9821253Y-9740562D01*
X9992682Y-9797705D02*
X10011730Y-9807229D01*
X10011730Y-9807229D02*
X10049825Y-9807229D01*
X10049825Y-9807229D02*
X10068873Y-9797705D01*
X10068873Y-9797705D02*
X10078396Y-9778657D01*
X10078396Y-9778657D02*
X10078396Y-9769134D01*
X10078396Y-9769134D02*
X10068873Y-9750086D01*
X10068873Y-9750086D02*
X10049825Y-9740562D01*
X10049825Y-9740562D02*
X10021253Y-9740562D01*
X10021253Y-9740562D02*
X10002206Y-9731038D01*
X10002206Y-9731038D02*
X9992682Y-9711991D01*
X9992682Y-9711991D02*
X9992682Y-9702467D01*
X9992682Y-9702467D02*
X10002206Y-9683419D01*
X10002206Y-9683419D02*
X10021253Y-9673895D01*
X10021253Y-9673895D02*
X10049825Y-9673895D01*
X10049825Y-9673895D02*
X10068873Y-9683419D01*
X10145063Y-9883419D02*
X10154587Y-9873895D01*
X10154587Y-9873895D02*
X10173634Y-9845324D01*
X10173634Y-9845324D02*
X10183158Y-9826276D01*
X10183158Y-9826276D02*
X10192682Y-9797705D01*
X10192682Y-9797705D02*
X10202206Y-9750086D01*
X10202206Y-9750086D02*
X10202206Y-9711991D01*
X10202206Y-9711991D02*
X10192682Y-9664372D01*
X10192682Y-9664372D02*
X10183158Y-9635800D01*
X10183158Y-9635800D02*
X10173634Y-9616753D01*
X10173634Y-9616753D02*
X10154587Y-9588181D01*
X10154587Y-9588181D02*
X10145063Y-9578657D01*
X10506968Y-9883419D02*
X10497444Y-9873895D01*
X10497444Y-9873895D02*
X10478396Y-9845324D01*
X10478396Y-9845324D02*
X10468873Y-9826276D01*
X10468873Y-9826276D02*
X10459349Y-9797705D01*
X10459349Y-9797705D02*
X10449825Y-9750086D01*
X10449825Y-9750086D02*
X10449825Y-9711991D01*
X10449825Y-9711991D02*
X10459349Y-9664372D01*
X10459349Y-9664372D02*
X10468873Y-9635800D01*
X10468873Y-9635800D02*
X10478396Y-9616753D01*
X10478396Y-9616753D02*
X10497444Y-9588181D01*
X10497444Y-9588181D02*
X10506968Y-9578657D01*
X10583158Y-9673895D02*
X10583158Y-9807229D01*
X10583158Y-9692943D02*
X10592682Y-9683419D01*
X10592682Y-9683419D02*
X10611730Y-9673895D01*
X10611730Y-9673895D02*
X10640301Y-9673895D01*
X10640301Y-9673895D02*
X10659349Y-9683419D01*
X10659349Y-9683419D02*
X10668873Y-9702467D01*
X10668873Y-9702467D02*
X10668873Y-9807229D01*
X10792682Y-9807229D02*
X10773634Y-9797705D01*
X10773634Y-9797705D02*
X10764111Y-9788181D01*
X10764111Y-9788181D02*
X10754587Y-9769134D01*
X10754587Y-9769134D02*
X10754587Y-9711991D01*
X10754587Y-9711991D02*
X10764111Y-9692943D01*
X10764111Y-9692943D02*
X10773634Y-9683419D01*
X10773634Y-9683419D02*
X10792682Y-9673895D01*
X10792682Y-9673895D02*
X10821254Y-9673895D01*
X10821254Y-9673895D02*
X10840301Y-9683419D01*
X10840301Y-9683419D02*
X10849825Y-9692943D01*
X10849825Y-9692943D02*
X10859349Y-9711991D01*
X10859349Y-9711991D02*
X10859349Y-9769134D01*
X10859349Y-9769134D02*
X10849825Y-9788181D01*
X10849825Y-9788181D02*
X10840301Y-9797705D01*
X10840301Y-9797705D02*
X10821254Y-9807229D01*
X10821254Y-9807229D02*
X10792682Y-9807229D01*
X10916492Y-9673895D02*
X10992682Y-9673895D01*
X10945063Y-9607229D02*
X10945063Y-9778657D01*
X10945063Y-9778657D02*
X10954587Y-9797705D01*
X10954587Y-9797705D02*
X10973634Y-9807229D01*
X10973634Y-9807229D02*
X10992682Y-9807229D01*
X11211730Y-9673895D02*
X11211730Y-9873895D01*
X11211730Y-9683419D02*
X11230777Y-9673895D01*
X11230777Y-9673895D02*
X11268873Y-9673895D01*
X11268873Y-9673895D02*
X11287920Y-9683419D01*
X11287920Y-9683419D02*
X11297444Y-9692943D01*
X11297444Y-9692943D02*
X11306968Y-9711991D01*
X11306968Y-9711991D02*
X11306968Y-9769134D01*
X11306968Y-9769134D02*
X11297444Y-9788181D01*
X11297444Y-9788181D02*
X11287920Y-9797705D01*
X11287920Y-9797705D02*
X11268873Y-9807229D01*
X11268873Y-9807229D02*
X11230777Y-9807229D01*
X11230777Y-9807229D02*
X11211730Y-9797705D01*
X11421253Y-9807229D02*
X11402206Y-9797705D01*
X11402206Y-9797705D02*
X11392682Y-9778657D01*
X11392682Y-9778657D02*
X11392682Y-9607229D01*
X11583158Y-9807229D02*
X11583158Y-9702467D01*
X11583158Y-9702467D02*
X11573634Y-9683419D01*
X11573634Y-9683419D02*
X11554587Y-9673895D01*
X11554587Y-9673895D02*
X11516492Y-9673895D01*
X11516492Y-9673895D02*
X11497444Y-9683419D01*
X11583158Y-9797705D02*
X11564111Y-9807229D01*
X11564111Y-9807229D02*
X11516492Y-9807229D01*
X11516492Y-9807229D02*
X11497444Y-9797705D01*
X11497444Y-9797705D02*
X11487920Y-9778657D01*
X11487920Y-9778657D02*
X11487920Y-9759610D01*
X11487920Y-9759610D02*
X11497444Y-9740562D01*
X11497444Y-9740562D02*
X11516492Y-9731038D01*
X11516492Y-9731038D02*
X11564111Y-9731038D01*
X11564111Y-9731038D02*
X11583158Y-9721515D01*
X11649825Y-9673895D02*
X11726015Y-9673895D01*
X11678396Y-9607229D02*
X11678396Y-9778657D01*
X11678396Y-9778657D02*
X11687920Y-9797705D01*
X11687920Y-9797705D02*
X11706968Y-9807229D01*
X11706968Y-9807229D02*
X11726015Y-9807229D01*
X11868873Y-9797705D02*
X11849825Y-9807229D01*
X11849825Y-9807229D02*
X11811730Y-9807229D01*
X11811730Y-9807229D02*
X11792682Y-9797705D01*
X11792682Y-9797705D02*
X11783158Y-9778657D01*
X11783158Y-9778657D02*
X11783158Y-9702467D01*
X11783158Y-9702467D02*
X11792682Y-9683419D01*
X11792682Y-9683419D02*
X11811730Y-9673895D01*
X11811730Y-9673895D02*
X11849825Y-9673895D01*
X11849825Y-9673895D02*
X11868873Y-9683419D01*
X11868873Y-9683419D02*
X11878396Y-9702467D01*
X11878396Y-9702467D02*
X11878396Y-9721515D01*
X11878396Y-9721515D02*
X11783158Y-9740562D01*
X12049825Y-9807229D02*
X12049825Y-9607229D01*
X12049825Y-9797705D02*
X12030777Y-9807229D01*
X12030777Y-9807229D02*
X11992682Y-9807229D01*
X11992682Y-9807229D02*
X11973634Y-9797705D01*
X11973634Y-9797705D02*
X11964111Y-9788181D01*
X11964111Y-9788181D02*
X11954587Y-9769134D01*
X11954587Y-9769134D02*
X11954587Y-9711991D01*
X11954587Y-9711991D02*
X11964111Y-9692943D01*
X11964111Y-9692943D02*
X11973634Y-9683419D01*
X11973634Y-9683419D02*
X11992682Y-9673895D01*
X11992682Y-9673895D02*
X12030777Y-9673895D01*
X12030777Y-9673895D02*
X12049825Y-9683419D01*
X12126015Y-9883419D02*
X12135539Y-9873895D01*
X12135539Y-9873895D02*
X12154587Y-9845324D01*
X12154587Y-9845324D02*
X12164111Y-9826276D01*
X12164111Y-9826276D02*
X12173634Y-9797705D01*
X12173634Y-9797705D02*
X12183158Y-9750086D01*
X12183158Y-9750086D02*
X12183158Y-9711991D01*
X12183158Y-9711991D02*
X12173634Y-9664372D01*
X12173634Y-9664372D02*
X12164111Y-9635800D01*
X12164111Y-9635800D02*
X12154587Y-9616753D01*
X12154587Y-9616753D02*
X12135539Y-9588181D01*
X12135539Y-9588181D02*
X12126015Y-9578657D01*
M02*
