G04 #@! TF.GenerationSoftware,KiCad,Pcbnew,9.0.5*
G04 #@! TF.CreationDate,2025-12-11T22:36:07+05:30*
G04 #@! TF.ProjectId,GPS_with_STM32,4750535f-7769-4746-985f-53544d33322e,rev?*
G04 #@! TF.SameCoordinates,Original*
G04 #@! TF.FileFunction,Copper,L2,Inr*
G04 #@! TF.FilePolarity,Positive*
%FSLAX46Y46*%
G04 Gerber Fmt 4.6, Leading zero omitted, Abs format (unit mm)*
G04 Created by KiCad (PCBNEW 9.0.5) date 2025-12-11 22:36:07*
%MOMM*%
%LPD*%
G01*
G04 APERTURE LIST*
G04 Aperture macros list*
%AMRoundRect*
0 Rectangle with rounded corners*
0 $1 Rounding radius*
0 $2 $3 $4 $5 $6 $7 $8 $9 X,Y pos of 4 corners*
0 Add a 4 corners polygon primitive as box body*
4,1,4,$2,$3,$4,$5,$6,$7,$8,$9,$2,$3,0*
0 Add four circle primitives for the rounded corners*
1,1,$1+$1,$2,$3*
1,1,$1+$1,$4,$5*
1,1,$1+$1,$6,$7*
1,1,$1+$1,$8,$9*
0 Add four rect primitives between the rounded corners*
20,1,$1+$1,$2,$3,$4,$5,0*
20,1,$1+$1,$4,$5,$6,$7,0*
20,1,$1+$1,$6,$7,$8,$9,0*
20,1,$1+$1,$8,$9,$2,$3,0*%
G04 Aperture macros list end*
G04 #@! TA.AperFunction,ComponentPad*
%ADD10R,1.700000X1.700000*%
G04 #@! TD*
G04 #@! TA.AperFunction,ComponentPad*
%ADD11C,1.700000*%
G04 #@! TD*
G04 #@! TA.AperFunction,ComponentPad*
%ADD12RoundRect,0.250000X1.050000X1.050000X-1.050000X1.050000X-1.050000X-1.050000X1.050000X-1.050000X0*%
G04 #@! TD*
G04 #@! TA.AperFunction,ComponentPad*
%ADD13C,2.600000*%
G04 #@! TD*
G04 #@! TA.AperFunction,ViaPad*
%ADD14C,0.600000*%
G04 #@! TD*
G04 APERTURE END LIST*
D10*
X96656505Y-77903590D03*
D11*
X96656505Y-75363590D03*
X96656505Y-72823590D03*
X96656505Y-70283590D03*
X96656505Y-67743590D03*
X96656505Y-65203590D03*
X96656505Y-62663590D03*
X96656505Y-60123590D03*
D12*
X68469646Y-40753531D03*
D13*
X63389646Y-40753531D03*
D10*
X56556455Y-77833363D03*
D11*
X56556455Y-75293363D03*
X56556455Y-72753363D03*
X56556455Y-70213363D03*
X56556455Y-67673363D03*
X56556455Y-65133363D03*
X56556455Y-62593363D03*
X56556455Y-60053363D03*
D14*
X76237500Y-76787500D03*
X78400000Y-42526031D03*
X84075000Y-48875000D03*
X72585486Y-81110225D03*
X81625000Y-76425000D03*
X93375000Y-43925000D03*
X65350000Y-62350000D03*
X66189673Y-76194968D03*
X67100000Y-66750000D03*
X77198378Y-69995796D03*
X90375000Y-66475000D03*
X78625000Y-66650000D03*
X90560335Y-54399891D03*
X78825000Y-76325000D03*
X77775000Y-85425000D03*
X68246637Y-60053363D03*
X76325000Y-52450000D03*
X86050000Y-51500000D03*
X66000000Y-86275000D03*
X68400000Y-66525000D03*
X75665925Y-73450000D03*
X90775601Y-83901187D03*
X65925000Y-65125000D03*
X63400000Y-66700000D03*
X67500000Y-76375000D03*
X70675000Y-66725000D03*
X70125000Y-80338247D03*
X64225000Y-80825000D03*
X62100000Y-81675000D03*
X67362500Y-81512500D03*
X86400000Y-72600000D03*
X85825000Y-70775000D03*
X70475000Y-87700000D03*
X75300000Y-80375000D03*
X61325000Y-68825000D03*
X61350000Y-64100000D03*
X92737500Y-63437500D03*
X91512500Y-66312500D03*
X85150000Y-71600000D03*
X85350000Y-61525000D03*
X84025000Y-70500000D03*
X83137500Y-62037500D03*
X91300000Y-68925000D03*
X84525000Y-56950000D03*
X85950000Y-39225000D03*
X85950037Y-35869403D03*
X82125000Y-58325000D03*
X82800000Y-60975000D03*
X70100000Y-59275000D03*
G04 #@! TA.AperFunction,Conductor*
G36*
X96003582Y-35550701D02*
G01*
X96323297Y-35568656D01*
X96337094Y-35570210D01*
X96649457Y-35623283D01*
X96663014Y-35626377D01*
X96967469Y-35714089D01*
X96980593Y-35718682D01*
X97273304Y-35839926D01*
X97285826Y-35845955D01*
X97563139Y-35999221D01*
X97574900Y-36006611D01*
X97833314Y-36189966D01*
X97844174Y-36198627D01*
X98080418Y-36409749D01*
X98090250Y-36419581D01*
X98301372Y-36655825D01*
X98310035Y-36666687D01*
X98493385Y-36925094D01*
X98500778Y-36936860D01*
X98654040Y-37214166D01*
X98660073Y-37226695D01*
X98781317Y-37519406D01*
X98785910Y-37532530D01*
X98873622Y-37836985D01*
X98876716Y-37850542D01*
X98929787Y-38162895D01*
X98931344Y-38176713D01*
X98934882Y-38239707D01*
X98948621Y-38484370D01*
X98949305Y-38496540D01*
X98949499Y-38503098D01*
X98949500Y-38503412D01*
X98949500Y-38565892D01*
X98949701Y-38566643D01*
X98949729Y-38575374D01*
X98949728Y-38575376D01*
X98949729Y-38575387D01*
X99099486Y-87229048D01*
X99099317Y-87235919D01*
X99083408Y-87539494D01*
X99082051Y-87552403D01*
X99034971Y-87849655D01*
X99032273Y-87862351D01*
X98954374Y-88153073D01*
X98950363Y-88165416D01*
X98842510Y-88446384D01*
X98837231Y-88458242D01*
X98700591Y-88726414D01*
X98694101Y-88737654D01*
X98530188Y-88990057D01*
X98522559Y-89000558D01*
X98333149Y-89234460D01*
X98324464Y-89244105D01*
X98111651Y-89456919D01*
X98102005Y-89465604D01*
X97868114Y-89655004D01*
X97857614Y-89662633D01*
X97605203Y-89826551D01*
X97593963Y-89833041D01*
X97325793Y-89969681D01*
X97313935Y-89974960D01*
X97032967Y-90082813D01*
X97020624Y-90086824D01*
X96729902Y-90164723D01*
X96717205Y-90167421D01*
X96419953Y-90214500D01*
X96407046Y-90215857D01*
X96103294Y-90231776D01*
X96096700Y-90231946D01*
X57207929Y-90199419D01*
X57200240Y-90199174D01*
X56882519Y-90179166D01*
X56868773Y-90177526D01*
X56558154Y-90122738D01*
X56544677Y-90119576D01*
X56242106Y-90030508D01*
X56229065Y-90025864D01*
X55938300Y-89903622D01*
X55925858Y-89897553D01*
X55650533Y-89743665D01*
X55638845Y-89736247D01*
X55382386Y-89552625D01*
X55371598Y-89543950D01*
X55137210Y-89332892D01*
X55127462Y-89323076D01*
X54918046Y-89087193D01*
X54909455Y-89076353D01*
X54727642Y-88818603D01*
X54720307Y-88806863D01*
X54568363Y-88530464D01*
X54562382Y-88517980D01*
X54481521Y-88321789D01*
X54442189Y-88226361D01*
X54437643Y-88213307D01*
X54350698Y-87910082D01*
X54347638Y-87896610D01*
X54295036Y-87585599D01*
X54293494Y-87571844D01*
X54293459Y-87571213D01*
X54275692Y-87253425D01*
X54275500Y-87246657D01*
X54275500Y-87184108D01*
X54275431Y-87183854D01*
X54275386Y-87139829D01*
X55867177Y-87139829D01*
X55867177Y-87352402D01*
X55900430Y-87562355D01*
X55900430Y-87562357D01*
X55900431Y-87562359D01*
X55919534Y-87621153D01*
X55966121Y-87764530D01*
X56062628Y-87953936D01*
X56187567Y-88125902D01*
X56337890Y-88276225D01*
X56509856Y-88401164D01*
X56509858Y-88401165D01*
X56509861Y-88401167D01*
X56699265Y-88497673D01*
X56901434Y-88563362D01*
X57111390Y-88596616D01*
X57111391Y-88596616D01*
X57323963Y-88596616D01*
X57323964Y-88596616D01*
X57533920Y-88563362D01*
X57736089Y-88497673D01*
X57925493Y-88401167D01*
X57947466Y-88385202D01*
X58097463Y-88276225D01*
X58097465Y-88276222D01*
X58097469Y-88276220D01*
X58247781Y-88125908D01*
X58247783Y-88125904D01*
X58247786Y-88125902D01*
X58372725Y-87953936D01*
X58372724Y-87953936D01*
X58372728Y-87953932D01*
X58469234Y-87764528D01*
X58515820Y-87621153D01*
X69674500Y-87621153D01*
X69674500Y-87778846D01*
X69705261Y-87933489D01*
X69705264Y-87933501D01*
X69765602Y-88079172D01*
X69765609Y-88079185D01*
X69853210Y-88210288D01*
X69853213Y-88210292D01*
X69964707Y-88321786D01*
X69964711Y-88321789D01*
X70095814Y-88409390D01*
X70095827Y-88409397D01*
X70213751Y-88458242D01*
X70241503Y-88469737D01*
X70381936Y-88497671D01*
X70396153Y-88500499D01*
X70396156Y-88500500D01*
X70396158Y-88500500D01*
X70553844Y-88500500D01*
X70553845Y-88500499D01*
X70708497Y-88469737D01*
X70821166Y-88423067D01*
X70854172Y-88409397D01*
X70854172Y-88409396D01*
X70854179Y-88409394D01*
X70985289Y-88321789D01*
X71096789Y-88210289D01*
X71184394Y-88079179D01*
X71244737Y-87933497D01*
X71275500Y-87778842D01*
X71275500Y-87621158D01*
X71275500Y-87621155D01*
X71275499Y-87621153D01*
X71244738Y-87466510D01*
X71244737Y-87466503D01*
X71197476Y-87352403D01*
X71184397Y-87320827D01*
X71184390Y-87320814D01*
X71112152Y-87212702D01*
X71112151Y-87212701D01*
X71096791Y-87189713D01*
X71096786Y-87189707D01*
X71055762Y-87148683D01*
X94778098Y-87148683D01*
X94778098Y-87361256D01*
X94809949Y-87562359D01*
X94811352Y-87571213D01*
X94827580Y-87621158D01*
X94877042Y-87773384D01*
X94973549Y-87962790D01*
X95098488Y-88134756D01*
X95248811Y-88285079D01*
X95420777Y-88410018D01*
X95420779Y-88410019D01*
X95420782Y-88410021D01*
X95610186Y-88506527D01*
X95812355Y-88572216D01*
X96022311Y-88605470D01*
X96022312Y-88605470D01*
X96234884Y-88605470D01*
X96234885Y-88605470D01*
X96444841Y-88572216D01*
X96647010Y-88506527D01*
X96836414Y-88410021D01*
X96957860Y-88321786D01*
X97008384Y-88285079D01*
X97008386Y-88285076D01*
X97008390Y-88285074D01*
X97158702Y-88134762D01*
X97158704Y-88134758D01*
X97158707Y-88134756D01*
X97283646Y-87962790D01*
X97283645Y-87962790D01*
X97283649Y-87962786D01*
X97380155Y-87773382D01*
X97445844Y-87571213D01*
X97479098Y-87361257D01*
X97479098Y-87148683D01*
X97445844Y-86938727D01*
X97380155Y-86736558D01*
X97283649Y-86547154D01*
X97283647Y-86547151D01*
X97283646Y-86547149D01*
X97158707Y-86375183D01*
X97008384Y-86224860D01*
X96836418Y-86099921D01*
X96647012Y-86003414D01*
X96647011Y-86003413D01*
X96647010Y-86003413D01*
X96444841Y-85937724D01*
X96444839Y-85937723D01*
X96444838Y-85937723D01*
X96283555Y-85912178D01*
X96234885Y-85904470D01*
X96022311Y-85904470D01*
X95973640Y-85912178D01*
X95812358Y-85937723D01*
X95610183Y-86003414D01*
X95420777Y-86099921D01*
X95248811Y-86224860D01*
X95098488Y-86375183D01*
X94973549Y-86547149D01*
X94877042Y-86736555D01*
X94811351Y-86938730D01*
X94778098Y-87148683D01*
X71055762Y-87148683D01*
X70985292Y-87078213D01*
X70985288Y-87078210D01*
X70854185Y-86990609D01*
X70854172Y-86990602D01*
X70708501Y-86930264D01*
X70708489Y-86930261D01*
X70553845Y-86899500D01*
X70553842Y-86899500D01*
X70396158Y-86899500D01*
X70396155Y-86899500D01*
X70241510Y-86930261D01*
X70241498Y-86930264D01*
X70095827Y-86990602D01*
X70095814Y-86990609D01*
X69964711Y-87078210D01*
X69964707Y-87078213D01*
X69853213Y-87189707D01*
X69853210Y-87189711D01*
X69765609Y-87320814D01*
X69765602Y-87320827D01*
X69705264Y-87466498D01*
X69705261Y-87466510D01*
X69674500Y-87621153D01*
X58515820Y-87621153D01*
X58534923Y-87562359D01*
X58568177Y-87352403D01*
X58568177Y-87139829D01*
X58534923Y-86929873D01*
X58469234Y-86727704D01*
X58372728Y-86538300D01*
X58372726Y-86538297D01*
X58372725Y-86538295D01*
X58247786Y-86366329D01*
X58097463Y-86216006D01*
X58070137Y-86196153D01*
X65199500Y-86196153D01*
X65199500Y-86353846D01*
X65230261Y-86508489D01*
X65230264Y-86508501D01*
X65290602Y-86654172D01*
X65290609Y-86654185D01*
X65378210Y-86785288D01*
X65378213Y-86785292D01*
X65489707Y-86896786D01*
X65489711Y-86896789D01*
X65620814Y-86984390D01*
X65620827Y-86984397D01*
X65766498Y-87044735D01*
X65766503Y-87044737D01*
X65921153Y-87075499D01*
X65921156Y-87075500D01*
X65921158Y-87075500D01*
X66078844Y-87075500D01*
X66078845Y-87075499D01*
X66233497Y-87044737D01*
X66364182Y-86990606D01*
X66379172Y-86984397D01*
X66379172Y-86984396D01*
X66379179Y-86984394D01*
X66510289Y-86896789D01*
X66621789Y-86785289D01*
X66709394Y-86654179D01*
X66769737Y-86508497D01*
X66800500Y-86353842D01*
X66800500Y-86196158D01*
X66800500Y-86196155D01*
X66800499Y-86196153D01*
X66781357Y-86099921D01*
X66769737Y-86041503D01*
X66750293Y-85994560D01*
X66709397Y-85895827D01*
X66709390Y-85895814D01*
X66621789Y-85764711D01*
X66621786Y-85764707D01*
X66510292Y-85653213D01*
X66510288Y-85653210D01*
X66379185Y-85565609D01*
X66379172Y-85565602D01*
X66233501Y-85505264D01*
X66233489Y-85505261D01*
X66078845Y-85474500D01*
X66078842Y-85474500D01*
X65921158Y-85474500D01*
X65921155Y-85474500D01*
X65766510Y-85505261D01*
X65766498Y-85505264D01*
X65620827Y-85565602D01*
X65620814Y-85565609D01*
X65489711Y-85653210D01*
X65489707Y-85653213D01*
X65378213Y-85764707D01*
X65378210Y-85764711D01*
X65290609Y-85895814D01*
X65290602Y-85895827D01*
X65230264Y-86041498D01*
X65230261Y-86041510D01*
X65199500Y-86196153D01*
X58070137Y-86196153D01*
X57925497Y-86091067D01*
X57736091Y-85994560D01*
X57736090Y-85994559D01*
X57736089Y-85994559D01*
X57533920Y-85928870D01*
X57533918Y-85928869D01*
X57533917Y-85928869D01*
X57372634Y-85903324D01*
X57323964Y-85895616D01*
X57111390Y-85895616D01*
X57062719Y-85903324D01*
X56901437Y-85928869D01*
X56699262Y-85994560D01*
X56509856Y-86091067D01*
X56337890Y-86216006D01*
X56187567Y-86366329D01*
X56062628Y-86538295D01*
X55966121Y-86727701D01*
X55900430Y-86929876D01*
X55867177Y-87139829D01*
X54275386Y-87139829D01*
X54274579Y-86353842D01*
X54271980Y-83822340D01*
X89975101Y-83822340D01*
X89975101Y-83980033D01*
X90005862Y-84134676D01*
X90005865Y-84134688D01*
X90066203Y-84280359D01*
X90066210Y-84280372D01*
X90153811Y-84411475D01*
X90153814Y-84411479D01*
X90265308Y-84522973D01*
X90265312Y-84522976D01*
X90396415Y-84610577D01*
X90396428Y-84610584D01*
X90542099Y-84670922D01*
X90542104Y-84670924D01*
X90696754Y-84701686D01*
X90696757Y-84701687D01*
X90696759Y-84701687D01*
X90854445Y-84701687D01*
X90854446Y-84701686D01*
X91009098Y-84670924D01*
X91154780Y-84610581D01*
X91285890Y-84522976D01*
X91397390Y-84411476D01*
X91484995Y-84280366D01*
X91545338Y-84134684D01*
X91576101Y-83980029D01*
X91576101Y-83822345D01*
X91576101Y-83822342D01*
X91576100Y-83822340D01*
X91545339Y-83667697D01*
X91545338Y-83667690D01*
X91545336Y-83667685D01*
X91484998Y-83522014D01*
X91484991Y-83522001D01*
X91397390Y-83390898D01*
X91397387Y-83390894D01*
X91285893Y-83279400D01*
X91285889Y-83279397D01*
X91154786Y-83191796D01*
X91154773Y-83191789D01*
X91009102Y-83131451D01*
X91009090Y-83131448D01*
X90854446Y-83100687D01*
X90854443Y-83100687D01*
X90696759Y-83100687D01*
X90696756Y-83100687D01*
X90542111Y-83131448D01*
X90542099Y-83131451D01*
X90396428Y-83191789D01*
X90396415Y-83191796D01*
X90265312Y-83279397D01*
X90265308Y-83279400D01*
X90153814Y-83390894D01*
X90153811Y-83390898D01*
X90066210Y-83522001D01*
X90066203Y-83522014D01*
X90005865Y-83667685D01*
X90005862Y-83667697D01*
X89975101Y-83822340D01*
X54271980Y-83822340D01*
X54271974Y-83816380D01*
X54270247Y-82134286D01*
X54269695Y-81596153D01*
X61299500Y-81596153D01*
X61299500Y-81753846D01*
X61330261Y-81908489D01*
X61330264Y-81908501D01*
X61390602Y-82054172D01*
X61390609Y-82054185D01*
X61478210Y-82185288D01*
X61478213Y-82185292D01*
X61589707Y-82296786D01*
X61589711Y-82296789D01*
X61720814Y-82384390D01*
X61720827Y-82384397D01*
X61866498Y-82444735D01*
X61866503Y-82444737D01*
X62021153Y-82475499D01*
X62021156Y-82475500D01*
X62021158Y-82475500D01*
X62178844Y-82475500D01*
X62178845Y-82475499D01*
X62333497Y-82444737D01*
X62479179Y-82384394D01*
X62610289Y-82296789D01*
X62721789Y-82185289D01*
X62809394Y-82054179D01*
X62869737Y-81908497D01*
X62900500Y-81753842D01*
X62900500Y-81596158D01*
X62900500Y-81596155D01*
X62900499Y-81596153D01*
X62870788Y-81446789D01*
X62869737Y-81441503D01*
X62866486Y-81433655D01*
X62809397Y-81295827D01*
X62809390Y-81295814D01*
X62721789Y-81164711D01*
X62721786Y-81164707D01*
X62610292Y-81053213D01*
X62610288Y-81053210D01*
X62479185Y-80965609D01*
X62479172Y-80965602D01*
X62333501Y-80905264D01*
X62333489Y-80905261D01*
X62178845Y-80874500D01*
X62178842Y-80874500D01*
X62021158Y-80874500D01*
X62021155Y-80874500D01*
X61866510Y-80905261D01*
X61866498Y-80905264D01*
X61720827Y-80965602D01*
X61720814Y-80965609D01*
X61589711Y-81053210D01*
X61589707Y-81053213D01*
X61478213Y-81164707D01*
X61478210Y-81164711D01*
X61390609Y-81295814D01*
X61390602Y-81295827D01*
X61330264Y-81441498D01*
X61330261Y-81441510D01*
X61299500Y-81596153D01*
X54269695Y-81596153D01*
X54268822Y-80746153D01*
X63424500Y-80746153D01*
X63424500Y-80903846D01*
X63455261Y-81058489D01*
X63455264Y-81058501D01*
X63515602Y-81204172D01*
X63515609Y-81204185D01*
X63603210Y-81335288D01*
X63603213Y-81335292D01*
X63714707Y-81446786D01*
X63714711Y-81446789D01*
X63845814Y-81534390D01*
X63845827Y-81534397D01*
X63983316Y-81591346D01*
X63991503Y-81594737D01*
X64146153Y-81625499D01*
X64146156Y-81625500D01*
X64146158Y-81625500D01*
X64303844Y-81625500D01*
X64303845Y-81625499D01*
X64458497Y-81594737D01*
X64604179Y-81534394D01*
X64735289Y-81446789D01*
X64748425Y-81433653D01*
X66562000Y-81433653D01*
X66562000Y-81591346D01*
X66592761Y-81745989D01*
X66592764Y-81746001D01*
X66653102Y-81891672D01*
X66653109Y-81891685D01*
X66740710Y-82022788D01*
X66740713Y-82022792D01*
X66852207Y-82134286D01*
X66852211Y-82134289D01*
X66983314Y-82221890D01*
X66983327Y-82221897D01*
X67128998Y-82282235D01*
X67129003Y-82282237D01*
X67283653Y-82312999D01*
X67283656Y-82313000D01*
X67283658Y-82313000D01*
X67441344Y-82313000D01*
X67441345Y-82312999D01*
X67595997Y-82282237D01*
X67741679Y-82221894D01*
X67872789Y-82134289D01*
X67984289Y-82022789D01*
X68071894Y-81891679D01*
X68132237Y-81745997D01*
X68163000Y-81591342D01*
X68163000Y-81433658D01*
X68163000Y-81433655D01*
X68162999Y-81433653D01*
X68144347Y-81339885D01*
X68132237Y-81279003D01*
X68101244Y-81204179D01*
X68071897Y-81133327D01*
X68071890Y-81133314D01*
X67984289Y-81002211D01*
X67984286Y-81002207D01*
X67872792Y-80890713D01*
X67872788Y-80890710D01*
X67741685Y-80803109D01*
X67741672Y-80803102D01*
X67596001Y-80742764D01*
X67595989Y-80742761D01*
X67441345Y-80712000D01*
X67441342Y-80712000D01*
X67283658Y-80712000D01*
X67283655Y-80712000D01*
X67129010Y-80742761D01*
X67128998Y-80742764D01*
X66983327Y-80803102D01*
X66983314Y-80803109D01*
X66852211Y-80890710D01*
X66852207Y-80890713D01*
X66740713Y-81002207D01*
X66740710Y-81002211D01*
X66653109Y-81133314D01*
X66653102Y-81133327D01*
X66592764Y-81278998D01*
X66592761Y-81279010D01*
X66562000Y-81433653D01*
X64748425Y-81433653D01*
X64842194Y-81339885D01*
X64846786Y-81335292D01*
X64846789Y-81335289D01*
X64934394Y-81204179D01*
X64994737Y-81058497D01*
X65025500Y-80903842D01*
X65025500Y-80746158D01*
X65025500Y-80746155D01*
X65025499Y-80746153D01*
X65019783Y-80717419D01*
X64994737Y-80591503D01*
X64986549Y-80571736D01*
X64934397Y-80445827D01*
X64934390Y-80445814D01*
X64851796Y-80322204D01*
X64846789Y-80314711D01*
X64846786Y-80314707D01*
X64791479Y-80259400D01*
X69324500Y-80259400D01*
X69324500Y-80417093D01*
X69355261Y-80571736D01*
X69355264Y-80571748D01*
X69415602Y-80717419D01*
X69415609Y-80717432D01*
X69503210Y-80848535D01*
X69503213Y-80848539D01*
X69614707Y-80960033D01*
X69614711Y-80960036D01*
X69745814Y-81047637D01*
X69745827Y-81047644D01*
X69891498Y-81107982D01*
X69891503Y-81107984D01*
X70018845Y-81133314D01*
X70046153Y-81138746D01*
X70046156Y-81138747D01*
X70046158Y-81138747D01*
X70203844Y-81138747D01*
X70203845Y-81138746D01*
X70358497Y-81107984D01*
X70504179Y-81047641D01*
X70635289Y-80960036D01*
X70746789Y-80848536D01*
X70834394Y-80717426D01*
X70894737Y-80571744D01*
X70925500Y-80417089D01*
X70925500Y-80296153D01*
X74499500Y-80296153D01*
X74499500Y-80453846D01*
X74530261Y-80608489D01*
X74530264Y-80608501D01*
X74590602Y-80754172D01*
X74590609Y-80754185D01*
X74678210Y-80885288D01*
X74678213Y-80885292D01*
X74789707Y-80996786D01*
X74789711Y-80996789D01*
X74920814Y-81084390D01*
X74920827Y-81084397D01*
X75066498Y-81144735D01*
X75066503Y-81144737D01*
X75221153Y-81175499D01*
X75221156Y-81175500D01*
X75221158Y-81175500D01*
X75378844Y-81175500D01*
X75378845Y-81175499D01*
X75533497Y-81144737D01*
X75679179Y-81084394D01*
X75810289Y-80996789D01*
X75921789Y-80885289D01*
X76009394Y-80754179D01*
X76012719Y-80746153D01*
X76069735Y-80608501D01*
X76069737Y-80608497D01*
X76100500Y-80453842D01*
X76100500Y-80296158D01*
X76100500Y-80296155D01*
X76100499Y-80296153D01*
X76082012Y-80203213D01*
X76069737Y-80141503D01*
X76069735Y-80141498D01*
X76009397Y-79995827D01*
X76009390Y-79995814D01*
X75921789Y-79864711D01*
X75921786Y-79864707D01*
X75810292Y-79753213D01*
X75810288Y-79753210D01*
X75679185Y-79665609D01*
X75679172Y-79665602D01*
X75533501Y-79605264D01*
X75533489Y-79605261D01*
X75378845Y-79574500D01*
X75378842Y-79574500D01*
X75221158Y-79574500D01*
X75221155Y-79574500D01*
X75066510Y-79605261D01*
X75066498Y-79605264D01*
X74920827Y-79665602D01*
X74920814Y-79665609D01*
X74789711Y-79753210D01*
X74789707Y-79753213D01*
X74678213Y-79864707D01*
X74678210Y-79864711D01*
X74590609Y-79995814D01*
X74590602Y-79995827D01*
X74530264Y-80141498D01*
X74530261Y-80141510D01*
X74499500Y-80296153D01*
X70925500Y-80296153D01*
X70925500Y-80259405D01*
X70925500Y-80259402D01*
X70925499Y-80259400D01*
X70894737Y-80104750D01*
X70894735Y-80104745D01*
X70834397Y-79959074D01*
X70834390Y-79959061D01*
X70746789Y-79827958D01*
X70746786Y-79827954D01*
X70635292Y-79716460D01*
X70635288Y-79716457D01*
X70504185Y-79628856D01*
X70504172Y-79628849D01*
X70358501Y-79568511D01*
X70358489Y-79568508D01*
X70203845Y-79537747D01*
X70203842Y-79537747D01*
X70046158Y-79537747D01*
X70046155Y-79537747D01*
X69891510Y-79568508D01*
X69891498Y-79568511D01*
X69745827Y-79628849D01*
X69745814Y-79628856D01*
X69614711Y-79716457D01*
X69614707Y-79716460D01*
X69503213Y-79827954D01*
X69503210Y-79827958D01*
X69415609Y-79959061D01*
X69415602Y-79959074D01*
X69355264Y-80104745D01*
X69355261Y-80104757D01*
X69324500Y-80259400D01*
X64791479Y-80259400D01*
X64735292Y-80203213D01*
X64735288Y-80203210D01*
X64604185Y-80115609D01*
X64604172Y-80115602D01*
X64458501Y-80055264D01*
X64458489Y-80055261D01*
X64303845Y-80024500D01*
X64303842Y-80024500D01*
X64146158Y-80024500D01*
X64146155Y-80024500D01*
X63991510Y-80055261D01*
X63991498Y-80055264D01*
X63845827Y-80115602D01*
X63845814Y-80115609D01*
X63714711Y-80203210D01*
X63714707Y-80203213D01*
X63603213Y-80314707D01*
X63603210Y-80314711D01*
X63515609Y-80445814D01*
X63515602Y-80445827D01*
X63455264Y-80591498D01*
X63455261Y-80591510D01*
X63424500Y-80746153D01*
X54268822Y-80746153D01*
X54247468Y-59947076D01*
X55205955Y-59947076D01*
X55205955Y-60159649D01*
X55236612Y-60353213D01*
X55239209Y-60369606D01*
X55302258Y-60563651D01*
X55304899Y-60571777D01*
X55401406Y-60761183D01*
X55526345Y-60933149D01*
X55676668Y-61083472D01*
X55848637Y-61208413D01*
X55857401Y-61212879D01*
X55908197Y-61260854D01*
X55924991Y-61328675D01*
X55902453Y-61394810D01*
X55857401Y-61433847D01*
X55848637Y-61438312D01*
X55676668Y-61563253D01*
X55526345Y-61713576D01*
X55401406Y-61885542D01*
X55304899Y-62074948D01*
X55239208Y-62277123D01*
X55217106Y-62416672D01*
X55205955Y-62487076D01*
X55205955Y-62699650D01*
X55213437Y-62746890D01*
X55227867Y-62838000D01*
X55239209Y-62909606D01*
X55287527Y-63058314D01*
X55304899Y-63111777D01*
X55401406Y-63301183D01*
X55526345Y-63473149D01*
X55676668Y-63623472D01*
X55848637Y-63748413D01*
X55857401Y-63752879D01*
X55908197Y-63800854D01*
X55924991Y-63868675D01*
X55902453Y-63934810D01*
X55857401Y-63973847D01*
X55848637Y-63978312D01*
X55676668Y-64103253D01*
X55526345Y-64253576D01*
X55401406Y-64425542D01*
X55304899Y-64614948D01*
X55239208Y-64817123D01*
X55205955Y-65027076D01*
X55205955Y-65239650D01*
X55239209Y-65449606D01*
X55299542Y-65635292D01*
X55304899Y-65651777D01*
X55401406Y-65841183D01*
X55526345Y-66013149D01*
X55676668Y-66163472D01*
X55848637Y-66288413D01*
X55857401Y-66292879D01*
X55908197Y-66340854D01*
X55924991Y-66408675D01*
X55902453Y-66474810D01*
X55857401Y-66513847D01*
X55848637Y-66518312D01*
X55676668Y-66643253D01*
X55526345Y-66793576D01*
X55401406Y-66965542D01*
X55304899Y-67154948D01*
X55239208Y-67357123D01*
X55226970Y-67434394D01*
X55205955Y-67567076D01*
X55205955Y-67779650D01*
X55239209Y-67989606D01*
X55293034Y-68155263D01*
X55304899Y-68191777D01*
X55401406Y-68381183D01*
X55526345Y-68553149D01*
X55676668Y-68703472D01*
X55848637Y-68828413D01*
X55857401Y-68832879D01*
X55908197Y-68880854D01*
X55924991Y-68948675D01*
X55902453Y-69014810D01*
X55857401Y-69053847D01*
X55848637Y-69058312D01*
X55676668Y-69183253D01*
X55526345Y-69333576D01*
X55401406Y-69505542D01*
X55304899Y-69694948D01*
X55239208Y-69897123D01*
X55212524Y-70065602D01*
X55205955Y-70107076D01*
X55205955Y-70319650D01*
X55239209Y-70529606D01*
X55293325Y-70696158D01*
X55304899Y-70731777D01*
X55401406Y-70921183D01*
X55526345Y-71093149D01*
X55676668Y-71243472D01*
X55848637Y-71368413D01*
X55857401Y-71372879D01*
X55908197Y-71420854D01*
X55924991Y-71488675D01*
X55902453Y-71554810D01*
X55857401Y-71593847D01*
X55848637Y-71598312D01*
X55676668Y-71723253D01*
X55526345Y-71873576D01*
X55401406Y-72045542D01*
X55304899Y-72234948D01*
X55239208Y-72437123D01*
X55205955Y-72647076D01*
X55205955Y-72859649D01*
X55224887Y-72979185D01*
X55239209Y-73069606D01*
X55288656Y-73221789D01*
X55304899Y-73271777D01*
X55401406Y-73461183D01*
X55526345Y-73633149D01*
X55676668Y-73783472D01*
X55848637Y-73908413D01*
X55857401Y-73912879D01*
X55908197Y-73960854D01*
X55924991Y-74028675D01*
X55902453Y-74094810D01*
X55857401Y-74133847D01*
X55848637Y-74138312D01*
X55676668Y-74263253D01*
X55526345Y-74413576D01*
X55401406Y-74585542D01*
X55304899Y-74774948D01*
X55239208Y-74977123D01*
X55205955Y-75187076D01*
X55205955Y-75399649D01*
X55238520Y-75605261D01*
X55239209Y-75609606D01*
X55285869Y-75753211D01*
X55304899Y-75811777D01*
X55401406Y-76001183D01*
X55526345Y-76173149D01*
X55640273Y-76287077D01*
X55673758Y-76348400D01*
X55668774Y-76418092D01*
X55626902Y-76474025D01*
X55595926Y-76490940D01*
X55464367Y-76540009D01*
X55464361Y-76540012D01*
X55349267Y-76626172D01*
X55349264Y-76626175D01*
X55263104Y-76741269D01*
X55263100Y-76741276D01*
X55212858Y-76875983D01*
X55212856Y-76875990D01*
X55206455Y-76935518D01*
X55206455Y-77583363D01*
X56123443Y-77583363D01*
X56090530Y-77640370D01*
X56056455Y-77767537D01*
X56056455Y-77899189D01*
X56090530Y-78026356D01*
X56123443Y-78083363D01*
X55206455Y-78083363D01*
X55206455Y-78731207D01*
X55212856Y-78790735D01*
X55212858Y-78790742D01*
X55263100Y-78925449D01*
X55263104Y-78925456D01*
X55349264Y-79040550D01*
X55349267Y-79040553D01*
X55464361Y-79126713D01*
X55464368Y-79126717D01*
X55599075Y-79176959D01*
X55599082Y-79176961D01*
X55658610Y-79183362D01*
X55658627Y-79183363D01*
X56306455Y-79183363D01*
X56306455Y-78266375D01*
X56363462Y-78299288D01*
X56490629Y-78333363D01*
X56622281Y-78333363D01*
X56749448Y-78299288D01*
X56806455Y-78266375D01*
X56806455Y-79183363D01*
X57454283Y-79183363D01*
X57454299Y-79183362D01*
X57513827Y-79176961D01*
X57513834Y-79176959D01*
X57648541Y-79126717D01*
X57648548Y-79126713D01*
X57763642Y-79040553D01*
X57763645Y-79040550D01*
X57849805Y-78925456D01*
X57849809Y-78925449D01*
X57900051Y-78790742D01*
X57900053Y-78790735D01*
X57906454Y-78731207D01*
X57906455Y-78731190D01*
X57906455Y-78083363D01*
X56989467Y-78083363D01*
X57022380Y-78026356D01*
X57056455Y-77899189D01*
X57056455Y-77767537D01*
X57022380Y-77640370D01*
X56989467Y-77583363D01*
X57906455Y-77583363D01*
X57906455Y-76935535D01*
X57906454Y-76935518D01*
X57900053Y-76875990D01*
X57900051Y-76875983D01*
X57849809Y-76741276D01*
X57849805Y-76741269D01*
X57763645Y-76626175D01*
X57763642Y-76626172D01*
X57648548Y-76540012D01*
X57648543Y-76540009D01*
X57516983Y-76490940D01*
X57513482Y-76488319D01*
X57461049Y-76449068D01*
X57436633Y-76383603D01*
X57451485Y-76315330D01*
X57465840Y-76296153D01*
X66699500Y-76296153D01*
X66699500Y-76453846D01*
X66730261Y-76608489D01*
X66730264Y-76608501D01*
X66790602Y-76754172D01*
X66790609Y-76754185D01*
X66878210Y-76885288D01*
X66878213Y-76885292D01*
X66989707Y-76996786D01*
X66989711Y-76996789D01*
X67120814Y-77084390D01*
X67120827Y-77084397D01*
X67266498Y-77144735D01*
X67266503Y-77144737D01*
X67421153Y-77175499D01*
X67421156Y-77175500D01*
X67421158Y-77175500D01*
X67578844Y-77175500D01*
X67578845Y-77175499D01*
X67733497Y-77144737D01*
X67879179Y-77084394D01*
X68010289Y-76996789D01*
X68121789Y-76885289D01*
X68209394Y-76754179D01*
X68214742Y-76741269D01*
X68255088Y-76643863D01*
X68269737Y-76608497D01*
X68300500Y-76453842D01*
X68300500Y-76296158D01*
X68300500Y-76296155D01*
X68300499Y-76296153D01*
X68290001Y-76243376D01*
X68269737Y-76141503D01*
X68211615Y-76001183D01*
X68209397Y-75995827D01*
X68209390Y-75995814D01*
X68121789Y-75864711D01*
X68121786Y-75864707D01*
X68010292Y-75753213D01*
X68010288Y-75753210D01*
X67879185Y-75665609D01*
X67879172Y-75665602D01*
X67733501Y-75605264D01*
X67733489Y-75605261D01*
X67578845Y-75574500D01*
X67578842Y-75574500D01*
X67421158Y-75574500D01*
X67421155Y-75574500D01*
X67266510Y-75605261D01*
X67266498Y-75605264D01*
X67120827Y-75665602D01*
X67120814Y-75665609D01*
X66989711Y-75753210D01*
X66989707Y-75753213D01*
X66878213Y-75864707D01*
X66878210Y-75864711D01*
X66790609Y-75995814D01*
X66790602Y-75995827D01*
X66730264Y-76141498D01*
X66730261Y-76141510D01*
X66699500Y-76296153D01*
X57465840Y-76296153D01*
X57472630Y-76287083D01*
X57586559Y-76173155D01*
X57586561Y-76173151D01*
X57586564Y-76173149D01*
X57711503Y-76001183D01*
X57711502Y-76001183D01*
X57711506Y-76001179D01*
X57808012Y-75811775D01*
X57873701Y-75609606D01*
X57906955Y-75399650D01*
X57906955Y-75187076D01*
X57873701Y-74977120D01*
X57808012Y-74774951D01*
X57711506Y-74585547D01*
X57711504Y-74585544D01*
X57711503Y-74585542D01*
X57586564Y-74413576D01*
X57436241Y-74263253D01*
X57264275Y-74138314D01*
X57263570Y-74137954D01*
X57255509Y-74133848D01*
X57204714Y-74085875D01*
X57187918Y-74018055D01*
X57210454Y-73951919D01*
X57255509Y-73912878D01*
X57264271Y-73908414D01*
X57286244Y-73892449D01*
X57436241Y-73783472D01*
X57436243Y-73783469D01*
X57436247Y-73783467D01*
X57586559Y-73633155D01*
X57586561Y-73633151D01*
X57586564Y-73633149D01*
X57641354Y-73557734D01*
X57711506Y-73461179D01*
X57757377Y-73371153D01*
X74865425Y-73371153D01*
X74865425Y-73528846D01*
X74896186Y-73683489D01*
X74896189Y-73683501D01*
X74956527Y-73829172D01*
X74956534Y-73829185D01*
X75044135Y-73960288D01*
X75044138Y-73960292D01*
X75155632Y-74071786D01*
X75155636Y-74071789D01*
X75286739Y-74159390D01*
X75286752Y-74159397D01*
X75405393Y-74208539D01*
X75432428Y-74219737D01*
X75587078Y-74250499D01*
X75587081Y-74250500D01*
X75587083Y-74250500D01*
X75744769Y-74250500D01*
X75744770Y-74250499D01*
X75899422Y-74219737D01*
X76012091Y-74173067D01*
X76045097Y-74159397D01*
X76045097Y-74159396D01*
X76045104Y-74159394D01*
X76176214Y-74071789D01*
X76287714Y-73960289D01*
X76375319Y-73829179D01*
X76435662Y-73683497D01*
X76466425Y-73528842D01*
X76466425Y-73371158D01*
X76466425Y-73371155D01*
X76466424Y-73371153D01*
X76436713Y-73221789D01*
X76435662Y-73216503D01*
X76435660Y-73216498D01*
X76375322Y-73070827D01*
X76375315Y-73070814D01*
X76287714Y-72939711D01*
X76287711Y-72939707D01*
X76176217Y-72828213D01*
X76176213Y-72828210D01*
X76045110Y-72740609D01*
X76045097Y-72740602D01*
X75899426Y-72680264D01*
X75899414Y-72680261D01*
X75744770Y-72649500D01*
X75744767Y-72649500D01*
X75587083Y-72649500D01*
X75587080Y-72649500D01*
X75432435Y-72680261D01*
X75432423Y-72680264D01*
X75286752Y-72740602D01*
X75286739Y-72740609D01*
X75155636Y-72828210D01*
X75155632Y-72828213D01*
X75044138Y-72939707D01*
X75044135Y-72939711D01*
X74956534Y-73070814D01*
X74956527Y-73070827D01*
X74896189Y-73216498D01*
X74896186Y-73216510D01*
X74865425Y-73371153D01*
X57757377Y-73371153D01*
X57788843Y-73309397D01*
X57789162Y-73308771D01*
X57789163Y-73308769D01*
X57808009Y-73271780D01*
X57808012Y-73271775D01*
X57873701Y-73069606D01*
X57906955Y-72859650D01*
X57906955Y-72647076D01*
X57873701Y-72437120D01*
X57808012Y-72234951D01*
X57711506Y-72045547D01*
X57711504Y-72045544D01*
X57711503Y-72045542D01*
X57586564Y-71873576D01*
X57436241Y-71723253D01*
X57264275Y-71598314D01*
X57263570Y-71597954D01*
X57255509Y-71593848D01*
X57204714Y-71545875D01*
X57187918Y-71478055D01*
X57210454Y-71411919D01*
X57255509Y-71372878D01*
X57264271Y-71368414D01*
X57286244Y-71352449D01*
X57436241Y-71243472D01*
X57436243Y-71243469D01*
X57436247Y-71243467D01*
X57586559Y-71093155D01*
X57586561Y-71093151D01*
X57586564Y-71093149D01*
X57711503Y-70921183D01*
X57711502Y-70921183D01*
X57711506Y-70921179D01*
X57808012Y-70731775D01*
X57873701Y-70529606D01*
X57890878Y-70421153D01*
X83224500Y-70421153D01*
X83224500Y-70578846D01*
X83255261Y-70733489D01*
X83255264Y-70733501D01*
X83315602Y-70879172D01*
X83315609Y-70879185D01*
X83403210Y-71010288D01*
X83403213Y-71010292D01*
X83514707Y-71121786D01*
X83514711Y-71121789D01*
X83645814Y-71209390D01*
X83645827Y-71209397D01*
X83728093Y-71243472D01*
X83791503Y-71269737D01*
X83946153Y-71300499D01*
X83946156Y-71300500D01*
X83946158Y-71300500D01*
X84103844Y-71300500D01*
X84192001Y-71282964D01*
X84223305Y-71276737D01*
X84292897Y-71282964D01*
X84348074Y-71325827D01*
X84371319Y-71391716D01*
X84369115Y-71422544D01*
X84349500Y-71521158D01*
X84349500Y-71678846D01*
X84380261Y-71833489D01*
X84380264Y-71833501D01*
X84440602Y-71979172D01*
X84440609Y-71979185D01*
X84528210Y-72110288D01*
X84528213Y-72110292D01*
X84639707Y-72221786D01*
X84639711Y-72221789D01*
X84770814Y-72309390D01*
X84770827Y-72309397D01*
X84844578Y-72339945D01*
X84916503Y-72369737D01*
X85071153Y-72400499D01*
X85071156Y-72400500D01*
X85071158Y-72400500D01*
X85228844Y-72400500D01*
X85228845Y-72400499D01*
X85383497Y-72369737D01*
X85437390Y-72347413D01*
X85506859Y-72339945D01*
X85569338Y-72371220D01*
X85604990Y-72431309D01*
X85606460Y-72486164D01*
X85599500Y-72521157D01*
X85599500Y-72678846D01*
X85630261Y-72833489D01*
X85630264Y-72833501D01*
X85690602Y-72979172D01*
X85690609Y-72979185D01*
X85778210Y-73110288D01*
X85778213Y-73110292D01*
X85889707Y-73221786D01*
X85889711Y-73221789D01*
X86020814Y-73309390D01*
X86020827Y-73309397D01*
X86166498Y-73369735D01*
X86166503Y-73369737D01*
X86321153Y-73400499D01*
X86321156Y-73400500D01*
X86321158Y-73400500D01*
X86478844Y-73400500D01*
X86478845Y-73400499D01*
X86633497Y-73369737D01*
X86779179Y-73309394D01*
X86910289Y-73221789D01*
X87021789Y-73110289D01*
X87109394Y-72979179D01*
X87169737Y-72833497D01*
X87200500Y-72678842D01*
X87200500Y-72521158D01*
X87200500Y-72521157D01*
X87200500Y-72521155D01*
X87200499Y-72521153D01*
X87183784Y-72437123D01*
X87169737Y-72366503D01*
X87161830Y-72347414D01*
X87109397Y-72220827D01*
X87109390Y-72220814D01*
X87021789Y-72089711D01*
X87021786Y-72089707D01*
X86910292Y-71978213D01*
X86910288Y-71978210D01*
X86779185Y-71890609D01*
X86779172Y-71890602D01*
X86633501Y-71830264D01*
X86633489Y-71830261D01*
X86478845Y-71799500D01*
X86478842Y-71799500D01*
X86321158Y-71799500D01*
X86321155Y-71799500D01*
X86166510Y-71830261D01*
X86166499Y-71830264D01*
X86112607Y-71852586D01*
X86106464Y-71853246D01*
X86101302Y-71856639D01*
X86072134Y-71856936D01*
X86043138Y-71860053D01*
X86037614Y-71857288D01*
X86031436Y-71857351D01*
X86006738Y-71841831D01*
X85980659Y-71828777D01*
X85977506Y-71823463D01*
X85972276Y-71820177D01*
X85959890Y-71793771D01*
X85945008Y-71768688D01*
X85944562Y-71761093D01*
X85942605Y-71756921D01*
X85943067Y-71735620D01*
X85942246Y-71721628D01*
X85942768Y-71717709D01*
X85950500Y-71678842D01*
X85950500Y-71659750D01*
X85951589Y-71651587D01*
X85962568Y-71626881D01*
X85970185Y-71600944D01*
X85976545Y-71595432D01*
X85979965Y-71587739D01*
X86002560Y-71572890D01*
X86022989Y-71555189D01*
X86035786Y-71551055D01*
X86038355Y-71549368D01*
X86041098Y-71549340D01*
X86050305Y-71546366D01*
X86058497Y-71544737D01*
X86204179Y-71484394D01*
X86335289Y-71396789D01*
X86446789Y-71285289D01*
X86534394Y-71154179D01*
X86594737Y-71008497D01*
X86625500Y-70853842D01*
X86625500Y-70696158D01*
X86625500Y-70696155D01*
X86625499Y-70696153D01*
X86594737Y-70541503D01*
X86589809Y-70529606D01*
X86534397Y-70395827D01*
X86534390Y-70395814D01*
X86446789Y-70264711D01*
X86446786Y-70264707D01*
X86335292Y-70153213D01*
X86335288Y-70153210D01*
X86204185Y-70065609D01*
X86204172Y-70065602D01*
X86058501Y-70005264D01*
X86058489Y-70005261D01*
X85903845Y-69974500D01*
X85903842Y-69974500D01*
X85746158Y-69974500D01*
X85746155Y-69974500D01*
X85591510Y-70005261D01*
X85591498Y-70005264D01*
X85445827Y-70065602D01*
X85445814Y-70065609D01*
X85314711Y-70153210D01*
X85314707Y-70153213D01*
X85203213Y-70264707D01*
X85203210Y-70264711D01*
X85115609Y-70395814D01*
X85115602Y-70395827D01*
X85064061Y-70520261D01*
X85020220Y-70574665D01*
X84953926Y-70596730D01*
X84886227Y-70579451D01*
X84838616Y-70528314D01*
X84825500Y-70472809D01*
X84825500Y-70421155D01*
X84825499Y-70421153D01*
X84819278Y-70389877D01*
X84794737Y-70266503D01*
X84793993Y-70264707D01*
X84734397Y-70120827D01*
X84734390Y-70120814D01*
X84646789Y-69989711D01*
X84646786Y-69989707D01*
X84535292Y-69878213D01*
X84535288Y-69878210D01*
X84404185Y-69790609D01*
X84404172Y-69790602D01*
X84258501Y-69730264D01*
X84258489Y-69730261D01*
X84103845Y-69699500D01*
X84103842Y-69699500D01*
X83946158Y-69699500D01*
X83946155Y-69699500D01*
X83791510Y-69730261D01*
X83791498Y-69730264D01*
X83645827Y-69790602D01*
X83645814Y-69790609D01*
X83514711Y-69878210D01*
X83514707Y-69878213D01*
X83403213Y-69989707D01*
X83403210Y-69989711D01*
X83315609Y-70120814D01*
X83315602Y-70120827D01*
X83255264Y-70266498D01*
X83255261Y-70266510D01*
X83224500Y-70421153D01*
X57890878Y-70421153D01*
X57906955Y-70319650D01*
X57906955Y-70107076D01*
X57873701Y-69897120D01*
X57808012Y-69694951D01*
X57711506Y-69505547D01*
X57711504Y-69505544D01*
X57711503Y-69505542D01*
X57586564Y-69333576D01*
X57436241Y-69183253D01*
X57264275Y-69058314D01*
X57263570Y-69057954D01*
X57255509Y-69053848D01*
X57204714Y-69005875D01*
X57187918Y-68938055D01*
X57210454Y-68871919D01*
X57255509Y-68832878D01*
X57264271Y-68828414D01*
X57286244Y-68812449D01*
X57377494Y-68746153D01*
X60524500Y-68746153D01*
X60524500Y-68903846D01*
X60555261Y-69058489D01*
X60555264Y-69058501D01*
X60615602Y-69204172D01*
X60615609Y-69204185D01*
X60703210Y-69335288D01*
X60703213Y-69335292D01*
X60814707Y-69446786D01*
X60814711Y-69446789D01*
X60945814Y-69534390D01*
X60945827Y-69534397D01*
X61091498Y-69594735D01*
X61091503Y-69594737D01*
X61246153Y-69625499D01*
X61246156Y-69625500D01*
X61246158Y-69625500D01*
X61403844Y-69625500D01*
X61403845Y-69625499D01*
X61558497Y-69594737D01*
X61704179Y-69534394D01*
X61835289Y-69446789D01*
X61946789Y-69335289D01*
X62034394Y-69204179D01*
X62094737Y-69058497D01*
X62125500Y-68903842D01*
X62125500Y-68846153D01*
X90499500Y-68846153D01*
X90499500Y-69003846D01*
X90530261Y-69158489D01*
X90530264Y-69158501D01*
X90590602Y-69304172D01*
X90590609Y-69304185D01*
X90678210Y-69435288D01*
X90678213Y-69435292D01*
X90789707Y-69546786D01*
X90789711Y-69546789D01*
X90920814Y-69634390D01*
X90920827Y-69634397D01*
X91066498Y-69694735D01*
X91066503Y-69694737D01*
X91221153Y-69725499D01*
X91221156Y-69725500D01*
X91221158Y-69725500D01*
X91378844Y-69725500D01*
X91378845Y-69725499D01*
X91533497Y-69694737D01*
X91679179Y-69634394D01*
X91810289Y-69546789D01*
X91921789Y-69435289D01*
X92009394Y-69304179D01*
X92069737Y-69158497D01*
X92100500Y-69003842D01*
X92100500Y-68846158D01*
X92100500Y-68846155D01*
X92100499Y-68846153D01*
X92086086Y-68773694D01*
X92069737Y-68691503D01*
X92012431Y-68553153D01*
X92009397Y-68545827D01*
X92009390Y-68545814D01*
X91921789Y-68414711D01*
X91921786Y-68414707D01*
X91810292Y-68303213D01*
X91810288Y-68303210D01*
X91679185Y-68215609D01*
X91679172Y-68215602D01*
X91533501Y-68155264D01*
X91533489Y-68155261D01*
X91378845Y-68124500D01*
X91378842Y-68124500D01*
X91221158Y-68124500D01*
X91221155Y-68124500D01*
X91066510Y-68155261D01*
X91066498Y-68155264D01*
X90920827Y-68215602D01*
X90920814Y-68215609D01*
X90789711Y-68303210D01*
X90789707Y-68303213D01*
X90678213Y-68414707D01*
X90678210Y-68414711D01*
X90590609Y-68545814D01*
X90590602Y-68545827D01*
X90530264Y-68691498D01*
X90530261Y-68691510D01*
X90499500Y-68846153D01*
X62125500Y-68846153D01*
X62125500Y-68746158D01*
X62125500Y-68746155D01*
X62125499Y-68746153D01*
X62094738Y-68591510D01*
X62094737Y-68591503D01*
X62078852Y-68553153D01*
X62034397Y-68445827D01*
X62034390Y-68445814D01*
X61946789Y-68314711D01*
X61946786Y-68314707D01*
X61835292Y-68203213D01*
X61835288Y-68203210D01*
X61704185Y-68115609D01*
X61704172Y-68115602D01*
X61558501Y-68055264D01*
X61558489Y-68055261D01*
X61403845Y-68024500D01*
X61403842Y-68024500D01*
X61246158Y-68024500D01*
X61246155Y-68024500D01*
X61091510Y-68055261D01*
X61091498Y-68055264D01*
X60945827Y-68115602D01*
X60945814Y-68115609D01*
X60814711Y-68203210D01*
X60814707Y-68203213D01*
X60703213Y-68314707D01*
X60703210Y-68314711D01*
X60615609Y-68445814D01*
X60615602Y-68445827D01*
X60555264Y-68591498D01*
X60555261Y-68591510D01*
X60524500Y-68746153D01*
X57377494Y-68746153D01*
X57436241Y-68703472D01*
X57436243Y-68703469D01*
X57436247Y-68703467D01*
X57586559Y-68553155D01*
X57586561Y-68553151D01*
X57586564Y-68553149D01*
X57711503Y-68381183D01*
X57711502Y-68381183D01*
X57711506Y-68381179D01*
X57808012Y-68191775D01*
X57873701Y-67989606D01*
X57906955Y-67779650D01*
X57906955Y-67567076D01*
X57873701Y-67357120D01*
X57808012Y-67154951D01*
X57711506Y-66965547D01*
X57711504Y-66965544D01*
X57711503Y-66965542D01*
X57586564Y-66793576D01*
X57436241Y-66643253D01*
X57405823Y-66621153D01*
X62599500Y-66621153D01*
X62599500Y-66778846D01*
X62630261Y-66933489D01*
X62630264Y-66933501D01*
X62690602Y-67079172D01*
X62690609Y-67079185D01*
X62778210Y-67210288D01*
X62778213Y-67210292D01*
X62889707Y-67321786D01*
X62889711Y-67321789D01*
X63020814Y-67409390D01*
X63020827Y-67409397D01*
X63166498Y-67469735D01*
X63166503Y-67469737D01*
X63292176Y-67494735D01*
X63321153Y-67500499D01*
X63321156Y-67500500D01*
X63321158Y-67500500D01*
X63478844Y-67500500D01*
X63478845Y-67500499D01*
X63633497Y-67469737D01*
X63779179Y-67409394D01*
X63910289Y-67321789D01*
X64021789Y-67210289D01*
X64109394Y-67079179D01*
X64169737Y-66933497D01*
X64200500Y-66778842D01*
X64200500Y-66621158D01*
X64200500Y-66621155D01*
X64200499Y-66621153D01*
X64169739Y-66466512D01*
X64169738Y-66466509D01*
X64169737Y-66466503D01*
X64161308Y-66446153D01*
X67599500Y-66446153D01*
X67599500Y-66603846D01*
X67630261Y-66758489D01*
X67630264Y-66758501D01*
X67690602Y-66904172D01*
X67690609Y-66904185D01*
X67778210Y-67035288D01*
X67778213Y-67035292D01*
X67889707Y-67146786D01*
X67889711Y-67146789D01*
X68020814Y-67234390D01*
X68020827Y-67234397D01*
X68166498Y-67294735D01*
X68166503Y-67294737D01*
X68302487Y-67321786D01*
X68321153Y-67325499D01*
X68321156Y-67325500D01*
X68321158Y-67325500D01*
X68478844Y-67325500D01*
X68478845Y-67325499D01*
X68633497Y-67294737D01*
X68779179Y-67234394D01*
X68910289Y-67146789D01*
X69021789Y-67035289D01*
X69109394Y-66904179D01*
X69169737Y-66758497D01*
X69192083Y-66646158D01*
X69192084Y-66646153D01*
X69874500Y-66646153D01*
X69874500Y-66803846D01*
X69905261Y-66958489D01*
X69905264Y-66958501D01*
X69965602Y-67104172D01*
X69965609Y-67104185D01*
X70053210Y-67235288D01*
X70053213Y-67235292D01*
X70164707Y-67346786D01*
X70164711Y-67346789D01*
X70295814Y-67434390D01*
X70295827Y-67434397D01*
X70441498Y-67494735D01*
X70441503Y-67494737D01*
X70596153Y-67525499D01*
X70596156Y-67525500D01*
X70596158Y-67525500D01*
X70753844Y-67525500D01*
X70753845Y-67525499D01*
X70908497Y-67494737D01*
X71054179Y-67434394D01*
X71185289Y-67346789D01*
X71296789Y-67235289D01*
X71384394Y-67104179D01*
X71444737Y-66958497D01*
X71475500Y-66803842D01*
X71475500Y-66646158D01*
X71475500Y-66646155D01*
X71475499Y-66646153D01*
X71470527Y-66621158D01*
X71444737Y-66491503D01*
X71435119Y-66468282D01*
X71384397Y-66345827D01*
X71384387Y-66345809D01*
X71351412Y-66296458D01*
X71351411Y-66296457D01*
X71309446Y-66233653D01*
X90712000Y-66233653D01*
X90712000Y-66391346D01*
X90742761Y-66545989D01*
X90742764Y-66546001D01*
X90803102Y-66691672D01*
X90803109Y-66691685D01*
X90890710Y-66822788D01*
X90890713Y-66822792D01*
X91002207Y-66934286D01*
X91002211Y-66934289D01*
X91133314Y-67021890D01*
X91133327Y-67021897D01*
X91271603Y-67079172D01*
X91279003Y-67082237D01*
X91433653Y-67112999D01*
X91433656Y-67113000D01*
X91433658Y-67113000D01*
X91591344Y-67113000D01*
X91591345Y-67112999D01*
X91745997Y-67082237D01*
X91891679Y-67021894D01*
X92022789Y-66934289D01*
X92134289Y-66822789D01*
X92221894Y-66691679D01*
X92282237Y-66545997D01*
X92313000Y-66391342D01*
X92313000Y-66233658D01*
X92313000Y-66233655D01*
X92312999Y-66233653D01*
X92304258Y-66189711D01*
X92282237Y-66079003D01*
X92255979Y-66015609D01*
X92221897Y-65933327D01*
X92221890Y-65933314D01*
X92134289Y-65802211D01*
X92134286Y-65802207D01*
X92022792Y-65690713D01*
X92022788Y-65690710D01*
X91891685Y-65603109D01*
X91891672Y-65603102D01*
X91746001Y-65542764D01*
X91745989Y-65542761D01*
X91591345Y-65512000D01*
X91591342Y-65512000D01*
X91433658Y-65512000D01*
X91433655Y-65512000D01*
X91279010Y-65542761D01*
X91278998Y-65542764D01*
X91133327Y-65603102D01*
X91133314Y-65603109D01*
X91002211Y-65690710D01*
X91002207Y-65690713D01*
X90890713Y-65802207D01*
X90890710Y-65802211D01*
X90803109Y-65933314D01*
X90803102Y-65933327D01*
X90742764Y-66078998D01*
X90742761Y-66079010D01*
X90712000Y-66233653D01*
X71309446Y-66233653D01*
X71296789Y-66214711D01*
X71296786Y-66214707D01*
X71185292Y-66103213D01*
X71185288Y-66103210D01*
X71054185Y-66015609D01*
X71054172Y-66015602D01*
X70908501Y-65955264D01*
X70908489Y-65955261D01*
X70753845Y-65924500D01*
X70753842Y-65924500D01*
X70596158Y-65924500D01*
X70596155Y-65924500D01*
X70441510Y-65955261D01*
X70441498Y-65955264D01*
X70295827Y-66015602D01*
X70295814Y-66015609D01*
X70164711Y-66103210D01*
X70164707Y-66103213D01*
X70053213Y-66214707D01*
X70053210Y-66214711D01*
X69965609Y-66345814D01*
X69965602Y-66345827D01*
X69905264Y-66491498D01*
X69905261Y-66491510D01*
X69874500Y-66646153D01*
X69192084Y-66646153D01*
X69198107Y-66615875D01*
X69198107Y-66615874D01*
X69200500Y-66603844D01*
X69200500Y-66446155D01*
X69200499Y-66446153D01*
X69183979Y-66363104D01*
X69169737Y-66291503D01*
X69137929Y-66214711D01*
X69109397Y-66145827D01*
X69109390Y-66145814D01*
X69021789Y-66014711D01*
X69021786Y-66014707D01*
X68910292Y-65903213D01*
X68910288Y-65903210D01*
X68779185Y-65815609D01*
X68779172Y-65815602D01*
X68633501Y-65755264D01*
X68633489Y-65755261D01*
X68478845Y-65724500D01*
X68478842Y-65724500D01*
X68321158Y-65724500D01*
X68321155Y-65724500D01*
X68166510Y-65755261D01*
X68166498Y-65755264D01*
X68020827Y-65815602D01*
X68020814Y-65815609D01*
X67889711Y-65903210D01*
X67889707Y-65903213D01*
X67778213Y-66014707D01*
X67778210Y-66014711D01*
X67690609Y-66145814D01*
X67690602Y-66145827D01*
X67630264Y-66291498D01*
X67630261Y-66291510D01*
X67599500Y-66446153D01*
X64161308Y-66446153D01*
X64138606Y-66391346D01*
X64109397Y-66320827D01*
X64109390Y-66320814D01*
X64021789Y-66189711D01*
X64021786Y-66189707D01*
X63910292Y-66078213D01*
X63910288Y-66078210D01*
X63779185Y-65990609D01*
X63779172Y-65990602D01*
X63633501Y-65930264D01*
X63633489Y-65930261D01*
X63478845Y-65899500D01*
X63478842Y-65899500D01*
X63321158Y-65899500D01*
X63321155Y-65899500D01*
X63166510Y-65930261D01*
X63166498Y-65930264D01*
X63020827Y-65990602D01*
X63020814Y-65990609D01*
X62889711Y-66078210D01*
X62889707Y-66078213D01*
X62778213Y-66189707D01*
X62778210Y-66189711D01*
X62690609Y-66320814D01*
X62690602Y-66320827D01*
X62630264Y-66466498D01*
X62630261Y-66466510D01*
X62599500Y-66621153D01*
X57405823Y-66621153D01*
X57264275Y-66518314D01*
X57263570Y-66517954D01*
X57255509Y-66513848D01*
X57204714Y-66465875D01*
X57187918Y-66398055D01*
X57210454Y-66331919D01*
X57255509Y-66292878D01*
X57264271Y-66288414D01*
X57286244Y-66272449D01*
X57436241Y-66163472D01*
X57436243Y-66163469D01*
X57436247Y-66163467D01*
X57586559Y-66013155D01*
X57586561Y-66013151D01*
X57586564Y-66013149D01*
X57711503Y-65841183D01*
X57711502Y-65841183D01*
X57711506Y-65841179D01*
X57808012Y-65651775D01*
X57873701Y-65449606D01*
X57906955Y-65239650D01*
X57906955Y-65046153D01*
X65124500Y-65046153D01*
X65124500Y-65203846D01*
X65155261Y-65358489D01*
X65155264Y-65358501D01*
X65215602Y-65504172D01*
X65215609Y-65504185D01*
X65303210Y-65635288D01*
X65303213Y-65635292D01*
X65414707Y-65746786D01*
X65414711Y-65746789D01*
X65545814Y-65834390D01*
X65545827Y-65834397D01*
X65691498Y-65894735D01*
X65691503Y-65894737D01*
X65841131Y-65924500D01*
X65846153Y-65925499D01*
X65846156Y-65925500D01*
X65846158Y-65925500D01*
X66003844Y-65925500D01*
X66003845Y-65925499D01*
X66158497Y-65894737D01*
X66287789Y-65841183D01*
X66304172Y-65834397D01*
X66304172Y-65834396D01*
X66304179Y-65834394D01*
X66435289Y-65746789D01*
X66546789Y-65635289D01*
X66634394Y-65504179D01*
X66694737Y-65358497D01*
X66725500Y-65203842D01*
X66725500Y-65046158D01*
X66725500Y-65046155D01*
X66725499Y-65046153D01*
X66721704Y-65027076D01*
X66694737Y-64891503D01*
X66685721Y-64869737D01*
X66634397Y-64745827D01*
X66634390Y-64745814D01*
X66546789Y-64614711D01*
X66546786Y-64614707D01*
X66435292Y-64503213D01*
X66435288Y-64503210D01*
X66304185Y-64415609D01*
X66304172Y-64415602D01*
X66158501Y-64355264D01*
X66158489Y-64355261D01*
X66003845Y-64324500D01*
X66003842Y-64324500D01*
X65846158Y-64324500D01*
X65846155Y-64324500D01*
X65691510Y-64355261D01*
X65691498Y-64355264D01*
X65545827Y-64415602D01*
X65545814Y-64415609D01*
X65414711Y-64503210D01*
X65414707Y-64503213D01*
X65303213Y-64614707D01*
X65303210Y-64614711D01*
X65215609Y-64745814D01*
X65215602Y-64745827D01*
X65155264Y-64891498D01*
X65155261Y-64891510D01*
X65124500Y-65046153D01*
X57906955Y-65046153D01*
X57906955Y-65027076D01*
X57873701Y-64817120D01*
X57808012Y-64614951D01*
X57711506Y-64425547D01*
X57711504Y-64425544D01*
X57711503Y-64425542D01*
X57586564Y-64253576D01*
X57436241Y-64103253D01*
X57323239Y-64021153D01*
X60549500Y-64021153D01*
X60549500Y-64178846D01*
X60580261Y-64333489D01*
X60580264Y-64333501D01*
X60640602Y-64479172D01*
X60640609Y-64479185D01*
X60728210Y-64610288D01*
X60728213Y-64610292D01*
X60839707Y-64721786D01*
X60839711Y-64721789D01*
X60970814Y-64809390D01*
X60970827Y-64809397D01*
X61116498Y-64869735D01*
X61116503Y-64869737D01*
X61225963Y-64891510D01*
X61271153Y-64900499D01*
X61271156Y-64900500D01*
X61271158Y-64900500D01*
X61428844Y-64900500D01*
X61428845Y-64900499D01*
X61583497Y-64869737D01*
X61696166Y-64823067D01*
X61729172Y-64809397D01*
X61729172Y-64809396D01*
X61729179Y-64809394D01*
X61860289Y-64721789D01*
X61971789Y-64610289D01*
X62059394Y-64479179D01*
X62119737Y-64333497D01*
X62150500Y-64178842D01*
X62150500Y-64021158D01*
X62150500Y-64021155D01*
X62150499Y-64021153D01*
X62141977Y-63978312D01*
X62119737Y-63866503D01*
X62099102Y-63816685D01*
X62059397Y-63720827D01*
X62059390Y-63720814D01*
X61971789Y-63589711D01*
X61971786Y-63589707D01*
X61860292Y-63478213D01*
X61860288Y-63478210D01*
X61826552Y-63455668D01*
X61729185Y-63390609D01*
X61729172Y-63390602D01*
X61652039Y-63358653D01*
X91937000Y-63358653D01*
X91937000Y-63516346D01*
X91967761Y-63670989D01*
X91967764Y-63671001D01*
X92028102Y-63816672D01*
X92028109Y-63816685D01*
X92115710Y-63947788D01*
X92115713Y-63947792D01*
X92227207Y-64059286D01*
X92227211Y-64059289D01*
X92358314Y-64146890D01*
X92358327Y-64146897D01*
X92503998Y-64207235D01*
X92504003Y-64207237D01*
X92658653Y-64237999D01*
X92658656Y-64238000D01*
X92658658Y-64238000D01*
X92816344Y-64238000D01*
X92816345Y-64237999D01*
X92970997Y-64207237D01*
X93116679Y-64146894D01*
X93247789Y-64059289D01*
X93359289Y-63947789D01*
X93446894Y-63816679D01*
X93507237Y-63670997D01*
X93538000Y-63516342D01*
X93538000Y-63358658D01*
X93538000Y-63358655D01*
X93537999Y-63358653D01*
X93526567Y-63301183D01*
X93507237Y-63204003D01*
X93469036Y-63111777D01*
X93446897Y-63058327D01*
X93446890Y-63058314D01*
X93359289Y-62927211D01*
X93359286Y-62927207D01*
X93247792Y-62815713D01*
X93247788Y-62815710D01*
X93116685Y-62728109D01*
X93116672Y-62728102D01*
X92971001Y-62667764D01*
X92970989Y-62667761D01*
X92816345Y-62637000D01*
X92816342Y-62637000D01*
X92658658Y-62637000D01*
X92658655Y-62637000D01*
X92504010Y-62667761D01*
X92503998Y-62667764D01*
X92358327Y-62728102D01*
X92358314Y-62728109D01*
X92227211Y-62815710D01*
X92227207Y-62815713D01*
X92115713Y-62927207D01*
X92115710Y-62927211D01*
X92028109Y-63058314D01*
X92028102Y-63058327D01*
X91967764Y-63203998D01*
X91967761Y-63204010D01*
X91937000Y-63358653D01*
X61652039Y-63358653D01*
X61583501Y-63330264D01*
X61583489Y-63330261D01*
X61428845Y-63299500D01*
X61428842Y-63299500D01*
X61271158Y-63299500D01*
X61271155Y-63299500D01*
X61116510Y-63330261D01*
X61116498Y-63330264D01*
X60970827Y-63390602D01*
X60970814Y-63390609D01*
X60839711Y-63478210D01*
X60839707Y-63478213D01*
X60728213Y-63589707D01*
X60728210Y-63589711D01*
X60640609Y-63720814D01*
X60640602Y-63720827D01*
X60580264Y-63866498D01*
X60580261Y-63866510D01*
X60549500Y-64021153D01*
X57323239Y-64021153D01*
X57264275Y-63978314D01*
X57263570Y-63977954D01*
X57255509Y-63973848D01*
X57204714Y-63925875D01*
X57187918Y-63858055D01*
X57210454Y-63791919D01*
X57255509Y-63752878D01*
X57264271Y-63748414D01*
X57302250Y-63720821D01*
X57436241Y-63623472D01*
X57436243Y-63623469D01*
X57436247Y-63623467D01*
X57586559Y-63473155D01*
X57586561Y-63473151D01*
X57586564Y-63473149D01*
X57711503Y-63301183D01*
X57711502Y-63301183D01*
X57711506Y-63301179D01*
X57808012Y-63111775D01*
X57873701Y-62909606D01*
X57906955Y-62699650D01*
X57906955Y-62487076D01*
X57873701Y-62277120D01*
X57808012Y-62074951D01*
X57711506Y-61885547D01*
X57711504Y-61885544D01*
X57711503Y-61885542D01*
X57586564Y-61713576D01*
X57436241Y-61563253D01*
X57264275Y-61438314D01*
X57263570Y-61437954D01*
X57255509Y-61433848D01*
X57204714Y-61385875D01*
X57187918Y-61318055D01*
X57210454Y-61251919D01*
X57255509Y-61212878D01*
X57264271Y-61208414D01*
X57286244Y-61192449D01*
X57436241Y-61083472D01*
X57436243Y-61083469D01*
X57436247Y-61083467D01*
X57586559Y-60933155D01*
X57586561Y-60933151D01*
X57586564Y-60933149D01*
X57613443Y-60896153D01*
X81999500Y-60896153D01*
X81999500Y-61053846D01*
X82030261Y-61208489D01*
X82030264Y-61208501D01*
X82090602Y-61354172D01*
X82090609Y-61354185D01*
X82178210Y-61485288D01*
X82178213Y-61485292D01*
X82289707Y-61596786D01*
X82289712Y-61596790D01*
X82333453Y-61626016D01*
X82378259Y-61679627D01*
X82386968Y-61748952D01*
X82379126Y-61776569D01*
X82367763Y-61804002D01*
X82367760Y-61804011D01*
X82337000Y-61958653D01*
X82337000Y-62116346D01*
X82367761Y-62270989D01*
X82367764Y-62271001D01*
X82428102Y-62416672D01*
X82428109Y-62416685D01*
X82515710Y-62547788D01*
X82515713Y-62547792D01*
X82627207Y-62659286D01*
X82627211Y-62659289D01*
X82758314Y-62746890D01*
X82758327Y-62746897D01*
X82903998Y-62807235D01*
X82904003Y-62807237D01*
X83058653Y-62837999D01*
X83058656Y-62838000D01*
X83058658Y-62838000D01*
X83216344Y-62838000D01*
X83216345Y-62837999D01*
X83370997Y-62807237D01*
X83516679Y-62746894D01*
X83647789Y-62659289D01*
X83759289Y-62547789D01*
X83846894Y-62416679D01*
X83907237Y-62270997D01*
X83938000Y-62116342D01*
X83938000Y-61958658D01*
X83938000Y-61958655D01*
X83937999Y-61958653D01*
X83937425Y-61955769D01*
X83907237Y-61804003D01*
X83888385Y-61758489D01*
X83846897Y-61658327D01*
X83846890Y-61658314D01*
X83759786Y-61527954D01*
X83759784Y-61527952D01*
X83759289Y-61527211D01*
X83678231Y-61446153D01*
X84549500Y-61446153D01*
X84549500Y-61603846D01*
X84580261Y-61758489D01*
X84580264Y-61758501D01*
X84640602Y-61904172D01*
X84640609Y-61904185D01*
X84728210Y-62035288D01*
X84728213Y-62035292D01*
X84839707Y-62146786D01*
X84839711Y-62146789D01*
X84970814Y-62234390D01*
X84970827Y-62234397D01*
X85116498Y-62294735D01*
X85116503Y-62294737D01*
X85271153Y-62325499D01*
X85271156Y-62325500D01*
X85271158Y-62325500D01*
X85428844Y-62325500D01*
X85428845Y-62325499D01*
X85583497Y-62294737D01*
X85729179Y-62234394D01*
X85860289Y-62146789D01*
X85971789Y-62035289D01*
X86059394Y-61904179D01*
X86119737Y-61758497D01*
X86150500Y-61603842D01*
X86150500Y-61446158D01*
X86150500Y-61446155D01*
X86150499Y-61446153D01*
X86140286Y-61394810D01*
X86119737Y-61291503D01*
X86116258Y-61283104D01*
X86059397Y-61145827D01*
X86059390Y-61145814D01*
X85971789Y-61014711D01*
X85971786Y-61014707D01*
X85860292Y-60903213D01*
X85860288Y-60903210D01*
X85729185Y-60815609D01*
X85729172Y-60815602D01*
X85583501Y-60755264D01*
X85583489Y-60755261D01*
X85428845Y-60724500D01*
X85428842Y-60724500D01*
X85271158Y-60724500D01*
X85271155Y-60724500D01*
X85116510Y-60755261D01*
X85116498Y-60755264D01*
X84970827Y-60815602D01*
X84970814Y-60815609D01*
X84839711Y-60903210D01*
X84839707Y-60903213D01*
X84728213Y-61014707D01*
X84728210Y-61014711D01*
X84640609Y-61145814D01*
X84640602Y-61145827D01*
X84580264Y-61291498D01*
X84580261Y-61291510D01*
X84549500Y-61446153D01*
X83678231Y-61446153D01*
X83647789Y-61415711D01*
X83596690Y-61381568D01*
X83590108Y-61375660D01*
X83576199Y-61353162D01*
X83559239Y-61332869D01*
X83558113Y-61323910D01*
X83553366Y-61316231D01*
X83553827Y-61289785D01*
X83550532Y-61263544D01*
X83554532Y-61249457D01*
X83554586Y-61246372D01*
X83556017Y-61244228D01*
X83558373Y-61235930D01*
X83569737Y-61208497D01*
X83600500Y-61053842D01*
X83600500Y-60896158D01*
X83600500Y-60896155D01*
X83600499Y-60896153D01*
X83585967Y-60823098D01*
X83569737Y-60741503D01*
X83542254Y-60675152D01*
X83509397Y-60595827D01*
X83509390Y-60595814D01*
X83421789Y-60464711D01*
X83421786Y-60464707D01*
X83310292Y-60353213D01*
X83310288Y-60353210D01*
X83179185Y-60265609D01*
X83179172Y-60265602D01*
X83033501Y-60205264D01*
X83033489Y-60205261D01*
X82878845Y-60174500D01*
X82878842Y-60174500D01*
X82721158Y-60174500D01*
X82721155Y-60174500D01*
X82566510Y-60205261D01*
X82566498Y-60205264D01*
X82420827Y-60265602D01*
X82420814Y-60265609D01*
X82289711Y-60353210D01*
X82289707Y-60353213D01*
X82178213Y-60464707D01*
X82178210Y-60464711D01*
X82090609Y-60595814D01*
X82090602Y-60595827D01*
X82030264Y-60741498D01*
X82030261Y-60741510D01*
X81999500Y-60896153D01*
X57613443Y-60896153D01*
X57710359Y-60762758D01*
X57711506Y-60761179D01*
X57808012Y-60571775D01*
X57873701Y-60369606D01*
X57906955Y-60159650D01*
X57906955Y-59974516D01*
X67446137Y-59974516D01*
X67446137Y-60132209D01*
X67476898Y-60286852D01*
X67476901Y-60286864D01*
X67537239Y-60432535D01*
X67537246Y-60432548D01*
X67624847Y-60563651D01*
X67624850Y-60563655D01*
X67736344Y-60675149D01*
X67736348Y-60675152D01*
X67867451Y-60762753D01*
X67867464Y-60762760D01*
X67995055Y-60815609D01*
X68013140Y-60823100D01*
X68167790Y-60853862D01*
X68167793Y-60853863D01*
X68167795Y-60853863D01*
X68325481Y-60853863D01*
X68325482Y-60853862D01*
X68480134Y-60823100D01*
X68595039Y-60775505D01*
X68595040Y-60775505D01*
X68610976Y-60768903D01*
X68625816Y-60762757D01*
X68756926Y-60675152D01*
X68868426Y-60563652D01*
X68956031Y-60432542D01*
X69016374Y-60286860D01*
X69047137Y-60132205D01*
X69047137Y-59974521D01*
X69047137Y-59974518D01*
X69047136Y-59974516D01*
X69016375Y-59819873D01*
X69016374Y-59819866D01*
X69011190Y-59807350D01*
X68956034Y-59674190D01*
X68956027Y-59674177D01*
X68868426Y-59543074D01*
X68868423Y-59543070D01*
X68756929Y-59431576D01*
X68756925Y-59431573D01*
X68625822Y-59343972D01*
X68625809Y-59343965D01*
X68530836Y-59304627D01*
X68480138Y-59283627D01*
X68480126Y-59283624D01*
X68325482Y-59252863D01*
X68325479Y-59252863D01*
X68167795Y-59252863D01*
X68167792Y-59252863D01*
X68013147Y-59283624D01*
X68013135Y-59283627D01*
X67867464Y-59343965D01*
X67867451Y-59343972D01*
X67736348Y-59431573D01*
X67736344Y-59431576D01*
X67624850Y-59543070D01*
X67624847Y-59543074D01*
X67537246Y-59674177D01*
X67537239Y-59674190D01*
X67476901Y-59819861D01*
X67476898Y-59819873D01*
X67446137Y-59974516D01*
X57906955Y-59974516D01*
X57906955Y-59947076D01*
X57873701Y-59737120D01*
X57808012Y-59534951D01*
X57711506Y-59345547D01*
X57711504Y-59345544D01*
X57711503Y-59345542D01*
X57602967Y-59196153D01*
X69299500Y-59196153D01*
X69299500Y-59353846D01*
X69330261Y-59508489D01*
X69330264Y-59508501D01*
X69390602Y-59654172D01*
X69390609Y-59654185D01*
X69478210Y-59785288D01*
X69478213Y-59785292D01*
X69589707Y-59896786D01*
X69589711Y-59896789D01*
X69720814Y-59984390D01*
X69720827Y-59984397D01*
X69866498Y-60044735D01*
X69866503Y-60044737D01*
X70021153Y-60075499D01*
X70021156Y-60075500D01*
X70021158Y-60075500D01*
X70178844Y-60075500D01*
X70178845Y-60075499D01*
X70333497Y-60044737D01*
X70399729Y-60017303D01*
X95306005Y-60017303D01*
X95306005Y-60229877D01*
X95315029Y-60286852D01*
X95325539Y-60353213D01*
X95339259Y-60439833D01*
X95382130Y-60571777D01*
X95404949Y-60642004D01*
X95501456Y-60831410D01*
X95626395Y-61003376D01*
X95776718Y-61153699D01*
X95948687Y-61278640D01*
X95957451Y-61283106D01*
X96008247Y-61331081D01*
X96025041Y-61398902D01*
X96002503Y-61465037D01*
X95957451Y-61504074D01*
X95948687Y-61508539D01*
X95776718Y-61633480D01*
X95626395Y-61783803D01*
X95501456Y-61955769D01*
X95404949Y-62145175D01*
X95339258Y-62347350D01*
X95328277Y-62416685D01*
X95306005Y-62557303D01*
X95306005Y-62769877D01*
X95339259Y-62979833D01*
X95382130Y-63111777D01*
X95404949Y-63182004D01*
X95501456Y-63371410D01*
X95626395Y-63543376D01*
X95776718Y-63693699D01*
X95948687Y-63818640D01*
X95957451Y-63823106D01*
X96008247Y-63871081D01*
X96025041Y-63938902D01*
X96002503Y-64005037D01*
X95957451Y-64044074D01*
X95948687Y-64048539D01*
X95776718Y-64173480D01*
X95626395Y-64323803D01*
X95501456Y-64495769D01*
X95404949Y-64685175D01*
X95339258Y-64887350D01*
X95306005Y-65097303D01*
X95306005Y-65309876D01*
X95336780Y-65504185D01*
X95339259Y-65519833D01*
X95382130Y-65651777D01*
X95404949Y-65722004D01*
X95501456Y-65911410D01*
X95626395Y-66083376D01*
X95776718Y-66233699D01*
X95948687Y-66358640D01*
X95957451Y-66363106D01*
X96008247Y-66411081D01*
X96025041Y-66478902D01*
X96002503Y-66545037D01*
X95957451Y-66584074D01*
X95948687Y-66588539D01*
X95776718Y-66713480D01*
X95626395Y-66863803D01*
X95501456Y-67035769D01*
X95404949Y-67225175D01*
X95339258Y-67427350D01*
X95306005Y-67637303D01*
X95306005Y-67849876D01*
X95333662Y-68024500D01*
X95339259Y-68059833D01*
X95385846Y-68203213D01*
X95404949Y-68262004D01*
X95501456Y-68451410D01*
X95626395Y-68623376D01*
X95776718Y-68773699D01*
X95948687Y-68898640D01*
X95957451Y-68903106D01*
X96008247Y-68951081D01*
X96025041Y-69018902D01*
X96002503Y-69085037D01*
X95957451Y-69124074D01*
X95948687Y-69128539D01*
X95776718Y-69253480D01*
X95626395Y-69403803D01*
X95501456Y-69575769D01*
X95404949Y-69765175D01*
X95339258Y-69967350D01*
X95306005Y-70177303D01*
X95306005Y-70389877D01*
X95316039Y-70453234D01*
X95338767Y-70596730D01*
X95339259Y-70599833D01*
X95382689Y-70733497D01*
X95404949Y-70802004D01*
X95501456Y-70991410D01*
X95626395Y-71163376D01*
X95776718Y-71313699D01*
X95948687Y-71438640D01*
X95957451Y-71443106D01*
X96008247Y-71491081D01*
X96025041Y-71558902D01*
X96002503Y-71625037D01*
X95957451Y-71664074D01*
X95948687Y-71668539D01*
X95776718Y-71793480D01*
X95626395Y-71943803D01*
X95501456Y-72115769D01*
X95404949Y-72305175D01*
X95339258Y-72507350D01*
X95306005Y-72717303D01*
X95306005Y-72929876D01*
X95334579Y-73110289D01*
X95339259Y-73139833D01*
X95382131Y-73271780D01*
X95404949Y-73342004D01*
X95501456Y-73531410D01*
X95626395Y-73703376D01*
X95776718Y-73853699D01*
X95948687Y-73978640D01*
X95957451Y-73983106D01*
X96008247Y-74031081D01*
X96025041Y-74098902D01*
X96002503Y-74165037D01*
X95957451Y-74204074D01*
X95948687Y-74208539D01*
X95776718Y-74333480D01*
X95626395Y-74483803D01*
X95501456Y-74655769D01*
X95404949Y-74845175D01*
X95339258Y-75047350D01*
X95306005Y-75257303D01*
X95306005Y-75469876D01*
X95337005Y-75665606D01*
X95339259Y-75679833D01*
X95399328Y-75864707D01*
X95404949Y-75882004D01*
X95501456Y-76071410D01*
X95626395Y-76243376D01*
X95740323Y-76357304D01*
X95773808Y-76418627D01*
X95768824Y-76488319D01*
X95726952Y-76544252D01*
X95695976Y-76561167D01*
X95564417Y-76610236D01*
X95564411Y-76610239D01*
X95449317Y-76696399D01*
X95449314Y-76696402D01*
X95363154Y-76811496D01*
X95363150Y-76811503D01*
X95312908Y-76946210D01*
X95312906Y-76946217D01*
X95306505Y-77005745D01*
X95306505Y-77653590D01*
X96223493Y-77653590D01*
X96190580Y-77710597D01*
X96156505Y-77837764D01*
X96156505Y-77969416D01*
X96190580Y-78096583D01*
X96223493Y-78153590D01*
X95306505Y-78153590D01*
X95306505Y-78801434D01*
X95312906Y-78860962D01*
X95312908Y-78860969D01*
X95363150Y-78995676D01*
X95363154Y-78995683D01*
X95449314Y-79110777D01*
X95449317Y-79110780D01*
X95564411Y-79196940D01*
X95564418Y-79196944D01*
X95699125Y-79247186D01*
X95699132Y-79247188D01*
X95758660Y-79253589D01*
X95758677Y-79253590D01*
X96406505Y-79253590D01*
X96406505Y-78336602D01*
X96463512Y-78369515D01*
X96590679Y-78403590D01*
X96722331Y-78403590D01*
X96849498Y-78369515D01*
X96906505Y-78336602D01*
X96906505Y-79253590D01*
X97554333Y-79253590D01*
X97554349Y-79253589D01*
X97613877Y-79247188D01*
X97613884Y-79247186D01*
X97748591Y-79196944D01*
X97748598Y-79196940D01*
X97863692Y-79110780D01*
X97863695Y-79110777D01*
X97949855Y-78995683D01*
X97949859Y-78995676D01*
X98000101Y-78860969D01*
X98000103Y-78860962D01*
X98006504Y-78801434D01*
X98006505Y-78801417D01*
X98006505Y-78153590D01*
X97089517Y-78153590D01*
X97122430Y-78096583D01*
X97156505Y-77969416D01*
X97156505Y-77837764D01*
X97122430Y-77710597D01*
X97089517Y-77653590D01*
X98006505Y-77653590D01*
X98006505Y-77005762D01*
X98006504Y-77005745D01*
X98000103Y-76946217D01*
X98000101Y-76946210D01*
X97949859Y-76811503D01*
X97949855Y-76811496D01*
X97863695Y-76696402D01*
X97863692Y-76696399D01*
X97748598Y-76610239D01*
X97748593Y-76610236D01*
X97617033Y-76561167D01*
X97561100Y-76519295D01*
X97536683Y-76453831D01*
X97551535Y-76385558D01*
X97572680Y-76357310D01*
X97686609Y-76243382D01*
X97811556Y-76071406D01*
X97908062Y-75882002D01*
X97973751Y-75679833D01*
X98007005Y-75469877D01*
X98007005Y-75257303D01*
X97973751Y-75047347D01*
X97908062Y-74845178D01*
X97811556Y-74655774D01*
X97811554Y-74655771D01*
X97811553Y-74655769D01*
X97686614Y-74483803D01*
X97536291Y-74333480D01*
X97364325Y-74208541D01*
X97363620Y-74208181D01*
X97355559Y-74204075D01*
X97304764Y-74156102D01*
X97287968Y-74088282D01*
X97310504Y-74022146D01*
X97355559Y-73983105D01*
X97364321Y-73978641D01*
X97401101Y-73951919D01*
X97536291Y-73853699D01*
X97536293Y-73853696D01*
X97536297Y-73853694D01*
X97686609Y-73703382D01*
X97686611Y-73703378D01*
X97686614Y-73703376D01*
X97811553Y-73531410D01*
X97811552Y-73531410D01*
X97811556Y-73531406D01*
X97908062Y-73342002D01*
X97973751Y-73139833D01*
X98007005Y-72929877D01*
X98007005Y-72717303D01*
X97973751Y-72507347D01*
X97908062Y-72305178D01*
X97811556Y-72115774D01*
X97811554Y-72115771D01*
X97811553Y-72115769D01*
X97686614Y-71943803D01*
X97536291Y-71793480D01*
X97364325Y-71668541D01*
X97363620Y-71668181D01*
X97355559Y-71664075D01*
X97304764Y-71616102D01*
X97287968Y-71548282D01*
X97310504Y-71482146D01*
X97355559Y-71443105D01*
X97364321Y-71438641D01*
X97428908Y-71391716D01*
X97536291Y-71313699D01*
X97536293Y-71313696D01*
X97536297Y-71313694D01*
X97686609Y-71163382D01*
X97686611Y-71163378D01*
X97686614Y-71163376D01*
X97811553Y-70991410D01*
X97811552Y-70991410D01*
X97811556Y-70991406D01*
X97908062Y-70802002D01*
X97973751Y-70599833D01*
X98007005Y-70389877D01*
X98007005Y-70177303D01*
X97973751Y-69967347D01*
X97908062Y-69765178D01*
X97811556Y-69575774D01*
X97811554Y-69575771D01*
X97811553Y-69575769D01*
X97686614Y-69403803D01*
X97536291Y-69253480D01*
X97364325Y-69128541D01*
X97363620Y-69128181D01*
X97355559Y-69124075D01*
X97304764Y-69076102D01*
X97287968Y-69008282D01*
X97310504Y-68942146D01*
X97355559Y-68903105D01*
X97364321Y-68898641D01*
X97436558Y-68846158D01*
X97536291Y-68773699D01*
X97536293Y-68773696D01*
X97536297Y-68773694D01*
X97686609Y-68623382D01*
X97686611Y-68623378D01*
X97686614Y-68623376D01*
X97811553Y-68451410D01*
X97811552Y-68451410D01*
X97811556Y-68451406D01*
X97908062Y-68262002D01*
X97973751Y-68059833D01*
X98007005Y-67849877D01*
X98007005Y-67637303D01*
X97973751Y-67427347D01*
X97908062Y-67225178D01*
X97811556Y-67035774D01*
X97811554Y-67035771D01*
X97811553Y-67035769D01*
X97686614Y-66863803D01*
X97536291Y-66713480D01*
X97364325Y-66588541D01*
X97363620Y-66588181D01*
X97355559Y-66584075D01*
X97304764Y-66536102D01*
X97287968Y-66468282D01*
X97310504Y-66402146D01*
X97355559Y-66363105D01*
X97364321Y-66358641D01*
X97416386Y-66320814D01*
X97536291Y-66233699D01*
X97536293Y-66233696D01*
X97536297Y-66233694D01*
X97686609Y-66083382D01*
X97686611Y-66083378D01*
X97686614Y-66083376D01*
X97811553Y-65911410D01*
X97811552Y-65911410D01*
X97811556Y-65911406D01*
X97908062Y-65722002D01*
X97973751Y-65519833D01*
X98007005Y-65309877D01*
X98007005Y-65097303D01*
X97973751Y-64887347D01*
X97908062Y-64685178D01*
X97811556Y-64495774D01*
X97811554Y-64495771D01*
X97811553Y-64495769D01*
X97686614Y-64323803D01*
X97536291Y-64173480D01*
X97364325Y-64048541D01*
X97363620Y-64048181D01*
X97355559Y-64044075D01*
X97304764Y-63996102D01*
X97287968Y-63928282D01*
X97310504Y-63862146D01*
X97355559Y-63823105D01*
X97364321Y-63818641D01*
X97401101Y-63791919D01*
X97536291Y-63693699D01*
X97536293Y-63693696D01*
X97536297Y-63693694D01*
X97686609Y-63543382D01*
X97686611Y-63543378D01*
X97686614Y-63543376D01*
X97811553Y-63371410D01*
X97811552Y-63371410D01*
X97811556Y-63371406D01*
X97908062Y-63182002D01*
X97973751Y-62979833D01*
X98007005Y-62769877D01*
X98007005Y-62557303D01*
X97973751Y-62347347D01*
X97908062Y-62145178D01*
X97811556Y-61955774D01*
X97811554Y-61955771D01*
X97811553Y-61955769D01*
X97686614Y-61783803D01*
X97536291Y-61633480D01*
X97364325Y-61508541D01*
X97363620Y-61508181D01*
X97355559Y-61504075D01*
X97304764Y-61456102D01*
X97287968Y-61388282D01*
X97310504Y-61322146D01*
X97355559Y-61283105D01*
X97364321Y-61278641D01*
X97423119Y-61235922D01*
X97536291Y-61153699D01*
X97536293Y-61153696D01*
X97536297Y-61153694D01*
X97686609Y-61003382D01*
X97686611Y-61003378D01*
X97686614Y-61003376D01*
X97811553Y-60831410D01*
X97811552Y-60831410D01*
X97811556Y-60831406D01*
X97908062Y-60642002D01*
X97973751Y-60439833D01*
X98007005Y-60229877D01*
X98007005Y-60017303D01*
X97973751Y-59807347D01*
X97908062Y-59605178D01*
X97811556Y-59415774D01*
X97811554Y-59415771D01*
X97811553Y-59415769D01*
X97686614Y-59243803D01*
X97536291Y-59093480D01*
X97364325Y-58968541D01*
X97174919Y-58872034D01*
X97174918Y-58872033D01*
X97174917Y-58872033D01*
X96972748Y-58806344D01*
X96972746Y-58806343D01*
X96972745Y-58806343D01*
X96811462Y-58780798D01*
X96762792Y-58773090D01*
X96550218Y-58773090D01*
X96501547Y-58780798D01*
X96340265Y-58806343D01*
X96138090Y-58872034D01*
X95948684Y-58968541D01*
X95776718Y-59093480D01*
X95626395Y-59243803D01*
X95501456Y-59415769D01*
X95404949Y-59605175D01*
X95339258Y-59807350D01*
X95312781Y-59974521D01*
X95306005Y-60017303D01*
X70399729Y-60017303D01*
X70479179Y-59984394D01*
X70493955Y-59974521D01*
X70591522Y-59909329D01*
X70610289Y-59896789D01*
X70721786Y-59785292D01*
X70721789Y-59785289D01*
X70809394Y-59654179D01*
X70869737Y-59508497D01*
X70900500Y-59353842D01*
X70900500Y-59196158D01*
X70900500Y-59196155D01*
X70900499Y-59196153D01*
X70880326Y-59094737D01*
X70869737Y-59041503D01*
X70862178Y-59023253D01*
X70809397Y-58895827D01*
X70809390Y-58895814D01*
X70721789Y-58764711D01*
X70721786Y-58764707D01*
X70610292Y-58653213D01*
X70610288Y-58653210D01*
X70479185Y-58565609D01*
X70479172Y-58565602D01*
X70333501Y-58505264D01*
X70333489Y-58505261D01*
X70178845Y-58474500D01*
X70178842Y-58474500D01*
X70021158Y-58474500D01*
X70021155Y-58474500D01*
X69866510Y-58505261D01*
X69866498Y-58505264D01*
X69720827Y-58565602D01*
X69720814Y-58565609D01*
X69589711Y-58653210D01*
X69589707Y-58653213D01*
X69478213Y-58764707D01*
X69478210Y-58764711D01*
X69390609Y-58895814D01*
X69390602Y-58895827D01*
X69330264Y-59041498D01*
X69330261Y-59041510D01*
X69299500Y-59196153D01*
X57602967Y-59196153D01*
X57586564Y-59173576D01*
X57436241Y-59023253D01*
X57264275Y-58898314D01*
X57074869Y-58801807D01*
X57074868Y-58801806D01*
X57074867Y-58801806D01*
X56872698Y-58736117D01*
X56872696Y-58736116D01*
X56872695Y-58736116D01*
X56711412Y-58710571D01*
X56662742Y-58702863D01*
X56450168Y-58702863D01*
X56401497Y-58710571D01*
X56240215Y-58736116D01*
X56038040Y-58801807D01*
X55848634Y-58898314D01*
X55676668Y-59023253D01*
X55526345Y-59173576D01*
X55401406Y-59345542D01*
X55304899Y-59534948D01*
X55239208Y-59737123D01*
X55205955Y-59947076D01*
X54247468Y-59947076D01*
X54245722Y-58246153D01*
X81324500Y-58246153D01*
X81324500Y-58403846D01*
X81355261Y-58558489D01*
X81355264Y-58558501D01*
X81415602Y-58704172D01*
X81415609Y-58704185D01*
X81503210Y-58835288D01*
X81503213Y-58835292D01*
X81614707Y-58946786D01*
X81614711Y-58946789D01*
X81745814Y-59034390D01*
X81745827Y-59034397D01*
X81888468Y-59093480D01*
X81891503Y-59094737D01*
X82046153Y-59125499D01*
X82046156Y-59125500D01*
X82046158Y-59125500D01*
X82203844Y-59125500D01*
X82203845Y-59125499D01*
X82358497Y-59094737D01*
X82504179Y-59034394D01*
X82635289Y-58946789D01*
X82746789Y-58835289D01*
X82834394Y-58704179D01*
X82894737Y-58558497D01*
X82925500Y-58403842D01*
X82925500Y-58246158D01*
X82925500Y-58246155D01*
X82925499Y-58246153D01*
X82894738Y-58091510D01*
X82894737Y-58091503D01*
X82894735Y-58091498D01*
X82834397Y-57945827D01*
X82834390Y-57945814D01*
X82746789Y-57814711D01*
X82746786Y-57814707D01*
X82635292Y-57703213D01*
X82635288Y-57703210D01*
X82504185Y-57615609D01*
X82504172Y-57615602D01*
X82358501Y-57555264D01*
X82358489Y-57555261D01*
X82203845Y-57524500D01*
X82203842Y-57524500D01*
X82046158Y-57524500D01*
X82046155Y-57524500D01*
X81891510Y-57555261D01*
X81891498Y-57555264D01*
X81745827Y-57615602D01*
X81745814Y-57615609D01*
X81614711Y-57703210D01*
X81614707Y-57703213D01*
X81503213Y-57814707D01*
X81503210Y-57814711D01*
X81415609Y-57945814D01*
X81415602Y-57945827D01*
X81355264Y-58091498D01*
X81355261Y-58091510D01*
X81324500Y-58246153D01*
X54245722Y-58246153D01*
X54244310Y-56871153D01*
X83724500Y-56871153D01*
X83724500Y-57028846D01*
X83755261Y-57183489D01*
X83755264Y-57183501D01*
X83815602Y-57329172D01*
X83815609Y-57329185D01*
X83903210Y-57460288D01*
X83903213Y-57460292D01*
X84014707Y-57571786D01*
X84014711Y-57571789D01*
X84145814Y-57659390D01*
X84145827Y-57659397D01*
X84251603Y-57703210D01*
X84291503Y-57719737D01*
X84446153Y-57750499D01*
X84446156Y-57750500D01*
X84446158Y-57750500D01*
X84603844Y-57750500D01*
X84603845Y-57750499D01*
X84758497Y-57719737D01*
X84904179Y-57659394D01*
X85035289Y-57571789D01*
X85146789Y-57460289D01*
X85234394Y-57329179D01*
X85294737Y-57183497D01*
X85325500Y-57028842D01*
X85325500Y-56871158D01*
X85325500Y-56871155D01*
X85325499Y-56871153D01*
X85294738Y-56716510D01*
X85294737Y-56716503D01*
X85294735Y-56716498D01*
X85234397Y-56570827D01*
X85234390Y-56570814D01*
X85146789Y-56439711D01*
X85146786Y-56439707D01*
X85035292Y-56328213D01*
X85035288Y-56328210D01*
X84904185Y-56240609D01*
X84904172Y-56240602D01*
X84758501Y-56180264D01*
X84758489Y-56180261D01*
X84603845Y-56149500D01*
X84603842Y-56149500D01*
X84446158Y-56149500D01*
X84446155Y-56149500D01*
X84291510Y-56180261D01*
X84291498Y-56180264D01*
X84145827Y-56240602D01*
X84145814Y-56240609D01*
X84014711Y-56328210D01*
X84014707Y-56328213D01*
X83903213Y-56439707D01*
X83903210Y-56439711D01*
X83815609Y-56570814D01*
X83815602Y-56570827D01*
X83755264Y-56716498D01*
X83755261Y-56716510D01*
X83724500Y-56871153D01*
X54244310Y-56871153D01*
X54239690Y-52371153D01*
X75524500Y-52371153D01*
X75524500Y-52528846D01*
X75555261Y-52683489D01*
X75555264Y-52683501D01*
X75615602Y-52829172D01*
X75615609Y-52829185D01*
X75703210Y-52960288D01*
X75703213Y-52960292D01*
X75814707Y-53071786D01*
X75814711Y-53071789D01*
X75945814Y-53159390D01*
X75945827Y-53159397D01*
X76091498Y-53219735D01*
X76091503Y-53219737D01*
X76246153Y-53250499D01*
X76246156Y-53250500D01*
X76246158Y-53250500D01*
X76403844Y-53250500D01*
X76403845Y-53250499D01*
X76558497Y-53219737D01*
X76704179Y-53159394D01*
X76835289Y-53071789D01*
X76946789Y-52960289D01*
X77034394Y-52829179D01*
X77094737Y-52683497D01*
X77125500Y-52528842D01*
X77125500Y-52371158D01*
X77125500Y-52371155D01*
X77125499Y-52371153D01*
X77105326Y-52269737D01*
X77094737Y-52216503D01*
X77091791Y-52209390D01*
X77034397Y-52070827D01*
X77034390Y-52070814D01*
X76946789Y-51939711D01*
X76946786Y-51939707D01*
X76835292Y-51828213D01*
X76835288Y-51828210D01*
X76704185Y-51740609D01*
X76704172Y-51740602D01*
X76558501Y-51680264D01*
X76558489Y-51680261D01*
X76403845Y-51649500D01*
X76403842Y-51649500D01*
X76246158Y-51649500D01*
X76246155Y-51649500D01*
X76091510Y-51680261D01*
X76091498Y-51680264D01*
X75945827Y-51740602D01*
X75945814Y-51740609D01*
X75814711Y-51828210D01*
X75814707Y-51828213D01*
X75703213Y-51939707D01*
X75703210Y-51939711D01*
X75615609Y-52070814D01*
X75615602Y-52070827D01*
X75555264Y-52216498D01*
X75555261Y-52216510D01*
X75524500Y-52371153D01*
X54239690Y-52371153D01*
X54238715Y-51421153D01*
X85249500Y-51421153D01*
X85249500Y-51578846D01*
X85280261Y-51733489D01*
X85280264Y-51733501D01*
X85340602Y-51879172D01*
X85340609Y-51879185D01*
X85428210Y-52010288D01*
X85428213Y-52010292D01*
X85539707Y-52121786D01*
X85539711Y-52121789D01*
X85670814Y-52209390D01*
X85670827Y-52209397D01*
X85816498Y-52269735D01*
X85816503Y-52269737D01*
X85971153Y-52300499D01*
X85971156Y-52300500D01*
X85971158Y-52300500D01*
X86128844Y-52300500D01*
X86128845Y-52300499D01*
X86283497Y-52269737D01*
X86429179Y-52209394D01*
X86560289Y-52121789D01*
X86671789Y-52010289D01*
X86759394Y-51879179D01*
X86819737Y-51733497D01*
X86850500Y-51578842D01*
X86850500Y-51421158D01*
X86850500Y-51421155D01*
X86850499Y-51421153D01*
X86819738Y-51266510D01*
X86819737Y-51266503D01*
X86819735Y-51266498D01*
X86759397Y-51120827D01*
X86759390Y-51120814D01*
X86671789Y-50989711D01*
X86671786Y-50989707D01*
X86560292Y-50878213D01*
X86560288Y-50878210D01*
X86429185Y-50790609D01*
X86429172Y-50790602D01*
X86283501Y-50730264D01*
X86283489Y-50730261D01*
X86128845Y-50699500D01*
X86128842Y-50699500D01*
X85971158Y-50699500D01*
X85971155Y-50699500D01*
X85816510Y-50730261D01*
X85816498Y-50730264D01*
X85670827Y-50790602D01*
X85670814Y-50790609D01*
X85539711Y-50878210D01*
X85539707Y-50878213D01*
X85428213Y-50989707D01*
X85428210Y-50989711D01*
X85340609Y-51120814D01*
X85340602Y-51120827D01*
X85280264Y-51266498D01*
X85280261Y-51266510D01*
X85249500Y-51421153D01*
X54238715Y-51421153D01*
X54227641Y-40635526D01*
X61589146Y-40635526D01*
X61589146Y-40871535D01*
X61589147Y-40871551D01*
X61619952Y-41105541D01*
X61681040Y-41333524D01*
X61771360Y-41551576D01*
X61771365Y-41551587D01*
X61842323Y-41674488D01*
X61889373Y-41755981D01*
X61889375Y-41755984D01*
X61889376Y-41755985D01*
X62033052Y-41943228D01*
X62033058Y-41943235D01*
X62199941Y-42110118D01*
X62199948Y-42110124D01*
X62216279Y-42122655D01*
X62387196Y-42253804D01*
X62518564Y-42329649D01*
X62591589Y-42371811D01*
X62591594Y-42371813D01*
X62591597Y-42371815D01*
X62809653Y-42462137D01*
X63037632Y-42523224D01*
X63271635Y-42554031D01*
X63271642Y-42554031D01*
X63507650Y-42554031D01*
X63507657Y-42554031D01*
X63741660Y-42523224D01*
X63969639Y-42462137D01*
X64187695Y-42371815D01*
X64392096Y-42253804D01*
X64579345Y-42110123D01*
X64746238Y-41943230D01*
X64889919Y-41755981D01*
X65007930Y-41551580D01*
X65098252Y-41333524D01*
X65159339Y-41105545D01*
X65190146Y-40871542D01*
X65190146Y-40635520D01*
X65159339Y-40401517D01*
X65098252Y-40173538D01*
X65007930Y-39955482D01*
X65007928Y-39955479D01*
X65007926Y-39955474D01*
X64922495Y-39807504D01*
X64889919Y-39751081D01*
X64877804Y-39735292D01*
X64870582Y-39725880D01*
X64870581Y-39725879D01*
X64815077Y-39653544D01*
X66669646Y-39653544D01*
X66669646Y-40503531D01*
X67869645Y-40503531D01*
X67844625Y-40563933D01*
X67819646Y-40689512D01*
X67819646Y-40817550D01*
X67844625Y-40943129D01*
X67869645Y-41003531D01*
X66669647Y-41003531D01*
X66669647Y-41853517D01*
X66680140Y-41956228D01*
X66735287Y-42122650D01*
X66735289Y-42122655D01*
X66827330Y-42271876D01*
X66951300Y-42395846D01*
X67100521Y-42487887D01*
X67100526Y-42487889D01*
X67266948Y-42543036D01*
X67266955Y-42543037D01*
X67369665Y-42553530D01*
X68219645Y-42553530D01*
X68219646Y-42553529D01*
X68219646Y-41353532D01*
X68280048Y-41378552D01*
X68405627Y-41403531D01*
X68533665Y-41403531D01*
X68659244Y-41378552D01*
X68719646Y-41353532D01*
X68719646Y-42553530D01*
X69569618Y-42553530D01*
X69569632Y-42553529D01*
X69672343Y-42543036D01*
X69838765Y-42487889D01*
X69838770Y-42487887D01*
X69987991Y-42395846D01*
X70111961Y-42271876D01*
X70204002Y-42122655D01*
X70204004Y-42122650D01*
X70259151Y-41956228D01*
X70259152Y-41956221D01*
X70269645Y-41853517D01*
X70269646Y-41853504D01*
X70269646Y-41003531D01*
X69069647Y-41003531D01*
X69094667Y-40943129D01*
X69119646Y-40817550D01*
X69119646Y-40689512D01*
X69094667Y-40563933D01*
X69069647Y-40503531D01*
X70269645Y-40503531D01*
X70269645Y-39653559D01*
X70269644Y-39653544D01*
X70259151Y-39550833D01*
X70204004Y-39384411D01*
X70204002Y-39384406D01*
X70111961Y-39235185D01*
X70022929Y-39146153D01*
X85149500Y-39146153D01*
X85149500Y-39303846D01*
X85180261Y-39458489D01*
X85180264Y-39458501D01*
X85240602Y-39604172D01*
X85240609Y-39604185D01*
X85328210Y-39735288D01*
X85328213Y-39735292D01*
X85439707Y-39846786D01*
X85439711Y-39846789D01*
X85570814Y-39934390D01*
X85570827Y-39934397D01*
X85716498Y-39994735D01*
X85716503Y-39994737D01*
X85871153Y-40025499D01*
X85871156Y-40025500D01*
X85871158Y-40025500D01*
X86028844Y-40025500D01*
X86028845Y-40025499D01*
X86183497Y-39994737D01*
X86329179Y-39934394D01*
X86460289Y-39846789D01*
X86571789Y-39735289D01*
X86659394Y-39604179D01*
X86719737Y-39458497D01*
X86750500Y-39303842D01*
X86750500Y-39146158D01*
X86750500Y-39146155D01*
X86750499Y-39146153D01*
X86743549Y-39111215D01*
X86719737Y-38991503D01*
X86703802Y-38953032D01*
X86659397Y-38845827D01*
X86659390Y-38845814D01*
X86571789Y-38714711D01*
X86571786Y-38714707D01*
X86460292Y-38603213D01*
X86460288Y-38603210D01*
X86329184Y-38515609D01*
X86329172Y-38515602D01*
X86183501Y-38455264D01*
X86183489Y-38455261D01*
X86028845Y-38424500D01*
X86028842Y-38424500D01*
X85871158Y-38424500D01*
X85871155Y-38424500D01*
X85716510Y-38455261D01*
X85716498Y-38455264D01*
X85570827Y-38515602D01*
X85570814Y-38515609D01*
X85439711Y-38603210D01*
X85439707Y-38603213D01*
X85328213Y-38714707D01*
X85328210Y-38714711D01*
X85240609Y-38845814D01*
X85240602Y-38845827D01*
X85180264Y-38991498D01*
X85180261Y-38991510D01*
X85149500Y-39146153D01*
X70022929Y-39146153D01*
X69987991Y-39111215D01*
X69838770Y-39019174D01*
X69838765Y-39019172D01*
X69672343Y-38964025D01*
X69672336Y-38964024D01*
X69569632Y-38953531D01*
X68719646Y-38953531D01*
X68719646Y-40153529D01*
X68659244Y-40128510D01*
X68533665Y-40103531D01*
X68405627Y-40103531D01*
X68280048Y-40128510D01*
X68219646Y-40153529D01*
X68219646Y-38953531D01*
X67369674Y-38953531D01*
X67369658Y-38953532D01*
X67266948Y-38964025D01*
X67100526Y-39019172D01*
X67100521Y-39019174D01*
X66951300Y-39111215D01*
X66827330Y-39235185D01*
X66735289Y-39384406D01*
X66735287Y-39384411D01*
X66680140Y-39550833D01*
X66680139Y-39550840D01*
X66669646Y-39653544D01*
X64815077Y-39653544D01*
X64746239Y-39563833D01*
X64746233Y-39563826D01*
X64579350Y-39396943D01*
X64579343Y-39396937D01*
X64392100Y-39253261D01*
X64392099Y-39253260D01*
X64392096Y-39253258D01*
X64310603Y-39206208D01*
X64187702Y-39135250D01*
X64187691Y-39135245D01*
X63969639Y-39044925D01*
X63741656Y-38983837D01*
X63507666Y-38953032D01*
X63507663Y-38953031D01*
X63507657Y-38953031D01*
X63271635Y-38953031D01*
X63271629Y-38953031D01*
X63271625Y-38953032D01*
X63037635Y-38983837D01*
X62809652Y-39044925D01*
X62591600Y-39135245D01*
X62591589Y-39135250D01*
X62387191Y-39253261D01*
X62199948Y-39396937D01*
X62199941Y-39396943D01*
X62033058Y-39563826D01*
X62033052Y-39563833D01*
X61889376Y-39751076D01*
X61771365Y-39955474D01*
X61771360Y-39955485D01*
X61681040Y-40173537D01*
X61619952Y-40401520D01*
X61589147Y-40635510D01*
X61589146Y-40635526D01*
X54227641Y-40635526D01*
X54225503Y-38553516D01*
X54225697Y-38546481D01*
X54231135Y-38449660D01*
X55801353Y-38449660D01*
X55801353Y-38662233D01*
X55830430Y-38845821D01*
X55834607Y-38872190D01*
X55890732Y-39044925D01*
X55900297Y-39074361D01*
X55996804Y-39263767D01*
X56121743Y-39435733D01*
X56272066Y-39586056D01*
X56444032Y-39710995D01*
X56444034Y-39710996D01*
X56444037Y-39710998D01*
X56633441Y-39807504D01*
X56835610Y-39873193D01*
X57045566Y-39906447D01*
X57045567Y-39906447D01*
X57258139Y-39906447D01*
X57258140Y-39906447D01*
X57468096Y-39873193D01*
X57670265Y-39807504D01*
X57859669Y-39710998D01*
X57938728Y-39653559D01*
X58031639Y-39586056D01*
X58031641Y-39586053D01*
X58031645Y-39586051D01*
X58181957Y-39435739D01*
X58181959Y-39435735D01*
X58181962Y-39435733D01*
X58306901Y-39263767D01*
X58306900Y-39263767D01*
X58306904Y-39263763D01*
X58403410Y-39074359D01*
X58469099Y-38872190D01*
X58502353Y-38662234D01*
X58502353Y-38449660D01*
X58497185Y-38417032D01*
X94626859Y-38417032D01*
X94626859Y-38629606D01*
X94660113Y-38839562D01*
X94709480Y-38991498D01*
X94725803Y-39041733D01*
X94822310Y-39231139D01*
X94947249Y-39403105D01*
X95097572Y-39553428D01*
X95269538Y-39678367D01*
X95269540Y-39678368D01*
X95269543Y-39678370D01*
X95458947Y-39774876D01*
X95661116Y-39840565D01*
X95871072Y-39873819D01*
X95871073Y-39873819D01*
X96083645Y-39873819D01*
X96083646Y-39873819D01*
X96293602Y-39840565D01*
X96495771Y-39774876D01*
X96685175Y-39678370D01*
X96787301Y-39604172D01*
X96857145Y-39553428D01*
X96857147Y-39553425D01*
X96857151Y-39553423D01*
X97007463Y-39403111D01*
X97007465Y-39403107D01*
X97007468Y-39403105D01*
X97116445Y-39253108D01*
X97132410Y-39231135D01*
X97228916Y-39041731D01*
X97294605Y-38839562D01*
X97327859Y-38629606D01*
X97327859Y-38417032D01*
X97294605Y-38207076D01*
X97228916Y-38004907D01*
X97132410Y-37815503D01*
X97132408Y-37815500D01*
X97132407Y-37815498D01*
X97007468Y-37643532D01*
X96857145Y-37493209D01*
X96685179Y-37368270D01*
X96495773Y-37271763D01*
X96495772Y-37271762D01*
X96495771Y-37271762D01*
X96293602Y-37206073D01*
X96293600Y-37206072D01*
X96293599Y-37206072D01*
X96132316Y-37180527D01*
X96083646Y-37172819D01*
X95871072Y-37172819D01*
X95822401Y-37180527D01*
X95661119Y-37206072D01*
X95458944Y-37271763D01*
X95269538Y-37368270D01*
X95097572Y-37493209D01*
X94947249Y-37643532D01*
X94822310Y-37815498D01*
X94725803Y-38004904D01*
X94660112Y-38207079D01*
X94642646Y-38317357D01*
X94626859Y-38417032D01*
X58497185Y-38417032D01*
X58469099Y-38239704D01*
X58403410Y-38037535D01*
X58306904Y-37848131D01*
X58306902Y-37848128D01*
X58306901Y-37848126D01*
X58181962Y-37676160D01*
X58031639Y-37525837D01*
X57859673Y-37400898D01*
X57670267Y-37304391D01*
X57670266Y-37304390D01*
X57670265Y-37304390D01*
X57468096Y-37238701D01*
X57468094Y-37238700D01*
X57468093Y-37238700D01*
X57306810Y-37213155D01*
X57258140Y-37205447D01*
X57045566Y-37205447D01*
X56996895Y-37213155D01*
X56835613Y-37238700D01*
X56633438Y-37304391D01*
X56444032Y-37400898D01*
X56272066Y-37525837D01*
X56121743Y-37676160D01*
X55996804Y-37848126D01*
X55900297Y-38037532D01*
X55834606Y-38239707D01*
X55801353Y-38449660D01*
X54231135Y-38449660D01*
X54243499Y-38229499D01*
X54245053Y-38215705D01*
X54297657Y-37906100D01*
X54300750Y-37892548D01*
X54313547Y-37848131D01*
X54387687Y-37590783D01*
X54392279Y-37577662D01*
X54512457Y-37287527D01*
X54518477Y-37275027D01*
X54670399Y-37000142D01*
X54677776Y-36988403D01*
X54859510Y-36732274D01*
X54868156Y-36721431D01*
X55077435Y-36487247D01*
X55087247Y-36477435D01*
X55321431Y-36268156D01*
X55332274Y-36259510D01*
X55588403Y-36077776D01*
X55600142Y-36070399D01*
X55875027Y-35918477D01*
X55887527Y-35912457D01*
X56177666Y-35792277D01*
X56190783Y-35787687D01*
X56492553Y-35700748D01*
X56506100Y-35697657D01*
X56815703Y-35645053D01*
X56829502Y-35643499D01*
X57146515Y-35625695D01*
X57153217Y-35625500D01*
X57215892Y-35625500D01*
X57216365Y-35625372D01*
X57219270Y-35625366D01*
X85041746Y-35571655D01*
X85108823Y-35591210D01*
X85154680Y-35643926D01*
X85164757Y-35713065D01*
X85163602Y-35719846D01*
X85149537Y-35790556D01*
X85149537Y-35948249D01*
X85180298Y-36102892D01*
X85180301Y-36102904D01*
X85240639Y-36248575D01*
X85240646Y-36248588D01*
X85328247Y-36379691D01*
X85328250Y-36379695D01*
X85439744Y-36491189D01*
X85439748Y-36491192D01*
X85570851Y-36578793D01*
X85570864Y-36578800D01*
X85713290Y-36637794D01*
X85716540Y-36639140D01*
X85871190Y-36669902D01*
X85871193Y-36669903D01*
X85871195Y-36669903D01*
X86028881Y-36669903D01*
X86028882Y-36669902D01*
X86183534Y-36639140D01*
X86329216Y-36578797D01*
X86460326Y-36491192D01*
X86571826Y-36379692D01*
X86659431Y-36248582D01*
X86719774Y-36102900D01*
X86750537Y-35948245D01*
X86750537Y-35790561D01*
X86750537Y-35790558D01*
X86735774Y-35716342D01*
X86742001Y-35646750D01*
X86784864Y-35591573D01*
X86850753Y-35568328D01*
X86857118Y-35568150D01*
X95996453Y-35550507D01*
X96003582Y-35550701D01*
G37*
G04 #@! TD.AperFunction*
M02*
