G04 #@! TF.GenerationSoftware,KiCad,Pcbnew,9.0.5*
G04 #@! TF.CreationDate,2025-12-11T22:36:07+05:30*
G04 #@! TF.ProjectId,GPS_with_STM32,4750535f-7769-4746-985f-53544d33322e,rev?*
G04 #@! TF.SameCoordinates,Original*
G04 #@! TF.FileFunction,Copper,L3,Inr*
G04 #@! TF.FilePolarity,Positive*
%FSLAX46Y46*%
G04 Gerber Fmt 4.6, Leading zero omitted, Abs format (unit mm)*
G04 Created by KiCad (PCBNEW 9.0.5) date 2025-12-11 22:36:07*
%MOMM*%
%LPD*%
G01*
G04 APERTURE LIST*
G04 Aperture macros list*
%AMRoundRect*
0 Rectangle with rounded corners*
0 $1 Rounding radius*
0 $2 $3 $4 $5 $6 $7 $8 $9 X,Y pos of 4 corners*
0 Add a 4 corners polygon primitive as box body*
4,1,4,$2,$3,$4,$5,$6,$7,$8,$9,$2,$3,0*
0 Add four circle primitives for the rounded corners*
1,1,$1+$1,$2,$3*
1,1,$1+$1,$4,$5*
1,1,$1+$1,$6,$7*
1,1,$1+$1,$8,$9*
0 Add four rect primitives between the rounded corners*
20,1,$1+$1,$2,$3,$4,$5,0*
20,1,$1+$1,$4,$5,$6,$7,0*
20,1,$1+$1,$6,$7,$8,$9,0*
20,1,$1+$1,$8,$9,$2,$3,0*%
G04 Aperture macros list end*
G04 #@! TA.AperFunction,ComponentPad*
%ADD10R,1.700000X1.700000*%
G04 #@! TD*
G04 #@! TA.AperFunction,ComponentPad*
%ADD11C,1.700000*%
G04 #@! TD*
G04 #@! TA.AperFunction,ComponentPad*
%ADD12RoundRect,0.250000X1.050000X1.050000X-1.050000X1.050000X-1.050000X-1.050000X1.050000X-1.050000X0*%
G04 #@! TD*
G04 #@! TA.AperFunction,ComponentPad*
%ADD13C,2.600000*%
G04 #@! TD*
G04 #@! TA.AperFunction,ViaPad*
%ADD14C,0.600000*%
G04 #@! TD*
G04 APERTURE END LIST*
D10*
X96656505Y-77903590D03*
D11*
X96656505Y-75363590D03*
X96656505Y-72823590D03*
X96656505Y-70283590D03*
X96656505Y-67743590D03*
X96656505Y-65203590D03*
X96656505Y-62663590D03*
X96656505Y-60123590D03*
D12*
X68469646Y-40753531D03*
D13*
X63389646Y-40753531D03*
D10*
X56556455Y-77833363D03*
D11*
X56556455Y-75293363D03*
X56556455Y-72753363D03*
X56556455Y-70213363D03*
X56556455Y-67673363D03*
X56556455Y-65133363D03*
X56556455Y-62593363D03*
X56556455Y-60053363D03*
D14*
X76237500Y-76787500D03*
X78400000Y-42526031D03*
X84075000Y-48875000D03*
X72585486Y-81110225D03*
X81625000Y-76425000D03*
X93375000Y-43925000D03*
X65350000Y-62350000D03*
X66189673Y-76194968D03*
X67100000Y-66750000D03*
X77198378Y-69995796D03*
X90375000Y-66475000D03*
X78625000Y-66650000D03*
X90560335Y-54399891D03*
X78825000Y-76325000D03*
X77775000Y-85425000D03*
X68246637Y-60053363D03*
X76325000Y-52450000D03*
X86050000Y-51500000D03*
X66000000Y-86275000D03*
X68400000Y-66525000D03*
X75665925Y-73450000D03*
X90775601Y-83901187D03*
X65925000Y-65125000D03*
X63400000Y-66700000D03*
X67500000Y-76375000D03*
X70675000Y-66725000D03*
X70125000Y-80338247D03*
X64225000Y-80825000D03*
X62100000Y-81675000D03*
X67362500Y-81512500D03*
X86400000Y-72600000D03*
X85825000Y-70775000D03*
X70475000Y-87700000D03*
X75300000Y-80375000D03*
X61325000Y-68825000D03*
X61350000Y-64100000D03*
X92737500Y-63437500D03*
X91512500Y-66312500D03*
X85150000Y-71600000D03*
X85350000Y-61525000D03*
X84025000Y-70500000D03*
X83137500Y-62037500D03*
X91300000Y-68925000D03*
X84525000Y-56950000D03*
X85950000Y-39225000D03*
X85950037Y-35869403D03*
X82125000Y-58325000D03*
X82800000Y-60975000D03*
X70100000Y-59275000D03*
G04 #@! TA.AperFunction,Conductor*
G36*
X96003582Y-35550701D02*
G01*
X96323297Y-35568656D01*
X96337094Y-35570210D01*
X96649457Y-35623283D01*
X96663014Y-35626377D01*
X96967469Y-35714089D01*
X96980593Y-35718682D01*
X97273304Y-35839926D01*
X97285826Y-35845955D01*
X97563139Y-35999221D01*
X97574900Y-36006611D01*
X97833314Y-36189966D01*
X97844174Y-36198627D01*
X98080418Y-36409749D01*
X98090250Y-36419581D01*
X98301372Y-36655825D01*
X98310035Y-36666687D01*
X98493385Y-36925094D01*
X98500778Y-36936860D01*
X98654040Y-37214166D01*
X98660073Y-37226695D01*
X98781317Y-37519406D01*
X98785910Y-37532530D01*
X98873622Y-37836985D01*
X98876716Y-37850542D01*
X98929787Y-38162895D01*
X98931344Y-38176713D01*
X98934882Y-38239707D01*
X98948621Y-38484370D01*
X98949305Y-38496540D01*
X98949499Y-38503098D01*
X98949500Y-38503412D01*
X98949500Y-38565892D01*
X98949701Y-38566643D01*
X98949729Y-38575374D01*
X98949728Y-38575376D01*
X98949729Y-38575387D01*
X99099486Y-87229048D01*
X99099317Y-87235919D01*
X99083408Y-87539494D01*
X99082051Y-87552403D01*
X99034971Y-87849655D01*
X99032273Y-87862351D01*
X98954374Y-88153073D01*
X98950363Y-88165416D01*
X98842510Y-88446384D01*
X98837231Y-88458242D01*
X98700591Y-88726414D01*
X98694101Y-88737654D01*
X98530188Y-88990057D01*
X98522559Y-89000558D01*
X98333149Y-89234460D01*
X98324464Y-89244105D01*
X98111651Y-89456919D01*
X98102005Y-89465604D01*
X97868114Y-89655004D01*
X97857614Y-89662633D01*
X97605203Y-89826551D01*
X97593963Y-89833041D01*
X97325793Y-89969681D01*
X97313935Y-89974960D01*
X97032967Y-90082813D01*
X97020624Y-90086824D01*
X96729902Y-90164723D01*
X96717205Y-90167421D01*
X96419953Y-90214500D01*
X96407046Y-90215857D01*
X96103294Y-90231776D01*
X96096700Y-90231946D01*
X57207929Y-90199419D01*
X57200240Y-90199174D01*
X56882519Y-90179166D01*
X56868773Y-90177526D01*
X56558154Y-90122738D01*
X56544677Y-90119576D01*
X56242106Y-90030508D01*
X56229065Y-90025864D01*
X55938300Y-89903622D01*
X55925858Y-89897553D01*
X55650533Y-89743665D01*
X55638845Y-89736247D01*
X55382386Y-89552625D01*
X55371598Y-89543950D01*
X55137210Y-89332892D01*
X55127462Y-89323076D01*
X54918046Y-89087193D01*
X54909455Y-89076353D01*
X54727642Y-88818603D01*
X54720307Y-88806863D01*
X54568363Y-88530464D01*
X54562382Y-88517980D01*
X54481521Y-88321789D01*
X54442189Y-88226361D01*
X54437643Y-88213307D01*
X54350698Y-87910082D01*
X54347638Y-87896610D01*
X54295036Y-87585599D01*
X54293494Y-87571844D01*
X54293459Y-87571213D01*
X54275692Y-87253425D01*
X54275500Y-87246657D01*
X54275500Y-87184108D01*
X54275431Y-87183854D01*
X54275386Y-87139829D01*
X55867177Y-87139829D01*
X55867177Y-87352402D01*
X55900430Y-87562355D01*
X55900430Y-87562357D01*
X55900431Y-87562359D01*
X55919534Y-87621153D01*
X55966121Y-87764530D01*
X56062628Y-87953936D01*
X56187567Y-88125902D01*
X56337890Y-88276225D01*
X56509856Y-88401164D01*
X56509858Y-88401165D01*
X56509861Y-88401167D01*
X56699265Y-88497673D01*
X56901434Y-88563362D01*
X57111390Y-88596616D01*
X57111391Y-88596616D01*
X57323963Y-88596616D01*
X57323964Y-88596616D01*
X57533920Y-88563362D01*
X57736089Y-88497673D01*
X57925493Y-88401167D01*
X57947466Y-88385202D01*
X58097463Y-88276225D01*
X58097465Y-88276222D01*
X58097469Y-88276220D01*
X58247781Y-88125908D01*
X58247783Y-88125904D01*
X58247786Y-88125902D01*
X58372725Y-87953936D01*
X58372724Y-87953936D01*
X58372728Y-87953932D01*
X58469234Y-87764528D01*
X58515820Y-87621153D01*
X69674500Y-87621153D01*
X69674500Y-87778846D01*
X69705261Y-87933489D01*
X69705264Y-87933501D01*
X69765602Y-88079172D01*
X69765609Y-88079185D01*
X69853210Y-88210288D01*
X69853213Y-88210292D01*
X69964707Y-88321786D01*
X69964711Y-88321789D01*
X70095814Y-88409390D01*
X70095827Y-88409397D01*
X70213751Y-88458242D01*
X70241503Y-88469737D01*
X70381936Y-88497671D01*
X70396153Y-88500499D01*
X70396156Y-88500500D01*
X70396158Y-88500500D01*
X70553844Y-88500500D01*
X70553845Y-88500499D01*
X70708497Y-88469737D01*
X70821166Y-88423067D01*
X70854172Y-88409397D01*
X70854172Y-88409396D01*
X70854179Y-88409394D01*
X70985289Y-88321789D01*
X71096789Y-88210289D01*
X71184394Y-88079179D01*
X71244737Y-87933497D01*
X71275500Y-87778842D01*
X71275500Y-87621158D01*
X71275500Y-87621155D01*
X71275499Y-87621153D01*
X71244738Y-87466510D01*
X71244737Y-87466503D01*
X71197476Y-87352403D01*
X71184397Y-87320827D01*
X71184390Y-87320814D01*
X71112152Y-87212702D01*
X71112151Y-87212701D01*
X71096791Y-87189713D01*
X71096786Y-87189707D01*
X71055762Y-87148683D01*
X94778098Y-87148683D01*
X94778098Y-87361256D01*
X94809949Y-87562359D01*
X94811352Y-87571213D01*
X94827580Y-87621158D01*
X94877042Y-87773384D01*
X94973549Y-87962790D01*
X95098488Y-88134756D01*
X95248811Y-88285079D01*
X95420777Y-88410018D01*
X95420779Y-88410019D01*
X95420782Y-88410021D01*
X95610186Y-88506527D01*
X95812355Y-88572216D01*
X96022311Y-88605470D01*
X96022312Y-88605470D01*
X96234884Y-88605470D01*
X96234885Y-88605470D01*
X96444841Y-88572216D01*
X96647010Y-88506527D01*
X96836414Y-88410021D01*
X96957860Y-88321786D01*
X97008384Y-88285079D01*
X97008386Y-88285076D01*
X97008390Y-88285074D01*
X97158702Y-88134762D01*
X97158704Y-88134758D01*
X97158707Y-88134756D01*
X97283646Y-87962790D01*
X97283645Y-87962790D01*
X97283649Y-87962786D01*
X97380155Y-87773382D01*
X97445844Y-87571213D01*
X97479098Y-87361257D01*
X97479098Y-87148683D01*
X97445844Y-86938727D01*
X97380155Y-86736558D01*
X97283649Y-86547154D01*
X97283647Y-86547151D01*
X97283646Y-86547149D01*
X97158707Y-86375183D01*
X97008384Y-86224860D01*
X96836418Y-86099921D01*
X96647012Y-86003414D01*
X96647011Y-86003413D01*
X96647010Y-86003413D01*
X96444841Y-85937724D01*
X96444839Y-85937723D01*
X96444838Y-85937723D01*
X96283555Y-85912178D01*
X96234885Y-85904470D01*
X96022311Y-85904470D01*
X95973640Y-85912178D01*
X95812358Y-85937723D01*
X95610183Y-86003414D01*
X95420777Y-86099921D01*
X95248811Y-86224860D01*
X95098488Y-86375183D01*
X94973549Y-86547149D01*
X94877042Y-86736555D01*
X94811351Y-86938730D01*
X94778098Y-87148683D01*
X71055762Y-87148683D01*
X70985292Y-87078213D01*
X70985288Y-87078210D01*
X70854185Y-86990609D01*
X70854172Y-86990602D01*
X70708501Y-86930264D01*
X70708489Y-86930261D01*
X70553845Y-86899500D01*
X70553842Y-86899500D01*
X70396158Y-86899500D01*
X70396155Y-86899500D01*
X70241510Y-86930261D01*
X70241498Y-86930264D01*
X70095827Y-86990602D01*
X70095814Y-86990609D01*
X69964711Y-87078210D01*
X69964707Y-87078213D01*
X69853213Y-87189707D01*
X69853210Y-87189711D01*
X69765609Y-87320814D01*
X69765602Y-87320827D01*
X69705264Y-87466498D01*
X69705261Y-87466510D01*
X69674500Y-87621153D01*
X58515820Y-87621153D01*
X58534923Y-87562359D01*
X58568177Y-87352403D01*
X58568177Y-87139829D01*
X58534923Y-86929873D01*
X58469234Y-86727704D01*
X58372728Y-86538300D01*
X58372726Y-86538297D01*
X58372725Y-86538295D01*
X58247786Y-86366329D01*
X58097463Y-86216006D01*
X57925497Y-86091067D01*
X57736091Y-85994560D01*
X57736090Y-85994559D01*
X57736089Y-85994559D01*
X57533920Y-85928870D01*
X57533918Y-85928869D01*
X57533917Y-85928869D01*
X57372634Y-85903324D01*
X57323964Y-85895616D01*
X57111390Y-85895616D01*
X57062719Y-85903324D01*
X56901437Y-85928869D01*
X56699262Y-85994560D01*
X56509856Y-86091067D01*
X56337890Y-86216006D01*
X56187567Y-86366329D01*
X56062628Y-86538295D01*
X55966121Y-86727701D01*
X55900430Y-86929876D01*
X55867177Y-87139829D01*
X54275386Y-87139829D01*
X54273545Y-85346153D01*
X76974500Y-85346153D01*
X76974500Y-85503846D01*
X77005261Y-85658489D01*
X77005264Y-85658501D01*
X77065602Y-85804172D01*
X77065609Y-85804185D01*
X77153210Y-85935288D01*
X77153213Y-85935292D01*
X77264707Y-86046786D01*
X77264711Y-86046789D01*
X77395814Y-86134390D01*
X77395827Y-86134397D01*
X77541498Y-86194735D01*
X77541503Y-86194737D01*
X77692941Y-86224860D01*
X77696153Y-86225499D01*
X77696156Y-86225500D01*
X77696158Y-86225500D01*
X77853844Y-86225500D01*
X77853845Y-86225499D01*
X78008497Y-86194737D01*
X78154179Y-86134394D01*
X78285289Y-86046789D01*
X78396789Y-85935289D01*
X78484394Y-85804179D01*
X78544737Y-85658497D01*
X78575500Y-85503842D01*
X78575500Y-85346158D01*
X78575500Y-85346155D01*
X78575499Y-85346153D01*
X78544738Y-85191510D01*
X78544737Y-85191503D01*
X78544735Y-85191498D01*
X78484397Y-85045827D01*
X78484390Y-85045814D01*
X78396789Y-84914711D01*
X78396786Y-84914707D01*
X78285292Y-84803213D01*
X78285288Y-84803210D01*
X78154185Y-84715609D01*
X78154172Y-84715602D01*
X78008501Y-84655264D01*
X78008489Y-84655261D01*
X77853845Y-84624500D01*
X77853842Y-84624500D01*
X77696158Y-84624500D01*
X77696155Y-84624500D01*
X77541510Y-84655261D01*
X77541498Y-84655264D01*
X77395827Y-84715602D01*
X77395814Y-84715609D01*
X77264711Y-84803210D01*
X77264707Y-84803213D01*
X77153213Y-84914707D01*
X77153210Y-84914711D01*
X77065609Y-85045814D01*
X77065602Y-85045827D01*
X77005264Y-85191498D01*
X77005261Y-85191510D01*
X76974500Y-85346153D01*
X54273545Y-85346153D01*
X54272301Y-84134684D01*
X54271980Y-83822340D01*
X89975101Y-83822340D01*
X89975101Y-83980033D01*
X90005862Y-84134676D01*
X90005865Y-84134688D01*
X90066203Y-84280359D01*
X90066210Y-84280372D01*
X90153811Y-84411475D01*
X90153814Y-84411479D01*
X90265308Y-84522973D01*
X90265312Y-84522976D01*
X90396415Y-84610577D01*
X90396428Y-84610584D01*
X90504297Y-84655264D01*
X90542104Y-84670924D01*
X90696754Y-84701686D01*
X90696757Y-84701687D01*
X90696759Y-84701687D01*
X90854445Y-84701687D01*
X90854446Y-84701686D01*
X91009098Y-84670924D01*
X91154780Y-84610581D01*
X91285890Y-84522976D01*
X91397390Y-84411476D01*
X91484995Y-84280366D01*
X91545338Y-84134684D01*
X91576101Y-83980029D01*
X91576101Y-83822345D01*
X91576101Y-83822342D01*
X91576100Y-83822340D01*
X91545339Y-83667697D01*
X91545338Y-83667690D01*
X91545336Y-83667685D01*
X91484998Y-83522014D01*
X91484991Y-83522001D01*
X91397390Y-83390898D01*
X91397387Y-83390894D01*
X91285893Y-83279400D01*
X91285889Y-83279397D01*
X91154786Y-83191796D01*
X91154773Y-83191789D01*
X91009102Y-83131451D01*
X91009090Y-83131448D01*
X90854446Y-83100687D01*
X90854443Y-83100687D01*
X90696759Y-83100687D01*
X90696756Y-83100687D01*
X90542111Y-83131448D01*
X90542099Y-83131451D01*
X90396428Y-83191789D01*
X90396415Y-83191796D01*
X90265312Y-83279397D01*
X90265308Y-83279400D01*
X90153814Y-83390894D01*
X90153811Y-83390898D01*
X90066210Y-83522001D01*
X90066203Y-83522014D01*
X90005865Y-83667685D01*
X90005862Y-83667697D01*
X89975101Y-83822340D01*
X54271980Y-83822340D01*
X54271974Y-83816380D01*
X54270247Y-82134286D01*
X54269694Y-81596153D01*
X61299500Y-81596153D01*
X61299500Y-81753846D01*
X61330261Y-81908489D01*
X61330264Y-81908501D01*
X61390602Y-82054172D01*
X61390609Y-82054185D01*
X61478210Y-82185288D01*
X61478213Y-82185292D01*
X61589707Y-82296786D01*
X61589711Y-82296789D01*
X61720814Y-82384390D01*
X61720827Y-82384397D01*
X61866498Y-82444735D01*
X61866503Y-82444737D01*
X62021153Y-82475499D01*
X62021156Y-82475500D01*
X62021158Y-82475500D01*
X62178844Y-82475500D01*
X62178845Y-82475499D01*
X62333497Y-82444737D01*
X62479179Y-82384394D01*
X62610289Y-82296789D01*
X62721789Y-82185289D01*
X62809394Y-82054179D01*
X62869737Y-81908497D01*
X62900500Y-81753842D01*
X62900500Y-81596158D01*
X62900500Y-81596155D01*
X62900499Y-81596153D01*
X62870788Y-81446789D01*
X62869737Y-81441503D01*
X62866486Y-81433655D01*
X62809397Y-81295827D01*
X62809390Y-81295814D01*
X62721789Y-81164711D01*
X62721786Y-81164707D01*
X62610292Y-81053213D01*
X62610288Y-81053210D01*
X62479185Y-80965609D01*
X62479172Y-80965602D01*
X62333501Y-80905264D01*
X62333489Y-80905261D01*
X62178845Y-80874500D01*
X62178842Y-80874500D01*
X62021158Y-80874500D01*
X62021155Y-80874500D01*
X61866510Y-80905261D01*
X61866498Y-80905264D01*
X61720827Y-80965602D01*
X61720814Y-80965609D01*
X61589711Y-81053210D01*
X61589707Y-81053213D01*
X61478213Y-81164707D01*
X61478210Y-81164711D01*
X61390609Y-81295814D01*
X61390602Y-81295827D01*
X61330264Y-81441498D01*
X61330261Y-81441510D01*
X61299500Y-81596153D01*
X54269694Y-81596153D01*
X54268821Y-80746153D01*
X63424500Y-80746153D01*
X63424500Y-80903846D01*
X63455261Y-81058489D01*
X63455264Y-81058501D01*
X63515602Y-81204172D01*
X63515609Y-81204185D01*
X63603210Y-81335288D01*
X63603213Y-81335292D01*
X63714707Y-81446786D01*
X63714711Y-81446789D01*
X63845814Y-81534390D01*
X63845827Y-81534397D01*
X63983316Y-81591346D01*
X63991503Y-81594737D01*
X64121087Y-81620513D01*
X64146153Y-81625499D01*
X64146156Y-81625500D01*
X64146158Y-81625500D01*
X64303844Y-81625500D01*
X64303845Y-81625499D01*
X64458497Y-81594737D01*
X64604179Y-81534394D01*
X64735289Y-81446789D01*
X64748425Y-81433653D01*
X66562000Y-81433653D01*
X66562000Y-81591346D01*
X66592761Y-81745989D01*
X66592764Y-81746001D01*
X66653102Y-81891672D01*
X66653109Y-81891685D01*
X66740710Y-82022788D01*
X66740713Y-82022792D01*
X66852207Y-82134286D01*
X66852211Y-82134289D01*
X66983314Y-82221890D01*
X66983327Y-82221897D01*
X67128998Y-82282235D01*
X67129003Y-82282237D01*
X67283653Y-82312999D01*
X67283656Y-82313000D01*
X67283658Y-82313000D01*
X67441344Y-82313000D01*
X67441345Y-82312999D01*
X67595997Y-82282237D01*
X67741679Y-82221894D01*
X67872789Y-82134289D01*
X67984289Y-82022789D01*
X68071894Y-81891679D01*
X68132237Y-81745997D01*
X68163000Y-81591342D01*
X68163000Y-81433658D01*
X68163000Y-81433655D01*
X68162999Y-81433653D01*
X68144347Y-81339885D01*
X68132237Y-81279003D01*
X68101244Y-81204179D01*
X68071897Y-81133327D01*
X68071890Y-81133314D01*
X67984289Y-81002211D01*
X67984286Y-81002207D01*
X67872792Y-80890713D01*
X67872788Y-80890710D01*
X67741685Y-80803109D01*
X67741672Y-80803102D01*
X67596001Y-80742764D01*
X67595989Y-80742761D01*
X67441345Y-80712000D01*
X67441342Y-80712000D01*
X67283658Y-80712000D01*
X67283655Y-80712000D01*
X67129010Y-80742761D01*
X67128998Y-80742764D01*
X66983327Y-80803102D01*
X66983314Y-80803109D01*
X66852211Y-80890710D01*
X66852207Y-80890713D01*
X66740713Y-81002207D01*
X66740710Y-81002211D01*
X66653109Y-81133314D01*
X66653102Y-81133327D01*
X66592764Y-81278998D01*
X66592761Y-81279010D01*
X66562000Y-81433653D01*
X64748425Y-81433653D01*
X64842194Y-81339885D01*
X64846786Y-81335292D01*
X64846789Y-81335289D01*
X64934394Y-81204179D01*
X64994737Y-81058497D01*
X65025500Y-80903842D01*
X65025500Y-80746158D01*
X65025500Y-80746155D01*
X65025499Y-80746153D01*
X65019783Y-80717419D01*
X64994737Y-80591503D01*
X64986549Y-80571736D01*
X64934397Y-80445827D01*
X64934390Y-80445814D01*
X64851796Y-80322204D01*
X64846789Y-80314711D01*
X64846786Y-80314707D01*
X64791479Y-80259400D01*
X69324500Y-80259400D01*
X69324500Y-80417093D01*
X69355261Y-80571736D01*
X69355264Y-80571748D01*
X69415602Y-80717419D01*
X69415609Y-80717432D01*
X69503210Y-80848535D01*
X69503213Y-80848539D01*
X69614707Y-80960033D01*
X69614711Y-80960036D01*
X69745814Y-81047637D01*
X69745827Y-81047644D01*
X69891498Y-81107982D01*
X69891503Y-81107984D01*
X70018845Y-81133314D01*
X70046153Y-81138746D01*
X70046156Y-81138747D01*
X70046158Y-81138747D01*
X70203844Y-81138747D01*
X70203845Y-81138746D01*
X70358497Y-81107984D01*
X70504179Y-81047641D01*
X70528518Y-81031378D01*
X71784986Y-81031378D01*
X71784986Y-81189071D01*
X71815747Y-81343714D01*
X71815750Y-81343726D01*
X71876088Y-81489397D01*
X71876095Y-81489410D01*
X71963696Y-81620513D01*
X71963699Y-81620517D01*
X72075193Y-81732011D01*
X72075197Y-81732014D01*
X72206300Y-81819615D01*
X72206313Y-81819622D01*
X72351984Y-81879960D01*
X72351989Y-81879962D01*
X72495403Y-81908489D01*
X72506639Y-81910724D01*
X72506642Y-81910725D01*
X72506644Y-81910725D01*
X72664330Y-81910725D01*
X72664331Y-81910724D01*
X72818983Y-81879962D01*
X72964665Y-81819619D01*
X73095775Y-81732014D01*
X73207275Y-81620514D01*
X73294880Y-81489404D01*
X73355223Y-81343722D01*
X73385986Y-81189067D01*
X73385986Y-81031383D01*
X73385986Y-81031380D01*
X73385985Y-81031378D01*
X73379104Y-80996786D01*
X73355223Y-80876728D01*
X73343545Y-80848535D01*
X73294883Y-80731052D01*
X73294876Y-80731039D01*
X73207275Y-80599936D01*
X73207272Y-80599932D01*
X73095778Y-80488438D01*
X73095774Y-80488435D01*
X72964671Y-80400834D01*
X72964658Y-80400827D01*
X72818987Y-80340489D01*
X72818975Y-80340486D01*
X72664331Y-80309725D01*
X72664328Y-80309725D01*
X72506644Y-80309725D01*
X72506641Y-80309725D01*
X72351996Y-80340486D01*
X72351984Y-80340489D01*
X72206313Y-80400827D01*
X72206300Y-80400834D01*
X72075197Y-80488435D01*
X72075193Y-80488438D01*
X71963699Y-80599932D01*
X71963696Y-80599936D01*
X71876095Y-80731039D01*
X71876088Y-80731052D01*
X71815750Y-80876723D01*
X71815747Y-80876735D01*
X71784986Y-81031378D01*
X70528518Y-81031378D01*
X70635289Y-80960036D01*
X70635292Y-80960033D01*
X70657716Y-80937610D01*
X70746786Y-80848539D01*
X70746789Y-80848536D01*
X70834394Y-80717426D01*
X70894737Y-80571744D01*
X70925500Y-80417089D01*
X70925500Y-80296153D01*
X74499500Y-80296153D01*
X74499500Y-80453846D01*
X74530261Y-80608489D01*
X74530264Y-80608501D01*
X74590602Y-80754172D01*
X74590609Y-80754185D01*
X74678210Y-80885288D01*
X74678213Y-80885292D01*
X74789707Y-80996786D01*
X74789711Y-80996789D01*
X74920814Y-81084390D01*
X74920827Y-81084397D01*
X75066498Y-81144735D01*
X75066503Y-81144737D01*
X75221153Y-81175499D01*
X75221156Y-81175500D01*
X75221158Y-81175500D01*
X75378844Y-81175500D01*
X75378845Y-81175499D01*
X75533497Y-81144737D01*
X75679179Y-81084394D01*
X75810289Y-80996789D01*
X75921789Y-80885289D01*
X76009394Y-80754179D01*
X76012719Y-80746153D01*
X76069735Y-80608501D01*
X76069737Y-80608497D01*
X76100500Y-80453842D01*
X76100500Y-80296158D01*
X76100500Y-80296155D01*
X76100499Y-80296153D01*
X76082012Y-80203213D01*
X76069737Y-80141503D01*
X76069735Y-80141498D01*
X76009397Y-79995827D01*
X76009390Y-79995814D01*
X75921789Y-79864711D01*
X75921786Y-79864707D01*
X75810292Y-79753213D01*
X75810288Y-79753210D01*
X75679185Y-79665609D01*
X75679172Y-79665602D01*
X75533501Y-79605264D01*
X75533489Y-79605261D01*
X75378845Y-79574500D01*
X75378842Y-79574500D01*
X75221158Y-79574500D01*
X75221155Y-79574500D01*
X75066510Y-79605261D01*
X75066498Y-79605264D01*
X74920827Y-79665602D01*
X74920814Y-79665609D01*
X74789711Y-79753210D01*
X74789707Y-79753213D01*
X74678213Y-79864707D01*
X74678210Y-79864711D01*
X74590609Y-79995814D01*
X74590602Y-79995827D01*
X74530264Y-80141498D01*
X74530261Y-80141510D01*
X74499500Y-80296153D01*
X70925500Y-80296153D01*
X70925500Y-80259405D01*
X70925500Y-80259402D01*
X70925499Y-80259400D01*
X70894737Y-80104750D01*
X70894735Y-80104745D01*
X70834397Y-79959074D01*
X70834390Y-79959061D01*
X70746789Y-79827958D01*
X70746786Y-79827954D01*
X70635292Y-79716460D01*
X70635288Y-79716457D01*
X70504185Y-79628856D01*
X70504172Y-79628849D01*
X70358501Y-79568511D01*
X70358489Y-79568508D01*
X70203845Y-79537747D01*
X70203842Y-79537747D01*
X70046158Y-79537747D01*
X70046155Y-79537747D01*
X69891510Y-79568508D01*
X69891498Y-79568511D01*
X69745827Y-79628849D01*
X69745814Y-79628856D01*
X69614711Y-79716457D01*
X69614707Y-79716460D01*
X69503213Y-79827954D01*
X69503210Y-79827958D01*
X69415609Y-79959061D01*
X69415602Y-79959074D01*
X69355264Y-80104745D01*
X69355261Y-80104757D01*
X69324500Y-80259400D01*
X64791479Y-80259400D01*
X64735292Y-80203213D01*
X64735288Y-80203210D01*
X64604185Y-80115609D01*
X64604172Y-80115602D01*
X64458501Y-80055264D01*
X64458489Y-80055261D01*
X64303845Y-80024500D01*
X64303842Y-80024500D01*
X64146158Y-80024500D01*
X64146155Y-80024500D01*
X63991510Y-80055261D01*
X63991498Y-80055264D01*
X63845827Y-80115602D01*
X63845814Y-80115609D01*
X63714711Y-80203210D01*
X63714707Y-80203213D01*
X63603213Y-80314707D01*
X63603210Y-80314711D01*
X63515609Y-80445814D01*
X63515602Y-80445827D01*
X63455264Y-80591498D01*
X63455261Y-80591510D01*
X63424500Y-80746153D01*
X54268821Y-80746153D01*
X54250075Y-62487076D01*
X55205955Y-62487076D01*
X55205955Y-62699650D01*
X55210631Y-62729172D01*
X55231397Y-62860288D01*
X55239209Y-62909606D01*
X55287879Y-63059397D01*
X55304899Y-63111777D01*
X55401406Y-63301183D01*
X55526345Y-63473149D01*
X55676668Y-63623472D01*
X55848637Y-63748413D01*
X55857401Y-63752879D01*
X55908197Y-63800854D01*
X55924991Y-63868675D01*
X55902453Y-63934810D01*
X55857401Y-63973847D01*
X55848637Y-63978312D01*
X55676668Y-64103253D01*
X55526345Y-64253576D01*
X55401406Y-64425542D01*
X55304899Y-64614948D01*
X55239208Y-64817123D01*
X55205955Y-65027076D01*
X55205955Y-65239650D01*
X55239209Y-65449606D01*
X55299542Y-65635292D01*
X55304899Y-65651777D01*
X55401406Y-65841183D01*
X55526345Y-66013149D01*
X55676668Y-66163472D01*
X55848637Y-66288413D01*
X55857401Y-66292879D01*
X55908197Y-66340854D01*
X55924991Y-66408675D01*
X55902453Y-66474810D01*
X55857401Y-66513847D01*
X55848637Y-66518312D01*
X55676668Y-66643253D01*
X55526345Y-66793576D01*
X55401406Y-66965542D01*
X55304899Y-67154948D01*
X55239208Y-67357123D01*
X55226970Y-67434394D01*
X55205955Y-67567076D01*
X55205955Y-67779650D01*
X55239209Y-67989606D01*
X55293034Y-68155263D01*
X55304899Y-68191777D01*
X55401406Y-68381183D01*
X55526345Y-68553149D01*
X55676668Y-68703472D01*
X55848637Y-68828413D01*
X55857401Y-68832879D01*
X55908197Y-68880854D01*
X55924991Y-68948675D01*
X55902453Y-69014810D01*
X55857401Y-69053847D01*
X55848637Y-69058312D01*
X55676668Y-69183253D01*
X55526345Y-69333576D01*
X55401406Y-69505542D01*
X55304899Y-69694948D01*
X55239208Y-69897123D01*
X55205955Y-70107076D01*
X55205955Y-70319649D01*
X55235483Y-70506085D01*
X55239209Y-70529606D01*
X55293325Y-70696158D01*
X55304899Y-70731777D01*
X55401406Y-70921183D01*
X55526345Y-71093149D01*
X55676668Y-71243472D01*
X55848637Y-71368413D01*
X55857401Y-71372879D01*
X55908197Y-71420854D01*
X55924991Y-71488675D01*
X55902453Y-71554810D01*
X55857401Y-71593847D01*
X55848637Y-71598312D01*
X55676668Y-71723253D01*
X55526345Y-71873576D01*
X55401406Y-72045542D01*
X55304899Y-72234948D01*
X55239208Y-72437123D01*
X55205955Y-72647076D01*
X55205955Y-72859649D01*
X55224887Y-72979185D01*
X55239209Y-73069606D01*
X55288656Y-73221789D01*
X55304899Y-73271777D01*
X55401406Y-73461183D01*
X55526345Y-73633149D01*
X55676668Y-73783472D01*
X55848637Y-73908413D01*
X55857401Y-73912879D01*
X55908197Y-73960854D01*
X55924991Y-74028675D01*
X55902453Y-74094810D01*
X55857401Y-74133847D01*
X55848637Y-74138312D01*
X55676668Y-74263253D01*
X55526345Y-74413576D01*
X55401406Y-74585542D01*
X55304899Y-74774948D01*
X55239208Y-74977123D01*
X55205955Y-75187076D01*
X55205955Y-75399649D01*
X55238520Y-75605261D01*
X55239209Y-75609606D01*
X55302115Y-75803211D01*
X55304899Y-75811777D01*
X55401406Y-76001183D01*
X55526345Y-76173149D01*
X55639885Y-76286689D01*
X55673370Y-76348012D01*
X55668386Y-76417704D01*
X55626514Y-76473637D01*
X55595538Y-76490552D01*
X55464124Y-76539566D01*
X55464119Y-76539569D01*
X55348910Y-76625815D01*
X55348907Y-76625818D01*
X55262661Y-76741027D01*
X55262657Y-76741034D01*
X55212363Y-76875880D01*
X55205976Y-76935292D01*
X55205956Y-76935486D01*
X55205955Y-76935498D01*
X55205955Y-78731233D01*
X55205956Y-78731239D01*
X55212363Y-78790846D01*
X55262657Y-78925691D01*
X55262661Y-78925698D01*
X55348907Y-79040907D01*
X55348910Y-79040910D01*
X55464119Y-79127156D01*
X55464126Y-79127160D01*
X55598972Y-79177454D01*
X55598971Y-79177454D01*
X55605899Y-79178198D01*
X55658582Y-79183863D01*
X57454327Y-79183862D01*
X57513938Y-79177454D01*
X57648786Y-79127159D01*
X57764001Y-79040909D01*
X57850251Y-78925694D01*
X57900546Y-78790846D01*
X57906955Y-78731236D01*
X57906954Y-76935491D01*
X57900546Y-76875880D01*
X57896989Y-76866344D01*
X57850252Y-76741034D01*
X57850248Y-76741027D01*
X57764002Y-76625818D01*
X57763999Y-76625815D01*
X57648790Y-76539569D01*
X57648783Y-76539565D01*
X57517372Y-76490552D01*
X57461438Y-76448681D01*
X57437021Y-76383216D01*
X57451873Y-76314943D01*
X57473018Y-76286695D01*
X57586559Y-76173155D01*
X57627996Y-76116121D01*
X65389173Y-76116121D01*
X65389173Y-76273814D01*
X65419934Y-76428457D01*
X65419937Y-76428469D01*
X65480275Y-76574140D01*
X65480282Y-76574153D01*
X65567883Y-76705256D01*
X65567886Y-76705260D01*
X65679380Y-76816754D01*
X65679384Y-76816757D01*
X65810487Y-76904358D01*
X65810500Y-76904365D01*
X65956171Y-76964703D01*
X65956176Y-76964705D01*
X66110826Y-76995467D01*
X66110829Y-76995468D01*
X66110831Y-76995468D01*
X66268517Y-76995468D01*
X66268518Y-76995467D01*
X66423170Y-76964705D01*
X66568852Y-76904362D01*
X66688436Y-76824458D01*
X66755108Y-76803582D01*
X66822489Y-76822066D01*
X66860425Y-76858671D01*
X66878210Y-76885288D01*
X66878213Y-76885292D01*
X66989707Y-76996786D01*
X66989711Y-76996789D01*
X67120814Y-77084390D01*
X67120827Y-77084397D01*
X67266498Y-77144735D01*
X67266503Y-77144737D01*
X67421153Y-77175499D01*
X67421156Y-77175500D01*
X67421158Y-77175500D01*
X67578844Y-77175500D01*
X67578845Y-77175499D01*
X67733497Y-77144737D01*
X67879179Y-77084394D01*
X68010289Y-76996789D01*
X68121789Y-76885289D01*
X68209394Y-76754179D01*
X68214842Y-76741027D01*
X68228252Y-76708653D01*
X75437000Y-76708653D01*
X75437000Y-76866346D01*
X75467761Y-77020989D01*
X75467764Y-77021001D01*
X75528102Y-77166672D01*
X75528109Y-77166685D01*
X75615710Y-77297788D01*
X75615713Y-77297792D01*
X75727207Y-77409286D01*
X75727211Y-77409289D01*
X75858314Y-77496890D01*
X75858327Y-77496897D01*
X76003998Y-77557235D01*
X76004003Y-77557237D01*
X76158653Y-77587999D01*
X76158656Y-77588000D01*
X76158658Y-77588000D01*
X76316344Y-77588000D01*
X76316345Y-77587999D01*
X76470997Y-77557237D01*
X76616679Y-77496894D01*
X76747789Y-77409289D01*
X76859289Y-77297789D01*
X76946894Y-77166679D01*
X77007237Y-77020997D01*
X77038000Y-76866342D01*
X77038000Y-76708658D01*
X77038000Y-76708655D01*
X77037999Y-76708653D01*
X77035491Y-76696044D01*
X77007237Y-76554003D01*
X77001258Y-76539569D01*
X76946897Y-76408327D01*
X76946895Y-76408323D01*
X76946894Y-76408321D01*
X76859289Y-76277211D01*
X76859287Y-76277208D01*
X76828232Y-76246153D01*
X78024500Y-76246153D01*
X78024500Y-76403846D01*
X78055261Y-76558489D01*
X78055264Y-76558501D01*
X78115602Y-76704172D01*
X78115609Y-76704185D01*
X78203210Y-76835288D01*
X78203213Y-76835292D01*
X78314707Y-76946786D01*
X78314711Y-76946789D01*
X78445814Y-77034390D01*
X78445827Y-77034397D01*
X78591498Y-77094735D01*
X78591503Y-77094737D01*
X78746153Y-77125499D01*
X78746156Y-77125500D01*
X78746158Y-77125500D01*
X78903844Y-77125500D01*
X78903845Y-77125499D01*
X79058497Y-77094737D01*
X79204179Y-77034394D01*
X79335289Y-76946789D01*
X79446789Y-76835289D01*
X79534394Y-76704179D01*
X79537765Y-76696042D01*
X79573489Y-76609794D01*
X79594737Y-76558497D01*
X79625500Y-76403842D01*
X79625500Y-76346153D01*
X80824500Y-76346153D01*
X80824500Y-76503846D01*
X80855261Y-76658489D01*
X80855264Y-76658501D01*
X80915602Y-76804172D01*
X80915609Y-76804185D01*
X81003210Y-76935288D01*
X81003213Y-76935292D01*
X81114707Y-77046786D01*
X81114711Y-77046789D01*
X81245814Y-77134390D01*
X81245827Y-77134397D01*
X81345060Y-77175500D01*
X81391503Y-77194737D01*
X81546153Y-77225499D01*
X81546156Y-77225500D01*
X81546158Y-77225500D01*
X81703844Y-77225500D01*
X81703845Y-77225499D01*
X81858497Y-77194737D01*
X82004179Y-77134394D01*
X82135289Y-77046789D01*
X82246789Y-76935289D01*
X82334394Y-76804179D01*
X82394737Y-76658497D01*
X82425500Y-76503842D01*
X82425500Y-76346158D01*
X82425500Y-76346155D01*
X82425499Y-76346153D01*
X82413671Y-76286689D01*
X82394737Y-76191503D01*
X82387137Y-76173155D01*
X82334397Y-76045827D01*
X82334390Y-76045814D01*
X82246789Y-75914711D01*
X82246786Y-75914707D01*
X82135292Y-75803213D01*
X82135288Y-75803210D01*
X82004185Y-75715609D01*
X82004172Y-75715602D01*
X81858501Y-75655264D01*
X81858489Y-75655261D01*
X81703845Y-75624500D01*
X81703842Y-75624500D01*
X81546158Y-75624500D01*
X81546155Y-75624500D01*
X81391510Y-75655261D01*
X81391498Y-75655264D01*
X81245827Y-75715602D01*
X81245814Y-75715609D01*
X81114711Y-75803210D01*
X81114707Y-75803213D01*
X81003213Y-75914707D01*
X81003210Y-75914711D01*
X80915609Y-76045814D01*
X80915602Y-76045827D01*
X80855264Y-76191498D01*
X80855261Y-76191510D01*
X80824500Y-76346153D01*
X79625500Y-76346153D01*
X79625500Y-76246158D01*
X79625500Y-76246155D01*
X79625499Y-76246153D01*
X79610978Y-76173151D01*
X79594737Y-76091503D01*
X79564193Y-76017763D01*
X79534397Y-75945827D01*
X79534390Y-75945814D01*
X79446789Y-75814711D01*
X79446786Y-75814707D01*
X79335292Y-75703213D01*
X79335288Y-75703210D01*
X79204185Y-75615609D01*
X79204172Y-75615602D01*
X79058501Y-75555264D01*
X79058489Y-75555261D01*
X78903845Y-75524500D01*
X78903842Y-75524500D01*
X78746158Y-75524500D01*
X78746155Y-75524500D01*
X78591510Y-75555261D01*
X78591498Y-75555264D01*
X78445827Y-75615602D01*
X78445814Y-75615609D01*
X78314711Y-75703210D01*
X78314707Y-75703213D01*
X78203213Y-75814707D01*
X78203210Y-75814711D01*
X78115609Y-75945814D01*
X78115602Y-75945827D01*
X78055264Y-76091498D01*
X78055261Y-76091510D01*
X78024500Y-76246153D01*
X76828232Y-76246153D01*
X76747792Y-76165713D01*
X76747788Y-76165710D01*
X76616685Y-76078109D01*
X76616672Y-76078102D01*
X76471001Y-76017764D01*
X76470989Y-76017761D01*
X76316345Y-75987000D01*
X76316342Y-75987000D01*
X76158658Y-75987000D01*
X76158655Y-75987000D01*
X76004010Y-76017761D01*
X76003998Y-76017764D01*
X75858327Y-76078102D01*
X75858314Y-76078109D01*
X75727211Y-76165710D01*
X75727207Y-76165713D01*
X75615713Y-76277207D01*
X75615710Y-76277211D01*
X75528109Y-76408314D01*
X75528102Y-76408327D01*
X75467764Y-76553998D01*
X75467761Y-76554010D01*
X75437000Y-76708653D01*
X68228252Y-76708653D01*
X68250428Y-76655114D01*
X68269199Y-76609796D01*
X68269737Y-76608497D01*
X68300500Y-76453842D01*
X68300500Y-76296158D01*
X68300500Y-76296155D01*
X68300499Y-76296153D01*
X68290001Y-76243376D01*
X68269737Y-76141503D01*
X68259224Y-76116121D01*
X68209397Y-75995827D01*
X68209390Y-75995814D01*
X68121789Y-75864711D01*
X68121786Y-75864707D01*
X68010292Y-75753213D01*
X68010288Y-75753210D01*
X67879185Y-75665609D01*
X67879172Y-75665602D01*
X67733501Y-75605264D01*
X67733489Y-75605261D01*
X67578845Y-75574500D01*
X67578842Y-75574500D01*
X67421158Y-75574500D01*
X67421155Y-75574500D01*
X67266510Y-75605261D01*
X67266498Y-75605264D01*
X67120827Y-75665602D01*
X67120816Y-75665608D01*
X67001239Y-75745507D01*
X66934562Y-75766384D01*
X66867182Y-75747899D01*
X66829247Y-75711296D01*
X66811459Y-75684675D01*
X66699965Y-75573181D01*
X66699961Y-75573178D01*
X66568858Y-75485577D01*
X66568845Y-75485570D01*
X66423174Y-75425232D01*
X66423162Y-75425229D01*
X66268518Y-75394468D01*
X66268515Y-75394468D01*
X66110831Y-75394468D01*
X66110828Y-75394468D01*
X65956183Y-75425229D01*
X65956171Y-75425232D01*
X65810500Y-75485570D01*
X65810487Y-75485577D01*
X65679384Y-75573178D01*
X65679380Y-75573181D01*
X65567886Y-75684675D01*
X65567883Y-75684679D01*
X65480282Y-75815782D01*
X65480275Y-75815795D01*
X65419937Y-75961466D01*
X65419934Y-75961478D01*
X65389173Y-76116121D01*
X57627996Y-76116121D01*
X57711506Y-76001179D01*
X57808012Y-75811775D01*
X57873701Y-75609606D01*
X57906955Y-75399650D01*
X57906955Y-75187076D01*
X57873701Y-74977120D01*
X57808012Y-74774951D01*
X57711506Y-74585547D01*
X57711504Y-74585544D01*
X57711503Y-74585542D01*
X57586564Y-74413576D01*
X57436241Y-74263253D01*
X57264275Y-74138314D01*
X57263570Y-74137954D01*
X57255509Y-74133848D01*
X57204714Y-74085875D01*
X57187918Y-74018055D01*
X57210454Y-73951919D01*
X57255509Y-73912878D01*
X57264271Y-73908414D01*
X57286244Y-73892449D01*
X57436241Y-73783472D01*
X57436243Y-73783469D01*
X57436247Y-73783467D01*
X57586559Y-73633155D01*
X57586561Y-73633151D01*
X57586564Y-73633149D01*
X57711503Y-73461183D01*
X57711502Y-73461183D01*
X57711506Y-73461179D01*
X57808012Y-73271775D01*
X57873701Y-73069606D01*
X57906955Y-72859650D01*
X57906955Y-72647076D01*
X57873701Y-72437120D01*
X57808012Y-72234951D01*
X57711506Y-72045547D01*
X57711504Y-72045544D01*
X57711503Y-72045542D01*
X57586564Y-71873576D01*
X57436241Y-71723253D01*
X57264275Y-71598314D01*
X57263570Y-71597954D01*
X57255509Y-71593848D01*
X57204714Y-71545875D01*
X57187918Y-71478055D01*
X57210454Y-71411919D01*
X57255509Y-71372878D01*
X57264271Y-71368414D01*
X57286244Y-71352449D01*
X57436241Y-71243472D01*
X57436243Y-71243469D01*
X57436247Y-71243467D01*
X57586559Y-71093155D01*
X57586561Y-71093151D01*
X57586564Y-71093149D01*
X57711503Y-70921183D01*
X57711502Y-70921183D01*
X57711506Y-70921179D01*
X57808012Y-70731775D01*
X57873701Y-70529606D01*
X57906955Y-70319650D01*
X57906955Y-70107076D01*
X57900386Y-70065602D01*
X57878950Y-69930260D01*
X57876842Y-69916951D01*
X57876842Y-69916949D01*
X76397878Y-69916949D01*
X76397878Y-70074642D01*
X76428639Y-70229285D01*
X76428642Y-70229297D01*
X76488980Y-70374968D01*
X76488987Y-70374981D01*
X76576588Y-70506084D01*
X76576591Y-70506088D01*
X76688085Y-70617582D01*
X76688089Y-70617585D01*
X76819192Y-70705186D01*
X76819205Y-70705193D01*
X76887548Y-70733501D01*
X76964881Y-70765533D01*
X77119531Y-70796295D01*
X77119534Y-70796296D01*
X77119536Y-70796296D01*
X77277222Y-70796296D01*
X77277223Y-70796295D01*
X77431875Y-70765533D01*
X77577557Y-70705190D01*
X77708667Y-70617585D01*
X77820167Y-70506085D01*
X77876917Y-70421153D01*
X83224500Y-70421153D01*
X83224500Y-70578846D01*
X83255261Y-70733489D01*
X83255264Y-70733501D01*
X83315602Y-70879172D01*
X83315609Y-70879185D01*
X83403210Y-71010288D01*
X83403213Y-71010292D01*
X83514707Y-71121786D01*
X83514711Y-71121789D01*
X83645814Y-71209390D01*
X83645827Y-71209397D01*
X83728093Y-71243472D01*
X83791503Y-71269737D01*
X83946153Y-71300499D01*
X83946156Y-71300500D01*
X83946158Y-71300500D01*
X84103844Y-71300500D01*
X84192001Y-71282964D01*
X84223305Y-71276737D01*
X84292897Y-71282964D01*
X84348074Y-71325827D01*
X84371319Y-71391716D01*
X84369115Y-71422544D01*
X84349500Y-71521158D01*
X84349500Y-71678846D01*
X84380261Y-71833489D01*
X84380264Y-71833501D01*
X84440602Y-71979172D01*
X84440609Y-71979185D01*
X84528210Y-72110288D01*
X84528213Y-72110292D01*
X84639707Y-72221786D01*
X84639711Y-72221789D01*
X84770814Y-72309390D01*
X84770827Y-72309397D01*
X84844578Y-72339945D01*
X84916503Y-72369737D01*
X85071153Y-72400499D01*
X85071156Y-72400500D01*
X85071158Y-72400500D01*
X85228844Y-72400500D01*
X85228845Y-72400499D01*
X85383497Y-72369737D01*
X85437390Y-72347413D01*
X85506859Y-72339945D01*
X85569338Y-72371220D01*
X85604990Y-72431309D01*
X85606460Y-72486164D01*
X85599500Y-72521157D01*
X85599500Y-72678846D01*
X85630261Y-72833489D01*
X85630264Y-72833501D01*
X85690602Y-72979172D01*
X85690609Y-72979185D01*
X85778210Y-73110288D01*
X85778213Y-73110292D01*
X85889707Y-73221786D01*
X85889711Y-73221789D01*
X86020814Y-73309390D01*
X86020827Y-73309397D01*
X86166498Y-73369735D01*
X86166503Y-73369737D01*
X86321153Y-73400499D01*
X86321156Y-73400500D01*
X86321158Y-73400500D01*
X86478844Y-73400500D01*
X86478845Y-73400499D01*
X86633497Y-73369737D01*
X86779179Y-73309394D01*
X86910289Y-73221789D01*
X87021789Y-73110289D01*
X87109394Y-72979179D01*
X87169737Y-72833497D01*
X87200500Y-72678842D01*
X87200500Y-72521158D01*
X87200500Y-72521157D01*
X87200500Y-72521155D01*
X87200499Y-72521153D01*
X87183784Y-72437123D01*
X87169737Y-72366503D01*
X87161830Y-72347414D01*
X87109397Y-72220827D01*
X87109390Y-72220814D01*
X87021789Y-72089711D01*
X87021786Y-72089707D01*
X86910292Y-71978213D01*
X86910288Y-71978210D01*
X86779185Y-71890609D01*
X86779172Y-71890602D01*
X86633501Y-71830264D01*
X86633489Y-71830261D01*
X86478845Y-71799500D01*
X86478842Y-71799500D01*
X86321158Y-71799500D01*
X86321155Y-71799500D01*
X86166510Y-71830261D01*
X86166499Y-71830264D01*
X86112607Y-71852586D01*
X86106464Y-71853246D01*
X86101302Y-71856639D01*
X86072134Y-71856936D01*
X86043138Y-71860053D01*
X86037614Y-71857288D01*
X86031436Y-71857351D01*
X86006738Y-71841831D01*
X85980659Y-71828777D01*
X85977506Y-71823463D01*
X85972276Y-71820177D01*
X85959890Y-71793771D01*
X85945008Y-71768688D01*
X85944562Y-71761093D01*
X85942605Y-71756921D01*
X85943067Y-71735620D01*
X85942246Y-71721628D01*
X85942768Y-71717709D01*
X85950500Y-71678842D01*
X85950500Y-71659750D01*
X85951589Y-71651587D01*
X85962568Y-71626881D01*
X85970185Y-71600944D01*
X85976545Y-71595432D01*
X85979965Y-71587739D01*
X86002560Y-71572890D01*
X86022989Y-71555189D01*
X86035786Y-71551055D01*
X86038355Y-71549368D01*
X86041098Y-71549340D01*
X86050305Y-71546366D01*
X86058497Y-71544737D01*
X86204179Y-71484394D01*
X86335289Y-71396789D01*
X86446789Y-71285289D01*
X86534394Y-71154179D01*
X86594737Y-71008497D01*
X86625500Y-70853842D01*
X86625500Y-70696158D01*
X86625500Y-70696155D01*
X86625499Y-70696153D01*
X86609870Y-70617582D01*
X86594737Y-70541503D01*
X86589809Y-70529606D01*
X86534397Y-70395827D01*
X86534390Y-70395814D01*
X86446789Y-70264711D01*
X86446786Y-70264707D01*
X86335292Y-70153213D01*
X86335288Y-70153210D01*
X86204185Y-70065609D01*
X86204172Y-70065602D01*
X86058501Y-70005264D01*
X86058489Y-70005261D01*
X85903845Y-69974500D01*
X85903842Y-69974500D01*
X85746158Y-69974500D01*
X85746155Y-69974500D01*
X85591510Y-70005261D01*
X85591498Y-70005264D01*
X85445827Y-70065602D01*
X85445814Y-70065609D01*
X85314711Y-70153210D01*
X85314707Y-70153213D01*
X85203213Y-70264707D01*
X85203210Y-70264711D01*
X85115609Y-70395814D01*
X85115602Y-70395827D01*
X85064061Y-70520261D01*
X85020220Y-70574665D01*
X84953926Y-70596730D01*
X84886227Y-70579451D01*
X84838616Y-70528314D01*
X84825500Y-70472809D01*
X84825500Y-70421155D01*
X84825499Y-70421153D01*
X84819278Y-70389877D01*
X84794737Y-70266503D01*
X84779321Y-70229285D01*
X84734397Y-70120827D01*
X84734390Y-70120814D01*
X84646789Y-69989711D01*
X84646786Y-69989707D01*
X84535292Y-69878213D01*
X84535288Y-69878210D01*
X84404185Y-69790609D01*
X84404172Y-69790602D01*
X84258501Y-69730264D01*
X84258489Y-69730261D01*
X84103845Y-69699500D01*
X84103842Y-69699500D01*
X83946158Y-69699500D01*
X83946155Y-69699500D01*
X83791510Y-69730261D01*
X83791498Y-69730264D01*
X83645827Y-69790602D01*
X83645814Y-69790609D01*
X83514711Y-69878210D01*
X83514707Y-69878213D01*
X83403213Y-69989707D01*
X83403210Y-69989711D01*
X83315609Y-70120814D01*
X83315602Y-70120827D01*
X83255264Y-70266498D01*
X83255261Y-70266510D01*
X83224500Y-70421153D01*
X77876917Y-70421153D01*
X77907772Y-70374975D01*
X77908967Y-70372089D01*
X77910823Y-70367611D01*
X77910823Y-70367610D01*
X77968113Y-70229297D01*
X77968115Y-70229293D01*
X77998878Y-70074638D01*
X77998878Y-69916954D01*
X77998878Y-69916951D01*
X77998877Y-69916949D01*
X77973746Y-69790609D01*
X77968115Y-69762299D01*
X77954846Y-69730264D01*
X77907775Y-69616623D01*
X77907768Y-69616610D01*
X77820167Y-69485507D01*
X77820164Y-69485503D01*
X77708670Y-69374009D01*
X77708666Y-69374006D01*
X77577563Y-69286405D01*
X77577550Y-69286398D01*
X77431879Y-69226060D01*
X77431867Y-69226057D01*
X77277223Y-69195296D01*
X77277220Y-69195296D01*
X77119536Y-69195296D01*
X77119533Y-69195296D01*
X76964888Y-69226057D01*
X76964876Y-69226060D01*
X76819205Y-69286398D01*
X76819192Y-69286405D01*
X76688089Y-69374006D01*
X76688085Y-69374009D01*
X76576591Y-69485503D01*
X76576588Y-69485507D01*
X76488987Y-69616610D01*
X76488980Y-69616623D01*
X76428642Y-69762294D01*
X76428639Y-69762306D01*
X76397878Y-69916949D01*
X57876842Y-69916949D01*
X57873701Y-69897120D01*
X57808012Y-69694951D01*
X57711506Y-69505547D01*
X57711504Y-69505544D01*
X57711503Y-69505542D01*
X57586564Y-69333576D01*
X57436241Y-69183253D01*
X57264275Y-69058314D01*
X57263570Y-69057954D01*
X57255509Y-69053848D01*
X57204714Y-69005875D01*
X57187918Y-68938055D01*
X57210454Y-68871919D01*
X57255509Y-68832878D01*
X57264271Y-68828414D01*
X57286244Y-68812449D01*
X57377494Y-68746153D01*
X60524500Y-68746153D01*
X60524500Y-68903846D01*
X60555261Y-69058489D01*
X60555264Y-69058501D01*
X60615602Y-69204172D01*
X60615609Y-69204185D01*
X60703210Y-69335288D01*
X60703213Y-69335292D01*
X60814707Y-69446786D01*
X60814711Y-69446789D01*
X60945814Y-69534390D01*
X60945827Y-69534397D01*
X61091498Y-69594735D01*
X61091503Y-69594737D01*
X61201531Y-69616623D01*
X61246153Y-69625499D01*
X61246156Y-69625500D01*
X61246158Y-69625500D01*
X61403844Y-69625500D01*
X61403845Y-69625499D01*
X61558497Y-69594737D01*
X61704179Y-69534394D01*
X61835289Y-69446789D01*
X61946789Y-69335289D01*
X62034394Y-69204179D01*
X62038074Y-69195296D01*
X62094735Y-69058501D01*
X62094737Y-69058497D01*
X62125500Y-68903842D01*
X62125500Y-68846153D01*
X90499500Y-68846153D01*
X90499500Y-69003846D01*
X90530261Y-69158489D01*
X90530264Y-69158501D01*
X90590602Y-69304172D01*
X90590609Y-69304185D01*
X90678210Y-69435288D01*
X90678213Y-69435292D01*
X90789707Y-69546786D01*
X90789711Y-69546789D01*
X90920814Y-69634390D01*
X90920827Y-69634397D01*
X91066498Y-69694735D01*
X91066503Y-69694737D01*
X91221153Y-69725499D01*
X91221156Y-69725500D01*
X91221158Y-69725500D01*
X91378844Y-69725500D01*
X91378845Y-69725499D01*
X91533497Y-69694737D01*
X91679179Y-69634394D01*
X91810289Y-69546789D01*
X91921789Y-69435289D01*
X92009394Y-69304179D01*
X92069737Y-69158497D01*
X92100500Y-69003842D01*
X92100500Y-68846158D01*
X92100500Y-68846155D01*
X92100499Y-68846153D01*
X92086086Y-68773694D01*
X92069737Y-68691503D01*
X92012431Y-68553153D01*
X92009397Y-68545827D01*
X92009390Y-68545814D01*
X91921789Y-68414711D01*
X91921786Y-68414707D01*
X91810292Y-68303213D01*
X91810288Y-68303210D01*
X91679185Y-68215609D01*
X91679172Y-68215602D01*
X91533501Y-68155264D01*
X91533489Y-68155261D01*
X91378845Y-68124500D01*
X91378842Y-68124500D01*
X91221158Y-68124500D01*
X91221155Y-68124500D01*
X91066510Y-68155261D01*
X91066498Y-68155264D01*
X90920827Y-68215602D01*
X90920814Y-68215609D01*
X90789711Y-68303210D01*
X90789707Y-68303213D01*
X90678213Y-68414707D01*
X90678210Y-68414711D01*
X90590609Y-68545814D01*
X90590602Y-68545827D01*
X90530264Y-68691498D01*
X90530261Y-68691510D01*
X90499500Y-68846153D01*
X62125500Y-68846153D01*
X62125500Y-68746158D01*
X62125500Y-68746155D01*
X62125499Y-68746153D01*
X62094738Y-68591510D01*
X62094737Y-68591503D01*
X62078852Y-68553153D01*
X62034397Y-68445827D01*
X62034390Y-68445814D01*
X61946789Y-68314711D01*
X61946786Y-68314707D01*
X61835292Y-68203213D01*
X61835288Y-68203210D01*
X61704185Y-68115609D01*
X61704172Y-68115602D01*
X61558501Y-68055264D01*
X61558489Y-68055261D01*
X61403845Y-68024500D01*
X61403842Y-68024500D01*
X61246158Y-68024500D01*
X61246155Y-68024500D01*
X61091510Y-68055261D01*
X61091498Y-68055264D01*
X60945827Y-68115602D01*
X60945814Y-68115609D01*
X60814711Y-68203210D01*
X60814707Y-68203213D01*
X60703213Y-68314707D01*
X60703210Y-68314711D01*
X60615609Y-68445814D01*
X60615602Y-68445827D01*
X60555264Y-68591498D01*
X60555261Y-68591510D01*
X60524500Y-68746153D01*
X57377494Y-68746153D01*
X57436241Y-68703472D01*
X57436243Y-68703469D01*
X57436247Y-68703467D01*
X57586559Y-68553155D01*
X57586561Y-68553151D01*
X57586564Y-68553149D01*
X57711503Y-68381183D01*
X57711502Y-68381183D01*
X57711506Y-68381179D01*
X57808012Y-68191775D01*
X57873701Y-67989606D01*
X57906955Y-67779650D01*
X57906955Y-67567076D01*
X57873701Y-67357120D01*
X57808012Y-67154951D01*
X57711506Y-66965547D01*
X57711504Y-66965544D01*
X57711503Y-66965542D01*
X57586564Y-66793576D01*
X57436241Y-66643253D01*
X57405823Y-66621153D01*
X62599500Y-66621153D01*
X62599500Y-66778846D01*
X62630261Y-66933489D01*
X62630264Y-66933501D01*
X62690602Y-67079172D01*
X62690609Y-67079185D01*
X62778210Y-67210288D01*
X62778213Y-67210292D01*
X62889707Y-67321786D01*
X62889711Y-67321789D01*
X63020814Y-67409390D01*
X63020827Y-67409397D01*
X63166498Y-67469735D01*
X63166503Y-67469737D01*
X63292176Y-67494735D01*
X63321153Y-67500499D01*
X63321156Y-67500500D01*
X63321158Y-67500500D01*
X63478844Y-67500500D01*
X63478845Y-67500499D01*
X63633497Y-67469737D01*
X63779179Y-67409394D01*
X63910289Y-67321789D01*
X64021789Y-67210289D01*
X64109394Y-67079179D01*
X64169737Y-66933497D01*
X64200500Y-66778842D01*
X64200500Y-66671153D01*
X66299500Y-66671153D01*
X66299500Y-66828846D01*
X66330261Y-66983489D01*
X66330264Y-66983501D01*
X66390602Y-67129172D01*
X66390609Y-67129185D01*
X66478210Y-67260288D01*
X66478213Y-67260292D01*
X66589707Y-67371786D01*
X66589711Y-67371789D01*
X66720814Y-67459390D01*
X66720827Y-67459397D01*
X66820060Y-67500500D01*
X66866503Y-67519737D01*
X67021153Y-67550499D01*
X67021156Y-67550500D01*
X67021158Y-67550500D01*
X67178844Y-67550500D01*
X67178845Y-67550499D01*
X67333497Y-67519737D01*
X67479179Y-67459394D01*
X67610289Y-67371789D01*
X67721789Y-67260289D01*
X67809394Y-67129179D01*
X67869737Y-66983497D01*
X67900500Y-66828842D01*
X67900500Y-66671158D01*
X67900500Y-66671155D01*
X67900499Y-66671153D01*
X67899128Y-66664257D01*
X67895527Y-66646153D01*
X69874500Y-66646153D01*
X69874500Y-66803846D01*
X69905261Y-66958489D01*
X69905264Y-66958501D01*
X69965602Y-67104172D01*
X69965609Y-67104185D01*
X70053210Y-67235288D01*
X70053213Y-67235292D01*
X70164707Y-67346786D01*
X70164711Y-67346789D01*
X70295814Y-67434390D01*
X70295827Y-67434397D01*
X70441498Y-67494735D01*
X70441503Y-67494737D01*
X70567176Y-67519735D01*
X70596153Y-67525499D01*
X70596156Y-67525500D01*
X70596158Y-67525500D01*
X70753844Y-67525500D01*
X70753845Y-67525499D01*
X70908497Y-67494737D01*
X71054179Y-67434394D01*
X71185289Y-67346789D01*
X71296789Y-67235289D01*
X71384394Y-67104179D01*
X71444737Y-66958497D01*
X71475500Y-66803842D01*
X71475500Y-66646158D01*
X71475500Y-66646155D01*
X71464182Y-66589258D01*
X71464182Y-66589257D01*
X71460581Y-66571153D01*
X77824500Y-66571153D01*
X77824500Y-66728846D01*
X77855261Y-66883489D01*
X77855264Y-66883501D01*
X77915602Y-67029172D01*
X77915609Y-67029185D01*
X78003210Y-67160288D01*
X78003213Y-67160292D01*
X78114707Y-67271786D01*
X78114711Y-67271789D01*
X78245814Y-67359390D01*
X78245827Y-67359397D01*
X78391498Y-67419735D01*
X78391503Y-67419737D01*
X78546153Y-67450499D01*
X78546156Y-67450500D01*
X78546158Y-67450500D01*
X78703844Y-67450500D01*
X78703845Y-67450499D01*
X78858497Y-67419737D01*
X79004179Y-67359394D01*
X79135289Y-67271789D01*
X79246789Y-67160289D01*
X79334394Y-67029179D01*
X79394737Y-66883497D01*
X79425500Y-66728842D01*
X79425500Y-66571158D01*
X79425500Y-66571155D01*
X79425499Y-66571153D01*
X79394739Y-66416512D01*
X79394738Y-66416509D01*
X79394737Y-66416503D01*
X79386308Y-66396153D01*
X89574500Y-66396153D01*
X89574500Y-66553846D01*
X89605261Y-66708489D01*
X89605264Y-66708501D01*
X89665602Y-66854172D01*
X89665609Y-66854185D01*
X89753210Y-66985288D01*
X89753213Y-66985292D01*
X89864707Y-67096786D01*
X89864711Y-67096789D01*
X89995814Y-67184390D01*
X89995827Y-67184397D01*
X90141498Y-67244735D01*
X90141503Y-67244737D01*
X90277487Y-67271786D01*
X90296153Y-67275499D01*
X90296156Y-67275500D01*
X90296158Y-67275500D01*
X90453844Y-67275500D01*
X90453845Y-67275499D01*
X90608497Y-67244737D01*
X90754179Y-67184394D01*
X90885289Y-67096789D01*
X90957576Y-67024501D01*
X91018897Y-66991018D01*
X91088589Y-66996002D01*
X91114145Y-67009081D01*
X91133321Y-67021894D01*
X91133322Y-67021894D01*
X91133323Y-67021895D01*
X91133325Y-67021896D01*
X91271603Y-67079172D01*
X91279003Y-67082237D01*
X91433653Y-67112999D01*
X91433656Y-67113000D01*
X91433658Y-67113000D01*
X91591344Y-67113000D01*
X91591345Y-67112999D01*
X91745997Y-67082237D01*
X91891679Y-67021894D01*
X92022789Y-66934289D01*
X92134289Y-66822789D01*
X92221894Y-66691679D01*
X92282237Y-66545997D01*
X92313000Y-66391342D01*
X92313000Y-66233658D01*
X92313000Y-66233655D01*
X92312999Y-66233653D01*
X92304258Y-66189711D01*
X92282237Y-66079003D01*
X92261199Y-66028213D01*
X92221897Y-65933327D01*
X92221890Y-65933314D01*
X92134289Y-65802211D01*
X92134286Y-65802207D01*
X92022792Y-65690713D01*
X92022788Y-65690710D01*
X91891685Y-65603109D01*
X91891672Y-65603102D01*
X91746001Y-65542764D01*
X91745989Y-65542761D01*
X91591345Y-65512000D01*
X91591342Y-65512000D01*
X91433658Y-65512000D01*
X91433655Y-65512000D01*
X91279010Y-65542761D01*
X91278998Y-65542764D01*
X91133327Y-65603102D01*
X91133314Y-65603109D01*
X91002211Y-65690710D01*
X90929924Y-65762997D01*
X90868600Y-65796481D01*
X90798909Y-65791496D01*
X90773350Y-65778416D01*
X90754181Y-65765607D01*
X90754172Y-65765602D01*
X90608501Y-65705264D01*
X90608489Y-65705261D01*
X90453845Y-65674500D01*
X90453842Y-65674500D01*
X90296158Y-65674500D01*
X90296155Y-65674500D01*
X90141510Y-65705261D01*
X90141498Y-65705264D01*
X89995827Y-65765602D01*
X89995814Y-65765609D01*
X89864711Y-65853210D01*
X89864707Y-65853213D01*
X89753213Y-65964707D01*
X89753210Y-65964711D01*
X89665609Y-66095814D01*
X89665602Y-66095827D01*
X89605264Y-66241498D01*
X89605261Y-66241510D01*
X89574500Y-66396153D01*
X79386308Y-66396153D01*
X79375812Y-66370814D01*
X79334397Y-66270827D01*
X79334390Y-66270814D01*
X79246789Y-66139711D01*
X79246786Y-66139707D01*
X79135292Y-66028213D01*
X79135288Y-66028210D01*
X79004185Y-65940609D01*
X79004172Y-65940602D01*
X78858501Y-65880264D01*
X78858489Y-65880261D01*
X78703845Y-65849500D01*
X78703842Y-65849500D01*
X78546158Y-65849500D01*
X78546155Y-65849500D01*
X78391510Y-65880261D01*
X78391498Y-65880264D01*
X78245827Y-65940602D01*
X78245814Y-65940609D01*
X78114711Y-66028210D01*
X78114707Y-66028213D01*
X78003213Y-66139707D01*
X78003210Y-66139711D01*
X77915609Y-66270814D01*
X77915602Y-66270827D01*
X77855264Y-66416498D01*
X77855261Y-66416510D01*
X77824500Y-66571153D01*
X71460581Y-66571153D01*
X71450070Y-66518314D01*
X71444737Y-66491503D01*
X71413674Y-66416510D01*
X71384397Y-66345827D01*
X71384390Y-66345814D01*
X71296789Y-66214711D01*
X71296786Y-66214707D01*
X71185292Y-66103213D01*
X71185288Y-66103210D01*
X71054185Y-66015609D01*
X71054172Y-66015602D01*
X70908501Y-65955264D01*
X70908489Y-65955261D01*
X70753845Y-65924500D01*
X70753842Y-65924500D01*
X70596158Y-65924500D01*
X70596155Y-65924500D01*
X70441510Y-65955261D01*
X70441498Y-65955264D01*
X70295827Y-66015602D01*
X70295814Y-66015609D01*
X70164711Y-66103210D01*
X70164707Y-66103213D01*
X70053213Y-66214707D01*
X70053210Y-66214711D01*
X69965609Y-66345814D01*
X69965602Y-66345827D01*
X69905264Y-66491498D01*
X69905261Y-66491510D01*
X69874500Y-66646153D01*
X67895527Y-66646153D01*
X67869738Y-66516508D01*
X67869737Y-66516507D01*
X67869737Y-66516503D01*
X67854162Y-66478902D01*
X67809397Y-66370827D01*
X67809390Y-66370814D01*
X67721789Y-66239711D01*
X67721786Y-66239707D01*
X67610292Y-66128213D01*
X67610288Y-66128210D01*
X67479185Y-66040609D01*
X67479172Y-66040602D01*
X67333501Y-65980264D01*
X67333489Y-65980261D01*
X67178845Y-65949500D01*
X67178842Y-65949500D01*
X67021158Y-65949500D01*
X67021155Y-65949500D01*
X66866510Y-65980261D01*
X66866498Y-65980264D01*
X66720827Y-66040602D01*
X66720814Y-66040609D01*
X66589711Y-66128210D01*
X66589707Y-66128213D01*
X66478213Y-66239707D01*
X66478210Y-66239711D01*
X66390609Y-66370814D01*
X66390602Y-66370827D01*
X66330264Y-66516498D01*
X66330261Y-66516510D01*
X66299500Y-66671153D01*
X64200500Y-66671153D01*
X64200500Y-66621158D01*
X64200500Y-66621155D01*
X64200499Y-66621153D01*
X64180043Y-66518314D01*
X64169737Y-66466503D01*
X64149030Y-66416512D01*
X64109397Y-66320827D01*
X64109390Y-66320814D01*
X64021789Y-66189711D01*
X64021786Y-66189707D01*
X63910292Y-66078213D01*
X63910288Y-66078210D01*
X63779185Y-65990609D01*
X63779172Y-65990602D01*
X63633501Y-65930264D01*
X63633489Y-65930261D01*
X63478845Y-65899500D01*
X63478842Y-65899500D01*
X63321158Y-65899500D01*
X63321155Y-65899500D01*
X63166510Y-65930261D01*
X63166498Y-65930264D01*
X63020827Y-65990602D01*
X63020814Y-65990609D01*
X62889711Y-66078210D01*
X62889707Y-66078213D01*
X62778213Y-66189707D01*
X62778210Y-66189711D01*
X62690609Y-66320814D01*
X62690602Y-66320827D01*
X62630264Y-66466498D01*
X62630261Y-66466510D01*
X62599500Y-66621153D01*
X57405823Y-66621153D01*
X57264275Y-66518314D01*
X57260730Y-66516508D01*
X57255509Y-66513848D01*
X57204714Y-66465875D01*
X57187918Y-66398055D01*
X57210454Y-66331919D01*
X57255509Y-66292878D01*
X57264271Y-66288414D01*
X57288486Y-66270821D01*
X57436241Y-66163472D01*
X57436243Y-66163469D01*
X57436247Y-66163467D01*
X57586559Y-66013155D01*
X57586561Y-66013151D01*
X57586564Y-66013149D01*
X57711503Y-65841183D01*
X57711502Y-65841183D01*
X57711506Y-65841179D01*
X57808012Y-65651775D01*
X57873701Y-65449606D01*
X57906955Y-65239650D01*
X57906955Y-65046153D01*
X65124500Y-65046153D01*
X65124500Y-65203846D01*
X65155261Y-65358489D01*
X65155264Y-65358501D01*
X65215602Y-65504172D01*
X65215609Y-65504185D01*
X65303210Y-65635288D01*
X65303213Y-65635292D01*
X65414707Y-65746786D01*
X65414711Y-65746789D01*
X65545814Y-65834390D01*
X65545827Y-65834397D01*
X65691498Y-65894735D01*
X65691503Y-65894737D01*
X65841131Y-65924500D01*
X65846153Y-65925499D01*
X65846156Y-65925500D01*
X65846158Y-65925500D01*
X66003844Y-65925500D01*
X66003845Y-65925499D01*
X66158497Y-65894737D01*
X66287789Y-65841183D01*
X66304172Y-65834397D01*
X66304172Y-65834396D01*
X66304179Y-65834394D01*
X66435289Y-65746789D01*
X66546789Y-65635289D01*
X66634394Y-65504179D01*
X66694737Y-65358497D01*
X66725500Y-65203842D01*
X66725500Y-65046158D01*
X66725500Y-65046155D01*
X66725499Y-65046153D01*
X66721704Y-65027076D01*
X66694737Y-64891503D01*
X66685721Y-64869737D01*
X66634397Y-64745827D01*
X66634390Y-64745814D01*
X66546789Y-64614711D01*
X66546786Y-64614707D01*
X66435292Y-64503213D01*
X66435288Y-64503210D01*
X66304185Y-64415609D01*
X66304172Y-64415602D01*
X66158501Y-64355264D01*
X66158489Y-64355261D01*
X66003845Y-64324500D01*
X66003842Y-64324500D01*
X65846158Y-64324500D01*
X65846155Y-64324500D01*
X65691510Y-64355261D01*
X65691498Y-64355264D01*
X65545827Y-64415602D01*
X65545814Y-64415609D01*
X65414711Y-64503210D01*
X65414707Y-64503213D01*
X65303213Y-64614707D01*
X65303210Y-64614711D01*
X65215609Y-64745814D01*
X65215602Y-64745827D01*
X65155264Y-64891498D01*
X65155261Y-64891510D01*
X65124500Y-65046153D01*
X57906955Y-65046153D01*
X57906955Y-65027076D01*
X57873701Y-64817120D01*
X57808012Y-64614951D01*
X57711506Y-64425547D01*
X57711504Y-64425544D01*
X57711503Y-64425542D01*
X57586564Y-64253576D01*
X57436241Y-64103253D01*
X57323239Y-64021153D01*
X60549500Y-64021153D01*
X60549500Y-64178846D01*
X60580261Y-64333489D01*
X60580264Y-64333501D01*
X60640602Y-64479172D01*
X60640609Y-64479185D01*
X60728210Y-64610288D01*
X60728213Y-64610292D01*
X60839707Y-64721786D01*
X60839711Y-64721789D01*
X60970814Y-64809390D01*
X60970827Y-64809397D01*
X61116498Y-64869735D01*
X61116503Y-64869737D01*
X61225963Y-64891510D01*
X61271153Y-64900499D01*
X61271156Y-64900500D01*
X61271158Y-64900500D01*
X61428844Y-64900500D01*
X61428845Y-64900499D01*
X61583497Y-64869737D01*
X61696166Y-64823067D01*
X61729172Y-64809397D01*
X61729172Y-64809396D01*
X61729179Y-64809394D01*
X61860289Y-64721789D01*
X61971789Y-64610289D01*
X62059394Y-64479179D01*
X62119737Y-64333497D01*
X62150500Y-64178842D01*
X62150500Y-64021158D01*
X62150500Y-64021155D01*
X62150499Y-64021153D01*
X62141977Y-63978312D01*
X62119737Y-63866503D01*
X62099102Y-63816685D01*
X62059397Y-63720827D01*
X62059390Y-63720814D01*
X61971789Y-63589711D01*
X61971786Y-63589707D01*
X61860292Y-63478213D01*
X61860288Y-63478210D01*
X61826552Y-63455668D01*
X61729185Y-63390609D01*
X61729172Y-63390602D01*
X61652039Y-63358653D01*
X91937000Y-63358653D01*
X91937000Y-63516346D01*
X91967761Y-63670989D01*
X91967764Y-63671001D01*
X92028102Y-63816672D01*
X92028109Y-63816685D01*
X92115710Y-63947788D01*
X92115713Y-63947792D01*
X92227207Y-64059286D01*
X92227211Y-64059289D01*
X92358314Y-64146890D01*
X92358327Y-64146897D01*
X92503998Y-64207235D01*
X92504003Y-64207237D01*
X92658653Y-64237999D01*
X92658656Y-64238000D01*
X92658658Y-64238000D01*
X92816344Y-64238000D01*
X92816345Y-64237999D01*
X92970997Y-64207237D01*
X93116679Y-64146894D01*
X93247789Y-64059289D01*
X93359289Y-63947789D01*
X93446894Y-63816679D01*
X93507237Y-63670997D01*
X93538000Y-63516342D01*
X93538000Y-63358658D01*
X93538000Y-63358655D01*
X93537999Y-63358653D01*
X93526567Y-63301183D01*
X93507237Y-63204003D01*
X93472333Y-63119737D01*
X93446897Y-63058327D01*
X93446890Y-63058314D01*
X93359289Y-62927211D01*
X93359286Y-62927207D01*
X93247792Y-62815713D01*
X93247788Y-62815710D01*
X93116685Y-62728109D01*
X93116672Y-62728102D01*
X92971001Y-62667764D01*
X92970989Y-62667761D01*
X92816345Y-62637000D01*
X92816342Y-62637000D01*
X92658658Y-62637000D01*
X92658655Y-62637000D01*
X92504010Y-62667761D01*
X92503998Y-62667764D01*
X92358327Y-62728102D01*
X92358314Y-62728109D01*
X92227211Y-62815710D01*
X92227207Y-62815713D01*
X92115713Y-62927207D01*
X92115710Y-62927211D01*
X92028109Y-63058314D01*
X92028102Y-63058327D01*
X91967764Y-63203998D01*
X91967761Y-63204010D01*
X91937000Y-63358653D01*
X61652039Y-63358653D01*
X61583501Y-63330264D01*
X61583489Y-63330261D01*
X61428845Y-63299500D01*
X61428842Y-63299500D01*
X61271158Y-63299500D01*
X61271155Y-63299500D01*
X61116510Y-63330261D01*
X61116498Y-63330264D01*
X60970827Y-63390602D01*
X60970814Y-63390609D01*
X60839711Y-63478210D01*
X60839707Y-63478213D01*
X60728213Y-63589707D01*
X60728210Y-63589711D01*
X60640609Y-63720814D01*
X60640602Y-63720827D01*
X60580264Y-63866498D01*
X60580261Y-63866510D01*
X60549500Y-64021153D01*
X57323239Y-64021153D01*
X57264275Y-63978314D01*
X57263570Y-63977954D01*
X57255509Y-63973848D01*
X57204714Y-63925875D01*
X57187918Y-63858055D01*
X57210454Y-63791919D01*
X57255509Y-63752878D01*
X57264271Y-63748414D01*
X57302250Y-63720821D01*
X57436241Y-63623472D01*
X57436243Y-63623469D01*
X57436247Y-63623467D01*
X57586559Y-63473155D01*
X57586561Y-63473151D01*
X57586564Y-63473149D01*
X57711503Y-63301183D01*
X57711502Y-63301183D01*
X57711506Y-63301179D01*
X57808012Y-63111775D01*
X57873701Y-62909606D01*
X57906955Y-62699650D01*
X57906955Y-62487076D01*
X57873701Y-62277120D01*
X57871762Y-62271153D01*
X64549500Y-62271153D01*
X64549500Y-62428846D01*
X64580261Y-62583489D01*
X64580264Y-62583501D01*
X64640602Y-62729172D01*
X64640609Y-62729185D01*
X64728210Y-62860288D01*
X64728213Y-62860292D01*
X64839707Y-62971786D01*
X64839711Y-62971789D01*
X64970814Y-63059390D01*
X64970827Y-63059397D01*
X65116498Y-63119735D01*
X65116503Y-63119737D01*
X65271153Y-63150499D01*
X65271156Y-63150500D01*
X65271158Y-63150500D01*
X65428844Y-63150500D01*
X65428845Y-63150499D01*
X65583497Y-63119737D01*
X65729179Y-63059394D01*
X65860289Y-62971789D01*
X65971789Y-62860289D01*
X66059394Y-62729179D01*
X66059839Y-62728106D01*
X66088344Y-62659286D01*
X66119737Y-62583497D01*
X66150500Y-62428842D01*
X66150500Y-62271158D01*
X66150500Y-62271155D01*
X66150499Y-62271153D01*
X66125761Y-62146789D01*
X66119737Y-62116503D01*
X66102526Y-62074951D01*
X66059397Y-61970827D01*
X66059390Y-61970814D01*
X65971789Y-61839711D01*
X65971786Y-61839707D01*
X65860292Y-61728213D01*
X65860288Y-61728210D01*
X65729185Y-61640609D01*
X65729172Y-61640602D01*
X65583501Y-61580264D01*
X65583489Y-61580261D01*
X65428845Y-61549500D01*
X65428842Y-61549500D01*
X65271158Y-61549500D01*
X65271155Y-61549500D01*
X65116510Y-61580261D01*
X65116498Y-61580264D01*
X64970827Y-61640602D01*
X64970814Y-61640609D01*
X64839711Y-61728210D01*
X64839707Y-61728213D01*
X64728213Y-61839707D01*
X64728210Y-61839711D01*
X64640609Y-61970814D01*
X64640602Y-61970827D01*
X64580264Y-62116498D01*
X64580261Y-62116510D01*
X64549500Y-62271153D01*
X57871762Y-62271153D01*
X57808012Y-62074951D01*
X57711506Y-61885547D01*
X57711504Y-61885544D01*
X57711503Y-61885542D01*
X57586564Y-61713576D01*
X57436241Y-61563253D01*
X57264272Y-61438312D01*
X57254959Y-61433567D01*
X57204162Y-61385593D01*
X57187367Y-61317772D01*
X57209904Y-61251637D01*
X57254962Y-61212595D01*
X57264010Y-61207985D01*
X57318171Y-61168633D01*
X57318172Y-61168633D01*
X57045692Y-60896153D01*
X81999500Y-60896153D01*
X81999500Y-61053846D01*
X82030261Y-61208489D01*
X82030264Y-61208501D01*
X82090602Y-61354172D01*
X82090609Y-61354185D01*
X82178210Y-61485288D01*
X82178213Y-61485292D01*
X82289707Y-61596786D01*
X82289712Y-61596790D01*
X82333453Y-61626016D01*
X82378259Y-61679627D01*
X82386968Y-61748952D01*
X82379126Y-61776569D01*
X82367763Y-61804002D01*
X82367760Y-61804011D01*
X82337000Y-61958653D01*
X82337000Y-62116346D01*
X82367761Y-62270989D01*
X82367764Y-62271001D01*
X82428102Y-62416672D01*
X82428109Y-62416685D01*
X82515710Y-62547788D01*
X82515713Y-62547792D01*
X82627207Y-62659286D01*
X82627211Y-62659289D01*
X82758314Y-62746890D01*
X82758327Y-62746897D01*
X82903998Y-62807235D01*
X82904003Y-62807237D01*
X83058653Y-62837999D01*
X83058656Y-62838000D01*
X83058658Y-62838000D01*
X83216344Y-62838000D01*
X83216345Y-62837999D01*
X83370997Y-62807237D01*
X83516679Y-62746894D01*
X83647789Y-62659289D01*
X83759289Y-62547789D01*
X83846894Y-62416679D01*
X83907237Y-62270997D01*
X83938000Y-62116342D01*
X83938000Y-61958658D01*
X83938000Y-61958655D01*
X83937999Y-61958653D01*
X83937425Y-61955769D01*
X83907237Y-61804003D01*
X83888385Y-61758489D01*
X83846897Y-61658327D01*
X83846890Y-61658314D01*
X83759786Y-61527954D01*
X83759784Y-61527952D01*
X83759289Y-61527211D01*
X83678231Y-61446153D01*
X84549500Y-61446153D01*
X84549500Y-61603846D01*
X84580261Y-61758489D01*
X84580264Y-61758501D01*
X84640602Y-61904172D01*
X84640609Y-61904185D01*
X84728210Y-62035288D01*
X84728213Y-62035292D01*
X84839707Y-62146786D01*
X84839711Y-62146789D01*
X84970814Y-62234390D01*
X84970827Y-62234397D01*
X85116498Y-62294735D01*
X85116503Y-62294737D01*
X85271153Y-62325499D01*
X85271156Y-62325500D01*
X85271158Y-62325500D01*
X85428844Y-62325500D01*
X85428845Y-62325499D01*
X85583497Y-62294737D01*
X85729179Y-62234394D01*
X85860289Y-62146789D01*
X85971789Y-62035289D01*
X86059394Y-61904179D01*
X86119737Y-61758497D01*
X86150500Y-61603842D01*
X86150500Y-61446158D01*
X86150500Y-61446155D01*
X86150499Y-61446153D01*
X86140230Y-61394527D01*
X86119737Y-61291503D01*
X86116258Y-61283104D01*
X86059397Y-61145827D01*
X86059390Y-61145814D01*
X85971789Y-61014711D01*
X85971786Y-61014707D01*
X85860292Y-60903213D01*
X85860288Y-60903210D01*
X85729185Y-60815609D01*
X85729172Y-60815602D01*
X85583501Y-60755264D01*
X85583489Y-60755261D01*
X85428845Y-60724500D01*
X85428842Y-60724500D01*
X85271158Y-60724500D01*
X85271155Y-60724500D01*
X85116510Y-60755261D01*
X85116498Y-60755264D01*
X84970827Y-60815602D01*
X84970814Y-60815609D01*
X84839711Y-60903210D01*
X84839707Y-60903213D01*
X84728213Y-61014707D01*
X84728210Y-61014711D01*
X84640609Y-61145814D01*
X84640602Y-61145827D01*
X84580264Y-61291498D01*
X84580261Y-61291510D01*
X84549500Y-61446153D01*
X83678231Y-61446153D01*
X83647789Y-61415711D01*
X83596690Y-61381568D01*
X83590108Y-61375660D01*
X83576199Y-61353162D01*
X83559239Y-61332869D01*
X83558113Y-61323910D01*
X83553366Y-61316231D01*
X83553827Y-61289785D01*
X83550532Y-61263544D01*
X83554532Y-61249457D01*
X83554586Y-61246372D01*
X83556017Y-61244228D01*
X83558373Y-61235930D01*
X83569737Y-61208497D01*
X83600500Y-61053842D01*
X83600500Y-60896158D01*
X83600500Y-60896155D01*
X83600499Y-60896153D01*
X83587620Y-60831406D01*
X83569737Y-60741503D01*
X83562694Y-60724500D01*
X83509397Y-60595827D01*
X83509390Y-60595814D01*
X83421789Y-60464711D01*
X83421786Y-60464707D01*
X83310292Y-60353213D01*
X83310288Y-60353210D01*
X83179185Y-60265609D01*
X83179172Y-60265602D01*
X83033501Y-60205264D01*
X83033489Y-60205261D01*
X82878845Y-60174500D01*
X82878842Y-60174500D01*
X82721158Y-60174500D01*
X82721155Y-60174500D01*
X82566510Y-60205261D01*
X82566498Y-60205264D01*
X82420827Y-60265602D01*
X82420814Y-60265609D01*
X82289711Y-60353210D01*
X82289707Y-60353213D01*
X82178213Y-60464707D01*
X82178210Y-60464711D01*
X82090609Y-60595814D01*
X82090602Y-60595827D01*
X82030264Y-60741498D01*
X82030261Y-60741510D01*
X81999500Y-60896153D01*
X57045692Y-60896153D01*
X56685863Y-60536325D01*
X56749448Y-60519288D01*
X56863462Y-60453462D01*
X56956554Y-60360370D01*
X57022380Y-60246356D01*
X57039417Y-60182771D01*
X57671725Y-60815080D01*
X57671725Y-60815079D01*
X57711077Y-60760917D01*
X57807550Y-60571580D01*
X57873212Y-60369493D01*
X57873212Y-60369490D01*
X57906455Y-60159609D01*
X57906455Y-59947116D01*
X57873212Y-59737235D01*
X57873212Y-59737232D01*
X57807550Y-59535145D01*
X57711079Y-59345812D01*
X57671725Y-59291645D01*
X57671724Y-59291645D01*
X57039417Y-59923953D01*
X57022380Y-59860370D01*
X56956554Y-59746356D01*
X56863462Y-59653264D01*
X56749448Y-59587438D01*
X56685864Y-59570400D01*
X57060110Y-59196153D01*
X69299500Y-59196153D01*
X69299500Y-59353846D01*
X69330261Y-59508489D01*
X69330264Y-59508501D01*
X69390602Y-59654172D01*
X69390609Y-59654185D01*
X69478210Y-59785288D01*
X69478213Y-59785292D01*
X69589707Y-59896786D01*
X69589711Y-59896789D01*
X69720814Y-59984390D01*
X69720827Y-59984397D01*
X69866498Y-60044735D01*
X69866503Y-60044737D01*
X70021153Y-60075499D01*
X70021156Y-60075500D01*
X70021158Y-60075500D01*
X70178844Y-60075500D01*
X70178845Y-60075499D01*
X70333497Y-60044737D01*
X70399729Y-60017303D01*
X95306005Y-60017303D01*
X95306005Y-60229877D01*
X95316039Y-60293234D01*
X95334045Y-60406917D01*
X95339259Y-60439833D01*
X95382066Y-60571580D01*
X95404949Y-60642004D01*
X95501456Y-60831410D01*
X95626395Y-61003376D01*
X95776718Y-61153699D01*
X95948687Y-61278640D01*
X95957451Y-61283106D01*
X96008247Y-61331081D01*
X96025041Y-61398902D01*
X96002503Y-61465037D01*
X95957451Y-61504074D01*
X95948687Y-61508539D01*
X95776718Y-61633480D01*
X95626395Y-61783803D01*
X95501456Y-61955769D01*
X95404949Y-62145175D01*
X95339258Y-62347350D01*
X95317879Y-62482331D01*
X95306005Y-62557303D01*
X95306005Y-62769877D01*
X95339259Y-62979833D01*
X95394712Y-63150500D01*
X95404949Y-63182004D01*
X95501456Y-63371410D01*
X95626395Y-63543376D01*
X95776718Y-63693699D01*
X95948687Y-63818640D01*
X95957451Y-63823106D01*
X96008247Y-63871081D01*
X96025041Y-63938902D01*
X96002503Y-64005037D01*
X95957451Y-64044074D01*
X95948687Y-64048539D01*
X95776718Y-64173480D01*
X95626395Y-64323803D01*
X95501456Y-64495769D01*
X95404949Y-64685175D01*
X95339258Y-64887350D01*
X95306005Y-65097303D01*
X95306005Y-65309876D01*
X95336780Y-65504185D01*
X95339259Y-65519833D01*
X95399509Y-65705264D01*
X95404949Y-65722004D01*
X95501456Y-65911410D01*
X95626395Y-66083376D01*
X95776718Y-66233699D01*
X95948687Y-66358640D01*
X95957451Y-66363106D01*
X96008247Y-66411081D01*
X96025041Y-66478902D01*
X96002503Y-66545037D01*
X95957451Y-66584074D01*
X95948687Y-66588539D01*
X95776718Y-66713480D01*
X95626395Y-66863803D01*
X95501456Y-67035769D01*
X95404949Y-67225175D01*
X95339258Y-67427350D01*
X95306005Y-67637303D01*
X95306005Y-67849876D01*
X95333662Y-68024500D01*
X95339259Y-68059833D01*
X95385846Y-68203213D01*
X95404949Y-68262004D01*
X95501456Y-68451410D01*
X95626395Y-68623376D01*
X95776718Y-68773699D01*
X95948687Y-68898640D01*
X95957451Y-68903106D01*
X96008247Y-68951081D01*
X96025041Y-69018902D01*
X96002503Y-69085037D01*
X95957451Y-69124074D01*
X95948687Y-69128539D01*
X95776718Y-69253480D01*
X95626395Y-69403803D01*
X95501456Y-69575769D01*
X95404949Y-69765175D01*
X95339258Y-69967350D01*
X95306005Y-70177303D01*
X95306005Y-70389877D01*
X95316039Y-70453234D01*
X95338767Y-70596730D01*
X95339259Y-70599833D01*
X95393098Y-70765533D01*
X95404949Y-70802004D01*
X95501456Y-70991410D01*
X95626395Y-71163376D01*
X95776718Y-71313699D01*
X95948687Y-71438640D01*
X95957451Y-71443106D01*
X96008247Y-71491081D01*
X96025041Y-71558902D01*
X96002503Y-71625037D01*
X95957451Y-71664074D01*
X95948687Y-71668539D01*
X95776718Y-71793480D01*
X95626395Y-71943803D01*
X95501456Y-72115769D01*
X95404949Y-72305175D01*
X95339258Y-72507350D01*
X95306005Y-72717303D01*
X95306005Y-72929876D01*
X95334579Y-73110289D01*
X95339259Y-73139833D01*
X95382130Y-73271777D01*
X95404949Y-73342004D01*
X95501456Y-73531410D01*
X95626395Y-73703376D01*
X95776718Y-73853699D01*
X95948687Y-73978640D01*
X95957451Y-73983106D01*
X96008247Y-74031081D01*
X96025041Y-74098902D01*
X96002503Y-74165037D01*
X95957451Y-74204074D01*
X95948687Y-74208539D01*
X95776718Y-74333480D01*
X95626395Y-74483803D01*
X95501456Y-74655769D01*
X95404949Y-74845175D01*
X95339258Y-75047350D01*
X95317128Y-75187076D01*
X95306005Y-75257303D01*
X95306005Y-75469877D01*
X95316039Y-75533234D01*
X95337005Y-75665606D01*
X95339259Y-75679833D01*
X95399328Y-75864707D01*
X95404949Y-75882004D01*
X95501456Y-76071410D01*
X95626395Y-76243376D01*
X95739935Y-76356916D01*
X95773420Y-76418239D01*
X95768436Y-76487931D01*
X95726564Y-76543864D01*
X95695588Y-76560779D01*
X95564174Y-76609793D01*
X95564169Y-76609796D01*
X95448960Y-76696042D01*
X95448957Y-76696045D01*
X95362711Y-76811254D01*
X95362707Y-76811261D01*
X95312413Y-76946107D01*
X95310414Y-76964705D01*
X95306006Y-77005713D01*
X95306005Y-77005725D01*
X95306005Y-78801460D01*
X95306006Y-78801466D01*
X95312413Y-78861073D01*
X95362707Y-78995918D01*
X95362711Y-78995925D01*
X95448957Y-79111134D01*
X95448960Y-79111137D01*
X95564169Y-79197383D01*
X95564176Y-79197387D01*
X95699022Y-79247681D01*
X95699021Y-79247681D01*
X95705949Y-79248425D01*
X95758632Y-79254090D01*
X97554377Y-79254089D01*
X97613988Y-79247681D01*
X97748836Y-79197386D01*
X97864051Y-79111136D01*
X97950301Y-78995921D01*
X98000596Y-78861073D01*
X98007005Y-78801463D01*
X98007004Y-77005718D01*
X98000596Y-76946107D01*
X97996636Y-76935491D01*
X97950302Y-76811261D01*
X97950298Y-76811254D01*
X97864052Y-76696045D01*
X97864049Y-76696042D01*
X97748840Y-76609796D01*
X97748833Y-76609792D01*
X97617422Y-76560779D01*
X97561488Y-76518908D01*
X97537071Y-76453443D01*
X97551923Y-76385170D01*
X97573068Y-76356922D01*
X97686609Y-76243382D01*
X97737635Y-76173151D01*
X97811553Y-76071410D01*
X97811552Y-76071410D01*
X97811556Y-76071406D01*
X97908062Y-75882002D01*
X97973751Y-75679833D01*
X98007005Y-75469877D01*
X98007005Y-75257303D01*
X97973751Y-75047347D01*
X97908062Y-74845178D01*
X97811556Y-74655774D01*
X97811554Y-74655771D01*
X97811553Y-74655769D01*
X97686614Y-74483803D01*
X97536291Y-74333480D01*
X97364325Y-74208541D01*
X97363620Y-74208181D01*
X97355559Y-74204075D01*
X97304764Y-74156102D01*
X97287968Y-74088282D01*
X97310504Y-74022146D01*
X97355559Y-73983105D01*
X97364321Y-73978641D01*
X97401101Y-73951919D01*
X97536291Y-73853699D01*
X97536293Y-73853696D01*
X97536297Y-73853694D01*
X97686609Y-73703382D01*
X97686611Y-73703378D01*
X97686614Y-73703376D01*
X97811553Y-73531410D01*
X97811552Y-73531410D01*
X97811556Y-73531406D01*
X97908062Y-73342002D01*
X97973751Y-73139833D01*
X98007005Y-72929877D01*
X98007005Y-72717303D01*
X97973751Y-72507347D01*
X97908062Y-72305178D01*
X97811556Y-72115774D01*
X97811554Y-72115771D01*
X97811553Y-72115769D01*
X97686614Y-71943803D01*
X97536291Y-71793480D01*
X97364325Y-71668541D01*
X97363620Y-71668181D01*
X97355559Y-71664075D01*
X97304764Y-71616102D01*
X97287968Y-71548282D01*
X97310504Y-71482146D01*
X97355559Y-71443105D01*
X97364321Y-71438641D01*
X97428908Y-71391716D01*
X97536291Y-71313699D01*
X97536293Y-71313696D01*
X97536297Y-71313694D01*
X97686609Y-71163382D01*
X97686611Y-71163378D01*
X97686614Y-71163376D01*
X97811553Y-70991410D01*
X97811552Y-70991410D01*
X97811556Y-70991406D01*
X97908062Y-70802002D01*
X97973751Y-70599833D01*
X98007005Y-70389877D01*
X98007005Y-70177303D01*
X97973751Y-69967347D01*
X97908062Y-69765178D01*
X97811556Y-69575774D01*
X97811554Y-69575771D01*
X97811553Y-69575769D01*
X97686614Y-69403803D01*
X97536291Y-69253480D01*
X97364325Y-69128541D01*
X97363620Y-69128181D01*
X97355559Y-69124075D01*
X97304764Y-69076102D01*
X97287968Y-69008282D01*
X97310504Y-68942146D01*
X97355559Y-68903105D01*
X97364321Y-68898641D01*
X97436558Y-68846158D01*
X97536291Y-68773699D01*
X97536293Y-68773696D01*
X97536297Y-68773694D01*
X97686609Y-68623382D01*
X97686611Y-68623378D01*
X97686614Y-68623376D01*
X97811553Y-68451410D01*
X97811552Y-68451410D01*
X97811556Y-68451406D01*
X97908062Y-68262002D01*
X97973751Y-68059833D01*
X98007005Y-67849877D01*
X98007005Y-67637303D01*
X97973751Y-67427347D01*
X97908062Y-67225178D01*
X97811556Y-67035774D01*
X97811554Y-67035771D01*
X97811553Y-67035769D01*
X97686614Y-66863803D01*
X97536291Y-66713480D01*
X97364325Y-66588541D01*
X97363620Y-66588181D01*
X97355559Y-66584075D01*
X97304764Y-66536102D01*
X97287968Y-66468282D01*
X97310504Y-66402146D01*
X97355559Y-66363105D01*
X97364321Y-66358641D01*
X97416386Y-66320814D01*
X97536291Y-66233699D01*
X97536293Y-66233696D01*
X97536297Y-66233694D01*
X97686609Y-66083382D01*
X97686611Y-66083378D01*
X97686614Y-66083376D01*
X97811553Y-65911410D01*
X97811552Y-65911410D01*
X97811556Y-65911406D01*
X97908062Y-65722002D01*
X97973751Y-65519833D01*
X98007005Y-65309877D01*
X98007005Y-65097303D01*
X97973751Y-64887347D01*
X97908062Y-64685178D01*
X97811556Y-64495774D01*
X97811554Y-64495771D01*
X97811553Y-64495769D01*
X97686614Y-64323803D01*
X97536291Y-64173480D01*
X97364325Y-64048541D01*
X97363620Y-64048181D01*
X97355559Y-64044075D01*
X97304764Y-63996102D01*
X97287968Y-63928282D01*
X97310504Y-63862146D01*
X97355559Y-63823105D01*
X97364321Y-63818641D01*
X97401101Y-63791919D01*
X97536291Y-63693699D01*
X97536293Y-63693696D01*
X97536297Y-63693694D01*
X97686609Y-63543382D01*
X97686611Y-63543378D01*
X97686614Y-63543376D01*
X97811553Y-63371410D01*
X97811552Y-63371410D01*
X97811556Y-63371406D01*
X97908062Y-63182002D01*
X97973751Y-62979833D01*
X98007005Y-62769877D01*
X98007005Y-62557303D01*
X97973751Y-62347347D01*
X97908062Y-62145178D01*
X97811556Y-61955774D01*
X97811554Y-61955771D01*
X97811553Y-61955769D01*
X97686614Y-61783803D01*
X97536291Y-61633480D01*
X97364325Y-61508541D01*
X97363620Y-61508181D01*
X97355559Y-61504075D01*
X97304764Y-61456102D01*
X97287968Y-61388282D01*
X97310504Y-61322146D01*
X97355559Y-61283105D01*
X97364321Y-61278641D01*
X97423119Y-61235922D01*
X97536291Y-61153699D01*
X97536293Y-61153696D01*
X97536297Y-61153694D01*
X97686609Y-61003382D01*
X97686611Y-61003378D01*
X97686614Y-61003376D01*
X97811553Y-60831410D01*
X97811552Y-60831410D01*
X97811556Y-60831406D01*
X97908062Y-60642002D01*
X97973751Y-60439833D01*
X98007005Y-60229877D01*
X98007005Y-60017303D01*
X97973751Y-59807347D01*
X97908062Y-59605178D01*
X97811556Y-59415774D01*
X97811554Y-59415771D01*
X97811553Y-59415769D01*
X97686614Y-59243803D01*
X97536291Y-59093480D01*
X97364325Y-58968541D01*
X97174919Y-58872034D01*
X97174918Y-58872033D01*
X97174917Y-58872033D01*
X96972748Y-58806344D01*
X96972746Y-58806343D01*
X96972745Y-58806343D01*
X96811462Y-58780798D01*
X96762792Y-58773090D01*
X96550218Y-58773090D01*
X96501547Y-58780798D01*
X96340265Y-58806343D01*
X96138090Y-58872034D01*
X95948684Y-58968541D01*
X95776718Y-59093480D01*
X95626395Y-59243803D01*
X95501456Y-59415769D01*
X95404949Y-59605175D01*
X95339258Y-59807350D01*
X95306005Y-60017303D01*
X70399729Y-60017303D01*
X70479179Y-59984394D01*
X70479185Y-59984390D01*
X70591522Y-59909329D01*
X70610289Y-59896789D01*
X70721786Y-59785292D01*
X70721789Y-59785289D01*
X70809394Y-59654179D01*
X70869737Y-59508497D01*
X70900500Y-59353842D01*
X70900500Y-59196158D01*
X70900500Y-59196155D01*
X70900499Y-59196153D01*
X70880326Y-59094737D01*
X70869737Y-59041503D01*
X70866791Y-59034390D01*
X70809397Y-58895827D01*
X70809390Y-58895814D01*
X70721789Y-58764711D01*
X70721786Y-58764707D01*
X70610292Y-58653213D01*
X70610288Y-58653210D01*
X70479185Y-58565609D01*
X70479172Y-58565602D01*
X70333501Y-58505264D01*
X70333489Y-58505261D01*
X70178845Y-58474500D01*
X70178842Y-58474500D01*
X70021158Y-58474500D01*
X70021155Y-58474500D01*
X69866510Y-58505261D01*
X69866498Y-58505264D01*
X69720827Y-58565602D01*
X69720814Y-58565609D01*
X69589711Y-58653210D01*
X69589707Y-58653213D01*
X69478213Y-58764707D01*
X69478210Y-58764711D01*
X69390609Y-58895814D01*
X69390602Y-58895827D01*
X69330264Y-59041498D01*
X69330261Y-59041510D01*
X69299500Y-59196153D01*
X57060110Y-59196153D01*
X57318171Y-58938091D01*
X57264005Y-58898738D01*
X57074672Y-58802267D01*
X56872584Y-58736605D01*
X56662701Y-58703363D01*
X56450209Y-58703363D01*
X56240327Y-58736605D01*
X56240324Y-58736605D01*
X56038237Y-58802267D01*
X55848894Y-58898743D01*
X55794737Y-58938090D01*
X55794737Y-58938091D01*
X56427046Y-59570400D01*
X56363462Y-59587438D01*
X56249448Y-59653264D01*
X56156356Y-59746356D01*
X56090530Y-59860370D01*
X56073492Y-59923954D01*
X55441183Y-59291645D01*
X55441182Y-59291645D01*
X55401835Y-59345802D01*
X55305359Y-59535145D01*
X55239697Y-59737232D01*
X55239697Y-59737235D01*
X55206455Y-59947116D01*
X55206455Y-60159609D01*
X55239697Y-60369490D01*
X55239697Y-60369493D01*
X55305359Y-60571580D01*
X55401830Y-60760913D01*
X55441183Y-60815079D01*
X56073492Y-60182771D01*
X56090530Y-60246356D01*
X56156356Y-60360370D01*
X56249448Y-60453462D01*
X56363462Y-60519288D01*
X56427045Y-60536325D01*
X55794737Y-61168632D01*
X55794737Y-61168633D01*
X55848907Y-61207989D01*
X55848906Y-61207989D01*
X55857950Y-61212597D01*
X55908747Y-61260571D01*
X55925542Y-61328392D01*
X55903005Y-61394527D01*
X55857954Y-61433565D01*
X55848637Y-61438312D01*
X55676668Y-61563253D01*
X55526345Y-61713576D01*
X55401406Y-61885542D01*
X55304899Y-62074948D01*
X55304898Y-62074950D01*
X55304898Y-62074951D01*
X55291397Y-62116503D01*
X55239208Y-62277123D01*
X55217106Y-62416672D01*
X55205955Y-62487076D01*
X54250075Y-62487076D01*
X54245721Y-58246153D01*
X81324500Y-58246153D01*
X81324500Y-58403846D01*
X81355261Y-58558489D01*
X81355264Y-58558501D01*
X81415602Y-58704172D01*
X81415609Y-58704185D01*
X81503210Y-58835288D01*
X81503213Y-58835292D01*
X81614707Y-58946786D01*
X81614711Y-58946789D01*
X81745814Y-59034390D01*
X81745827Y-59034397D01*
X81888468Y-59093480D01*
X81891503Y-59094737D01*
X82046153Y-59125499D01*
X82046156Y-59125500D01*
X82046158Y-59125500D01*
X82203844Y-59125500D01*
X82203845Y-59125499D01*
X82358497Y-59094737D01*
X82504179Y-59034394D01*
X82635289Y-58946789D01*
X82746789Y-58835289D01*
X82834394Y-58704179D01*
X82894737Y-58558497D01*
X82925500Y-58403842D01*
X82925500Y-58246158D01*
X82925500Y-58246155D01*
X82925499Y-58246153D01*
X82894738Y-58091510D01*
X82894737Y-58091503D01*
X82894735Y-58091498D01*
X82834397Y-57945827D01*
X82834390Y-57945814D01*
X82746789Y-57814711D01*
X82746786Y-57814707D01*
X82635292Y-57703213D01*
X82635288Y-57703210D01*
X82504185Y-57615609D01*
X82504172Y-57615602D01*
X82358501Y-57555264D01*
X82358489Y-57555261D01*
X82203845Y-57524500D01*
X82203842Y-57524500D01*
X82046158Y-57524500D01*
X82046155Y-57524500D01*
X81891510Y-57555261D01*
X81891498Y-57555264D01*
X81745827Y-57615602D01*
X81745814Y-57615609D01*
X81614711Y-57703210D01*
X81614707Y-57703213D01*
X81503213Y-57814707D01*
X81503210Y-57814711D01*
X81415609Y-57945814D01*
X81415602Y-57945827D01*
X81355264Y-58091498D01*
X81355261Y-58091510D01*
X81324500Y-58246153D01*
X54245721Y-58246153D01*
X54244309Y-56871153D01*
X83724500Y-56871153D01*
X83724500Y-57028846D01*
X83755261Y-57183489D01*
X83755264Y-57183501D01*
X83815602Y-57329172D01*
X83815609Y-57329185D01*
X83903210Y-57460288D01*
X83903213Y-57460292D01*
X84014707Y-57571786D01*
X84014711Y-57571789D01*
X84145814Y-57659390D01*
X84145827Y-57659397D01*
X84251603Y-57703210D01*
X84291503Y-57719737D01*
X84446153Y-57750499D01*
X84446156Y-57750500D01*
X84446158Y-57750500D01*
X84603844Y-57750500D01*
X84603845Y-57750499D01*
X84758497Y-57719737D01*
X84904179Y-57659394D01*
X85035289Y-57571789D01*
X85146789Y-57460289D01*
X85234394Y-57329179D01*
X85294737Y-57183497D01*
X85325500Y-57028842D01*
X85325500Y-56871158D01*
X85325500Y-56871155D01*
X85325499Y-56871153D01*
X85294738Y-56716510D01*
X85294737Y-56716503D01*
X85294735Y-56716498D01*
X85234397Y-56570827D01*
X85234390Y-56570814D01*
X85146789Y-56439711D01*
X85146786Y-56439707D01*
X85035292Y-56328213D01*
X85035288Y-56328210D01*
X84904185Y-56240609D01*
X84904172Y-56240602D01*
X84758501Y-56180264D01*
X84758489Y-56180261D01*
X84603845Y-56149500D01*
X84603842Y-56149500D01*
X84446158Y-56149500D01*
X84446155Y-56149500D01*
X84291510Y-56180261D01*
X84291498Y-56180264D01*
X84145827Y-56240602D01*
X84145814Y-56240609D01*
X84014711Y-56328210D01*
X84014707Y-56328213D01*
X83903213Y-56439707D01*
X83903210Y-56439711D01*
X83815609Y-56570814D01*
X83815602Y-56570827D01*
X83755264Y-56716498D01*
X83755261Y-56716510D01*
X83724500Y-56871153D01*
X54244309Y-56871153D01*
X54241691Y-54321044D01*
X89759835Y-54321044D01*
X89759835Y-54478737D01*
X89790596Y-54633380D01*
X89790599Y-54633392D01*
X89850937Y-54779063D01*
X89850944Y-54779076D01*
X89938545Y-54910179D01*
X89938548Y-54910183D01*
X90050042Y-55021677D01*
X90050046Y-55021680D01*
X90181149Y-55109281D01*
X90181162Y-55109288D01*
X90326833Y-55169626D01*
X90326838Y-55169628D01*
X90481488Y-55200390D01*
X90481491Y-55200391D01*
X90481493Y-55200391D01*
X90639179Y-55200391D01*
X90639180Y-55200390D01*
X90793832Y-55169628D01*
X90939514Y-55109285D01*
X91070624Y-55021680D01*
X91182124Y-54910180D01*
X91269729Y-54779070D01*
X91330072Y-54633388D01*
X91360835Y-54478733D01*
X91360835Y-54321049D01*
X91360835Y-54321046D01*
X91360834Y-54321044D01*
X91330073Y-54166401D01*
X91330072Y-54166394D01*
X91330070Y-54166389D01*
X91269732Y-54020718D01*
X91269725Y-54020705D01*
X91182124Y-53889602D01*
X91182121Y-53889598D01*
X91070627Y-53778104D01*
X91070623Y-53778101D01*
X90939520Y-53690500D01*
X90939507Y-53690493D01*
X90793836Y-53630155D01*
X90793824Y-53630152D01*
X90639180Y-53599391D01*
X90639177Y-53599391D01*
X90481493Y-53599391D01*
X90481490Y-53599391D01*
X90326845Y-53630152D01*
X90326833Y-53630155D01*
X90181162Y-53690493D01*
X90181149Y-53690500D01*
X90050046Y-53778101D01*
X90050042Y-53778104D01*
X89938548Y-53889598D01*
X89938545Y-53889602D01*
X89850944Y-54020705D01*
X89850937Y-54020718D01*
X89790599Y-54166389D01*
X89790596Y-54166401D01*
X89759835Y-54321044D01*
X54241691Y-54321044D01*
X54236019Y-48796153D01*
X83274500Y-48796153D01*
X83274500Y-48953846D01*
X83305261Y-49108489D01*
X83305264Y-49108501D01*
X83365602Y-49254172D01*
X83365609Y-49254185D01*
X83453210Y-49385288D01*
X83453213Y-49385292D01*
X83564707Y-49496786D01*
X83564711Y-49496789D01*
X83695814Y-49584390D01*
X83695827Y-49584397D01*
X83841498Y-49644735D01*
X83841503Y-49644737D01*
X83996153Y-49675499D01*
X83996156Y-49675500D01*
X83996158Y-49675500D01*
X84153844Y-49675500D01*
X84153845Y-49675499D01*
X84308497Y-49644737D01*
X84454179Y-49584394D01*
X84585289Y-49496789D01*
X84696789Y-49385289D01*
X84784394Y-49254179D01*
X84844737Y-49108497D01*
X84875500Y-48953842D01*
X84875500Y-48796158D01*
X84875500Y-48796155D01*
X84875499Y-48796153D01*
X84844738Y-48641510D01*
X84844737Y-48641503D01*
X84844735Y-48641498D01*
X84784397Y-48495827D01*
X84784390Y-48495814D01*
X84696789Y-48364711D01*
X84696786Y-48364707D01*
X84585292Y-48253213D01*
X84585288Y-48253210D01*
X84454185Y-48165609D01*
X84454172Y-48165602D01*
X84308501Y-48105264D01*
X84308489Y-48105261D01*
X84153845Y-48074500D01*
X84153842Y-48074500D01*
X83996158Y-48074500D01*
X83996155Y-48074500D01*
X83841510Y-48105261D01*
X83841498Y-48105264D01*
X83695827Y-48165602D01*
X83695814Y-48165609D01*
X83564711Y-48253210D01*
X83564707Y-48253213D01*
X83453213Y-48364707D01*
X83453210Y-48364711D01*
X83365609Y-48495814D01*
X83365602Y-48495827D01*
X83305264Y-48641498D01*
X83305261Y-48641510D01*
X83274500Y-48796153D01*
X54236019Y-48796153D01*
X54230937Y-43846153D01*
X92574500Y-43846153D01*
X92574500Y-44003846D01*
X92605261Y-44158489D01*
X92605264Y-44158501D01*
X92665602Y-44304172D01*
X92665609Y-44304185D01*
X92753210Y-44435288D01*
X92753213Y-44435292D01*
X92864707Y-44546786D01*
X92864711Y-44546789D01*
X92995814Y-44634390D01*
X92995827Y-44634397D01*
X93141498Y-44694735D01*
X93141503Y-44694737D01*
X93296153Y-44725499D01*
X93296156Y-44725500D01*
X93296158Y-44725500D01*
X93453844Y-44725500D01*
X93453845Y-44725499D01*
X93608497Y-44694737D01*
X93754179Y-44634394D01*
X93885289Y-44546789D01*
X93996789Y-44435289D01*
X94084394Y-44304179D01*
X94144737Y-44158497D01*
X94175500Y-44003842D01*
X94175500Y-43846158D01*
X94175500Y-43846155D01*
X94175499Y-43846153D01*
X94144738Y-43691510D01*
X94144737Y-43691503D01*
X94144735Y-43691498D01*
X94084397Y-43545827D01*
X94084390Y-43545814D01*
X93996789Y-43414711D01*
X93996786Y-43414707D01*
X93885292Y-43303213D01*
X93885288Y-43303210D01*
X93754185Y-43215609D01*
X93754172Y-43215602D01*
X93608501Y-43155264D01*
X93608489Y-43155261D01*
X93453845Y-43124500D01*
X93453842Y-43124500D01*
X93296158Y-43124500D01*
X93296155Y-43124500D01*
X93141510Y-43155261D01*
X93141498Y-43155264D01*
X92995827Y-43215602D01*
X92995814Y-43215609D01*
X92864711Y-43303210D01*
X92864707Y-43303213D01*
X92753213Y-43414707D01*
X92753210Y-43414711D01*
X92665609Y-43545814D01*
X92665602Y-43545827D01*
X92605264Y-43691498D01*
X92605261Y-43691510D01*
X92574500Y-43846153D01*
X54230937Y-43846153D01*
X54227641Y-40635526D01*
X61589146Y-40635526D01*
X61589146Y-40871535D01*
X61589147Y-40871551D01*
X61619952Y-41105541D01*
X61681040Y-41333524D01*
X61771360Y-41551576D01*
X61771365Y-41551587D01*
X61842323Y-41674488D01*
X61889373Y-41755981D01*
X61889375Y-41755984D01*
X61889376Y-41755985D01*
X62033052Y-41943228D01*
X62033058Y-41943235D01*
X62199941Y-42110118D01*
X62199948Y-42110124D01*
X62216555Y-42122867D01*
X62387196Y-42253804D01*
X62518564Y-42329649D01*
X62591589Y-42371811D01*
X62591594Y-42371813D01*
X62591597Y-42371815D01*
X62809653Y-42462137D01*
X63037632Y-42523224D01*
X63271635Y-42554031D01*
X63271642Y-42554031D01*
X63507650Y-42554031D01*
X63507657Y-42554031D01*
X63741660Y-42523224D01*
X63969639Y-42462137D01*
X64187695Y-42371815D01*
X64392096Y-42253804D01*
X64579345Y-42110123D01*
X64746238Y-41943230D01*
X64889919Y-41755981D01*
X65007930Y-41551580D01*
X65098252Y-41333524D01*
X65159339Y-41105545D01*
X65190146Y-40871542D01*
X65190146Y-40635520D01*
X65159339Y-40401517D01*
X65098252Y-40173538D01*
X65007930Y-39955482D01*
X65007928Y-39955479D01*
X65007926Y-39955474D01*
X64922495Y-39807504D01*
X64889919Y-39751081D01*
X64877804Y-39735292D01*
X64870559Y-39725850D01*
X64870558Y-39725849D01*
X64815054Y-39653514D01*
X66669146Y-39653514D01*
X66669146Y-41853532D01*
X66669147Y-41853549D01*
X66679646Y-41956327D01*
X66679647Y-41956330D01*
X66730608Y-42110118D01*
X66734832Y-42122865D01*
X66826934Y-42272187D01*
X66950990Y-42396243D01*
X67100312Y-42488345D01*
X67266849Y-42543530D01*
X67369637Y-42554031D01*
X69569654Y-42554030D01*
X69672443Y-42543530D01*
X69838980Y-42488345D01*
X69905713Y-42447184D01*
X77599500Y-42447184D01*
X77599500Y-42604877D01*
X77630261Y-42759520D01*
X77630264Y-42759532D01*
X77690602Y-42905203D01*
X77690609Y-42905216D01*
X77778210Y-43036319D01*
X77778213Y-43036323D01*
X77889707Y-43147817D01*
X77889711Y-43147820D01*
X78020814Y-43235421D01*
X78020827Y-43235428D01*
X78166498Y-43295766D01*
X78166503Y-43295768D01*
X78321153Y-43326530D01*
X78321156Y-43326531D01*
X78321158Y-43326531D01*
X78478844Y-43326531D01*
X78478845Y-43326530D01*
X78633497Y-43295768D01*
X78779179Y-43235425D01*
X78910289Y-43147820D01*
X79021789Y-43036320D01*
X79109394Y-42905210D01*
X79169737Y-42759528D01*
X79200500Y-42604873D01*
X79200500Y-42447189D01*
X79200500Y-42447186D01*
X79200499Y-42447184D01*
X79169738Y-42292541D01*
X79169737Y-42292534D01*
X79169735Y-42292529D01*
X79109397Y-42146858D01*
X79109390Y-42146845D01*
X79021789Y-42015742D01*
X79021786Y-42015738D01*
X78910292Y-41904244D01*
X78910288Y-41904241D01*
X78779185Y-41816640D01*
X78779172Y-41816633D01*
X78633501Y-41756295D01*
X78633489Y-41756292D01*
X78478845Y-41725531D01*
X78478842Y-41725531D01*
X78321158Y-41725531D01*
X78321155Y-41725531D01*
X78166510Y-41756292D01*
X78166498Y-41756295D01*
X78020827Y-41816633D01*
X78020814Y-41816640D01*
X77889711Y-41904241D01*
X77889707Y-41904244D01*
X77778213Y-42015738D01*
X77778210Y-42015742D01*
X77690609Y-42146845D01*
X77690602Y-42146858D01*
X77630264Y-42292529D01*
X77630261Y-42292541D01*
X77599500Y-42447184D01*
X69905713Y-42447184D01*
X69988302Y-42396243D01*
X70112358Y-42272187D01*
X70204460Y-42122865D01*
X70259645Y-41956328D01*
X70270146Y-41853540D01*
X70270145Y-39653523D01*
X70265104Y-39604179D01*
X70259645Y-39550734D01*
X70259644Y-39550731D01*
X70229082Y-39458501D01*
X70204460Y-39384197D01*
X70112358Y-39234875D01*
X70023636Y-39146153D01*
X85149500Y-39146153D01*
X85149500Y-39303846D01*
X85180261Y-39458489D01*
X85180264Y-39458501D01*
X85240602Y-39604172D01*
X85240609Y-39604185D01*
X85328210Y-39735288D01*
X85328213Y-39735292D01*
X85439707Y-39846786D01*
X85439711Y-39846789D01*
X85570814Y-39934390D01*
X85570827Y-39934397D01*
X85716498Y-39994735D01*
X85716503Y-39994737D01*
X85871153Y-40025499D01*
X85871156Y-40025500D01*
X85871158Y-40025500D01*
X86028844Y-40025500D01*
X86028845Y-40025499D01*
X86183497Y-39994737D01*
X86329179Y-39934394D01*
X86460289Y-39846789D01*
X86571789Y-39735289D01*
X86659394Y-39604179D01*
X86719737Y-39458497D01*
X86750500Y-39303842D01*
X86750500Y-39146158D01*
X86750500Y-39146155D01*
X86750499Y-39146153D01*
X86743471Y-39110820D01*
X86719737Y-38991503D01*
X86703802Y-38953032D01*
X86659397Y-38845827D01*
X86659390Y-38845814D01*
X86571789Y-38714711D01*
X86571786Y-38714707D01*
X86460292Y-38603213D01*
X86460288Y-38603210D01*
X86329184Y-38515609D01*
X86329172Y-38515602D01*
X86183501Y-38455264D01*
X86183489Y-38455261D01*
X86028845Y-38424500D01*
X86028842Y-38424500D01*
X85871158Y-38424500D01*
X85871155Y-38424500D01*
X85716510Y-38455261D01*
X85716498Y-38455264D01*
X85570827Y-38515602D01*
X85570814Y-38515609D01*
X85439711Y-38603210D01*
X85439707Y-38603213D01*
X85328213Y-38714707D01*
X85328210Y-38714711D01*
X85240609Y-38845814D01*
X85240602Y-38845827D01*
X85180264Y-38991498D01*
X85180261Y-38991510D01*
X85149500Y-39146153D01*
X70023636Y-39146153D01*
X69988302Y-39110819D01*
X69838980Y-39018717D01*
X69672443Y-38963532D01*
X69672441Y-38963531D01*
X69569656Y-38953031D01*
X67369644Y-38953031D01*
X67369627Y-38953032D01*
X67266849Y-38963531D01*
X67266846Y-38963532D01*
X67100314Y-39018716D01*
X67100309Y-39018718D01*
X66950988Y-39110820D01*
X66826935Y-39234873D01*
X66734833Y-39384194D01*
X66734831Y-39384199D01*
X66717753Y-39435739D01*
X66679647Y-39550734D01*
X66679647Y-39550735D01*
X66679646Y-39550735D01*
X66669146Y-39653514D01*
X64815054Y-39653514D01*
X64746239Y-39563833D01*
X64746233Y-39563826D01*
X64579350Y-39396943D01*
X64579343Y-39396937D01*
X64392100Y-39253261D01*
X64392099Y-39253260D01*
X64392096Y-39253258D01*
X64310603Y-39206208D01*
X64187702Y-39135250D01*
X64187691Y-39135245D01*
X63969639Y-39044925D01*
X63741656Y-38983837D01*
X63507666Y-38953032D01*
X63507663Y-38953031D01*
X63507657Y-38953031D01*
X63271635Y-38953031D01*
X63271629Y-38953031D01*
X63271625Y-38953032D01*
X63037635Y-38983837D01*
X62809652Y-39044925D01*
X62591600Y-39135245D01*
X62591589Y-39135250D01*
X62387191Y-39253261D01*
X62199948Y-39396937D01*
X62199941Y-39396943D01*
X62033058Y-39563826D01*
X62033052Y-39563833D01*
X61889376Y-39751076D01*
X61771365Y-39955474D01*
X61771360Y-39955485D01*
X61681040Y-40173537D01*
X61619952Y-40401520D01*
X61589147Y-40635510D01*
X61589146Y-40635526D01*
X54227641Y-40635526D01*
X54225503Y-38553516D01*
X54225697Y-38546481D01*
X54231135Y-38449660D01*
X55801353Y-38449660D01*
X55801353Y-38662233D01*
X55830430Y-38845821D01*
X55834607Y-38872190D01*
X55890732Y-39044925D01*
X55900297Y-39074361D01*
X55996804Y-39263767D01*
X56121743Y-39435733D01*
X56272066Y-39586056D01*
X56444032Y-39710995D01*
X56444034Y-39710996D01*
X56444037Y-39710998D01*
X56633441Y-39807504D01*
X56835610Y-39873193D01*
X57045566Y-39906447D01*
X57045567Y-39906447D01*
X57258139Y-39906447D01*
X57258140Y-39906447D01*
X57468096Y-39873193D01*
X57670265Y-39807504D01*
X57859669Y-39710998D01*
X57938777Y-39653523D01*
X58031639Y-39586056D01*
X58031641Y-39586053D01*
X58031645Y-39586051D01*
X58181957Y-39435739D01*
X58181959Y-39435735D01*
X58181962Y-39435733D01*
X58306901Y-39263767D01*
X58306900Y-39263767D01*
X58306904Y-39263763D01*
X58403410Y-39074359D01*
X58469099Y-38872190D01*
X58502353Y-38662234D01*
X58502353Y-38449660D01*
X58497185Y-38417032D01*
X94626859Y-38417032D01*
X94626859Y-38629606D01*
X94660113Y-38839562D01*
X94718324Y-39018717D01*
X94725803Y-39041733D01*
X94822310Y-39231139D01*
X94947249Y-39403105D01*
X95097572Y-39553428D01*
X95269538Y-39678367D01*
X95269540Y-39678368D01*
X95269543Y-39678370D01*
X95458947Y-39774876D01*
X95661116Y-39840565D01*
X95871072Y-39873819D01*
X95871073Y-39873819D01*
X96083645Y-39873819D01*
X96083646Y-39873819D01*
X96293602Y-39840565D01*
X96495771Y-39774876D01*
X96685175Y-39678370D01*
X96787301Y-39604172D01*
X96857145Y-39553428D01*
X96857147Y-39553425D01*
X96857151Y-39553423D01*
X97007463Y-39403111D01*
X97007465Y-39403107D01*
X97007468Y-39403105D01*
X97132407Y-39231139D01*
X97132406Y-39231139D01*
X97132410Y-39231135D01*
X97228916Y-39041731D01*
X97294605Y-38839562D01*
X97327859Y-38629606D01*
X97327859Y-38417032D01*
X97294605Y-38207076D01*
X97228916Y-38004907D01*
X97132410Y-37815503D01*
X97132408Y-37815500D01*
X97132407Y-37815498D01*
X97007468Y-37643532D01*
X96857145Y-37493209D01*
X96685179Y-37368270D01*
X96495773Y-37271763D01*
X96495772Y-37271762D01*
X96495771Y-37271762D01*
X96293602Y-37206073D01*
X96293600Y-37206072D01*
X96293599Y-37206072D01*
X96132316Y-37180527D01*
X96083646Y-37172819D01*
X95871072Y-37172819D01*
X95822401Y-37180527D01*
X95661119Y-37206072D01*
X95458944Y-37271763D01*
X95269538Y-37368270D01*
X95097572Y-37493209D01*
X94947249Y-37643532D01*
X94822310Y-37815498D01*
X94725803Y-38004904D01*
X94660112Y-38207079D01*
X94642646Y-38317357D01*
X94626859Y-38417032D01*
X58497185Y-38417032D01*
X58469099Y-38239704D01*
X58403410Y-38037535D01*
X58306904Y-37848131D01*
X58306902Y-37848128D01*
X58306901Y-37848126D01*
X58181962Y-37676160D01*
X58031639Y-37525837D01*
X57859673Y-37400898D01*
X57670267Y-37304391D01*
X57670266Y-37304390D01*
X57670265Y-37304390D01*
X57468096Y-37238701D01*
X57468094Y-37238700D01*
X57468093Y-37238700D01*
X57306810Y-37213155D01*
X57258140Y-37205447D01*
X57045566Y-37205447D01*
X56996895Y-37213155D01*
X56835613Y-37238700D01*
X56633438Y-37304391D01*
X56444032Y-37400898D01*
X56272066Y-37525837D01*
X56121743Y-37676160D01*
X55996804Y-37848126D01*
X55900297Y-38037532D01*
X55834606Y-38239707D01*
X55801353Y-38449660D01*
X54231135Y-38449660D01*
X54243499Y-38229499D01*
X54245053Y-38215705D01*
X54297657Y-37906100D01*
X54300750Y-37892548D01*
X54313547Y-37848131D01*
X54387687Y-37590783D01*
X54392279Y-37577662D01*
X54512457Y-37287527D01*
X54518477Y-37275027D01*
X54670399Y-37000142D01*
X54677776Y-36988403D01*
X54859510Y-36732274D01*
X54868156Y-36721431D01*
X55077435Y-36487247D01*
X55087247Y-36477435D01*
X55321431Y-36268156D01*
X55332274Y-36259510D01*
X55588403Y-36077776D01*
X55600142Y-36070399D01*
X55875027Y-35918477D01*
X55887527Y-35912457D01*
X56177666Y-35792277D01*
X56190783Y-35787687D01*
X56492553Y-35700748D01*
X56506100Y-35697657D01*
X56815703Y-35645053D01*
X56829502Y-35643499D01*
X57146515Y-35625695D01*
X57153217Y-35625500D01*
X57215892Y-35625500D01*
X57216365Y-35625372D01*
X57219270Y-35625366D01*
X85041746Y-35571655D01*
X85108823Y-35591210D01*
X85154680Y-35643926D01*
X85164757Y-35713065D01*
X85163602Y-35719846D01*
X85149537Y-35790556D01*
X85149537Y-35948249D01*
X85180298Y-36102892D01*
X85180301Y-36102904D01*
X85240639Y-36248575D01*
X85240646Y-36248588D01*
X85328247Y-36379691D01*
X85328250Y-36379695D01*
X85439744Y-36491189D01*
X85439748Y-36491192D01*
X85570851Y-36578793D01*
X85570864Y-36578800D01*
X85713290Y-36637794D01*
X85716540Y-36639140D01*
X85871190Y-36669902D01*
X85871193Y-36669903D01*
X85871195Y-36669903D01*
X86028881Y-36669903D01*
X86028882Y-36669902D01*
X86183534Y-36639140D01*
X86329216Y-36578797D01*
X86460326Y-36491192D01*
X86571826Y-36379692D01*
X86659431Y-36248582D01*
X86719774Y-36102900D01*
X86750537Y-35948245D01*
X86750537Y-35790561D01*
X86750537Y-35790558D01*
X86735774Y-35716342D01*
X86742001Y-35646750D01*
X86784864Y-35591573D01*
X86850753Y-35568328D01*
X86857118Y-35568150D01*
X95996453Y-35550507D01*
X96003582Y-35550701D01*
G37*
G04 #@! TD.AperFunction*
M02*
