M48
; DRILL file {KiCad 9.0.5} date 2025-12-11T22:34:33+0530
; FORMAT={-:-/ absolute / metric / decimal}
; #@! TF.CreationDate,2025-12-11T22:34:33+05:30
; #@! TF.GenerationSoftware,Kicad,Pcbnew,9.0.5
; #@! TF.FileFunction,Plated,1,4,PTH
FMAT,2
METRIC
; #@! TA.AperFunction,Plated,PTH,ViaDrill
T1C0.300
; #@! TA.AperFunction,Plated,PTH,ComponentDrill
T2C1.000
; #@! TA.AperFunction,Plated,PTH,ComponentDrill
T3C1.300
%
G90
G05
T1
X61.325Y-68.825
X61.35Y-64.1
X62.1Y-81.675
X63.4Y-66.7
X64.225Y-80.825
X65.35Y-62.35
X65.925Y-65.125
X66.0Y-86.275
X66.19Y-76.195
X67.1Y-66.75
X67.362Y-81.513
X67.5Y-76.375
X68.247Y-60.053
X68.4Y-66.525
X70.1Y-59.275
X70.125Y-80.338
X70.475Y-87.7
X70.675Y-66.725
X72.585Y-81.11
X75.3Y-80.375
X75.666Y-73.45
X76.237Y-76.787
X76.325Y-52.45
X77.198Y-69.996
X77.775Y-85.425
X78.4Y-42.526
X78.625Y-66.65
X78.825Y-76.325
X81.625Y-76.425
X82.125Y-58.325
X82.8Y-60.975
X83.138Y-62.037
X84.025Y-70.5
X84.075Y-48.875
X84.525Y-56.95
X85.15Y-71.6
X85.35Y-61.525
X85.825Y-70.775
X85.95Y-39.225
X85.95Y-35.869
X86.05Y-51.5
X86.4Y-72.6
X90.375Y-66.475
X90.56Y-54.4
X90.776Y-83.901
X91.3Y-68.925
X91.513Y-66.312
X92.737Y-63.438
X93.375Y-43.925
T2
X56.556Y-60.053
X56.556Y-62.593
X56.556Y-65.133
X56.556Y-67.673
X56.556Y-70.213
X56.556Y-72.753
X56.556Y-75.293
X56.556Y-77.833
X96.657Y-60.124
X96.657Y-62.664
X96.657Y-65.204
X96.657Y-67.744
X96.657Y-70.284
X96.657Y-72.824
X96.657Y-75.364
X96.657Y-77.904
T3
X63.39Y-40.754
X68.47Y-40.754
M30
