G04 #@! TF.GenerationSoftware,KiCad,Pcbnew,9.0.5*
G04 #@! TF.CreationDate,2025-12-11T22:36:07+05:30*
G04 #@! TF.ProjectId,GPS_with_STM32,4750535f-7769-4746-985f-53544d33322e,rev?*
G04 #@! TF.SameCoordinates,Original*
G04 #@! TF.FileFunction,Paste,Top*
G04 #@! TF.FilePolarity,Positive*
%FSLAX46Y46*%
G04 Gerber Fmt 4.6, Leading zero omitted, Abs format (unit mm)*
G04 Created by KiCad (PCBNEW 9.0.5) date 2025-12-11 22:36:07*
%MOMM*%
%LPD*%
G01*
G04 APERTURE LIST*
G04 Aperture macros list*
%AMRoundRect*
0 Rectangle with rounded corners*
0 $1 Rounding radius*
0 $2 $3 $4 $5 $6 $7 $8 $9 X,Y pos of 4 corners*
0 Add a 4 corners polygon primitive as box body*
4,1,4,$2,$3,$4,$5,$6,$7,$8,$9,$2,$3,0*
0 Add four circle primitives for the rounded corners*
1,1,$1+$1,$2,$3*
1,1,$1+$1,$4,$5*
1,1,$1+$1,$6,$7*
1,1,$1+$1,$8,$9*
0 Add four rect primitives between the rounded corners*
20,1,$1+$1,$2,$3,$4,$5,0*
20,1,$1+$1,$4,$5,$6,$7,0*
20,1,$1+$1,$6,$7,$8,$9,0*
20,1,$1+$1,$8,$9,$2,$3,0*%
G04 Aperture macros list end*
%ADD10RoundRect,0.140000X0.170000X-0.140000X0.170000X0.140000X-0.170000X0.140000X-0.170000X-0.140000X0*%
%ADD11RoundRect,0.140000X-0.170000X0.140000X-0.170000X-0.140000X0.170000X-0.140000X0.170000X0.140000X0*%
%ADD12RoundRect,0.250000X0.450000X-0.262500X0.450000X0.262500X-0.450000X0.262500X-0.450000X-0.262500X0*%
%ADD13RoundRect,0.079500X-0.100500X0.079500X-0.100500X-0.079500X0.100500X-0.079500X0.100500X0.079500X0*%
%ADD14RoundRect,0.250000X-1.150000X-0.250000X1.150000X-0.250000X1.150000X0.250000X-1.150000X0.250000X0*%
%ADD15RoundRect,0.250000X-0.650000X0.325000X-0.650000X-0.325000X0.650000X-0.325000X0.650000X0.325000X0*%
%ADD16RoundRect,0.250000X0.262500X0.450000X-0.262500X0.450000X-0.262500X-0.450000X0.262500X-0.450000X0*%
%ADD17RoundRect,0.230000X-0.230000X-0.375000X0.230000X-0.375000X0.230000X0.375000X-0.230000X0.375000X0*%
%ADD18RoundRect,0.150000X-0.825000X-0.150000X0.825000X-0.150000X0.825000X0.150000X-0.825000X0.150000X0*%
%ADD19RoundRect,0.250000X-0.950000X0.750000X-0.950000X-0.750000X0.950000X-0.750000X0.950000X0.750000X0*%
%ADD20RoundRect,0.162500X0.162500X-0.447500X0.162500X0.447500X-0.162500X0.447500X-0.162500X-0.447500X0*%
%ADD21RoundRect,0.200000X0.275000X-0.200000X0.275000X0.200000X-0.275000X0.200000X-0.275000X-0.200000X0*%
%ADD22RoundRect,0.147500X-0.172500X0.147500X-0.172500X-0.147500X0.172500X-0.147500X0.172500X0.147500X0*%
%ADD23RoundRect,0.218750X-0.256250X0.218750X-0.256250X-0.218750X0.256250X-0.218750X0.256250X0.218750X0*%
%ADD24R,2.700000X3.600000*%
%ADD25RoundRect,0.135000X-0.185000X0.135000X-0.185000X-0.135000X0.185000X-0.135000X0.185000X0.135000X0*%
%ADD26RoundRect,0.075000X-0.521491X0.415425X0.415425X-0.521491X0.521491X-0.415425X-0.415425X0.521491X0*%
%ADD27RoundRect,0.075000X-0.521491X-0.415425X-0.415425X-0.521491X0.521491X0.415425X0.415425X0.521491X0*%
%ADD28RoundRect,0.250000X-0.450000X0.262500X-0.450000X-0.262500X0.450000X-0.262500X0.450000X0.262500X0*%
%ADD29RoundRect,0.079500X0.100500X-0.079500X0.100500X0.079500X-0.100500X0.079500X-0.100500X-0.079500X0*%
%ADD30RoundRect,0.250000X-0.475000X0.250000X-0.475000X-0.250000X0.475000X-0.250000X0.475000X0.250000X0*%
%ADD31RoundRect,0.218750X0.218750X0.256250X-0.218750X0.256250X-0.218750X-0.256250X0.218750X-0.256250X0*%
%ADD32RoundRect,0.250000X-1.400000X-1.000000X1.400000X-1.000000X1.400000X1.000000X-1.400000X1.000000X0*%
%ADD33RoundRect,0.140000X-0.140000X-0.170000X0.140000X-0.170000X0.140000X0.170000X-0.140000X0.170000X0*%
G04 APERTURE END LIST*
D10*
X78740812Y-57301217D03*
X78740812Y-56341217D03*
X77456244Y-57301217D03*
X77456244Y-56341217D03*
D11*
X66189673Y-75234968D03*
X66189673Y-76194968D03*
D12*
X84221766Y-79911938D03*
X84221766Y-78086938D03*
D13*
X71049107Y-79638757D03*
X71049107Y-80328757D03*
D14*
X62525000Y-84050000D03*
X68325000Y-84050000D03*
X62525000Y-88050000D03*
X68325000Y-88050000D03*
D15*
X73836204Y-51157017D03*
X73836204Y-54107017D03*
D10*
X80047153Y-57279444D03*
X80047153Y-56319444D03*
X76171675Y-57301217D03*
X76171675Y-56341217D03*
D16*
X88308268Y-47830082D03*
X86483268Y-47830082D03*
D17*
X77425032Y-46125104D03*
X77425032Y-47625104D03*
X78565032Y-46125104D03*
X78565032Y-47625104D03*
D18*
X75520032Y-44970104D03*
X75520032Y-46240104D03*
X75520032Y-47510104D03*
X75520032Y-48780104D03*
X80470032Y-48780104D03*
X80470032Y-47510104D03*
X80470032Y-46240104D03*
X80470032Y-44970104D03*
D19*
X64738380Y-69021478D03*
X64738380Y-72721478D03*
D20*
X80557146Y-39336031D03*
X82457146Y-39336031D03*
X81507146Y-36716031D03*
D21*
X73730948Y-80041542D03*
X73730948Y-78391542D03*
D22*
X74148683Y-36934789D03*
X74148683Y-37904789D03*
D23*
X82165633Y-78415935D03*
X82165633Y-79990935D03*
D24*
X61599646Y-52851031D03*
X69899646Y-52851031D03*
D25*
X81330448Y-56307282D03*
X81330448Y-57327282D03*
D12*
X84410042Y-54184503D03*
X84410042Y-52359503D03*
D26*
X77087421Y-61859175D03*
X76733867Y-62212729D03*
X76380314Y-62566282D03*
X76026760Y-62919836D03*
X75673207Y-63273389D03*
X75319654Y-63626942D03*
X74966100Y-63980496D03*
X74612547Y-64334049D03*
X74258994Y-64687602D03*
X73905440Y-65041156D03*
X73551887Y-65394709D03*
X73198333Y-65748263D03*
D27*
X73198333Y-67745839D03*
X73551887Y-68099393D03*
X73905440Y-68452946D03*
X74258994Y-68806500D03*
X74612547Y-69160053D03*
X74966100Y-69513606D03*
X75319654Y-69867160D03*
X75673207Y-70220713D03*
X76026760Y-70574266D03*
X76380314Y-70927820D03*
X76733867Y-71281373D03*
X77087421Y-71634927D03*
D26*
X79084997Y-71634927D03*
X79438551Y-71281373D03*
X79792104Y-70927820D03*
X80145658Y-70574266D03*
X80499211Y-70220713D03*
X80852764Y-69867160D03*
X81206318Y-69513606D03*
X81559871Y-69160053D03*
X81913424Y-68806500D03*
X82266978Y-68452946D03*
X82620531Y-68099393D03*
X82974085Y-67745839D03*
D27*
X82974085Y-65748263D03*
X82620531Y-65394709D03*
X82266978Y-65041156D03*
X81913424Y-64687602D03*
X81559871Y-64334049D03*
X81206318Y-63980496D03*
X80852764Y-63626942D03*
X80499211Y-63273389D03*
X80145658Y-62919836D03*
X79792104Y-62566282D03*
X79438551Y-62212729D03*
X79084997Y-61859175D03*
D28*
X79390546Y-52315907D03*
X79390546Y-54140907D03*
D11*
X76538810Y-78157876D03*
X76538810Y-79117876D03*
D29*
X74996835Y-56991991D03*
X74996835Y-56301991D03*
D11*
X72213242Y-79287006D03*
X72213242Y-80247006D03*
D30*
X74124646Y-40626031D03*
X74124646Y-42526031D03*
D31*
X92069553Y-47830082D03*
X90494553Y-47830082D03*
D12*
X82019994Y-54172604D03*
X82019994Y-52347604D03*
D14*
X84975601Y-83901187D03*
X90775601Y-83901187D03*
X84975601Y-87901187D03*
X90775601Y-87901187D03*
D12*
X80100543Y-79923679D03*
X80100543Y-78098679D03*
D11*
X75277766Y-78159795D03*
X75277766Y-79119795D03*
D13*
X72521258Y-45903959D03*
X72521258Y-46593959D03*
D32*
X89774646Y-37026031D03*
X89774646Y-43826031D03*
D33*
X64732112Y-66681125D03*
X65692112Y-66681125D03*
D23*
X78095243Y-78433294D03*
X78095243Y-80008294D03*
M02*
