G04 #@! TF.GenerationSoftware,KiCad,Pcbnew,9.0.5*
G04 #@! TF.CreationDate,2025-12-11T22:36:07+05:30*
G04 #@! TF.ProjectId,GPS_with_STM32,4750535f-7769-4746-985f-53544d33322e,rev?*
G04 #@! TF.SameCoordinates,Original*
G04 #@! TF.FileFunction,Copper,L4,Bot*
G04 #@! TF.FilePolarity,Positive*
%FSLAX46Y46*%
G04 Gerber Fmt 4.6, Leading zero omitted, Abs format (unit mm)*
G04 Created by KiCad (PCBNEW 9.0.5) date 2025-12-11 22:36:07*
%MOMM*%
%LPD*%
G01*
G04 APERTURE LIST*
G04 Aperture macros list*
%AMRoundRect*
0 Rectangle with rounded corners*
0 $1 Rounding radius*
0 $2 $3 $4 $5 $6 $7 $8 $9 X,Y pos of 4 corners*
0 Add a 4 corners polygon primitive as box body*
4,1,4,$2,$3,$4,$5,$6,$7,$8,$9,$2,$3,0*
0 Add four circle primitives for the rounded corners*
1,1,$1+$1,$2,$3*
1,1,$1+$1,$4,$5*
1,1,$1+$1,$6,$7*
1,1,$1+$1,$8,$9*
0 Add four rect primitives between the rounded corners*
20,1,$1+$1,$2,$3,$4,$5,0*
20,1,$1+$1,$4,$5,$6,$7,0*
20,1,$1+$1,$6,$7,$8,$9,0*
20,1,$1+$1,$8,$9,$2,$3,0*%
G04 Aperture macros list end*
G04 #@! TA.AperFunction,ComponentPad*
%ADD10R,1.700000X1.700000*%
G04 #@! TD*
G04 #@! TA.AperFunction,ComponentPad*
%ADD11C,1.700000*%
G04 #@! TD*
G04 #@! TA.AperFunction,ComponentPad*
%ADD12RoundRect,0.250000X1.050000X1.050000X-1.050000X1.050000X-1.050000X-1.050000X1.050000X-1.050000X0*%
G04 #@! TD*
G04 #@! TA.AperFunction,ComponentPad*
%ADD13C,2.600000*%
G04 #@! TD*
G04 #@! TA.AperFunction,SMDPad,CuDef*
%ADD14RoundRect,0.135000X-0.185000X0.135000X-0.185000X-0.135000X0.185000X-0.135000X0.185000X0.135000X0*%
G04 #@! TD*
G04 #@! TA.AperFunction,SMDPad,CuDef*
%ADD15R,1.050000X2.200000*%
G04 #@! TD*
G04 #@! TA.AperFunction,SMDPad,CuDef*
%ADD16R,1.050000X1.000000*%
G04 #@! TD*
G04 #@! TA.AperFunction,SMDPad,CuDef*
%ADD17RoundRect,0.250000X1.045000X-0.785000X1.045000X0.785000X-1.045000X0.785000X-1.045000X-0.785000X0*%
G04 #@! TD*
G04 #@! TA.AperFunction,SMDPad,CuDef*
%ADD18RoundRect,0.140000X0.140000X0.170000X-0.140000X0.170000X-0.140000X-0.170000X0.140000X-0.170000X0*%
G04 #@! TD*
G04 #@! TA.AperFunction,SMDPad,CuDef*
%ADD19R,2.200000X1.050000*%
G04 #@! TD*
G04 #@! TA.AperFunction,SMDPad,CuDef*
%ADD20R,1.000000X1.050000*%
G04 #@! TD*
G04 #@! TA.AperFunction,SMDPad,CuDef*
%ADD21RoundRect,0.140000X-0.170000X0.140000X-0.170000X-0.140000X0.170000X-0.140000X0.170000X0.140000X0*%
G04 #@! TD*
G04 #@! TA.AperFunction,SMDPad,CuDef*
%ADD22RoundRect,0.100000X0.130000X0.100000X-0.130000X0.100000X-0.130000X-0.100000X0.130000X-0.100000X0*%
G04 #@! TD*
G04 #@! TA.AperFunction,SMDPad,CuDef*
%ADD23O,1.600000X0.600000*%
G04 #@! TD*
G04 #@! TA.AperFunction,SMDPad,CuDef*
%ADD24O,0.600000X1.600000*%
G04 #@! TD*
G04 #@! TA.AperFunction,SMDPad,CuDef*
%ADD25R,1.500000X1.000000*%
G04 #@! TD*
G04 #@! TA.AperFunction,SMDPad,CuDef*
%ADD26R,1.600000X1.500000*%
G04 #@! TD*
G04 #@! TA.AperFunction,SMDPad,CuDef*
%ADD27RoundRect,0.243750X0.243750X0.456250X-0.243750X0.456250X-0.243750X-0.456250X0.243750X-0.456250X0*%
G04 #@! TD*
G04 #@! TA.AperFunction,SMDPad,CuDef*
%ADD28RoundRect,0.135000X0.135000X0.185000X-0.135000X0.185000X-0.135000X-0.185000X0.135000X-0.185000X0*%
G04 #@! TD*
G04 #@! TA.AperFunction,SMDPad,CuDef*
%ADD29RoundRect,0.097500X0.432500X0.097500X-0.432500X0.097500X-0.432500X-0.097500X0.432500X-0.097500X0*%
G04 #@! TD*
G04 #@! TA.AperFunction,ViaPad*
%ADD30C,0.600000*%
G04 #@! TD*
G04 #@! TA.AperFunction,Conductor*
%ADD31C,0.200000*%
G04 #@! TD*
G04 #@! TA.AperFunction,Conductor*
%ADD32C,0.500000*%
G04 #@! TD*
G04 APERTURE END LIST*
D10*
X96656505Y-77903590D03*
D11*
X96656505Y-75363590D03*
X96656505Y-72823590D03*
X96656505Y-70283590D03*
X96656505Y-67743590D03*
X96656505Y-65203590D03*
X96656505Y-62663590D03*
X96656505Y-60123590D03*
D12*
X68469646Y-40753531D03*
D13*
X63389646Y-40753531D03*
D10*
X56556455Y-77833363D03*
D11*
X56556455Y-75293363D03*
X56556455Y-72753363D03*
X56556455Y-70213363D03*
X56556455Y-67673363D03*
X56556455Y-65133363D03*
X56556455Y-62593363D03*
X56556455Y-60053363D03*
D14*
X70973208Y-70691753D03*
X70973208Y-71711753D03*
D15*
X91400000Y-38250000D03*
X88450000Y-38250000D03*
D16*
X89925000Y-39775000D03*
D14*
X69789902Y-70689999D03*
X69789902Y-71709999D03*
X68570629Y-70689999D03*
X68570629Y-71709999D03*
D17*
X95950000Y-50670000D03*
X95950000Y-44430000D03*
D18*
X92017080Y-51808560D03*
X91057080Y-51808560D03*
D19*
X60291219Y-71492155D03*
X60291219Y-74442155D03*
D20*
X61816219Y-72967155D03*
D18*
X92019267Y-53201232D03*
X91059267Y-53201232D03*
D21*
X65644534Y-78113119D03*
X65644534Y-79073119D03*
D22*
X89795000Y-65375000D03*
X89155000Y-65375000D03*
D23*
X87174646Y-48526031D03*
X87174646Y-49526031D03*
X87174646Y-50526031D03*
X87174646Y-51526031D03*
X87174646Y-52526031D03*
X87174646Y-53526031D03*
X87174646Y-54526031D03*
X87174646Y-55526031D03*
X87174646Y-56526031D03*
X87174646Y-57526031D03*
X87174646Y-58526031D03*
X87174646Y-59526031D03*
X87174646Y-60526031D03*
X87174646Y-61526031D03*
X87174646Y-62526031D03*
X87174646Y-63526031D03*
X87174646Y-64526031D03*
D24*
X83174646Y-68526031D03*
X82174646Y-68526031D03*
X81174646Y-68526031D03*
X80174646Y-68526031D03*
X79174646Y-68526031D03*
X78174646Y-68526031D03*
X77174646Y-68526031D03*
X76174646Y-68526031D03*
X75174646Y-68526031D03*
X74174646Y-68526031D03*
X73174646Y-68526031D03*
X72174646Y-68526031D03*
X71174646Y-68526031D03*
X70174646Y-68526031D03*
X69174646Y-68526031D03*
X68174646Y-68526031D03*
X67174646Y-68526031D03*
D23*
X63174646Y-64526031D03*
X63174646Y-63526031D03*
X63174646Y-62526031D03*
X63174646Y-61526031D03*
X63174646Y-60526031D03*
X63174646Y-59526031D03*
X63174646Y-58526031D03*
X63174646Y-57526031D03*
X63174646Y-56526031D03*
X63174646Y-55526031D03*
X63174646Y-54526031D03*
X63174646Y-53526031D03*
X63174646Y-52526031D03*
X63174646Y-51526031D03*
X63174646Y-50526031D03*
X63174646Y-49526031D03*
X63174646Y-48526031D03*
D24*
X67174646Y-44526031D03*
X68174646Y-44526031D03*
X69174646Y-44526031D03*
X70174646Y-44526031D03*
X71174646Y-44526031D03*
X72174646Y-44526031D03*
X73174646Y-44526031D03*
X74174646Y-44526031D03*
X75174646Y-44526031D03*
X76174646Y-44526031D03*
X77174646Y-44526031D03*
X78174646Y-44526031D03*
X79174646Y-44526031D03*
X80174646Y-44526031D03*
X81174646Y-44526031D03*
X82174646Y-44526031D03*
X83174646Y-44526031D03*
D25*
X84015927Y-85418247D03*
X84015927Y-82878247D03*
X84015927Y-80338247D03*
X71415927Y-85418247D03*
X71415927Y-82878247D03*
X71415927Y-80338247D03*
D26*
X76965927Y-74068247D03*
X79665927Y-74068247D03*
X76965927Y-88968247D03*
X79665927Y-88968247D03*
D21*
X73229426Y-70713642D03*
X73229426Y-71673642D03*
D27*
X91547822Y-54883875D03*
X89672822Y-54883875D03*
D28*
X87169299Y-69842856D03*
X86149299Y-69842856D03*
D29*
X69021985Y-79062201D03*
X69021985Y-79712201D03*
X69021985Y-80362201D03*
X67151985Y-80362201D03*
X67151985Y-79712201D03*
X67151985Y-79062201D03*
D30*
X76237500Y-76787500D03*
X78400000Y-42526031D03*
X84075000Y-48875000D03*
X72585486Y-81110225D03*
X81625000Y-76425000D03*
X93375000Y-43925000D03*
X65350000Y-62350000D03*
X66189673Y-76194968D03*
X67100000Y-66750000D03*
X77198378Y-69995796D03*
X90375000Y-66475000D03*
X78625000Y-66650000D03*
X90560335Y-54399891D03*
X78825000Y-76325000D03*
X77775000Y-85425000D03*
X68246637Y-60053363D03*
X76325000Y-52450000D03*
X86050000Y-51500000D03*
X66000000Y-86275000D03*
X68400000Y-66525000D03*
X75665925Y-73450000D03*
X90775601Y-83901187D03*
X65925000Y-65125000D03*
X63400000Y-66700000D03*
X67500000Y-76375000D03*
X70675000Y-66725000D03*
X70125000Y-80338247D03*
X64225000Y-80825000D03*
X62100000Y-81675000D03*
X67362500Y-81512500D03*
X86400000Y-72600000D03*
X85825000Y-70775000D03*
X70475000Y-87700000D03*
X75300000Y-80375000D03*
X61325000Y-68825000D03*
X61350000Y-64100000D03*
X92737500Y-63437500D03*
X91512500Y-66312500D03*
X85150000Y-71600000D03*
X85350000Y-61525000D03*
X84025000Y-70500000D03*
X83137500Y-62037500D03*
X91300000Y-68925000D03*
X84525000Y-56950000D03*
X85950000Y-39225000D03*
X85950037Y-35869403D03*
X82125000Y-58325000D03*
X82800000Y-60975000D03*
X70100000Y-59275000D03*
D31*
X65644534Y-78113119D02*
X65644534Y-76740107D01*
X77768247Y-85418247D02*
X77775000Y-85425000D01*
X78525000Y-66750000D02*
X78625000Y-66650000D01*
X89795000Y-65895000D02*
X90375000Y-66475000D01*
X61625000Y-61450000D02*
X61625000Y-59900000D01*
X60500000Y-61450000D02*
X61625000Y-61450000D01*
X90560335Y-54399891D02*
X90076351Y-54883875D01*
X93375000Y-43925000D02*
X93375000Y-43525000D01*
X91057080Y-53199045D02*
X91057080Y-51808560D01*
X90500000Y-50525000D02*
X90498969Y-50526031D01*
X61998969Y-59526031D02*
X63174646Y-59526031D01*
X78625000Y-66650000D02*
X82500000Y-66650000D01*
X90560335Y-53695790D02*
X91057080Y-53199045D01*
X61901031Y-63526031D02*
X61625000Y-63250000D01*
X79174646Y-44526031D02*
X79174646Y-45549646D01*
X60291219Y-71492155D02*
X60291219Y-74442155D01*
X87174646Y-48526031D02*
X87174646Y-50526031D01*
X67174646Y-44526031D02*
X67174646Y-45899646D01*
X67174646Y-45899646D02*
X67750000Y-46475000D01*
X64598969Y-44526031D02*
X67174646Y-44526031D01*
X90076351Y-54883875D02*
X89672822Y-54883875D01*
X78825000Y-76325000D02*
X78375000Y-75875000D01*
X64173969Y-63526031D02*
X65350000Y-62350000D01*
X87174646Y-48526031D02*
X89898969Y-48526031D01*
X90498969Y-50526031D02*
X87174646Y-50526031D01*
X79900000Y-46275000D02*
X82375000Y-46275000D01*
X91057080Y-51082080D02*
X90500000Y-50525000D01*
D32*
X84075000Y-48875000D02*
X84075000Y-47600000D01*
X83174646Y-46699646D02*
X83174646Y-44526031D01*
D31*
X91400000Y-38250000D02*
X88450000Y-38250000D01*
X67100000Y-66750000D02*
X67100000Y-68451385D01*
X90560335Y-54399891D02*
X90560335Y-53695790D01*
X79174646Y-44526031D02*
X80174646Y-44526031D01*
X78375000Y-75875000D02*
X78375000Y-71172418D01*
X83174646Y-45475354D02*
X83174646Y-44526031D01*
X73825000Y-66750000D02*
X78525000Y-66750000D01*
X63174646Y-45950354D02*
X64598969Y-44526031D01*
X95950000Y-44430000D02*
X93880000Y-44430000D01*
X82500000Y-66650000D02*
X83174646Y-67324646D01*
X65644534Y-76740107D02*
X66189673Y-76194968D01*
X63174646Y-48526031D02*
X63174646Y-45950354D01*
X67750000Y-46475000D02*
X68600000Y-46475000D01*
X61625000Y-59900000D02*
X61998969Y-59526031D01*
X71415927Y-85418247D02*
X77768247Y-85418247D01*
X63174646Y-63526031D02*
X61901031Y-63526031D01*
X79174646Y-45549646D02*
X79900000Y-46275000D01*
X78925000Y-76425000D02*
X78825000Y-76325000D01*
X59225000Y-70425936D02*
X59225000Y-62725000D01*
X91057080Y-51808560D02*
X91057080Y-51082080D01*
X79174646Y-44526031D02*
X79174646Y-43300677D01*
X67100000Y-68451385D02*
X67174646Y-68526031D01*
X73174646Y-68526031D02*
X73174646Y-67400354D01*
X81625000Y-76425000D02*
X78925000Y-76425000D01*
X59225000Y-62725000D02*
X60500000Y-61450000D01*
D32*
X84075000Y-47600000D02*
X83174646Y-46699646D01*
D31*
X87174646Y-48526031D02*
X84423969Y-48526031D01*
X78375000Y-71172418D02*
X77198378Y-69995796D01*
X91400000Y-41550000D02*
X91400000Y-38250000D01*
X82375000Y-46275000D02*
X83174646Y-45475354D01*
X60291219Y-71492155D02*
X59225000Y-70425936D01*
X69174646Y-45900354D02*
X69174646Y-44526031D01*
X89898969Y-48526031D02*
X93375000Y-45050000D01*
X93375000Y-45050000D02*
X93375000Y-43925000D01*
X84423969Y-48526031D02*
X84075000Y-48875000D01*
X73174646Y-67400354D02*
X73825000Y-66750000D01*
X83174646Y-67324646D02*
X83174646Y-68526031D01*
X63174646Y-63526031D02*
X64173969Y-63526031D01*
X68600000Y-46475000D02*
X69174646Y-45900354D01*
X61625000Y-63250000D02*
X61625000Y-61450000D01*
X89795000Y-65375000D02*
X89795000Y-65895000D01*
X79174646Y-43300677D02*
X78400000Y-42526031D01*
X93880000Y-44430000D02*
X93375000Y-43925000D01*
X93375000Y-43525000D02*
X91400000Y-41550000D01*
X62225000Y-64500000D02*
X63148615Y-64500000D01*
X61950000Y-64775000D02*
X62225000Y-64500000D01*
X61950000Y-72833374D02*
X61950000Y-64775000D01*
X63148615Y-64500000D02*
X63174646Y-64526031D01*
X61816219Y-72967155D02*
X61950000Y-72833374D01*
X81174646Y-42875354D02*
X81174646Y-44526031D01*
X82175000Y-41875000D02*
X81174646Y-42875354D01*
X89925000Y-41075000D02*
X89125000Y-41875000D01*
X89125000Y-41875000D02*
X82175000Y-41875000D01*
X89925000Y-39775000D02*
X89925000Y-41075000D01*
X92019267Y-53201232D02*
X92019267Y-51810747D01*
X87174646Y-51526031D02*
X86076031Y-51526031D01*
X91547822Y-54883875D02*
X94966125Y-54883875D01*
X88401031Y-53526031D02*
X88825000Y-53950000D01*
X92019267Y-51810747D02*
X92017080Y-51808560D01*
X91225000Y-55975000D02*
X91547822Y-55652178D01*
X86076031Y-51526031D02*
X86050000Y-51500000D01*
X88825000Y-55513199D02*
X89286801Y-55975000D01*
X87174646Y-53526031D02*
X88401031Y-53526031D01*
X68400000Y-60206726D02*
X68246637Y-60053363D01*
X92019267Y-53201232D02*
X92019267Y-54412430D01*
D32*
X76325000Y-52450000D02*
X77150000Y-53275000D01*
D31*
X68400000Y-66525000D02*
X68400000Y-60206726D01*
X92019267Y-54412430D02*
X91547822Y-54883875D01*
D32*
X83250000Y-51500000D02*
X86050000Y-51500000D01*
D31*
X95950000Y-53900000D02*
X95950000Y-50670000D01*
X91547822Y-55652178D02*
X91547822Y-54883875D01*
X89286801Y-55975000D02*
X91225000Y-55975000D01*
X87174646Y-51526031D02*
X87174646Y-53526031D01*
D32*
X81475000Y-53275000D02*
X83250000Y-51500000D01*
D31*
X94966125Y-54883875D02*
X95950000Y-53900000D01*
D32*
X77150000Y-53275000D02*
X81475000Y-53275000D01*
D31*
X88825000Y-53950000D02*
X88825000Y-55513199D01*
X68575719Y-79712201D02*
X68190985Y-79327467D01*
X68190985Y-79327467D02*
X68190985Y-78184015D01*
X69021985Y-79712201D02*
X68575719Y-79712201D01*
X68190985Y-78184015D02*
X69350000Y-77025000D01*
X72375000Y-77025000D02*
X73229426Y-76170574D01*
X69350000Y-77025000D02*
X72375000Y-77025000D01*
X73229426Y-76170574D02*
X73229426Y-71673642D01*
X90758541Y-83918247D02*
X91000000Y-83676788D01*
X92776410Y-72823590D02*
X96656505Y-72823590D01*
X91000000Y-83676788D02*
X91000000Y-74600000D01*
X91000000Y-74600000D02*
X92776410Y-72823590D01*
X90775601Y-83901187D02*
X90758541Y-83918247D01*
X63650000Y-66700000D02*
X63400000Y-66700000D01*
X64450000Y-65900000D02*
X63650000Y-66700000D01*
X64825000Y-65900000D02*
X64450000Y-65900000D01*
X65600000Y-65125000D02*
X64825000Y-65900000D01*
X65925000Y-65125000D02*
X65600000Y-65125000D01*
X88926031Y-64526031D02*
X89155000Y-64755000D01*
X87174646Y-64526031D02*
X88926031Y-64526031D01*
X89155000Y-64755000D02*
X89155000Y-65375000D01*
X67500000Y-76375000D02*
X67151985Y-76723015D01*
X65250000Y-84525000D02*
X65250000Y-79467653D01*
X65250000Y-79467653D02*
X65644534Y-79073119D01*
X83425000Y-86850000D02*
X67575000Y-86850000D01*
X84015927Y-86259073D02*
X83425000Y-86850000D01*
X67575000Y-86850000D02*
X65250000Y-84525000D01*
X71625000Y-66725000D02*
X72174646Y-67274646D01*
X72174646Y-67274646D02*
X72174646Y-68526031D01*
X67141067Y-79073119D02*
X67151985Y-79062201D01*
X67151985Y-76723015D02*
X67151985Y-79062201D01*
X70675000Y-66725000D02*
X71625000Y-66725000D01*
X65644534Y-79073119D02*
X67141067Y-79073119D01*
X84015927Y-85418247D02*
X84015927Y-86259073D01*
X70973208Y-69926792D02*
X70973208Y-70691753D01*
X71174646Y-68526031D02*
X71174646Y-69725354D01*
X70973208Y-70691753D02*
X73207537Y-70691753D01*
X71174646Y-69725354D02*
X70973208Y-69926792D01*
X73207537Y-70691753D02*
X73229426Y-70713642D01*
X71415927Y-80338247D02*
X70125000Y-80338247D01*
X69045939Y-80338247D02*
X69021985Y-80362201D01*
X64225000Y-76400000D02*
X64225000Y-80825000D01*
X65250000Y-75375000D02*
X64225000Y-76400000D01*
X70125000Y-80338247D02*
X69045939Y-80338247D01*
X70775000Y-75375000D02*
X65250000Y-75375000D01*
X71411753Y-71711753D02*
X72000000Y-72300000D01*
X70973208Y-71711753D02*
X71411753Y-71711753D01*
X72000000Y-72300000D02*
X72000000Y-74150000D01*
X72000000Y-74150000D02*
X70775000Y-75375000D01*
X84015927Y-82878247D02*
X81146753Y-82878247D01*
X67575000Y-81725000D02*
X67362500Y-81512500D01*
X61625000Y-78825000D02*
X61625000Y-81200000D01*
X79993506Y-81725000D02*
X67575000Y-81725000D01*
X67362500Y-81512500D02*
X67151985Y-81301985D01*
X81146753Y-82878247D02*
X79993506Y-81725000D01*
X62150000Y-75575000D02*
X62150000Y-78300000D01*
X68570629Y-71709999D02*
X66015001Y-71709999D01*
X66015001Y-71709999D02*
X62150000Y-75575000D01*
X67151985Y-81301985D02*
X67151985Y-80362201D01*
X61625000Y-81200000D02*
X62100000Y-81675000D01*
X62150000Y-78300000D02*
X61625000Y-78825000D01*
X82825000Y-65525000D02*
X84550000Y-67250000D01*
X86300000Y-69993557D02*
X86149299Y-69842856D01*
X84550000Y-67250000D02*
X84550000Y-69125057D01*
X86400000Y-73625000D02*
X86400000Y-72600000D01*
X71415927Y-82878247D02*
X71412680Y-82875000D01*
X67275000Y-82875000D02*
X66150000Y-81750000D01*
X66150000Y-80000000D02*
X66437799Y-79712201D01*
X82625000Y-71050057D02*
X82625000Y-71675000D01*
X86300000Y-70125000D02*
X86300000Y-69993557D01*
X66150000Y-81750000D02*
X66150000Y-80000000D01*
X84550000Y-69125057D02*
X82625000Y-71050057D01*
X82975000Y-72025000D02*
X83625000Y-72025000D01*
X72762680Y-84225000D02*
X83875000Y-84225000D01*
X83625000Y-72025000D02*
X85807144Y-69842856D01*
X71412680Y-82875000D02*
X67275000Y-82875000D01*
X68174646Y-68526031D02*
X68174646Y-68000354D01*
X82625000Y-71675000D02*
X82975000Y-72025000D01*
X85825000Y-70600000D02*
X86300000Y-70125000D01*
X71415927Y-82878247D02*
X72762680Y-84225000D01*
X85807144Y-69842856D02*
X86149299Y-69842856D01*
X66437799Y-79712201D02*
X67151985Y-79712201D01*
X70350000Y-65525000D02*
X82825000Y-65525000D01*
X85825000Y-70775000D02*
X85825000Y-70600000D01*
X69625000Y-66250000D02*
X70350000Y-65525000D01*
X86400000Y-83300000D02*
X86400000Y-73625000D01*
X83875000Y-84225000D02*
X85475000Y-84225000D01*
X69625000Y-66550000D02*
X69625000Y-66250000D01*
X85475000Y-84225000D02*
X86400000Y-83300000D01*
X68174646Y-68000354D02*
X69625000Y-66550000D01*
X75225000Y-79062201D02*
X69021985Y-79062201D01*
X75300000Y-80375000D02*
X75300000Y-79137201D01*
X70475000Y-87700000D02*
X66350000Y-87700000D01*
X63200000Y-84550000D02*
X63200000Y-76125000D01*
X64850000Y-74475000D02*
X69825000Y-74475000D01*
X69789902Y-71714902D02*
X69789902Y-71709999D01*
X69825000Y-74475000D02*
X70625000Y-73675000D01*
X81062201Y-79062201D02*
X75225000Y-79062201D01*
X70625000Y-73675000D02*
X70625000Y-72550000D01*
X63200000Y-76125000D02*
X64850000Y-74475000D01*
X82338247Y-80338247D02*
X81062201Y-79062201D01*
X84015927Y-80338247D02*
X82338247Y-80338247D01*
X75300000Y-79137201D02*
X75225000Y-79062201D01*
X70625000Y-72550000D02*
X69789902Y-71714902D01*
X66350000Y-87700000D02*
X63200000Y-84550000D01*
X61325000Y-68825000D02*
X60750000Y-68250000D01*
X60750000Y-64700000D02*
X61350000Y-64100000D01*
X60750000Y-68250000D02*
X60750000Y-64700000D01*
X69789902Y-70010098D02*
X69789902Y-70689999D01*
X70174646Y-69625354D02*
X69789902Y-70010098D01*
X70174646Y-68526031D02*
X70174646Y-69625354D01*
X92737500Y-63437500D02*
X91826031Y-62526031D01*
X91826031Y-62526031D02*
X87174646Y-62526031D01*
X94503590Y-65203590D02*
X96656505Y-65203590D01*
X91400000Y-66425000D02*
X91400000Y-67150000D01*
X91400000Y-67150000D02*
X86950000Y-71600000D01*
X92737500Y-63437500D02*
X94503590Y-65203590D01*
X91512500Y-66312500D02*
X91400000Y-66425000D01*
X86950000Y-71600000D02*
X85150000Y-71600000D01*
X83725000Y-65150000D02*
X85475000Y-66900000D01*
X83725000Y-63350000D02*
X83725000Y-65150000D01*
X85475000Y-69050000D02*
X84025000Y-70500000D01*
X83137500Y-62762500D02*
X83725000Y-63350000D01*
X87173615Y-61525000D02*
X87174646Y-61526031D01*
X85350000Y-61525000D02*
X87173615Y-61525000D01*
X83137500Y-62037500D02*
X83137500Y-62762500D01*
X87174646Y-61526031D02*
X92226031Y-61526031D01*
X92226031Y-61526031D02*
X93425000Y-62725000D01*
X85475000Y-66900000D02*
X85475000Y-69050000D01*
X93425000Y-62725000D02*
X96595095Y-62725000D01*
X96595095Y-62725000D02*
X96656505Y-62663590D01*
X90401031Y-63526031D02*
X94618590Y-67743590D01*
X94618590Y-67743590D02*
X96656505Y-67743590D01*
X96031410Y-67743590D02*
X96656505Y-67743590D01*
X94850000Y-68925000D02*
X96031410Y-67743590D01*
X91300000Y-68925000D02*
X94850000Y-68925000D01*
X87174646Y-63526031D02*
X90401031Y-63526031D01*
X92373590Y-60123590D02*
X96656505Y-60123590D01*
X85073969Y-55526031D02*
X87174646Y-55526031D01*
X87174646Y-55526031D02*
X87776031Y-55526031D01*
X84525000Y-56950000D02*
X84525000Y-56075000D01*
X87776031Y-55526031D02*
X92373590Y-60123590D01*
X84525000Y-56075000D02*
X85073969Y-55526031D01*
D32*
X85950000Y-39225000D02*
X85950000Y-35869440D01*
X85950000Y-35869440D02*
X85950037Y-35869403D01*
D31*
X82125000Y-58325000D02*
X82800000Y-59000000D01*
X82800000Y-59000000D02*
X82800000Y-60975000D01*
X87174646Y-54526031D02*
X84998969Y-54526031D01*
X84350000Y-60500000D02*
X84350000Y-64450000D01*
X84998969Y-54526031D02*
X83500000Y-56025000D01*
X83500000Y-56025000D02*
X83500000Y-59650000D01*
X84350000Y-64450000D02*
X87169299Y-67269299D01*
X87169299Y-67269299D02*
X87169299Y-69842856D01*
X83500000Y-59650000D02*
X84350000Y-60500000D01*
X69174646Y-69650354D02*
X68570629Y-70254371D01*
X68570629Y-70254371D02*
X68570629Y-70689999D01*
X69174646Y-68526031D02*
X69174646Y-69650354D01*
X67898969Y-50526031D02*
X63174646Y-50526031D01*
X70100000Y-59275000D02*
X69400000Y-58575000D01*
X67900000Y-50525000D02*
X67898969Y-50526031D01*
X67950000Y-50525000D02*
X67900000Y-50525000D01*
X69400000Y-51975000D02*
X67950000Y-50525000D01*
X69400000Y-58575000D02*
X69400000Y-51975000D01*
G04 #@! TA.AperFunction,Conductor*
G36*
X66055703Y-82505384D02*
G01*
X66062181Y-82511416D01*
X66790139Y-83239374D01*
X66790149Y-83239385D01*
X66794479Y-83243715D01*
X66794480Y-83243716D01*
X66906284Y-83355520D01*
X66976244Y-83395911D01*
X67043215Y-83434577D01*
X67195942Y-83475500D01*
X67195943Y-83475500D01*
X70081925Y-83475500D01*
X70148964Y-83495185D01*
X70194719Y-83547989D01*
X70198107Y-83556167D01*
X70222129Y-83620575D01*
X70222133Y-83620582D01*
X70308379Y-83735791D01*
X70308382Y-83735794D01*
X70423591Y-83822040D01*
X70423598Y-83822044D01*
X70558444Y-83872338D01*
X70558443Y-83872338D01*
X70565371Y-83873082D01*
X70618054Y-83878747D01*
X71515829Y-83878746D01*
X71582868Y-83898430D01*
X71603510Y-83915065D01*
X71895011Y-84206566D01*
X71928496Y-84267889D01*
X71923512Y-84337581D01*
X71881640Y-84393514D01*
X71816176Y-84417931D01*
X71807330Y-84418247D01*
X71665927Y-84418247D01*
X71665927Y-85168247D01*
X72665927Y-85168247D01*
X72665927Y-84949500D01*
X72685612Y-84882461D01*
X72738416Y-84836706D01*
X72789927Y-84825500D01*
X82641427Y-84825500D01*
X82708466Y-84845185D01*
X82754221Y-84897989D01*
X82765427Y-84949500D01*
X82765427Y-85966117D01*
X82765428Y-85966123D01*
X82771836Y-86025731D01*
X82792885Y-86082168D01*
X82797869Y-86151859D01*
X82764383Y-86213182D01*
X82703060Y-86246666D01*
X82676703Y-86249500D01*
X72754618Y-86249500D01*
X72687579Y-86229815D01*
X72641824Y-86177011D01*
X72631880Y-86107853D01*
X72638436Y-86082167D01*
X72659523Y-86025627D01*
X72659525Y-86025619D01*
X72665926Y-85966091D01*
X72665927Y-85966074D01*
X72665927Y-85668247D01*
X70165927Y-85668247D01*
X70165927Y-85966091D01*
X70172328Y-86025619D01*
X70172330Y-86025627D01*
X70193418Y-86082167D01*
X70198402Y-86151859D01*
X70164916Y-86213182D01*
X70103593Y-86246666D01*
X70077236Y-86249500D01*
X67875098Y-86249500D01*
X67808059Y-86229815D01*
X67787417Y-86213181D01*
X66444638Y-84870402D01*
X70165927Y-84870402D01*
X70165927Y-85168247D01*
X71165927Y-85168247D01*
X71165927Y-84418247D01*
X70618082Y-84418247D01*
X70558554Y-84424648D01*
X70558547Y-84424650D01*
X70423840Y-84474892D01*
X70423833Y-84474896D01*
X70308739Y-84561056D01*
X70308736Y-84561059D01*
X70222576Y-84676153D01*
X70222572Y-84676160D01*
X70172330Y-84810867D01*
X70172328Y-84810874D01*
X70165927Y-84870402D01*
X66444638Y-84870402D01*
X65886819Y-84312583D01*
X65853334Y-84251260D01*
X65850500Y-84224902D01*
X65850500Y-82599097D01*
X65870185Y-82532058D01*
X65922989Y-82486303D01*
X65992147Y-82476359D01*
X66055703Y-82505384D01*
G37*
G04 #@! TD.AperFunction*
G04 #@! TA.AperFunction,Conductor*
G36*
X82740260Y-69698031D02*
G01*
X82743986Y-69700425D01*
X82791676Y-69732290D01*
X82835270Y-69751399D01*
X82861085Y-69773086D01*
X82887346Y-69794248D01*
X82887761Y-69795495D01*
X82888768Y-69796341D01*
X82898760Y-69828543D01*
X82909411Y-69860542D01*
X82909085Y-69861816D01*
X82909475Y-69863071D01*
X82900473Y-69895559D01*
X82892132Y-69928241D01*
X82891022Y-69929669D01*
X82890819Y-69930404D01*
X82889617Y-69931477D01*
X82873171Y-69952649D01*
X82256286Y-70569535D01*
X82144481Y-70681339D01*
X82144480Y-70681341D01*
X82114368Y-70733497D01*
X82075767Y-70800355D01*
X82074817Y-70802002D01*
X82065423Y-70818272D01*
X82024499Y-70971000D01*
X82024499Y-70971002D01*
X82024499Y-71139103D01*
X82024500Y-71139116D01*
X82024500Y-71588330D01*
X82024499Y-71588348D01*
X82024499Y-71754054D01*
X82024498Y-71754054D01*
X82065423Y-71906787D01*
X82065424Y-71906788D01*
X82085556Y-71941657D01*
X82144475Y-72043709D01*
X82144479Y-72043714D01*
X82144480Y-72043716D01*
X82256284Y-72155520D01*
X82256285Y-72155521D01*
X82606284Y-72505520D01*
X82606286Y-72505521D01*
X82606290Y-72505524D01*
X82743209Y-72584573D01*
X82743216Y-72584577D01*
X82895943Y-72625501D01*
X82895945Y-72625501D01*
X83061654Y-72625501D01*
X83061670Y-72625500D01*
X83538331Y-72625500D01*
X83538347Y-72625501D01*
X83545943Y-72625501D01*
X83704054Y-72625501D01*
X83704057Y-72625501D01*
X83856785Y-72584577D01*
X83906904Y-72555639D01*
X83993716Y-72505520D01*
X84105520Y-72393716D01*
X84105520Y-72393714D01*
X84115728Y-72383507D01*
X84115730Y-72383504D01*
X84370898Y-72128335D01*
X84432219Y-72094852D01*
X84501911Y-72099836D01*
X84546258Y-72128337D01*
X84639707Y-72221786D01*
X84639711Y-72221789D01*
X84770814Y-72309390D01*
X84770827Y-72309397D01*
X84908683Y-72366498D01*
X84916503Y-72369737D01*
X85071153Y-72400499D01*
X85071156Y-72400500D01*
X85071158Y-72400500D01*
X85228844Y-72400500D01*
X85228845Y-72400499D01*
X85383497Y-72369737D01*
X85437390Y-72347413D01*
X85506859Y-72339945D01*
X85569338Y-72371220D01*
X85604990Y-72431309D01*
X85606460Y-72486164D01*
X85599500Y-72521157D01*
X85599500Y-72678846D01*
X85630261Y-72833489D01*
X85630264Y-72833501D01*
X85690602Y-72979172D01*
X85690609Y-72979185D01*
X85778602Y-73110874D01*
X85799480Y-73177551D01*
X85799500Y-73179765D01*
X85799500Y-82999902D01*
X85779815Y-83066941D01*
X85763181Y-83087583D01*
X85478107Y-83372656D01*
X85416784Y-83406141D01*
X85347092Y-83401157D01*
X85291159Y-83359285D01*
X85266742Y-83293821D01*
X85266426Y-83284999D01*
X85266426Y-82330375D01*
X85260018Y-82270764D01*
X85255280Y-82258062D01*
X85209724Y-82135918D01*
X85209720Y-82135911D01*
X85123474Y-82020702D01*
X85123471Y-82020699D01*
X85008262Y-81934453D01*
X85008255Y-81934449D01*
X84873409Y-81884155D01*
X84873410Y-81884155D01*
X84813810Y-81877748D01*
X84813808Y-81877747D01*
X84813800Y-81877747D01*
X84813791Y-81877747D01*
X83218056Y-81877747D01*
X83218050Y-81877748D01*
X83158443Y-81884155D01*
X83023598Y-81934449D01*
X83023591Y-81934453D01*
X82908382Y-82020699D01*
X82908379Y-82020702D01*
X82822133Y-82135911D01*
X82822129Y-82135918D01*
X82799318Y-82197080D01*
X82757447Y-82253014D01*
X82691983Y-82277431D01*
X82683136Y-82277747D01*
X81446851Y-82277747D01*
X81379812Y-82258062D01*
X81359170Y-82241428D01*
X80481096Y-81363355D01*
X80481094Y-81363352D01*
X80362223Y-81244481D01*
X80362215Y-81244475D01*
X80268593Y-81190423D01*
X80268591Y-81190422D01*
X80225296Y-81165425D01*
X80225295Y-81165424D01*
X80212769Y-81162067D01*
X80072563Y-81124499D01*
X79914449Y-81124499D01*
X79906853Y-81124499D01*
X79906837Y-81124500D01*
X75981941Y-81124500D01*
X75914902Y-81104815D01*
X75869147Y-81052011D01*
X75859203Y-80982853D01*
X75888228Y-80919297D01*
X75894260Y-80912819D01*
X75921786Y-80885292D01*
X75921789Y-80885289D01*
X76009394Y-80754179D01*
X76069737Y-80608497D01*
X76100500Y-80453842D01*
X76100500Y-80296158D01*
X76100500Y-80296155D01*
X76100499Y-80296153D01*
X76069738Y-80141510D01*
X76069737Y-80141503D01*
X76069735Y-80141498D01*
X76009397Y-79995827D01*
X76009390Y-79995814D01*
X75921398Y-79864125D01*
X75915747Y-79846078D01*
X75905523Y-79830169D01*
X75901071Y-79799207D01*
X75900520Y-79797447D01*
X75900500Y-79795234D01*
X75900500Y-79786701D01*
X75920185Y-79719662D01*
X75972989Y-79673907D01*
X76024500Y-79662701D01*
X80762104Y-79662701D01*
X80829143Y-79682386D01*
X80849784Y-79699019D01*
X81969531Y-80818767D01*
X81969533Y-80818768D01*
X81969537Y-80818771D01*
X82104869Y-80896904D01*
X82106463Y-80897824D01*
X82259190Y-80938748D01*
X82259192Y-80938748D01*
X82424901Y-80938748D01*
X82424917Y-80938747D01*
X82683136Y-80938747D01*
X82750175Y-80958432D01*
X82795930Y-81011236D01*
X82799318Y-81019414D01*
X82822129Y-81080575D01*
X82822133Y-81080582D01*
X82908379Y-81195791D01*
X82908382Y-81195794D01*
X83023591Y-81282040D01*
X83023598Y-81282044D01*
X83158444Y-81332338D01*
X83158443Y-81332338D01*
X83165371Y-81333082D01*
X83218054Y-81338747D01*
X84813799Y-81338746D01*
X84873410Y-81332338D01*
X85008258Y-81282043D01*
X85123473Y-81195793D01*
X85209723Y-81080578D01*
X85260018Y-80945730D01*
X85266427Y-80886120D01*
X85266426Y-79790375D01*
X85260018Y-79730764D01*
X85258004Y-79725365D01*
X85209724Y-79595918D01*
X85209720Y-79595911D01*
X85123474Y-79480702D01*
X85123471Y-79480699D01*
X85008262Y-79394453D01*
X85008255Y-79394449D01*
X84873409Y-79344155D01*
X84873410Y-79344155D01*
X84813810Y-79337748D01*
X84813808Y-79337747D01*
X84813800Y-79337747D01*
X84813791Y-79337747D01*
X83218056Y-79337747D01*
X83218050Y-79337748D01*
X83158443Y-79344155D01*
X83023598Y-79394449D01*
X83023591Y-79394453D01*
X82908382Y-79480699D01*
X82908379Y-79480702D01*
X82822133Y-79595911D01*
X82822129Y-79595918D01*
X82799318Y-79657080D01*
X82786048Y-79674806D01*
X82776849Y-79694950D01*
X82765518Y-79702231D01*
X82757447Y-79713014D01*
X82736698Y-79720752D01*
X82718071Y-79732724D01*
X82696154Y-79735875D01*
X82691983Y-79737431D01*
X82683136Y-79737747D01*
X82638345Y-79737747D01*
X82571306Y-79718062D01*
X82550664Y-79701428D01*
X81549791Y-78700556D01*
X81549789Y-78700553D01*
X81430918Y-78581682D01*
X81430917Y-78581681D01*
X81344105Y-78531561D01*
X81344105Y-78531560D01*
X81344101Y-78531559D01*
X81293986Y-78502624D01*
X81141258Y-78461700D01*
X80983144Y-78461700D01*
X80975548Y-78461700D01*
X80975532Y-78461701D01*
X75304061Y-78461701D01*
X75304057Y-78461700D01*
X75145943Y-78461700D01*
X75145939Y-78461701D01*
X69822809Y-78461701D01*
X69760808Y-78445088D01*
X69756066Y-78442350D01*
X69756065Y-78442349D01*
X69756063Y-78442348D01*
X69756061Y-78442347D01*
X69610594Y-78382093D01*
X69610592Y-78382092D01*
X69493688Y-78366702D01*
X69493685Y-78366701D01*
X69493679Y-78366701D01*
X69493672Y-78366701D01*
X69156896Y-78366701D01*
X69089857Y-78347016D01*
X69044102Y-78294212D01*
X69034158Y-78225054D01*
X69063183Y-78161498D01*
X69069215Y-78155020D01*
X69235117Y-77989119D01*
X69562417Y-77661819D01*
X69623740Y-77628334D01*
X69650098Y-77625500D01*
X72288331Y-77625500D01*
X72288347Y-77625501D01*
X72295943Y-77625501D01*
X72454054Y-77625501D01*
X72454057Y-77625501D01*
X72606785Y-77584577D01*
X72656904Y-77555639D01*
X72743716Y-77505520D01*
X72855520Y-77393716D01*
X72855520Y-77393714D01*
X72865728Y-77383507D01*
X72865730Y-77383504D01*
X73587932Y-76661302D01*
X73587937Y-76661298D01*
X73598140Y-76651094D01*
X73598142Y-76651094D01*
X73709946Y-76539290D01*
X73767808Y-76439069D01*
X73789003Y-76402359D01*
X73829927Y-76249631D01*
X73829927Y-76091517D01*
X73829927Y-76083922D01*
X73829926Y-76083904D01*
X73829926Y-73371153D01*
X74865425Y-73371153D01*
X74865425Y-73528846D01*
X74896186Y-73683489D01*
X74896189Y-73683501D01*
X74956527Y-73829172D01*
X74956534Y-73829185D01*
X75044135Y-73960288D01*
X75044138Y-73960292D01*
X75155632Y-74071786D01*
X75155636Y-74071789D01*
X75286739Y-74159390D01*
X75286752Y-74159397D01*
X75405393Y-74208539D01*
X75432428Y-74219737D01*
X75492073Y-74231601D01*
X75565619Y-74246231D01*
X75627530Y-74278616D01*
X75662104Y-74339332D01*
X75665428Y-74367848D01*
X75665428Y-74866123D01*
X75671835Y-74925730D01*
X75722129Y-75060575D01*
X75722133Y-75060582D01*
X75808379Y-75175791D01*
X75808382Y-75175794D01*
X75923591Y-75262040D01*
X75923598Y-75262044D01*
X76058444Y-75312338D01*
X76058443Y-75312338D01*
X76065371Y-75313082D01*
X76118054Y-75318747D01*
X77813799Y-75318746D01*
X77873410Y-75312338D01*
X78008258Y-75262043D01*
X78123473Y-75175793D01*
X78184344Y-75094480D01*
X78215039Y-75053478D01*
X78217309Y-75055177D01*
X78256492Y-75015990D01*
X78324764Y-75001133D01*
X78390230Y-75025545D01*
X78415370Y-75054558D01*
X78416815Y-75053478D01*
X78508379Y-75175791D01*
X78508382Y-75175794D01*
X78623591Y-75262040D01*
X78623598Y-75262044D01*
X78758444Y-75312338D01*
X78758443Y-75312338D01*
X78765371Y-75313082D01*
X78818054Y-75318747D01*
X80513799Y-75318746D01*
X80573410Y-75312338D01*
X80708258Y-75262043D01*
X80823473Y-75175793D01*
X80909723Y-75060578D01*
X80960018Y-74925730D01*
X80966427Y-74866120D01*
X80966426Y-73270375D01*
X80960018Y-73210764D01*
X80947630Y-73177551D01*
X80909724Y-73075918D01*
X80909720Y-73075911D01*
X80823474Y-72960702D01*
X80823471Y-72960699D01*
X80708262Y-72874453D01*
X80708255Y-72874449D01*
X80573409Y-72824155D01*
X80573410Y-72824155D01*
X80513810Y-72817748D01*
X80513808Y-72817747D01*
X80513800Y-72817747D01*
X80513791Y-72817747D01*
X78818056Y-72817747D01*
X78818050Y-72817748D01*
X78758443Y-72824155D01*
X78623598Y-72874449D01*
X78623591Y-72874453D01*
X78508382Y-72960699D01*
X78508379Y-72960702D01*
X78416815Y-73083016D01*
X78414545Y-73081317D01*
X78375347Y-73120511D01*
X78307073Y-73135358D01*
X78241610Y-73110937D01*
X78216481Y-73081936D01*
X78215039Y-73083016D01*
X78123474Y-72960702D01*
X78123471Y-72960699D01*
X78008262Y-72874453D01*
X78008255Y-72874449D01*
X77873409Y-72824155D01*
X77873410Y-72824155D01*
X77813810Y-72817748D01*
X77813808Y-72817747D01*
X77813800Y-72817747D01*
X77813792Y-72817747D01*
X76198169Y-72817747D01*
X76131130Y-72798062D01*
X76129279Y-72796849D01*
X76045105Y-72740606D01*
X76045102Y-72740604D01*
X75899426Y-72680264D01*
X75899414Y-72680261D01*
X75744770Y-72649500D01*
X75744767Y-72649500D01*
X75587083Y-72649500D01*
X75587080Y-72649500D01*
X75432435Y-72680261D01*
X75432423Y-72680264D01*
X75286752Y-72740602D01*
X75286739Y-72740609D01*
X75155636Y-72828210D01*
X75155632Y-72828213D01*
X75044138Y-72939707D01*
X75044135Y-72939711D01*
X74956534Y-73070814D01*
X74956527Y-73070827D01*
X74896189Y-73216498D01*
X74896186Y-73216510D01*
X74865425Y-73371153D01*
X73829926Y-73371153D01*
X73829926Y-72340308D01*
X73849611Y-72273269D01*
X73866246Y-72252626D01*
X73909538Y-72209334D01*
X73909543Y-72209329D01*
X73991920Y-72070037D01*
X74037069Y-71914635D01*
X74039926Y-71878332D01*
X74039926Y-71468952D01*
X74037069Y-71432649D01*
X74034701Y-71424500D01*
X73991921Y-71277251D01*
X73991921Y-71277250D01*
X73991920Y-71277249D01*
X73991920Y-71277247D01*
X73979805Y-71256762D01*
X73962622Y-71189041D01*
X73979805Y-71130522D01*
X73991920Y-71110037D01*
X74032314Y-70971002D01*
X74037068Y-70954639D01*
X74037069Y-70954633D01*
X74039385Y-70925202D01*
X74039926Y-70918332D01*
X74039926Y-70508952D01*
X74037069Y-70472649D01*
X74032217Y-70455949D01*
X73991921Y-70317251D01*
X73991920Y-70317248D01*
X73991920Y-70317247D01*
X73909543Y-70177955D01*
X73909541Y-70177953D01*
X73909538Y-70177949D01*
X73795118Y-70063529D01*
X73795110Y-70063523D01*
X73655819Y-69981147D01*
X73655816Y-69981146D01*
X73583451Y-69960122D01*
X73569193Y-69951016D01*
X73552879Y-69946541D01*
X73540358Y-69932601D01*
X73524565Y-69922516D01*
X73517492Y-69907146D01*
X73506189Y-69894562D01*
X73503192Y-69876067D01*
X73495359Y-69859044D01*
X73497718Y-69842290D01*
X73495013Y-69825592D01*
X73502491Y-69808412D01*
X73505105Y-69789857D01*
X73516322Y-69776637D01*
X73522899Y-69761529D01*
X73549156Y-69737944D01*
X73605306Y-69700426D01*
X73671983Y-69679548D01*
X73739363Y-69698033D01*
X73743087Y-69700426D01*
X73794794Y-69734975D01*
X73795467Y-69735425D01*
X73795469Y-69735426D01*
X73795473Y-69735428D01*
X73932711Y-69792273D01*
X73941149Y-69795768D01*
X74072985Y-69821992D01*
X74095799Y-69826530D01*
X74095802Y-69826531D01*
X74095804Y-69826531D01*
X74253490Y-69826531D01*
X74253491Y-69826530D01*
X74408143Y-69795768D01*
X74553825Y-69735425D01*
X74605756Y-69700725D01*
X74672431Y-69679847D01*
X74739811Y-69698331D01*
X74743509Y-69700707D01*
X74795467Y-69735425D01*
X74795469Y-69735426D01*
X74795471Y-69735427D01*
X74932711Y-69792273D01*
X74941149Y-69795768D01*
X75072985Y-69821992D01*
X75095799Y-69826530D01*
X75095802Y-69826531D01*
X75095804Y-69826531D01*
X75253490Y-69826531D01*
X75253491Y-69826530D01*
X75408143Y-69795768D01*
X75553825Y-69735425D01*
X75605756Y-69700725D01*
X75672431Y-69679847D01*
X75739811Y-69698331D01*
X75743509Y-69700707D01*
X75795467Y-69735425D01*
X75795469Y-69735426D01*
X75795471Y-69735427D01*
X75932711Y-69792273D01*
X75941149Y-69795768D01*
X76072985Y-69821992D01*
X76095799Y-69826530D01*
X76095802Y-69826531D01*
X76095804Y-69826531D01*
X76253490Y-69826531D01*
X76253491Y-69826530D01*
X76408143Y-69795768D01*
X76553825Y-69735425D01*
X76605756Y-69700725D01*
X76672431Y-69679847D01*
X76739811Y-69698331D01*
X76743509Y-69700707D01*
X76795467Y-69735425D01*
X76795469Y-69735426D01*
X76795471Y-69735427D01*
X76932711Y-69792273D01*
X76941149Y-69795768D01*
X77072985Y-69821992D01*
X77095799Y-69826530D01*
X77095802Y-69826531D01*
X77095804Y-69826531D01*
X77253490Y-69826531D01*
X77253491Y-69826530D01*
X77408143Y-69795768D01*
X77553825Y-69735425D01*
X77605756Y-69700725D01*
X77672431Y-69679847D01*
X77739811Y-69698331D01*
X77743509Y-69700707D01*
X77795467Y-69735425D01*
X77795469Y-69735426D01*
X77795471Y-69735427D01*
X77932711Y-69792273D01*
X77941149Y-69795768D01*
X78072985Y-69821992D01*
X78095799Y-69826530D01*
X78095802Y-69826531D01*
X78095804Y-69826531D01*
X78253490Y-69826531D01*
X78253491Y-69826530D01*
X78408143Y-69795768D01*
X78553825Y-69735425D01*
X78605756Y-69700725D01*
X78672431Y-69679847D01*
X78739811Y-69698331D01*
X78743509Y-69700707D01*
X78795467Y-69735425D01*
X78795469Y-69735426D01*
X78795471Y-69735427D01*
X78932711Y-69792273D01*
X78941149Y-69795768D01*
X79072985Y-69821992D01*
X79095799Y-69826530D01*
X79095802Y-69826531D01*
X79095804Y-69826531D01*
X79253490Y-69826531D01*
X79253491Y-69826530D01*
X79408143Y-69795768D01*
X79553825Y-69735425D01*
X79605756Y-69700725D01*
X79672431Y-69679847D01*
X79739811Y-69698331D01*
X79743509Y-69700707D01*
X79795467Y-69735425D01*
X79795469Y-69735426D01*
X79795471Y-69735427D01*
X79932711Y-69792273D01*
X79941149Y-69795768D01*
X80072985Y-69821992D01*
X80095799Y-69826530D01*
X80095802Y-69826531D01*
X80095804Y-69826531D01*
X80253490Y-69826531D01*
X80253491Y-69826530D01*
X80408143Y-69795768D01*
X80553825Y-69735425D01*
X80605756Y-69700725D01*
X80672431Y-69679847D01*
X80739811Y-69698331D01*
X80743509Y-69700707D01*
X80795467Y-69735425D01*
X80795469Y-69735426D01*
X80795471Y-69735427D01*
X80932711Y-69792273D01*
X80941149Y-69795768D01*
X81072985Y-69821992D01*
X81095799Y-69826530D01*
X81095802Y-69826531D01*
X81095804Y-69826531D01*
X81253490Y-69826531D01*
X81253491Y-69826530D01*
X81408143Y-69795768D01*
X81553825Y-69735425D01*
X81605756Y-69700725D01*
X81672431Y-69679847D01*
X81739811Y-69698331D01*
X81743509Y-69700707D01*
X81795467Y-69735425D01*
X81795469Y-69735426D01*
X81795471Y-69735427D01*
X81932711Y-69792273D01*
X81941149Y-69795768D01*
X82072985Y-69821992D01*
X82095799Y-69826530D01*
X82095802Y-69826531D01*
X82095804Y-69826531D01*
X82253490Y-69826531D01*
X82253491Y-69826530D01*
X82408143Y-69795768D01*
X82553825Y-69735425D01*
X82606206Y-69700425D01*
X82672880Y-69679547D01*
X82740260Y-69698031D01*
G37*
G04 #@! TD.AperFunction*
G04 #@! TA.AperFunction,Conductor*
G36*
X74642539Y-79682386D02*
G01*
X74688294Y-79735190D01*
X74699500Y-79786701D01*
X74699500Y-79795234D01*
X74679815Y-79862273D01*
X74678602Y-79864125D01*
X74590609Y-79995814D01*
X74590602Y-79995827D01*
X74530264Y-80141498D01*
X74530261Y-80141510D01*
X74499500Y-80296153D01*
X74499500Y-80453846D01*
X74530261Y-80608489D01*
X74530264Y-80608501D01*
X74590602Y-80754172D01*
X74590609Y-80754185D01*
X74678210Y-80885288D01*
X74678213Y-80885292D01*
X74705740Y-80912819D01*
X74739225Y-80974142D01*
X74734241Y-81043834D01*
X74692369Y-81099767D01*
X74626905Y-81124184D01*
X74618059Y-81124500D01*
X72771935Y-81124500D01*
X72704896Y-81104815D01*
X72659141Y-81052011D01*
X72649197Y-80982853D01*
X72655752Y-80957170D01*
X72659996Y-80945788D01*
X72660018Y-80945730D01*
X72666427Y-80886120D01*
X72666426Y-79790375D01*
X72666426Y-79787054D01*
X72668076Y-79787054D01*
X72682639Y-79725365D01*
X72732908Y-79676838D01*
X72790407Y-79662701D01*
X74575500Y-79662701D01*
X74642539Y-79682386D01*
G37*
G04 #@! TD.AperFunction*
G04 #@! TA.AperFunction,Conductor*
G36*
X66644985Y-75984761D02*
G01*
X66676856Y-75992940D01*
X66678362Y-75994561D01*
X66680484Y-75995185D01*
X66702008Y-76020025D01*
X66724401Y-76044139D01*
X66724791Y-76046318D01*
X66726239Y-76047989D01*
X66730919Y-76080537D01*
X66736717Y-76112915D01*
X66735984Y-76115768D01*
X66736183Y-76117147D01*
X66731159Y-76135411D01*
X66732031Y-76135676D01*
X66730261Y-76141508D01*
X66699338Y-76296968D01*
X66676097Y-76348262D01*
X66671464Y-76354299D01*
X66630935Y-76424499D01*
X66592409Y-76491226D01*
X66592408Y-76491227D01*
X66573668Y-76561167D01*
X66551484Y-76643958D01*
X66551484Y-76643960D01*
X66551484Y-76812061D01*
X66551485Y-76812074D01*
X66551485Y-77508701D01*
X66531800Y-77575740D01*
X66478996Y-77621495D01*
X66409838Y-77631439D01*
X66346282Y-77602414D01*
X66330124Y-77583057D01*
X66329033Y-77583904D01*
X66324248Y-77577735D01*
X66209917Y-77463404D01*
X66209908Y-77463397D01*
X66070729Y-77381087D01*
X66070724Y-77381085D01*
X65915452Y-77335974D01*
X65915446Y-77335973D01*
X65894534Y-77334328D01*
X65894534Y-77989119D01*
X65874849Y-78056158D01*
X65822045Y-78101913D01*
X65770534Y-78113119D01*
X65518534Y-78113119D01*
X65451495Y-78093434D01*
X65405740Y-78040630D01*
X65394534Y-77989119D01*
X65394534Y-77334329D01*
X65394533Y-77334328D01*
X65373621Y-77335973D01*
X65373615Y-77335974D01*
X65218343Y-77381085D01*
X65218338Y-77381087D01*
X65079159Y-77463397D01*
X65079150Y-77463404D01*
X65037181Y-77505374D01*
X64975858Y-77538859D01*
X64906166Y-77533875D01*
X64850233Y-77492003D01*
X64825816Y-77426539D01*
X64825500Y-77417693D01*
X64825500Y-76700097D01*
X64845185Y-76633058D01*
X64861819Y-76612416D01*
X65462416Y-76011819D01*
X65523739Y-75978334D01*
X65550097Y-75975500D01*
X66613445Y-75975500D01*
X66644985Y-75984761D01*
G37*
G04 #@! TD.AperFunction*
G04 #@! TA.AperFunction,Conductor*
G36*
X90167973Y-64146216D02*
G01*
X90188615Y-64162850D01*
X91356452Y-65330687D01*
X91389937Y-65392010D01*
X91384953Y-65461702D01*
X91343081Y-65517635D01*
X91292967Y-65539984D01*
X91279012Y-65542760D01*
X91278998Y-65542764D01*
X91133327Y-65603102D01*
X91133314Y-65603109D01*
X91002211Y-65690710D01*
X91002207Y-65690713D01*
X90890713Y-65802207D01*
X90890710Y-65802211D01*
X90803109Y-65933314D01*
X90803102Y-65933327D01*
X90742764Y-66078998D01*
X90742761Y-66079010D01*
X90712000Y-66233653D01*
X90712000Y-66391346D01*
X90742761Y-66545989D01*
X90742764Y-66546001D01*
X90790061Y-66660186D01*
X90791687Y-66668362D01*
X90794477Y-66672703D01*
X90799500Y-66707638D01*
X90799500Y-66849902D01*
X90779815Y-66916941D01*
X90763181Y-66937583D01*
X88131633Y-69569130D01*
X88070310Y-69602615D01*
X88000618Y-69597631D01*
X87944685Y-69555759D01*
X87924876Y-69516044D01*
X87892766Y-69405522D01*
X87892168Y-69403463D01*
X87810434Y-69265258D01*
X87810432Y-69265256D01*
X87810429Y-69265252D01*
X87806118Y-69260941D01*
X87772633Y-69199618D01*
X87769799Y-69173260D01*
X87769799Y-67358358D01*
X87769800Y-67358345D01*
X87769800Y-67190244D01*
X87769800Y-67190242D01*
X87728876Y-67037514D01*
X87699938Y-66987394D01*
X87649819Y-66900583D01*
X87538015Y-66788779D01*
X87538014Y-66788778D01*
X87533684Y-66784448D01*
X87533673Y-66784438D01*
X86205688Y-65456453D01*
X86172203Y-65395130D01*
X86177187Y-65325438D01*
X86219059Y-65269505D01*
X86284523Y-65245088D01*
X86340819Y-65254210D01*
X86441149Y-65295768D01*
X86590309Y-65325438D01*
X86595799Y-65326530D01*
X86595802Y-65326531D01*
X86595804Y-65326531D01*
X87753490Y-65326531D01*
X87753491Y-65326530D01*
X87908143Y-65295768D01*
X88053306Y-65235640D01*
X88053818Y-65235428D01*
X88053818Y-65235427D01*
X88053825Y-65235425D01*
X88079585Y-65218213D01*
X88185521Y-65147429D01*
X88203567Y-65141778D01*
X88219477Y-65131554D01*
X88250438Y-65127102D01*
X88252199Y-65126551D01*
X88254412Y-65126531D01*
X88300500Y-65126531D01*
X88367539Y-65146216D01*
X88413294Y-65199020D01*
X88424500Y-65250531D01*
X88424500Y-65514363D01*
X88439953Y-65631753D01*
X88439956Y-65631762D01*
X88487600Y-65746786D01*
X88500464Y-65777841D01*
X88596718Y-65903282D01*
X88722159Y-65999536D01*
X88868238Y-66060044D01*
X88985639Y-66075500D01*
X89324360Y-66075499D01*
X89324361Y-66075499D01*
X89358832Y-66070961D01*
X89441762Y-66060044D01*
X89441771Y-66060040D01*
X89443879Y-66059476D01*
X89446076Y-66059476D01*
X89449821Y-66058983D01*
X89449886Y-66059476D01*
X89500183Y-66059476D01*
X89500312Y-66058495D01*
X89507763Y-66059476D01*
X89508072Y-66059476D01*
X89508370Y-66059555D01*
X89595000Y-66070961D01*
X89595000Y-66055192D01*
X89603547Y-66026083D01*
X89609827Y-65996393D01*
X89613549Y-65992019D01*
X89614685Y-65988153D01*
X89630815Y-65968017D01*
X89636775Y-65961987D01*
X89713282Y-65903282D01*
X89777358Y-65819775D01*
X89782815Y-65814256D01*
X89806859Y-65800947D01*
X89829052Y-65784742D01*
X89836989Y-65784269D01*
X89843945Y-65780419D01*
X89871363Y-65782221D01*
X89898798Y-65780587D01*
X89905731Y-65784480D01*
X89913664Y-65785002D01*
X89935755Y-65801342D01*
X89959718Y-65814799D01*
X89963445Y-65821822D01*
X89969837Y-65826550D01*
X89979588Y-65852240D01*
X89992471Y-65876516D01*
X89993810Y-65889710D01*
X89994631Y-65891873D01*
X89994224Y-65893793D01*
X89995000Y-65901431D01*
X89995000Y-66070959D01*
X89995001Y-66070960D01*
X90081627Y-66059557D01*
X90081633Y-66059555D01*
X90227585Y-65999100D01*
X90352924Y-65902924D01*
X90449100Y-65777586D01*
X90509555Y-65631631D01*
X90517012Y-65575000D01*
X90009500Y-65575000D01*
X90000814Y-65572449D01*
X89991854Y-65573738D01*
X89967815Y-65562759D01*
X89942461Y-65555315D01*
X89936533Y-65548473D01*
X89928298Y-65544713D01*
X89914009Y-65522479D01*
X89896706Y-65502511D01*
X89894418Y-65491997D01*
X89890523Y-65485936D01*
X89885500Y-65451001D01*
X89885499Y-65299001D01*
X89905183Y-65231961D01*
X89957987Y-65186206D01*
X90009499Y-65175000D01*
X90517010Y-65175000D01*
X90517011Y-65174998D01*
X90509557Y-65118372D01*
X90509555Y-65118366D01*
X90449100Y-64972414D01*
X90352924Y-64847075D01*
X90227586Y-64750899D01*
X90081631Y-64690444D01*
X89994999Y-64679037D01*
X89952759Y-64716082D01*
X89951960Y-64715171D01*
X89922511Y-64740690D01*
X89853353Y-64750634D01*
X89789797Y-64721609D01*
X89752023Y-64662831D01*
X89751225Y-64659989D01*
X89747070Y-64644482D01*
X89736565Y-64605276D01*
X89714577Y-64523215D01*
X89655530Y-64420943D01*
X89635520Y-64386284D01*
X89582852Y-64333616D01*
X89578762Y-64328565D01*
X89567715Y-64302075D01*
X89553963Y-64276889D01*
X89554438Y-64270235D01*
X89551871Y-64264078D01*
X89556899Y-64235822D01*
X89558947Y-64207197D01*
X89562945Y-64201856D01*
X89564114Y-64195289D01*
X89583621Y-64174236D01*
X89600819Y-64151264D01*
X89607067Y-64148933D01*
X89611603Y-64144039D01*
X89639397Y-64136875D01*
X89666283Y-64126847D01*
X89675129Y-64126531D01*
X90100934Y-64126531D01*
X90167973Y-64146216D01*
G37*
G04 #@! TD.AperFunction*
G04 #@! TA.AperFunction,Conductor*
G36*
X82591942Y-66145185D02*
G01*
X82612584Y-66161819D01*
X83491522Y-67040757D01*
X83525007Y-67102080D01*
X83520023Y-67171772D01*
X83478151Y-67227705D01*
X83472731Y-67231541D01*
X83424646Y-67263670D01*
X83424646Y-68402031D01*
X83422095Y-68410716D01*
X83423384Y-68419678D01*
X83412405Y-68443718D01*
X83404961Y-68469070D01*
X83398120Y-68474997D01*
X83394359Y-68483234D01*
X83372124Y-68497523D01*
X83352157Y-68514825D01*
X83341642Y-68517112D01*
X83335581Y-68521008D01*
X83300646Y-68526031D01*
X83099146Y-68526031D01*
X83032107Y-68506346D01*
X82986352Y-68453542D01*
X82975146Y-68402031D01*
X82975146Y-67947186D01*
X82975145Y-67947184D01*
X82944385Y-67792542D01*
X82944384Y-67792541D01*
X82944383Y-67792534D01*
X82934083Y-67767667D01*
X82924646Y-67720220D01*
X82924646Y-67263670D01*
X82924645Y-67263670D01*
X82795704Y-67317079D01*
X82743983Y-67351637D01*
X82677305Y-67372513D01*
X82609926Y-67354027D01*
X82606204Y-67351635D01*
X82553831Y-67316640D01*
X82553818Y-67316633D01*
X82408147Y-67256295D01*
X82408135Y-67256292D01*
X82253491Y-67225531D01*
X82253488Y-67225531D01*
X82095804Y-67225531D01*
X82095801Y-67225531D01*
X81941156Y-67256292D01*
X81941144Y-67256295D01*
X81795473Y-67316633D01*
X81795460Y-67316640D01*
X81743537Y-67351335D01*
X81676860Y-67372213D01*
X81609479Y-67353729D01*
X81605755Y-67351335D01*
X81553831Y-67316640D01*
X81553818Y-67316633D01*
X81408147Y-67256295D01*
X81408135Y-67256292D01*
X81253491Y-67225531D01*
X81253488Y-67225531D01*
X81095804Y-67225531D01*
X81095801Y-67225531D01*
X80941156Y-67256292D01*
X80941144Y-67256295D01*
X80795473Y-67316633D01*
X80795460Y-67316640D01*
X80743537Y-67351335D01*
X80676860Y-67372213D01*
X80609479Y-67353729D01*
X80605755Y-67351335D01*
X80553831Y-67316640D01*
X80553818Y-67316633D01*
X80408147Y-67256295D01*
X80408135Y-67256292D01*
X80253491Y-67225531D01*
X80253488Y-67225531D01*
X80095804Y-67225531D01*
X80095801Y-67225531D01*
X79941156Y-67256292D01*
X79941144Y-67256295D01*
X79795473Y-67316633D01*
X79795460Y-67316640D01*
X79743537Y-67351335D01*
X79676860Y-67372213D01*
X79609479Y-67353729D01*
X79605755Y-67351335D01*
X79553831Y-67316640D01*
X79553818Y-67316633D01*
X79408147Y-67256295D01*
X79408135Y-67256292D01*
X79253491Y-67225531D01*
X79253488Y-67225531D01*
X79095804Y-67225531D01*
X79095801Y-67225531D01*
X78941156Y-67256292D01*
X78941144Y-67256295D01*
X78795473Y-67316633D01*
X78795460Y-67316640D01*
X78743537Y-67351335D01*
X78676860Y-67372213D01*
X78609479Y-67353729D01*
X78605755Y-67351335D01*
X78553831Y-67316640D01*
X78553818Y-67316633D01*
X78408147Y-67256295D01*
X78408135Y-67256292D01*
X78253491Y-67225531D01*
X78253488Y-67225531D01*
X78095804Y-67225531D01*
X78095801Y-67225531D01*
X77941156Y-67256292D01*
X77941144Y-67256295D01*
X77795473Y-67316633D01*
X77795460Y-67316640D01*
X77743537Y-67351335D01*
X77676860Y-67372213D01*
X77609479Y-67353729D01*
X77605755Y-67351335D01*
X77553831Y-67316640D01*
X77553818Y-67316633D01*
X77408147Y-67256295D01*
X77408135Y-67256292D01*
X77253491Y-67225531D01*
X77253488Y-67225531D01*
X77095804Y-67225531D01*
X77095801Y-67225531D01*
X76941156Y-67256292D01*
X76941144Y-67256295D01*
X76795473Y-67316633D01*
X76795460Y-67316640D01*
X76743537Y-67351335D01*
X76676860Y-67372213D01*
X76609479Y-67353729D01*
X76605755Y-67351335D01*
X76553831Y-67316640D01*
X76553818Y-67316633D01*
X76408147Y-67256295D01*
X76408135Y-67256292D01*
X76253491Y-67225531D01*
X76253488Y-67225531D01*
X76095804Y-67225531D01*
X76095801Y-67225531D01*
X75941156Y-67256292D01*
X75941144Y-67256295D01*
X75795473Y-67316633D01*
X75795460Y-67316640D01*
X75743537Y-67351335D01*
X75676860Y-67372213D01*
X75609479Y-67353729D01*
X75605755Y-67351335D01*
X75553831Y-67316640D01*
X75553818Y-67316633D01*
X75408147Y-67256295D01*
X75408135Y-67256292D01*
X75253491Y-67225531D01*
X75253488Y-67225531D01*
X75095804Y-67225531D01*
X75095801Y-67225531D01*
X74941156Y-67256292D01*
X74941144Y-67256295D01*
X74795473Y-67316633D01*
X74795460Y-67316640D01*
X74743537Y-67351335D01*
X74676860Y-67372213D01*
X74609479Y-67353729D01*
X74605755Y-67351335D01*
X74553831Y-67316640D01*
X74553818Y-67316633D01*
X74408147Y-67256295D01*
X74408135Y-67256292D01*
X74253491Y-67225531D01*
X74253488Y-67225531D01*
X74095804Y-67225531D01*
X74095801Y-67225531D01*
X73941156Y-67256292D01*
X73941144Y-67256295D01*
X73795474Y-67316633D01*
X73795460Y-67316641D01*
X73743083Y-67351637D01*
X73676406Y-67372513D01*
X73609026Y-67354027D01*
X73605305Y-67351636D01*
X73553586Y-67317079D01*
X73424646Y-67263670D01*
X73424646Y-67720220D01*
X73415208Y-67767667D01*
X73404909Y-67792534D01*
X73404908Y-67792538D01*
X73404907Y-67792541D01*
X73404906Y-67792542D01*
X73374146Y-67947184D01*
X73374146Y-68402031D01*
X73371595Y-68410716D01*
X73372884Y-68419678D01*
X73361905Y-68443718D01*
X73354461Y-68469070D01*
X73347620Y-68474997D01*
X73343859Y-68483234D01*
X73321624Y-68497523D01*
X73301657Y-68514825D01*
X73291142Y-68517112D01*
X73285081Y-68521008D01*
X73250146Y-68526031D01*
X73099146Y-68526031D01*
X73032107Y-68506346D01*
X72986352Y-68453542D01*
X72975146Y-68402031D01*
X72975146Y-67947186D01*
X72975145Y-67947184D01*
X72944385Y-67792542D01*
X72944384Y-67792541D01*
X72944383Y-67792534D01*
X72934083Y-67767667D01*
X72924646Y-67720220D01*
X72924646Y-67263670D01*
X72919708Y-67260370D01*
X72867662Y-67265966D01*
X72805183Y-67234690D01*
X72769906Y-67176031D01*
X72734223Y-67042861D01*
X72690107Y-66966451D01*
X72655166Y-66905930D01*
X72543362Y-66794126D01*
X72543361Y-66794125D01*
X72539031Y-66789795D01*
X72539020Y-66789785D01*
X72112590Y-66363355D01*
X72105521Y-66356286D01*
X72105520Y-66356284D01*
X72086413Y-66337177D01*
X72052931Y-66275856D01*
X72057358Y-66213973D01*
X72057916Y-66206166D01*
X72061610Y-66201232D01*
X72099789Y-66150231D01*
X72144674Y-66133491D01*
X72165252Y-66125816D01*
X72174098Y-66125500D01*
X82524903Y-66125500D01*
X82591942Y-66145185D01*
G37*
G04 #@! TD.AperFunction*
G04 #@! TA.AperFunction,Conductor*
G36*
X96003582Y-35550701D02*
G01*
X96323297Y-35568656D01*
X96337094Y-35570210D01*
X96649457Y-35623283D01*
X96663014Y-35626377D01*
X96967469Y-35714089D01*
X96980593Y-35718682D01*
X97273304Y-35839926D01*
X97285826Y-35845955D01*
X97563139Y-35999221D01*
X97574900Y-36006611D01*
X97833314Y-36189966D01*
X97844174Y-36198627D01*
X98080418Y-36409749D01*
X98090250Y-36419581D01*
X98301372Y-36655825D01*
X98310035Y-36666687D01*
X98493385Y-36925094D01*
X98500778Y-36936860D01*
X98654040Y-37214166D01*
X98660073Y-37226695D01*
X98781317Y-37519406D01*
X98785910Y-37532530D01*
X98873622Y-37836985D01*
X98876716Y-37850542D01*
X98929787Y-38162895D01*
X98931344Y-38176713D01*
X98949305Y-38496542D01*
X98949499Y-38503100D01*
X98949500Y-38503414D01*
X98949500Y-38565892D01*
X98949701Y-38566643D01*
X98949729Y-38575374D01*
X98949728Y-38575376D01*
X98949729Y-38575387D01*
X99099486Y-87229048D01*
X99099317Y-87235919D01*
X99083408Y-87539494D01*
X99082051Y-87552403D01*
X99034971Y-87849655D01*
X99032273Y-87862351D01*
X98954374Y-88153073D01*
X98950363Y-88165416D01*
X98842510Y-88446384D01*
X98837231Y-88458242D01*
X98700591Y-88726414D01*
X98694101Y-88737654D01*
X98530188Y-88990057D01*
X98522559Y-89000558D01*
X98333149Y-89234460D01*
X98324464Y-89244105D01*
X98111651Y-89456919D01*
X98102005Y-89465604D01*
X97868114Y-89655004D01*
X97857614Y-89662633D01*
X97605203Y-89826551D01*
X97593963Y-89833041D01*
X97325793Y-89969681D01*
X97313935Y-89974960D01*
X97032967Y-90082813D01*
X97020624Y-90086824D01*
X96729902Y-90164723D01*
X96717205Y-90167421D01*
X96419953Y-90214500D01*
X96407046Y-90215857D01*
X96103294Y-90231776D01*
X96096700Y-90231946D01*
X80963670Y-90219289D01*
X80896647Y-90199548D01*
X80850937Y-90146706D01*
X80841051Y-90077539D01*
X80864508Y-90020978D01*
X80909720Y-89960582D01*
X80909719Y-89960582D01*
X80909723Y-89960578D01*
X80960018Y-89825730D01*
X80966427Y-89766120D01*
X80966426Y-88170375D01*
X80960018Y-88110764D01*
X80931893Y-88035358D01*
X80909724Y-87975918D01*
X80909720Y-87975911D01*
X80823474Y-87860702D01*
X80823471Y-87860699D01*
X80708262Y-87774453D01*
X80708255Y-87774449D01*
X80573409Y-87724155D01*
X80573410Y-87724155D01*
X80513810Y-87717748D01*
X80513808Y-87717747D01*
X80513800Y-87717747D01*
X80513791Y-87717747D01*
X78818056Y-87717747D01*
X78818050Y-87717748D01*
X78758443Y-87724155D01*
X78623598Y-87774449D01*
X78623591Y-87774453D01*
X78508382Y-87860699D01*
X78508379Y-87860702D01*
X78416815Y-87983016D01*
X78414545Y-87981317D01*
X78375347Y-88020511D01*
X78307073Y-88035358D01*
X78241610Y-88010937D01*
X78216481Y-87981936D01*
X78215039Y-87983016D01*
X78123474Y-87860702D01*
X78123471Y-87860699D01*
X78008262Y-87774453D01*
X78008255Y-87774449D01*
X77873409Y-87724155D01*
X77873410Y-87724155D01*
X77813810Y-87717748D01*
X77813808Y-87717747D01*
X77813800Y-87717747D01*
X77813791Y-87717747D01*
X76118056Y-87717747D01*
X76118050Y-87717748D01*
X76058443Y-87724155D01*
X75923598Y-87774449D01*
X75923591Y-87774453D01*
X75808382Y-87860699D01*
X75808379Y-87860702D01*
X75722133Y-87975911D01*
X75722129Y-87975918D01*
X75671835Y-88110764D01*
X75665960Y-88165416D01*
X75665428Y-88170370D01*
X75665427Y-88170382D01*
X75665427Y-89766117D01*
X75665428Y-89766123D01*
X75671835Y-89825730D01*
X75722129Y-89960575D01*
X75722131Y-89960578D01*
X75764027Y-90016544D01*
X75788445Y-90082007D01*
X75773594Y-90150280D01*
X75724189Y-90199686D01*
X75664657Y-90214855D01*
X57207929Y-90199419D01*
X57200240Y-90199174D01*
X56882519Y-90179166D01*
X56868773Y-90177526D01*
X56558154Y-90122738D01*
X56544677Y-90119576D01*
X56242106Y-90030508D01*
X56229065Y-90025864D01*
X55938300Y-89903622D01*
X55925858Y-89897553D01*
X55650533Y-89743665D01*
X55638845Y-89736247D01*
X55382386Y-89552625D01*
X55371598Y-89543950D01*
X55137210Y-89332892D01*
X55127462Y-89323076D01*
X54918046Y-89087193D01*
X54909455Y-89076353D01*
X54727642Y-88818603D01*
X54720307Y-88806863D01*
X54568363Y-88530464D01*
X54562382Y-88517980D01*
X54481521Y-88321789D01*
X54442189Y-88226361D01*
X54437643Y-88213307D01*
X54350698Y-87910082D01*
X54347638Y-87896610D01*
X54295036Y-87585599D01*
X54293494Y-87571844D01*
X54293459Y-87571213D01*
X54275692Y-87253425D01*
X54275500Y-87246657D01*
X54275500Y-87184108D01*
X54275431Y-87183854D01*
X54275386Y-87139829D01*
X55867177Y-87139829D01*
X55867177Y-87352402D01*
X55896809Y-87539494D01*
X55900431Y-87562359D01*
X55953002Y-87724156D01*
X55966121Y-87764530D01*
X56062628Y-87953936D01*
X56187567Y-88125902D01*
X56337890Y-88276225D01*
X56509856Y-88401164D01*
X56509858Y-88401165D01*
X56509861Y-88401167D01*
X56699265Y-88497673D01*
X56901434Y-88563362D01*
X57111390Y-88596616D01*
X57111391Y-88596616D01*
X57323963Y-88596616D01*
X57323964Y-88596616D01*
X57533920Y-88563362D01*
X57736089Y-88497673D01*
X57925493Y-88401167D01*
X57947466Y-88385202D01*
X58097463Y-88276225D01*
X58097465Y-88276222D01*
X58097469Y-88276220D01*
X58247781Y-88125908D01*
X58247783Y-88125904D01*
X58247786Y-88125902D01*
X58372725Y-87953936D01*
X58372724Y-87953936D01*
X58372728Y-87953932D01*
X58469234Y-87764528D01*
X58534923Y-87562359D01*
X58568177Y-87352403D01*
X58568177Y-87139829D01*
X58534923Y-86929873D01*
X58469234Y-86727704D01*
X58372728Y-86538300D01*
X58372726Y-86538297D01*
X58372725Y-86538295D01*
X58247786Y-86366329D01*
X58097463Y-86216006D01*
X57925497Y-86091067D01*
X57736091Y-85994560D01*
X57736090Y-85994559D01*
X57736089Y-85994559D01*
X57533920Y-85928870D01*
X57533918Y-85928869D01*
X57533917Y-85928869D01*
X57372634Y-85903324D01*
X57323964Y-85895616D01*
X57111390Y-85895616D01*
X57062719Y-85903324D01*
X56901437Y-85928869D01*
X56699262Y-85994560D01*
X56509856Y-86091067D01*
X56337890Y-86216006D01*
X56187567Y-86366329D01*
X56062628Y-86538295D01*
X55966121Y-86727701D01*
X55900430Y-86929876D01*
X55867177Y-87139829D01*
X54275386Y-87139829D01*
X54274645Y-86418746D01*
X54272374Y-84206566D01*
X54247467Y-59947076D01*
X55205955Y-59947076D01*
X55205955Y-60159649D01*
X55236079Y-60349848D01*
X55239209Y-60369606D01*
X55302258Y-60563651D01*
X55304899Y-60571777D01*
X55401406Y-60761183D01*
X55526345Y-60933149D01*
X55676668Y-61083472D01*
X55848637Y-61208413D01*
X55857401Y-61212879D01*
X55908197Y-61260854D01*
X55924991Y-61328675D01*
X55902453Y-61394810D01*
X55857401Y-61433847D01*
X55848637Y-61438312D01*
X55676668Y-61563253D01*
X55526345Y-61713576D01*
X55401406Y-61885542D01*
X55304899Y-62074948D01*
X55239208Y-62277123D01*
X55205955Y-62487076D01*
X55205955Y-62699649D01*
X55238513Y-62905216D01*
X55239209Y-62909606D01*
X55299568Y-63095372D01*
X55304899Y-63111777D01*
X55401406Y-63301183D01*
X55526345Y-63473149D01*
X55676668Y-63623472D01*
X55848637Y-63748413D01*
X55857401Y-63752879D01*
X55908197Y-63800854D01*
X55924991Y-63868675D01*
X55902453Y-63934810D01*
X55857401Y-63973847D01*
X55848637Y-63978312D01*
X55676668Y-64103253D01*
X55526345Y-64253576D01*
X55401406Y-64425542D01*
X55304899Y-64614948D01*
X55239208Y-64817123D01*
X55214653Y-64972159D01*
X55205955Y-65027076D01*
X55205955Y-65239650D01*
X55208261Y-65254211D01*
X55234010Y-65416785D01*
X55239209Y-65449606D01*
X55299542Y-65635292D01*
X55304899Y-65651777D01*
X55401406Y-65841183D01*
X55526345Y-66013149D01*
X55676668Y-66163472D01*
X55848637Y-66288413D01*
X55857401Y-66292879D01*
X55908197Y-66340854D01*
X55924991Y-66408675D01*
X55902453Y-66474810D01*
X55857401Y-66513847D01*
X55848637Y-66518312D01*
X55676668Y-66643253D01*
X55526345Y-66793576D01*
X55401406Y-66965542D01*
X55304899Y-67154948D01*
X55239208Y-67357123D01*
X55205955Y-67567076D01*
X55205955Y-67779649D01*
X55232497Y-67947233D01*
X55239209Y-67989606D01*
X55298129Y-68170943D01*
X55304899Y-68191777D01*
X55401406Y-68381183D01*
X55526345Y-68553149D01*
X55676668Y-68703472D01*
X55848637Y-68828413D01*
X55857401Y-68832879D01*
X55908197Y-68880854D01*
X55924991Y-68948675D01*
X55902453Y-69014810D01*
X55857401Y-69053847D01*
X55848637Y-69058312D01*
X55676668Y-69183253D01*
X55526345Y-69333576D01*
X55401406Y-69505542D01*
X55304899Y-69694948D01*
X55304898Y-69694950D01*
X55304898Y-69694951D01*
X55291746Y-69735428D01*
X55239208Y-69897123D01*
X55205955Y-70107076D01*
X55205955Y-70319649D01*
X55235938Y-70508959D01*
X55239209Y-70529606D01*
X55302716Y-70725061D01*
X55304899Y-70731777D01*
X55401406Y-70921183D01*
X55526345Y-71093149D01*
X55676668Y-71243472D01*
X55848637Y-71368413D01*
X55857401Y-71372879D01*
X55908197Y-71420854D01*
X55924991Y-71488675D01*
X55902453Y-71554810D01*
X55857401Y-71593847D01*
X55848637Y-71598312D01*
X55676668Y-71723253D01*
X55526345Y-71873576D01*
X55401406Y-72045542D01*
X55304899Y-72234948D01*
X55239208Y-72437123D01*
X55205955Y-72647076D01*
X55205955Y-72859649D01*
X55224887Y-72979185D01*
X55239209Y-73069606D01*
X55304443Y-73270376D01*
X55304899Y-73271777D01*
X55401406Y-73461183D01*
X55526345Y-73633149D01*
X55676668Y-73783472D01*
X55848637Y-73908413D01*
X55857401Y-73912879D01*
X55908197Y-73960854D01*
X55924991Y-74028675D01*
X55902453Y-74094810D01*
X55857401Y-74133847D01*
X55848637Y-74138312D01*
X55676668Y-74263253D01*
X55526345Y-74413576D01*
X55401406Y-74585542D01*
X55304899Y-74774948D01*
X55239208Y-74977123D01*
X55205955Y-75187076D01*
X55205955Y-75399649D01*
X55236285Y-75591149D01*
X55239209Y-75609606D01*
X55282784Y-75743716D01*
X55304899Y-75811777D01*
X55401406Y-76001183D01*
X55526345Y-76173149D01*
X55640273Y-76287077D01*
X55673758Y-76348400D01*
X55668774Y-76418092D01*
X55626902Y-76474025D01*
X55595926Y-76490940D01*
X55464367Y-76540009D01*
X55464361Y-76540012D01*
X55349267Y-76626172D01*
X55349264Y-76626175D01*
X55263104Y-76741269D01*
X55263100Y-76741276D01*
X55212858Y-76875983D01*
X55212856Y-76875990D01*
X55206455Y-76935518D01*
X55206455Y-77583363D01*
X56123443Y-77583363D01*
X56090530Y-77640370D01*
X56056455Y-77767537D01*
X56056455Y-77899189D01*
X56090530Y-78026356D01*
X56123443Y-78083363D01*
X55206455Y-78083363D01*
X55206455Y-78731207D01*
X55212856Y-78790735D01*
X55212858Y-78790742D01*
X55263100Y-78925449D01*
X55263104Y-78925456D01*
X55349264Y-79040550D01*
X55349267Y-79040553D01*
X55464361Y-79126713D01*
X55464368Y-79126717D01*
X55599075Y-79176959D01*
X55599082Y-79176961D01*
X55658610Y-79183362D01*
X55658627Y-79183363D01*
X56306455Y-79183363D01*
X56306455Y-78266375D01*
X56363462Y-78299288D01*
X56490629Y-78333363D01*
X56622281Y-78333363D01*
X56749448Y-78299288D01*
X56806455Y-78266375D01*
X56806455Y-79183363D01*
X57454283Y-79183363D01*
X57454299Y-79183362D01*
X57513827Y-79176961D01*
X57513834Y-79176959D01*
X57648541Y-79126717D01*
X57648548Y-79126713D01*
X57763642Y-79040553D01*
X57763645Y-79040550D01*
X57849805Y-78925456D01*
X57849809Y-78925449D01*
X57900051Y-78790742D01*
X57900053Y-78790735D01*
X57906454Y-78731207D01*
X57906455Y-78731190D01*
X57906455Y-78083363D01*
X56989467Y-78083363D01*
X57022380Y-78026356D01*
X57056455Y-77899189D01*
X57056455Y-77767537D01*
X57022380Y-77640370D01*
X56989467Y-77583363D01*
X57906455Y-77583363D01*
X57906455Y-76935535D01*
X57906454Y-76935518D01*
X57900053Y-76875990D01*
X57900051Y-76875983D01*
X57849809Y-76741276D01*
X57849805Y-76741269D01*
X57763645Y-76626175D01*
X57763642Y-76626172D01*
X57648548Y-76540012D01*
X57648543Y-76540009D01*
X57516983Y-76490940D01*
X57461050Y-76449068D01*
X57436633Y-76383604D01*
X57451485Y-76315331D01*
X57472630Y-76287083D01*
X57586559Y-76173155D01*
X57613982Y-76135411D01*
X57711503Y-76001183D01*
X57711502Y-76001183D01*
X57711506Y-76001179D01*
X57808012Y-75811775D01*
X57873701Y-75609606D01*
X57906955Y-75399650D01*
X57906955Y-75187076D01*
X57879700Y-75014999D01*
X58691219Y-75014999D01*
X58697620Y-75074527D01*
X58697622Y-75074534D01*
X58747864Y-75209241D01*
X58747868Y-75209248D01*
X58834028Y-75324342D01*
X58834031Y-75324345D01*
X58949125Y-75410505D01*
X58949132Y-75410509D01*
X59083839Y-75460751D01*
X59083846Y-75460753D01*
X59143374Y-75467154D01*
X59143391Y-75467155D01*
X60041219Y-75467155D01*
X60041219Y-74692155D01*
X60541219Y-74692155D01*
X60541219Y-75467155D01*
X61425499Y-75467155D01*
X61434184Y-75469705D01*
X61443144Y-75468417D01*
X61467183Y-75479394D01*
X61492538Y-75486840D01*
X61498465Y-75493680D01*
X61506700Y-75497441D01*
X61520989Y-75519674D01*
X61538293Y-75539644D01*
X61540580Y-75550157D01*
X61544476Y-75556219D01*
X61549498Y-75591149D01*
X61549499Y-75591153D01*
X61549499Y-75654057D01*
X61549499Y-75654059D01*
X61549500Y-75664053D01*
X61549500Y-77999902D01*
X61529815Y-78066941D01*
X61513181Y-78087583D01*
X61144481Y-78456282D01*
X61144479Y-78456285D01*
X61135049Y-78472619D01*
X61101020Y-78531561D01*
X61100891Y-78531784D01*
X61100889Y-78531786D01*
X61065425Y-78593209D01*
X61065423Y-78593212D01*
X61043046Y-78676724D01*
X61024499Y-78745943D01*
X61024499Y-78745945D01*
X61024499Y-78914046D01*
X61024500Y-78914059D01*
X61024500Y-81113330D01*
X61024499Y-81113348D01*
X61024499Y-81279054D01*
X61024498Y-81279054D01*
X61065423Y-81431785D01*
X61074086Y-81446789D01*
X61074087Y-81446792D01*
X61144475Y-81568709D01*
X61144481Y-81568717D01*
X61263349Y-81687585D01*
X61263355Y-81687590D01*
X61265425Y-81689660D01*
X61298910Y-81750983D01*
X61299361Y-81753149D01*
X61330261Y-81908491D01*
X61330264Y-81908501D01*
X61390602Y-82054172D01*
X61390609Y-82054185D01*
X61478210Y-82185288D01*
X61478213Y-82185292D01*
X61589707Y-82296786D01*
X61589711Y-82296789D01*
X61720814Y-82384390D01*
X61720827Y-82384397D01*
X61829425Y-82429379D01*
X61866503Y-82444737D01*
X62021153Y-82475499D01*
X62021156Y-82475500D01*
X62021158Y-82475500D01*
X62178844Y-82475500D01*
X62178845Y-82475499D01*
X62333497Y-82444737D01*
X62428048Y-82405572D01*
X62497517Y-82398104D01*
X62559996Y-82429379D01*
X62595648Y-82489468D01*
X62599500Y-82520134D01*
X62599500Y-84463330D01*
X62599499Y-84463348D01*
X62599499Y-84629054D01*
X62599498Y-84629054D01*
X62640424Y-84781789D01*
X62640425Y-84781790D01*
X62657153Y-84810763D01*
X62657154Y-84810764D01*
X62707513Y-84897989D01*
X62719481Y-84918717D01*
X62838349Y-85037585D01*
X62838354Y-85037589D01*
X65981284Y-88180520D01*
X65981286Y-88180521D01*
X65981290Y-88180524D01*
X66060699Y-88226370D01*
X66118216Y-88259577D01*
X66270943Y-88300501D01*
X66270945Y-88300501D01*
X66436654Y-88300501D01*
X66436670Y-88300500D01*
X69895234Y-88300500D01*
X69962273Y-88320185D01*
X69964125Y-88321398D01*
X70095814Y-88409390D01*
X70095827Y-88409397D01*
X70213751Y-88458242D01*
X70241503Y-88469737D01*
X70381936Y-88497671D01*
X70396153Y-88500499D01*
X70396156Y-88500500D01*
X70396158Y-88500500D01*
X70553844Y-88500500D01*
X70553845Y-88500499D01*
X70708497Y-88469737D01*
X70821166Y-88423067D01*
X70854172Y-88409397D01*
X70854172Y-88409396D01*
X70854179Y-88409394D01*
X70985289Y-88321789D01*
X71096789Y-88210289D01*
X71184394Y-88079179D01*
X71244737Y-87933497D01*
X71275500Y-87778842D01*
X71275500Y-87621158D01*
X71271031Y-87598690D01*
X71277260Y-87529099D01*
X71320123Y-87473922D01*
X71386013Y-87450678D01*
X71392649Y-87450500D01*
X83338331Y-87450500D01*
X83338347Y-87450501D01*
X83345943Y-87450501D01*
X83504054Y-87450501D01*
X83504057Y-87450501D01*
X83656785Y-87409577D01*
X83740477Y-87361257D01*
X83793716Y-87330520D01*
X83905520Y-87218716D01*
X83905520Y-87218714D01*
X83915723Y-87208512D01*
X83915727Y-87208506D01*
X83975550Y-87148683D01*
X94778098Y-87148683D01*
X94778098Y-87361256D01*
X94809949Y-87562359D01*
X94811352Y-87571213D01*
X94861046Y-87724156D01*
X94877042Y-87773384D01*
X94973549Y-87962790D01*
X95098488Y-88134756D01*
X95248811Y-88285079D01*
X95420777Y-88410018D01*
X95420779Y-88410019D01*
X95420782Y-88410021D01*
X95610186Y-88506527D01*
X95812355Y-88572216D01*
X96022311Y-88605470D01*
X96022312Y-88605470D01*
X96234884Y-88605470D01*
X96234885Y-88605470D01*
X96444841Y-88572216D01*
X96647010Y-88506527D01*
X96836414Y-88410021D01*
X96957860Y-88321786D01*
X97008384Y-88285079D01*
X97008386Y-88285076D01*
X97008390Y-88285074D01*
X97158702Y-88134762D01*
X97158704Y-88134758D01*
X97158707Y-88134756D01*
X97283646Y-87962790D01*
X97283645Y-87962790D01*
X97283649Y-87962786D01*
X97380155Y-87773382D01*
X97445844Y-87571213D01*
X97479098Y-87361257D01*
X97479098Y-87148683D01*
X97445844Y-86938727D01*
X97380155Y-86736558D01*
X97283649Y-86547154D01*
X97283647Y-86547151D01*
X97283646Y-86547149D01*
X97158707Y-86375183D01*
X97008384Y-86224860D01*
X96836418Y-86099921D01*
X96647012Y-86003414D01*
X96647011Y-86003413D01*
X96647010Y-86003413D01*
X96444841Y-85937724D01*
X96444839Y-85937723D01*
X96444838Y-85937723D01*
X96283555Y-85912178D01*
X96234885Y-85904470D01*
X96022311Y-85904470D01*
X95973640Y-85912178D01*
X95812358Y-85937723D01*
X95610183Y-86003414D01*
X95420777Y-86099921D01*
X95248811Y-86224860D01*
X95098488Y-86375183D01*
X94973549Y-86547149D01*
X94877042Y-86736555D01*
X94811351Y-86938730D01*
X94778098Y-87148683D01*
X83975550Y-87148683D01*
X84374433Y-86749801D01*
X84374438Y-86749797D01*
X84384641Y-86739593D01*
X84384643Y-86739593D01*
X84496447Y-86627789D01*
X84565320Y-86508497D01*
X84575504Y-86490858D01*
X84575810Y-86489714D01*
X84580006Y-86482214D01*
X84599971Y-86462650D01*
X84617500Y-86440896D01*
X84624579Y-86438538D01*
X84629912Y-86433314D01*
X84657280Y-86427651D01*
X84683792Y-86418825D01*
X84688228Y-86418746D01*
X84813798Y-86418746D01*
X84813799Y-86418746D01*
X84873410Y-86412338D01*
X85008258Y-86362043D01*
X85123473Y-86275793D01*
X85209723Y-86160578D01*
X85260018Y-86025730D01*
X85266427Y-85966120D01*
X85266426Y-84949500D01*
X85286110Y-84882462D01*
X85338914Y-84836707D01*
X85390426Y-84825501D01*
X85554054Y-84825501D01*
X85554057Y-84825501D01*
X85706785Y-84784577D01*
X85756904Y-84755639D01*
X85843716Y-84705520D01*
X85955520Y-84593716D01*
X85955520Y-84593714D01*
X85965728Y-84583507D01*
X85965729Y-84583504D01*
X86880520Y-83668716D01*
X86959577Y-83531784D01*
X87000501Y-83379057D01*
X87000501Y-83220942D01*
X87000501Y-83213347D01*
X87000500Y-83213329D01*
X87000500Y-73179765D01*
X87020185Y-73112726D01*
X87021398Y-73110874D01*
X87048973Y-73069606D01*
X87109394Y-72979179D01*
X87169737Y-72833497D01*
X87200500Y-72678842D01*
X87200500Y-72521158D01*
X87200500Y-72521157D01*
X87200500Y-72521155D01*
X87200499Y-72521153D01*
X87199704Y-72517154D01*
X87169737Y-72366503D01*
X87163868Y-72352333D01*
X87144507Y-72305591D01*
X87144425Y-72304829D01*
X87143951Y-72304227D01*
X87140699Y-72270175D01*
X87137038Y-72236122D01*
X87137381Y-72235435D01*
X87137309Y-72234673D01*
X87152979Y-72204276D01*
X87168313Y-72173643D01*
X87169089Y-72173024D01*
X87169324Y-72172570D01*
X87197065Y-72150754D01*
X87231904Y-72130639D01*
X87318716Y-72080520D01*
X87430520Y-71968716D01*
X87430520Y-71968714D01*
X87440728Y-71958507D01*
X87440729Y-71958504D01*
X90318189Y-69081045D01*
X90379510Y-69047562D01*
X90449202Y-69052546D01*
X90505135Y-69094418D01*
X90527485Y-69144533D01*
X90530262Y-69158495D01*
X90530264Y-69158501D01*
X90590602Y-69304172D01*
X90590609Y-69304185D01*
X90678210Y-69435288D01*
X90678213Y-69435292D01*
X90789707Y-69546786D01*
X90789711Y-69546789D01*
X90920814Y-69634390D01*
X90920827Y-69634397D01*
X91066295Y-69694651D01*
X91066503Y-69694737D01*
X91190004Y-69719303D01*
X91221153Y-69725499D01*
X91221156Y-69725500D01*
X91221158Y-69725500D01*
X91378844Y-69725500D01*
X91378845Y-69725499D01*
X91533497Y-69694737D01*
X91679179Y-69634394D01*
X91734199Y-69597631D01*
X91810875Y-69546398D01*
X91877553Y-69525520D01*
X91879766Y-69525500D01*
X94763331Y-69525500D01*
X94763347Y-69525501D01*
X94770943Y-69525501D01*
X94929054Y-69525501D01*
X94929057Y-69525501D01*
X95081785Y-69484577D01*
X95147235Y-69446789D01*
X95218716Y-69405520D01*
X95330520Y-69293716D01*
X95330520Y-69293714D01*
X95340724Y-69283511D01*
X95340728Y-69283506D01*
X95744588Y-68879645D01*
X95772568Y-68864367D01*
X95799740Y-68847670D01*
X95803025Y-68847736D01*
X95805909Y-68846162D01*
X95837713Y-68848436D01*
X95869595Y-68849080D01*
X95873376Y-68850986D01*
X95875601Y-68851146D01*
X95901398Y-68864387D01*
X95903300Y-68865664D01*
X95948689Y-68898641D01*
X95964090Y-68906488D01*
X95970286Y-68910649D01*
X95988050Y-68932006D01*
X96008247Y-68951081D01*
X96010082Y-68958494D01*
X96014966Y-68964365D01*
X96018364Y-68991937D01*
X96025041Y-69018902D01*
X96022577Y-69026129D01*
X96023512Y-69033710D01*
X96011464Y-69058740D01*
X96002503Y-69085037D01*
X95996163Y-69090529D01*
X95993210Y-69096667D01*
X95979010Y-69105392D01*
X95957451Y-69124074D01*
X95948687Y-69128539D01*
X95776718Y-69253480D01*
X95626395Y-69403803D01*
X95501456Y-69575769D01*
X95404949Y-69765175D01*
X95339258Y-69967350D01*
X95306005Y-70177303D01*
X95306005Y-70389876D01*
X95334460Y-70569537D01*
X95339259Y-70599833D01*
X95382689Y-70733497D01*
X95404949Y-70802004D01*
X95501456Y-70991410D01*
X95626395Y-71163376D01*
X95776718Y-71313699D01*
X95948687Y-71438640D01*
X95957451Y-71443106D01*
X96008247Y-71491081D01*
X96025041Y-71558902D01*
X96002503Y-71625037D01*
X95957451Y-71664074D01*
X95948687Y-71668539D01*
X95776718Y-71793480D01*
X95626395Y-71943803D01*
X95501453Y-72115774D01*
X95501452Y-72115775D01*
X95481270Y-72155385D01*
X95433296Y-72206181D01*
X95370786Y-72223090D01*
X92697353Y-72223090D01*
X92544624Y-72264013D01*
X92496373Y-72291872D01*
X92496371Y-72291872D01*
X92407700Y-72343065D01*
X92407692Y-72343071D01*
X90519481Y-74231282D01*
X90519475Y-74231290D01*
X90483928Y-74292861D01*
X90483928Y-74292863D01*
X90440423Y-74368214D01*
X90440423Y-74368215D01*
X90399499Y-74520943D01*
X90399499Y-74520945D01*
X90399499Y-74689046D01*
X90399500Y-74689059D01*
X90399500Y-83123457D01*
X90379815Y-83190496D01*
X90344391Y-83226559D01*
X90265311Y-83279397D01*
X90153814Y-83390894D01*
X90153811Y-83390898D01*
X90066210Y-83522001D01*
X90066203Y-83522014D01*
X90005865Y-83667685D01*
X90005862Y-83667697D01*
X89975101Y-83822340D01*
X89975101Y-83980033D01*
X90005862Y-84134676D01*
X90005865Y-84134688D01*
X90066203Y-84280359D01*
X90066210Y-84280372D01*
X90153811Y-84411475D01*
X90153814Y-84411479D01*
X90265308Y-84522973D01*
X90265312Y-84522976D01*
X90396415Y-84610577D01*
X90396428Y-84610584D01*
X90542099Y-84670922D01*
X90542104Y-84670924D01*
X90696754Y-84701686D01*
X90696757Y-84701687D01*
X90696759Y-84701687D01*
X90854445Y-84701687D01*
X90854446Y-84701686D01*
X91009098Y-84670924D01*
X91154780Y-84610581D01*
X91285890Y-84522976D01*
X91397390Y-84411476D01*
X91484995Y-84280366D01*
X91545338Y-84134684D01*
X91576101Y-83980029D01*
X91576101Y-83863231D01*
X91580326Y-83831137D01*
X91583606Y-83818894D01*
X91600501Y-83755845D01*
X91600501Y-83597730D01*
X91600501Y-83590135D01*
X91600500Y-83590117D01*
X91600500Y-74900097D01*
X91620185Y-74833058D01*
X91636819Y-74812416D01*
X92988826Y-73460409D01*
X93050149Y-73426924D01*
X93076507Y-73424090D01*
X95370786Y-73424090D01*
X95437825Y-73443775D01*
X95481270Y-73491795D01*
X95501452Y-73531404D01*
X95501453Y-73531405D01*
X95626395Y-73703376D01*
X95776718Y-73853699D01*
X95948687Y-73978640D01*
X95957451Y-73983106D01*
X96008247Y-74031081D01*
X96025041Y-74098902D01*
X96002503Y-74165037D01*
X95957451Y-74204074D01*
X95948687Y-74208539D01*
X95776718Y-74333480D01*
X95626395Y-74483803D01*
X95501456Y-74655769D01*
X95404949Y-74845175D01*
X95404948Y-74845177D01*
X95404948Y-74845178D01*
X95398143Y-74866123D01*
X95339258Y-75047350D01*
X95318915Y-75175791D01*
X95306005Y-75257303D01*
X95306005Y-75469877D01*
X95310371Y-75497441D01*
X95336759Y-75664053D01*
X95339259Y-75679833D01*
X95401203Y-75870477D01*
X95404949Y-75882004D01*
X95501456Y-76071410D01*
X95626395Y-76243376D01*
X95740323Y-76357304D01*
X95773808Y-76418627D01*
X95768824Y-76488319D01*
X95726952Y-76544252D01*
X95695976Y-76561167D01*
X95564417Y-76610236D01*
X95564411Y-76610239D01*
X95449317Y-76696399D01*
X95449314Y-76696402D01*
X95363154Y-76811496D01*
X95363150Y-76811503D01*
X95312908Y-76946210D01*
X95312906Y-76946217D01*
X95306505Y-77005745D01*
X95306505Y-77653590D01*
X96223493Y-77653590D01*
X96190580Y-77710597D01*
X96156505Y-77837764D01*
X96156505Y-77969416D01*
X96190580Y-78096583D01*
X96223493Y-78153590D01*
X95306505Y-78153590D01*
X95306505Y-78801434D01*
X95312906Y-78860962D01*
X95312908Y-78860969D01*
X95363150Y-78995676D01*
X95363154Y-78995683D01*
X95449314Y-79110777D01*
X95449317Y-79110780D01*
X95564411Y-79196940D01*
X95564418Y-79196944D01*
X95699125Y-79247186D01*
X95699132Y-79247188D01*
X95758660Y-79253589D01*
X95758677Y-79253590D01*
X96406505Y-79253590D01*
X96406505Y-78336602D01*
X96463512Y-78369515D01*
X96590679Y-78403590D01*
X96722331Y-78403590D01*
X96849498Y-78369515D01*
X96906505Y-78336602D01*
X96906505Y-79253590D01*
X97554333Y-79253590D01*
X97554349Y-79253589D01*
X97613877Y-79247188D01*
X97613884Y-79247186D01*
X97748591Y-79196944D01*
X97748598Y-79196940D01*
X97863692Y-79110780D01*
X97863695Y-79110777D01*
X97949855Y-78995683D01*
X97949859Y-78995676D01*
X98000101Y-78860969D01*
X98000103Y-78860962D01*
X98006504Y-78801434D01*
X98006505Y-78801417D01*
X98006505Y-78153590D01*
X97089517Y-78153590D01*
X97122430Y-78096583D01*
X97156505Y-77969416D01*
X97156505Y-77837764D01*
X97122430Y-77710597D01*
X97089517Y-77653590D01*
X98006505Y-77653590D01*
X98006505Y-77005762D01*
X98006504Y-77005745D01*
X98000103Y-76946217D01*
X98000101Y-76946210D01*
X97949859Y-76811503D01*
X97949855Y-76811496D01*
X97863695Y-76696402D01*
X97863692Y-76696399D01*
X97748598Y-76610239D01*
X97748593Y-76610236D01*
X97617033Y-76561167D01*
X97561100Y-76519295D01*
X97536683Y-76453831D01*
X97551535Y-76385558D01*
X97572680Y-76357310D01*
X97686609Y-76243382D01*
X97811556Y-76071406D01*
X97908062Y-75882002D01*
X97973751Y-75679833D01*
X98007005Y-75469877D01*
X98007005Y-75257303D01*
X97973751Y-75047347D01*
X97908062Y-74845178D01*
X97811556Y-74655774D01*
X97811554Y-74655771D01*
X97811553Y-74655769D01*
X97686614Y-74483803D01*
X97536291Y-74333480D01*
X97364325Y-74208541D01*
X97363620Y-74208181D01*
X97355559Y-74204075D01*
X97304764Y-74156102D01*
X97287968Y-74088282D01*
X97310504Y-74022146D01*
X97355559Y-73983105D01*
X97364321Y-73978641D01*
X97423079Y-73935951D01*
X97536291Y-73853699D01*
X97536293Y-73853696D01*
X97536297Y-73853694D01*
X97686609Y-73703382D01*
X97686611Y-73703378D01*
X97686614Y-73703376D01*
X97800994Y-73545943D01*
X97811556Y-73531406D01*
X97908062Y-73342002D01*
X97973751Y-73139833D01*
X98007005Y-72929877D01*
X98007005Y-72717303D01*
X97973751Y-72507347D01*
X97908062Y-72305178D01*
X97811556Y-72115774D01*
X97811554Y-72115771D01*
X97811553Y-72115769D01*
X97686614Y-71943803D01*
X97536291Y-71793480D01*
X97364325Y-71668541D01*
X97363620Y-71668181D01*
X97355559Y-71664075D01*
X97304764Y-71616102D01*
X97287968Y-71548282D01*
X97310504Y-71482146D01*
X97355559Y-71443105D01*
X97364321Y-71438641D01*
X97401101Y-71411919D01*
X97536291Y-71313699D01*
X97536293Y-71313696D01*
X97536297Y-71313694D01*
X97686609Y-71163382D01*
X97686611Y-71163378D01*
X97686614Y-71163376D01*
X97811553Y-70991410D01*
X97811552Y-70991410D01*
X97811556Y-70991406D01*
X97908062Y-70802002D01*
X97973751Y-70599833D01*
X98007005Y-70389877D01*
X98007005Y-70177303D01*
X97973751Y-69967347D01*
X97908062Y-69765178D01*
X97811556Y-69575774D01*
X97811554Y-69575771D01*
X97811553Y-69575769D01*
X97686614Y-69403803D01*
X97536291Y-69253480D01*
X97364325Y-69128541D01*
X97363620Y-69128181D01*
X97355559Y-69124075D01*
X97304764Y-69076102D01*
X97287968Y-69008282D01*
X97310504Y-68942146D01*
X97355559Y-68903105D01*
X97364321Y-68898641D01*
X97411468Y-68864387D01*
X97536291Y-68773699D01*
X97536293Y-68773696D01*
X97536297Y-68773694D01*
X97686609Y-68623382D01*
X97686611Y-68623378D01*
X97686614Y-68623376D01*
X97811553Y-68451410D01*
X97811552Y-68451410D01*
X97811556Y-68451406D01*
X97908062Y-68262002D01*
X97973751Y-68059833D01*
X98007005Y-67849877D01*
X98007005Y-67637303D01*
X97973751Y-67427347D01*
X97908062Y-67225178D01*
X97811556Y-67035774D01*
X97811554Y-67035771D01*
X97811553Y-67035769D01*
X97686614Y-66863803D01*
X97536291Y-66713480D01*
X97364325Y-66588541D01*
X97363620Y-66588181D01*
X97355559Y-66584075D01*
X97304764Y-66536102D01*
X97287968Y-66468282D01*
X97310504Y-66402146D01*
X97355559Y-66363105D01*
X97364321Y-66358641D01*
X97416376Y-66320821D01*
X97536291Y-66233699D01*
X97536293Y-66233696D01*
X97536297Y-66233694D01*
X97686609Y-66083382D01*
X97686611Y-66083378D01*
X97686614Y-66083376D01*
X97811553Y-65911410D01*
X97811552Y-65911410D01*
X97811556Y-65911406D01*
X97908062Y-65722002D01*
X97973751Y-65519833D01*
X98007005Y-65309877D01*
X98007005Y-65097303D01*
X97973751Y-64887347D01*
X97908062Y-64685178D01*
X97811556Y-64495774D01*
X97811554Y-64495771D01*
X97811553Y-64495769D01*
X97686614Y-64323803D01*
X97536291Y-64173480D01*
X97364325Y-64048541D01*
X97363620Y-64048181D01*
X97355559Y-64044075D01*
X97304764Y-63996102D01*
X97287968Y-63928282D01*
X97310504Y-63862146D01*
X97355559Y-63823105D01*
X97364321Y-63818641D01*
X97422969Y-63776031D01*
X97536291Y-63693699D01*
X97536293Y-63693696D01*
X97536297Y-63693694D01*
X97686609Y-63543382D01*
X97686611Y-63543378D01*
X97686614Y-63543376D01*
X97811553Y-63371410D01*
X97811552Y-63371410D01*
X97811556Y-63371406D01*
X97908062Y-63182002D01*
X97973751Y-62979833D01*
X98007005Y-62769877D01*
X98007005Y-62557303D01*
X97973751Y-62347347D01*
X97908062Y-62145178D01*
X97811556Y-61955774D01*
X97811554Y-61955771D01*
X97811553Y-61955769D01*
X97686614Y-61783803D01*
X97536291Y-61633480D01*
X97364325Y-61508541D01*
X97363620Y-61508181D01*
X97355559Y-61504075D01*
X97304764Y-61456102D01*
X97287968Y-61388282D01*
X97310504Y-61322146D01*
X97355559Y-61283105D01*
X97364321Y-61278641D01*
X97401101Y-61251919D01*
X97536291Y-61153699D01*
X97536293Y-61153696D01*
X97536297Y-61153694D01*
X97686609Y-61003382D01*
X97686611Y-61003378D01*
X97686614Y-61003376D01*
X97811553Y-60831410D01*
X97811552Y-60831410D01*
X97811556Y-60831406D01*
X97908062Y-60642002D01*
X97973751Y-60439833D01*
X98007005Y-60229877D01*
X98007005Y-60017303D01*
X97973751Y-59807347D01*
X97908062Y-59605178D01*
X97811556Y-59415774D01*
X97811554Y-59415771D01*
X97811553Y-59415769D01*
X97686614Y-59243803D01*
X97536291Y-59093480D01*
X97364325Y-58968541D01*
X97174919Y-58872034D01*
X97174918Y-58872033D01*
X97174917Y-58872033D01*
X96972748Y-58806344D01*
X96972746Y-58806343D01*
X96972745Y-58806343D01*
X96811462Y-58780798D01*
X96762792Y-58773090D01*
X96550218Y-58773090D01*
X96501547Y-58780798D01*
X96340265Y-58806343D01*
X96138090Y-58872034D01*
X95948684Y-58968541D01*
X95776718Y-59093480D01*
X95626395Y-59243803D01*
X95501453Y-59415774D01*
X95501452Y-59415775D01*
X95481270Y-59455385D01*
X95433296Y-59506181D01*
X95370786Y-59523090D01*
X92673687Y-59523090D01*
X92606648Y-59503405D01*
X92586006Y-59486771D01*
X89886416Y-56787181D01*
X89852931Y-56725858D01*
X89857915Y-56656166D01*
X89899787Y-56600233D01*
X89965251Y-56575816D01*
X89974097Y-56575500D01*
X91138331Y-56575500D01*
X91138347Y-56575501D01*
X91145943Y-56575501D01*
X91304054Y-56575501D01*
X91304057Y-56575501D01*
X91456785Y-56534577D01*
X91470420Y-56526704D01*
X91507091Y-56505533D01*
X91507102Y-56505525D01*
X91507114Y-56505519D01*
X91593716Y-56455520D01*
X91705520Y-56343716D01*
X91705520Y-56343714D01*
X91715724Y-56333511D01*
X91715728Y-56333506D01*
X91916535Y-56132699D01*
X91916538Y-56132698D01*
X91970443Y-56078791D01*
X91970457Y-56078784D01*
X92019116Y-56048771D01*
X92108247Y-56019237D01*
X92256325Y-55927901D01*
X92379348Y-55804878D01*
X92470684Y-55656800D01*
X92499655Y-55569371D01*
X92539428Y-55511926D01*
X92603944Y-55485103D01*
X92617361Y-55484375D01*
X94879456Y-55484375D01*
X94879472Y-55484376D01*
X94887068Y-55484376D01*
X95045179Y-55484376D01*
X95045182Y-55484376D01*
X95197910Y-55443452D01*
X95248029Y-55414514D01*
X95334841Y-55364395D01*
X95446645Y-55252591D01*
X95446645Y-55252589D01*
X95456853Y-55242382D01*
X95456855Y-55242379D01*
X96308506Y-54390728D01*
X96308511Y-54390724D01*
X96318714Y-54380520D01*
X96318716Y-54380520D01*
X96430520Y-54268716D01*
X96509577Y-54131784D01*
X96550500Y-53979057D01*
X96550500Y-52329499D01*
X96570185Y-52262460D01*
X96622989Y-52216705D01*
X96674500Y-52205499D01*
X97045002Y-52205499D01*
X97045008Y-52205499D01*
X97147797Y-52194999D01*
X97314334Y-52139814D01*
X97463656Y-52047712D01*
X97587712Y-51923656D01*
X97679814Y-51774334D01*
X97734999Y-51607797D01*
X97745500Y-51505009D01*
X97745499Y-49834992D01*
X97738412Y-49765619D01*
X97734999Y-49732203D01*
X97734998Y-49732200D01*
X97692807Y-49604877D01*
X97679814Y-49565666D01*
X97587712Y-49416344D01*
X97463656Y-49292288D01*
X97314334Y-49200186D01*
X97147797Y-49145001D01*
X97147795Y-49145000D01*
X97045010Y-49134500D01*
X94854998Y-49134500D01*
X94854981Y-49134501D01*
X94752203Y-49145000D01*
X94752200Y-49145001D01*
X94585668Y-49200185D01*
X94585663Y-49200187D01*
X94436342Y-49292289D01*
X94312289Y-49416342D01*
X94220187Y-49565663D01*
X94220186Y-49565666D01*
X94165001Y-49732203D01*
X94165001Y-49732204D01*
X94165000Y-49732204D01*
X94154500Y-49834983D01*
X94154500Y-51505001D01*
X94154501Y-51505018D01*
X94165000Y-51607796D01*
X94165001Y-51607799D01*
X94209872Y-51743209D01*
X94220186Y-51774334D01*
X94312288Y-51923656D01*
X94436344Y-52047712D01*
X94585666Y-52139814D01*
X94752203Y-52194999D01*
X94854991Y-52205500D01*
X95225500Y-52205499D01*
X95292539Y-52225183D01*
X95338294Y-52277987D01*
X95349500Y-52329499D01*
X95349500Y-53599903D01*
X95329815Y-53666942D01*
X95313181Y-53687584D01*
X94753709Y-54247056D01*
X94692386Y-54280541D01*
X94666028Y-54283375D01*
X92743767Y-54283375D01*
X92676728Y-54263690D01*
X92630973Y-54210886D01*
X92619767Y-54159375D01*
X92619767Y-53867898D01*
X92639452Y-53800859D01*
X92656083Y-53780219D01*
X92669384Y-53766919D01*
X92751761Y-53627627D01*
X92796910Y-53472225D01*
X92799767Y-53435922D01*
X92799767Y-52966542D01*
X92796910Y-52930239D01*
X92789638Y-52905210D01*
X92751762Y-52774841D01*
X92751761Y-52774838D01*
X92751761Y-52774837D01*
X92669384Y-52635545D01*
X92669382Y-52635543D01*
X92669379Y-52635539D01*
X92656086Y-52622246D01*
X92641382Y-52595318D01*
X92624790Y-52569500D01*
X92623898Y-52563299D01*
X92622601Y-52560923D01*
X92619767Y-52534565D01*
X92619767Y-52473039D01*
X92639452Y-52406000D01*
X92656083Y-52385360D01*
X92667197Y-52374247D01*
X92749574Y-52234955D01*
X92794723Y-52079553D01*
X92797580Y-52043250D01*
X92797580Y-51573870D01*
X92794723Y-51537567D01*
X92768465Y-51447189D01*
X92749575Y-51382169D01*
X92749574Y-51382166D01*
X92749574Y-51382165D01*
X92667197Y-51242873D01*
X92667195Y-51242871D01*
X92667192Y-51242867D01*
X92552772Y-51128447D01*
X92552764Y-51128441D01*
X92434451Y-51058471D01*
X92413475Y-51046066D01*
X92413474Y-51046065D01*
X92413473Y-51046065D01*
X92413470Y-51046064D01*
X92258077Y-51000917D01*
X92258071Y-51000916D01*
X92221777Y-50998060D01*
X92221770Y-50998060D01*
X91812390Y-50998060D01*
X91812382Y-50998060D01*
X91776088Y-51000916D01*
X91776082Y-51000917D01*
X91620689Y-51046064D01*
X91620684Y-51046066D01*
X91599708Y-51058471D01*
X91531983Y-51075652D01*
X91473469Y-51058471D01*
X91453271Y-51046526D01*
X91453270Y-51046525D01*
X91307081Y-51004053D01*
X91307080Y-51004054D01*
X91307080Y-51310205D01*
X91289814Y-51373323D01*
X91284587Y-51382160D01*
X91284584Y-51382168D01*
X91239437Y-51537562D01*
X91239436Y-51537568D01*
X91236580Y-51573862D01*
X91236580Y-52043257D01*
X91239436Y-52079551D01*
X91239437Y-52079557D01*
X91284583Y-52234949D01*
X91284585Y-52234953D01*
X91284586Y-52234955D01*
X91291999Y-52247491D01*
X91309267Y-52310610D01*
X91309267Y-52702877D01*
X91292001Y-52765995D01*
X91286774Y-52774832D01*
X91286771Y-52774840D01*
X91241624Y-52930234D01*
X91241623Y-52930240D01*
X91238767Y-52966534D01*
X91238767Y-53077232D01*
X91219082Y-53144271D01*
X91166278Y-53190026D01*
X91114767Y-53201232D01*
X91059267Y-53201232D01*
X91059267Y-53327232D01*
X91039582Y-53394271D01*
X90986778Y-53440026D01*
X90935267Y-53451232D01*
X90280477Y-53451232D01*
X90282121Y-53472142D01*
X90310543Y-53569971D01*
X90310343Y-53639840D01*
X90272400Y-53698510D01*
X90208762Y-53727353D01*
X90152462Y-53722271D01*
X90067996Y-53694282D01*
X89966137Y-53683875D01*
X89922822Y-53683875D01*
X89922822Y-54759875D01*
X89920271Y-54768560D01*
X89921560Y-54777522D01*
X89910581Y-54801562D01*
X89903137Y-54826914D01*
X89896296Y-54832841D01*
X89892535Y-54841078D01*
X89870300Y-54855367D01*
X89850333Y-54872669D01*
X89839818Y-54874956D01*
X89833757Y-54878852D01*
X89798822Y-54883875D01*
X89549500Y-54883875D01*
X89482461Y-54864190D01*
X89436706Y-54811386D01*
X89425500Y-54759875D01*
X89425500Y-54039060D01*
X89425501Y-54039047D01*
X89425501Y-53870945D01*
X89424440Y-53862888D01*
X89425212Y-53862786D01*
X89422822Y-53844620D01*
X89422822Y-53683875D01*
X89417201Y-53678254D01*
X89369303Y-53664190D01*
X89328954Y-53621874D01*
X89316269Y-53599903D01*
X89305520Y-53581284D01*
X88881552Y-53157316D01*
X88881551Y-53157315D01*
X88769747Y-53045511D01*
X88682935Y-52995391D01*
X88632816Y-52966454D01*
X88516955Y-52935408D01*
X88511447Y-52933357D01*
X88487992Y-52915814D01*
X88462975Y-52900566D01*
X88460333Y-52895129D01*
X88455495Y-52891510D01*
X88445246Y-52864070D01*
X88432446Y-52837719D01*
X88433135Y-52831644D01*
X88431049Y-52826057D01*
X88436753Y-52799778D01*
X88440167Y-52769704D01*
X88444383Y-52759528D01*
X88475146Y-52604873D01*
X88475146Y-52447189D01*
X88475146Y-52447187D01*
X88475146Y-52447186D01*
X88475145Y-52447184D01*
X88460576Y-52373943D01*
X88444383Y-52292534D01*
X88442016Y-52286819D01*
X88384042Y-52146856D01*
X88384040Y-52146853D01*
X88384040Y-52146852D01*
X88349340Y-52094920D01*
X88343366Y-52075844D01*
X88332859Y-52058833D01*
X88332864Y-52058560D01*
X90278290Y-52058560D01*
X90279934Y-52079470D01*
X90325048Y-52234755D01*
X90407358Y-52373934D01*
X90407365Y-52373943D01*
X90451730Y-52418308D01*
X90485215Y-52479631D01*
X90480231Y-52549323D01*
X90451731Y-52593669D01*
X90409553Y-52635847D01*
X90409545Y-52635857D01*
X90327235Y-52775036D01*
X90327233Y-52775041D01*
X90282122Y-52930313D01*
X90282121Y-52930319D01*
X90280476Y-52951231D01*
X90280477Y-52951232D01*
X90809267Y-52951232D01*
X90809267Y-52715351D01*
X90807080Y-52695011D01*
X90807080Y-52058560D01*
X90278290Y-52058560D01*
X88332864Y-52058560D01*
X88333138Y-52043181D01*
X88328462Y-52028246D01*
X88333750Y-52008967D01*
X88334108Y-51988975D01*
X88346124Y-51963862D01*
X88346946Y-51960866D01*
X88349315Y-51957178D01*
X88384040Y-51905210D01*
X88387879Y-51895943D01*
X88444381Y-51759532D01*
X88444383Y-51759528D01*
X88475146Y-51604873D01*
X88475146Y-51558559D01*
X90278289Y-51558559D01*
X90278290Y-51558560D01*
X90807080Y-51558560D01*
X90807080Y-51004054D01*
X90807078Y-51004053D01*
X90660889Y-51046525D01*
X90660886Y-51046527D01*
X90521705Y-51128838D01*
X90521696Y-51128845D01*
X90407365Y-51243176D01*
X90407358Y-51243185D01*
X90325048Y-51382364D01*
X90325046Y-51382369D01*
X90279935Y-51537641D01*
X90279934Y-51537647D01*
X90278289Y-51558559D01*
X88475146Y-51558559D01*
X88475146Y-51447189D01*
X88475146Y-51447186D01*
X88475145Y-51447184D01*
X88462251Y-51382364D01*
X88444383Y-51292534D01*
X88423942Y-51243185D01*
X88384043Y-51146858D01*
X88384039Y-51146851D01*
X88371738Y-51128441D01*
X88349039Y-51094469D01*
X88328162Y-51027794D01*
X88346646Y-50960414D01*
X88349041Y-50956688D01*
X88383597Y-50904971D01*
X88437007Y-50776031D01*
X87980457Y-50776031D01*
X87933009Y-50766593D01*
X87908143Y-50756294D01*
X87908136Y-50756292D01*
X87908135Y-50756292D01*
X87908134Y-50756291D01*
X87753491Y-50725531D01*
X87753488Y-50725531D01*
X86595804Y-50725531D01*
X86595801Y-50725531D01*
X86441157Y-50756291D01*
X86435326Y-50758061D01*
X86434987Y-50756946D01*
X86371704Y-50763737D01*
X86346293Y-50756273D01*
X86283501Y-50730264D01*
X86283489Y-50730261D01*
X86128845Y-50699500D01*
X86128842Y-50699500D01*
X85971158Y-50699500D01*
X85971155Y-50699500D01*
X85816511Y-50730260D01*
X85816506Y-50730262D01*
X85816504Y-50730262D01*
X85816503Y-50730263D01*
X85792844Y-50740062D01*
X85745396Y-50749500D01*
X83176080Y-50749500D01*
X83031092Y-50778340D01*
X83031086Y-50778342D01*
X82894508Y-50834914D01*
X82894496Y-50834921D01*
X82845269Y-50867813D01*
X82771588Y-50917044D01*
X82771580Y-50917050D01*
X81200451Y-52488181D01*
X81139128Y-52521666D01*
X81112770Y-52524500D01*
X77512229Y-52524500D01*
X77445190Y-52504815D01*
X77424548Y-52488181D01*
X77071072Y-52134705D01*
X77044191Y-52094473D01*
X77034397Y-52070828D01*
X77034396Y-52070826D01*
X77034394Y-52070821D01*
X77002987Y-52023817D01*
X76946789Y-51939710D01*
X76835292Y-51828213D01*
X76835288Y-51828210D01*
X76704185Y-51740609D01*
X76704172Y-51740602D01*
X76558501Y-51680264D01*
X76558489Y-51680261D01*
X76403845Y-51649500D01*
X76403842Y-51649500D01*
X76246158Y-51649500D01*
X76246155Y-51649500D01*
X76091510Y-51680261D01*
X76091498Y-51680264D01*
X75945827Y-51740602D01*
X75945814Y-51740609D01*
X75814711Y-51828210D01*
X75814707Y-51828213D01*
X75703213Y-51939707D01*
X75703210Y-51939711D01*
X75615609Y-52070814D01*
X75615602Y-52070827D01*
X75555264Y-52216498D01*
X75555261Y-52216510D01*
X75524500Y-52371153D01*
X75524500Y-52528846D01*
X75555261Y-52683489D01*
X75555264Y-52683501D01*
X75615602Y-52829172D01*
X75615609Y-52829185D01*
X75703210Y-52960288D01*
X75703213Y-52960292D01*
X75814710Y-53071789D01*
X75849333Y-53094923D01*
X75945821Y-53159394D01*
X75945826Y-53159396D01*
X75945828Y-53159397D01*
X75969473Y-53169191D01*
X76009705Y-53196072D01*
X76567049Y-53753416D01*
X76630169Y-53816536D01*
X76671585Y-53857952D01*
X76794498Y-53940080D01*
X76794511Y-53940087D01*
X76931082Y-53996656D01*
X76931087Y-53996658D01*
X76931091Y-53996658D01*
X76931092Y-53996659D01*
X77076079Y-54025500D01*
X77076082Y-54025500D01*
X81548920Y-54025500D01*
X81646462Y-54006096D01*
X81693913Y-53996658D01*
X81830495Y-53940084D01*
X81882688Y-53905210D01*
X81882688Y-53905209D01*
X81882690Y-53905209D01*
X81938530Y-53867898D01*
X81953416Y-53857952D01*
X83524549Y-52286819D01*
X83585872Y-52253334D01*
X83612230Y-52250500D01*
X85745395Y-52250500D01*
X85753570Y-52252126D01*
X85758649Y-52251210D01*
X85792847Y-52259939D01*
X85808349Y-52266360D01*
X85862753Y-52310200D01*
X85884818Y-52376494D01*
X85882515Y-52405110D01*
X85874146Y-52447187D01*
X85874146Y-52604877D01*
X85904907Y-52759520D01*
X85904910Y-52759532D01*
X85965248Y-52905203D01*
X85965255Y-52905216D01*
X85999950Y-52957140D01*
X86020828Y-53023817D01*
X86002344Y-53091198D01*
X85999950Y-53094922D01*
X85965255Y-53146845D01*
X85965248Y-53146858D01*
X85904910Y-53292529D01*
X85904907Y-53292541D01*
X85874146Y-53447184D01*
X85874146Y-53604877D01*
X85904907Y-53759520D01*
X85906677Y-53765355D01*
X85903925Y-53766189D01*
X85910149Y-53823390D01*
X85878955Y-53885909D01*
X85818912Y-53921639D01*
X85788091Y-53925531D01*
X85078026Y-53925531D01*
X84919911Y-53925531D01*
X84767184Y-53966454D01*
X84767183Y-53966454D01*
X84767181Y-53966455D01*
X84767178Y-53966456D01*
X84717065Y-53995390D01*
X84717064Y-53995391D01*
X84714868Y-53996659D01*
X84630254Y-54045510D01*
X84630251Y-54045512D01*
X83019481Y-55656282D01*
X83019477Y-55656287D01*
X82976207Y-55731235D01*
X82976207Y-55731236D01*
X82940423Y-55793214D01*
X82940423Y-55793215D01*
X82899499Y-55945943D01*
X82899499Y-55945945D01*
X82899499Y-56114046D01*
X82899500Y-56114059D01*
X82899500Y-57668059D01*
X82879815Y-57735098D01*
X82827011Y-57780853D01*
X82757853Y-57790797D01*
X82694297Y-57761772D01*
X82687819Y-57755740D01*
X82635292Y-57703213D01*
X82635288Y-57703210D01*
X82504185Y-57615609D01*
X82504172Y-57615602D01*
X82358501Y-57555264D01*
X82358489Y-57555261D01*
X82203845Y-57524500D01*
X82203842Y-57524500D01*
X82046158Y-57524500D01*
X82046155Y-57524500D01*
X81891510Y-57555261D01*
X81891498Y-57555264D01*
X81745827Y-57615602D01*
X81745814Y-57615609D01*
X81614711Y-57703210D01*
X81614707Y-57703213D01*
X81503213Y-57814707D01*
X81503210Y-57814711D01*
X81415609Y-57945814D01*
X81415602Y-57945827D01*
X81355264Y-58091498D01*
X81355261Y-58091510D01*
X81324500Y-58246153D01*
X81324500Y-58403846D01*
X81355261Y-58558489D01*
X81355264Y-58558501D01*
X81415602Y-58704172D01*
X81415609Y-58704185D01*
X81503210Y-58835288D01*
X81503213Y-58835292D01*
X81614707Y-58946786D01*
X81614711Y-58946789D01*
X81745814Y-59034390D01*
X81745827Y-59034397D01*
X81882959Y-59091198D01*
X81891503Y-59094737D01*
X81956147Y-59107595D01*
X82046849Y-59125638D01*
X82063605Y-59134402D01*
X82082085Y-59138423D01*
X82107123Y-59157167D01*
X82108760Y-59158023D01*
X82110339Y-59159574D01*
X82163181Y-59212416D01*
X82196666Y-59273739D01*
X82199500Y-59300097D01*
X82199500Y-60395234D01*
X82179815Y-60462273D01*
X82178602Y-60464125D01*
X82090609Y-60595814D01*
X82090602Y-60595827D01*
X82030264Y-60741498D01*
X82030261Y-60741510D01*
X81999500Y-60896153D01*
X81999500Y-61053846D01*
X82030261Y-61208489D01*
X82030264Y-61208501D01*
X82090602Y-61354172D01*
X82090609Y-61354185D01*
X82178210Y-61485288D01*
X82178213Y-61485292D01*
X82289707Y-61596786D01*
X82289712Y-61596790D01*
X82333453Y-61626016D01*
X82378259Y-61679627D01*
X82386968Y-61748952D01*
X82379126Y-61776569D01*
X82367763Y-61804002D01*
X82367760Y-61804011D01*
X82337000Y-61958653D01*
X82337000Y-62116346D01*
X82367761Y-62270989D01*
X82367764Y-62271001D01*
X82428102Y-62416672D01*
X82428109Y-62416685D01*
X82516102Y-62548374D01*
X82521752Y-62566420D01*
X82531977Y-62582330D01*
X82536428Y-62613289D01*
X82536980Y-62615051D01*
X82537000Y-62617265D01*
X82537000Y-62675830D01*
X82536999Y-62675848D01*
X82536999Y-62841554D01*
X82536998Y-62841554D01*
X82577923Y-62994286D01*
X82577924Y-62994287D01*
X82594404Y-63022831D01*
X82654275Y-63126531D01*
X82656981Y-63131217D01*
X82775849Y-63250085D01*
X82775855Y-63250090D01*
X83088181Y-63562416D01*
X83121666Y-63623739D01*
X83124500Y-63650097D01*
X83124500Y-64821967D01*
X83104815Y-64889006D01*
X83052011Y-64934761D01*
X82982853Y-64944705D01*
X82968413Y-64941743D01*
X82904057Y-64924499D01*
X82745943Y-64924499D01*
X82738347Y-64924499D01*
X82738331Y-64924500D01*
X70436669Y-64924500D01*
X70436653Y-64924499D01*
X70429057Y-64924499D01*
X70270943Y-64924499D01*
X70163587Y-64953265D01*
X70118210Y-64965424D01*
X70118209Y-64965425D01*
X70068096Y-64994359D01*
X70068095Y-64994360D01*
X70050501Y-65004518D01*
X69981285Y-65044479D01*
X69981282Y-65044481D01*
X69212181Y-65813583D01*
X69150858Y-65847068D01*
X69081166Y-65842084D01*
X69025233Y-65800212D01*
X69000816Y-65734748D01*
X69000500Y-65725902D01*
X69000500Y-60349848D01*
X69009939Y-60302395D01*
X69016374Y-60286860D01*
X69047137Y-60132205D01*
X69047137Y-59974521D01*
X69047137Y-59974518D01*
X69047136Y-59974516D01*
X69033349Y-59905203D01*
X69016374Y-59819866D01*
X69011190Y-59807350D01*
X68956034Y-59674190D01*
X68956027Y-59674177D01*
X68868426Y-59543074D01*
X68868423Y-59543070D01*
X68756929Y-59431576D01*
X68756925Y-59431573D01*
X68625822Y-59343972D01*
X68625809Y-59343965D01*
X68480138Y-59283627D01*
X68480126Y-59283624D01*
X68325482Y-59252863D01*
X68325479Y-59252863D01*
X68167795Y-59252863D01*
X68167792Y-59252863D01*
X68013147Y-59283624D01*
X68013135Y-59283627D01*
X67867464Y-59343965D01*
X67867451Y-59343972D01*
X67736348Y-59431573D01*
X67736344Y-59431576D01*
X67624850Y-59543070D01*
X67624847Y-59543074D01*
X67537246Y-59674177D01*
X67537239Y-59674190D01*
X67476901Y-59819861D01*
X67476898Y-59819873D01*
X67446137Y-59974516D01*
X67446137Y-60132209D01*
X67476898Y-60286852D01*
X67476901Y-60286864D01*
X67537239Y-60432535D01*
X67537246Y-60432548D01*
X67624847Y-60563651D01*
X67624850Y-60563655D01*
X67736345Y-60675150D01*
X67736348Y-60675152D01*
X67744387Y-60680523D01*
X67789194Y-60734132D01*
X67799500Y-60783627D01*
X67799500Y-65945234D01*
X67779815Y-66012273D01*
X67778602Y-66014125D01*
X67690609Y-66145814D01*
X67690602Y-66145827D01*
X67630264Y-66291498D01*
X67630261Y-66291510D01*
X67599500Y-66446153D01*
X67599500Y-66603846D01*
X67630261Y-66758489D01*
X67630264Y-66758501D01*
X67690602Y-66904172D01*
X67690609Y-66904185D01*
X67778210Y-67035288D01*
X67778213Y-67035292D01*
X67850983Y-67108062D01*
X67884468Y-67169385D01*
X67879484Y-67239077D01*
X67837612Y-67295010D01*
X67826505Y-67302427D01*
X67818909Y-67306926D01*
X67795467Y-67316637D01*
X67740309Y-67353492D01*
X67737398Y-67355217D01*
X67706663Y-67363039D01*
X67676406Y-67372513D01*
X67673055Y-67371593D01*
X67669687Y-67372451D01*
X67639606Y-67362416D01*
X67609026Y-67354027D01*
X67605305Y-67351636D01*
X67553586Y-67317079D01*
X67424646Y-67263670D01*
X67424646Y-67720220D01*
X67415208Y-67767667D01*
X67404909Y-67792534D01*
X67404908Y-67792538D01*
X67404907Y-67792541D01*
X67404906Y-67792542D01*
X67374146Y-67947184D01*
X67374146Y-69104877D01*
X67404907Y-69259520D01*
X67404909Y-69259528D01*
X67415207Y-69284389D01*
X67424646Y-69331842D01*
X67424646Y-69788391D01*
X67553581Y-69734985D01*
X67553593Y-69734978D01*
X67605305Y-69700426D01*
X67671982Y-69679548D01*
X67739362Y-69698032D01*
X67743087Y-69700426D01*
X67794794Y-69734975D01*
X67795467Y-69735425D01*
X67795469Y-69735426D01*
X67795473Y-69735428D01*
X67932711Y-69792273D01*
X67941149Y-69795768D01*
X67941151Y-69795768D01*
X67941153Y-69795769D01*
X67945787Y-69796690D01*
X67951592Y-69797845D01*
X67977210Y-69811244D01*
X68004057Y-69821992D01*
X68007794Y-69827240D01*
X68013504Y-69830227D01*
X68027812Y-69855351D01*
X68044586Y-69878906D01*
X68044892Y-69885342D01*
X68048081Y-69890941D01*
X68046534Y-69919813D01*
X68047911Y-69948696D01*
X68044537Y-69957123D01*
X68044345Y-69960711D01*
X68034794Y-69981462D01*
X68007935Y-70027984D01*
X67988228Y-70053666D01*
X67879498Y-70162395D01*
X67879492Y-70162403D01*
X67797760Y-70300605D01*
X67797758Y-70300610D01*
X67752964Y-70454790D01*
X67752963Y-70454796D01*
X67750129Y-70490810D01*
X67750129Y-70889168D01*
X67750130Y-70889190D01*
X67752964Y-70925202D01*
X67760431Y-70950903D01*
X67760232Y-71020772D01*
X67722291Y-71079443D01*
X67658653Y-71108287D01*
X67641355Y-71109499D01*
X66101670Y-71109499D01*
X66101654Y-71109498D01*
X66094058Y-71109498D01*
X65935944Y-71109498D01*
X65828588Y-71138264D01*
X65783211Y-71150423D01*
X65783210Y-71150424D01*
X65739930Y-71175413D01*
X65739929Y-71175414D01*
X65708357Y-71193642D01*
X65646286Y-71229478D01*
X65646283Y-71229480D01*
X62102900Y-74772864D01*
X62041577Y-74806349D01*
X61971885Y-74801365D01*
X61915952Y-74759493D01*
X61891535Y-74694029D01*
X61891477Y-74692413D01*
X61891219Y-74692155D01*
X60541219Y-74692155D01*
X60041219Y-74692155D01*
X58691219Y-74692155D01*
X58691219Y-75014999D01*
X57879700Y-75014999D01*
X57873701Y-74977120D01*
X57808012Y-74774951D01*
X57711506Y-74585547D01*
X57684594Y-74548505D01*
X57586564Y-74413576D01*
X57436241Y-74263253D01*
X57264275Y-74138314D01*
X57263570Y-74137954D01*
X57255509Y-74133848D01*
X57204714Y-74085875D01*
X57187918Y-74018055D01*
X57210454Y-73951919D01*
X57255509Y-73912878D01*
X57264271Y-73908414D01*
X57314851Y-73871666D01*
X57318094Y-73869310D01*
X58691219Y-73869310D01*
X58691219Y-74192155D01*
X60041219Y-74192155D01*
X60041219Y-73417155D01*
X59143374Y-73417155D01*
X59083846Y-73423556D01*
X59083839Y-73423558D01*
X58949132Y-73473800D01*
X58949125Y-73473804D01*
X58834031Y-73559964D01*
X58834028Y-73559967D01*
X58747868Y-73675061D01*
X58747864Y-73675068D01*
X58697622Y-73809775D01*
X58697620Y-73809782D01*
X58691219Y-73869310D01*
X57318094Y-73869310D01*
X57436241Y-73783472D01*
X57436243Y-73783469D01*
X57436247Y-73783467D01*
X57586559Y-73633155D01*
X57586561Y-73633151D01*
X57586564Y-73633149D01*
X57711503Y-73461183D01*
X57711502Y-73461183D01*
X57711506Y-73461179D01*
X57808012Y-73271775D01*
X57873701Y-73069606D01*
X57906955Y-72859650D01*
X57906955Y-72647076D01*
X57873701Y-72437120D01*
X57808012Y-72234951D01*
X57721417Y-72064999D01*
X58691219Y-72064999D01*
X58697620Y-72124527D01*
X58697622Y-72124534D01*
X58747864Y-72259241D01*
X58747868Y-72259248D01*
X58834028Y-72374342D01*
X58834031Y-72374345D01*
X58949125Y-72460505D01*
X58949132Y-72460509D01*
X59083839Y-72510751D01*
X59083846Y-72510753D01*
X59143374Y-72517154D01*
X59143391Y-72517155D01*
X60041219Y-72517155D01*
X60041219Y-71742155D01*
X58691219Y-71742155D01*
X58691219Y-72064999D01*
X57721417Y-72064999D01*
X57711506Y-72045547D01*
X57711504Y-72045544D01*
X57711503Y-72045542D01*
X57586564Y-71873576D01*
X57436241Y-71723253D01*
X57264275Y-71598314D01*
X57263570Y-71597954D01*
X57255509Y-71593848D01*
X57204714Y-71545875D01*
X57187918Y-71478055D01*
X57210454Y-71411919D01*
X57255509Y-71372878D01*
X57264271Y-71368414D01*
X57301614Y-71341283D01*
X57436241Y-71243472D01*
X57436243Y-71243469D01*
X57436247Y-71243467D01*
X57586559Y-71093155D01*
X57586561Y-71093151D01*
X57586564Y-71093149D01*
X57711505Y-70921180D01*
X57712458Y-70919310D01*
X58691219Y-70919310D01*
X58691219Y-71242155D01*
X60041219Y-71242155D01*
X60041219Y-70467155D01*
X59143374Y-70467155D01*
X59083846Y-70473556D01*
X59083839Y-70473558D01*
X58949132Y-70523800D01*
X58949125Y-70523804D01*
X58834031Y-70609964D01*
X58834028Y-70609967D01*
X58747868Y-70725061D01*
X58747864Y-70725068D01*
X58697622Y-70859775D01*
X58697620Y-70859782D01*
X58691219Y-70919310D01*
X57712458Y-70919310D01*
X57712957Y-70918332D01*
X57808012Y-70731775D01*
X57873701Y-70529606D01*
X57906955Y-70319650D01*
X57906955Y-70107076D01*
X57873701Y-69897120D01*
X57808012Y-69694951D01*
X57711506Y-69505547D01*
X57711504Y-69505544D01*
X57711503Y-69505542D01*
X57586564Y-69333576D01*
X57436241Y-69183253D01*
X57264275Y-69058314D01*
X57263570Y-69057954D01*
X57255509Y-69053848D01*
X57204714Y-69005875D01*
X57187918Y-68938055D01*
X57210454Y-68871919D01*
X57255509Y-68832878D01*
X57264271Y-68828414D01*
X57336371Y-68776031D01*
X57436241Y-68703472D01*
X57436243Y-68703469D01*
X57436247Y-68703467D01*
X57586559Y-68553155D01*
X57586561Y-68553151D01*
X57586564Y-68553149D01*
X57711503Y-68381183D01*
X57711502Y-68381183D01*
X57711506Y-68381179D01*
X57738065Y-68329054D01*
X60149498Y-68329054D01*
X60190423Y-68481786D01*
X60190424Y-68481787D01*
X60199509Y-68497523D01*
X60206904Y-68510331D01*
X60231628Y-68553155D01*
X60269481Y-68618717D01*
X60490426Y-68839662D01*
X60523911Y-68900985D01*
X60524362Y-68903151D01*
X60555261Y-69058491D01*
X60555264Y-69058501D01*
X60615602Y-69204172D01*
X60615609Y-69204185D01*
X60703210Y-69335288D01*
X60703213Y-69335292D01*
X60814707Y-69446786D01*
X60814711Y-69446789D01*
X60945814Y-69534390D01*
X60945827Y-69534397D01*
X61088941Y-69593676D01*
X61091503Y-69594737D01*
X61189993Y-69614328D01*
X61249691Y-69626203D01*
X61311602Y-69658588D01*
X61346176Y-69719303D01*
X61349500Y-69747820D01*
X61349500Y-70343155D01*
X61329815Y-70410194D01*
X61277011Y-70455949D01*
X61225500Y-70467155D01*
X60541219Y-70467155D01*
X60541219Y-72517155D01*
X60691719Y-72517155D01*
X60758758Y-72536840D01*
X60804513Y-72589644D01*
X60815719Y-72641155D01*
X60815720Y-73293155D01*
X60796036Y-73360194D01*
X60743232Y-73405949D01*
X60691720Y-73417155D01*
X60541219Y-73417155D01*
X60541219Y-74192155D01*
X61891219Y-74192155D01*
X61891219Y-74116654D01*
X61910904Y-74049615D01*
X61963708Y-74003860D01*
X62015217Y-73992654D01*
X62364091Y-73992654D01*
X62423702Y-73986246D01*
X62558550Y-73935951D01*
X62673765Y-73849701D01*
X62760015Y-73734486D01*
X62810310Y-73599638D01*
X62816719Y-73540028D01*
X62816718Y-72394283D01*
X62810310Y-72334672D01*
X62804500Y-72319095D01*
X62760016Y-72199826D01*
X62760012Y-72199819D01*
X62673766Y-72084610D01*
X62600188Y-72029528D01*
X62558317Y-71973593D01*
X62550500Y-71930262D01*
X62550500Y-69104828D01*
X66374646Y-69104828D01*
X66405387Y-69259374D01*
X66405389Y-69259382D01*
X66465693Y-69404970D01*
X66465698Y-69404979D01*
X66553244Y-69536000D01*
X66553247Y-69536004D01*
X66664672Y-69647429D01*
X66664680Y-69647435D01*
X66795693Y-69734975D01*
X66795711Y-69734985D01*
X66924645Y-69788391D01*
X66924646Y-69788391D01*
X66924646Y-68776031D01*
X66374646Y-68776031D01*
X66374646Y-69104828D01*
X62550500Y-69104828D01*
X62550500Y-67947233D01*
X66374646Y-67947233D01*
X66374646Y-68276031D01*
X66924646Y-68276031D01*
X66924646Y-67263670D01*
X66924645Y-67263670D01*
X66795707Y-67317078D01*
X66795697Y-67317083D01*
X66664676Y-67404629D01*
X66664672Y-67404632D01*
X66553247Y-67516057D01*
X66553244Y-67516061D01*
X66465698Y-67647082D01*
X66465693Y-67647091D01*
X66405389Y-67792679D01*
X66405387Y-67792687D01*
X66374646Y-67947233D01*
X62550500Y-67947233D01*
X62550500Y-67278269D01*
X62570185Y-67211230D01*
X62622989Y-67165475D01*
X62692147Y-67155531D01*
X62755703Y-67184556D01*
X62774292Y-67205626D01*
X62774347Y-67205581D01*
X62775609Y-67207119D01*
X62777603Y-67209379D01*
X62778212Y-67210291D01*
X62889707Y-67321786D01*
X62889711Y-67321789D01*
X63020814Y-67409390D01*
X63020827Y-67409397D01*
X63166498Y-67469735D01*
X63166503Y-67469737D01*
X63290758Y-67494453D01*
X63321153Y-67500499D01*
X63321156Y-67500500D01*
X63321158Y-67500500D01*
X63478844Y-67500500D01*
X63478845Y-67500499D01*
X63633497Y-67469737D01*
X63779179Y-67409394D01*
X63910289Y-67321789D01*
X64021789Y-67210289D01*
X64049120Y-67169385D01*
X64081138Y-67121467D01*
X64096557Y-67102678D01*
X64097155Y-67102080D01*
X64130520Y-67068716D01*
X64130521Y-67068713D01*
X64662415Y-66536820D01*
X64723738Y-66503335D01*
X64750096Y-66500501D01*
X64904054Y-66500501D01*
X64904057Y-66500501D01*
X65056785Y-66459577D01*
X65122206Y-66421806D01*
X65193716Y-66380520D01*
X65305520Y-66268716D01*
X65305520Y-66268714D01*
X65315724Y-66258511D01*
X65315728Y-66258506D01*
X65634624Y-65939609D01*
X65695945Y-65906126D01*
X65746491Y-65905675D01*
X65817558Y-65919811D01*
X65846157Y-65925500D01*
X65846158Y-65925500D01*
X66003844Y-65925500D01*
X66003845Y-65925499D01*
X66158497Y-65894737D01*
X66287789Y-65841183D01*
X66304172Y-65834397D01*
X66304172Y-65834396D01*
X66304179Y-65834394D01*
X66435289Y-65746789D01*
X66546789Y-65635289D01*
X66634394Y-65504179D01*
X66694737Y-65358497D01*
X66725500Y-65203842D01*
X66725500Y-65046158D01*
X66725500Y-65046155D01*
X66725499Y-65046153D01*
X66717217Y-65004518D01*
X66694737Y-64891503D01*
X66681628Y-64859855D01*
X66634397Y-64745827D01*
X66634390Y-64745814D01*
X66546789Y-64614711D01*
X66546786Y-64614707D01*
X66435292Y-64503213D01*
X66435288Y-64503210D01*
X66304185Y-64415609D01*
X66304172Y-64415602D01*
X66158501Y-64355264D01*
X66158489Y-64355261D01*
X66003845Y-64324500D01*
X66003842Y-64324500D01*
X65846158Y-64324500D01*
X65846155Y-64324500D01*
X65691510Y-64355261D01*
X65691498Y-64355264D01*
X65545827Y-64415602D01*
X65545814Y-64415609D01*
X65414714Y-64503208D01*
X65414709Y-64503212D01*
X65342570Y-64575350D01*
X65316890Y-64595055D01*
X65231287Y-64644478D01*
X65231281Y-64644482D01*
X64612585Y-65263180D01*
X64587757Y-65276737D01*
X64564589Y-65292977D01*
X64555185Y-65294522D01*
X64551262Y-65296665D01*
X64529884Y-65299399D01*
X64527396Y-65299499D01*
X64370943Y-65299499D01*
X64343334Y-65306896D01*
X64329546Y-65307451D01*
X64308498Y-65302179D01*
X64286806Y-65301662D01*
X64275276Y-65293858D01*
X64261770Y-65290475D01*
X64246911Y-65274657D01*
X64228945Y-65262497D01*
X64223465Y-65249700D01*
X64213931Y-65239551D01*
X64209982Y-65218213D01*
X64201442Y-65198268D01*
X64203751Y-65184537D01*
X64201218Y-65170847D01*
X64209431Y-65150763D01*
X64213031Y-65129366D01*
X64225136Y-65112367D01*
X64227668Y-65106177D01*
X64231414Y-65103550D01*
X64236882Y-65095872D01*
X64296435Y-65036320D01*
X64384040Y-64905210D01*
X64444383Y-64759528D01*
X64475146Y-64604873D01*
X64475146Y-64447189D01*
X64475146Y-64447186D01*
X64475145Y-64447184D01*
X64444383Y-64292534D01*
X64421852Y-64238138D01*
X64384043Y-64146858D01*
X64384039Y-64146851D01*
X64382160Y-64144039D01*
X64349039Y-64094469D01*
X64328162Y-64027794D01*
X64346646Y-63960414D01*
X64349041Y-63956688D01*
X64383597Y-63904971D01*
X64437007Y-63776031D01*
X63980457Y-63776031D01*
X63933009Y-63766593D01*
X63908143Y-63756294D01*
X63908136Y-63756292D01*
X63908135Y-63756292D01*
X63908134Y-63756291D01*
X63753491Y-63725531D01*
X63753488Y-63725531D01*
X63298646Y-63725531D01*
X63289960Y-63722980D01*
X63280999Y-63724269D01*
X63256958Y-63713290D01*
X63231607Y-63705846D01*
X63225679Y-63699005D01*
X63217443Y-63695244D01*
X63203153Y-63673009D01*
X63185852Y-63653042D01*
X63183564Y-63642527D01*
X63179669Y-63636466D01*
X63174646Y-63601531D01*
X63174646Y-63450531D01*
X63194331Y-63383492D01*
X63247135Y-63337737D01*
X63298646Y-63326531D01*
X63753490Y-63326531D01*
X63753491Y-63326530D01*
X63829798Y-63311351D01*
X63908134Y-63295770D01*
X63908134Y-63295769D01*
X63908143Y-63295768D01*
X63933009Y-63285468D01*
X63980457Y-63276031D01*
X64437007Y-63276031D01*
X64437006Y-63276030D01*
X64383598Y-63147092D01*
X64383596Y-63147088D01*
X64349040Y-63095372D01*
X64328162Y-63028695D01*
X64346646Y-62961314D01*
X64349013Y-62957631D01*
X64384040Y-62905210D01*
X64444383Y-62759528D01*
X64475146Y-62604873D01*
X64475146Y-62447189D01*
X64475146Y-62447186D01*
X64475145Y-62447184D01*
X64461259Y-62377377D01*
X64444383Y-62292534D01*
X64435459Y-62270989D01*
X64384042Y-62146856D01*
X64384040Y-62146853D01*
X64384040Y-62146852D01*
X64349340Y-62094920D01*
X64328462Y-62028246D01*
X64346946Y-61960866D01*
X64349322Y-61957167D01*
X64384040Y-61905210D01*
X64444383Y-61759528D01*
X64475146Y-61604873D01*
X64475146Y-61447189D01*
X64475146Y-61447186D01*
X64475145Y-61447184D01*
X64464484Y-61393590D01*
X64444383Y-61292534D01*
X64409539Y-61208413D01*
X64384042Y-61146856D01*
X64384040Y-61146853D01*
X64384040Y-61146852D01*
X64349340Y-61094920D01*
X64328462Y-61028246D01*
X64346946Y-60960866D01*
X64349322Y-60957167D01*
X64384040Y-60905210D01*
X64444383Y-60759528D01*
X64475146Y-60604873D01*
X64475146Y-60447189D01*
X64475146Y-60447186D01*
X64475145Y-60447184D01*
X64472234Y-60432548D01*
X64444383Y-60292534D01*
X64444381Y-60292529D01*
X64384043Y-60146858D01*
X64384039Y-60146851D01*
X64384035Y-60146845D01*
X64349039Y-60094469D01*
X64328162Y-60027794D01*
X64346646Y-59960414D01*
X64349041Y-59956688D01*
X64383597Y-59904971D01*
X64437007Y-59776031D01*
X63980457Y-59776031D01*
X63933009Y-59766593D01*
X63908143Y-59756294D01*
X63908136Y-59756292D01*
X63908135Y-59756292D01*
X63908134Y-59756291D01*
X63753491Y-59725531D01*
X63753488Y-59725531D01*
X62595804Y-59725531D01*
X62595801Y-59725531D01*
X62441157Y-59756291D01*
X62441156Y-59756292D01*
X62441153Y-59756293D01*
X62441149Y-59756294D01*
X62416282Y-59766593D01*
X62368835Y-59776031D01*
X61912285Y-59776031D01*
X61965694Y-59904971D01*
X62000251Y-59956690D01*
X62021128Y-60023368D01*
X62002643Y-60090748D01*
X62000252Y-60094468D01*
X61965256Y-60146845D01*
X61965248Y-60146859D01*
X61904910Y-60292529D01*
X61904907Y-60292541D01*
X61874146Y-60447184D01*
X61874146Y-60604877D01*
X61904907Y-60759520D01*
X61904910Y-60759532D01*
X61965248Y-60905203D01*
X61965255Y-60905216D01*
X61999950Y-60957140D01*
X62020828Y-61023817D01*
X62002344Y-61091198D01*
X61999950Y-61094922D01*
X61965255Y-61146845D01*
X61965248Y-61146858D01*
X61904910Y-61292529D01*
X61904907Y-61292541D01*
X61874146Y-61447184D01*
X61874146Y-61604877D01*
X61904907Y-61759520D01*
X61904910Y-61759532D01*
X61965248Y-61905203D01*
X61965255Y-61905216D01*
X61999950Y-61957140D01*
X62020828Y-62023817D01*
X62002344Y-62091198D01*
X61999950Y-62094922D01*
X61965255Y-62146845D01*
X61965248Y-62146858D01*
X61904910Y-62292529D01*
X61904907Y-62292541D01*
X61874146Y-62447184D01*
X61874146Y-62604877D01*
X61904907Y-62759520D01*
X61904910Y-62759532D01*
X61965248Y-62905203D01*
X61965255Y-62905216D01*
X62000250Y-62957589D01*
X62021128Y-63024267D01*
X62002644Y-63091647D01*
X62000252Y-63095368D01*
X61965694Y-63147089D01*
X61905389Y-63292679D01*
X61905386Y-63292689D01*
X61903455Y-63302397D01*
X61871068Y-63364307D01*
X61810351Y-63398879D01*
X61740581Y-63395136D01*
X61734387Y-63392762D01*
X61583501Y-63330264D01*
X61583489Y-63330261D01*
X61428845Y-63299500D01*
X61428842Y-63299500D01*
X61271158Y-63299500D01*
X61271155Y-63299500D01*
X61116510Y-63330261D01*
X61116498Y-63330264D01*
X60970827Y-63390602D01*
X60970814Y-63390609D01*
X60839711Y-63478210D01*
X60839707Y-63478213D01*
X60728213Y-63589707D01*
X60728210Y-63589711D01*
X60640609Y-63720814D01*
X60640602Y-63720827D01*
X60580264Y-63866498D01*
X60580261Y-63866508D01*
X60549362Y-64021848D01*
X60540596Y-64038605D01*
X60536577Y-64057082D01*
X60517832Y-64082123D01*
X60516977Y-64083759D01*
X60515427Y-64085337D01*
X60463889Y-64136875D01*
X60381286Y-64219478D01*
X60381285Y-64219478D01*
X60381284Y-64219479D01*
X60269481Y-64331282D01*
X60269480Y-64331284D01*
X60237726Y-64386284D01*
X60190423Y-64468215D01*
X60149499Y-64620943D01*
X60149499Y-64779057D01*
X60149499Y-64779059D01*
X60149500Y-64789053D01*
X60149500Y-68163330D01*
X60149499Y-68163348D01*
X60149499Y-68329054D01*
X60149498Y-68329054D01*
X57738065Y-68329054D01*
X57808012Y-68191775D01*
X57873701Y-67989606D01*
X57906955Y-67779650D01*
X57906955Y-67567076D01*
X57873701Y-67357120D01*
X57808012Y-67154951D01*
X57711506Y-66965547D01*
X57711504Y-66965544D01*
X57711503Y-66965542D01*
X57586564Y-66793576D01*
X57436241Y-66643253D01*
X57264275Y-66518314D01*
X57263570Y-66517954D01*
X57255509Y-66513848D01*
X57204714Y-66465875D01*
X57187918Y-66398055D01*
X57210454Y-66331919D01*
X57255509Y-66292878D01*
X57264271Y-66288414D01*
X57305443Y-66258501D01*
X57436241Y-66163472D01*
X57436243Y-66163469D01*
X57436247Y-66163467D01*
X57586559Y-66013155D01*
X57586561Y-66013151D01*
X57586564Y-66013149D01*
X57711503Y-65841183D01*
X57711502Y-65841183D01*
X57711506Y-65841179D01*
X57808012Y-65651775D01*
X57873701Y-65449606D01*
X57906955Y-65239650D01*
X57906955Y-65027076D01*
X57873701Y-64817120D01*
X57808012Y-64614951D01*
X57711506Y-64425547D01*
X57711504Y-64425544D01*
X57711503Y-64425542D01*
X57586564Y-64253576D01*
X57436241Y-64103253D01*
X57264275Y-63978314D01*
X57263570Y-63977954D01*
X57255509Y-63973848D01*
X57204714Y-63925875D01*
X57187918Y-63858055D01*
X57210454Y-63791919D01*
X57255509Y-63752878D01*
X57264271Y-63748414D01*
X57302250Y-63720821D01*
X57436241Y-63623472D01*
X57436243Y-63623469D01*
X57436247Y-63623467D01*
X57586559Y-63473155D01*
X57586561Y-63473151D01*
X57586564Y-63473149D01*
X57711503Y-63301183D01*
X57711502Y-63301183D01*
X57711506Y-63301179D01*
X57808012Y-63111775D01*
X57873701Y-62909606D01*
X57906955Y-62699650D01*
X57906955Y-62487076D01*
X57873701Y-62277120D01*
X57808012Y-62074951D01*
X57711506Y-61885547D01*
X57711504Y-61885544D01*
X57711503Y-61885542D01*
X57586564Y-61713576D01*
X57436241Y-61563253D01*
X57264275Y-61438314D01*
X57263570Y-61437954D01*
X57255509Y-61433848D01*
X57204714Y-61385875D01*
X57187918Y-61318055D01*
X57210454Y-61251919D01*
X57255509Y-61212878D01*
X57264271Y-61208414D01*
X57324875Y-61164383D01*
X57436241Y-61083472D01*
X57436243Y-61083469D01*
X57436247Y-61083467D01*
X57586559Y-60933155D01*
X57586561Y-60933151D01*
X57586564Y-60933149D01*
X57711503Y-60761183D01*
X57711504Y-60761182D01*
X57711506Y-60761179D01*
X57808012Y-60571775D01*
X57873701Y-60369606D01*
X57906955Y-60159650D01*
X57906955Y-59947076D01*
X57873701Y-59737120D01*
X57808012Y-59534951D01*
X57711506Y-59345547D01*
X57711504Y-59345544D01*
X57711503Y-59345542D01*
X57586564Y-59173576D01*
X57436241Y-59023253D01*
X57264275Y-58898314D01*
X57074869Y-58801807D01*
X57074868Y-58801806D01*
X57074867Y-58801806D01*
X56872698Y-58736117D01*
X56872696Y-58736116D01*
X56872695Y-58736116D01*
X56711412Y-58710571D01*
X56662742Y-58702863D01*
X56450168Y-58702863D01*
X56401497Y-58710571D01*
X56240215Y-58736116D01*
X56038040Y-58801807D01*
X55848634Y-58898314D01*
X55676668Y-59023253D01*
X55526345Y-59173576D01*
X55401406Y-59345542D01*
X55304899Y-59534948D01*
X55239208Y-59737123D01*
X55205955Y-59947076D01*
X54247467Y-59947076D01*
X54236687Y-49447184D01*
X61874146Y-49447184D01*
X61874146Y-49604877D01*
X61904907Y-49759520D01*
X61904910Y-49759532D01*
X61965248Y-49905203D01*
X61965255Y-49905216D01*
X61999950Y-49957140D01*
X62020828Y-50023817D01*
X62002344Y-50091198D01*
X61999950Y-50094922D01*
X61965255Y-50146845D01*
X61965248Y-50146858D01*
X61904910Y-50292529D01*
X61904907Y-50292541D01*
X61874146Y-50447184D01*
X61874146Y-50604877D01*
X61904907Y-50759520D01*
X61904910Y-50759532D01*
X61965248Y-50905203D01*
X61965255Y-50905216D01*
X61999950Y-50957140D01*
X62020828Y-51023817D01*
X62002344Y-51091198D01*
X61999950Y-51094922D01*
X61965255Y-51146845D01*
X61965248Y-51146858D01*
X61904910Y-51292529D01*
X61904907Y-51292541D01*
X61874146Y-51447184D01*
X61874146Y-51604877D01*
X61904907Y-51759520D01*
X61904910Y-51759532D01*
X61965248Y-51905203D01*
X61965255Y-51905216D01*
X61999950Y-51957140D01*
X62020828Y-52023817D01*
X62002344Y-52091198D01*
X61999950Y-52094922D01*
X61965255Y-52146845D01*
X61965248Y-52146858D01*
X61904910Y-52292529D01*
X61904907Y-52292541D01*
X61874146Y-52447184D01*
X61874146Y-52604877D01*
X61904907Y-52759520D01*
X61904910Y-52759532D01*
X61965248Y-52905203D01*
X61965255Y-52905216D01*
X61999950Y-52957140D01*
X62020828Y-53023817D01*
X62002344Y-53091198D01*
X61999950Y-53094922D01*
X61965255Y-53146845D01*
X61965248Y-53146858D01*
X61904910Y-53292529D01*
X61904907Y-53292541D01*
X61874146Y-53447184D01*
X61874146Y-53604877D01*
X61904907Y-53759520D01*
X61904910Y-53759532D01*
X61965248Y-53905203D01*
X61965255Y-53905216D01*
X61999950Y-53957140D01*
X62020828Y-54023817D01*
X62002344Y-54091198D01*
X61999950Y-54094922D01*
X61965255Y-54146845D01*
X61965248Y-54146858D01*
X61904910Y-54292529D01*
X61904907Y-54292541D01*
X61874146Y-54447184D01*
X61874146Y-54604877D01*
X61904907Y-54759520D01*
X61904910Y-54759532D01*
X61965248Y-54905203D01*
X61965255Y-54905216D01*
X61999950Y-54957140D01*
X62020828Y-55023817D01*
X62002344Y-55091198D01*
X61999950Y-55094922D01*
X61965255Y-55146845D01*
X61965248Y-55146858D01*
X61904910Y-55292529D01*
X61904907Y-55292541D01*
X61874146Y-55447184D01*
X61874146Y-55604877D01*
X61904907Y-55759520D01*
X61904910Y-55759532D01*
X61965248Y-55905203D01*
X61965255Y-55905216D01*
X61999950Y-55957140D01*
X62020828Y-56023817D01*
X62002344Y-56091198D01*
X61999950Y-56094922D01*
X61965255Y-56146845D01*
X61965248Y-56146858D01*
X61904910Y-56292529D01*
X61904907Y-56292541D01*
X61874146Y-56447184D01*
X61874146Y-56604877D01*
X61904907Y-56759520D01*
X61904910Y-56759532D01*
X61965248Y-56905203D01*
X61965255Y-56905216D01*
X61999950Y-56957140D01*
X62020828Y-57023817D01*
X62002344Y-57091198D01*
X61999950Y-57094922D01*
X61965255Y-57146845D01*
X61965248Y-57146858D01*
X61904910Y-57292529D01*
X61904907Y-57292541D01*
X61874146Y-57447184D01*
X61874146Y-57604877D01*
X61904907Y-57759520D01*
X61904910Y-57759532D01*
X61965248Y-57905203D01*
X61965255Y-57905216D01*
X61999950Y-57957140D01*
X62020828Y-58023817D01*
X62002344Y-58091198D01*
X61999950Y-58094922D01*
X61965255Y-58146845D01*
X61965248Y-58146858D01*
X61904910Y-58292529D01*
X61904907Y-58292541D01*
X61874146Y-58447184D01*
X61874146Y-58604877D01*
X61904907Y-58759520D01*
X61904910Y-58759532D01*
X61965248Y-58905203D01*
X61965255Y-58905216D01*
X62000250Y-58957589D01*
X62021128Y-59024267D01*
X62002644Y-59091647D01*
X62000252Y-59095368D01*
X61965694Y-59147089D01*
X61912285Y-59276030D01*
X61912285Y-59276031D01*
X62368835Y-59276031D01*
X62416282Y-59285468D01*
X62441149Y-59295768D01*
X62441156Y-59295769D01*
X62441157Y-59295770D01*
X62595799Y-59326530D01*
X62595802Y-59326531D01*
X62595804Y-59326531D01*
X63753490Y-59326531D01*
X63753491Y-59326530D01*
X63829798Y-59311351D01*
X63908134Y-59295770D01*
X63908134Y-59295769D01*
X63908143Y-59295768D01*
X63933009Y-59285468D01*
X63980457Y-59276031D01*
X64437007Y-59276031D01*
X64437006Y-59276030D01*
X64383598Y-59147092D01*
X64383596Y-59147088D01*
X64349040Y-59095372D01*
X64328162Y-59028695D01*
X64346646Y-58961314D01*
X64349013Y-58957631D01*
X64384040Y-58905210D01*
X64444383Y-58759528D01*
X64475146Y-58604873D01*
X64475146Y-58447189D01*
X64475146Y-58447186D01*
X64475145Y-58447184D01*
X64458317Y-58362584D01*
X64444383Y-58292534D01*
X64425172Y-58246153D01*
X64384042Y-58146856D01*
X64384040Y-58146853D01*
X64384040Y-58146852D01*
X64349340Y-58094920D01*
X64328462Y-58028246D01*
X64346946Y-57960866D01*
X64349322Y-57957167D01*
X64384040Y-57905210D01*
X64444383Y-57759528D01*
X64475146Y-57604873D01*
X64475146Y-57447189D01*
X64475146Y-57447187D01*
X64475146Y-57447186D01*
X64475145Y-57447184D01*
X64451672Y-57329179D01*
X64444383Y-57292534D01*
X64420434Y-57234716D01*
X64384042Y-57146856D01*
X64384040Y-57146853D01*
X64384040Y-57146852D01*
X64349340Y-57094920D01*
X64328462Y-57028246D01*
X64346946Y-56960866D01*
X64349322Y-56957167D01*
X64384040Y-56905210D01*
X64444383Y-56759528D01*
X64475146Y-56604873D01*
X64475146Y-56447189D01*
X64475146Y-56447186D01*
X64475145Y-56447184D01*
X64474122Y-56442040D01*
X64444383Y-56292534D01*
X64441456Y-56285467D01*
X64384042Y-56146856D01*
X64384040Y-56146853D01*
X64384040Y-56146852D01*
X64349340Y-56094920D01*
X64328462Y-56028246D01*
X64346946Y-55960866D01*
X64349322Y-55957167D01*
X64384040Y-55905210D01*
X64444383Y-55759528D01*
X64475146Y-55604873D01*
X64475146Y-55447189D01*
X64475146Y-55447186D01*
X64475145Y-55447184D01*
X64444384Y-55292541D01*
X64444383Y-55292534D01*
X64423607Y-55242376D01*
X64384042Y-55146856D01*
X64384040Y-55146853D01*
X64384040Y-55146852D01*
X64349340Y-55094920D01*
X64328462Y-55028246D01*
X64346946Y-54960866D01*
X64349322Y-54957167D01*
X64384040Y-54905210D01*
X64444383Y-54759528D01*
X64475146Y-54604873D01*
X64475146Y-54447189D01*
X64475146Y-54447186D01*
X64475145Y-54447184D01*
X64461885Y-54380521D01*
X64444383Y-54292534D01*
X64434517Y-54268716D01*
X64384042Y-54146856D01*
X64384040Y-54146853D01*
X64384040Y-54146852D01*
X64349340Y-54094920D01*
X64328462Y-54028246D01*
X64346946Y-53960866D01*
X64349322Y-53957167D01*
X64384040Y-53905210D01*
X64444383Y-53759528D01*
X64475146Y-53604873D01*
X64475146Y-53447189D01*
X64475146Y-53447186D01*
X64475145Y-53447184D01*
X64444384Y-53292541D01*
X64444383Y-53292534D01*
X64406565Y-53201232D01*
X64384042Y-53146856D01*
X64384040Y-53146853D01*
X64384040Y-53146852D01*
X64349340Y-53094920D01*
X64328462Y-53028246D01*
X64346946Y-52960866D01*
X64349322Y-52957167D01*
X64384040Y-52905210D01*
X64444383Y-52759528D01*
X64475146Y-52604873D01*
X64475146Y-52447189D01*
X64475146Y-52447187D01*
X64475146Y-52447186D01*
X64475145Y-52447184D01*
X64460576Y-52373943D01*
X64444383Y-52292534D01*
X64442016Y-52286819D01*
X64384042Y-52146856D01*
X64384040Y-52146853D01*
X64384040Y-52146852D01*
X64349340Y-52094920D01*
X64328462Y-52028246D01*
X64346946Y-51960866D01*
X64349322Y-51957167D01*
X64384040Y-51905210D01*
X64444383Y-51759528D01*
X64475146Y-51604873D01*
X64475146Y-51447189D01*
X64475146Y-51447186D01*
X64475145Y-51447184D01*
X64462251Y-51382364D01*
X64444383Y-51292534D01*
X64444378Y-51292523D01*
X64442615Y-51286707D01*
X64445366Y-51285872D01*
X64439143Y-51228672D01*
X64470337Y-51166153D01*
X64530380Y-51130423D01*
X64561201Y-51126531D01*
X67650934Y-51126531D01*
X67717973Y-51146216D01*
X67738615Y-51162850D01*
X68763181Y-52187416D01*
X68796666Y-52248739D01*
X68799500Y-52275097D01*
X68799500Y-58488330D01*
X68799499Y-58488348D01*
X68799499Y-58654054D01*
X68799498Y-58654054D01*
X68799499Y-58654057D01*
X68840423Y-58806785D01*
X68840424Y-58806787D01*
X68840423Y-58806787D01*
X68853986Y-58830277D01*
X68853987Y-58830279D01*
X68919475Y-58943709D01*
X68919481Y-58943717D01*
X69038349Y-59062585D01*
X69038355Y-59062590D01*
X69265425Y-59289660D01*
X69298910Y-59350983D01*
X69299361Y-59353149D01*
X69330261Y-59508491D01*
X69330264Y-59508501D01*
X69390602Y-59654172D01*
X69390609Y-59654185D01*
X69478210Y-59785288D01*
X69478213Y-59785292D01*
X69589707Y-59896786D01*
X69589711Y-59896789D01*
X69720814Y-59984390D01*
X69720827Y-59984397D01*
X69866498Y-60044735D01*
X69866503Y-60044737D01*
X70021153Y-60075499D01*
X70021156Y-60075500D01*
X70021158Y-60075500D01*
X70178844Y-60075500D01*
X70178845Y-60075499D01*
X70333497Y-60044737D01*
X70479179Y-59984394D01*
X70610289Y-59896789D01*
X70721789Y-59785289D01*
X70809394Y-59654179D01*
X70869737Y-59508497D01*
X70900500Y-59353842D01*
X70900500Y-59196158D01*
X70900500Y-59196155D01*
X70900499Y-59196153D01*
X70890740Y-59147092D01*
X70869737Y-59041503D01*
X70862178Y-59023253D01*
X70809397Y-58895827D01*
X70809390Y-58895814D01*
X70721789Y-58764711D01*
X70721786Y-58764707D01*
X70610292Y-58653213D01*
X70610288Y-58653210D01*
X70479185Y-58565609D01*
X70479172Y-58565602D01*
X70333501Y-58505264D01*
X70333491Y-58505261D01*
X70178149Y-58474361D01*
X70161392Y-58465595D01*
X70142914Y-58461576D01*
X70117877Y-58442833D01*
X70116238Y-58441976D01*
X70114660Y-58440425D01*
X70036819Y-58362584D01*
X70003334Y-58301261D01*
X70000500Y-58274903D01*
X70000500Y-52064060D01*
X70000501Y-52064047D01*
X70000501Y-51895944D01*
X69982352Y-51828211D01*
X69959577Y-51743216D01*
X69923232Y-51680264D01*
X69880524Y-51606290D01*
X69880518Y-51606282D01*
X68550265Y-50276030D01*
X85912285Y-50276030D01*
X85912285Y-50276031D01*
X86924646Y-50276031D01*
X87424646Y-50276031D01*
X88437007Y-50276031D01*
X88437006Y-50276030D01*
X88383599Y-50147093D01*
X88348739Y-50094923D01*
X88327861Y-50028245D01*
X88346345Y-49960865D01*
X88348739Y-49957139D01*
X88383599Y-49904968D01*
X88437007Y-49776031D01*
X87424646Y-49776031D01*
X87424646Y-50276031D01*
X86924646Y-50276031D01*
X86924646Y-49776031D01*
X85912285Y-49776031D01*
X85965693Y-49904969D01*
X85965701Y-49904984D01*
X86000551Y-49957141D01*
X86021429Y-50023818D01*
X86002944Y-50091198D01*
X86000551Y-50094921D01*
X85965701Y-50147077D01*
X85965693Y-50147092D01*
X85912285Y-50276030D01*
X68550265Y-50276030D01*
X68437590Y-50163355D01*
X68437588Y-50163352D01*
X68318717Y-50044481D01*
X68318716Y-50044480D01*
X68231904Y-49994360D01*
X68231904Y-49994359D01*
X68231900Y-49994358D01*
X68181785Y-49965423D01*
X68029057Y-49924499D01*
X67870943Y-49924499D01*
X67864503Y-49924499D01*
X67864446Y-49924500D01*
X67820943Y-49924500D01*
X67817871Y-49925322D01*
X67807174Y-49925512D01*
X67806807Y-49925411D01*
X67804983Y-49925531D01*
X64561201Y-49925531D01*
X64494162Y-49905846D01*
X64448407Y-49853042D01*
X64438463Y-49783884D01*
X64443486Y-49765619D01*
X64442615Y-49765355D01*
X64444377Y-49759540D01*
X64444383Y-49759528D01*
X64446652Y-49748116D01*
X64448654Y-49738059D01*
X64475145Y-49604877D01*
X64475146Y-49604875D01*
X64475146Y-49447186D01*
X64475145Y-49447184D01*
X64473959Y-49441224D01*
X64444383Y-49292534D01*
X64437547Y-49276030D01*
X85912285Y-49276030D01*
X85912285Y-49276031D01*
X86924646Y-49276031D01*
X87424646Y-49276031D01*
X88437007Y-49276031D01*
X88437006Y-49276030D01*
X88383599Y-49147093D01*
X88348739Y-49094923D01*
X88327861Y-49028245D01*
X88346345Y-48960865D01*
X88348739Y-48957139D01*
X88383599Y-48904968D01*
X88437007Y-48776031D01*
X87424646Y-48776031D01*
X87424646Y-49276031D01*
X86924646Y-49276031D01*
X86924646Y-48776031D01*
X85912285Y-48776031D01*
X85965693Y-48904969D01*
X85965701Y-48904984D01*
X86000551Y-48957141D01*
X86021429Y-49023818D01*
X86002944Y-49091198D01*
X86000551Y-49094921D01*
X85965701Y-49147077D01*
X85965693Y-49147092D01*
X85912285Y-49276030D01*
X64437547Y-49276030D01*
X64406132Y-49200187D01*
X64384043Y-49146858D01*
X64384039Y-49146851D01*
X64382803Y-49145001D01*
X64349039Y-49094469D01*
X64328162Y-49027794D01*
X64346646Y-48960414D01*
X64349041Y-48956688D01*
X64383597Y-48904971D01*
X64437007Y-48776031D01*
X63980457Y-48776031D01*
X63933009Y-48766593D01*
X63908143Y-48756294D01*
X63908136Y-48756292D01*
X63908135Y-48756292D01*
X63908134Y-48756291D01*
X63753491Y-48725531D01*
X63753488Y-48725531D01*
X62595804Y-48725531D01*
X62595801Y-48725531D01*
X62441157Y-48756291D01*
X62441156Y-48756292D01*
X62441153Y-48756293D01*
X62441149Y-48756294D01*
X62416282Y-48766593D01*
X62368835Y-48776031D01*
X61912285Y-48776031D01*
X61965694Y-48904971D01*
X62000251Y-48956690D01*
X62021128Y-49023368D01*
X62002643Y-49090748D01*
X62000252Y-49094468D01*
X61965256Y-49146845D01*
X61965248Y-49146859D01*
X61904910Y-49292529D01*
X61904907Y-49292541D01*
X61874146Y-49447184D01*
X54236687Y-49447184D01*
X54235485Y-48276030D01*
X61912285Y-48276030D01*
X61912285Y-48276031D01*
X62924646Y-48276031D01*
X63424646Y-48276031D01*
X64437007Y-48276031D01*
X64437006Y-48276030D01*
X85912285Y-48276030D01*
X85912285Y-48276031D01*
X86924646Y-48276031D01*
X87424646Y-48276031D01*
X88437007Y-48276031D01*
X88437006Y-48276030D01*
X88383598Y-48147092D01*
X88383593Y-48147082D01*
X88296047Y-48016061D01*
X88296044Y-48016057D01*
X88184619Y-47904632D01*
X88184615Y-47904629D01*
X88053594Y-47817083D01*
X88053585Y-47817078D01*
X87907997Y-47756774D01*
X87907989Y-47756772D01*
X87753443Y-47726031D01*
X87424646Y-47726031D01*
X87424646Y-48276031D01*
X86924646Y-48276031D01*
X86924646Y-47726031D01*
X86595848Y-47726031D01*
X86441302Y-47756772D01*
X86441294Y-47756774D01*
X86295706Y-47817078D01*
X86295697Y-47817083D01*
X86164676Y-47904629D01*
X86164672Y-47904632D01*
X86053247Y-48016057D01*
X86053244Y-48016061D01*
X85965698Y-48147082D01*
X85965693Y-48147092D01*
X85912285Y-48276030D01*
X64437006Y-48276030D01*
X64383598Y-48147092D01*
X64383593Y-48147082D01*
X64296047Y-48016061D01*
X64296044Y-48016057D01*
X64184619Y-47904632D01*
X64184615Y-47904629D01*
X64053594Y-47817083D01*
X64053585Y-47817078D01*
X63907997Y-47756774D01*
X63907989Y-47756772D01*
X63753443Y-47726031D01*
X63424646Y-47726031D01*
X63424646Y-48276031D01*
X62924646Y-48276031D01*
X62924646Y-47726031D01*
X62595848Y-47726031D01*
X62441302Y-47756772D01*
X62441294Y-47756774D01*
X62295706Y-47817078D01*
X62295697Y-47817083D01*
X62164676Y-47904629D01*
X62164672Y-47904632D01*
X62053247Y-48016057D01*
X62053244Y-48016061D01*
X61965698Y-48147082D01*
X61965693Y-48147092D01*
X61912285Y-48276030D01*
X54235485Y-48276030D01*
X54232229Y-45104828D01*
X66374646Y-45104828D01*
X66405387Y-45259374D01*
X66405389Y-45259382D01*
X66465693Y-45404970D01*
X66465698Y-45404979D01*
X66553244Y-45536000D01*
X66553247Y-45536004D01*
X66664672Y-45647429D01*
X66664680Y-45647435D01*
X66795693Y-45734975D01*
X66795711Y-45734985D01*
X66924645Y-45788391D01*
X66924646Y-45788391D01*
X66924646Y-44776031D01*
X66374646Y-44776031D01*
X66374646Y-45104828D01*
X54232229Y-45104828D01*
X54231041Y-43947233D01*
X66374646Y-43947233D01*
X66374646Y-44276031D01*
X66924646Y-44276031D01*
X66924646Y-43947184D01*
X67374146Y-43947184D01*
X67374146Y-45104877D01*
X67404907Y-45259520D01*
X67404909Y-45259528D01*
X67415207Y-45284389D01*
X67424646Y-45331842D01*
X67424646Y-45788391D01*
X67553581Y-45734985D01*
X67553593Y-45734978D01*
X67605305Y-45700426D01*
X67671982Y-45679548D01*
X67739362Y-45698032D01*
X67743087Y-45700426D01*
X67794808Y-45734985D01*
X67795467Y-45735425D01*
X67795469Y-45735426D01*
X67795473Y-45735428D01*
X67923339Y-45788391D01*
X67941149Y-45795768D01*
X68095799Y-45826530D01*
X68095802Y-45826531D01*
X68095804Y-45826531D01*
X68253490Y-45826531D01*
X68253491Y-45826530D01*
X68408143Y-45795768D01*
X68553825Y-45735425D01*
X68606206Y-45700425D01*
X68672880Y-45679547D01*
X68740260Y-45698031D01*
X68743986Y-45700425D01*
X68795698Y-45734978D01*
X68795711Y-45734985D01*
X68924645Y-45788391D01*
X68924646Y-45788391D01*
X68924646Y-45331842D01*
X68934085Y-45284389D01*
X68944383Y-45259528D01*
X68975146Y-45104873D01*
X68975146Y-43947189D01*
X68975146Y-43947186D01*
X68975145Y-43947184D01*
X69374146Y-43947184D01*
X69374146Y-45104877D01*
X69404907Y-45259520D01*
X69404909Y-45259528D01*
X69415207Y-45284389D01*
X69424646Y-45331842D01*
X69424646Y-45788391D01*
X69553581Y-45734985D01*
X69553593Y-45734978D01*
X69605305Y-45700426D01*
X69671982Y-45679548D01*
X69739362Y-45698032D01*
X69743087Y-45700426D01*
X69794808Y-45734985D01*
X69795467Y-45735425D01*
X69795469Y-45735426D01*
X69795473Y-45735428D01*
X69923339Y-45788391D01*
X69941149Y-45795768D01*
X70095799Y-45826530D01*
X70095802Y-45826531D01*
X70095804Y-45826531D01*
X70253490Y-45826531D01*
X70253491Y-45826530D01*
X70408143Y-45795768D01*
X70553825Y-45735425D01*
X70605756Y-45700725D01*
X70672431Y-45679847D01*
X70739811Y-45698331D01*
X70743509Y-45700707D01*
X70795467Y-45735425D01*
X70795469Y-45735426D01*
X70795471Y-45735427D01*
X70923339Y-45788391D01*
X70941149Y-45795768D01*
X71095799Y-45826530D01*
X71095802Y-45826531D01*
X71095804Y-45826531D01*
X71253490Y-45826531D01*
X71253491Y-45826530D01*
X71408143Y-45795768D01*
X71553825Y-45735425D01*
X71605756Y-45700725D01*
X71672431Y-45679847D01*
X71739811Y-45698331D01*
X71743509Y-45700707D01*
X71795467Y-45735425D01*
X71795469Y-45735426D01*
X71795471Y-45735427D01*
X71923339Y-45788391D01*
X71941149Y-45795768D01*
X72095799Y-45826530D01*
X72095802Y-45826531D01*
X72095804Y-45826531D01*
X72253490Y-45826531D01*
X72253491Y-45826530D01*
X72408143Y-45795768D01*
X72553825Y-45735425D01*
X72605756Y-45700725D01*
X72672431Y-45679847D01*
X72739811Y-45698331D01*
X72743509Y-45700707D01*
X72795467Y-45735425D01*
X72795469Y-45735426D01*
X72795471Y-45735427D01*
X72923339Y-45788391D01*
X72941149Y-45795768D01*
X73095799Y-45826530D01*
X73095802Y-45826531D01*
X73095804Y-45826531D01*
X73253490Y-45826531D01*
X73253491Y-45826530D01*
X73408143Y-45795768D01*
X73553825Y-45735425D01*
X73605756Y-45700725D01*
X73672431Y-45679847D01*
X73739811Y-45698331D01*
X73743509Y-45700707D01*
X73795467Y-45735425D01*
X73795469Y-45735426D01*
X73795471Y-45735427D01*
X73923339Y-45788391D01*
X73941149Y-45795768D01*
X74095799Y-45826530D01*
X74095802Y-45826531D01*
X74095804Y-45826531D01*
X74253490Y-45826531D01*
X74253491Y-45826530D01*
X74408143Y-45795768D01*
X74553825Y-45735425D01*
X74605756Y-45700725D01*
X74672431Y-45679847D01*
X74739811Y-45698331D01*
X74743509Y-45700707D01*
X74795467Y-45735425D01*
X74795469Y-45735426D01*
X74795471Y-45735427D01*
X74923339Y-45788391D01*
X74941149Y-45795768D01*
X75095799Y-45826530D01*
X75095802Y-45826531D01*
X75095804Y-45826531D01*
X75253490Y-45826531D01*
X75253491Y-45826530D01*
X75408143Y-45795768D01*
X75553825Y-45735425D01*
X75605756Y-45700725D01*
X75672431Y-45679847D01*
X75739811Y-45698331D01*
X75743509Y-45700707D01*
X75795467Y-45735425D01*
X75795469Y-45735426D01*
X75795471Y-45735427D01*
X75923339Y-45788391D01*
X75941149Y-45795768D01*
X76095799Y-45826530D01*
X76095802Y-45826531D01*
X76095804Y-45826531D01*
X76253490Y-45826531D01*
X76253491Y-45826530D01*
X76408143Y-45795768D01*
X76553825Y-45735425D01*
X76605756Y-45700725D01*
X76672431Y-45679847D01*
X76739811Y-45698331D01*
X76743509Y-45700707D01*
X76795467Y-45735425D01*
X76795469Y-45735426D01*
X76795471Y-45735427D01*
X76923339Y-45788391D01*
X76941149Y-45795768D01*
X77095799Y-45826530D01*
X77095802Y-45826531D01*
X77095804Y-45826531D01*
X77253490Y-45826531D01*
X77253491Y-45826530D01*
X77408143Y-45795768D01*
X77553825Y-45735425D01*
X77605756Y-45700725D01*
X77672431Y-45679847D01*
X77739811Y-45698331D01*
X77743509Y-45700707D01*
X77795467Y-45735425D01*
X77795469Y-45735426D01*
X77795471Y-45735427D01*
X77923339Y-45788391D01*
X77941149Y-45795768D01*
X78095799Y-45826530D01*
X78095802Y-45826531D01*
X78095804Y-45826531D01*
X78253490Y-45826531D01*
X78253491Y-45826530D01*
X78408143Y-45795768D01*
X78553825Y-45735425D01*
X78606206Y-45700425D01*
X78672880Y-45679547D01*
X78740260Y-45698031D01*
X78743986Y-45700425D01*
X78795698Y-45734978D01*
X78795711Y-45734985D01*
X78924646Y-45788391D01*
X79424646Y-45788391D01*
X79553581Y-45734985D01*
X79553588Y-45734981D01*
X79605754Y-45700125D01*
X79672432Y-45679247D01*
X79739812Y-45697731D01*
X79743538Y-45700125D01*
X79795703Y-45734981D01*
X79795710Y-45734985D01*
X79924645Y-45788391D01*
X79924646Y-45788391D01*
X79924646Y-44776031D01*
X79424646Y-44776031D01*
X79424646Y-45788391D01*
X78924646Y-45788391D01*
X78924646Y-45331842D01*
X78934085Y-45284389D01*
X78944383Y-45259528D01*
X78975146Y-45104873D01*
X78975146Y-43947189D01*
X78975146Y-43947186D01*
X78975145Y-43947184D01*
X78944385Y-43792542D01*
X78944384Y-43792541D01*
X78944383Y-43792534D01*
X78934083Y-43767667D01*
X78924646Y-43720220D01*
X78924646Y-43263670D01*
X79424646Y-43263670D01*
X79424646Y-44276031D01*
X79924646Y-44276031D01*
X79924646Y-43947184D01*
X80374146Y-43947184D01*
X80374146Y-45104877D01*
X80404907Y-45259520D01*
X80404909Y-45259528D01*
X80415207Y-45284389D01*
X80424646Y-45331842D01*
X80424646Y-45788391D01*
X80553581Y-45734985D01*
X80553593Y-45734978D01*
X80605305Y-45700426D01*
X80671982Y-45679548D01*
X80739362Y-45698032D01*
X80743087Y-45700426D01*
X80794808Y-45734985D01*
X80795467Y-45735425D01*
X80795469Y-45735426D01*
X80795473Y-45735428D01*
X80923339Y-45788391D01*
X80941149Y-45795768D01*
X81095799Y-45826530D01*
X81095802Y-45826531D01*
X81095804Y-45826531D01*
X81253490Y-45826531D01*
X81253491Y-45826530D01*
X81408143Y-45795768D01*
X81553825Y-45735425D01*
X81606206Y-45700425D01*
X81672880Y-45679547D01*
X81740260Y-45698031D01*
X81743986Y-45700425D01*
X81795698Y-45734978D01*
X81795711Y-45734985D01*
X81924645Y-45788391D01*
X81924646Y-45788391D01*
X82424646Y-45788391D01*
X82553581Y-45734985D01*
X82553588Y-45734981D01*
X82605754Y-45700125D01*
X82672432Y-45679247D01*
X82739812Y-45697731D01*
X82743538Y-45700125D01*
X82795703Y-45734981D01*
X82795710Y-45734985D01*
X82924645Y-45788391D01*
X82924646Y-45788391D01*
X83424646Y-45788391D01*
X83553580Y-45734985D01*
X83553598Y-45734975D01*
X83684611Y-45647435D01*
X83684619Y-45647429D01*
X83796044Y-45536004D01*
X83796047Y-45536000D01*
X83883593Y-45404979D01*
X83883598Y-45404970D01*
X83941581Y-45264986D01*
X94155001Y-45264986D01*
X94165494Y-45367697D01*
X94220641Y-45534119D01*
X94220643Y-45534124D01*
X94312684Y-45683345D01*
X94436654Y-45807315D01*
X94585875Y-45899356D01*
X94585880Y-45899358D01*
X94752302Y-45954505D01*
X94752309Y-45954506D01*
X94855019Y-45964999D01*
X95699999Y-45964999D01*
X96200000Y-45964999D01*
X97044972Y-45964999D01*
X97044986Y-45964998D01*
X97147697Y-45954505D01*
X97314119Y-45899358D01*
X97314124Y-45899356D01*
X97463345Y-45807315D01*
X97587315Y-45683345D01*
X97679356Y-45534124D01*
X97679358Y-45534119D01*
X97734505Y-45367697D01*
X97734506Y-45367690D01*
X97744999Y-45264986D01*
X97745000Y-45264973D01*
X97745000Y-44680000D01*
X96200000Y-44680000D01*
X96200000Y-45964999D01*
X95699999Y-45964999D01*
X95700000Y-45964998D01*
X95700000Y-44680000D01*
X94155001Y-44680000D01*
X94155001Y-45264986D01*
X83941581Y-45264986D01*
X83943902Y-45259382D01*
X83943904Y-45259374D01*
X83974645Y-45104828D01*
X83974646Y-45104825D01*
X83974646Y-44776031D01*
X83424646Y-44776031D01*
X83424646Y-45788391D01*
X82924646Y-45788391D01*
X82924646Y-44776031D01*
X82424646Y-44776031D01*
X82424646Y-45788391D01*
X81924646Y-45788391D01*
X81924646Y-45331842D01*
X81934085Y-45284389D01*
X81944383Y-45259528D01*
X81975146Y-45104873D01*
X81975146Y-43947189D01*
X81975146Y-43947186D01*
X81975145Y-43947184D01*
X81944385Y-43792542D01*
X81944384Y-43792541D01*
X81944383Y-43792534D01*
X81934083Y-43767667D01*
X81924646Y-43720220D01*
X81924646Y-43263670D01*
X82424646Y-43263670D01*
X82424646Y-44276031D01*
X82924646Y-44276031D01*
X83424646Y-44276031D01*
X83974646Y-44276031D01*
X83974646Y-43947237D01*
X83974645Y-43947233D01*
X83943904Y-43792687D01*
X83943902Y-43792679D01*
X83883596Y-43647087D01*
X83883595Y-43647086D01*
X83848801Y-43595013D01*
X94155000Y-43595013D01*
X94155000Y-44180000D01*
X95700000Y-44180000D01*
X96200000Y-44180000D01*
X97744999Y-44180000D01*
X97744999Y-43595028D01*
X97744998Y-43595013D01*
X97734505Y-43492302D01*
X97679358Y-43325880D01*
X97679356Y-43325875D01*
X97587315Y-43176654D01*
X97463345Y-43052684D01*
X97314124Y-42960643D01*
X97314119Y-42960641D01*
X97147697Y-42905494D01*
X97147690Y-42905493D01*
X97044986Y-42895000D01*
X96200000Y-42895000D01*
X96200000Y-44180000D01*
X95700000Y-44180000D01*
X95700000Y-42895000D01*
X94855028Y-42895000D01*
X94855012Y-42895001D01*
X94752302Y-42905494D01*
X94585880Y-42960641D01*
X94585875Y-42960643D01*
X94436654Y-43052684D01*
X94312684Y-43176654D01*
X94220643Y-43325875D01*
X94220641Y-43325880D01*
X94165494Y-43492302D01*
X94165493Y-43492309D01*
X94155000Y-43595013D01*
X83848801Y-43595013D01*
X83796047Y-43516061D01*
X83796044Y-43516057D01*
X83684619Y-43404632D01*
X83684615Y-43404629D01*
X83553594Y-43317083D01*
X83553584Y-43317078D01*
X83424646Y-43263670D01*
X83424646Y-44276031D01*
X82924646Y-44276031D01*
X82924646Y-43263670D01*
X82795707Y-43317078D01*
X82795692Y-43317086D01*
X82743536Y-43351936D01*
X82676859Y-43372814D01*
X82609479Y-43354329D01*
X82605756Y-43351936D01*
X82553599Y-43317086D01*
X82553584Y-43317078D01*
X82424646Y-43263670D01*
X81924646Y-43263670D01*
X81924646Y-43263668D01*
X81876985Y-43231823D01*
X81832179Y-43178211D01*
X81823472Y-43108886D01*
X81853626Y-43045859D01*
X81858175Y-43041059D01*
X82387416Y-42511819D01*
X82448739Y-42478334D01*
X82475097Y-42475500D01*
X89038331Y-42475500D01*
X89038347Y-42475501D01*
X89045943Y-42475501D01*
X89204054Y-42475501D01*
X89204057Y-42475501D01*
X89356785Y-42434577D01*
X89406904Y-42405639D01*
X89493716Y-42355520D01*
X89605520Y-42243716D01*
X89605520Y-42243714D01*
X89615728Y-42233507D01*
X89615730Y-42233504D01*
X90283506Y-41565728D01*
X90283511Y-41565724D01*
X90293714Y-41555520D01*
X90293716Y-41555520D01*
X90405520Y-41443716D01*
X90469139Y-41333524D01*
X90484577Y-41306785D01*
X90525501Y-41154057D01*
X90525501Y-40995943D01*
X90525501Y-40988348D01*
X90525500Y-40988330D01*
X90525500Y-40867115D01*
X90545185Y-40800076D01*
X90597989Y-40754321D01*
X90606167Y-40750933D01*
X90692331Y-40718796D01*
X90807546Y-40632546D01*
X90893796Y-40517331D01*
X90944091Y-40382483D01*
X90950500Y-40322873D01*
X90950500Y-39974000D01*
X90970185Y-39906961D01*
X91022989Y-39861206D01*
X91074500Y-39850000D01*
X91150000Y-39850000D01*
X91650000Y-39850000D01*
X91972828Y-39850000D01*
X91972844Y-39849999D01*
X92032372Y-39843598D01*
X92032379Y-39843596D01*
X92167086Y-39793354D01*
X92167093Y-39793350D01*
X92282187Y-39707190D01*
X92282190Y-39707187D01*
X92368350Y-39592093D01*
X92368354Y-39592086D01*
X92418596Y-39457379D01*
X92418598Y-39457372D01*
X92424999Y-39397844D01*
X92425000Y-39397827D01*
X92425000Y-38500000D01*
X91650000Y-38500000D01*
X91650000Y-39850000D01*
X91150000Y-39850000D01*
X91150000Y-38500000D01*
X90375000Y-38500000D01*
X90375000Y-38650500D01*
X90355315Y-38717539D01*
X90302511Y-38763294D01*
X90251000Y-38774500D01*
X89599000Y-38774500D01*
X89531961Y-38754815D01*
X89486206Y-38702011D01*
X89475000Y-38650500D01*
X89475000Y-38500000D01*
X88700000Y-38500000D01*
X88700000Y-39850000D01*
X88775501Y-39850000D01*
X88842540Y-39869685D01*
X88888295Y-39922489D01*
X88899501Y-39974000D01*
X88899501Y-40322876D01*
X88905908Y-40382483D01*
X88956202Y-40517328D01*
X88956206Y-40517335D01*
X89042452Y-40632544D01*
X89042455Y-40632547D01*
X89157664Y-40718793D01*
X89157673Y-40718798D01*
X89176669Y-40725883D01*
X89232603Y-40767753D01*
X89257021Y-40833217D01*
X89242170Y-40901490D01*
X89221018Y-40929746D01*
X88912584Y-41238181D01*
X88851261Y-41271666D01*
X88824903Y-41274500D01*
X82254057Y-41274500D01*
X82095942Y-41274500D01*
X81943215Y-41315423D01*
X81943214Y-41315423D01*
X81943212Y-41315424D01*
X81943209Y-41315425D01*
X81893096Y-41344359D01*
X81893095Y-41344360D01*
X81849689Y-41369420D01*
X81806285Y-41394479D01*
X81806282Y-41394481D01*
X80694125Y-42506638D01*
X80684550Y-42523224D01*
X80666764Y-42554031D01*
X80615069Y-42643569D01*
X80574145Y-42796297D01*
X80574145Y-42796299D01*
X80574145Y-42964400D01*
X80574146Y-42964413D01*
X80574146Y-43140015D01*
X80554461Y-43207054D01*
X80501657Y-43252809D01*
X80432499Y-43262753D01*
X80427904Y-43261492D01*
X80424646Y-43263670D01*
X80424646Y-43720220D01*
X80415208Y-43767667D01*
X80404909Y-43792534D01*
X80404908Y-43792538D01*
X80404907Y-43792541D01*
X80404906Y-43792542D01*
X80374146Y-43947184D01*
X79924646Y-43947184D01*
X79924646Y-43263670D01*
X79924645Y-43263670D01*
X79795707Y-43317078D01*
X79795692Y-43317086D01*
X79743536Y-43351936D01*
X79676859Y-43372814D01*
X79609479Y-43354329D01*
X79605756Y-43351936D01*
X79553599Y-43317086D01*
X79553584Y-43317078D01*
X79424646Y-43263670D01*
X78924646Y-43263670D01*
X78924645Y-43263670D01*
X78795704Y-43317079D01*
X78743983Y-43351637D01*
X78677305Y-43372513D01*
X78609926Y-43354027D01*
X78606204Y-43351635D01*
X78553831Y-43316640D01*
X78553818Y-43316633D01*
X78408147Y-43256295D01*
X78408135Y-43256292D01*
X78253491Y-43225531D01*
X78253488Y-43225531D01*
X78095804Y-43225531D01*
X78095801Y-43225531D01*
X77941156Y-43256292D01*
X77941144Y-43256295D01*
X77795473Y-43316633D01*
X77795460Y-43316640D01*
X77743537Y-43351335D01*
X77676860Y-43372213D01*
X77609479Y-43353729D01*
X77605755Y-43351335D01*
X77553831Y-43316640D01*
X77553818Y-43316633D01*
X77408147Y-43256295D01*
X77408135Y-43256292D01*
X77253491Y-43225531D01*
X77253488Y-43225531D01*
X77095804Y-43225531D01*
X77095801Y-43225531D01*
X76941156Y-43256292D01*
X76941144Y-43256295D01*
X76795473Y-43316633D01*
X76795460Y-43316640D01*
X76743537Y-43351335D01*
X76676860Y-43372213D01*
X76609479Y-43353729D01*
X76605755Y-43351335D01*
X76553831Y-43316640D01*
X76553818Y-43316633D01*
X76408147Y-43256295D01*
X76408135Y-43256292D01*
X76253491Y-43225531D01*
X76253488Y-43225531D01*
X76095804Y-43225531D01*
X76095801Y-43225531D01*
X75941156Y-43256292D01*
X75941144Y-43256295D01*
X75795473Y-43316633D01*
X75795460Y-43316640D01*
X75743537Y-43351335D01*
X75676860Y-43372213D01*
X75609479Y-43353729D01*
X75605755Y-43351335D01*
X75553831Y-43316640D01*
X75553818Y-43316633D01*
X75408147Y-43256295D01*
X75408135Y-43256292D01*
X75253491Y-43225531D01*
X75253488Y-43225531D01*
X75095804Y-43225531D01*
X75095801Y-43225531D01*
X74941156Y-43256292D01*
X74941144Y-43256295D01*
X74795473Y-43316633D01*
X74795460Y-43316640D01*
X74743537Y-43351335D01*
X74676860Y-43372213D01*
X74609479Y-43353729D01*
X74605755Y-43351335D01*
X74553831Y-43316640D01*
X74553818Y-43316633D01*
X74408147Y-43256295D01*
X74408135Y-43256292D01*
X74253491Y-43225531D01*
X74253488Y-43225531D01*
X74095804Y-43225531D01*
X74095801Y-43225531D01*
X73941156Y-43256292D01*
X73941144Y-43256295D01*
X73795473Y-43316633D01*
X73795460Y-43316640D01*
X73743537Y-43351335D01*
X73676860Y-43372213D01*
X73609479Y-43353729D01*
X73605755Y-43351335D01*
X73553831Y-43316640D01*
X73553818Y-43316633D01*
X73408147Y-43256295D01*
X73408135Y-43256292D01*
X73253491Y-43225531D01*
X73253488Y-43225531D01*
X73095804Y-43225531D01*
X73095801Y-43225531D01*
X72941156Y-43256292D01*
X72941144Y-43256295D01*
X72795473Y-43316633D01*
X72795460Y-43316640D01*
X72743537Y-43351335D01*
X72676860Y-43372213D01*
X72609479Y-43353729D01*
X72605755Y-43351335D01*
X72553831Y-43316640D01*
X72553818Y-43316633D01*
X72408147Y-43256295D01*
X72408135Y-43256292D01*
X72253491Y-43225531D01*
X72253488Y-43225531D01*
X72095804Y-43225531D01*
X72095801Y-43225531D01*
X71941156Y-43256292D01*
X71941144Y-43256295D01*
X71795473Y-43316633D01*
X71795460Y-43316640D01*
X71743537Y-43351335D01*
X71676860Y-43372213D01*
X71609479Y-43353729D01*
X71605755Y-43351335D01*
X71553831Y-43316640D01*
X71553818Y-43316633D01*
X71408147Y-43256295D01*
X71408135Y-43256292D01*
X71253491Y-43225531D01*
X71253488Y-43225531D01*
X71095804Y-43225531D01*
X71095801Y-43225531D01*
X70941156Y-43256292D01*
X70941144Y-43256295D01*
X70795473Y-43316633D01*
X70795460Y-43316640D01*
X70743537Y-43351335D01*
X70676860Y-43372213D01*
X70609479Y-43353729D01*
X70605755Y-43351335D01*
X70553831Y-43316640D01*
X70553818Y-43316633D01*
X70408147Y-43256295D01*
X70408135Y-43256292D01*
X70253491Y-43225531D01*
X70253488Y-43225531D01*
X70095804Y-43225531D01*
X70095801Y-43225531D01*
X69941156Y-43256292D01*
X69941144Y-43256295D01*
X69795474Y-43316633D01*
X69795460Y-43316641D01*
X69743083Y-43351637D01*
X69676406Y-43372513D01*
X69609026Y-43354027D01*
X69605305Y-43351636D01*
X69553586Y-43317079D01*
X69424646Y-43263670D01*
X69424646Y-43720220D01*
X69415208Y-43767667D01*
X69404909Y-43792534D01*
X69404908Y-43792538D01*
X69404907Y-43792541D01*
X69404906Y-43792542D01*
X69374146Y-43947184D01*
X68975145Y-43947184D01*
X68944385Y-43792542D01*
X68944384Y-43792541D01*
X68944383Y-43792534D01*
X68934083Y-43767667D01*
X68924646Y-43720220D01*
X68924646Y-43263670D01*
X68924645Y-43263670D01*
X68795704Y-43317079D01*
X68743983Y-43351637D01*
X68677305Y-43372513D01*
X68609926Y-43354027D01*
X68606204Y-43351635D01*
X68553831Y-43316640D01*
X68553818Y-43316633D01*
X68408147Y-43256295D01*
X68408135Y-43256292D01*
X68253491Y-43225531D01*
X68253488Y-43225531D01*
X68095804Y-43225531D01*
X68095801Y-43225531D01*
X67941156Y-43256292D01*
X67941144Y-43256295D01*
X67795474Y-43316633D01*
X67795460Y-43316641D01*
X67743083Y-43351637D01*
X67676406Y-43372513D01*
X67609026Y-43354027D01*
X67605305Y-43351636D01*
X67553586Y-43317079D01*
X67424646Y-43263670D01*
X67424646Y-43720220D01*
X67415208Y-43767667D01*
X67404909Y-43792534D01*
X67404908Y-43792538D01*
X67404907Y-43792541D01*
X67404906Y-43792542D01*
X67374146Y-43947184D01*
X66924646Y-43947184D01*
X66924646Y-43263670D01*
X66924645Y-43263670D01*
X66795707Y-43317078D01*
X66795697Y-43317083D01*
X66664676Y-43404629D01*
X66664672Y-43404632D01*
X66553247Y-43516057D01*
X66553244Y-43516061D01*
X66465698Y-43647082D01*
X66465693Y-43647091D01*
X66405389Y-43792679D01*
X66405387Y-43792687D01*
X66374646Y-43947233D01*
X54231041Y-43947233D01*
X54227641Y-40635526D01*
X61589146Y-40635526D01*
X61589146Y-40871535D01*
X61589147Y-40871551D01*
X61619952Y-41105541D01*
X61681040Y-41333524D01*
X61771360Y-41551576D01*
X61771365Y-41551587D01*
X61842323Y-41674488D01*
X61889373Y-41755981D01*
X61889375Y-41755984D01*
X61889376Y-41755985D01*
X62033052Y-41943228D01*
X62033058Y-41943235D01*
X62199941Y-42110118D01*
X62199948Y-42110124D01*
X62216279Y-42122655D01*
X62387196Y-42253804D01*
X62518564Y-42329649D01*
X62591589Y-42371811D01*
X62591594Y-42371813D01*
X62591597Y-42371815D01*
X62809653Y-42462137D01*
X63037632Y-42523224D01*
X63271635Y-42554031D01*
X63271642Y-42554031D01*
X63507650Y-42554031D01*
X63507657Y-42554031D01*
X63741660Y-42523224D01*
X63969639Y-42462137D01*
X64187695Y-42371815D01*
X64392096Y-42253804D01*
X64579345Y-42110123D01*
X64746238Y-41943230D01*
X64889919Y-41755981D01*
X65007930Y-41551580D01*
X65098252Y-41333524D01*
X65159339Y-41105545D01*
X65190146Y-40871542D01*
X65190146Y-40635520D01*
X65159339Y-40401517D01*
X65098252Y-40173538D01*
X65007930Y-39955482D01*
X65007928Y-39955479D01*
X65007926Y-39955474D01*
X64943334Y-39843598D01*
X64889919Y-39751081D01*
X64877804Y-39735292D01*
X64870582Y-39725880D01*
X64870581Y-39725879D01*
X64815077Y-39653544D01*
X66669646Y-39653544D01*
X66669646Y-40503531D01*
X67869645Y-40503531D01*
X67844625Y-40563933D01*
X67819646Y-40689512D01*
X67819646Y-40817550D01*
X67844625Y-40943129D01*
X67869645Y-41003531D01*
X66669647Y-41003531D01*
X66669647Y-41853517D01*
X66680140Y-41956228D01*
X66735287Y-42122650D01*
X66735289Y-42122655D01*
X66827330Y-42271876D01*
X66951300Y-42395846D01*
X67100521Y-42487887D01*
X67100526Y-42487889D01*
X67266948Y-42543036D01*
X67266955Y-42543037D01*
X67369665Y-42553530D01*
X68219645Y-42553530D01*
X68219646Y-42553529D01*
X68219646Y-41353532D01*
X68280048Y-41378552D01*
X68405627Y-41403531D01*
X68533665Y-41403531D01*
X68659244Y-41378552D01*
X68719646Y-41353532D01*
X68719646Y-42553530D01*
X69569618Y-42553530D01*
X69569632Y-42553529D01*
X69672343Y-42543036D01*
X69838765Y-42487889D01*
X69838770Y-42487887D01*
X69987991Y-42395846D01*
X70111961Y-42271876D01*
X70204002Y-42122655D01*
X70204004Y-42122650D01*
X70259151Y-41956228D01*
X70259152Y-41956221D01*
X70269645Y-41853517D01*
X70269646Y-41853504D01*
X70269646Y-41003531D01*
X69069647Y-41003531D01*
X69094667Y-40943129D01*
X69119646Y-40817550D01*
X69119646Y-40689512D01*
X69094667Y-40563933D01*
X69069647Y-40503531D01*
X70269645Y-40503531D01*
X70269645Y-39653559D01*
X70269644Y-39653544D01*
X70259151Y-39550833D01*
X70204004Y-39384411D01*
X70204002Y-39384406D01*
X70111961Y-39235185D01*
X69987991Y-39111215D01*
X69838770Y-39019174D01*
X69838765Y-39019172D01*
X69672343Y-38964025D01*
X69672336Y-38964024D01*
X69569632Y-38953531D01*
X68719646Y-38953531D01*
X68719646Y-40153529D01*
X68659244Y-40128510D01*
X68533665Y-40103531D01*
X68405627Y-40103531D01*
X68280048Y-40128510D01*
X68219646Y-40153529D01*
X68219646Y-38953531D01*
X67369674Y-38953531D01*
X67369658Y-38953532D01*
X67266948Y-38964025D01*
X67100526Y-39019172D01*
X67100521Y-39019174D01*
X66951300Y-39111215D01*
X66827330Y-39235185D01*
X66735289Y-39384406D01*
X66735287Y-39384411D01*
X66680140Y-39550833D01*
X66680139Y-39550840D01*
X66669646Y-39653544D01*
X64815077Y-39653544D01*
X64746239Y-39563833D01*
X64746233Y-39563826D01*
X64579350Y-39396943D01*
X64579343Y-39396937D01*
X64392100Y-39253261D01*
X64392099Y-39253260D01*
X64392096Y-39253258D01*
X64310603Y-39206208D01*
X64187702Y-39135250D01*
X64187691Y-39135245D01*
X63969639Y-39044925D01*
X63741656Y-38983837D01*
X63507666Y-38953032D01*
X63507663Y-38953031D01*
X63507657Y-38953031D01*
X63271635Y-38953031D01*
X63271629Y-38953031D01*
X63271625Y-38953032D01*
X63037635Y-38983837D01*
X62809652Y-39044925D01*
X62591600Y-39135245D01*
X62591589Y-39135250D01*
X62387191Y-39253261D01*
X62199948Y-39396937D01*
X62199941Y-39396943D01*
X62033058Y-39563826D01*
X62033052Y-39563833D01*
X61889376Y-39751076D01*
X61771365Y-39955474D01*
X61771360Y-39955485D01*
X61681040Y-40173537D01*
X61619952Y-40401520D01*
X61589147Y-40635510D01*
X61589146Y-40635526D01*
X54227641Y-40635526D01*
X54225503Y-38553516D01*
X54225697Y-38546481D01*
X54231135Y-38449660D01*
X55801353Y-38449660D01*
X55801353Y-38662233D01*
X55829438Y-38839558D01*
X55834607Y-38872190D01*
X55890732Y-39044925D01*
X55900297Y-39074361D01*
X55996804Y-39263767D01*
X56121743Y-39435733D01*
X56272066Y-39586056D01*
X56444032Y-39710995D01*
X56444034Y-39710996D01*
X56444037Y-39710998D01*
X56633441Y-39807504D01*
X56835610Y-39873193D01*
X57045566Y-39906447D01*
X57045567Y-39906447D01*
X57258139Y-39906447D01*
X57258140Y-39906447D01*
X57468096Y-39873193D01*
X57670265Y-39807504D01*
X57859669Y-39710998D01*
X57938728Y-39653559D01*
X58031639Y-39586056D01*
X58031641Y-39586053D01*
X58031645Y-39586051D01*
X58181957Y-39435739D01*
X58181959Y-39435735D01*
X58181962Y-39435733D01*
X58306901Y-39263767D01*
X58306900Y-39263767D01*
X58306904Y-39263763D01*
X58403410Y-39074359D01*
X58469099Y-38872190D01*
X58502353Y-38662234D01*
X58502353Y-38449660D01*
X58469099Y-38239704D01*
X58403410Y-38037535D01*
X58306904Y-37848131D01*
X58306902Y-37848128D01*
X58306901Y-37848126D01*
X58181962Y-37676160D01*
X58031639Y-37525837D01*
X57859673Y-37400898D01*
X57670267Y-37304391D01*
X57670266Y-37304390D01*
X57670265Y-37304390D01*
X57468096Y-37238701D01*
X57468094Y-37238700D01*
X57468093Y-37238700D01*
X57306810Y-37213155D01*
X57258140Y-37205447D01*
X57045566Y-37205447D01*
X56996895Y-37213155D01*
X56835613Y-37238700D01*
X56633438Y-37304391D01*
X56444032Y-37400898D01*
X56272066Y-37525837D01*
X56121743Y-37676160D01*
X55996804Y-37848126D01*
X55900297Y-38037532D01*
X55834606Y-38239707D01*
X55801353Y-38449660D01*
X54231135Y-38449660D01*
X54243499Y-38229499D01*
X54245053Y-38215705D01*
X54297657Y-37906100D01*
X54300750Y-37892548D01*
X54313547Y-37848131D01*
X54387687Y-37590783D01*
X54392279Y-37577662D01*
X54512457Y-37287527D01*
X54518477Y-37275027D01*
X54670399Y-37000142D01*
X54677776Y-36988403D01*
X54859510Y-36732274D01*
X54868156Y-36721431D01*
X55077435Y-36487247D01*
X55087247Y-36477435D01*
X55321431Y-36268156D01*
X55332274Y-36259510D01*
X55588403Y-36077776D01*
X55600142Y-36070399D01*
X55875027Y-35918477D01*
X55887527Y-35912457D01*
X56177666Y-35792277D01*
X56190783Y-35787687D01*
X56492553Y-35700748D01*
X56506100Y-35697657D01*
X56815703Y-35645053D01*
X56829502Y-35643499D01*
X57146515Y-35625695D01*
X57153217Y-35625500D01*
X57215892Y-35625500D01*
X57216365Y-35625372D01*
X57219270Y-35625366D01*
X85041746Y-35571655D01*
X85108823Y-35591210D01*
X85154680Y-35643926D01*
X85164757Y-35713065D01*
X85163602Y-35719846D01*
X85149537Y-35790556D01*
X85149537Y-35948249D01*
X85180298Y-36102892D01*
X85180300Y-36102900D01*
X85190061Y-36126467D01*
X85199500Y-36173917D01*
X85199500Y-38920396D01*
X85190062Y-38967844D01*
X85183438Y-38983838D01*
X85180262Y-38991506D01*
X85180260Y-38991511D01*
X85149500Y-39146153D01*
X85149500Y-39303846D01*
X85180261Y-39458489D01*
X85180264Y-39458501D01*
X85240602Y-39604172D01*
X85240609Y-39604185D01*
X85328210Y-39735288D01*
X85328213Y-39735292D01*
X85439707Y-39846786D01*
X85439711Y-39846789D01*
X85570814Y-39934390D01*
X85570827Y-39934397D01*
X85666439Y-39974000D01*
X85716503Y-39994737D01*
X85871153Y-40025499D01*
X85871156Y-40025500D01*
X85871158Y-40025500D01*
X86028844Y-40025500D01*
X86028845Y-40025499D01*
X86183497Y-39994737D01*
X86329179Y-39934394D01*
X86460289Y-39846789D01*
X86571789Y-39735289D01*
X86659394Y-39604179D01*
X86719737Y-39458497D01*
X86731802Y-39397844D01*
X87425000Y-39397844D01*
X87431401Y-39457372D01*
X87431403Y-39457379D01*
X87481645Y-39592086D01*
X87481649Y-39592093D01*
X87567809Y-39707187D01*
X87567812Y-39707190D01*
X87682906Y-39793350D01*
X87682913Y-39793354D01*
X87817620Y-39843596D01*
X87817627Y-39843598D01*
X87877155Y-39849999D01*
X87877172Y-39850000D01*
X88200000Y-39850000D01*
X88200000Y-38500000D01*
X87425000Y-38500000D01*
X87425000Y-39397844D01*
X86731802Y-39397844D01*
X86750500Y-39303842D01*
X86750500Y-39146158D01*
X86750500Y-39146155D01*
X86750499Y-39146153D01*
X86719739Y-38991511D01*
X86719738Y-38991508D01*
X86719737Y-38991503D01*
X86709937Y-38967844D01*
X86700500Y-38920396D01*
X86700500Y-38417032D01*
X94626859Y-38417032D01*
X94626859Y-38629606D01*
X94660113Y-38839562D01*
X94709484Y-38991511D01*
X94725803Y-39041733D01*
X94822310Y-39231139D01*
X94947249Y-39403105D01*
X95097572Y-39553428D01*
X95269538Y-39678367D01*
X95269540Y-39678368D01*
X95269543Y-39678370D01*
X95458947Y-39774876D01*
X95661116Y-39840565D01*
X95871072Y-39873819D01*
X95871073Y-39873819D01*
X96083645Y-39873819D01*
X96083646Y-39873819D01*
X96293602Y-39840565D01*
X96495771Y-39774876D01*
X96685175Y-39678370D01*
X96787301Y-39604172D01*
X96857145Y-39553428D01*
X96857147Y-39553425D01*
X96857151Y-39553423D01*
X97007463Y-39403111D01*
X97007465Y-39403107D01*
X97007468Y-39403105D01*
X97116445Y-39253108D01*
X97132410Y-39231135D01*
X97228916Y-39041731D01*
X97294605Y-38839562D01*
X97327859Y-38629606D01*
X97327859Y-38417032D01*
X97294605Y-38207076D01*
X97228916Y-38004907D01*
X97132410Y-37815503D01*
X97132408Y-37815500D01*
X97132407Y-37815498D01*
X97007468Y-37643532D01*
X96857145Y-37493209D01*
X96685179Y-37368270D01*
X96495773Y-37271763D01*
X96495772Y-37271762D01*
X96495771Y-37271762D01*
X96293602Y-37206073D01*
X96293600Y-37206072D01*
X96293599Y-37206072D01*
X96132316Y-37180527D01*
X96083646Y-37172819D01*
X95871072Y-37172819D01*
X95822401Y-37180527D01*
X95661119Y-37206072D01*
X95458944Y-37271763D01*
X95269538Y-37368270D01*
X95097572Y-37493209D01*
X94947249Y-37643532D01*
X94822310Y-37815498D01*
X94725803Y-38004904D01*
X94660112Y-38207079D01*
X94642646Y-38317357D01*
X94626859Y-38417032D01*
X86700500Y-38417032D01*
X86700500Y-37102155D01*
X87425000Y-37102155D01*
X87425000Y-38000000D01*
X88200000Y-38000000D01*
X88700000Y-38000000D01*
X89475000Y-38000000D01*
X89475000Y-37102172D01*
X89474999Y-37102155D01*
X90375000Y-37102155D01*
X90375000Y-38000000D01*
X91150000Y-38000000D01*
X91650000Y-38000000D01*
X92425000Y-38000000D01*
X92425000Y-37102172D01*
X92424999Y-37102155D01*
X92418598Y-37042627D01*
X92418596Y-37042620D01*
X92368354Y-36907913D01*
X92368350Y-36907906D01*
X92282190Y-36792812D01*
X92282187Y-36792809D01*
X92167093Y-36706649D01*
X92167086Y-36706645D01*
X92032379Y-36656403D01*
X92032372Y-36656401D01*
X91972844Y-36650000D01*
X91650000Y-36650000D01*
X91650000Y-38000000D01*
X91150000Y-38000000D01*
X91150000Y-36650000D01*
X90827155Y-36650000D01*
X90767627Y-36656401D01*
X90767620Y-36656403D01*
X90632913Y-36706645D01*
X90632906Y-36706649D01*
X90517812Y-36792809D01*
X90517809Y-36792812D01*
X90431649Y-36907906D01*
X90431645Y-36907913D01*
X90381403Y-37042620D01*
X90381401Y-37042627D01*
X90375000Y-37102155D01*
X89474999Y-37102155D01*
X89468598Y-37042627D01*
X89468596Y-37042620D01*
X89418354Y-36907913D01*
X89418350Y-36907906D01*
X89332190Y-36792812D01*
X89332187Y-36792809D01*
X89217093Y-36706649D01*
X89217086Y-36706645D01*
X89082379Y-36656403D01*
X89082372Y-36656401D01*
X89022844Y-36650000D01*
X88700000Y-36650000D01*
X88700000Y-38000000D01*
X88200000Y-38000000D01*
X88200000Y-36650000D01*
X87877155Y-36650000D01*
X87817627Y-36656401D01*
X87817620Y-36656403D01*
X87682913Y-36706645D01*
X87682906Y-36706649D01*
X87567812Y-36792809D01*
X87567809Y-36792812D01*
X87481649Y-36907906D01*
X87481645Y-36907913D01*
X87431403Y-37042620D01*
X87431401Y-37042627D01*
X87425000Y-37102155D01*
X86700500Y-37102155D01*
X86700500Y-36174096D01*
X86709939Y-36126643D01*
X86710014Y-36126463D01*
X86719774Y-36102900D01*
X86750537Y-35948245D01*
X86750537Y-35790561D01*
X86750537Y-35790558D01*
X86735774Y-35716342D01*
X86742001Y-35646750D01*
X86784864Y-35591573D01*
X86850753Y-35568328D01*
X86857118Y-35568150D01*
X95996453Y-35550507D01*
X96003582Y-35550701D01*
G37*
G04 #@! TD.AperFunction*
M02*
