G04 #@! TF.GenerationSoftware,KiCad,Pcbnew,9.0.5*
G04 #@! TF.CreationDate,2025-12-11T22:36:07+05:30*
G04 #@! TF.ProjectId,GPS_with_STM32,4750535f-7769-4746-985f-53544d33322e,rev?*
G04 #@! TF.SameCoordinates,Original*
G04 #@! TF.FileFunction,Legend,Top*
G04 #@! TF.FilePolarity,Positive*
%FSLAX46Y46*%
G04 Gerber Fmt 4.6, Leading zero omitted, Abs format (unit mm)*
G04 Created by KiCad (PCBNEW 9.0.5) date 2025-12-11 22:36:07*
%MOMM*%
%LPD*%
G01*
G04 APERTURE LIST*
%ADD10C,0.200000*%
%ADD11C,0.150000*%
%ADD12C,0.300000*%
%ADD13C,0.120000*%
%ADD14C,0.010000*%
G04 APERTURE END LIST*
D10*
X89046996Y-70695440D02*
X89189853Y-70743059D01*
X89189853Y-70743059D02*
X89427948Y-70743059D01*
X89427948Y-70743059D02*
X89523186Y-70695440D01*
X89523186Y-70695440D02*
X89570805Y-70647820D01*
X89570805Y-70647820D02*
X89618424Y-70552582D01*
X89618424Y-70552582D02*
X89618424Y-70457344D01*
X89618424Y-70457344D02*
X89570805Y-70362106D01*
X89570805Y-70362106D02*
X89523186Y-70314487D01*
X89523186Y-70314487D02*
X89427948Y-70266868D01*
X89427948Y-70266868D02*
X89237472Y-70219249D01*
X89237472Y-70219249D02*
X89142234Y-70171630D01*
X89142234Y-70171630D02*
X89094615Y-70124011D01*
X89094615Y-70124011D02*
X89046996Y-70028773D01*
X89046996Y-70028773D02*
X89046996Y-69933535D01*
X89046996Y-69933535D02*
X89094615Y-69838297D01*
X89094615Y-69838297D02*
X89142234Y-69790678D01*
X89142234Y-69790678D02*
X89237472Y-69743059D01*
X89237472Y-69743059D02*
X89475567Y-69743059D01*
X89475567Y-69743059D02*
X89618424Y-69790678D01*
X89951758Y-69743059D02*
X90189853Y-70743059D01*
X90189853Y-70743059D02*
X90380329Y-70028773D01*
X90380329Y-70028773D02*
X90570805Y-70743059D01*
X90570805Y-70743059D02*
X90808901Y-69743059D01*
X91189853Y-70743059D02*
X91189853Y-69743059D01*
X91189853Y-69743059D02*
X91427948Y-69743059D01*
X91427948Y-69743059D02*
X91570805Y-69790678D01*
X91570805Y-69790678D02*
X91666043Y-69885916D01*
X91666043Y-69885916D02*
X91713662Y-69981154D01*
X91713662Y-69981154D02*
X91761281Y-70171630D01*
X91761281Y-70171630D02*
X91761281Y-70314487D01*
X91761281Y-70314487D02*
X91713662Y-70504963D01*
X91713662Y-70504963D02*
X91666043Y-70600201D01*
X91666043Y-70600201D02*
X91570805Y-70695440D01*
X91570805Y-70695440D02*
X91427948Y-70743059D01*
X91427948Y-70743059D02*
X91189853Y-70743059D01*
X92761281Y-70647820D02*
X92713662Y-70695440D01*
X92713662Y-70695440D02*
X92570805Y-70743059D01*
X92570805Y-70743059D02*
X92475567Y-70743059D01*
X92475567Y-70743059D02*
X92332710Y-70695440D01*
X92332710Y-70695440D02*
X92237472Y-70600201D01*
X92237472Y-70600201D02*
X92189853Y-70504963D01*
X92189853Y-70504963D02*
X92142234Y-70314487D01*
X92142234Y-70314487D02*
X92142234Y-70171630D01*
X92142234Y-70171630D02*
X92189853Y-69981154D01*
X92189853Y-69981154D02*
X92237472Y-69885916D01*
X92237472Y-69885916D02*
X92332710Y-69790678D01*
X92332710Y-69790678D02*
X92475567Y-69743059D01*
X92475567Y-69743059D02*
X92570805Y-69743059D01*
X92570805Y-69743059D02*
X92713662Y-69790678D01*
X92713662Y-69790678D02*
X92761281Y-69838297D01*
X93666043Y-70743059D02*
X93189853Y-70743059D01*
X93189853Y-70743059D02*
X93189853Y-69743059D01*
X93999377Y-70743059D02*
X93999377Y-69743059D01*
X94570805Y-70743059D02*
X94142234Y-70171630D01*
X94570805Y-69743059D02*
X93999377Y-70314487D01*
X58619258Y-59483380D02*
X59238305Y-59483380D01*
X59238305Y-59483380D02*
X58904972Y-59864332D01*
X58904972Y-59864332D02*
X59047829Y-59864332D01*
X59047829Y-59864332D02*
X59143067Y-59911951D01*
X59143067Y-59911951D02*
X59190686Y-59959570D01*
X59190686Y-59959570D02*
X59238305Y-60054808D01*
X59238305Y-60054808D02*
X59238305Y-60292903D01*
X59238305Y-60292903D02*
X59190686Y-60388141D01*
X59190686Y-60388141D02*
X59143067Y-60435761D01*
X59143067Y-60435761D02*
X59047829Y-60483380D01*
X59047829Y-60483380D02*
X58762115Y-60483380D01*
X58762115Y-60483380D02*
X58666877Y-60435761D01*
X58666877Y-60435761D02*
X58619258Y-60388141D01*
X59524020Y-59483380D02*
X59857353Y-60483380D01*
X59857353Y-60483380D02*
X60190686Y-59483380D01*
X60428782Y-59483380D02*
X61047829Y-59483380D01*
X61047829Y-59483380D02*
X60714496Y-59864332D01*
X60714496Y-59864332D02*
X60857353Y-59864332D01*
X60857353Y-59864332D02*
X60952591Y-59911951D01*
X60952591Y-59911951D02*
X61000210Y-59959570D01*
X61000210Y-59959570D02*
X61047829Y-60054808D01*
X61047829Y-60054808D02*
X61047829Y-60292903D01*
X61047829Y-60292903D02*
X61000210Y-60388141D01*
X61000210Y-60388141D02*
X60952591Y-60435761D01*
X60952591Y-60435761D02*
X60857353Y-60483380D01*
X60857353Y-60483380D02*
X60571639Y-60483380D01*
X60571639Y-60483380D02*
X60476401Y-60435761D01*
X60476401Y-60435761D02*
X60428782Y-60388141D01*
X90332711Y-75802583D02*
X90475568Y-75850202D01*
X90475568Y-75850202D02*
X90713663Y-75850202D01*
X90713663Y-75850202D02*
X90808901Y-75802583D01*
X90808901Y-75802583D02*
X90856520Y-75754963D01*
X90856520Y-75754963D02*
X90904139Y-75659725D01*
X90904139Y-75659725D02*
X90904139Y-75564487D01*
X90904139Y-75564487D02*
X90856520Y-75469249D01*
X90856520Y-75469249D02*
X90808901Y-75421630D01*
X90808901Y-75421630D02*
X90713663Y-75374011D01*
X90713663Y-75374011D02*
X90523187Y-75326392D01*
X90523187Y-75326392D02*
X90427949Y-75278773D01*
X90427949Y-75278773D02*
X90380330Y-75231154D01*
X90380330Y-75231154D02*
X90332711Y-75135916D01*
X90332711Y-75135916D02*
X90332711Y-75040678D01*
X90332711Y-75040678D02*
X90380330Y-74945440D01*
X90380330Y-74945440D02*
X90427949Y-74897821D01*
X90427949Y-74897821D02*
X90523187Y-74850202D01*
X90523187Y-74850202D02*
X90761282Y-74850202D01*
X90761282Y-74850202D02*
X90904139Y-74897821D01*
X91237473Y-74850202D02*
X91475568Y-75850202D01*
X91475568Y-75850202D02*
X91666044Y-75135916D01*
X91666044Y-75135916D02*
X91856520Y-75850202D01*
X91856520Y-75850202D02*
X92094616Y-74850202D01*
X92475568Y-75850202D02*
X92475568Y-74850202D01*
X92475568Y-74850202D02*
X92713663Y-74850202D01*
X92713663Y-74850202D02*
X92856520Y-74897821D01*
X92856520Y-74897821D02*
X92951758Y-74993059D01*
X92951758Y-74993059D02*
X92999377Y-75088297D01*
X92999377Y-75088297D02*
X93046996Y-75278773D01*
X93046996Y-75278773D02*
X93046996Y-75421630D01*
X93046996Y-75421630D02*
X92999377Y-75612106D01*
X92999377Y-75612106D02*
X92951758Y-75707344D01*
X92951758Y-75707344D02*
X92856520Y-75802583D01*
X92856520Y-75802583D02*
X92713663Y-75850202D01*
X92713663Y-75850202D02*
X92475568Y-75850202D01*
X93475568Y-75850202D02*
X93475568Y-74850202D01*
X94142234Y-74850202D02*
X94332710Y-74850202D01*
X94332710Y-74850202D02*
X94427948Y-74897821D01*
X94427948Y-74897821D02*
X94523186Y-74993059D01*
X94523186Y-74993059D02*
X94570805Y-75183535D01*
X94570805Y-75183535D02*
X94570805Y-75516868D01*
X94570805Y-75516868D02*
X94523186Y-75707344D01*
X94523186Y-75707344D02*
X94427948Y-75802583D01*
X94427948Y-75802583D02*
X94332710Y-75850202D01*
X94332710Y-75850202D02*
X94142234Y-75850202D01*
X94142234Y-75850202D02*
X94046996Y-75802583D01*
X94046996Y-75802583D02*
X93951758Y-75707344D01*
X93951758Y-75707344D02*
X93904139Y-75516868D01*
X93904139Y-75516868D02*
X93904139Y-75183535D01*
X93904139Y-75183535D02*
X93951758Y-74993059D01*
X93951758Y-74993059D02*
X94046996Y-74897821D01*
X94046996Y-74897821D02*
X94142234Y-74850202D01*
D11*
G36*
X73457557Y-88653660D02*
G01*
X73419614Y-88672632D01*
X73216929Y-88672632D01*
X73159887Y-88644111D01*
X73131367Y-88587069D01*
X73131367Y-88527241D01*
X73159887Y-88470199D01*
X73216929Y-88441679D01*
X73437319Y-88441679D01*
X73451951Y-88440238D01*
X73454440Y-88439206D01*
X73457128Y-88439016D01*
X73457557Y-88438851D01*
X73457557Y-88653660D01*
G37*
G36*
X74362319Y-88174936D02*
G01*
X74362319Y-88653660D01*
X74324376Y-88672632D01*
X74169310Y-88672632D01*
X74100794Y-88638374D01*
X74070387Y-88607966D01*
X74036129Y-88539450D01*
X74036129Y-88289146D01*
X74070387Y-88220630D01*
X74100794Y-88190223D01*
X74169310Y-88155965D01*
X74324376Y-88155965D01*
X74362319Y-88174936D01*
G37*
G36*
X75238560Y-88184485D02*
G01*
X75267081Y-88241527D01*
X75267081Y-88257575D01*
X74940891Y-88322812D01*
X74940891Y-88241527D01*
X74969411Y-88184485D01*
X75026453Y-88155965D01*
X75181519Y-88155965D01*
X75238560Y-88184485D01*
G37*
G36*
X80409938Y-88174936D02*
G01*
X80409938Y-88653660D01*
X80371995Y-88672632D01*
X80216929Y-88672632D01*
X80148413Y-88638374D01*
X80118006Y-88607966D01*
X80083748Y-88539450D01*
X80083748Y-88289146D01*
X80118006Y-88220630D01*
X80148413Y-88190223D01*
X80216929Y-88155965D01*
X80371995Y-88155965D01*
X80409938Y-88174936D01*
G37*
G36*
X81790890Y-88653660D02*
G01*
X81752947Y-88672632D01*
X81550262Y-88672632D01*
X81493220Y-88644111D01*
X81464700Y-88587069D01*
X81464700Y-88527241D01*
X81493220Y-88470199D01*
X81550262Y-88441679D01*
X81770652Y-88441679D01*
X81785284Y-88440238D01*
X81787773Y-88439206D01*
X81790461Y-88439016D01*
X81790890Y-88438851D01*
X81790890Y-88653660D01*
G37*
G36*
X82052001Y-88933743D02*
G01*
X71775018Y-88933743D01*
X71775018Y-87747632D01*
X71886129Y-87747632D01*
X71886129Y-88747632D01*
X71887570Y-88762264D01*
X71898769Y-88789300D01*
X71919461Y-88809992D01*
X71946497Y-88821191D01*
X71975761Y-88821191D01*
X72002797Y-88809992D01*
X72023489Y-88789300D01*
X72034688Y-88762264D01*
X72036129Y-88747632D01*
X72036129Y-88085699D01*
X72226498Y-88493634D01*
X72229672Y-88498993D01*
X72230332Y-88500806D01*
X72231506Y-88502088D01*
X72233992Y-88506284D01*
X72242401Y-88513984D01*
X72250096Y-88522387D01*
X72253114Y-88523795D01*
X72255573Y-88526047D01*
X72266285Y-88529942D01*
X72276614Y-88534763D01*
X72279942Y-88534909D01*
X72283074Y-88536048D01*
X72294468Y-88535547D01*
X72305850Y-88536047D01*
X72308978Y-88534909D01*
X72312310Y-88534763D01*
X72322645Y-88529939D01*
X72333351Y-88526047D01*
X72335806Y-88523797D01*
X72338828Y-88522388D01*
X72346529Y-88513977D01*
X72354932Y-88506283D01*
X72357415Y-88502090D01*
X72358592Y-88500806D01*
X72359252Y-88498990D01*
X72362426Y-88493633D01*
X72552795Y-88085699D01*
X72552795Y-88747632D01*
X72554236Y-88762264D01*
X72565435Y-88789300D01*
X72586127Y-88809992D01*
X72613163Y-88821191D01*
X72642427Y-88821191D01*
X72669463Y-88809992D01*
X72690155Y-88789300D01*
X72701354Y-88762264D01*
X72702795Y-88747632D01*
X72702795Y-88509536D01*
X72981367Y-88509536D01*
X72981367Y-88604774D01*
X72982808Y-88619406D01*
X72983839Y-88621895D01*
X72984030Y-88624583D01*
X72989285Y-88638315D01*
X73036904Y-88733554D01*
X73038444Y-88736000D01*
X73038829Y-88737155D01*
X73040075Y-88738592D01*
X73044736Y-88745996D01*
X73051838Y-88752155D01*
X73058002Y-88759263D01*
X73065407Y-88763924D01*
X73066844Y-88765170D01*
X73067997Y-88765554D01*
X73070445Y-88767095D01*
X73165683Y-88814714D01*
X73179414Y-88819969D01*
X73182103Y-88820160D01*
X73184592Y-88821191D01*
X73199224Y-88822632D01*
X73437319Y-88822632D01*
X73451951Y-88821191D01*
X73454440Y-88820159D01*
X73457128Y-88819969D01*
X73470860Y-88814714D01*
X73487360Y-88806463D01*
X73490889Y-88809992D01*
X73517925Y-88821191D01*
X73547189Y-88821191D01*
X73574225Y-88809992D01*
X73594917Y-88789300D01*
X73606116Y-88762264D01*
X73607557Y-88747632D01*
X73607557Y-88271441D01*
X73886129Y-88271441D01*
X73886129Y-88557155D01*
X73887570Y-88571787D01*
X73888601Y-88574276D01*
X73888792Y-88576964D01*
X73894047Y-88590696D01*
X73941666Y-88685934D01*
X73945629Y-88692230D01*
X73946387Y-88694060D01*
X73948076Y-88696118D01*
X73949498Y-88698377D01*
X73950996Y-88699676D01*
X73955714Y-88705425D01*
X74003333Y-88753045D01*
X74009082Y-88757763D01*
X74010383Y-88759263D01*
X74012642Y-88760685D01*
X74014699Y-88762373D01*
X74016526Y-88763130D01*
X74022826Y-88767095D01*
X74118064Y-88814714D01*
X74131795Y-88819969D01*
X74134484Y-88820160D01*
X74136973Y-88821191D01*
X74151605Y-88822632D01*
X74342081Y-88822632D01*
X74356713Y-88821191D01*
X74359202Y-88820159D01*
X74361890Y-88819969D01*
X74375622Y-88814714D01*
X74392122Y-88806463D01*
X74395651Y-88809992D01*
X74422687Y-88821191D01*
X74451951Y-88821191D01*
X74478987Y-88809992D01*
X74499679Y-88789300D01*
X74510878Y-88762264D01*
X74512319Y-88747632D01*
X74512319Y-88223822D01*
X74790891Y-88223822D01*
X74790891Y-88604774D01*
X74792332Y-88619406D01*
X74793363Y-88621895D01*
X74793554Y-88624583D01*
X74798809Y-88638315D01*
X74846428Y-88733554D01*
X74847968Y-88736000D01*
X74848353Y-88737155D01*
X74849599Y-88738592D01*
X74854260Y-88745996D01*
X74861362Y-88752155D01*
X74867526Y-88759263D01*
X74874931Y-88763924D01*
X74876368Y-88765170D01*
X74877521Y-88765554D01*
X74879969Y-88767095D01*
X74975207Y-88814714D01*
X74988938Y-88819969D01*
X74991627Y-88820160D01*
X74994116Y-88821191D01*
X75008748Y-88822632D01*
X75199224Y-88822632D01*
X75213856Y-88821191D01*
X75216345Y-88820159D01*
X75219033Y-88819969D01*
X75232765Y-88814714D01*
X75328003Y-88767095D01*
X75340446Y-88759263D01*
X75359619Y-88737155D01*
X75368873Y-88709394D01*
X75366799Y-88680204D01*
X75353711Y-88654029D01*
X75331604Y-88634856D01*
X75303842Y-88625602D01*
X75274652Y-88627676D01*
X75260921Y-88632931D01*
X75181519Y-88672632D01*
X75026453Y-88672632D01*
X74969411Y-88644111D01*
X74940891Y-88587069D01*
X74940891Y-88475783D01*
X75356789Y-88392604D01*
X75370855Y-88388321D01*
X75376960Y-88384232D01*
X75383749Y-88381420D01*
X75389001Y-88376167D01*
X75395169Y-88372037D01*
X75399243Y-88365926D01*
X75404441Y-88360728D01*
X75407284Y-88353864D01*
X75411401Y-88347689D01*
X75412826Y-88340483D01*
X75415640Y-88333692D01*
X75417081Y-88319060D01*
X75417081Y-88223822D01*
X75415640Y-88209190D01*
X75414609Y-88206701D01*
X75414418Y-88204012D01*
X75409163Y-88190281D01*
X75361544Y-88095043D01*
X75360003Y-88092595D01*
X75359619Y-88091442D01*
X75358373Y-88090005D01*
X75353712Y-88082600D01*
X75351827Y-88080965D01*
X76457558Y-88080965D01*
X76457558Y-88747632D01*
X76458999Y-88762264D01*
X76470198Y-88789300D01*
X76490890Y-88809992D01*
X76517926Y-88821191D01*
X76547190Y-88821191D01*
X76574226Y-88809992D01*
X76594918Y-88789300D01*
X76606117Y-88762264D01*
X76607558Y-88747632D01*
X76607558Y-88080965D01*
X76933748Y-88080965D01*
X76933748Y-88747632D01*
X76935189Y-88762264D01*
X76946388Y-88789300D01*
X76967080Y-88809992D01*
X76994116Y-88821191D01*
X77023380Y-88821191D01*
X77050416Y-88809992D01*
X77071108Y-88789300D01*
X77082307Y-88762264D01*
X77083748Y-88747632D01*
X77083748Y-88207269D01*
X77100794Y-88190223D01*
X77169310Y-88155965D01*
X77276757Y-88155965D01*
X77333798Y-88184485D01*
X77362319Y-88241527D01*
X77362319Y-88747632D01*
X77363760Y-88762264D01*
X77374959Y-88789300D01*
X77395651Y-88809992D01*
X77422687Y-88821191D01*
X77451951Y-88821191D01*
X77478987Y-88809992D01*
X77499679Y-88789300D01*
X77510878Y-88762264D01*
X77512319Y-88747632D01*
X77512319Y-88223822D01*
X77510878Y-88209190D01*
X77509847Y-88206701D01*
X77509656Y-88204012D01*
X77504401Y-88190281D01*
X77456782Y-88095043D01*
X77455241Y-88092595D01*
X77454857Y-88091442D01*
X77453611Y-88090005D01*
X77448950Y-88082600D01*
X77441845Y-88076438D01*
X77435684Y-88069334D01*
X77428278Y-88064672D01*
X77426842Y-88063427D01*
X77425688Y-88063042D01*
X77423241Y-88061502D01*
X77328003Y-88013883D01*
X77314271Y-88008628D01*
X77311583Y-88008437D01*
X77309094Y-88007406D01*
X77294462Y-88005965D01*
X77151605Y-88005965D01*
X77136973Y-88007406D01*
X77134484Y-88008436D01*
X77131795Y-88008628D01*
X77118064Y-88013883D01*
X77069817Y-88038006D01*
X77050416Y-88018605D01*
X77023380Y-88007406D01*
X76994116Y-88007406D01*
X76967080Y-88018605D01*
X76946388Y-88039297D01*
X76935189Y-88066333D01*
X76933748Y-88080965D01*
X76607558Y-88080965D01*
X76606117Y-88066333D01*
X76594918Y-88039297D01*
X76574226Y-88018605D01*
X76547190Y-88007406D01*
X76517926Y-88007406D01*
X76490890Y-88018605D01*
X76470198Y-88039297D01*
X76458999Y-88066333D01*
X76457558Y-88080965D01*
X75351827Y-88080965D01*
X75346607Y-88076438D01*
X75340446Y-88069334D01*
X75333040Y-88064672D01*
X75331604Y-88063427D01*
X75330450Y-88063042D01*
X75328003Y-88061502D01*
X75232765Y-88013883D01*
X75219033Y-88008628D01*
X75216345Y-88008437D01*
X75213856Y-88007406D01*
X75199224Y-88005965D01*
X75008748Y-88005965D01*
X74994116Y-88007406D01*
X74991627Y-88008436D01*
X74988938Y-88008628D01*
X74975207Y-88013883D01*
X74879969Y-88061502D01*
X74877521Y-88063042D01*
X74876368Y-88063427D01*
X74874931Y-88064672D01*
X74867526Y-88069334D01*
X74861364Y-88076438D01*
X74854260Y-88082600D01*
X74849598Y-88090005D01*
X74848353Y-88091442D01*
X74847968Y-88092595D01*
X74846428Y-88095043D01*
X74798809Y-88190281D01*
X74793554Y-88204013D01*
X74793363Y-88206700D01*
X74792332Y-88209190D01*
X74790891Y-88223822D01*
X74512319Y-88223822D01*
X74512319Y-87780620D01*
X76411380Y-87780620D01*
X76411380Y-87809882D01*
X76422579Y-87836919D01*
X76431906Y-87848284D01*
X76479525Y-87895903D01*
X76490890Y-87905230D01*
X76517926Y-87916429D01*
X76517927Y-87916429D01*
X76547189Y-87916429D01*
X76547190Y-87916429D01*
X76574226Y-87905230D01*
X76585591Y-87895903D01*
X76633210Y-87848284D01*
X76642537Y-87836919D01*
X76653736Y-87809883D01*
X76653736Y-87780620D01*
X76653210Y-87779348D01*
X76642537Y-87753583D01*
X76637653Y-87747632D01*
X78600415Y-87747632D01*
X78600415Y-88747632D01*
X78601856Y-88762264D01*
X78613055Y-88789300D01*
X78633747Y-88809992D01*
X78660783Y-88821191D01*
X78690047Y-88821191D01*
X78717083Y-88809992D01*
X78737775Y-88789300D01*
X78748974Y-88762264D01*
X78750415Y-88747632D01*
X78750415Y-88080965D01*
X79076605Y-88080965D01*
X79076605Y-88747632D01*
X79078046Y-88762264D01*
X79089245Y-88789300D01*
X79109937Y-88809992D01*
X79136973Y-88821191D01*
X79166237Y-88821191D01*
X79193273Y-88809992D01*
X79213965Y-88789300D01*
X79225164Y-88762264D01*
X79226605Y-88747632D01*
X79226605Y-88207269D01*
X79243651Y-88190223D01*
X79312167Y-88155965D01*
X79419614Y-88155965D01*
X79476655Y-88184485D01*
X79505176Y-88241527D01*
X79505176Y-88747632D01*
X79506617Y-88762264D01*
X79517816Y-88789300D01*
X79538508Y-88809992D01*
X79565544Y-88821191D01*
X79594808Y-88821191D01*
X79621844Y-88809992D01*
X79642536Y-88789300D01*
X79653735Y-88762264D01*
X79655176Y-88747632D01*
X79655176Y-88271441D01*
X79933748Y-88271441D01*
X79933748Y-88557155D01*
X79935189Y-88571787D01*
X79936220Y-88574276D01*
X79936411Y-88576964D01*
X79941666Y-88590696D01*
X79989285Y-88685934D01*
X79993248Y-88692230D01*
X79994006Y-88694060D01*
X79995695Y-88696118D01*
X79997117Y-88698377D01*
X79998615Y-88699676D01*
X80003333Y-88705425D01*
X80050952Y-88753045D01*
X80056701Y-88757763D01*
X80058002Y-88759263D01*
X80060261Y-88760685D01*
X80062318Y-88762373D01*
X80064145Y-88763130D01*
X80070445Y-88767095D01*
X80165683Y-88814714D01*
X80179414Y-88819969D01*
X80182103Y-88820160D01*
X80184592Y-88821191D01*
X80199224Y-88822632D01*
X80389700Y-88822632D01*
X80404332Y-88821191D01*
X80406821Y-88820159D01*
X80409509Y-88819969D01*
X80423241Y-88814714D01*
X80439741Y-88806463D01*
X80443270Y-88809992D01*
X80470306Y-88821191D01*
X80499570Y-88821191D01*
X80526606Y-88809992D01*
X80547298Y-88789300D01*
X80558497Y-88762264D01*
X80559938Y-88747632D01*
X80559938Y-88080965D01*
X80886129Y-88080965D01*
X80886129Y-88747632D01*
X80887570Y-88762264D01*
X80898769Y-88789300D01*
X80919461Y-88809992D01*
X80946497Y-88821191D01*
X80975761Y-88821191D01*
X81002797Y-88809992D01*
X81023489Y-88789300D01*
X81034688Y-88762264D01*
X81036129Y-88747632D01*
X81036129Y-88509536D01*
X81314700Y-88509536D01*
X81314700Y-88604774D01*
X81316141Y-88619406D01*
X81317172Y-88621895D01*
X81317363Y-88624583D01*
X81322618Y-88638315D01*
X81370237Y-88733554D01*
X81371777Y-88736000D01*
X81372162Y-88737155D01*
X81373408Y-88738592D01*
X81378069Y-88745996D01*
X81385171Y-88752155D01*
X81391335Y-88759263D01*
X81398740Y-88763924D01*
X81400177Y-88765170D01*
X81401330Y-88765554D01*
X81403778Y-88767095D01*
X81499016Y-88814714D01*
X81512747Y-88819969D01*
X81515436Y-88820160D01*
X81517925Y-88821191D01*
X81532557Y-88822632D01*
X81770652Y-88822632D01*
X81785284Y-88821191D01*
X81787773Y-88820159D01*
X81790461Y-88819969D01*
X81804193Y-88814714D01*
X81820693Y-88806463D01*
X81824222Y-88809992D01*
X81851258Y-88821191D01*
X81880522Y-88821191D01*
X81907558Y-88809992D01*
X81928250Y-88789300D01*
X81939449Y-88762264D01*
X81940890Y-88747632D01*
X81940890Y-88223822D01*
X81939449Y-88209190D01*
X81938418Y-88206701D01*
X81938227Y-88204012D01*
X81932972Y-88190281D01*
X81885353Y-88095043D01*
X81883812Y-88092595D01*
X81883428Y-88091442D01*
X81882182Y-88090005D01*
X81877521Y-88082600D01*
X81870416Y-88076438D01*
X81864255Y-88069334D01*
X81856849Y-88064672D01*
X81855413Y-88063427D01*
X81854259Y-88063042D01*
X81851812Y-88061502D01*
X81756574Y-88013883D01*
X81742842Y-88008628D01*
X81740154Y-88008437D01*
X81737665Y-88007406D01*
X81723033Y-88005965D01*
X81532557Y-88005965D01*
X81517925Y-88007406D01*
X81515436Y-88008436D01*
X81512747Y-88008628D01*
X81499016Y-88013883D01*
X81403778Y-88061502D01*
X81391335Y-88069334D01*
X81372162Y-88091442D01*
X81362908Y-88119203D01*
X81364982Y-88148393D01*
X81378069Y-88174568D01*
X81400177Y-88193741D01*
X81427938Y-88202995D01*
X81457128Y-88200921D01*
X81470860Y-88195666D01*
X81550262Y-88155965D01*
X81705328Y-88155965D01*
X81762369Y-88184485D01*
X81790890Y-88241527D01*
X81790890Y-88272707D01*
X81752947Y-88291679D01*
X81532557Y-88291679D01*
X81517925Y-88293120D01*
X81515436Y-88294150D01*
X81512747Y-88294342D01*
X81499016Y-88299597D01*
X81403778Y-88347216D01*
X81401330Y-88348756D01*
X81400177Y-88349141D01*
X81398740Y-88350386D01*
X81391335Y-88355048D01*
X81385173Y-88362152D01*
X81378069Y-88368314D01*
X81373407Y-88375719D01*
X81372162Y-88377156D01*
X81371777Y-88378309D01*
X81370237Y-88380757D01*
X81322618Y-88475995D01*
X81317363Y-88489727D01*
X81317172Y-88492414D01*
X81316141Y-88494904D01*
X81314700Y-88509536D01*
X81036129Y-88509536D01*
X81036129Y-88080965D01*
X81034688Y-88066333D01*
X81023489Y-88039297D01*
X81002797Y-88018605D01*
X80975761Y-88007406D01*
X80946497Y-88007406D01*
X80919461Y-88018605D01*
X80898769Y-88039297D01*
X80887570Y-88066333D01*
X80886129Y-88080965D01*
X80559938Y-88080965D01*
X80559938Y-87780620D01*
X80839951Y-87780620D01*
X80839951Y-87809882D01*
X80851150Y-87836919D01*
X80860477Y-87848284D01*
X80908096Y-87895903D01*
X80919461Y-87905230D01*
X80946497Y-87916429D01*
X80946498Y-87916429D01*
X80975760Y-87916429D01*
X80975761Y-87916429D01*
X81002797Y-87905230D01*
X81014162Y-87895903D01*
X81061781Y-87848284D01*
X81071108Y-87836919D01*
X81082307Y-87809883D01*
X81082307Y-87780620D01*
X81081781Y-87779348D01*
X81071108Y-87753583D01*
X81061781Y-87742218D01*
X81014162Y-87694599D01*
X81002797Y-87685272D01*
X80998524Y-87683502D01*
X80975761Y-87674073D01*
X80975760Y-87674073D01*
X80946497Y-87674073D01*
X80919461Y-87685272D01*
X80908096Y-87694599D01*
X80860477Y-87742218D01*
X80851150Y-87753583D01*
X80839951Y-87780620D01*
X80559938Y-87780620D01*
X80559938Y-87747632D01*
X80558497Y-87733000D01*
X80547298Y-87705964D01*
X80526606Y-87685272D01*
X80499570Y-87674073D01*
X80470306Y-87674073D01*
X80443270Y-87685272D01*
X80422578Y-87705964D01*
X80411379Y-87733000D01*
X80409938Y-87747632D01*
X80409938Y-88008792D01*
X80409509Y-88008628D01*
X80406821Y-88008437D01*
X80404332Y-88007406D01*
X80389700Y-88005965D01*
X80199224Y-88005965D01*
X80184592Y-88007406D01*
X80182103Y-88008436D01*
X80179414Y-88008628D01*
X80165683Y-88013883D01*
X80070445Y-88061502D01*
X80064145Y-88065466D01*
X80062318Y-88066224D01*
X80060261Y-88067912D01*
X80058002Y-88069334D01*
X80056702Y-88070832D01*
X80050953Y-88075551D01*
X80003334Y-88123170D01*
X79998615Y-88128919D01*
X79997117Y-88130219D01*
X79995695Y-88132478D01*
X79994007Y-88134535D01*
X79993249Y-88136362D01*
X79989285Y-88142662D01*
X79941666Y-88237900D01*
X79936411Y-88251632D01*
X79936220Y-88254319D01*
X79935189Y-88256809D01*
X79933748Y-88271441D01*
X79655176Y-88271441D01*
X79655176Y-88223822D01*
X79653735Y-88209190D01*
X79652704Y-88206701D01*
X79652513Y-88204012D01*
X79647258Y-88190281D01*
X79599639Y-88095043D01*
X79598098Y-88092595D01*
X79597714Y-88091442D01*
X79596468Y-88090005D01*
X79591807Y-88082600D01*
X79584702Y-88076438D01*
X79578541Y-88069334D01*
X79571135Y-88064672D01*
X79569699Y-88063427D01*
X79568545Y-88063042D01*
X79566098Y-88061502D01*
X79470860Y-88013883D01*
X79457128Y-88008628D01*
X79454440Y-88008437D01*
X79451951Y-88007406D01*
X79437319Y-88005965D01*
X79294462Y-88005965D01*
X79279830Y-88007406D01*
X79277341Y-88008436D01*
X79274652Y-88008628D01*
X79260921Y-88013883D01*
X79212674Y-88038006D01*
X79193273Y-88018605D01*
X79166237Y-88007406D01*
X79136973Y-88007406D01*
X79109937Y-88018605D01*
X79089245Y-88039297D01*
X79078046Y-88066333D01*
X79076605Y-88080965D01*
X78750415Y-88080965D01*
X78750415Y-87747632D01*
X78748974Y-87733000D01*
X78737775Y-87705964D01*
X78717083Y-87685272D01*
X78690047Y-87674073D01*
X78660783Y-87674073D01*
X78633747Y-87685272D01*
X78613055Y-87705964D01*
X78601856Y-87733000D01*
X78600415Y-87747632D01*
X76637653Y-87747632D01*
X76633210Y-87742218D01*
X76585591Y-87694599D01*
X76574226Y-87685272D01*
X76569953Y-87683502D01*
X76547190Y-87674073D01*
X76547189Y-87674073D01*
X76517926Y-87674073D01*
X76490890Y-87685272D01*
X76479525Y-87694599D01*
X76431906Y-87742218D01*
X76422579Y-87753583D01*
X76411380Y-87780620D01*
X74512319Y-87780620D01*
X74512319Y-87747632D01*
X74510878Y-87733000D01*
X74499679Y-87705964D01*
X74478987Y-87685272D01*
X74451951Y-87674073D01*
X74422687Y-87674073D01*
X74395651Y-87685272D01*
X74374959Y-87705964D01*
X74363760Y-87733000D01*
X74362319Y-87747632D01*
X74362319Y-88008792D01*
X74361890Y-88008628D01*
X74359202Y-88008437D01*
X74356713Y-88007406D01*
X74342081Y-88005965D01*
X74151605Y-88005965D01*
X74136973Y-88007406D01*
X74134484Y-88008436D01*
X74131795Y-88008628D01*
X74118064Y-88013883D01*
X74022826Y-88061502D01*
X74016526Y-88065466D01*
X74014699Y-88066224D01*
X74012642Y-88067912D01*
X74010383Y-88069334D01*
X74009083Y-88070832D01*
X74003334Y-88075551D01*
X73955715Y-88123170D01*
X73950996Y-88128919D01*
X73949498Y-88130219D01*
X73948076Y-88132478D01*
X73946388Y-88134535D01*
X73945630Y-88136362D01*
X73941666Y-88142662D01*
X73894047Y-88237900D01*
X73888792Y-88251632D01*
X73888601Y-88254319D01*
X73887570Y-88256809D01*
X73886129Y-88271441D01*
X73607557Y-88271441D01*
X73607557Y-88223822D01*
X73606116Y-88209190D01*
X73605085Y-88206701D01*
X73604894Y-88204012D01*
X73599639Y-88190281D01*
X73552020Y-88095043D01*
X73550479Y-88092595D01*
X73550095Y-88091442D01*
X73548849Y-88090005D01*
X73544188Y-88082600D01*
X73537083Y-88076438D01*
X73530922Y-88069334D01*
X73523516Y-88064672D01*
X73522080Y-88063427D01*
X73520926Y-88063042D01*
X73518479Y-88061502D01*
X73423241Y-88013883D01*
X73409509Y-88008628D01*
X73406821Y-88008437D01*
X73404332Y-88007406D01*
X73389700Y-88005965D01*
X73199224Y-88005965D01*
X73184592Y-88007406D01*
X73182103Y-88008436D01*
X73179414Y-88008628D01*
X73165683Y-88013883D01*
X73070445Y-88061502D01*
X73058002Y-88069334D01*
X73038829Y-88091442D01*
X73029575Y-88119203D01*
X73031649Y-88148393D01*
X73044736Y-88174568D01*
X73066844Y-88193741D01*
X73094605Y-88202995D01*
X73123795Y-88200921D01*
X73137527Y-88195666D01*
X73216929Y-88155965D01*
X73371995Y-88155965D01*
X73429036Y-88184485D01*
X73457557Y-88241527D01*
X73457557Y-88272707D01*
X73419614Y-88291679D01*
X73199224Y-88291679D01*
X73184592Y-88293120D01*
X73182103Y-88294150D01*
X73179414Y-88294342D01*
X73165683Y-88299597D01*
X73070445Y-88347216D01*
X73067997Y-88348756D01*
X73066844Y-88349141D01*
X73065407Y-88350386D01*
X73058002Y-88355048D01*
X73051840Y-88362152D01*
X73044736Y-88368314D01*
X73040074Y-88375719D01*
X73038829Y-88377156D01*
X73038444Y-88378309D01*
X73036904Y-88380757D01*
X72989285Y-88475995D01*
X72984030Y-88489727D01*
X72983839Y-88492414D01*
X72982808Y-88494904D01*
X72981367Y-88509536D01*
X72702795Y-88509536D01*
X72702795Y-87747632D01*
X72701847Y-87738010D01*
X72701925Y-87736244D01*
X72701580Y-87735295D01*
X72701354Y-87733000D01*
X72696372Y-87720973D01*
X72691925Y-87708743D01*
X72690795Y-87707509D01*
X72690155Y-87705964D01*
X72680955Y-87696764D01*
X72672161Y-87687161D01*
X72670644Y-87686453D01*
X72669463Y-87685272D01*
X72657450Y-87680295D01*
X72645643Y-87674786D01*
X72643970Y-87674712D01*
X72642427Y-87674073D01*
X72629421Y-87674073D01*
X72616407Y-87673501D01*
X72614834Y-87674073D01*
X72613163Y-87674073D01*
X72601144Y-87679051D01*
X72588906Y-87683502D01*
X72587672Y-87684632D01*
X72586127Y-87685272D01*
X72576928Y-87694470D01*
X72567325Y-87703265D01*
X72566149Y-87705249D01*
X72565435Y-87705964D01*
X72564758Y-87707597D01*
X72559831Y-87715915D01*
X72294461Y-88284563D01*
X72029093Y-87715916D01*
X72024167Y-87707600D01*
X72023489Y-87705964D01*
X72022773Y-87705248D01*
X72021599Y-87703266D01*
X72012002Y-87694477D01*
X72002797Y-87685272D01*
X72001251Y-87684631D01*
X72000018Y-87683502D01*
X71987787Y-87679054D01*
X71975761Y-87674073D01*
X71974087Y-87674073D01*
X71972517Y-87673502D01*
X71959516Y-87674073D01*
X71946497Y-87674073D01*
X71944952Y-87674712D01*
X71943281Y-87674786D01*
X71931482Y-87680292D01*
X71919461Y-87685272D01*
X71918278Y-87686454D01*
X71916763Y-87687162D01*
X71907974Y-87696758D01*
X71898769Y-87705964D01*
X71898128Y-87707509D01*
X71896999Y-87708743D01*
X71892551Y-87720973D01*
X71887570Y-87733000D01*
X71887343Y-87735295D01*
X71886999Y-87736244D01*
X71887076Y-87738010D01*
X71886129Y-87747632D01*
X71775018Y-87747632D01*
X71775018Y-87562390D01*
X82052001Y-87562390D01*
X82052001Y-88933743D01*
G37*
D10*
X58571639Y-62019094D02*
X59143067Y-62019094D01*
X58857353Y-63019094D02*
X58857353Y-62019094D01*
X59381163Y-62019094D02*
X60047829Y-63019094D01*
X60047829Y-62019094D02*
X59381163Y-63019094D01*
X60381163Y-62114332D02*
X60428782Y-62066713D01*
X60428782Y-62066713D02*
X60524020Y-62019094D01*
X60524020Y-62019094D02*
X60762115Y-62019094D01*
X60762115Y-62019094D02*
X60857353Y-62066713D01*
X60857353Y-62066713D02*
X60904972Y-62114332D01*
X60904972Y-62114332D02*
X60952591Y-62209570D01*
X60952591Y-62209570D02*
X60952591Y-62304808D01*
X60952591Y-62304808D02*
X60904972Y-62447665D01*
X60904972Y-62447665D02*
X60333544Y-63019094D01*
X60333544Y-63019094D02*
X60952591Y-63019094D01*
X89666044Y-65588297D02*
X89808901Y-65635916D01*
X89808901Y-65635916D02*
X90046996Y-65635916D01*
X90046996Y-65635916D02*
X90142234Y-65588297D01*
X90142234Y-65588297D02*
X90189853Y-65540677D01*
X90189853Y-65540677D02*
X90237472Y-65445439D01*
X90237472Y-65445439D02*
X90237472Y-65350201D01*
X90237472Y-65350201D02*
X90189853Y-65254963D01*
X90189853Y-65254963D02*
X90142234Y-65207344D01*
X90142234Y-65207344D02*
X90046996Y-65159725D01*
X90046996Y-65159725D02*
X89856520Y-65112106D01*
X89856520Y-65112106D02*
X89761282Y-65064487D01*
X89761282Y-65064487D02*
X89713663Y-65016868D01*
X89713663Y-65016868D02*
X89666044Y-64921630D01*
X89666044Y-64921630D02*
X89666044Y-64826392D01*
X89666044Y-64826392D02*
X89713663Y-64731154D01*
X89713663Y-64731154D02*
X89761282Y-64683535D01*
X89761282Y-64683535D02*
X89856520Y-64635916D01*
X89856520Y-64635916D02*
X90094615Y-64635916D01*
X90094615Y-64635916D02*
X90237472Y-64683535D01*
X90666044Y-65635916D02*
X90666044Y-64635916D01*
X91142234Y-65635916D02*
X91142234Y-64635916D01*
X91142234Y-64635916D02*
X91475567Y-65350201D01*
X91475567Y-65350201D02*
X91808900Y-64635916D01*
X91808900Y-64635916D02*
X91808900Y-65635916D01*
X93618424Y-65635916D02*
X93285091Y-65159725D01*
X93046996Y-65635916D02*
X93046996Y-64635916D01*
X93046996Y-64635916D02*
X93427948Y-64635916D01*
X93427948Y-64635916D02*
X93523186Y-64683535D01*
X93523186Y-64683535D02*
X93570805Y-64731154D01*
X93570805Y-64731154D02*
X93618424Y-64826392D01*
X93618424Y-64826392D02*
X93618424Y-64969249D01*
X93618424Y-64969249D02*
X93570805Y-65064487D01*
X93570805Y-65064487D02*
X93523186Y-65112106D01*
X93523186Y-65112106D02*
X93427948Y-65159725D01*
X93427948Y-65159725D02*
X93046996Y-65159725D01*
X93951758Y-64635916D02*
X94618424Y-65635916D01*
X94618424Y-64635916D02*
X93951758Y-65635916D01*
X88475568Y-60481154D02*
X88618425Y-60528773D01*
X88618425Y-60528773D02*
X88856520Y-60528773D01*
X88856520Y-60528773D02*
X88951758Y-60481154D01*
X88951758Y-60481154D02*
X88999377Y-60433534D01*
X88999377Y-60433534D02*
X89046996Y-60338296D01*
X89046996Y-60338296D02*
X89046996Y-60243058D01*
X89046996Y-60243058D02*
X88999377Y-60147820D01*
X88999377Y-60147820D02*
X88951758Y-60100201D01*
X88951758Y-60100201D02*
X88856520Y-60052582D01*
X88856520Y-60052582D02*
X88666044Y-60004963D01*
X88666044Y-60004963D02*
X88570806Y-59957344D01*
X88570806Y-59957344D02*
X88523187Y-59909725D01*
X88523187Y-59909725D02*
X88475568Y-59814487D01*
X88475568Y-59814487D02*
X88475568Y-59719249D01*
X88475568Y-59719249D02*
X88523187Y-59624011D01*
X88523187Y-59624011D02*
X88570806Y-59576392D01*
X88570806Y-59576392D02*
X88666044Y-59528773D01*
X88666044Y-59528773D02*
X88904139Y-59528773D01*
X88904139Y-59528773D02*
X89046996Y-59576392D01*
X89475568Y-60528773D02*
X89475568Y-59528773D01*
X89951758Y-60528773D02*
X89951758Y-59528773D01*
X89951758Y-59528773D02*
X90285091Y-60243058D01*
X90285091Y-60243058D02*
X90618424Y-59528773D01*
X90618424Y-59528773D02*
X90618424Y-60528773D01*
X91856520Y-60528773D02*
X91856520Y-59528773D01*
X91856520Y-59528773D02*
X92237472Y-59528773D01*
X92237472Y-59528773D02*
X92332710Y-59576392D01*
X92332710Y-59576392D02*
X92380329Y-59624011D01*
X92380329Y-59624011D02*
X92427948Y-59719249D01*
X92427948Y-59719249D02*
X92427948Y-59862106D01*
X92427948Y-59862106D02*
X92380329Y-59957344D01*
X92380329Y-59957344D02*
X92332710Y-60004963D01*
X92332710Y-60004963D02*
X92237472Y-60052582D01*
X92237472Y-60052582D02*
X91856520Y-60052582D01*
X92761282Y-59528773D02*
X92999377Y-60528773D01*
X92999377Y-60528773D02*
X93189853Y-59814487D01*
X93189853Y-59814487D02*
X93380329Y-60528773D01*
X93380329Y-60528773D02*
X93618425Y-59528773D01*
X94570805Y-60528773D02*
X94237472Y-60052582D01*
X93999377Y-60528773D02*
X93999377Y-59528773D01*
X93999377Y-59528773D02*
X94380329Y-59528773D01*
X94380329Y-59528773D02*
X94475567Y-59576392D01*
X94475567Y-59576392D02*
X94523186Y-59624011D01*
X94523186Y-59624011D02*
X94570805Y-59719249D01*
X94570805Y-59719249D02*
X94570805Y-59862106D01*
X94570805Y-59862106D02*
X94523186Y-59957344D01*
X94523186Y-59957344D02*
X94475567Y-60004963D01*
X94475567Y-60004963D02*
X94380329Y-60052582D01*
X94380329Y-60052582D02*
X93999377Y-60052582D01*
X58714496Y-75697666D02*
X58714496Y-74697666D01*
X58714496Y-74697666D02*
X59095448Y-74697666D01*
X59095448Y-74697666D02*
X59190686Y-74745285D01*
X59190686Y-74745285D02*
X59238305Y-74792904D01*
X59238305Y-74792904D02*
X59285924Y-74888142D01*
X59285924Y-74888142D02*
X59285924Y-75030999D01*
X59285924Y-75030999D02*
X59238305Y-75126237D01*
X59238305Y-75126237D02*
X59190686Y-75173856D01*
X59190686Y-75173856D02*
X59095448Y-75221475D01*
X59095448Y-75221475D02*
X58714496Y-75221475D01*
X59666877Y-75411951D02*
X60143067Y-75411951D01*
X59571639Y-75697666D02*
X59904972Y-74697666D01*
X59904972Y-74697666D02*
X60238305Y-75697666D01*
X60476401Y-74697666D02*
X61143067Y-74697666D01*
X61143067Y-74697666D02*
X60714496Y-75697666D01*
X59285924Y-65554809D02*
X58952591Y-65078618D01*
X58714496Y-65554809D02*
X58714496Y-64554809D01*
X58714496Y-64554809D02*
X59095448Y-64554809D01*
X59095448Y-64554809D02*
X59190686Y-64602428D01*
X59190686Y-64602428D02*
X59238305Y-64650047D01*
X59238305Y-64650047D02*
X59285924Y-64745285D01*
X59285924Y-64745285D02*
X59285924Y-64888142D01*
X59285924Y-64888142D02*
X59238305Y-64983380D01*
X59238305Y-64983380D02*
X59190686Y-65030999D01*
X59190686Y-65030999D02*
X59095448Y-65078618D01*
X59095448Y-65078618D02*
X58714496Y-65078618D01*
X59619258Y-64554809D02*
X60285924Y-65554809D01*
X60285924Y-64554809D02*
X59619258Y-65554809D01*
X60619258Y-64650047D02*
X60666877Y-64602428D01*
X60666877Y-64602428D02*
X60762115Y-64554809D01*
X60762115Y-64554809D02*
X61000210Y-64554809D01*
X61000210Y-64554809D02*
X61095448Y-64602428D01*
X61095448Y-64602428D02*
X61143067Y-64650047D01*
X61143067Y-64650047D02*
X61190686Y-64745285D01*
X61190686Y-64745285D02*
X61190686Y-64840523D01*
X61190686Y-64840523D02*
X61143067Y-64983380D01*
X61143067Y-64983380D02*
X60571639Y-65554809D01*
X60571639Y-65554809D02*
X61190686Y-65554809D01*
X58714496Y-73161951D02*
X58714496Y-72161951D01*
X58714496Y-72161951D02*
X59095448Y-72161951D01*
X59095448Y-72161951D02*
X59190686Y-72209570D01*
X59190686Y-72209570D02*
X59238305Y-72257189D01*
X59238305Y-72257189D02*
X59285924Y-72352427D01*
X59285924Y-72352427D02*
X59285924Y-72495284D01*
X59285924Y-72495284D02*
X59238305Y-72590522D01*
X59238305Y-72590522D02*
X59190686Y-72638141D01*
X59190686Y-72638141D02*
X59095448Y-72685760D01*
X59095448Y-72685760D02*
X58714496Y-72685760D01*
X59666877Y-72876236D02*
X60143067Y-72876236D01*
X59571639Y-73161951D02*
X59904972Y-72161951D01*
X59904972Y-72161951D02*
X60238305Y-73161951D01*
X61000210Y-72161951D02*
X60809734Y-72161951D01*
X60809734Y-72161951D02*
X60714496Y-72209570D01*
X60714496Y-72209570D02*
X60666877Y-72257189D01*
X60666877Y-72257189D02*
X60571639Y-72400046D01*
X60571639Y-72400046D02*
X60524020Y-72590522D01*
X60524020Y-72590522D02*
X60524020Y-72971474D01*
X60524020Y-72971474D02*
X60571639Y-73066712D01*
X60571639Y-73066712D02*
X60619258Y-73114332D01*
X60619258Y-73114332D02*
X60714496Y-73161951D01*
X60714496Y-73161951D02*
X60904972Y-73161951D01*
X60904972Y-73161951D02*
X61000210Y-73114332D01*
X61000210Y-73114332D02*
X61047829Y-73066712D01*
X61047829Y-73066712D02*
X61095448Y-72971474D01*
X61095448Y-72971474D02*
X61095448Y-72733379D01*
X61095448Y-72733379D02*
X61047829Y-72638141D01*
X61047829Y-72638141D02*
X61000210Y-72590522D01*
X61000210Y-72590522D02*
X60904972Y-72542903D01*
X60904972Y-72542903D02*
X60714496Y-72542903D01*
X60714496Y-72542903D02*
X60619258Y-72590522D01*
X60619258Y-72590522D02*
X60571639Y-72638141D01*
X60571639Y-72638141D02*
X60524020Y-72733379D01*
X92475567Y-77451392D02*
X92380329Y-77403773D01*
X92380329Y-77403773D02*
X92237472Y-77403773D01*
X92237472Y-77403773D02*
X92094615Y-77451392D01*
X92094615Y-77451392D02*
X91999377Y-77546630D01*
X91999377Y-77546630D02*
X91951758Y-77641868D01*
X91951758Y-77641868D02*
X91904139Y-77832344D01*
X91904139Y-77832344D02*
X91904139Y-77975201D01*
X91904139Y-77975201D02*
X91951758Y-78165677D01*
X91951758Y-78165677D02*
X91999377Y-78260915D01*
X91999377Y-78260915D02*
X92094615Y-78356154D01*
X92094615Y-78356154D02*
X92237472Y-78403773D01*
X92237472Y-78403773D02*
X92332710Y-78403773D01*
X92332710Y-78403773D02*
X92475567Y-78356154D01*
X92475567Y-78356154D02*
X92523186Y-78308534D01*
X92523186Y-78308534D02*
X92523186Y-77975201D01*
X92523186Y-77975201D02*
X92332710Y-77975201D01*
X92951758Y-78403773D02*
X92951758Y-77403773D01*
X92951758Y-77403773D02*
X93523186Y-78403773D01*
X93523186Y-78403773D02*
X93523186Y-77403773D01*
X93999377Y-78403773D02*
X93999377Y-77403773D01*
X93999377Y-77403773D02*
X94237472Y-77403773D01*
X94237472Y-77403773D02*
X94380329Y-77451392D01*
X94380329Y-77451392D02*
X94475567Y-77546630D01*
X94475567Y-77546630D02*
X94523186Y-77641868D01*
X94523186Y-77641868D02*
X94570805Y-77832344D01*
X94570805Y-77832344D02*
X94570805Y-77975201D01*
X94570805Y-77975201D02*
X94523186Y-78165677D01*
X94523186Y-78165677D02*
X94475567Y-78260915D01*
X94475567Y-78260915D02*
X94380329Y-78356154D01*
X94380329Y-78356154D02*
X94237472Y-78403773D01*
X94237472Y-78403773D02*
X93999377Y-78403773D01*
X91237472Y-73296630D02*
X91237472Y-72296630D01*
X91237472Y-72296630D02*
X91808900Y-73296630D01*
X91808900Y-73296630D02*
X91808900Y-72296630D01*
X92237472Y-73249011D02*
X92380329Y-73296630D01*
X92380329Y-73296630D02*
X92618424Y-73296630D01*
X92618424Y-73296630D02*
X92713662Y-73249011D01*
X92713662Y-73249011D02*
X92761281Y-73201391D01*
X92761281Y-73201391D02*
X92808900Y-73106153D01*
X92808900Y-73106153D02*
X92808900Y-73010915D01*
X92808900Y-73010915D02*
X92761281Y-72915677D01*
X92761281Y-72915677D02*
X92713662Y-72868058D01*
X92713662Y-72868058D02*
X92618424Y-72820439D01*
X92618424Y-72820439D02*
X92427948Y-72772820D01*
X92427948Y-72772820D02*
X92332710Y-72725201D01*
X92332710Y-72725201D02*
X92285091Y-72677582D01*
X92285091Y-72677582D02*
X92237472Y-72582344D01*
X92237472Y-72582344D02*
X92237472Y-72487106D01*
X92237472Y-72487106D02*
X92285091Y-72391868D01*
X92285091Y-72391868D02*
X92332710Y-72344249D01*
X92332710Y-72344249D02*
X92427948Y-72296630D01*
X92427948Y-72296630D02*
X92666043Y-72296630D01*
X92666043Y-72296630D02*
X92808900Y-72344249D01*
X93808900Y-73296630D02*
X93475567Y-72820439D01*
X93237472Y-73296630D02*
X93237472Y-72296630D01*
X93237472Y-72296630D02*
X93618424Y-72296630D01*
X93618424Y-72296630D02*
X93713662Y-72344249D01*
X93713662Y-72344249D02*
X93761281Y-72391868D01*
X93761281Y-72391868D02*
X93808900Y-72487106D01*
X93808900Y-72487106D02*
X93808900Y-72629963D01*
X93808900Y-72629963D02*
X93761281Y-72725201D01*
X93761281Y-72725201D02*
X93713662Y-72772820D01*
X93713662Y-72772820D02*
X93618424Y-72820439D01*
X93618424Y-72820439D02*
X93237472Y-72820439D01*
X94094615Y-72296630D02*
X94666043Y-72296630D01*
X94380329Y-73296630D02*
X94380329Y-72296630D01*
X58714496Y-68090523D02*
X58714496Y-67090523D01*
X58714496Y-67090523D02*
X59095448Y-67090523D01*
X59095448Y-67090523D02*
X59190686Y-67138142D01*
X59190686Y-67138142D02*
X59238305Y-67185761D01*
X59238305Y-67185761D02*
X59285924Y-67280999D01*
X59285924Y-67280999D02*
X59285924Y-67423856D01*
X59285924Y-67423856D02*
X59238305Y-67519094D01*
X59238305Y-67519094D02*
X59190686Y-67566713D01*
X59190686Y-67566713D02*
X59095448Y-67614332D01*
X59095448Y-67614332D02*
X58714496Y-67614332D01*
X59666877Y-67804808D02*
X60143067Y-67804808D01*
X59571639Y-68090523D02*
X59904972Y-67090523D01*
X59904972Y-67090523D02*
X60238305Y-68090523D01*
X61000210Y-67423856D02*
X61000210Y-68090523D01*
X60762115Y-67042904D02*
X60524020Y-67757189D01*
X60524020Y-67757189D02*
X61143067Y-67757189D01*
X58714496Y-70626237D02*
X58714496Y-69626237D01*
X58714496Y-69626237D02*
X59095448Y-69626237D01*
X59095448Y-69626237D02*
X59190686Y-69673856D01*
X59190686Y-69673856D02*
X59238305Y-69721475D01*
X59238305Y-69721475D02*
X59285924Y-69816713D01*
X59285924Y-69816713D02*
X59285924Y-69959570D01*
X59285924Y-69959570D02*
X59238305Y-70054808D01*
X59238305Y-70054808D02*
X59190686Y-70102427D01*
X59190686Y-70102427D02*
X59095448Y-70150046D01*
X59095448Y-70150046D02*
X58714496Y-70150046D01*
X59666877Y-70340522D02*
X60143067Y-70340522D01*
X59571639Y-70626237D02*
X59904972Y-69626237D01*
X59904972Y-69626237D02*
X60238305Y-70626237D01*
X61047829Y-69626237D02*
X60571639Y-69626237D01*
X60571639Y-69626237D02*
X60524020Y-70102427D01*
X60524020Y-70102427D02*
X60571639Y-70054808D01*
X60571639Y-70054808D02*
X60666877Y-70007189D01*
X60666877Y-70007189D02*
X60904972Y-70007189D01*
X60904972Y-70007189D02*
X61000210Y-70054808D01*
X61000210Y-70054808D02*
X61047829Y-70102427D01*
X61047829Y-70102427D02*
X61095448Y-70197665D01*
X61095448Y-70197665D02*
X61095448Y-70435760D01*
X61095448Y-70435760D02*
X61047829Y-70530998D01*
X61047829Y-70530998D02*
X61000210Y-70578618D01*
X61000210Y-70578618D02*
X60904972Y-70626237D01*
X60904972Y-70626237D02*
X60666877Y-70626237D01*
X60666877Y-70626237D02*
X60571639Y-70578618D01*
X60571639Y-70578618D02*
X60524020Y-70530998D01*
X89904139Y-63034725D02*
X90046996Y-63082344D01*
X90046996Y-63082344D02*
X90285091Y-63082344D01*
X90285091Y-63082344D02*
X90380329Y-63034725D01*
X90380329Y-63034725D02*
X90427948Y-62987105D01*
X90427948Y-62987105D02*
X90475567Y-62891867D01*
X90475567Y-62891867D02*
X90475567Y-62796629D01*
X90475567Y-62796629D02*
X90427948Y-62701391D01*
X90427948Y-62701391D02*
X90380329Y-62653772D01*
X90380329Y-62653772D02*
X90285091Y-62606153D01*
X90285091Y-62606153D02*
X90094615Y-62558534D01*
X90094615Y-62558534D02*
X89999377Y-62510915D01*
X89999377Y-62510915D02*
X89951758Y-62463296D01*
X89951758Y-62463296D02*
X89904139Y-62368058D01*
X89904139Y-62368058D02*
X89904139Y-62272820D01*
X89904139Y-62272820D02*
X89951758Y-62177582D01*
X89951758Y-62177582D02*
X89999377Y-62129963D01*
X89999377Y-62129963D02*
X90094615Y-62082344D01*
X90094615Y-62082344D02*
X90332710Y-62082344D01*
X90332710Y-62082344D02*
X90475567Y-62129963D01*
X90904139Y-63082344D02*
X90904139Y-62082344D01*
X91380329Y-63082344D02*
X91380329Y-62082344D01*
X91380329Y-62082344D02*
X91713662Y-62796629D01*
X91713662Y-62796629D02*
X92046995Y-62082344D01*
X92046995Y-62082344D02*
X92046995Y-63082344D01*
X93142234Y-62082344D02*
X93713662Y-62082344D01*
X93427948Y-63082344D02*
X93427948Y-62082344D01*
X93951758Y-62082344D02*
X94618424Y-63082344D01*
X94618424Y-62082344D02*
X93951758Y-63082344D01*
X59238305Y-77280999D02*
X59143067Y-77233380D01*
X59143067Y-77233380D02*
X59000210Y-77233380D01*
X59000210Y-77233380D02*
X58857353Y-77280999D01*
X58857353Y-77280999D02*
X58762115Y-77376237D01*
X58762115Y-77376237D02*
X58714496Y-77471475D01*
X58714496Y-77471475D02*
X58666877Y-77661951D01*
X58666877Y-77661951D02*
X58666877Y-77804808D01*
X58666877Y-77804808D02*
X58714496Y-77995284D01*
X58714496Y-77995284D02*
X58762115Y-78090522D01*
X58762115Y-78090522D02*
X58857353Y-78185761D01*
X58857353Y-78185761D02*
X59000210Y-78233380D01*
X59000210Y-78233380D02*
X59095448Y-78233380D01*
X59095448Y-78233380D02*
X59238305Y-78185761D01*
X59238305Y-78185761D02*
X59285924Y-78138141D01*
X59285924Y-78138141D02*
X59285924Y-77804808D01*
X59285924Y-77804808D02*
X59095448Y-77804808D01*
X59714496Y-78233380D02*
X59714496Y-77233380D01*
X59714496Y-77233380D02*
X60285924Y-78233380D01*
X60285924Y-78233380D02*
X60285924Y-77233380D01*
X60762115Y-78233380D02*
X60762115Y-77233380D01*
X60762115Y-77233380D02*
X61000210Y-77233380D01*
X61000210Y-77233380D02*
X61143067Y-77280999D01*
X61143067Y-77280999D02*
X61238305Y-77376237D01*
X61238305Y-77376237D02*
X61285924Y-77471475D01*
X61285924Y-77471475D02*
X61333543Y-77661951D01*
X61333543Y-77661951D02*
X61333543Y-77804808D01*
X61333543Y-77804808D02*
X61285924Y-77995284D01*
X61285924Y-77995284D02*
X61238305Y-78090522D01*
X61238305Y-78090522D02*
X61143067Y-78185761D01*
X61143067Y-78185761D02*
X61000210Y-78233380D01*
X61000210Y-78233380D02*
X60762115Y-78233380D01*
X87094615Y-68141868D02*
X87237472Y-68189487D01*
X87237472Y-68189487D02*
X87475567Y-68189487D01*
X87475567Y-68189487D02*
X87570805Y-68141868D01*
X87570805Y-68141868D02*
X87618424Y-68094248D01*
X87618424Y-68094248D02*
X87666043Y-67999010D01*
X87666043Y-67999010D02*
X87666043Y-67903772D01*
X87666043Y-67903772D02*
X87618424Y-67808534D01*
X87618424Y-67808534D02*
X87570805Y-67760915D01*
X87570805Y-67760915D02*
X87475567Y-67713296D01*
X87475567Y-67713296D02*
X87285091Y-67665677D01*
X87285091Y-67665677D02*
X87189853Y-67618058D01*
X87189853Y-67618058D02*
X87142234Y-67570439D01*
X87142234Y-67570439D02*
X87094615Y-67475201D01*
X87094615Y-67475201D02*
X87094615Y-67379963D01*
X87094615Y-67379963D02*
X87142234Y-67284725D01*
X87142234Y-67284725D02*
X87189853Y-67237106D01*
X87189853Y-67237106D02*
X87285091Y-67189487D01*
X87285091Y-67189487D02*
X87523186Y-67189487D01*
X87523186Y-67189487D02*
X87666043Y-67237106D01*
X88094615Y-68189487D02*
X88094615Y-67189487D01*
X88570805Y-68189487D02*
X88570805Y-67189487D01*
X88570805Y-67189487D02*
X88904138Y-67903772D01*
X88904138Y-67903772D02*
X89237471Y-67189487D01*
X89237471Y-67189487D02*
X89237471Y-68189487D01*
X91046995Y-68189487D02*
X90713662Y-67713296D01*
X90475567Y-68189487D02*
X90475567Y-67189487D01*
X90475567Y-67189487D02*
X90856519Y-67189487D01*
X90856519Y-67189487D02*
X90951757Y-67237106D01*
X90951757Y-67237106D02*
X90999376Y-67284725D01*
X90999376Y-67284725D02*
X91046995Y-67379963D01*
X91046995Y-67379963D02*
X91046995Y-67522820D01*
X91046995Y-67522820D02*
X90999376Y-67618058D01*
X90999376Y-67618058D02*
X90951757Y-67665677D01*
X90951757Y-67665677D02*
X90856519Y-67713296D01*
X90856519Y-67713296D02*
X90475567Y-67713296D01*
X91475567Y-67665677D02*
X91808900Y-67665677D01*
X91951757Y-68189487D02*
X91475567Y-68189487D01*
X91475567Y-68189487D02*
X91475567Y-67189487D01*
X91475567Y-67189487D02*
X91951757Y-67189487D01*
X92332710Y-68141868D02*
X92475567Y-68189487D01*
X92475567Y-68189487D02*
X92713662Y-68189487D01*
X92713662Y-68189487D02*
X92808900Y-68141868D01*
X92808900Y-68141868D02*
X92856519Y-68094248D01*
X92856519Y-68094248D02*
X92904138Y-67999010D01*
X92904138Y-67999010D02*
X92904138Y-67903772D01*
X92904138Y-67903772D02*
X92856519Y-67808534D01*
X92856519Y-67808534D02*
X92808900Y-67760915D01*
X92808900Y-67760915D02*
X92713662Y-67713296D01*
X92713662Y-67713296D02*
X92523186Y-67665677D01*
X92523186Y-67665677D02*
X92427948Y-67618058D01*
X92427948Y-67618058D02*
X92380329Y-67570439D01*
X92380329Y-67570439D02*
X92332710Y-67475201D01*
X92332710Y-67475201D02*
X92332710Y-67379963D01*
X92332710Y-67379963D02*
X92380329Y-67284725D01*
X92380329Y-67284725D02*
X92427948Y-67237106D01*
X92427948Y-67237106D02*
X92523186Y-67189487D01*
X92523186Y-67189487D02*
X92761281Y-67189487D01*
X92761281Y-67189487D02*
X92904138Y-67237106D01*
X93332710Y-67665677D02*
X93666043Y-67665677D01*
X93808900Y-68189487D02*
X93332710Y-68189487D01*
X93332710Y-68189487D02*
X93332710Y-67189487D01*
X93332710Y-67189487D02*
X93808900Y-67189487D01*
X94094615Y-67189487D02*
X94666043Y-67189487D01*
X94380329Y-68189487D02*
X94380329Y-67189487D01*
G36*
X97911888Y-53743425D02*
G01*
X97936556Y-53768092D01*
X97966361Y-53827702D01*
X97966361Y-53923345D01*
X97936556Y-53982954D01*
X97911888Y-54007621D01*
X97852277Y-54037428D01*
X97613777Y-54037428D01*
X97554167Y-54007623D01*
X97529499Y-53982954D01*
X97499694Y-53923344D01*
X97499694Y-53827702D01*
X97529499Y-53768092D01*
X97554167Y-53743423D01*
X97613777Y-53713619D01*
X97852277Y-53713619D01*
X97911888Y-53743425D01*
G37*
G36*
X97911888Y-50267234D02*
G01*
X97936556Y-50291901D01*
X97966361Y-50351511D01*
X97966361Y-50447154D01*
X97936556Y-50506763D01*
X97911888Y-50531430D01*
X97852277Y-50561237D01*
X97613777Y-50561237D01*
X97554167Y-50531432D01*
X97529499Y-50506763D01*
X97499694Y-50447153D01*
X97499694Y-50351511D01*
X97529499Y-50291901D01*
X97554167Y-50267232D01*
X97613777Y-50237428D01*
X97852277Y-50237428D01*
X97911888Y-50267234D01*
G37*
G36*
X96231035Y-50088922D02*
G01*
X96301944Y-50124377D01*
X96326612Y-50149044D01*
X96356417Y-50208654D01*
X96356417Y-50256678D01*
X96326612Y-50316287D01*
X96301944Y-50340954D01*
X96231035Y-50376409D01*
X96063154Y-50418380D01*
X95849678Y-50418380D01*
X95681797Y-50376409D01*
X95610890Y-50340956D01*
X95586222Y-50316287D01*
X95556417Y-50256677D01*
X95556417Y-50208654D01*
X95586222Y-50149044D01*
X95610890Y-50124375D01*
X95681797Y-50088922D01*
X95849678Y-50046952D01*
X96063154Y-50046952D01*
X96231035Y-50088922D01*
G37*
G36*
X97966361Y-49399130D02*
G01*
X97966361Y-49542392D01*
X97936556Y-49602001D01*
X97911888Y-49626668D01*
X97852277Y-49656475D01*
X97613777Y-49656475D01*
X97554167Y-49626670D01*
X97529499Y-49602001D01*
X97499694Y-49542391D01*
X97499694Y-49399130D01*
X97509117Y-49380285D01*
X97956938Y-49380285D01*
X97966361Y-49399130D01*
G37*
G36*
X97611047Y-48751713D02*
G01*
X97566158Y-48751713D01*
X97521849Y-48729558D01*
X97499694Y-48685248D01*
X97499694Y-48541987D01*
X97521849Y-48497677D01*
X97556749Y-48480227D01*
X97611047Y-48751713D01*
G37*
G36*
X95730514Y-45791043D02*
G01*
X95755183Y-45815711D01*
X95784988Y-45875321D01*
X95784988Y-46018583D01*
X95755183Y-46078192D01*
X95730514Y-46102860D01*
X95670905Y-46132666D01*
X95670500Y-46132666D01*
X95610890Y-46102861D01*
X95586222Y-46078192D01*
X95556417Y-46018582D01*
X95556417Y-45875321D01*
X95586222Y-45815711D01*
X95610890Y-45791042D01*
X95670500Y-45761238D01*
X95670905Y-45761238D01*
X95730514Y-45791043D01*
G37*
G36*
X96301944Y-45791044D02*
G01*
X96326612Y-45815711D01*
X96356417Y-45875321D01*
X96356417Y-46018583D01*
X96326612Y-46078192D01*
X96301944Y-46102859D01*
X96242333Y-46132666D01*
X96099071Y-46132666D01*
X96039461Y-46102861D01*
X96014793Y-46078192D01*
X95984988Y-46018582D01*
X95984988Y-45875321D01*
X96014793Y-45815711D01*
X96039461Y-45791042D01*
X96099071Y-45761238D01*
X96242333Y-45761238D01*
X96301944Y-45791044D01*
G37*
G36*
X96231035Y-44850827D02*
G01*
X96301944Y-44886282D01*
X96326612Y-44910949D01*
X96356417Y-44970559D01*
X96356417Y-45018583D01*
X96326612Y-45078192D01*
X96301944Y-45102859D01*
X96231035Y-45138314D01*
X96063154Y-45180285D01*
X95849678Y-45180285D01*
X95681797Y-45138314D01*
X95610890Y-45102861D01*
X95586222Y-45078192D01*
X95556417Y-45018582D01*
X95556417Y-44970559D01*
X95586222Y-44910949D01*
X95610890Y-44886280D01*
X95681797Y-44850827D01*
X95849678Y-44808857D01*
X96063154Y-44808857D01*
X96231035Y-44850827D01*
G37*
G36*
X95730514Y-43886281D02*
G01*
X95755183Y-43910949D01*
X95784988Y-43970559D01*
X95784988Y-44113821D01*
X95755183Y-44173430D01*
X95730514Y-44198098D01*
X95670905Y-44227904D01*
X95670500Y-44227904D01*
X95610890Y-44198099D01*
X95586222Y-44173430D01*
X95556417Y-44113820D01*
X95556417Y-43970559D01*
X95586222Y-43910949D01*
X95610890Y-43886280D01*
X95670500Y-43856476D01*
X95670905Y-43856476D01*
X95730514Y-43886281D01*
G37*
G36*
X96301944Y-43886282D02*
G01*
X96326612Y-43910949D01*
X96356417Y-43970559D01*
X96356417Y-44113821D01*
X96326612Y-44173430D01*
X96301944Y-44198097D01*
X96242333Y-44227904D01*
X96099071Y-44227904D01*
X96039461Y-44198099D01*
X96014793Y-44173430D01*
X95984988Y-44113820D01*
X95984988Y-43970559D01*
X96014793Y-43910949D01*
X96039461Y-43886280D01*
X96099071Y-43856476D01*
X96242333Y-43856476D01*
X96301944Y-43886282D01*
G37*
G36*
X98277472Y-56348539D02*
G01*
X95245306Y-56348539D01*
X95245306Y-55708857D01*
X95356417Y-55708857D01*
X95356417Y-55946952D01*
X95358338Y-55966461D01*
X95359713Y-55969781D01*
X95359968Y-55973365D01*
X95366974Y-55991673D01*
X95414593Y-56086911D01*
X95419878Y-56095307D01*
X95420889Y-56097747D01*
X95423142Y-56100493D01*
X95425036Y-56103501D01*
X95427030Y-56105230D01*
X95433325Y-56112901D01*
X95480944Y-56160519D01*
X95488610Y-56166811D01*
X95490343Y-56168809D01*
X95493351Y-56170702D01*
X95496097Y-56172956D01*
X95498537Y-56173966D01*
X95506934Y-56179252D01*
X95602171Y-56226871D01*
X95620480Y-56233877D01*
X95624063Y-56234131D01*
X95627384Y-56235507D01*
X95646893Y-56237428D01*
X95742131Y-56237428D01*
X95761640Y-56235507D01*
X95764960Y-56234131D01*
X95768544Y-56233877D01*
X95786852Y-56226871D01*
X95882090Y-56179252D01*
X95890486Y-56173966D01*
X95892926Y-56172956D01*
X95895672Y-56170702D01*
X95898680Y-56168809D01*
X95900409Y-56166814D01*
X95908080Y-56160520D01*
X95955698Y-56112901D01*
X95961990Y-56105234D01*
X95963988Y-56103502D01*
X95965881Y-56100493D01*
X95968135Y-56097748D01*
X95969145Y-56095307D01*
X95974431Y-56086911D01*
X96022050Y-55991674D01*
X96022596Y-55990245D01*
X96023026Y-55989666D01*
X96025947Y-55981489D01*
X96029056Y-55973365D01*
X96029107Y-55972644D01*
X96029621Y-55971206D01*
X96074577Y-55791380D01*
X96110031Y-55720473D01*
X96134699Y-55695804D01*
X96194309Y-55666000D01*
X96242333Y-55666000D01*
X96301944Y-55695806D01*
X96326612Y-55720473D01*
X96356417Y-55780083D01*
X96356417Y-55978344D01*
X96313930Y-56105805D01*
X96309583Y-56124921D01*
X96312349Y-56163841D01*
X96329799Y-56198740D01*
X96359275Y-56224305D01*
X96396291Y-56236643D01*
X96435211Y-56233877D01*
X96470110Y-56216427D01*
X96495675Y-56186951D01*
X96503666Y-56169051D01*
X96551285Y-56026194D01*
X96553484Y-56016521D01*
X96554496Y-56014080D01*
X96554844Y-56010542D01*
X96555632Y-56007079D01*
X96555444Y-56004444D01*
X96556417Y-55994571D01*
X96556417Y-55756476D01*
X96554496Y-55736967D01*
X96553120Y-55733646D01*
X96552866Y-55730063D01*
X96545860Y-55711754D01*
X96498241Y-55616517D01*
X96492955Y-55608120D01*
X96491945Y-55605680D01*
X96489691Y-55602934D01*
X96487798Y-55599926D01*
X96485801Y-55598194D01*
X96479508Y-55590526D01*
X96431888Y-55542908D01*
X96424218Y-55536613D01*
X96422489Y-55534619D01*
X96419484Y-55532727D01*
X96416735Y-55530471D01*
X96414291Y-55529459D01*
X96405899Y-55524176D01*
X96310661Y-55476557D01*
X96292353Y-55469551D01*
X96288769Y-55469296D01*
X96285449Y-55467921D01*
X96265940Y-55466000D01*
X96170702Y-55466000D01*
X96151193Y-55467921D01*
X96147872Y-55469296D01*
X96144289Y-55469551D01*
X96125980Y-55476557D01*
X96030743Y-55524176D01*
X96022346Y-55529461D01*
X96019906Y-55530472D01*
X96017160Y-55532725D01*
X96014152Y-55534619D01*
X96012419Y-55536616D01*
X96004753Y-55542909D01*
X95957134Y-55590527D01*
X95950839Y-55598197D01*
X95948845Y-55599927D01*
X95946951Y-55602934D01*
X95944698Y-55605681D01*
X95943687Y-55608120D01*
X95938402Y-55616517D01*
X95890783Y-55711755D01*
X95890237Y-55713181D01*
X95889807Y-55713762D01*
X95886885Y-55721938D01*
X95883777Y-55730063D01*
X95883725Y-55730785D01*
X95883212Y-55732223D01*
X95838255Y-55912047D01*
X95802802Y-55982954D01*
X95778133Y-56007622D01*
X95718524Y-56037428D01*
X95670500Y-56037428D01*
X95610890Y-56007623D01*
X95586222Y-55982954D01*
X95556417Y-55923344D01*
X95556417Y-55725084D01*
X95598904Y-55597623D01*
X95603251Y-55578508D01*
X95600485Y-55539588D01*
X95583035Y-55504689D01*
X95553559Y-55479124D01*
X95516543Y-55466785D01*
X95477623Y-55469552D01*
X95442724Y-55487001D01*
X95417159Y-55516477D01*
X95409168Y-55534378D01*
X95361549Y-55677234D01*
X95359349Y-55686905D01*
X95358338Y-55689348D01*
X95357989Y-55692886D01*
X95357202Y-55696350D01*
X95357389Y-55698983D01*
X95356417Y-55708857D01*
X95245306Y-55708857D01*
X95245306Y-54708857D01*
X95356417Y-54708857D01*
X95356417Y-55280285D01*
X95358338Y-55299794D01*
X95373270Y-55335842D01*
X95400860Y-55363432D01*
X95436908Y-55378364D01*
X95475926Y-55378364D01*
X95511974Y-55363432D01*
X95539564Y-55335842D01*
X95554496Y-55299794D01*
X95556417Y-55280285D01*
X95556417Y-55094571D01*
X96456417Y-55094571D01*
X96475926Y-55092650D01*
X96511974Y-55077718D01*
X96539564Y-55050128D01*
X96554496Y-55014080D01*
X96554496Y-54975062D01*
X96539564Y-54939014D01*
X96511974Y-54911424D01*
X96475926Y-54896492D01*
X96456417Y-54894571D01*
X95556417Y-54894571D01*
X95556417Y-54708857D01*
X95554496Y-54689348D01*
X95539564Y-54653300D01*
X95511974Y-54625710D01*
X95475926Y-54610778D01*
X95436908Y-54610778D01*
X95400860Y-54625710D01*
X95373270Y-54653300D01*
X95358338Y-54689348D01*
X95356417Y-54708857D01*
X95245306Y-54708857D01*
X95245306Y-54546490D01*
X96968282Y-54546490D01*
X96968282Y-54585508D01*
X96983214Y-54621556D01*
X97010804Y-54649146D01*
X97046852Y-54664078D01*
X97066361Y-54665999D01*
X98066361Y-54665999D01*
X98085870Y-54664078D01*
X98121918Y-54649146D01*
X98149508Y-54621556D01*
X98164440Y-54585508D01*
X98164440Y-54546490D01*
X98149508Y-54510442D01*
X98121918Y-54482852D01*
X98085870Y-54467920D01*
X98066361Y-54465999D01*
X97066361Y-54465999D01*
X97046852Y-54467920D01*
X97010804Y-54482852D01*
X96983214Y-54510442D01*
X96968282Y-54546490D01*
X95245306Y-54546490D01*
X95245306Y-53724040D01*
X95357576Y-53724040D01*
X95358338Y-53726135D01*
X95358338Y-53728366D01*
X95364982Y-53744407D01*
X95370911Y-53760709D01*
X95372416Y-53762352D01*
X95373270Y-53764414D01*
X95385543Y-53776687D01*
X95397262Y-53789484D01*
X95399906Y-53791050D01*
X95400860Y-53792004D01*
X95403041Y-53792907D01*
X95414128Y-53799475D01*
X95934232Y-54042190D01*
X95414128Y-54284905D01*
X95403041Y-54291472D01*
X95400860Y-54292376D01*
X95399906Y-54293329D01*
X95397262Y-54294896D01*
X95385543Y-54307692D01*
X95373270Y-54319966D01*
X95372416Y-54322027D01*
X95370911Y-54323671D01*
X95364982Y-54339972D01*
X95358338Y-54356014D01*
X95358338Y-54358244D01*
X95357576Y-54360340D01*
X95358338Y-54377679D01*
X95358338Y-54395032D01*
X95359191Y-54397091D01*
X95359289Y-54399320D01*
X95366630Y-54415050D01*
X95373270Y-54431080D01*
X95374846Y-54432656D01*
X95375790Y-54434678D01*
X95388586Y-54446396D01*
X95400860Y-54458670D01*
X95402921Y-54459523D01*
X95404565Y-54461029D01*
X95420866Y-54466957D01*
X95436908Y-54473602D01*
X95439966Y-54473903D01*
X95441234Y-54474364D01*
X95443593Y-54474260D01*
X95456417Y-54475523D01*
X96456417Y-54475523D01*
X96475926Y-54473602D01*
X96511974Y-54458670D01*
X96539564Y-54431080D01*
X96554496Y-54395032D01*
X96554496Y-54356014D01*
X96539564Y-54319966D01*
X96511974Y-54292376D01*
X96475926Y-54277444D01*
X96456417Y-54275523D01*
X95907173Y-54275523D01*
X96212991Y-54132808D01*
X96220132Y-54128577D01*
X96222554Y-54127697D01*
X96224266Y-54126128D01*
X96229857Y-54122817D01*
X96240117Y-54111612D01*
X96251330Y-54101345D01*
X96253209Y-54097317D01*
X96256209Y-54094042D01*
X96261400Y-54079766D01*
X96267830Y-54065988D01*
X96268025Y-54061547D01*
X96269543Y-54057373D01*
X96268875Y-54042190D01*
X96269543Y-54027007D01*
X96268025Y-54022832D01*
X96267830Y-54018392D01*
X96261400Y-54004613D01*
X96256209Y-53990338D01*
X96253209Y-53987062D01*
X96251330Y-53983035D01*
X96240117Y-53972767D01*
X96229857Y-53961563D01*
X96224266Y-53958251D01*
X96222554Y-53956683D01*
X96220132Y-53955802D01*
X96212991Y-53951572D01*
X95907173Y-53808857D01*
X96456417Y-53808857D01*
X96475926Y-53806936D01*
X96482785Y-53804095D01*
X97299694Y-53804095D01*
X97299694Y-53946952D01*
X97301615Y-53966461D01*
X97302990Y-53969781D01*
X97303245Y-53973365D01*
X97310251Y-53991673D01*
X97357870Y-54086911D01*
X97363155Y-54095307D01*
X97364166Y-54097747D01*
X97366419Y-54100493D01*
X97368313Y-54103501D01*
X97370307Y-54105230D01*
X97376602Y-54112901D01*
X97424221Y-54160519D01*
X97431887Y-54166811D01*
X97433620Y-54168809D01*
X97436628Y-54170702D01*
X97439374Y-54172956D01*
X97441814Y-54173966D01*
X97450211Y-54179252D01*
X97545448Y-54226871D01*
X97563757Y-54233877D01*
X97567340Y-54234131D01*
X97570661Y-54235507D01*
X97590170Y-54237428D01*
X97875884Y-54237428D01*
X97895393Y-54235507D01*
X97898713Y-54234131D01*
X97902297Y-54233877D01*
X97920605Y-54226871D01*
X98015843Y-54179252D01*
X98024235Y-54173968D01*
X98026679Y-54172957D01*
X98029428Y-54170700D01*
X98032433Y-54168809D01*
X98034162Y-54166814D01*
X98041832Y-54160520D01*
X98089452Y-54112902D01*
X98095745Y-54105233D01*
X98097742Y-54103502D01*
X98099635Y-54100493D01*
X98101889Y-54097748D01*
X98102899Y-54095307D01*
X98108185Y-54086911D01*
X98155804Y-53991674D01*
X98162810Y-53973365D01*
X98163064Y-53969781D01*
X98164440Y-53966461D01*
X98166361Y-53946952D01*
X98166361Y-53804095D01*
X98164440Y-53784586D01*
X98163064Y-53781265D01*
X98162810Y-53777682D01*
X98155804Y-53759373D01*
X98108185Y-53664136D01*
X98102899Y-53655739D01*
X98101889Y-53653299D01*
X98099635Y-53650553D01*
X98097742Y-53647545D01*
X98095745Y-53645813D01*
X98089452Y-53638145D01*
X98041832Y-53590527D01*
X98034162Y-53584232D01*
X98032433Y-53582238D01*
X98029428Y-53580346D01*
X98026679Y-53578090D01*
X98024235Y-53577078D01*
X98015843Y-53571795D01*
X97920605Y-53524176D01*
X97902297Y-53517170D01*
X97898713Y-53516915D01*
X97895393Y-53515540D01*
X97875884Y-53513619D01*
X97590170Y-53513619D01*
X97570661Y-53515540D01*
X97567340Y-53516915D01*
X97563757Y-53517170D01*
X97545448Y-53524176D01*
X97450211Y-53571795D01*
X97441814Y-53577080D01*
X97439374Y-53578091D01*
X97436628Y-53580344D01*
X97433620Y-53582238D01*
X97431887Y-53584235D01*
X97424221Y-53590528D01*
X97376602Y-53638146D01*
X97370307Y-53645816D01*
X97368313Y-53647546D01*
X97366419Y-53650553D01*
X97364166Y-53653300D01*
X97363155Y-53655739D01*
X97357870Y-53664136D01*
X97310251Y-53759374D01*
X97303245Y-53777682D01*
X97302990Y-53781265D01*
X97301615Y-53784586D01*
X97299694Y-53804095D01*
X96482785Y-53804095D01*
X96511974Y-53792004D01*
X96539564Y-53764414D01*
X96554496Y-53728366D01*
X96554496Y-53689348D01*
X96539564Y-53653300D01*
X96511974Y-53625710D01*
X96475926Y-53610778D01*
X96456417Y-53608857D01*
X95456417Y-53608857D01*
X95443593Y-53610119D01*
X95441234Y-53610016D01*
X95439966Y-53610476D01*
X95436908Y-53610778D01*
X95420866Y-53617422D01*
X95404565Y-53623351D01*
X95402921Y-53624856D01*
X95400860Y-53625710D01*
X95388586Y-53637983D01*
X95375790Y-53649702D01*
X95374846Y-53651723D01*
X95373270Y-53653300D01*
X95366630Y-53669329D01*
X95359289Y-53685060D01*
X95359191Y-53687288D01*
X95358338Y-53689348D01*
X95358338Y-53706700D01*
X95357576Y-53724040D01*
X95245306Y-53724040D01*
X95245306Y-52708857D01*
X95356417Y-52708857D01*
X95356417Y-53327904D01*
X95358338Y-53347413D01*
X95373270Y-53383461D01*
X95400860Y-53411051D01*
X95436908Y-53425983D01*
X95475926Y-53425983D01*
X95511974Y-53411051D01*
X95539564Y-53383461D01*
X95554496Y-53347413D01*
X95556417Y-53327904D01*
X95556417Y-52929233D01*
X95771519Y-53117448D01*
X95779952Y-53123477D01*
X95781812Y-53125337D01*
X95783575Y-53126067D01*
X95787466Y-53128849D01*
X95802854Y-53134053D01*
X95817860Y-53140269D01*
X95821234Y-53140269D01*
X95824427Y-53141349D01*
X95840630Y-53140269D01*
X95856878Y-53140269D01*
X95859993Y-53138978D01*
X95863359Y-53138754D01*
X95877924Y-53131551D01*
X95892926Y-53125337D01*
X95895309Y-53122953D01*
X95898334Y-53121458D01*
X95909038Y-53109224D01*
X95920516Y-53097747D01*
X95921805Y-53094633D01*
X95924028Y-53092094D01*
X95929233Y-53076702D01*
X95935448Y-53061699D01*
X95935916Y-53056939D01*
X95936528Y-53055132D01*
X95936353Y-53052507D01*
X95937369Y-53042190D01*
X95937369Y-52922940D01*
X95967174Y-52863330D01*
X95991842Y-52838661D01*
X96051452Y-52808857D01*
X96242333Y-52808857D01*
X96301944Y-52838663D01*
X96326612Y-52863330D01*
X96356417Y-52922940D01*
X96356417Y-53161440D01*
X96326612Y-53221049D01*
X96290468Y-53257193D01*
X96278031Y-53272346D01*
X96263100Y-53308394D01*
X96263099Y-53347412D01*
X96278030Y-53383461D01*
X96305620Y-53411051D01*
X96341668Y-53425982D01*
X96380686Y-53425983D01*
X96416735Y-53411052D01*
X96431888Y-53398615D01*
X96479508Y-53350997D01*
X96485801Y-53343328D01*
X96487798Y-53341597D01*
X96489691Y-53338588D01*
X96491945Y-53335843D01*
X96492955Y-53333402D01*
X96498241Y-53325006D01*
X96545860Y-53229769D01*
X96552866Y-53211460D01*
X96553120Y-53207876D01*
X96554496Y-53204556D01*
X96556417Y-53185047D01*
X96556417Y-52899333D01*
X96554496Y-52879824D01*
X96553120Y-52876503D01*
X96552866Y-52872920D01*
X96545860Y-52854611D01*
X96498241Y-52759374D01*
X96496417Y-52756476D01*
X96966361Y-52756476D01*
X96966361Y-53327904D01*
X96968282Y-53347413D01*
X96983214Y-53383461D01*
X97010804Y-53411051D01*
X97046852Y-53425983D01*
X97085870Y-53425983D01*
X97121918Y-53411051D01*
X97149508Y-53383461D01*
X97164440Y-53347413D01*
X97166361Y-53327904D01*
X97166361Y-53142190D01*
X98066361Y-53142190D01*
X98085870Y-53140269D01*
X98121918Y-53125337D01*
X98149508Y-53097747D01*
X98164440Y-53061699D01*
X98164440Y-53022681D01*
X98149508Y-52986633D01*
X98121918Y-52959043D01*
X98085870Y-52944111D01*
X98066361Y-52942190D01*
X97166361Y-52942190D01*
X97166361Y-52756476D01*
X97164440Y-52736967D01*
X97149508Y-52700919D01*
X97121918Y-52673329D01*
X97085870Y-52658397D01*
X97046852Y-52658397D01*
X97010804Y-52673329D01*
X96983214Y-52700919D01*
X96968282Y-52736967D01*
X96966361Y-52756476D01*
X96496417Y-52756476D01*
X96492955Y-52750977D01*
X96491945Y-52748537D01*
X96489691Y-52745791D01*
X96487798Y-52742783D01*
X96485801Y-52741051D01*
X96479508Y-52733383D01*
X96431888Y-52685765D01*
X96424218Y-52679470D01*
X96422489Y-52677476D01*
X96419484Y-52675584D01*
X96416735Y-52673328D01*
X96414291Y-52672316D01*
X96405899Y-52667033D01*
X96310661Y-52619414D01*
X96292353Y-52612408D01*
X96288769Y-52612153D01*
X96285449Y-52610778D01*
X96265940Y-52608857D01*
X96027845Y-52608857D01*
X96008336Y-52610778D01*
X96005015Y-52612153D01*
X96001432Y-52612408D01*
X95983123Y-52619414D01*
X95887886Y-52667033D01*
X95879489Y-52672318D01*
X95877049Y-52673329D01*
X95874303Y-52675582D01*
X95871295Y-52677476D01*
X95869562Y-52679473D01*
X95861896Y-52685766D01*
X95814277Y-52733384D01*
X95807982Y-52741054D01*
X95805988Y-52742784D01*
X95804094Y-52745791D01*
X95801841Y-52748538D01*
X95800830Y-52750977D01*
X95795545Y-52759374D01*
X95756121Y-52838221D01*
X95522267Y-52633599D01*
X95513833Y-52627569D01*
X95511974Y-52625710D01*
X95510210Y-52624979D01*
X95506320Y-52622198D01*
X95490931Y-52616993D01*
X95475926Y-52610778D01*
X95472552Y-52610778D01*
X95469359Y-52609698D01*
X95453156Y-52610778D01*
X95436908Y-52610778D01*
X95433792Y-52612068D01*
X95430427Y-52612293D01*
X95415866Y-52619493D01*
X95400860Y-52625710D01*
X95398475Y-52628094D01*
X95395452Y-52629590D01*
X95384754Y-52641815D01*
X95373270Y-52653300D01*
X95371979Y-52656414D01*
X95369758Y-52658954D01*
X95364553Y-52674342D01*
X95358338Y-52689348D01*
X95357869Y-52694107D01*
X95357258Y-52695915D01*
X95357432Y-52698539D01*
X95356417Y-52708857D01*
X95245306Y-52708857D01*
X95245306Y-51946952D01*
X95356417Y-51946952D01*
X95356417Y-52185047D01*
X95358338Y-52204556D01*
X95359713Y-52207876D01*
X95359968Y-52211460D01*
X95366974Y-52229768D01*
X95414593Y-52325006D01*
X95419878Y-52333402D01*
X95420889Y-52335842D01*
X95423142Y-52338588D01*
X95425036Y-52341596D01*
X95427030Y-52343325D01*
X95433325Y-52350996D01*
X95480944Y-52398614D01*
X95496097Y-52411051D01*
X95532146Y-52425982D01*
X95571164Y-52425982D01*
X95607212Y-52411051D01*
X95634802Y-52383461D01*
X95649733Y-52347413D01*
X95649733Y-52308395D01*
X95634802Y-52272346D01*
X95622365Y-52257193D01*
X95586222Y-52221049D01*
X95556417Y-52161439D01*
X95556417Y-51970559D01*
X95586222Y-51910949D01*
X95610890Y-51886280D01*
X95670500Y-51856476D01*
X95725904Y-51856476D01*
X95830968Y-51891497D01*
X96385706Y-52446234D01*
X96400860Y-52458670D01*
X96436908Y-52473602D01*
X96475926Y-52473602D01*
X96511974Y-52458670D01*
X96539564Y-52431080D01*
X96554496Y-52395032D01*
X96556417Y-52375523D01*
X96556417Y-51756476D01*
X96554496Y-51736967D01*
X96539564Y-51700919D01*
X96511974Y-51673329D01*
X96475926Y-51658397D01*
X96436908Y-51658397D01*
X96400860Y-51673329D01*
X96373270Y-51700919D01*
X96358338Y-51736967D01*
X96356417Y-51756476D01*
X96356417Y-52134101D01*
X95955699Y-51733384D01*
X95940545Y-51720948D01*
X95937226Y-51719573D01*
X95934511Y-51717218D01*
X95916610Y-51709227D01*
X95773754Y-51661608D01*
X95764082Y-51659408D01*
X95761640Y-51658397D01*
X95758101Y-51658048D01*
X95754638Y-51657261D01*
X95752004Y-51657448D01*
X95742131Y-51656476D01*
X95646893Y-51656476D01*
X95627384Y-51658397D01*
X95624063Y-51659772D01*
X95620480Y-51660027D01*
X95602171Y-51667033D01*
X95506934Y-51714652D01*
X95498537Y-51719937D01*
X95496097Y-51720948D01*
X95493351Y-51723201D01*
X95490343Y-51725095D01*
X95488610Y-51727092D01*
X95480944Y-51733385D01*
X95433325Y-51781003D01*
X95427030Y-51788673D01*
X95425036Y-51790403D01*
X95423142Y-51793410D01*
X95420889Y-51796157D01*
X95419878Y-51798596D01*
X95414593Y-51806993D01*
X95366974Y-51902231D01*
X95359968Y-51920539D01*
X95359713Y-51924122D01*
X95358338Y-51927443D01*
X95356417Y-51946952D01*
X95245306Y-51946952D01*
X95245306Y-51654252D01*
X96966605Y-51654252D01*
X96968282Y-51667445D01*
X96968282Y-51680746D01*
X96970721Y-51686634D01*
X96971525Y-51692959D01*
X96978125Y-51704508D01*
X96983214Y-51716794D01*
X96987721Y-51721301D01*
X96990884Y-51726836D01*
X97001398Y-51734978D01*
X97010804Y-51744384D01*
X97016694Y-51746823D01*
X97021733Y-51750726D01*
X97034561Y-51754224D01*
X97046852Y-51759316D01*
X97056829Y-51760298D01*
X97059376Y-51760993D01*
X97061343Y-51760742D01*
X97066361Y-51761237D01*
X98066361Y-51761237D01*
X98085870Y-51759316D01*
X98121918Y-51744384D01*
X98149508Y-51716794D01*
X98164440Y-51680746D01*
X98164440Y-51641728D01*
X98149508Y-51605680D01*
X98121918Y-51578090D01*
X98085870Y-51563158D01*
X98066361Y-51561237D01*
X97442917Y-51561237D01*
X98115975Y-51176633D01*
X98120085Y-51173714D01*
X98121918Y-51172956D01*
X98123784Y-51171089D01*
X98131960Y-51165286D01*
X98140104Y-51154769D01*
X98149508Y-51145366D01*
X98151946Y-51139478D01*
X98155851Y-51134437D01*
X98159350Y-51121604D01*
X98164440Y-51109318D01*
X98164440Y-51102942D01*
X98166117Y-51096793D01*
X98164440Y-51083599D01*
X98164440Y-51070300D01*
X98162000Y-51064411D01*
X98161197Y-51058087D01*
X98154596Y-51046537D01*
X98149508Y-51034252D01*
X98145000Y-51029744D01*
X98141838Y-51024210D01*
X98131321Y-51016065D01*
X98121918Y-51006662D01*
X98116030Y-51004223D01*
X98110989Y-51000319D01*
X98098156Y-50996819D01*
X98085870Y-50991730D01*
X98075892Y-50990747D01*
X98073346Y-50990053D01*
X98071378Y-50990303D01*
X98066361Y-50989809D01*
X97066361Y-50989809D01*
X97046852Y-50991730D01*
X97010804Y-51006662D01*
X96983214Y-51034252D01*
X96968282Y-51070300D01*
X96968282Y-51109318D01*
X96983214Y-51145366D01*
X97010804Y-51172956D01*
X97046852Y-51187888D01*
X97066361Y-51189809D01*
X97689805Y-51189809D01*
X97016747Y-51574413D01*
X97012636Y-51577331D01*
X97010804Y-51578090D01*
X97008937Y-51579956D01*
X97000762Y-51585760D01*
X96992619Y-51596274D01*
X96983214Y-51605680D01*
X96980774Y-51611570D01*
X96976872Y-51616609D01*
X96973373Y-51629437D01*
X96968282Y-51641728D01*
X96968282Y-51648103D01*
X96966605Y-51654252D01*
X95245306Y-51654252D01*
X95245306Y-50851714D01*
X95356417Y-50851714D01*
X95356417Y-51327904D01*
X95358338Y-51347413D01*
X95373270Y-51383461D01*
X95400860Y-51411051D01*
X95436908Y-51425983D01*
X95456417Y-51427904D01*
X96456417Y-51427904D01*
X96475926Y-51425983D01*
X96511974Y-51411051D01*
X96539564Y-51383461D01*
X96554496Y-51347413D01*
X96554496Y-51308395D01*
X96539564Y-51272347D01*
X96511974Y-51244757D01*
X96475926Y-51229825D01*
X96456417Y-51227904D01*
X96032607Y-51227904D01*
X96032607Y-50994571D01*
X96030686Y-50975062D01*
X96015754Y-50939014D01*
X95988164Y-50911424D01*
X95952116Y-50896492D01*
X95913098Y-50896492D01*
X95877050Y-50911424D01*
X95849460Y-50939014D01*
X95834528Y-50975062D01*
X95832607Y-50994571D01*
X95832607Y-51227904D01*
X95556417Y-51227904D01*
X95556417Y-50851714D01*
X95554496Y-50832205D01*
X95539564Y-50796157D01*
X95511974Y-50768567D01*
X95475926Y-50753635D01*
X95436908Y-50753635D01*
X95400860Y-50768567D01*
X95373270Y-50796157D01*
X95358338Y-50832205D01*
X95356417Y-50851714D01*
X95245306Y-50851714D01*
X95245306Y-50185047D01*
X95356417Y-50185047D01*
X95356417Y-50280285D01*
X95358338Y-50299794D01*
X95359713Y-50303114D01*
X95359968Y-50306698D01*
X95366974Y-50325006D01*
X95414593Y-50420244D01*
X95419878Y-50428640D01*
X95420889Y-50431080D01*
X95423142Y-50433826D01*
X95425036Y-50436834D01*
X95427030Y-50438563D01*
X95433325Y-50446234D01*
X95480944Y-50493852D01*
X95488610Y-50500144D01*
X95490343Y-50502142D01*
X95493351Y-50504035D01*
X95496097Y-50506289D01*
X95498537Y-50507299D01*
X95506934Y-50512585D01*
X95602171Y-50560204D01*
X95603599Y-50560750D01*
X95604179Y-50561180D01*
X95612355Y-50564101D01*
X95620480Y-50567210D01*
X95621200Y-50567261D01*
X95622639Y-50567775D01*
X95813115Y-50615394D01*
X95816496Y-50615894D01*
X95817860Y-50616459D01*
X95825210Y-50617182D01*
X95832508Y-50618262D01*
X95833966Y-50618044D01*
X95837369Y-50618380D01*
X96075464Y-50618380D01*
X96078866Y-50618044D01*
X96080325Y-50618262D01*
X96087622Y-50617182D01*
X96094973Y-50616459D01*
X96096336Y-50615894D01*
X96099718Y-50615394D01*
X96290193Y-50567775D01*
X96291630Y-50567261D01*
X96292353Y-50567210D01*
X96300477Y-50564101D01*
X96308654Y-50561180D01*
X96309234Y-50560749D01*
X96310661Y-50560204D01*
X96405899Y-50512585D01*
X96414291Y-50507301D01*
X96416735Y-50506290D01*
X96419484Y-50504033D01*
X96422489Y-50502142D01*
X96424218Y-50500147D01*
X96431888Y-50493853D01*
X96479508Y-50446235D01*
X96485801Y-50438566D01*
X96487798Y-50436835D01*
X96489691Y-50433826D01*
X96491945Y-50431081D01*
X96492955Y-50428640D01*
X96498241Y-50420244D01*
X96544411Y-50327904D01*
X97299694Y-50327904D01*
X97299694Y-50470761D01*
X97301615Y-50490270D01*
X97302990Y-50493590D01*
X97303245Y-50497174D01*
X97310251Y-50515482D01*
X97357870Y-50610720D01*
X97363155Y-50619116D01*
X97364166Y-50621556D01*
X97366419Y-50624302D01*
X97368313Y-50627310D01*
X97370307Y-50629039D01*
X97376602Y-50636710D01*
X97424221Y-50684328D01*
X97431887Y-50690620D01*
X97433620Y-50692618D01*
X97436628Y-50694511D01*
X97439374Y-50696765D01*
X97441814Y-50697775D01*
X97450211Y-50703061D01*
X97545448Y-50750680D01*
X97563757Y-50757686D01*
X97567340Y-50757940D01*
X97570661Y-50759316D01*
X97590170Y-50761237D01*
X97875884Y-50761237D01*
X97895393Y-50759316D01*
X97898713Y-50757940D01*
X97902297Y-50757686D01*
X97920605Y-50750680D01*
X98015843Y-50703061D01*
X98024235Y-50697777D01*
X98026679Y-50696766D01*
X98029428Y-50694509D01*
X98032433Y-50692618D01*
X98034162Y-50690623D01*
X98041832Y-50684329D01*
X98089452Y-50636711D01*
X98095745Y-50629042D01*
X98097742Y-50627311D01*
X98099635Y-50624302D01*
X98101889Y-50621557D01*
X98102899Y-50619116D01*
X98108185Y-50610720D01*
X98155804Y-50515483D01*
X98162810Y-50497174D01*
X98163064Y-50493590D01*
X98164440Y-50490270D01*
X98166361Y-50470761D01*
X98166361Y-50327904D01*
X98164440Y-50308395D01*
X98163064Y-50305074D01*
X98162810Y-50301491D01*
X98155804Y-50283182D01*
X98108185Y-50187945D01*
X98102899Y-50179548D01*
X98101889Y-50177108D01*
X98099635Y-50174362D01*
X98097742Y-50171354D01*
X98095745Y-50169622D01*
X98089452Y-50161954D01*
X98041832Y-50114336D01*
X98034162Y-50108041D01*
X98032433Y-50106047D01*
X98029428Y-50104155D01*
X98026679Y-50101899D01*
X98024235Y-50100887D01*
X98015843Y-50095604D01*
X97920605Y-50047985D01*
X97902297Y-50040979D01*
X97898713Y-50040724D01*
X97895393Y-50039349D01*
X97875884Y-50037428D01*
X97590170Y-50037428D01*
X97570661Y-50039349D01*
X97567340Y-50040724D01*
X97563757Y-50040979D01*
X97545448Y-50047985D01*
X97450211Y-50095604D01*
X97441814Y-50100889D01*
X97439374Y-50101900D01*
X97436628Y-50104153D01*
X97433620Y-50106047D01*
X97431887Y-50108044D01*
X97424221Y-50114337D01*
X97376602Y-50161955D01*
X97370307Y-50169625D01*
X97368313Y-50171355D01*
X97366419Y-50174362D01*
X97364166Y-50177109D01*
X97363155Y-50179548D01*
X97357870Y-50187945D01*
X97310251Y-50283183D01*
X97303245Y-50301491D01*
X97302990Y-50305074D01*
X97301615Y-50308395D01*
X97299694Y-50327904D01*
X96544411Y-50327904D01*
X96545860Y-50325007D01*
X96552866Y-50306698D01*
X96553120Y-50303114D01*
X96554496Y-50299794D01*
X96556417Y-50280285D01*
X96556417Y-50185047D01*
X96554496Y-50165538D01*
X96553120Y-50162217D01*
X96552866Y-50158634D01*
X96545860Y-50140325D01*
X96498241Y-50045088D01*
X96492955Y-50036691D01*
X96491945Y-50034251D01*
X96489691Y-50031505D01*
X96487798Y-50028497D01*
X96485801Y-50026765D01*
X96479508Y-50019097D01*
X96431888Y-49971479D01*
X96424218Y-49965184D01*
X96422489Y-49963190D01*
X96419484Y-49961298D01*
X96416735Y-49959042D01*
X96414291Y-49958030D01*
X96405899Y-49952747D01*
X96310661Y-49905128D01*
X96309234Y-49904582D01*
X96308654Y-49904152D01*
X96300477Y-49901230D01*
X96292353Y-49898122D01*
X96291630Y-49898070D01*
X96290193Y-49897557D01*
X96099718Y-49849938D01*
X96096336Y-49849437D01*
X96094973Y-49848873D01*
X96087622Y-49848149D01*
X96080325Y-49847070D01*
X96078866Y-49847287D01*
X96075464Y-49846952D01*
X95837369Y-49846952D01*
X95833966Y-49847287D01*
X95832508Y-49847070D01*
X95825210Y-49848149D01*
X95817860Y-49848873D01*
X95816496Y-49849437D01*
X95813115Y-49849938D01*
X95622639Y-49897557D01*
X95621200Y-49898070D01*
X95620480Y-49898122D01*
X95612355Y-49901230D01*
X95604179Y-49904152D01*
X95603599Y-49904581D01*
X95602171Y-49905128D01*
X95506934Y-49952747D01*
X95498537Y-49958032D01*
X95496097Y-49959043D01*
X95493351Y-49961296D01*
X95490343Y-49963190D01*
X95488610Y-49965187D01*
X95480944Y-49971480D01*
X95433325Y-50019098D01*
X95427030Y-50026768D01*
X95425036Y-50028498D01*
X95423142Y-50031505D01*
X95420889Y-50034252D01*
X95419878Y-50036691D01*
X95414593Y-50045088D01*
X95366974Y-50140326D01*
X95359968Y-50158634D01*
X95359713Y-50162217D01*
X95358338Y-50165538D01*
X95356417Y-50185047D01*
X95245306Y-50185047D01*
X95245306Y-48994571D01*
X96451655Y-48994571D01*
X96451655Y-49756476D01*
X96453576Y-49775985D01*
X96468508Y-49812033D01*
X96496098Y-49839623D01*
X96532146Y-49854555D01*
X96571164Y-49854555D01*
X96607212Y-49839623D01*
X96634802Y-49812033D01*
X96649734Y-49775985D01*
X96651655Y-49756476D01*
X96651655Y-49260776D01*
X96968282Y-49260776D01*
X96968282Y-49299794D01*
X96983214Y-49335842D01*
X97010804Y-49363432D01*
X97046852Y-49378364D01*
X97066361Y-49380285D01*
X97299694Y-49380285D01*
X97299694Y-49565999D01*
X97301615Y-49585508D01*
X97302990Y-49588828D01*
X97303245Y-49592412D01*
X97310251Y-49610720D01*
X97357870Y-49705958D01*
X97363155Y-49714354D01*
X97364166Y-49716794D01*
X97366419Y-49719540D01*
X97368313Y-49722548D01*
X97370307Y-49724277D01*
X97376602Y-49731948D01*
X97424221Y-49779566D01*
X97431887Y-49785858D01*
X97433620Y-49787856D01*
X97436628Y-49789749D01*
X97439374Y-49792003D01*
X97441814Y-49793013D01*
X97450211Y-49798299D01*
X97545448Y-49845918D01*
X97563757Y-49852924D01*
X97567340Y-49853178D01*
X97570661Y-49854554D01*
X97590170Y-49856475D01*
X97875884Y-49856475D01*
X97895393Y-49854554D01*
X97898713Y-49853178D01*
X97902297Y-49852924D01*
X97920605Y-49845918D01*
X98015843Y-49798299D01*
X98024235Y-49793015D01*
X98026679Y-49792004D01*
X98029428Y-49789747D01*
X98032433Y-49787856D01*
X98034162Y-49785861D01*
X98041832Y-49779567D01*
X98089452Y-49731949D01*
X98095745Y-49724280D01*
X98097742Y-49722549D01*
X98099635Y-49719540D01*
X98101889Y-49716795D01*
X98102899Y-49714354D01*
X98108185Y-49705958D01*
X98155804Y-49610721D01*
X98162810Y-49592412D01*
X98163064Y-49588828D01*
X98164440Y-49585508D01*
X98166361Y-49565999D01*
X98166361Y-49375523D01*
X98164440Y-49356014D01*
X98163064Y-49352693D01*
X98162810Y-49349110D01*
X98155804Y-49330801D01*
X98153502Y-49326198D01*
X98164440Y-49299794D01*
X98164440Y-49260776D01*
X98149508Y-49224728D01*
X98121918Y-49197138D01*
X98085870Y-49182206D01*
X98066361Y-49180285D01*
X97066361Y-49180285D01*
X97046852Y-49182206D01*
X97010804Y-49197138D01*
X96983214Y-49224728D01*
X96968282Y-49260776D01*
X96651655Y-49260776D01*
X96651655Y-48994571D01*
X96649734Y-48975062D01*
X96634802Y-48939014D01*
X96607212Y-48911424D01*
X96571164Y-48896492D01*
X96532146Y-48896492D01*
X96496098Y-48911424D01*
X96468508Y-48939014D01*
X96453576Y-48975062D01*
X96451655Y-48994571D01*
X95245306Y-48994571D01*
X95245306Y-48375523D01*
X95356417Y-48375523D01*
X95356417Y-48613618D01*
X95358338Y-48633127D01*
X95359713Y-48636447D01*
X95359968Y-48640031D01*
X95366974Y-48658339D01*
X95414593Y-48753577D01*
X95419878Y-48761973D01*
X95420889Y-48764413D01*
X95423142Y-48767159D01*
X95425036Y-48770167D01*
X95427030Y-48771896D01*
X95433325Y-48779567D01*
X95480944Y-48827185D01*
X95488610Y-48833477D01*
X95490343Y-48835475D01*
X95493351Y-48837368D01*
X95496097Y-48839622D01*
X95498537Y-48840632D01*
X95506934Y-48845918D01*
X95602171Y-48893537D01*
X95620480Y-48900543D01*
X95624063Y-48900797D01*
X95627384Y-48902173D01*
X95646893Y-48904094D01*
X95742131Y-48904094D01*
X95761640Y-48902173D01*
X95764960Y-48900797D01*
X95768544Y-48900543D01*
X95786852Y-48893537D01*
X95882090Y-48845918D01*
X95890486Y-48840632D01*
X95892926Y-48839622D01*
X95895672Y-48837368D01*
X95898680Y-48835475D01*
X95900409Y-48833480D01*
X95908080Y-48827186D01*
X95955698Y-48779567D01*
X95961990Y-48771900D01*
X95963988Y-48770168D01*
X95965881Y-48767159D01*
X95968135Y-48764414D01*
X95969145Y-48761973D01*
X95974431Y-48753577D01*
X96022050Y-48658340D01*
X96022596Y-48656911D01*
X96023026Y-48656332D01*
X96025947Y-48648155D01*
X96029056Y-48640031D01*
X96029107Y-48639310D01*
X96029621Y-48637872D01*
X96074577Y-48458046D01*
X96110031Y-48387139D01*
X96134699Y-48362470D01*
X96194309Y-48332666D01*
X96242333Y-48332666D01*
X96301944Y-48362472D01*
X96326612Y-48387139D01*
X96356417Y-48446749D01*
X96356417Y-48645010D01*
X96313930Y-48772471D01*
X96309583Y-48791587D01*
X96312349Y-48830507D01*
X96329799Y-48865406D01*
X96359275Y-48890971D01*
X96396291Y-48903309D01*
X96435211Y-48900543D01*
X96470110Y-48883093D01*
X96495675Y-48853617D01*
X96503666Y-48835717D01*
X96551285Y-48692860D01*
X96553484Y-48683187D01*
X96554496Y-48680746D01*
X96554844Y-48677208D01*
X96555632Y-48673745D01*
X96555444Y-48671110D01*
X96556417Y-48661237D01*
X96556417Y-48518380D01*
X97299694Y-48518380D01*
X97299694Y-48708856D01*
X97301615Y-48728365D01*
X97302990Y-48731685D01*
X97303245Y-48735269D01*
X97310251Y-48753577D01*
X97357870Y-48848815D01*
X97359923Y-48852078D01*
X97360437Y-48853617D01*
X97362099Y-48855533D01*
X97368313Y-48865405D01*
X97377783Y-48873618D01*
X97386001Y-48883094D01*
X97395874Y-48889308D01*
X97397790Y-48890970D01*
X97399328Y-48891482D01*
X97402592Y-48893537D01*
X97497829Y-48941156D01*
X97516138Y-48948162D01*
X97519721Y-48948416D01*
X97523042Y-48949792D01*
X97542551Y-48951713D01*
X97733132Y-48951713D01*
X97923503Y-48951713D01*
X97943012Y-48949792D01*
X97946332Y-48948416D01*
X97949915Y-48948162D01*
X97968224Y-48941156D01*
X98063463Y-48893537D01*
X98066726Y-48891483D01*
X98068265Y-48890970D01*
X98070181Y-48889307D01*
X98080053Y-48883094D01*
X98088267Y-48873622D01*
X98097742Y-48865406D01*
X98103954Y-48855535D01*
X98105618Y-48853618D01*
X98106131Y-48852077D01*
X98108185Y-48848815D01*
X98155804Y-48753578D01*
X98162810Y-48735269D01*
X98163064Y-48731685D01*
X98164440Y-48728365D01*
X98166361Y-48708856D01*
X98166361Y-48518380D01*
X98164440Y-48498871D01*
X98163064Y-48495550D01*
X98162810Y-48491967D01*
X98155804Y-48473658D01*
X98108185Y-48378421D01*
X98097742Y-48361830D01*
X98068265Y-48336266D01*
X98031249Y-48323927D01*
X97992329Y-48326693D01*
X97957430Y-48344142D01*
X97931866Y-48373619D01*
X97919527Y-48410635D01*
X97922293Y-48449555D01*
X97929299Y-48467863D01*
X97966361Y-48541987D01*
X97966361Y-48685249D01*
X97944206Y-48729558D01*
X97899896Y-48751713D01*
X97815007Y-48751713D01*
X97735847Y-48355911D01*
X97730137Y-48337158D01*
X97724685Y-48329017D01*
X97720936Y-48319966D01*
X97713936Y-48312966D01*
X97708426Y-48304738D01*
X97700272Y-48299302D01*
X97693346Y-48292376D01*
X97684199Y-48288587D01*
X97675961Y-48283095D01*
X97666350Y-48281193D01*
X97657298Y-48277444D01*
X97637789Y-48275523D01*
X97542551Y-48275523D01*
X97523042Y-48277444D01*
X97519721Y-48278819D01*
X97516138Y-48279074D01*
X97497829Y-48286080D01*
X97402592Y-48333699D01*
X97399328Y-48335753D01*
X97397790Y-48336266D01*
X97395874Y-48337927D01*
X97386001Y-48344142D01*
X97377783Y-48353617D01*
X97368313Y-48361831D01*
X97362099Y-48371702D01*
X97360437Y-48373619D01*
X97359923Y-48375157D01*
X97357870Y-48378421D01*
X97310251Y-48473659D01*
X97303245Y-48491967D01*
X97302990Y-48495550D01*
X97301615Y-48498871D01*
X97299694Y-48518380D01*
X96556417Y-48518380D01*
X96556417Y-48423142D01*
X96554496Y-48403633D01*
X96553120Y-48400312D01*
X96552866Y-48396729D01*
X96545860Y-48378420D01*
X96498241Y-48283183D01*
X96492955Y-48274786D01*
X96491945Y-48272346D01*
X96489691Y-48269600D01*
X96487798Y-48266592D01*
X96485801Y-48264860D01*
X96479508Y-48257192D01*
X96431888Y-48209574D01*
X96424218Y-48203279D01*
X96422489Y-48201285D01*
X96419484Y-48199393D01*
X96416735Y-48197137D01*
X96414291Y-48196125D01*
X96405899Y-48190842D01*
X96310661Y-48143223D01*
X96292353Y-48136217D01*
X96288769Y-48135962D01*
X96285449Y-48134587D01*
X96265940Y-48132666D01*
X96170702Y-48132666D01*
X96151193Y-48134587D01*
X96147872Y-48135962D01*
X96144289Y-48136217D01*
X96125980Y-48143223D01*
X96030743Y-48190842D01*
X96022346Y-48196127D01*
X96019906Y-48197138D01*
X96017160Y-48199391D01*
X96014152Y-48201285D01*
X96012419Y-48203282D01*
X96004753Y-48209575D01*
X95957134Y-48257193D01*
X95950839Y-48264863D01*
X95948845Y-48266593D01*
X95946951Y-48269600D01*
X95944698Y-48272347D01*
X95943687Y-48274786D01*
X95938402Y-48283183D01*
X95890783Y-48378421D01*
X95890237Y-48379847D01*
X95889807Y-48380428D01*
X95886885Y-48388604D01*
X95883777Y-48396729D01*
X95883725Y-48397451D01*
X95883212Y-48398889D01*
X95838255Y-48578713D01*
X95802802Y-48649620D01*
X95778133Y-48674288D01*
X95718524Y-48704094D01*
X95670500Y-48704094D01*
X95610890Y-48674289D01*
X95586222Y-48649620D01*
X95556417Y-48590010D01*
X95556417Y-48391750D01*
X95598904Y-48264289D01*
X95603251Y-48245174D01*
X95600485Y-48206254D01*
X95583035Y-48171355D01*
X95553559Y-48145790D01*
X95516543Y-48133451D01*
X95477623Y-48136218D01*
X95442724Y-48153667D01*
X95417159Y-48183143D01*
X95409168Y-48201044D01*
X95361549Y-48343900D01*
X95359349Y-48353571D01*
X95358338Y-48356014D01*
X95357989Y-48359552D01*
X95357202Y-48363016D01*
X95357389Y-48365649D01*
X95356417Y-48375523D01*
X95245306Y-48375523D01*
X95245306Y-47784585D01*
X95358338Y-47784585D01*
X95358338Y-47823603D01*
X95373270Y-47859651D01*
X95400860Y-47887241D01*
X95436908Y-47902173D01*
X95456417Y-47904094D01*
X96456417Y-47904094D01*
X96475926Y-47902173D01*
X96511974Y-47887241D01*
X96539564Y-47859651D01*
X96554496Y-47823603D01*
X96554496Y-47784585D01*
X96539564Y-47748537D01*
X96511974Y-47720947D01*
X96475926Y-47706015D01*
X96456417Y-47704094D01*
X95456417Y-47704094D01*
X95436908Y-47706015D01*
X95400860Y-47720947D01*
X95373270Y-47748537D01*
X95358338Y-47784585D01*
X95245306Y-47784585D01*
X95245306Y-46676421D01*
X95357576Y-46676421D01*
X95358338Y-46678516D01*
X95358338Y-46680747D01*
X95364982Y-46696788D01*
X95370911Y-46713090D01*
X95372416Y-46714733D01*
X95373270Y-46716795D01*
X95385543Y-46729068D01*
X95397262Y-46741865D01*
X95399906Y-46743431D01*
X95400860Y-46744385D01*
X95403041Y-46745288D01*
X95414128Y-46751856D01*
X95934232Y-46994571D01*
X95414128Y-47237286D01*
X95403041Y-47243853D01*
X95400860Y-47244757D01*
X95399906Y-47245710D01*
X95397262Y-47247277D01*
X95385543Y-47260073D01*
X95373270Y-47272347D01*
X95372416Y-47274408D01*
X95370911Y-47276052D01*
X95364982Y-47292353D01*
X95358338Y-47308395D01*
X95358338Y-47310625D01*
X95357576Y-47312721D01*
X95358338Y-47330060D01*
X95358338Y-47347413D01*
X95359191Y-47349472D01*
X95359289Y-47351701D01*
X95366630Y-47367431D01*
X95373270Y-47383461D01*
X95374846Y-47385037D01*
X95375790Y-47387059D01*
X95388586Y-47398777D01*
X95400860Y-47411051D01*
X95402921Y-47411904D01*
X95404565Y-47413410D01*
X95420866Y-47419338D01*
X95436908Y-47425983D01*
X95439966Y-47426284D01*
X95441234Y-47426745D01*
X95443593Y-47426641D01*
X95456417Y-47427904D01*
X96456417Y-47427904D01*
X96475926Y-47425983D01*
X96511974Y-47411051D01*
X96539564Y-47383461D01*
X96554496Y-47347413D01*
X96554496Y-47308395D01*
X96539564Y-47272347D01*
X96511974Y-47244757D01*
X96475926Y-47229825D01*
X96456417Y-47227904D01*
X95907173Y-47227904D01*
X96212991Y-47085189D01*
X96220132Y-47080958D01*
X96222554Y-47080078D01*
X96224266Y-47078509D01*
X96229857Y-47075198D01*
X96240117Y-47063993D01*
X96251330Y-47053726D01*
X96253209Y-47049698D01*
X96256209Y-47046423D01*
X96261400Y-47032147D01*
X96267830Y-47018369D01*
X96268025Y-47013928D01*
X96269543Y-47009754D01*
X96268875Y-46994571D01*
X96269543Y-46979388D01*
X96268025Y-46975213D01*
X96267830Y-46970773D01*
X96261400Y-46956994D01*
X96256209Y-46942719D01*
X96253209Y-46939443D01*
X96251330Y-46935416D01*
X96240117Y-46925148D01*
X96229857Y-46913944D01*
X96224266Y-46910632D01*
X96222554Y-46909064D01*
X96220132Y-46908183D01*
X96212991Y-46903953D01*
X95907173Y-46761238D01*
X96456417Y-46761238D01*
X96475926Y-46759317D01*
X96511974Y-46744385D01*
X96539564Y-46716795D01*
X96554496Y-46680747D01*
X96554496Y-46641729D01*
X96539564Y-46605681D01*
X96511974Y-46578091D01*
X96475926Y-46563159D01*
X96456417Y-46561238D01*
X95456417Y-46561238D01*
X95443593Y-46562500D01*
X95441234Y-46562397D01*
X95439966Y-46562857D01*
X95436908Y-46563159D01*
X95420866Y-46569803D01*
X95404565Y-46575732D01*
X95402921Y-46577237D01*
X95400860Y-46578091D01*
X95388586Y-46590364D01*
X95375790Y-46602083D01*
X95374846Y-46604104D01*
X95373270Y-46605681D01*
X95366630Y-46621710D01*
X95359289Y-46637441D01*
X95359191Y-46639669D01*
X95358338Y-46641729D01*
X95358338Y-46659081D01*
X95357576Y-46676421D01*
X95245306Y-46676421D01*
X95245306Y-45851714D01*
X95356417Y-45851714D01*
X95356417Y-46042190D01*
X95358338Y-46061699D01*
X95359713Y-46065019D01*
X95359968Y-46068603D01*
X95366974Y-46086911D01*
X95414593Y-46182149D01*
X95419878Y-46190545D01*
X95420889Y-46192985D01*
X95423142Y-46195731D01*
X95425036Y-46198739D01*
X95427030Y-46200468D01*
X95433325Y-46208139D01*
X95480944Y-46255757D01*
X95488610Y-46262049D01*
X95490343Y-46264047D01*
X95493351Y-46265940D01*
X95496097Y-46268194D01*
X95498537Y-46269204D01*
X95506934Y-46274490D01*
X95602171Y-46322109D01*
X95620480Y-46329115D01*
X95624063Y-46329369D01*
X95627384Y-46330745D01*
X95646893Y-46332666D01*
X95694512Y-46332666D01*
X95714021Y-46330745D01*
X95717341Y-46329369D01*
X95720925Y-46329115D01*
X95739233Y-46322109D01*
X95834471Y-46274490D01*
X95842867Y-46269204D01*
X95845307Y-46268194D01*
X95848053Y-46265940D01*
X95851061Y-46264047D01*
X95852790Y-46262052D01*
X95860461Y-46255758D01*
X95884987Y-46231230D01*
X95909515Y-46255757D01*
X95917181Y-46262049D01*
X95918914Y-46264047D01*
X95921922Y-46265940D01*
X95924668Y-46268194D01*
X95927108Y-46269204D01*
X95935505Y-46274490D01*
X96030742Y-46322109D01*
X96049051Y-46329115D01*
X96052634Y-46329369D01*
X96055955Y-46330745D01*
X96075464Y-46332666D01*
X96265940Y-46332666D01*
X96285449Y-46330745D01*
X96288769Y-46329369D01*
X96292353Y-46329115D01*
X96310661Y-46322109D01*
X96405899Y-46274490D01*
X96414291Y-46269206D01*
X96416735Y-46268195D01*
X96419484Y-46265938D01*
X96422489Y-46264047D01*
X96424218Y-46262052D01*
X96431888Y-46255758D01*
X96479508Y-46208140D01*
X96485801Y-46200471D01*
X96487798Y-46198740D01*
X96489691Y-46195731D01*
X96491945Y-46192986D01*
X96492955Y-46190545D01*
X96498241Y-46182149D01*
X96545860Y-46086912D01*
X96552866Y-46068603D01*
X96553120Y-46065019D01*
X96554496Y-46061699D01*
X96556417Y-46042190D01*
X96556417Y-45851714D01*
X96554496Y-45832205D01*
X96553120Y-45828884D01*
X96552866Y-45825301D01*
X96545860Y-45806992D01*
X96498241Y-45711755D01*
X96492955Y-45703358D01*
X96491945Y-45700918D01*
X96489691Y-45698172D01*
X96487798Y-45695164D01*
X96485801Y-45693432D01*
X96479508Y-45685764D01*
X96431888Y-45638146D01*
X96424218Y-45631851D01*
X96422489Y-45629857D01*
X96419484Y-45627965D01*
X96416735Y-45625709D01*
X96414291Y-45624697D01*
X96405899Y-45619414D01*
X96310661Y-45571795D01*
X96292353Y-45564789D01*
X96288769Y-45564534D01*
X96285449Y-45563159D01*
X96265940Y-45561238D01*
X96075464Y-45561238D01*
X96055955Y-45563159D01*
X96052634Y-45564534D01*
X96049051Y-45564789D01*
X96030742Y-45571795D01*
X95935505Y-45619414D01*
X95927108Y-45624699D01*
X95924668Y-45625710D01*
X95921922Y-45627963D01*
X95918914Y-45629857D01*
X95917181Y-45631854D01*
X95909515Y-45638147D01*
X95884987Y-45662673D01*
X95860461Y-45638146D01*
X95852790Y-45631851D01*
X95851061Y-45629857D01*
X95848053Y-45627963D01*
X95845307Y-45625710D01*
X95842867Y-45624699D01*
X95834471Y-45619414D01*
X95739233Y-45571795D01*
X95720925Y-45564789D01*
X95717341Y-45564534D01*
X95714021Y-45563159D01*
X95694512Y-45561238D01*
X95646893Y-45561238D01*
X95627384Y-45563159D01*
X95624063Y-45564534D01*
X95620480Y-45564789D01*
X95602171Y-45571795D01*
X95506934Y-45619414D01*
X95498537Y-45624699D01*
X95496097Y-45625710D01*
X95493351Y-45627963D01*
X95490343Y-45629857D01*
X95488610Y-45631854D01*
X95480944Y-45638147D01*
X95433325Y-45685765D01*
X95427030Y-45693435D01*
X95425036Y-45695165D01*
X95423142Y-45698172D01*
X95420889Y-45700919D01*
X95419878Y-45703358D01*
X95414593Y-45711755D01*
X95366974Y-45806993D01*
X95359968Y-45825301D01*
X95359713Y-45828884D01*
X95358338Y-45832205D01*
X95356417Y-45851714D01*
X95245306Y-45851714D01*
X95245306Y-44946952D01*
X95356417Y-44946952D01*
X95356417Y-45042190D01*
X95358338Y-45061699D01*
X95359713Y-45065019D01*
X95359968Y-45068603D01*
X95366974Y-45086911D01*
X95414593Y-45182149D01*
X95419878Y-45190545D01*
X95420889Y-45192985D01*
X95423142Y-45195731D01*
X95425036Y-45198739D01*
X95427030Y-45200468D01*
X95433325Y-45208139D01*
X95480944Y-45255757D01*
X95488610Y-45262049D01*
X95490343Y-45264047D01*
X95493351Y-45265940D01*
X95496097Y-45268194D01*
X95498537Y-45269204D01*
X95506934Y-45274490D01*
X95602171Y-45322109D01*
X95603599Y-45322655D01*
X95604179Y-45323085D01*
X95612355Y-45326006D01*
X95620480Y-45329115D01*
X95621200Y-45329166D01*
X95622639Y-45329680D01*
X95813115Y-45377299D01*
X95816496Y-45377799D01*
X95817860Y-45378364D01*
X95825210Y-45379087D01*
X95832508Y-45380167D01*
X95833966Y-45379949D01*
X95837369Y-45380285D01*
X96075464Y-45380285D01*
X96078866Y-45379949D01*
X96080325Y-45380167D01*
X96087622Y-45379087D01*
X96094973Y-45378364D01*
X96096336Y-45377799D01*
X96099718Y-45377299D01*
X96290193Y-45329680D01*
X96291630Y-45329166D01*
X96292353Y-45329115D01*
X96300477Y-45326006D01*
X96308654Y-45323085D01*
X96309234Y-45322654D01*
X96310661Y-45322109D01*
X96405899Y-45274490D01*
X96414291Y-45269206D01*
X96416735Y-45268195D01*
X96419484Y-45265938D01*
X96422489Y-45264047D01*
X96424218Y-45262052D01*
X96431888Y-45255758D01*
X96479508Y-45208140D01*
X96485801Y-45200471D01*
X96487798Y-45198740D01*
X96489691Y-45195731D01*
X96491945Y-45192986D01*
X96492955Y-45190545D01*
X96498241Y-45182149D01*
X96545860Y-45086912D01*
X96552866Y-45068603D01*
X96553120Y-45065019D01*
X96554496Y-45061699D01*
X96556417Y-45042190D01*
X96556417Y-44946952D01*
X96554496Y-44927443D01*
X96553120Y-44924122D01*
X96552866Y-44920539D01*
X96545860Y-44902230D01*
X96498241Y-44806993D01*
X96492955Y-44798596D01*
X96491945Y-44796156D01*
X96489691Y-44793410D01*
X96487798Y-44790402D01*
X96485801Y-44788670D01*
X96479508Y-44781002D01*
X96431888Y-44733384D01*
X96424218Y-44727089D01*
X96422489Y-44725095D01*
X96419484Y-44723203D01*
X96416735Y-44720947D01*
X96414291Y-44719935D01*
X96405899Y-44714652D01*
X96310661Y-44667033D01*
X96309234Y-44666487D01*
X96308654Y-44666057D01*
X96300477Y-44663135D01*
X96292353Y-44660027D01*
X96291630Y-44659975D01*
X96290193Y-44659462D01*
X96099718Y-44611843D01*
X96096336Y-44611342D01*
X96094973Y-44610778D01*
X96087622Y-44610054D01*
X96080325Y-44608975D01*
X96078866Y-44609192D01*
X96075464Y-44608857D01*
X95837369Y-44608857D01*
X95833966Y-44609192D01*
X95832508Y-44608975D01*
X95825210Y-44610054D01*
X95817860Y-44610778D01*
X95816496Y-44611342D01*
X95813115Y-44611843D01*
X95622639Y-44659462D01*
X95621200Y-44659975D01*
X95620480Y-44660027D01*
X95612355Y-44663135D01*
X95604179Y-44666057D01*
X95603599Y-44666486D01*
X95602171Y-44667033D01*
X95506934Y-44714652D01*
X95498537Y-44719937D01*
X95496097Y-44720948D01*
X95493351Y-44723201D01*
X95490343Y-44725095D01*
X95488610Y-44727092D01*
X95480944Y-44733385D01*
X95433325Y-44781003D01*
X95427030Y-44788673D01*
X95425036Y-44790403D01*
X95423142Y-44793410D01*
X95420889Y-44796157D01*
X95419878Y-44798596D01*
X95414593Y-44806993D01*
X95366974Y-44902231D01*
X95359968Y-44920539D01*
X95359713Y-44924122D01*
X95358338Y-44927443D01*
X95356417Y-44946952D01*
X95245306Y-44946952D01*
X95245306Y-43946952D01*
X95356417Y-43946952D01*
X95356417Y-44137428D01*
X95358338Y-44156937D01*
X95359713Y-44160257D01*
X95359968Y-44163841D01*
X95366974Y-44182149D01*
X95414593Y-44277387D01*
X95419878Y-44285783D01*
X95420889Y-44288223D01*
X95423142Y-44290969D01*
X95425036Y-44293977D01*
X95427030Y-44295706D01*
X95433325Y-44303377D01*
X95480944Y-44350995D01*
X95488610Y-44357287D01*
X95490343Y-44359285D01*
X95493351Y-44361178D01*
X95496097Y-44363432D01*
X95498537Y-44364442D01*
X95506934Y-44369728D01*
X95602171Y-44417347D01*
X95620480Y-44424353D01*
X95624063Y-44424607D01*
X95627384Y-44425983D01*
X95646893Y-44427904D01*
X95694512Y-44427904D01*
X95714021Y-44425983D01*
X95717341Y-44424607D01*
X95720925Y-44424353D01*
X95739233Y-44417347D01*
X95834471Y-44369728D01*
X95842867Y-44364442D01*
X95845307Y-44363432D01*
X95848053Y-44361178D01*
X95851061Y-44359285D01*
X95852790Y-44357290D01*
X95860461Y-44350996D01*
X95884987Y-44326468D01*
X95909515Y-44350995D01*
X95917181Y-44357287D01*
X95918914Y-44359285D01*
X95921922Y-44361178D01*
X95924668Y-44363432D01*
X95927108Y-44364442D01*
X95935505Y-44369728D01*
X96030742Y-44417347D01*
X96049051Y-44424353D01*
X96052634Y-44424607D01*
X96055955Y-44425983D01*
X96075464Y-44427904D01*
X96265940Y-44427904D01*
X96285449Y-44425983D01*
X96288769Y-44424607D01*
X96292353Y-44424353D01*
X96310661Y-44417347D01*
X96405899Y-44369728D01*
X96414291Y-44364444D01*
X96416735Y-44363433D01*
X96419484Y-44361176D01*
X96422489Y-44359285D01*
X96424218Y-44357290D01*
X96431888Y-44350996D01*
X96479508Y-44303378D01*
X96485801Y-44295709D01*
X96487798Y-44293978D01*
X96489691Y-44290969D01*
X96491945Y-44288224D01*
X96492955Y-44285783D01*
X96498241Y-44277387D01*
X96545860Y-44182150D01*
X96552866Y-44163841D01*
X96553120Y-44160257D01*
X96554496Y-44156937D01*
X96556417Y-44137428D01*
X96556417Y-43946952D01*
X96554496Y-43927443D01*
X96553120Y-43924122D01*
X96552866Y-43920539D01*
X96545860Y-43902230D01*
X96498241Y-43806993D01*
X96492955Y-43798596D01*
X96491945Y-43796156D01*
X96489691Y-43793410D01*
X96487798Y-43790402D01*
X96485801Y-43788670D01*
X96479508Y-43781002D01*
X96431888Y-43733384D01*
X96424218Y-43727089D01*
X96422489Y-43725095D01*
X96419484Y-43723203D01*
X96416735Y-43720947D01*
X96414291Y-43719935D01*
X96405899Y-43714652D01*
X96310661Y-43667033D01*
X96292353Y-43660027D01*
X96288769Y-43659772D01*
X96285449Y-43658397D01*
X96265940Y-43656476D01*
X96075464Y-43656476D01*
X96055955Y-43658397D01*
X96052634Y-43659772D01*
X96049051Y-43660027D01*
X96030742Y-43667033D01*
X95935505Y-43714652D01*
X95927108Y-43719937D01*
X95924668Y-43720948D01*
X95921922Y-43723201D01*
X95918914Y-43725095D01*
X95917181Y-43727092D01*
X95909515Y-43733385D01*
X95884987Y-43757911D01*
X95860461Y-43733384D01*
X95852790Y-43727089D01*
X95851061Y-43725095D01*
X95848053Y-43723201D01*
X95845307Y-43720948D01*
X95842867Y-43719937D01*
X95834471Y-43714652D01*
X95739233Y-43667033D01*
X95720925Y-43660027D01*
X95717341Y-43659772D01*
X95714021Y-43658397D01*
X95694512Y-43656476D01*
X95646893Y-43656476D01*
X95627384Y-43658397D01*
X95624063Y-43659772D01*
X95620480Y-43660027D01*
X95602171Y-43667033D01*
X95506934Y-43714652D01*
X95498537Y-43719937D01*
X95496097Y-43720948D01*
X95493351Y-43723201D01*
X95490343Y-43725095D01*
X95488610Y-43727092D01*
X95480944Y-43733385D01*
X95433325Y-43781003D01*
X95427030Y-43788673D01*
X95425036Y-43790403D01*
X95423142Y-43793410D01*
X95420889Y-43796157D01*
X95419878Y-43798596D01*
X95414593Y-43806993D01*
X95366974Y-43902231D01*
X95359968Y-43920539D01*
X95359713Y-43924122D01*
X95358338Y-43927443D01*
X95356417Y-43946952D01*
X95245306Y-43946952D01*
X95245306Y-43545365D01*
X98277472Y-43545365D01*
X98277472Y-56348539D01*
G37*
D12*
X56172257Y-55990132D02*
X56100828Y-56124060D01*
X56100828Y-56124060D02*
X56100828Y-56338346D01*
X56100828Y-56338346D02*
X56172257Y-56561560D01*
X56172257Y-56561560D02*
X56315114Y-56722274D01*
X56315114Y-56722274D02*
X56457971Y-56811560D01*
X56457971Y-56811560D02*
X56743685Y-56918703D01*
X56743685Y-56918703D02*
X56957971Y-56945489D01*
X56957971Y-56945489D02*
X57243685Y-56909774D01*
X57243685Y-56909774D02*
X57386542Y-56856203D01*
X57386542Y-56856203D02*
X57529400Y-56731203D01*
X57529400Y-56731203D02*
X57600828Y-56525846D01*
X57600828Y-56525846D02*
X57600828Y-56382989D01*
X57600828Y-56382989D02*
X57529400Y-56159774D01*
X57529400Y-56159774D02*
X57457971Y-56079417D01*
X57457971Y-56079417D02*
X56957971Y-56016917D01*
X56957971Y-56016917D02*
X56957971Y-56302632D01*
X57600828Y-55454417D02*
X56100828Y-55266917D01*
X56100828Y-55266917D02*
X56100828Y-54695489D01*
X56100828Y-54695489D02*
X56172257Y-54561560D01*
X56172257Y-54561560D02*
X56243685Y-54499060D01*
X56243685Y-54499060D02*
X56386542Y-54445489D01*
X56386542Y-54445489D02*
X56600828Y-54472274D01*
X56600828Y-54472274D02*
X56743685Y-54561560D01*
X56743685Y-54561560D02*
X56815114Y-54641917D01*
X56815114Y-54641917D02*
X56886542Y-54793703D01*
X56886542Y-54793703D02*
X56886542Y-55365132D01*
X57529400Y-54016917D02*
X57600828Y-53811560D01*
X57600828Y-53811560D02*
X57600828Y-53454417D01*
X57600828Y-53454417D02*
X57529400Y-53302632D01*
X57529400Y-53302632D02*
X57457971Y-53222274D01*
X57457971Y-53222274D02*
X57315114Y-53132989D01*
X57315114Y-53132989D02*
X57172257Y-53115132D01*
X57172257Y-53115132D02*
X57029400Y-53168703D01*
X57029400Y-53168703D02*
X56957971Y-53231203D01*
X56957971Y-53231203D02*
X56886542Y-53365132D01*
X56886542Y-53365132D02*
X56815114Y-53641917D01*
X56815114Y-53641917D02*
X56743685Y-53775846D01*
X56743685Y-53775846D02*
X56672257Y-53838346D01*
X56672257Y-53838346D02*
X56529400Y-53891917D01*
X56529400Y-53891917D02*
X56386542Y-53874060D01*
X56386542Y-53874060D02*
X56243685Y-53784774D01*
X56243685Y-53784774D02*
X56172257Y-53704417D01*
X56172257Y-53704417D02*
X56100828Y-53552632D01*
X56100828Y-53552632D02*
X56100828Y-53195489D01*
X56100828Y-53195489D02*
X56172257Y-52990132D01*
X56100828Y-51409775D02*
X56100828Y-50552632D01*
X57600828Y-51168704D02*
X56100828Y-50981204D01*
X57600828Y-49382989D02*
X56886542Y-49793704D01*
X57600828Y-50240132D02*
X56100828Y-50052632D01*
X56100828Y-50052632D02*
X56100828Y-49481204D01*
X56100828Y-49481204D02*
X56172257Y-49347275D01*
X56172257Y-49347275D02*
X56243685Y-49284775D01*
X56243685Y-49284775D02*
X56386542Y-49231204D01*
X56386542Y-49231204D02*
X56600828Y-49257989D01*
X56600828Y-49257989D02*
X56743685Y-49347275D01*
X56743685Y-49347275D02*
X56815114Y-49427632D01*
X56815114Y-49427632D02*
X56886542Y-49579418D01*
X56886542Y-49579418D02*
X56886542Y-50150847D01*
X57172257Y-48757989D02*
X57172257Y-48043704D01*
X57600828Y-48954418D02*
X56100828Y-48266918D01*
X56100828Y-48266918D02*
X57600828Y-47954418D01*
X57457971Y-46579418D02*
X57529400Y-46659775D01*
X57529400Y-46659775D02*
X57600828Y-46882990D01*
X57600828Y-46882990D02*
X57600828Y-47025847D01*
X57600828Y-47025847D02*
X57529400Y-47231204D01*
X57529400Y-47231204D02*
X57386542Y-47356204D01*
X57386542Y-47356204D02*
X57243685Y-47409775D01*
X57243685Y-47409775D02*
X56957971Y-47445490D01*
X56957971Y-47445490D02*
X56743685Y-47418704D01*
X56743685Y-47418704D02*
X56457971Y-47311561D01*
X56457971Y-47311561D02*
X56315114Y-47222275D01*
X56315114Y-47222275D02*
X56172257Y-47061561D01*
X56172257Y-47061561D02*
X56100828Y-46838347D01*
X56100828Y-46838347D02*
X56100828Y-46695490D01*
X56100828Y-46695490D02*
X56172257Y-46490133D01*
X56172257Y-46490133D02*
X56243685Y-46427633D01*
X57600828Y-45954418D02*
X56100828Y-45766918D01*
X57600828Y-45097275D02*
X56743685Y-45632990D01*
X56100828Y-44909775D02*
X56957971Y-45874061D01*
X56815114Y-44356204D02*
X56815114Y-43856204D01*
X57600828Y-43740133D02*
X57600828Y-44454418D01*
X57600828Y-44454418D02*
X56100828Y-44266918D01*
X56100828Y-44266918D02*
X56100828Y-43552633D01*
X57600828Y-42240132D02*
X56886542Y-42650847D01*
X57600828Y-43097275D02*
X56100828Y-42909775D01*
X56100828Y-42909775D02*
X56100828Y-42338347D01*
X56100828Y-42338347D02*
X56172257Y-42204418D01*
X56172257Y-42204418D02*
X56243685Y-42141918D01*
X56243685Y-42141918D02*
X56386542Y-42088347D01*
X56386542Y-42088347D02*
X56600828Y-42115132D01*
X56600828Y-42115132D02*
X56743685Y-42204418D01*
X56743685Y-42204418D02*
X56815114Y-42284775D01*
X56815114Y-42284775D02*
X56886542Y-42436561D01*
X56886542Y-42436561D02*
X56886542Y-43007990D01*
D11*
X79143937Y-59663081D02*
X79191557Y-59710700D01*
X79191557Y-59710700D02*
X79239176Y-59853557D01*
X79239176Y-59853557D02*
X79239176Y-59948795D01*
X79239176Y-59948795D02*
X79191557Y-60091652D01*
X79191557Y-60091652D02*
X79096318Y-60186890D01*
X79096318Y-60186890D02*
X79001080Y-60234509D01*
X79001080Y-60234509D02*
X78810604Y-60282128D01*
X78810604Y-60282128D02*
X78667747Y-60282128D01*
X78667747Y-60282128D02*
X78477271Y-60234509D01*
X78477271Y-60234509D02*
X78382033Y-60186890D01*
X78382033Y-60186890D02*
X78286795Y-60091652D01*
X78286795Y-60091652D02*
X78239176Y-59948795D01*
X78239176Y-59948795D02*
X78239176Y-59853557D01*
X78239176Y-59853557D02*
X78286795Y-59710700D01*
X78286795Y-59710700D02*
X78334414Y-59663081D01*
X79239176Y-58710700D02*
X79239176Y-59282128D01*
X79239176Y-58996414D02*
X78239176Y-58996414D01*
X78239176Y-58996414D02*
X78382033Y-59091652D01*
X78382033Y-59091652D02*
X78477271Y-59186890D01*
X78477271Y-59186890D02*
X78524890Y-59282128D01*
X78667747Y-58139271D02*
X78620128Y-58234509D01*
X78620128Y-58234509D02*
X78572509Y-58282128D01*
X78572509Y-58282128D02*
X78477271Y-58329747D01*
X78477271Y-58329747D02*
X78429652Y-58329747D01*
X78429652Y-58329747D02*
X78334414Y-58282128D01*
X78334414Y-58282128D02*
X78286795Y-58234509D01*
X78286795Y-58234509D02*
X78239176Y-58139271D01*
X78239176Y-58139271D02*
X78239176Y-57948795D01*
X78239176Y-57948795D02*
X78286795Y-57853557D01*
X78286795Y-57853557D02*
X78334414Y-57805938D01*
X78334414Y-57805938D02*
X78429652Y-57758319D01*
X78429652Y-57758319D02*
X78477271Y-57758319D01*
X78477271Y-57758319D02*
X78572509Y-57805938D01*
X78572509Y-57805938D02*
X78620128Y-57853557D01*
X78620128Y-57853557D02*
X78667747Y-57948795D01*
X78667747Y-57948795D02*
X78667747Y-58139271D01*
X78667747Y-58139271D02*
X78715366Y-58234509D01*
X78715366Y-58234509D02*
X78762985Y-58282128D01*
X78762985Y-58282128D02*
X78858223Y-58329747D01*
X78858223Y-58329747D02*
X79048699Y-58329747D01*
X79048699Y-58329747D02*
X79143937Y-58282128D01*
X79143937Y-58282128D02*
X79191557Y-58234509D01*
X79191557Y-58234509D02*
X79239176Y-58139271D01*
X79239176Y-58139271D02*
X79239176Y-57948795D01*
X79239176Y-57948795D02*
X79191557Y-57853557D01*
X79191557Y-57853557D02*
X79143937Y-57805938D01*
X79143937Y-57805938D02*
X79048699Y-57758319D01*
X79048699Y-57758319D02*
X78858223Y-57758319D01*
X78858223Y-57758319D02*
X78762985Y-57805938D01*
X78762985Y-57805938D02*
X78715366Y-57853557D01*
X78715366Y-57853557D02*
X78667747Y-57948795D01*
X77815824Y-59684853D02*
X77863444Y-59732472D01*
X77863444Y-59732472D02*
X77911063Y-59875329D01*
X77911063Y-59875329D02*
X77911063Y-59970567D01*
X77911063Y-59970567D02*
X77863444Y-60113424D01*
X77863444Y-60113424D02*
X77768205Y-60208662D01*
X77768205Y-60208662D02*
X77672967Y-60256281D01*
X77672967Y-60256281D02*
X77482491Y-60303900D01*
X77482491Y-60303900D02*
X77339634Y-60303900D01*
X77339634Y-60303900D02*
X77149158Y-60256281D01*
X77149158Y-60256281D02*
X77053920Y-60208662D01*
X77053920Y-60208662D02*
X76958682Y-60113424D01*
X76958682Y-60113424D02*
X76911063Y-59970567D01*
X76911063Y-59970567D02*
X76911063Y-59875329D01*
X76911063Y-59875329D02*
X76958682Y-59732472D01*
X76958682Y-59732472D02*
X77006301Y-59684853D01*
X77911063Y-58732472D02*
X77911063Y-59303900D01*
X77911063Y-59018186D02*
X76911063Y-59018186D01*
X76911063Y-59018186D02*
X77053920Y-59113424D01*
X77053920Y-59113424D02*
X77149158Y-59208662D01*
X77149158Y-59208662D02*
X77196777Y-59303900D01*
X76911063Y-58399138D02*
X76911063Y-57732472D01*
X76911063Y-57732472D02*
X77911063Y-58161043D01*
X67407142Y-75934580D02*
X67359523Y-75982200D01*
X67359523Y-75982200D02*
X67216666Y-76029819D01*
X67216666Y-76029819D02*
X67121428Y-76029819D01*
X67121428Y-76029819D02*
X66978571Y-75982200D01*
X66978571Y-75982200D02*
X66883333Y-75886961D01*
X66883333Y-75886961D02*
X66835714Y-75791723D01*
X66835714Y-75791723D02*
X66788095Y-75601247D01*
X66788095Y-75601247D02*
X66788095Y-75458390D01*
X66788095Y-75458390D02*
X66835714Y-75267914D01*
X66835714Y-75267914D02*
X66883333Y-75172676D01*
X66883333Y-75172676D02*
X66978571Y-75077438D01*
X66978571Y-75077438D02*
X67121428Y-75029819D01*
X67121428Y-75029819D02*
X67216666Y-75029819D01*
X67216666Y-75029819D02*
X67359523Y-75077438D01*
X67359523Y-75077438D02*
X67407142Y-75125057D01*
X68359523Y-76029819D02*
X67788095Y-76029819D01*
X68073809Y-76029819D02*
X68073809Y-75029819D01*
X68073809Y-75029819D02*
X67978571Y-75172676D01*
X67978571Y-75172676D02*
X67883333Y-75267914D01*
X67883333Y-75267914D02*
X67788095Y-75315533D01*
X68692857Y-75029819D02*
X69311904Y-75029819D01*
X69311904Y-75029819D02*
X68978571Y-75410771D01*
X68978571Y-75410771D02*
X69121428Y-75410771D01*
X69121428Y-75410771D02*
X69216666Y-75458390D01*
X69216666Y-75458390D02*
X69264285Y-75506009D01*
X69264285Y-75506009D02*
X69311904Y-75601247D01*
X69311904Y-75601247D02*
X69311904Y-75839342D01*
X69311904Y-75839342D02*
X69264285Y-75934580D01*
X69264285Y-75934580D02*
X69216666Y-75982200D01*
X69216666Y-75982200D02*
X69121428Y-76029819D01*
X69121428Y-76029819D02*
X68835714Y-76029819D01*
X68835714Y-76029819D02*
X68740476Y-75982200D01*
X68740476Y-75982200D02*
X68692857Y-75934580D01*
X86357621Y-79613000D02*
X85881430Y-79946333D01*
X86357621Y-80184428D02*
X85357621Y-80184428D01*
X85357621Y-80184428D02*
X85357621Y-79803476D01*
X85357621Y-79803476D02*
X85405240Y-79708238D01*
X85405240Y-79708238D02*
X85452859Y-79660619D01*
X85452859Y-79660619D02*
X85548097Y-79613000D01*
X85548097Y-79613000D02*
X85690954Y-79613000D01*
X85690954Y-79613000D02*
X85786192Y-79660619D01*
X85786192Y-79660619D02*
X85833811Y-79708238D01*
X85833811Y-79708238D02*
X85881430Y-79803476D01*
X85881430Y-79803476D02*
X85881430Y-80184428D01*
X86357621Y-78660619D02*
X86357621Y-79232047D01*
X86357621Y-78946333D02*
X85357621Y-78946333D01*
X85357621Y-78946333D02*
X85500478Y-79041571D01*
X85500478Y-79041571D02*
X85595716Y-79136809D01*
X85595716Y-79136809D02*
X85643335Y-79232047D01*
X85357621Y-78327285D02*
X85357621Y-77708238D01*
X85357621Y-77708238D02*
X85738573Y-78041571D01*
X85738573Y-78041571D02*
X85738573Y-77898714D01*
X85738573Y-77898714D02*
X85786192Y-77803476D01*
X85786192Y-77803476D02*
X85833811Y-77755857D01*
X85833811Y-77755857D02*
X85929049Y-77708238D01*
X85929049Y-77708238D02*
X86167144Y-77708238D01*
X86167144Y-77708238D02*
X86262382Y-77755857D01*
X86262382Y-77755857D02*
X86310002Y-77803476D01*
X86310002Y-77803476D02*
X86357621Y-77898714D01*
X86357621Y-77898714D02*
X86357621Y-78184428D01*
X86357621Y-78184428D02*
X86310002Y-78279666D01*
X86310002Y-78279666D02*
X86262382Y-78327285D01*
X71444245Y-81892061D02*
X70968054Y-82225394D01*
X71444245Y-82463489D02*
X70444245Y-82463489D01*
X70444245Y-82463489D02*
X70444245Y-82082537D01*
X70444245Y-82082537D02*
X70491864Y-81987299D01*
X70491864Y-81987299D02*
X70539483Y-81939680D01*
X70539483Y-81939680D02*
X70634721Y-81892061D01*
X70634721Y-81892061D02*
X70777578Y-81892061D01*
X70777578Y-81892061D02*
X70872816Y-81939680D01*
X70872816Y-81939680D02*
X70920435Y-81987299D01*
X70920435Y-81987299D02*
X70968054Y-82082537D01*
X70968054Y-82082537D02*
X70968054Y-82463489D01*
X71444245Y-81415870D02*
X71444245Y-81225394D01*
X71444245Y-81225394D02*
X71396626Y-81130156D01*
X71396626Y-81130156D02*
X71349006Y-81082537D01*
X71349006Y-81082537D02*
X71206149Y-80987299D01*
X71206149Y-80987299D02*
X71015673Y-80939680D01*
X71015673Y-80939680D02*
X70634721Y-80939680D01*
X70634721Y-80939680D02*
X70539483Y-80987299D01*
X70539483Y-80987299D02*
X70491864Y-81034918D01*
X70491864Y-81034918D02*
X70444245Y-81130156D01*
X70444245Y-81130156D02*
X70444245Y-81320632D01*
X70444245Y-81320632D02*
X70491864Y-81415870D01*
X70491864Y-81415870D02*
X70539483Y-81463489D01*
X70539483Y-81463489D02*
X70634721Y-81511108D01*
X70634721Y-81511108D02*
X70872816Y-81511108D01*
X70872816Y-81511108D02*
X70968054Y-81463489D01*
X70968054Y-81463489D02*
X71015673Y-81415870D01*
X71015673Y-81415870D02*
X71063292Y-81320632D01*
X71063292Y-81320632D02*
X71063292Y-81130156D01*
X71063292Y-81130156D02*
X71015673Y-81034918D01*
X71015673Y-81034918D02*
X70968054Y-80987299D01*
X70968054Y-80987299D02*
X70872816Y-80939680D01*
X63725881Y-81476644D02*
X63725881Y-82286167D01*
X63725881Y-82286167D02*
X63773500Y-82381405D01*
X63773500Y-82381405D02*
X63821119Y-82429025D01*
X63821119Y-82429025D02*
X63916357Y-82476644D01*
X63916357Y-82476644D02*
X64106833Y-82476644D01*
X64106833Y-82476644D02*
X64202071Y-82429025D01*
X64202071Y-82429025D02*
X64249690Y-82381405D01*
X64249690Y-82381405D02*
X64297309Y-82286167D01*
X64297309Y-82286167D02*
X64297309Y-81476644D01*
X64725881Y-82429025D02*
X64868738Y-82476644D01*
X64868738Y-82476644D02*
X65106833Y-82476644D01*
X65106833Y-82476644D02*
X65202071Y-82429025D01*
X65202071Y-82429025D02*
X65249690Y-82381405D01*
X65249690Y-82381405D02*
X65297309Y-82286167D01*
X65297309Y-82286167D02*
X65297309Y-82190929D01*
X65297309Y-82190929D02*
X65249690Y-82095691D01*
X65249690Y-82095691D02*
X65202071Y-82048072D01*
X65202071Y-82048072D02*
X65106833Y-82000453D01*
X65106833Y-82000453D02*
X64916357Y-81952834D01*
X64916357Y-81952834D02*
X64821119Y-81905215D01*
X64821119Y-81905215D02*
X64773500Y-81857596D01*
X64773500Y-81857596D02*
X64725881Y-81762358D01*
X64725881Y-81762358D02*
X64725881Y-81667120D01*
X64725881Y-81667120D02*
X64773500Y-81571882D01*
X64773500Y-81571882D02*
X64821119Y-81524263D01*
X64821119Y-81524263D02*
X64916357Y-81476644D01*
X64916357Y-81476644D02*
X65154452Y-81476644D01*
X65154452Y-81476644D02*
X65297309Y-81524263D01*
X65725881Y-81952834D02*
X66059214Y-81952834D01*
X66202071Y-82476644D02*
X65725881Y-82476644D01*
X65725881Y-82476644D02*
X65725881Y-81476644D01*
X65725881Y-81476644D02*
X66202071Y-81476644D01*
X67202071Y-82476644D02*
X66868738Y-82000453D01*
X66630643Y-82476644D02*
X66630643Y-81476644D01*
X66630643Y-81476644D02*
X67011595Y-81476644D01*
X67011595Y-81476644D02*
X67106833Y-81524263D01*
X67106833Y-81524263D02*
X67154452Y-81571882D01*
X67154452Y-81571882D02*
X67202071Y-81667120D01*
X67202071Y-81667120D02*
X67202071Y-81809977D01*
X67202071Y-81809977D02*
X67154452Y-81905215D01*
X67154452Y-81905215D02*
X67106833Y-81952834D01*
X67106833Y-81952834D02*
X67011595Y-82000453D01*
X67011595Y-82000453D02*
X66630643Y-82000453D01*
X96323171Y-79738409D02*
X96323171Y-80452694D01*
X96323171Y-80452694D02*
X96275552Y-80595551D01*
X96275552Y-80595551D02*
X96180314Y-80690790D01*
X96180314Y-80690790D02*
X96037457Y-80738409D01*
X96037457Y-80738409D02*
X95942219Y-80738409D01*
X97227933Y-80071742D02*
X97227933Y-80738409D01*
X96989838Y-79690790D02*
X96751743Y-80405075D01*
X96751743Y-80405075D02*
X97370790Y-80405075D01*
X75708599Y-53153455D02*
X75660980Y-53201075D01*
X75660980Y-53201075D02*
X75518123Y-53248694D01*
X75518123Y-53248694D02*
X75422885Y-53248694D01*
X75422885Y-53248694D02*
X75280028Y-53201075D01*
X75280028Y-53201075D02*
X75184790Y-53105836D01*
X75184790Y-53105836D02*
X75137171Y-53010598D01*
X75137171Y-53010598D02*
X75089552Y-52820122D01*
X75089552Y-52820122D02*
X75089552Y-52677265D01*
X75089552Y-52677265D02*
X75137171Y-52486789D01*
X75137171Y-52486789D02*
X75184790Y-52391551D01*
X75184790Y-52391551D02*
X75280028Y-52296313D01*
X75280028Y-52296313D02*
X75422885Y-52248694D01*
X75422885Y-52248694D02*
X75518123Y-52248694D01*
X75518123Y-52248694D02*
X75660980Y-52296313D01*
X75660980Y-52296313D02*
X75708599Y-52343932D01*
X76660980Y-53248694D02*
X76089552Y-53248694D01*
X76375266Y-53248694D02*
X76375266Y-52248694D01*
X76375266Y-52248694D02*
X76280028Y-52391551D01*
X76280028Y-52391551D02*
X76184790Y-52486789D01*
X76184790Y-52486789D02*
X76089552Y-52534408D01*
X80406733Y-59684853D02*
X80454353Y-59732472D01*
X80454353Y-59732472D02*
X80501972Y-59875329D01*
X80501972Y-59875329D02*
X80501972Y-59970567D01*
X80501972Y-59970567D02*
X80454353Y-60113424D01*
X80454353Y-60113424D02*
X80359114Y-60208662D01*
X80359114Y-60208662D02*
X80263876Y-60256281D01*
X80263876Y-60256281D02*
X80073400Y-60303900D01*
X80073400Y-60303900D02*
X79930543Y-60303900D01*
X79930543Y-60303900D02*
X79740067Y-60256281D01*
X79740067Y-60256281D02*
X79644829Y-60208662D01*
X79644829Y-60208662D02*
X79549591Y-60113424D01*
X79549591Y-60113424D02*
X79501972Y-59970567D01*
X79501972Y-59970567D02*
X79501972Y-59875329D01*
X79501972Y-59875329D02*
X79549591Y-59732472D01*
X79549591Y-59732472D02*
X79597210Y-59684853D01*
X80501972Y-58732472D02*
X80501972Y-59303900D01*
X80501972Y-59018186D02*
X79501972Y-59018186D01*
X79501972Y-59018186D02*
X79644829Y-59113424D01*
X79644829Y-59113424D02*
X79740067Y-59208662D01*
X79740067Y-59208662D02*
X79787686Y-59303900D01*
X80501972Y-58256281D02*
X80501972Y-58065805D01*
X80501972Y-58065805D02*
X80454353Y-57970567D01*
X80454353Y-57970567D02*
X80406733Y-57922948D01*
X80406733Y-57922948D02*
X80263876Y-57827710D01*
X80263876Y-57827710D02*
X80073400Y-57780091D01*
X80073400Y-57780091D02*
X79692448Y-57780091D01*
X79692448Y-57780091D02*
X79597210Y-57827710D01*
X79597210Y-57827710D02*
X79549591Y-57875329D01*
X79549591Y-57875329D02*
X79501972Y-57970567D01*
X79501972Y-57970567D02*
X79501972Y-58161043D01*
X79501972Y-58161043D02*
X79549591Y-58256281D01*
X79549591Y-58256281D02*
X79597210Y-58303900D01*
X79597210Y-58303900D02*
X79692448Y-58351519D01*
X79692448Y-58351519D02*
X79930543Y-58351519D01*
X79930543Y-58351519D02*
X80025781Y-58303900D01*
X80025781Y-58303900D02*
X80073400Y-58256281D01*
X80073400Y-58256281D02*
X80121019Y-58161043D01*
X80121019Y-58161043D02*
X80121019Y-57970567D01*
X80121019Y-57970567D02*
X80073400Y-57875329D01*
X80073400Y-57875329D02*
X80025781Y-57827710D01*
X80025781Y-57827710D02*
X79930543Y-57780091D01*
X76566255Y-59689074D02*
X76613875Y-59736693D01*
X76613875Y-59736693D02*
X76661494Y-59879550D01*
X76661494Y-59879550D02*
X76661494Y-59974788D01*
X76661494Y-59974788D02*
X76613875Y-60117645D01*
X76613875Y-60117645D02*
X76518636Y-60212883D01*
X76518636Y-60212883D02*
X76423398Y-60260502D01*
X76423398Y-60260502D02*
X76232922Y-60308121D01*
X76232922Y-60308121D02*
X76090065Y-60308121D01*
X76090065Y-60308121D02*
X75899589Y-60260502D01*
X75899589Y-60260502D02*
X75804351Y-60212883D01*
X75804351Y-60212883D02*
X75709113Y-60117645D01*
X75709113Y-60117645D02*
X75661494Y-59974788D01*
X75661494Y-59974788D02*
X75661494Y-59879550D01*
X75661494Y-59879550D02*
X75709113Y-59736693D01*
X75709113Y-59736693D02*
X75756732Y-59689074D01*
X76661494Y-58736693D02*
X76661494Y-59308121D01*
X76661494Y-59022407D02*
X75661494Y-59022407D01*
X75661494Y-59022407D02*
X75804351Y-59117645D01*
X75804351Y-59117645D02*
X75899589Y-59212883D01*
X75899589Y-59212883D02*
X75947208Y-59308121D01*
X75661494Y-57879550D02*
X75661494Y-58070026D01*
X75661494Y-58070026D02*
X75709113Y-58165264D01*
X75709113Y-58165264D02*
X75756732Y-58212883D01*
X75756732Y-58212883D02*
X75899589Y-58308121D01*
X75899589Y-58308121D02*
X76090065Y-58355740D01*
X76090065Y-58355740D02*
X76471017Y-58355740D01*
X76471017Y-58355740D02*
X76566255Y-58308121D01*
X76566255Y-58308121D02*
X76613875Y-58260502D01*
X76613875Y-58260502D02*
X76661494Y-58165264D01*
X76661494Y-58165264D02*
X76661494Y-57974788D01*
X76661494Y-57974788D02*
X76613875Y-57879550D01*
X76613875Y-57879550D02*
X76566255Y-57831931D01*
X76566255Y-57831931D02*
X76471017Y-57784312D01*
X76471017Y-57784312D02*
X76232922Y-57784312D01*
X76232922Y-57784312D02*
X76137684Y-57831931D01*
X76137684Y-57831931D02*
X76090065Y-57879550D01*
X76090065Y-57879550D02*
X76042446Y-57974788D01*
X76042446Y-57974788D02*
X76042446Y-58165264D01*
X76042446Y-58165264D02*
X76090065Y-58260502D01*
X76090065Y-58260502D02*
X76137684Y-58308121D01*
X76137684Y-58308121D02*
X76232922Y-58355740D01*
X87239848Y-50033416D02*
X86906515Y-49557225D01*
X86668420Y-50033416D02*
X86668420Y-49033416D01*
X86668420Y-49033416D02*
X87049372Y-49033416D01*
X87049372Y-49033416D02*
X87144610Y-49081035D01*
X87144610Y-49081035D02*
X87192229Y-49128654D01*
X87192229Y-49128654D02*
X87239848Y-49223892D01*
X87239848Y-49223892D02*
X87239848Y-49366749D01*
X87239848Y-49366749D02*
X87192229Y-49461987D01*
X87192229Y-49461987D02*
X87144610Y-49509606D01*
X87144610Y-49509606D02*
X87049372Y-49557225D01*
X87049372Y-49557225D02*
X86668420Y-49557225D01*
X87811277Y-49461987D02*
X87716039Y-49414368D01*
X87716039Y-49414368D02*
X87668420Y-49366749D01*
X87668420Y-49366749D02*
X87620801Y-49271511D01*
X87620801Y-49271511D02*
X87620801Y-49223892D01*
X87620801Y-49223892D02*
X87668420Y-49128654D01*
X87668420Y-49128654D02*
X87716039Y-49081035D01*
X87716039Y-49081035D02*
X87811277Y-49033416D01*
X87811277Y-49033416D02*
X88001753Y-49033416D01*
X88001753Y-49033416D02*
X88096991Y-49081035D01*
X88096991Y-49081035D02*
X88144610Y-49128654D01*
X88144610Y-49128654D02*
X88192229Y-49223892D01*
X88192229Y-49223892D02*
X88192229Y-49271511D01*
X88192229Y-49271511D02*
X88144610Y-49366749D01*
X88144610Y-49366749D02*
X88096991Y-49414368D01*
X88096991Y-49414368D02*
X88001753Y-49461987D01*
X88001753Y-49461987D02*
X87811277Y-49461987D01*
X87811277Y-49461987D02*
X87716039Y-49509606D01*
X87716039Y-49509606D02*
X87668420Y-49557225D01*
X87668420Y-49557225D02*
X87620801Y-49652463D01*
X87620801Y-49652463D02*
X87620801Y-49842939D01*
X87620801Y-49842939D02*
X87668420Y-49938177D01*
X87668420Y-49938177D02*
X87716039Y-49985797D01*
X87716039Y-49985797D02*
X87811277Y-50033416D01*
X87811277Y-50033416D02*
X88001753Y-50033416D01*
X88001753Y-50033416D02*
X88096991Y-49985797D01*
X88096991Y-49985797D02*
X88144610Y-49938177D01*
X88144610Y-49938177D02*
X88192229Y-49842939D01*
X88192229Y-49842939D02*
X88192229Y-49652463D01*
X88192229Y-49652463D02*
X88144610Y-49557225D01*
X88144610Y-49557225D02*
X88096991Y-49509606D01*
X88096991Y-49509606D02*
X88001753Y-49461987D01*
X81947623Y-46296823D02*
X81947623Y-47106346D01*
X81947623Y-47106346D02*
X81995242Y-47201584D01*
X81995242Y-47201584D02*
X82042861Y-47249204D01*
X82042861Y-47249204D02*
X82138099Y-47296823D01*
X82138099Y-47296823D02*
X82328575Y-47296823D01*
X82328575Y-47296823D02*
X82423813Y-47249204D01*
X82423813Y-47249204D02*
X82471432Y-47201584D01*
X82471432Y-47201584D02*
X82519051Y-47106346D01*
X82519051Y-47106346D02*
X82519051Y-46296823D01*
X82947623Y-46392061D02*
X82995242Y-46344442D01*
X82995242Y-46344442D02*
X83090480Y-46296823D01*
X83090480Y-46296823D02*
X83328575Y-46296823D01*
X83328575Y-46296823D02*
X83423813Y-46344442D01*
X83423813Y-46344442D02*
X83471432Y-46392061D01*
X83471432Y-46392061D02*
X83519051Y-46487299D01*
X83519051Y-46487299D02*
X83519051Y-46582537D01*
X83519051Y-46582537D02*
X83471432Y-46725394D01*
X83471432Y-46725394D02*
X82900004Y-47296823D01*
X82900004Y-47296823D02*
X83519051Y-47296823D01*
X67412189Y-70850106D02*
X67412189Y-71326297D01*
X67078856Y-70326297D02*
X67412189Y-70850106D01*
X67412189Y-70850106D02*
X67745522Y-70326297D01*
X68602665Y-71326297D02*
X68031237Y-71326297D01*
X68316951Y-71326297D02*
X68316951Y-70326297D01*
X68316951Y-70326297D02*
X68221713Y-70469154D01*
X68221713Y-70469154D02*
X68126475Y-70564392D01*
X68126475Y-70564392D02*
X68031237Y-70612011D01*
X81441780Y-41619453D02*
X81346542Y-41571834D01*
X81346542Y-41571834D02*
X81251304Y-41476596D01*
X81251304Y-41476596D02*
X81108447Y-41333738D01*
X81108447Y-41333738D02*
X81013209Y-41286119D01*
X81013209Y-41286119D02*
X80917971Y-41286119D01*
X80965590Y-41524215D02*
X80870352Y-41476596D01*
X80870352Y-41476596D02*
X80775114Y-41381357D01*
X80775114Y-41381357D02*
X80727495Y-41190881D01*
X80727495Y-41190881D02*
X80727495Y-40857548D01*
X80727495Y-40857548D02*
X80775114Y-40667072D01*
X80775114Y-40667072D02*
X80870352Y-40571834D01*
X80870352Y-40571834D02*
X80965590Y-40524215D01*
X80965590Y-40524215D02*
X81156066Y-40524215D01*
X81156066Y-40524215D02*
X81251304Y-40571834D01*
X81251304Y-40571834D02*
X81346542Y-40667072D01*
X81346542Y-40667072D02*
X81394161Y-40857548D01*
X81394161Y-40857548D02*
X81394161Y-41190881D01*
X81394161Y-41190881D02*
X81346542Y-41381357D01*
X81346542Y-41381357D02*
X81251304Y-41476596D01*
X81251304Y-41476596D02*
X81156066Y-41524215D01*
X81156066Y-41524215D02*
X80965590Y-41524215D01*
X82346542Y-41524215D02*
X81775114Y-41524215D01*
X82060828Y-41524215D02*
X82060828Y-40524215D01*
X82060828Y-40524215D02*
X81965590Y-40667072D01*
X81965590Y-40667072D02*
X81870352Y-40762310D01*
X81870352Y-40762310D02*
X81775114Y-40809929D01*
X74195564Y-82725924D02*
X73719373Y-83059257D01*
X74195564Y-83297352D02*
X73195564Y-83297352D01*
X73195564Y-83297352D02*
X73195564Y-82916400D01*
X73195564Y-82916400D02*
X73243183Y-82821162D01*
X73243183Y-82821162D02*
X73290802Y-82773543D01*
X73290802Y-82773543D02*
X73386040Y-82725924D01*
X73386040Y-82725924D02*
X73528897Y-82725924D01*
X73528897Y-82725924D02*
X73624135Y-82773543D01*
X73624135Y-82773543D02*
X73671754Y-82821162D01*
X73671754Y-82821162D02*
X73719373Y-82916400D01*
X73719373Y-82916400D02*
X73719373Y-83297352D01*
X74195564Y-81773543D02*
X74195564Y-82344971D01*
X74195564Y-82059257D02*
X73195564Y-82059257D01*
X73195564Y-82059257D02*
X73338421Y-82154495D01*
X73338421Y-82154495D02*
X73433659Y-82249733D01*
X73433659Y-82249733D02*
X73481278Y-82344971D01*
X74195564Y-80821162D02*
X74195564Y-81392590D01*
X74195564Y-81106876D02*
X73195564Y-81106876D01*
X73195564Y-81106876D02*
X73338421Y-81202114D01*
X73338421Y-81202114D02*
X73433659Y-81297352D01*
X73433659Y-81297352D02*
X73481278Y-81392590D01*
X75166666Y-37356009D02*
X74833333Y-37356009D01*
X74833333Y-37879819D02*
X74833333Y-36879819D01*
X74833333Y-36879819D02*
X75309523Y-36879819D01*
X76214285Y-37879819D02*
X75642857Y-37879819D01*
X75928571Y-37879819D02*
X75928571Y-36879819D01*
X75928571Y-36879819D02*
X75833333Y-37022676D01*
X75833333Y-37022676D02*
X75738095Y-37117914D01*
X75738095Y-37117914D02*
X75642857Y-37165533D01*
X82634226Y-82420739D02*
X81634226Y-82420739D01*
X81634226Y-82420739D02*
X81634226Y-82182644D01*
X81634226Y-82182644D02*
X81681845Y-82039787D01*
X81681845Y-82039787D02*
X81777083Y-81944549D01*
X81777083Y-81944549D02*
X81872321Y-81896930D01*
X81872321Y-81896930D02*
X82062797Y-81849311D01*
X82062797Y-81849311D02*
X82205654Y-81849311D01*
X82205654Y-81849311D02*
X82396130Y-81896930D01*
X82396130Y-81896930D02*
X82491368Y-81944549D01*
X82491368Y-81944549D02*
X82586607Y-82039787D01*
X82586607Y-82039787D02*
X82634226Y-82182644D01*
X82634226Y-82182644D02*
X82634226Y-82420739D01*
X81634226Y-80944549D02*
X81634226Y-81420739D01*
X81634226Y-81420739D02*
X82110416Y-81468358D01*
X82110416Y-81468358D02*
X82062797Y-81420739D01*
X82062797Y-81420739D02*
X82015178Y-81325501D01*
X82015178Y-81325501D02*
X82015178Y-81087406D01*
X82015178Y-81087406D02*
X82062797Y-80992168D01*
X82062797Y-80992168D02*
X82110416Y-80944549D01*
X82110416Y-80944549D02*
X82205654Y-80896930D01*
X82205654Y-80896930D02*
X82443749Y-80896930D01*
X82443749Y-80896930D02*
X82538987Y-80944549D01*
X82538987Y-80944549D02*
X82586607Y-80992168D01*
X82586607Y-80992168D02*
X82634226Y-81087406D01*
X82634226Y-81087406D02*
X82634226Y-81325501D01*
X82634226Y-81325501D02*
X82586607Y-81420739D01*
X82586607Y-81420739D02*
X82538987Y-81468358D01*
X65574081Y-59724280D02*
X65097891Y-59724280D01*
X65097891Y-59724280D02*
X65097891Y-58724280D01*
X66431224Y-59724280D02*
X65859796Y-59724280D01*
X66145510Y-59724280D02*
X66145510Y-58724280D01*
X66145510Y-58724280D02*
X66050272Y-58867137D01*
X66050272Y-58867137D02*
X65955034Y-58962375D01*
X65955034Y-58962375D02*
X65859796Y-59009994D01*
X72066666Y-36254819D02*
X72066666Y-36969104D01*
X72066666Y-36969104D02*
X72019047Y-37111961D01*
X72019047Y-37111961D02*
X71923809Y-37207200D01*
X71923809Y-37207200D02*
X71780952Y-37254819D01*
X71780952Y-37254819D02*
X71685714Y-37254819D01*
X73066666Y-37254819D02*
X72495238Y-37254819D01*
X72780952Y-37254819D02*
X72780952Y-36254819D01*
X72780952Y-36254819D02*
X72685714Y-36397676D01*
X72685714Y-36397676D02*
X72590476Y-36492914D01*
X72590476Y-36492914D02*
X72495238Y-36540533D01*
X81815581Y-59753889D02*
X81339390Y-60087222D01*
X81815581Y-60325317D02*
X80815581Y-60325317D01*
X80815581Y-60325317D02*
X80815581Y-59944365D01*
X80815581Y-59944365D02*
X80863200Y-59849127D01*
X80863200Y-59849127D02*
X80910819Y-59801508D01*
X80910819Y-59801508D02*
X81006057Y-59753889D01*
X81006057Y-59753889D02*
X81148914Y-59753889D01*
X81148914Y-59753889D02*
X81244152Y-59801508D01*
X81244152Y-59801508D02*
X81291771Y-59849127D01*
X81291771Y-59849127D02*
X81339390Y-59944365D01*
X81339390Y-59944365D02*
X81339390Y-60325317D01*
X81815581Y-58801508D02*
X81815581Y-59372936D01*
X81815581Y-59087222D02*
X80815581Y-59087222D01*
X80815581Y-59087222D02*
X80958438Y-59182460D01*
X80958438Y-59182460D02*
X81053676Y-59277698D01*
X81053676Y-59277698D02*
X81101295Y-59372936D01*
X80815581Y-58182460D02*
X80815581Y-58087222D01*
X80815581Y-58087222D02*
X80863200Y-57991984D01*
X80863200Y-57991984D02*
X80910819Y-57944365D01*
X80910819Y-57944365D02*
X81006057Y-57896746D01*
X81006057Y-57896746D02*
X81196533Y-57849127D01*
X81196533Y-57849127D02*
X81434628Y-57849127D01*
X81434628Y-57849127D02*
X81625104Y-57896746D01*
X81625104Y-57896746D02*
X81720342Y-57944365D01*
X81720342Y-57944365D02*
X81767962Y-57991984D01*
X81767962Y-57991984D02*
X81815581Y-58087222D01*
X81815581Y-58087222D02*
X81815581Y-58182460D01*
X81815581Y-58182460D02*
X81767962Y-58277698D01*
X81767962Y-58277698D02*
X81720342Y-58325317D01*
X81720342Y-58325317D02*
X81625104Y-58372936D01*
X81625104Y-58372936D02*
X81434628Y-58420555D01*
X81434628Y-58420555D02*
X81196533Y-58420555D01*
X81196533Y-58420555D02*
X81006057Y-58372936D01*
X81006057Y-58372936D02*
X80910819Y-58325317D01*
X80910819Y-58325317D02*
X80863200Y-58277698D01*
X80863200Y-58277698D02*
X80815581Y-58182460D01*
X84368375Y-51326822D02*
X84035042Y-50850631D01*
X83796947Y-51326822D02*
X83796947Y-50326822D01*
X83796947Y-50326822D02*
X84177899Y-50326822D01*
X84177899Y-50326822D02*
X84273137Y-50374441D01*
X84273137Y-50374441D02*
X84320756Y-50422060D01*
X84320756Y-50422060D02*
X84368375Y-50517298D01*
X84368375Y-50517298D02*
X84368375Y-50660155D01*
X84368375Y-50660155D02*
X84320756Y-50755393D01*
X84320756Y-50755393D02*
X84273137Y-50803012D01*
X84273137Y-50803012D02*
X84177899Y-50850631D01*
X84177899Y-50850631D02*
X83796947Y-50850631D01*
X85273137Y-50326822D02*
X84796947Y-50326822D01*
X84796947Y-50326822D02*
X84749328Y-50803012D01*
X84749328Y-50803012D02*
X84796947Y-50755393D01*
X84796947Y-50755393D02*
X84892185Y-50707774D01*
X84892185Y-50707774D02*
X85130280Y-50707774D01*
X85130280Y-50707774D02*
X85225518Y-50755393D01*
X85225518Y-50755393D02*
X85273137Y-50803012D01*
X85273137Y-50803012D02*
X85320756Y-50898250D01*
X85320756Y-50898250D02*
X85320756Y-51136345D01*
X85320756Y-51136345D02*
X85273137Y-51231583D01*
X85273137Y-51231583D02*
X85225518Y-51279203D01*
X85225518Y-51279203D02*
X85130280Y-51326822D01*
X85130280Y-51326822D02*
X84892185Y-51326822D01*
X84892185Y-51326822D02*
X84796947Y-51279203D01*
X84796947Y-51279203D02*
X84749328Y-51231583D01*
X83825059Y-66233994D02*
X83825059Y-67043517D01*
X83825059Y-67043517D02*
X83872678Y-67138755D01*
X83872678Y-67138755D02*
X83920297Y-67186375D01*
X83920297Y-67186375D02*
X84015535Y-67233994D01*
X84015535Y-67233994D02*
X84206011Y-67233994D01*
X84206011Y-67233994D02*
X84301249Y-67186375D01*
X84301249Y-67186375D02*
X84348868Y-67138755D01*
X84348868Y-67138755D02*
X84396487Y-67043517D01*
X84396487Y-67043517D02*
X84396487Y-66233994D01*
X85301249Y-66567327D02*
X85301249Y-67233994D01*
X85063154Y-66186375D02*
X84825059Y-66900660D01*
X84825059Y-66900660D02*
X85444106Y-66900660D01*
X79246537Y-51339974D02*
X78913204Y-50863783D01*
X78675109Y-51339974D02*
X78675109Y-50339974D01*
X78675109Y-50339974D02*
X79056061Y-50339974D01*
X79056061Y-50339974D02*
X79151299Y-50387593D01*
X79151299Y-50387593D02*
X79198918Y-50435212D01*
X79198918Y-50435212D02*
X79246537Y-50530450D01*
X79246537Y-50530450D02*
X79246537Y-50673307D01*
X79246537Y-50673307D02*
X79198918Y-50768545D01*
X79198918Y-50768545D02*
X79151299Y-50816164D01*
X79151299Y-50816164D02*
X79056061Y-50863783D01*
X79056061Y-50863783D02*
X78675109Y-50863783D01*
X79579871Y-50339974D02*
X80246537Y-50339974D01*
X80246537Y-50339974D02*
X79817966Y-51339974D01*
X76902513Y-81643867D02*
X76950133Y-81691486D01*
X76950133Y-81691486D02*
X76997752Y-81834343D01*
X76997752Y-81834343D02*
X76997752Y-81929581D01*
X76997752Y-81929581D02*
X76950133Y-82072438D01*
X76950133Y-82072438D02*
X76854894Y-82167676D01*
X76854894Y-82167676D02*
X76759656Y-82215295D01*
X76759656Y-82215295D02*
X76569180Y-82262914D01*
X76569180Y-82262914D02*
X76426323Y-82262914D01*
X76426323Y-82262914D02*
X76235847Y-82215295D01*
X76235847Y-82215295D02*
X76140609Y-82167676D01*
X76140609Y-82167676D02*
X76045371Y-82072438D01*
X76045371Y-82072438D02*
X75997752Y-81929581D01*
X75997752Y-81929581D02*
X75997752Y-81834343D01*
X75997752Y-81834343D02*
X76045371Y-81691486D01*
X76045371Y-81691486D02*
X76092990Y-81643867D01*
X76997752Y-80691486D02*
X76997752Y-81262914D01*
X76997752Y-80977200D02*
X75997752Y-80977200D01*
X75997752Y-80977200D02*
X76140609Y-81072438D01*
X76140609Y-81072438D02*
X76235847Y-81167676D01*
X76235847Y-81167676D02*
X76283466Y-81262914D01*
X76331085Y-79834343D02*
X76997752Y-79834343D01*
X75950133Y-80072438D02*
X76664418Y-80310533D01*
X76664418Y-80310533D02*
X76664418Y-79691486D01*
X75225781Y-59750124D02*
X75273401Y-59797743D01*
X75273401Y-59797743D02*
X75321020Y-59940600D01*
X75321020Y-59940600D02*
X75321020Y-60035838D01*
X75321020Y-60035838D02*
X75273401Y-60178695D01*
X75273401Y-60178695D02*
X75178162Y-60273933D01*
X75178162Y-60273933D02*
X75082924Y-60321552D01*
X75082924Y-60321552D02*
X74892448Y-60369171D01*
X74892448Y-60369171D02*
X74749591Y-60369171D01*
X74749591Y-60369171D02*
X74559115Y-60321552D01*
X74559115Y-60321552D02*
X74463877Y-60273933D01*
X74463877Y-60273933D02*
X74368639Y-60178695D01*
X74368639Y-60178695D02*
X74321020Y-60035838D01*
X74321020Y-60035838D02*
X74321020Y-59940600D01*
X74321020Y-59940600D02*
X74368639Y-59797743D01*
X74368639Y-59797743D02*
X74416258Y-59750124D01*
X75321020Y-58797743D02*
X75321020Y-59369171D01*
X75321020Y-59083457D02*
X74321020Y-59083457D01*
X74321020Y-59083457D02*
X74463877Y-59178695D01*
X74463877Y-59178695D02*
X74559115Y-59273933D01*
X74559115Y-59273933D02*
X74606734Y-59369171D01*
X74321020Y-57892981D02*
X74321020Y-58369171D01*
X74321020Y-58369171D02*
X74797210Y-58416790D01*
X74797210Y-58416790D02*
X74749591Y-58369171D01*
X74749591Y-58369171D02*
X74701972Y-58273933D01*
X74701972Y-58273933D02*
X74701972Y-58035838D01*
X74701972Y-58035838D02*
X74749591Y-57940600D01*
X74749591Y-57940600D02*
X74797210Y-57892981D01*
X74797210Y-57892981D02*
X74892448Y-57845362D01*
X74892448Y-57845362D02*
X75130543Y-57845362D01*
X75130543Y-57845362D02*
X75225781Y-57892981D01*
X75225781Y-57892981D02*
X75273401Y-57940600D01*
X75273401Y-57940600D02*
X75321020Y-58035838D01*
X75321020Y-58035838D02*
X75321020Y-58273933D01*
X75321020Y-58273933D02*
X75273401Y-58369171D01*
X75273401Y-58369171D02*
X75225781Y-58416790D01*
X72532074Y-82808463D02*
X72579694Y-82856082D01*
X72579694Y-82856082D02*
X72627313Y-82998939D01*
X72627313Y-82998939D02*
X72627313Y-83094177D01*
X72627313Y-83094177D02*
X72579694Y-83237034D01*
X72579694Y-83237034D02*
X72484455Y-83332272D01*
X72484455Y-83332272D02*
X72389217Y-83379891D01*
X72389217Y-83379891D02*
X72198741Y-83427510D01*
X72198741Y-83427510D02*
X72055884Y-83427510D01*
X72055884Y-83427510D02*
X71865408Y-83379891D01*
X71865408Y-83379891D02*
X71770170Y-83332272D01*
X71770170Y-83332272D02*
X71674932Y-83237034D01*
X71674932Y-83237034D02*
X71627313Y-83094177D01*
X71627313Y-83094177D02*
X71627313Y-82998939D01*
X71627313Y-82998939D02*
X71674932Y-82856082D01*
X71674932Y-82856082D02*
X71722551Y-82808463D01*
X72627313Y-81856082D02*
X72627313Y-82427510D01*
X72627313Y-82141796D02*
X71627313Y-82141796D01*
X71627313Y-82141796D02*
X71770170Y-82237034D01*
X71770170Y-82237034D02*
X71865408Y-82332272D01*
X71865408Y-82332272D02*
X71913027Y-82427510D01*
X71722551Y-81475129D02*
X71674932Y-81427510D01*
X71674932Y-81427510D02*
X71627313Y-81332272D01*
X71627313Y-81332272D02*
X71627313Y-81094177D01*
X71627313Y-81094177D02*
X71674932Y-80998939D01*
X71674932Y-80998939D02*
X71722551Y-80951320D01*
X71722551Y-80951320D02*
X71817789Y-80903701D01*
X71817789Y-80903701D02*
X71913027Y-80903701D01*
X71913027Y-80903701D02*
X72055884Y-80951320D01*
X72055884Y-80951320D02*
X72627313Y-81522748D01*
X72627313Y-81522748D02*
X72627313Y-80903701D01*
X75933333Y-41934580D02*
X75885714Y-41982200D01*
X75885714Y-41982200D02*
X75742857Y-42029819D01*
X75742857Y-42029819D02*
X75647619Y-42029819D01*
X75647619Y-42029819D02*
X75504762Y-41982200D01*
X75504762Y-41982200D02*
X75409524Y-41886961D01*
X75409524Y-41886961D02*
X75361905Y-41791723D01*
X75361905Y-41791723D02*
X75314286Y-41601247D01*
X75314286Y-41601247D02*
X75314286Y-41458390D01*
X75314286Y-41458390D02*
X75361905Y-41267914D01*
X75361905Y-41267914D02*
X75409524Y-41172676D01*
X75409524Y-41172676D02*
X75504762Y-41077438D01*
X75504762Y-41077438D02*
X75647619Y-41029819D01*
X75647619Y-41029819D02*
X75742857Y-41029819D01*
X75742857Y-41029819D02*
X75885714Y-41077438D01*
X75885714Y-41077438D02*
X75933333Y-41125057D01*
X76790476Y-41363152D02*
X76790476Y-42029819D01*
X76552381Y-40982200D02*
X76314286Y-41696485D01*
X76314286Y-41696485D02*
X76933333Y-41696485D01*
X90586575Y-49753548D02*
X90586575Y-48753548D01*
X90586575Y-48753548D02*
X90824670Y-48753548D01*
X90824670Y-48753548D02*
X90967527Y-48801167D01*
X90967527Y-48801167D02*
X91062765Y-48896405D01*
X91062765Y-48896405D02*
X91110384Y-48991643D01*
X91110384Y-48991643D02*
X91158003Y-49182119D01*
X91158003Y-49182119D02*
X91158003Y-49324976D01*
X91158003Y-49324976D02*
X91110384Y-49515452D01*
X91110384Y-49515452D02*
X91062765Y-49610690D01*
X91062765Y-49610690D02*
X90967527Y-49705929D01*
X90967527Y-49705929D02*
X90824670Y-49753548D01*
X90824670Y-49753548D02*
X90586575Y-49753548D01*
X91491337Y-48753548D02*
X92110384Y-48753548D01*
X92110384Y-48753548D02*
X91777051Y-49134500D01*
X91777051Y-49134500D02*
X91919908Y-49134500D01*
X91919908Y-49134500D02*
X92015146Y-49182119D01*
X92015146Y-49182119D02*
X92062765Y-49229738D01*
X92062765Y-49229738D02*
X92110384Y-49324976D01*
X92110384Y-49324976D02*
X92110384Y-49563071D01*
X92110384Y-49563071D02*
X92062765Y-49658309D01*
X92062765Y-49658309D02*
X92015146Y-49705929D01*
X92015146Y-49705929D02*
X91919908Y-49753548D01*
X91919908Y-49753548D02*
X91634194Y-49753548D01*
X91634194Y-49753548D02*
X91538956Y-49705929D01*
X91538956Y-49705929D02*
X91491337Y-49658309D01*
X81828327Y-51339923D02*
X81494994Y-50863732D01*
X81256899Y-51339923D02*
X81256899Y-50339923D01*
X81256899Y-50339923D02*
X81637851Y-50339923D01*
X81637851Y-50339923D02*
X81733089Y-50387542D01*
X81733089Y-50387542D02*
X81780708Y-50435161D01*
X81780708Y-50435161D02*
X81828327Y-50530399D01*
X81828327Y-50530399D02*
X81828327Y-50673256D01*
X81828327Y-50673256D02*
X81780708Y-50768494D01*
X81780708Y-50768494D02*
X81733089Y-50816113D01*
X81733089Y-50816113D02*
X81637851Y-50863732D01*
X81637851Y-50863732D02*
X81256899Y-50863732D01*
X82685470Y-50339923D02*
X82494994Y-50339923D01*
X82494994Y-50339923D02*
X82399756Y-50387542D01*
X82399756Y-50387542D02*
X82352137Y-50435161D01*
X82352137Y-50435161D02*
X82256899Y-50578018D01*
X82256899Y-50578018D02*
X82209280Y-50768494D01*
X82209280Y-50768494D02*
X82209280Y-51149446D01*
X82209280Y-51149446D02*
X82256899Y-51244684D01*
X82256899Y-51244684D02*
X82304518Y-51292304D01*
X82304518Y-51292304D02*
X82399756Y-51339923D01*
X82399756Y-51339923D02*
X82590232Y-51339923D01*
X82590232Y-51339923D02*
X82685470Y-51292304D01*
X82685470Y-51292304D02*
X82733089Y-51244684D01*
X82733089Y-51244684D02*
X82780708Y-51149446D01*
X82780708Y-51149446D02*
X82780708Y-50911351D01*
X82780708Y-50911351D02*
X82733089Y-50816113D01*
X82733089Y-50816113D02*
X82685470Y-50768494D01*
X82685470Y-50768494D02*
X82590232Y-50720875D01*
X82590232Y-50720875D02*
X82399756Y-50720875D01*
X82399756Y-50720875D02*
X82304518Y-50768494D01*
X82304518Y-50768494D02*
X82256899Y-50816113D01*
X82256899Y-50816113D02*
X82209280Y-50911351D01*
X86434253Y-82361984D02*
X86100920Y-81885793D01*
X85862825Y-82361984D02*
X85862825Y-81361984D01*
X85862825Y-81361984D02*
X86243777Y-81361984D01*
X86243777Y-81361984D02*
X86339015Y-81409603D01*
X86339015Y-81409603D02*
X86386634Y-81457222D01*
X86386634Y-81457222D02*
X86434253Y-81552460D01*
X86434253Y-81552460D02*
X86434253Y-81695317D01*
X86434253Y-81695317D02*
X86386634Y-81790555D01*
X86386634Y-81790555D02*
X86339015Y-81838174D01*
X86339015Y-81838174D02*
X86243777Y-81885793D01*
X86243777Y-81885793D02*
X85862825Y-81885793D01*
X86862825Y-81838174D02*
X87196158Y-81838174D01*
X87339015Y-82361984D02*
X86862825Y-82361984D01*
X86862825Y-82361984D02*
X86862825Y-81361984D01*
X86862825Y-81361984D02*
X87339015Y-81361984D01*
X87719968Y-82314365D02*
X87862825Y-82361984D01*
X87862825Y-82361984D02*
X88100920Y-82361984D01*
X88100920Y-82361984D02*
X88196158Y-82314365D01*
X88196158Y-82314365D02*
X88243777Y-82266745D01*
X88243777Y-82266745D02*
X88291396Y-82171507D01*
X88291396Y-82171507D02*
X88291396Y-82076269D01*
X88291396Y-82076269D02*
X88243777Y-81981031D01*
X88243777Y-81981031D02*
X88196158Y-81933412D01*
X88196158Y-81933412D02*
X88100920Y-81885793D01*
X88100920Y-81885793D02*
X87910444Y-81838174D01*
X87910444Y-81838174D02*
X87815206Y-81790555D01*
X87815206Y-81790555D02*
X87767587Y-81742936D01*
X87767587Y-81742936D02*
X87719968Y-81647698D01*
X87719968Y-81647698D02*
X87719968Y-81552460D01*
X87719968Y-81552460D02*
X87767587Y-81457222D01*
X87767587Y-81457222D02*
X87815206Y-81409603D01*
X87815206Y-81409603D02*
X87910444Y-81361984D01*
X87910444Y-81361984D02*
X88148539Y-81361984D01*
X88148539Y-81361984D02*
X88291396Y-81409603D01*
X88719968Y-81838174D02*
X89053301Y-81838174D01*
X89196158Y-82361984D02*
X88719968Y-82361984D01*
X88719968Y-82361984D02*
X88719968Y-81361984D01*
X88719968Y-81361984D02*
X89196158Y-81361984D01*
X89481873Y-81361984D02*
X90053301Y-81361984D01*
X89767587Y-82361984D02*
X89767587Y-81361984D01*
X80555362Y-82792603D02*
X80079171Y-83125936D01*
X80555362Y-83364031D02*
X79555362Y-83364031D01*
X79555362Y-83364031D02*
X79555362Y-82983079D01*
X79555362Y-82983079D02*
X79602981Y-82887841D01*
X79602981Y-82887841D02*
X79650600Y-82840222D01*
X79650600Y-82840222D02*
X79745838Y-82792603D01*
X79745838Y-82792603D02*
X79888695Y-82792603D01*
X79888695Y-82792603D02*
X79983933Y-82840222D01*
X79983933Y-82840222D02*
X80031552Y-82887841D01*
X80031552Y-82887841D02*
X80079171Y-82983079D01*
X80079171Y-82983079D02*
X80079171Y-83364031D01*
X80555362Y-81840222D02*
X80555362Y-82411650D01*
X80555362Y-82125936D02*
X79555362Y-82125936D01*
X79555362Y-82125936D02*
X79698219Y-82221174D01*
X79698219Y-82221174D02*
X79793457Y-82316412D01*
X79793457Y-82316412D02*
X79841076Y-82411650D01*
X79650600Y-81459269D02*
X79602981Y-81411650D01*
X79602981Y-81411650D02*
X79555362Y-81316412D01*
X79555362Y-81316412D02*
X79555362Y-81078317D01*
X79555362Y-81078317D02*
X79602981Y-80983079D01*
X79602981Y-80983079D02*
X79650600Y-80935460D01*
X79650600Y-80935460D02*
X79745838Y-80887841D01*
X79745838Y-80887841D02*
X79841076Y-80887841D01*
X79841076Y-80887841D02*
X79983933Y-80935460D01*
X79983933Y-80935460D02*
X80555362Y-81506888D01*
X80555362Y-81506888D02*
X80555362Y-80887841D01*
X75613551Y-81597883D02*
X75661171Y-81645502D01*
X75661171Y-81645502D02*
X75708790Y-81788359D01*
X75708790Y-81788359D02*
X75708790Y-81883597D01*
X75708790Y-81883597D02*
X75661171Y-82026454D01*
X75661171Y-82026454D02*
X75565932Y-82121692D01*
X75565932Y-82121692D02*
X75470694Y-82169311D01*
X75470694Y-82169311D02*
X75280218Y-82216930D01*
X75280218Y-82216930D02*
X75137361Y-82216930D01*
X75137361Y-82216930D02*
X74946885Y-82169311D01*
X74946885Y-82169311D02*
X74851647Y-82121692D01*
X74851647Y-82121692D02*
X74756409Y-82026454D01*
X74756409Y-82026454D02*
X74708790Y-81883597D01*
X74708790Y-81883597D02*
X74708790Y-81788359D01*
X74708790Y-81788359D02*
X74756409Y-81645502D01*
X74756409Y-81645502D02*
X74804028Y-81597883D01*
X75708790Y-80645502D02*
X75708790Y-81216930D01*
X75708790Y-80931216D02*
X74708790Y-80931216D01*
X74708790Y-80931216D02*
X74851647Y-81026454D01*
X74851647Y-81026454D02*
X74946885Y-81121692D01*
X74946885Y-81121692D02*
X74994504Y-81216930D01*
X75708790Y-79693121D02*
X75708790Y-80264549D01*
X75708790Y-79978835D02*
X74708790Y-79978835D01*
X74708790Y-79978835D02*
X74851647Y-80074073D01*
X74851647Y-80074073D02*
X74946885Y-80169311D01*
X74946885Y-80169311D02*
X74994504Y-80264549D01*
X72354591Y-48082763D02*
X72306972Y-48130383D01*
X72306972Y-48130383D02*
X72164115Y-48178002D01*
X72164115Y-48178002D02*
X72068877Y-48178002D01*
X72068877Y-48178002D02*
X71926020Y-48130383D01*
X71926020Y-48130383D02*
X71830782Y-48035144D01*
X71830782Y-48035144D02*
X71783163Y-47939906D01*
X71783163Y-47939906D02*
X71735544Y-47749430D01*
X71735544Y-47749430D02*
X71735544Y-47606573D01*
X71735544Y-47606573D02*
X71783163Y-47416097D01*
X71783163Y-47416097D02*
X71830782Y-47320859D01*
X71830782Y-47320859D02*
X71926020Y-47225621D01*
X71926020Y-47225621D02*
X72068877Y-47178002D01*
X72068877Y-47178002D02*
X72164115Y-47178002D01*
X72164115Y-47178002D02*
X72306972Y-47225621D01*
X72306972Y-47225621D02*
X72354591Y-47273240D01*
X72687925Y-47178002D02*
X73354591Y-47178002D01*
X73354591Y-47178002D02*
X72926020Y-48178002D01*
X89036905Y-46554819D02*
X89036905Y-45554819D01*
X89036905Y-45554819D02*
X89275000Y-45554819D01*
X89275000Y-45554819D02*
X89417857Y-45602438D01*
X89417857Y-45602438D02*
X89513095Y-45697676D01*
X89513095Y-45697676D02*
X89560714Y-45792914D01*
X89560714Y-45792914D02*
X89608333Y-45983390D01*
X89608333Y-45983390D02*
X89608333Y-46126247D01*
X89608333Y-46126247D02*
X89560714Y-46316723D01*
X89560714Y-46316723D02*
X89513095Y-46411961D01*
X89513095Y-46411961D02*
X89417857Y-46507200D01*
X89417857Y-46507200D02*
X89275000Y-46554819D01*
X89275000Y-46554819D02*
X89036905Y-46554819D01*
X89989286Y-45650057D02*
X90036905Y-45602438D01*
X90036905Y-45602438D02*
X90132143Y-45554819D01*
X90132143Y-45554819D02*
X90370238Y-45554819D01*
X90370238Y-45554819D02*
X90465476Y-45602438D01*
X90465476Y-45602438D02*
X90513095Y-45650057D01*
X90513095Y-45650057D02*
X90560714Y-45745295D01*
X90560714Y-45745295D02*
X90560714Y-45840533D01*
X90560714Y-45840533D02*
X90513095Y-45983390D01*
X90513095Y-45983390D02*
X89941667Y-46554819D01*
X89941667Y-46554819D02*
X90560714Y-46554819D01*
X56223121Y-79668182D02*
X56223121Y-80382467D01*
X56223121Y-80382467D02*
X56175502Y-80525324D01*
X56175502Y-80525324D02*
X56080264Y-80620563D01*
X56080264Y-80620563D02*
X55937407Y-80668182D01*
X55937407Y-80668182D02*
X55842169Y-80668182D01*
X56651693Y-79763420D02*
X56699312Y-79715801D01*
X56699312Y-79715801D02*
X56794550Y-79668182D01*
X56794550Y-79668182D02*
X57032645Y-79668182D01*
X57032645Y-79668182D02*
X57127883Y-79715801D01*
X57127883Y-79715801D02*
X57175502Y-79763420D01*
X57175502Y-79763420D02*
X57223121Y-79858658D01*
X57223121Y-79858658D02*
X57223121Y-79953896D01*
X57223121Y-79953896D02*
X57175502Y-80096753D01*
X57175502Y-80096753D02*
X56604074Y-80668182D01*
X56604074Y-80668182D02*
X57223121Y-80668182D01*
X64562797Y-65864873D02*
X64515178Y-65912493D01*
X64515178Y-65912493D02*
X64372321Y-65960112D01*
X64372321Y-65960112D02*
X64277083Y-65960112D01*
X64277083Y-65960112D02*
X64134226Y-65912493D01*
X64134226Y-65912493D02*
X64038988Y-65817254D01*
X64038988Y-65817254D02*
X63991369Y-65722016D01*
X63991369Y-65722016D02*
X63943750Y-65531540D01*
X63943750Y-65531540D02*
X63943750Y-65388683D01*
X63943750Y-65388683D02*
X63991369Y-65198207D01*
X63991369Y-65198207D02*
X64038988Y-65102969D01*
X64038988Y-65102969D02*
X64134226Y-65007731D01*
X64134226Y-65007731D02*
X64277083Y-64960112D01*
X64277083Y-64960112D02*
X64372321Y-64960112D01*
X64372321Y-64960112D02*
X64515178Y-65007731D01*
X64515178Y-65007731D02*
X64562797Y-65055350D01*
X65515178Y-65960112D02*
X64943750Y-65960112D01*
X65229464Y-65960112D02*
X65229464Y-64960112D01*
X65229464Y-64960112D02*
X65134226Y-65102969D01*
X65134226Y-65102969D02*
X65038988Y-65198207D01*
X65038988Y-65198207D02*
X64943750Y-65245826D01*
X66134226Y-64960112D02*
X66229464Y-64960112D01*
X66229464Y-64960112D02*
X66324702Y-65007731D01*
X66324702Y-65007731D02*
X66372321Y-65055350D01*
X66372321Y-65055350D02*
X66419940Y-65150588D01*
X66419940Y-65150588D02*
X66467559Y-65341064D01*
X66467559Y-65341064D02*
X66467559Y-65579159D01*
X66467559Y-65579159D02*
X66419940Y-65769635D01*
X66419940Y-65769635D02*
X66372321Y-65864873D01*
X66372321Y-65864873D02*
X66324702Y-65912493D01*
X66324702Y-65912493D02*
X66229464Y-65960112D01*
X66229464Y-65960112D02*
X66134226Y-65960112D01*
X66134226Y-65960112D02*
X66038988Y-65912493D01*
X66038988Y-65912493D02*
X65991369Y-65864873D01*
X65991369Y-65864873D02*
X65943750Y-65769635D01*
X65943750Y-65769635D02*
X65896131Y-65579159D01*
X65896131Y-65579159D02*
X65896131Y-65341064D01*
X65896131Y-65341064D02*
X65943750Y-65150588D01*
X65943750Y-65150588D02*
X65991369Y-65055350D01*
X65991369Y-65055350D02*
X66038988Y-65007731D01*
X66038988Y-65007731D02*
X66134226Y-64960112D01*
X78558565Y-82441637D02*
X77558565Y-82441637D01*
X77558565Y-82441637D02*
X77558565Y-82203542D01*
X77558565Y-82203542D02*
X77606184Y-82060685D01*
X77606184Y-82060685D02*
X77701422Y-81965447D01*
X77701422Y-81965447D02*
X77796660Y-81917828D01*
X77796660Y-81917828D02*
X77987136Y-81870209D01*
X77987136Y-81870209D02*
X78129993Y-81870209D01*
X78129993Y-81870209D02*
X78320469Y-81917828D01*
X78320469Y-81917828D02*
X78415707Y-81965447D01*
X78415707Y-81965447D02*
X78510946Y-82060685D01*
X78510946Y-82060685D02*
X78558565Y-82203542D01*
X78558565Y-82203542D02*
X78558565Y-82441637D01*
X77891898Y-81013066D02*
X78558565Y-81013066D01*
X77510946Y-81251161D02*
X78225231Y-81489256D01*
X78225231Y-81489256D02*
X78225231Y-80870209D01*
D13*
X78380812Y-56929053D02*
X78380812Y-56713381D01*
X79100812Y-56929053D02*
X79100812Y-56713381D01*
X77096244Y-56929053D02*
X77096244Y-56713381D01*
X77816244Y-56929053D02*
X77816244Y-56713381D01*
X65829673Y-75607132D02*
X65829673Y-75822804D01*
X66549673Y-75607132D02*
X66549673Y-75822804D01*
X83486766Y-79226502D02*
X83486766Y-78772374D01*
X84956766Y-79226502D02*
X84956766Y-78772374D01*
X62215000Y-82815000D02*
X62215000Y-83250000D01*
X62215000Y-84850000D02*
X62215000Y-87250000D01*
X62215000Y-88850000D02*
X62215000Y-89285000D01*
X62215000Y-89285000D02*
X68635000Y-89285000D01*
X68635000Y-82815000D02*
X62215000Y-82815000D01*
X68635000Y-83250000D02*
X68635000Y-82815000D01*
X68635000Y-87250000D02*
X68635000Y-84850000D01*
X68635000Y-89285000D02*
X68635000Y-88980000D01*
X95276505Y-76633590D02*
X95276505Y-58743590D01*
X98036505Y-58743590D02*
X95276505Y-58743590D01*
X98036505Y-76633590D02*
X95276505Y-76633590D01*
X98036505Y-76633590D02*
X98036505Y-58743590D01*
X98036505Y-77903590D02*
X98036505Y-79283590D01*
X98036505Y-79283590D02*
X96656505Y-79283590D01*
X72926204Y-51920765D02*
X72926204Y-53343269D01*
X74746204Y-51920765D02*
X74746204Y-53343269D01*
X79687153Y-56907280D02*
X79687153Y-56691608D01*
X80407153Y-56907280D02*
X80407153Y-56691608D01*
X75811675Y-56929053D02*
X75811675Y-56713381D01*
X76531675Y-56929053D02*
X76531675Y-56713381D01*
X87622832Y-47095082D02*
X87168704Y-47095082D01*
X87622832Y-48565082D02*
X87168704Y-48565082D01*
X75935032Y-44315104D02*
X80055032Y-44315104D01*
X75935032Y-44410104D02*
X75935032Y-44315104D01*
X75935032Y-49435104D02*
X75935032Y-49340104D01*
X80055032Y-44315104D02*
X80055032Y-44410104D01*
X80055032Y-49340104D02*
X80055032Y-49435104D01*
X80055032Y-49435104D02*
X75935032Y-49435104D01*
X75395032Y-44405104D02*
X75155032Y-44075104D01*
X75635032Y-44075104D01*
X75395032Y-44405104D01*
G36*
X75395032Y-44405104D02*
G01*
X75155032Y-44075104D01*
X75635032Y-44075104D01*
X75395032Y-44405104D01*
G37*
X62878380Y-67761478D02*
X62878380Y-73631478D01*
X66598380Y-67761478D02*
X62878380Y-67761478D01*
X66598380Y-73631478D02*
X66598380Y-67761478D01*
X79967146Y-37066031D02*
X79967146Y-38916031D01*
X79967146Y-37066031D02*
X80857146Y-37066031D01*
X82197146Y-37081031D02*
X83087146Y-37081031D01*
X83087146Y-37081031D02*
X83087146Y-38931031D01*
X79957146Y-39306031D02*
X79627146Y-39546031D01*
X79627146Y-39066031D01*
X79957146Y-39306031D01*
G36*
X79957146Y-39306031D02*
G01*
X79627146Y-39546031D01*
X79627146Y-39066031D01*
X79957146Y-39306031D01*
G37*
X73208448Y-79453800D02*
X73208448Y-78979284D01*
X74253448Y-79453800D02*
X74253448Y-78979284D01*
X81430633Y-77718435D02*
X81430633Y-80003435D01*
X82900633Y-77718435D02*
X81430633Y-77718435D01*
X82900633Y-80003435D02*
X82900633Y-77718435D01*
X60449646Y-47551031D02*
X71049646Y-47551031D01*
X60449646Y-50751031D02*
X60449646Y-47551031D01*
X60449646Y-58151031D02*
X60449646Y-54951031D01*
X71049646Y-47551031D02*
X71049646Y-50751031D01*
X71049646Y-54951031D02*
X71049646Y-58151031D01*
X71049646Y-58151031D02*
X60449646Y-58151031D01*
X60729646Y-36033531D02*
X68169646Y-36033531D01*
X60729646Y-46073531D02*
X60729646Y-36033531D01*
X68769646Y-36033531D02*
X71129646Y-36033531D01*
X71129646Y-36033531D02*
X71129646Y-46073531D01*
X71129646Y-36653531D02*
X60729646Y-36653531D01*
X71129646Y-38153531D02*
X60729646Y-38153531D01*
X71129646Y-43053531D02*
X60729646Y-43053531D01*
X71129646Y-46073531D02*
X60729646Y-46073531D01*
X68469646Y-36033531D02*
X68029646Y-35423531D01*
X68909646Y-35423531D01*
X68469646Y-36033531D01*
G36*
X68469646Y-36033531D02*
G01*
X68029646Y-35423531D01*
X68909646Y-35423531D01*
X68469646Y-36033531D01*
G37*
X80950448Y-56663641D02*
X80950448Y-56970923D01*
X81710448Y-56663641D02*
X81710448Y-56970923D01*
X83675042Y-53499067D02*
X83675042Y-53044939D01*
X85145042Y-53499067D02*
X85145042Y-53044939D01*
X72980898Y-66747051D02*
X73299096Y-66428853D01*
X73299096Y-67065249D02*
X72980898Y-66747051D01*
X77768011Y-61959938D02*
X78086209Y-61641740D01*
X78086209Y-61641740D02*
X78404407Y-61959938D01*
X78086209Y-71852362D02*
X77768011Y-71534164D01*
X78404407Y-71534164D02*
X78086209Y-71852362D01*
X82873322Y-66428853D02*
X83191520Y-66747051D01*
X83191520Y-66747051D02*
X82873322Y-67065249D01*
X77888219Y-61415466D02*
X77315463Y-61507390D01*
X77407386Y-60934633D01*
X77888219Y-61415466D01*
G36*
X77888219Y-61415466D02*
G01*
X77315463Y-61507390D01*
X77407386Y-60934633D01*
X77888219Y-61415466D01*
G37*
X78655546Y-53001343D02*
X78655546Y-53455471D01*
X80125546Y-53001343D02*
X80125546Y-53455471D01*
X76178810Y-78530040D02*
X76178810Y-78745712D01*
X76898810Y-78530040D02*
X76898810Y-78745712D01*
X71853242Y-79659170D02*
X71853242Y-79874842D01*
X72573242Y-79659170D02*
X72573242Y-79874842D01*
X73389646Y-41314779D02*
X73389646Y-41837283D01*
X74859646Y-41314779D02*
X74859646Y-41837283D01*
X90482053Y-48565082D02*
X92767053Y-48565082D01*
X92767053Y-47095082D02*
X90482053Y-47095082D01*
X92767053Y-48565082D02*
X92767053Y-47095082D01*
X81284994Y-53487168D02*
X81284994Y-53033040D01*
X82754994Y-53487168D02*
X82754994Y-53033040D01*
X84665601Y-82666187D02*
X84665601Y-83101187D01*
X84665601Y-84701187D02*
X84665601Y-87101187D01*
X84665601Y-88701187D02*
X84665601Y-89136187D01*
X84665601Y-89136187D02*
X91085601Y-89136187D01*
X91085601Y-82666187D02*
X84665601Y-82666187D01*
X91085601Y-83101187D02*
X91085601Y-82666187D01*
X91085601Y-87101187D02*
X91085601Y-84701187D01*
X91085601Y-89136187D02*
X91085601Y-88831187D01*
X79365543Y-79238243D02*
X79365543Y-78784115D01*
X80835543Y-79238243D02*
X80835543Y-78784115D01*
X74917766Y-78531959D02*
X74917766Y-78747631D01*
X75637766Y-78531959D02*
X75637766Y-78747631D01*
D14*
X90720135Y-51055673D02*
X90823868Y-51058410D01*
X90913241Y-51062669D01*
X90981826Y-51068445D01*
X91023197Y-51075733D01*
X91031810Y-51080105D01*
X91042133Y-51106236D01*
X91056892Y-51161607D01*
X91074352Y-51238893D01*
X91092780Y-51330770D01*
X91098741Y-51362842D01*
X91127066Y-51517476D01*
X91149876Y-51639625D01*
X91168080Y-51733327D01*
X91182583Y-51802616D01*
X91194292Y-51851529D01*
X91204115Y-51884103D01*
X91212956Y-51904372D01*
X91221724Y-51916374D01*
X91223457Y-51918053D01*
X91251371Y-51934816D01*
X91305695Y-51960386D01*
X91379777Y-51992212D01*
X91466965Y-52027740D01*
X91560608Y-52064417D01*
X91654052Y-52099689D01*
X91740647Y-52131004D01*
X91813740Y-52155807D01*
X91866678Y-52171546D01*
X91892811Y-52175668D01*
X91893726Y-52175324D01*
X91915086Y-52161359D01*
X91962084Y-52129678D01*
X92029827Y-52083609D01*
X92113423Y-52026482D01*
X92207982Y-51961627D01*
X92234854Y-51943157D01*
X92332275Y-51877301D01*
X92421163Y-51819350D01*
X92496412Y-51772462D01*
X92552920Y-51739793D01*
X92585581Y-51724500D01*
X92589593Y-51723759D01*
X92610684Y-51736608D01*
X92652464Y-51772112D01*
X92710445Y-51825707D01*
X92780135Y-51892829D01*
X92857045Y-51968913D01*
X92936683Y-52049396D01*
X93014561Y-52129713D01*
X93086186Y-52205301D01*
X93147070Y-52271595D01*
X93192721Y-52324031D01*
X93218650Y-52358045D01*
X93222883Y-52367455D01*
X93212912Y-52389357D01*
X93186020Y-52434200D01*
X93146736Y-52494679D01*
X93115117Y-52541211D01*
X93057098Y-52625525D01*
X92988784Y-52725374D01*
X92920579Y-52825527D01*
X92884075Y-52879373D01*
X92760800Y-53061629D01*
X92843520Y-53214619D01*
X92879759Y-53284318D01*
X92907926Y-53343586D01*
X92923991Y-53383689D01*
X92926226Y-53393897D01*
X92909722Y-53406171D01*
X92863082Y-53430387D01*
X92790609Y-53464737D01*
X92696606Y-53507412D01*
X92585374Y-53556606D01*
X92461215Y-53610510D01*
X92328432Y-53667316D01*
X92191327Y-53725218D01*
X92054202Y-53782407D01*
X91921358Y-53837076D01*
X91797098Y-53887416D01*
X91685725Y-53931620D01*
X91591539Y-53967881D01*
X91518844Y-53994391D01*
X91471941Y-54009342D01*
X91455833Y-54011746D01*
X91435286Y-53992689D01*
X91401933Y-53950964D01*
X91362702Y-53895294D01*
X91359599Y-53890622D01*
X91244423Y-53746736D01*
X91110053Y-53630717D01*
X90960784Y-53543570D01*
X90800913Y-53486301D01*
X90634737Y-53459914D01*
X90466552Y-53465415D01*
X90300655Y-53503810D01*
X90141342Y-53576105D01*
X90106487Y-53597374D01*
X89965737Y-53708004D01*
X89852714Y-53838698D01*
X89768003Y-53984936D01*
X89712194Y-54142192D01*
X89685874Y-54305943D01*
X89689630Y-54471667D01*
X89724050Y-54634838D01*
X89789723Y-54790935D01*
X89887235Y-54935433D01*
X89926813Y-54980131D01*
X90050703Y-55093888D01*
X90181124Y-55176782D01*
X90327315Y-55233644D01*
X90472088Y-55265313D01*
X90634860Y-55273131D01*
X90798440Y-55247062D01*
X90957298Y-55189755D01*
X91105906Y-55103856D01*
X91238735Y-54992014D01*
X91350256Y-54856877D01*
X91362011Y-54839117D01*
X91400508Y-54782850D01*
X91433863Y-54740077D01*
X91455160Y-54719628D01*
X91455833Y-54719331D01*
X91478871Y-54723721D01*
X91531157Y-54741124D01*
X91608390Y-54769732D01*
X91706268Y-54807735D01*
X91820491Y-54853326D01*
X91946758Y-54904697D01*
X92080767Y-54960038D01*
X92218218Y-55017542D01*
X92354808Y-55075399D01*
X92486237Y-55131802D01*
X92608205Y-55184942D01*
X92716409Y-55233010D01*
X92806549Y-55274199D01*
X92874323Y-55306699D01*
X92915430Y-55328703D01*
X92926226Y-55337564D01*
X92917819Y-55364640D01*
X92895272Y-55415303D01*
X92862613Y-55480817D01*
X92843520Y-55516841D01*
X92760800Y-55669832D01*
X92884075Y-55852088D01*
X92947228Y-55945125D01*
X93016727Y-56046985D01*
X93082165Y-56142438D01*
X93115117Y-56190250D01*
X93160273Y-56257495D01*
X93196057Y-56314436D01*
X93217938Y-56353646D01*
X93222563Y-56366381D01*
X93210085Y-56384917D01*
X93175252Y-56425941D01*
X93121678Y-56485475D01*
X93052983Y-56559542D01*
X92972781Y-56644165D01*
X92921286Y-56697685D01*
X92829286Y-56791319D01*
X92746999Y-56872241D01*
X92677945Y-56937177D01*
X92625644Y-56982858D01*
X92593616Y-57006011D01*
X92587116Y-57008232D01*
X92562394Y-56997924D01*
X92512405Y-56969439D01*
X92442212Y-56925937D01*
X92356875Y-56870577D01*
X92261456Y-56806520D01*
X92234854Y-56788303D01*
X92138167Y-56721927D01*
X92051117Y-56662378D01*
X91978595Y-56612984D01*
X91925493Y-56577075D01*
X91896703Y-56557981D01*
X91893726Y-56556136D01*
X91870782Y-56558895D01*
X91820336Y-56573538D01*
X91749041Y-56597513D01*
X91663547Y-56628266D01*
X91570507Y-56663244D01*
X91476574Y-56699893D01*
X91388399Y-56735661D01*
X91312634Y-56767994D01*
X91255931Y-56794338D01*
X91224943Y-56812142D01*
X91223457Y-56813407D01*
X91214601Y-56824294D01*
X91205843Y-56842682D01*
X91196277Y-56872606D01*
X91184996Y-56918103D01*
X91171093Y-56983209D01*
X91153663Y-57071961D01*
X91131798Y-57188393D01*
X91104591Y-57336542D01*
X91098741Y-57368618D01*
X91080374Y-57463686D01*
X91062405Y-57546565D01*
X91046569Y-57609930D01*
X91034600Y-57646458D01*
X91031810Y-57651356D01*
X91007072Y-57659427D01*
X90951790Y-57665987D01*
X90872389Y-57671033D01*
X90775296Y-57674559D01*
X90666938Y-57676561D01*
X90553740Y-57677036D01*
X90442128Y-57675977D01*
X90338529Y-57673382D01*
X90249368Y-57669246D01*
X90181072Y-57663563D01*
X90140066Y-57656331D01*
X90131674Y-57651971D01*
X90123208Y-57627698D01*
X90109435Y-57572426D01*
X90091550Y-57491662D01*
X90070748Y-57390912D01*
X90048223Y-57275683D01*
X90036418Y-57212902D01*
X90014151Y-57093787D01*
X89993979Y-56987565D01*
X89976915Y-56899427D01*
X89963969Y-56834566D01*
X89956155Y-56798174D01*
X89954422Y-56792184D01*
X89934890Y-56782061D01*
X89887843Y-56760662D01*
X89820003Y-56730839D01*
X89738091Y-56695445D01*
X89648828Y-56657332D01*
X89558935Y-56619353D01*
X89475135Y-56584360D01*
X89404147Y-56555206D01*
X89352694Y-56534743D01*
X89327497Y-56525823D01*
X89326396Y-56525657D01*
X89306519Y-56535769D01*
X89260777Y-56564117D01*
X89193717Y-56607723D01*
X89109884Y-56663606D01*
X89013826Y-56728787D01*
X88958650Y-56766679D01*
X88857481Y-56835725D01*
X88765630Y-56897050D01*
X88687744Y-56947663D01*
X88628469Y-56984571D01*
X88592451Y-57004782D01*
X88584377Y-57007701D01*
X88565584Y-56995153D01*
X88525457Y-56960463D01*
X88468493Y-56908063D01*
X88399185Y-56842384D01*
X88322031Y-56767856D01*
X88241525Y-56688913D01*
X88162163Y-56609983D01*
X88088440Y-56535500D01*
X88024852Y-56469894D01*
X87975894Y-56417596D01*
X87946061Y-56383039D01*
X87938942Y-56371478D01*
X87948953Y-56352654D01*
X87977078Y-56307631D01*
X88020454Y-56240787D01*
X88076218Y-56156499D01*
X88141506Y-56059144D01*
X88191246Y-55985707D01*
X88443551Y-55614667D01*
X88188555Y-54996095D01*
X87743931Y-54912275D01*
X87299307Y-54828454D01*
X87299307Y-53903006D01*
X87743931Y-53819186D01*
X88188555Y-53735365D01*
X88316053Y-53426080D01*
X88443551Y-53116794D01*
X88191246Y-52745754D01*
X88120996Y-52641843D01*
X88058272Y-52547913D01*
X88005938Y-52468348D01*
X87966857Y-52407530D01*
X87943893Y-52369843D01*
X87938942Y-52359579D01*
X87951676Y-52341090D01*
X87986882Y-52301580D01*
X88040062Y-52245478D01*
X88106718Y-52177213D01*
X88182354Y-52101214D01*
X88262472Y-52021908D01*
X88342574Y-51943725D01*
X88418164Y-51871093D01*
X88484745Y-51808441D01*
X88537818Y-51760197D01*
X88572887Y-51730790D01*
X88584623Y-51723759D01*
X88606260Y-51733877D01*
X88653662Y-51762241D01*
X88722193Y-51805871D01*
X88807215Y-51861782D01*
X88904093Y-51926994D01*
X88959350Y-51964781D01*
X89060248Y-52033657D01*
X89151299Y-52094860D01*
X89227970Y-52145422D01*
X89285728Y-52182372D01*
X89320043Y-52202742D01*
X89327254Y-52205803D01*
X89347748Y-52198864D01*
X89395513Y-52179949D01*
X89463832Y-52151913D01*
X89545989Y-52117609D01*
X89635270Y-52079891D01*
X89724958Y-52041613D01*
X89808338Y-52005630D01*
X89878694Y-51974794D01*
X89929310Y-51951961D01*
X89953471Y-51939983D01*
X89954422Y-51939276D01*
X89959036Y-51920469D01*
X89969328Y-51870382D01*
X89984287Y-51794207D01*
X90002901Y-51697135D01*
X90024159Y-51584357D01*
X90036418Y-51518558D01*
X90059362Y-51398050D01*
X90081195Y-51289203D01*
X90100722Y-51197524D01*
X90116748Y-51128519D01*
X90128079Y-51087696D01*
X90131674Y-51079489D01*
X90156006Y-51071452D01*
X90210959Y-51064967D01*
X90290108Y-51060030D01*
X90387026Y-51056636D01*
X90495287Y-51054782D01*
X90608465Y-51054462D01*
X90720135Y-51055673D01*
G36*
X90720135Y-51055673D02*
G01*
X90823868Y-51058410D01*
X90913241Y-51062669D01*
X90981826Y-51068445D01*
X91023197Y-51075733D01*
X91031810Y-51080105D01*
X91042133Y-51106236D01*
X91056892Y-51161607D01*
X91074352Y-51238893D01*
X91092780Y-51330770D01*
X91098741Y-51362842D01*
X91127066Y-51517476D01*
X91149876Y-51639625D01*
X91168080Y-51733327D01*
X91182583Y-51802616D01*
X91194292Y-51851529D01*
X91204115Y-51884103D01*
X91212956Y-51904372D01*
X91221724Y-51916374D01*
X91223457Y-51918053D01*
X91251371Y-51934816D01*
X91305695Y-51960386D01*
X91379777Y-51992212D01*
X91466965Y-52027740D01*
X91560608Y-52064417D01*
X91654052Y-52099689D01*
X91740647Y-52131004D01*
X91813740Y-52155807D01*
X91866678Y-52171546D01*
X91892811Y-52175668D01*
X91893726Y-52175324D01*
X91915086Y-52161359D01*
X91962084Y-52129678D01*
X92029827Y-52083609D01*
X92113423Y-52026482D01*
X92207982Y-51961627D01*
X92234854Y-51943157D01*
X92332275Y-51877301D01*
X92421163Y-51819350D01*
X92496412Y-51772462D01*
X92552920Y-51739793D01*
X92585581Y-51724500D01*
X92589593Y-51723759D01*
X92610684Y-51736608D01*
X92652464Y-51772112D01*
X92710445Y-51825707D01*
X92780135Y-51892829D01*
X92857045Y-51968913D01*
X92936683Y-52049396D01*
X93014561Y-52129713D01*
X93086186Y-52205301D01*
X93147070Y-52271595D01*
X93192721Y-52324031D01*
X93218650Y-52358045D01*
X93222883Y-52367455D01*
X93212912Y-52389357D01*
X93186020Y-52434200D01*
X93146736Y-52494679D01*
X93115117Y-52541211D01*
X93057098Y-52625525D01*
X92988784Y-52725374D01*
X92920579Y-52825527D01*
X92884075Y-52879373D01*
X92760800Y-53061629D01*
X92843520Y-53214619D01*
X92879759Y-53284318D01*
X92907926Y-53343586D01*
X92923991Y-53383689D01*
X92926226Y-53393897D01*
X92909722Y-53406171D01*
X92863082Y-53430387D01*
X92790609Y-53464737D01*
X92696606Y-53507412D01*
X92585374Y-53556606D01*
X92461215Y-53610510D01*
X92328432Y-53667316D01*
X92191327Y-53725218D01*
X92054202Y-53782407D01*
X91921358Y-53837076D01*
X91797098Y-53887416D01*
X91685725Y-53931620D01*
X91591539Y-53967881D01*
X91518844Y-53994391D01*
X91471941Y-54009342D01*
X91455833Y-54011746D01*
X91435286Y-53992689D01*
X91401933Y-53950964D01*
X91362702Y-53895294D01*
X91359599Y-53890622D01*
X91244423Y-53746736D01*
X91110053Y-53630717D01*
X90960784Y-53543570D01*
X90800913Y-53486301D01*
X90634737Y-53459914D01*
X90466552Y-53465415D01*
X90300655Y-53503810D01*
X90141342Y-53576105D01*
X90106487Y-53597374D01*
X89965737Y-53708004D01*
X89852714Y-53838698D01*
X89768003Y-53984936D01*
X89712194Y-54142192D01*
X89685874Y-54305943D01*
X89689630Y-54471667D01*
X89724050Y-54634838D01*
X89789723Y-54790935D01*
X89887235Y-54935433D01*
X89926813Y-54980131D01*
X90050703Y-55093888D01*
X90181124Y-55176782D01*
X90327315Y-55233644D01*
X90472088Y-55265313D01*
X90634860Y-55273131D01*
X90798440Y-55247062D01*
X90957298Y-55189755D01*
X91105906Y-55103856D01*
X91238735Y-54992014D01*
X91350256Y-54856877D01*
X91362011Y-54839117D01*
X91400508Y-54782850D01*
X91433863Y-54740077D01*
X91455160Y-54719628D01*
X91455833Y-54719331D01*
X91478871Y-54723721D01*
X91531157Y-54741124D01*
X91608390Y-54769732D01*
X91706268Y-54807735D01*
X91820491Y-54853326D01*
X91946758Y-54904697D01*
X92080767Y-54960038D01*
X92218218Y-55017542D01*
X92354808Y-55075399D01*
X92486237Y-55131802D01*
X92608205Y-55184942D01*
X92716409Y-55233010D01*
X92806549Y-55274199D01*
X92874323Y-55306699D01*
X92915430Y-55328703D01*
X92926226Y-55337564D01*
X92917819Y-55364640D01*
X92895272Y-55415303D01*
X92862613Y-55480817D01*
X92843520Y-55516841D01*
X92760800Y-55669832D01*
X92884075Y-55852088D01*
X92947228Y-55945125D01*
X93016727Y-56046985D01*
X93082165Y-56142438D01*
X93115117Y-56190250D01*
X93160273Y-56257495D01*
X93196057Y-56314436D01*
X93217938Y-56353646D01*
X93222563Y-56366381D01*
X93210085Y-56384917D01*
X93175252Y-56425941D01*
X93121678Y-56485475D01*
X93052983Y-56559542D01*
X92972781Y-56644165D01*
X92921286Y-56697685D01*
X92829286Y-56791319D01*
X92746999Y-56872241D01*
X92677945Y-56937177D01*
X92625644Y-56982858D01*
X92593616Y-57006011D01*
X92587116Y-57008232D01*
X92562394Y-56997924D01*
X92512405Y-56969439D01*
X92442212Y-56925937D01*
X92356875Y-56870577D01*
X92261456Y-56806520D01*
X92234854Y-56788303D01*
X92138167Y-56721927D01*
X92051117Y-56662378D01*
X91978595Y-56612984D01*
X91925493Y-56577075D01*
X91896703Y-56557981D01*
X91893726Y-56556136D01*
X91870782Y-56558895D01*
X91820336Y-56573538D01*
X91749041Y-56597513D01*
X91663547Y-56628266D01*
X91570507Y-56663244D01*
X91476574Y-56699893D01*
X91388399Y-56735661D01*
X91312634Y-56767994D01*
X91255931Y-56794338D01*
X91224943Y-56812142D01*
X91223457Y-56813407D01*
X91214601Y-56824294D01*
X91205843Y-56842682D01*
X91196277Y-56872606D01*
X91184996Y-56918103D01*
X91171093Y-56983209D01*
X91153663Y-57071961D01*
X91131798Y-57188393D01*
X91104591Y-57336542D01*
X91098741Y-57368618D01*
X91080374Y-57463686D01*
X91062405Y-57546565D01*
X91046569Y-57609930D01*
X91034600Y-57646458D01*
X91031810Y-57651356D01*
X91007072Y-57659427D01*
X90951790Y-57665987D01*
X90872389Y-57671033D01*
X90775296Y-57674559D01*
X90666938Y-57676561D01*
X90553740Y-57677036D01*
X90442128Y-57675977D01*
X90338529Y-57673382D01*
X90249368Y-57669246D01*
X90181072Y-57663563D01*
X90140066Y-57656331D01*
X90131674Y-57651971D01*
X90123208Y-57627698D01*
X90109435Y-57572426D01*
X90091550Y-57491662D01*
X90070748Y-57390912D01*
X90048223Y-57275683D01*
X90036418Y-57212902D01*
X90014151Y-57093787D01*
X89993979Y-56987565D01*
X89976915Y-56899427D01*
X89963969Y-56834566D01*
X89956155Y-56798174D01*
X89954422Y-56792184D01*
X89934890Y-56782061D01*
X89887843Y-56760662D01*
X89820003Y-56730839D01*
X89738091Y-56695445D01*
X89648828Y-56657332D01*
X89558935Y-56619353D01*
X89475135Y-56584360D01*
X89404147Y-56555206D01*
X89352694Y-56534743D01*
X89327497Y-56525823D01*
X89326396Y-56525657D01*
X89306519Y-56535769D01*
X89260777Y-56564117D01*
X89193717Y-56607723D01*
X89109884Y-56663606D01*
X89013826Y-56728787D01*
X88958650Y-56766679D01*
X88857481Y-56835725D01*
X88765630Y-56897050D01*
X88687744Y-56947663D01*
X88628469Y-56984571D01*
X88592451Y-57004782D01*
X88584377Y-57007701D01*
X88565584Y-56995153D01*
X88525457Y-56960463D01*
X88468493Y-56908063D01*
X88399185Y-56842384D01*
X88322031Y-56767856D01*
X88241525Y-56688913D01*
X88162163Y-56609983D01*
X88088440Y-56535500D01*
X88024852Y-56469894D01*
X87975894Y-56417596D01*
X87946061Y-56383039D01*
X87938942Y-56371478D01*
X87948953Y-56352654D01*
X87977078Y-56307631D01*
X88020454Y-56240787D01*
X88076218Y-56156499D01*
X88141506Y-56059144D01*
X88191246Y-55985707D01*
X88443551Y-55614667D01*
X88188555Y-54996095D01*
X87743931Y-54912275D01*
X87299307Y-54828454D01*
X87299307Y-53903006D01*
X87743931Y-53819186D01*
X88188555Y-53735365D01*
X88316053Y-53426080D01*
X88443551Y-53116794D01*
X88191246Y-52745754D01*
X88120996Y-52641843D01*
X88058272Y-52547913D01*
X88005938Y-52468348D01*
X87966857Y-52407530D01*
X87943893Y-52369843D01*
X87938942Y-52359579D01*
X87951676Y-52341090D01*
X87986882Y-52301580D01*
X88040062Y-52245478D01*
X88106718Y-52177213D01*
X88182354Y-52101214D01*
X88262472Y-52021908D01*
X88342574Y-51943725D01*
X88418164Y-51871093D01*
X88484745Y-51808441D01*
X88537818Y-51760197D01*
X88572887Y-51730790D01*
X88584623Y-51723759D01*
X88606260Y-51733877D01*
X88653662Y-51762241D01*
X88722193Y-51805871D01*
X88807215Y-51861782D01*
X88904093Y-51926994D01*
X88959350Y-51964781D01*
X89060248Y-52033657D01*
X89151299Y-52094860D01*
X89227970Y-52145422D01*
X89285728Y-52182372D01*
X89320043Y-52202742D01*
X89327254Y-52205803D01*
X89347748Y-52198864D01*
X89395513Y-52179949D01*
X89463832Y-52151913D01*
X89545989Y-52117609D01*
X89635270Y-52079891D01*
X89724958Y-52041613D01*
X89808338Y-52005630D01*
X89878694Y-51974794D01*
X89929310Y-51951961D01*
X89953471Y-51939983D01*
X89954422Y-51939276D01*
X89959036Y-51920469D01*
X89969328Y-51870382D01*
X89984287Y-51794207D01*
X90002901Y-51697135D01*
X90024159Y-51584357D01*
X90036418Y-51518558D01*
X90059362Y-51398050D01*
X90081195Y-51289203D01*
X90100722Y-51197524D01*
X90116748Y-51128519D01*
X90128079Y-51087696D01*
X90131674Y-51079489D01*
X90156006Y-51071452D01*
X90210959Y-51064967D01*
X90290108Y-51060030D01*
X90387026Y-51056636D01*
X90495287Y-51054782D01*
X90608465Y-51054462D01*
X90720135Y-51055673D01*
G37*
D13*
X86524646Y-35516031D02*
X86524646Y-44026031D01*
X86524646Y-35516031D02*
X93024646Y-35516031D01*
X93024646Y-35516031D02*
X93024646Y-44026031D01*
X55176455Y-76563363D02*
X55176455Y-58673363D01*
X57936455Y-58673363D02*
X55176455Y-58673363D01*
X57936455Y-76563363D02*
X55176455Y-76563363D01*
X57936455Y-76563363D02*
X57936455Y-58673363D01*
X57936455Y-77833363D02*
X57936455Y-79213363D01*
X57936455Y-79213363D02*
X56556455Y-79213363D01*
X65104276Y-66321125D02*
X65319948Y-66321125D01*
X65104276Y-67041125D02*
X65319948Y-67041125D01*
X77360243Y-77735794D02*
X77360243Y-80020794D01*
X78830243Y-77735794D02*
X77360243Y-77735794D01*
X78830243Y-80020794D02*
X78830243Y-77735794D01*
M02*
