G04 #@! TF.GenerationSoftware,KiCad,Pcbnew,9.0.5*
G04 #@! TF.CreationDate,2025-12-11T22:36:07+05:30*
G04 #@! TF.ProjectId,GPS_with_STM32,4750535f-7769-4746-985f-53544d33322e,rev?*
G04 #@! TF.SameCoordinates,Original*
G04 #@! TF.FileFunction,Legend,Bot*
G04 #@! TF.FilePolarity,Positive*
%FSLAX46Y46*%
G04 Gerber Fmt 4.6, Leading zero omitted, Abs format (unit mm)*
G04 Created by KiCad (PCBNEW 9.0.5) date 2025-12-11 22:36:07*
%MOMM*%
%LPD*%
G01*
G04 APERTURE LIST*
%ADD10C,0.105000*%
%ADD11C,0.200000*%
%ADD12C,0.150000*%
%ADD13C,0.000000*%
%ADD14C,0.010000*%
%ADD15C,0.120000*%
%ADD16C,0.127000*%
%ADD17C,0.400000*%
%ADD18C,0.152400*%
G04 APERTURE END LIST*
D10*
G36*
X60294619Y-61979129D02*
G01*
X60377083Y-62020361D01*
X60457533Y-62100811D01*
X60498539Y-62223828D01*
X60498539Y-62400904D01*
X59603539Y-62400904D01*
X59603539Y-62223829D01*
X59644545Y-62100811D01*
X59724995Y-62020361D01*
X59807461Y-61979128D01*
X59986076Y-61934476D01*
X60116007Y-61934476D01*
X60294619Y-61979129D01*
G37*
G36*
X60342238Y-51264844D02*
G01*
X60424702Y-51306076D01*
X60460272Y-51341646D01*
X60498539Y-51418179D01*
X60498539Y-51488630D01*
X60460272Y-51565163D01*
X60424702Y-51600734D01*
X60342238Y-51641966D01*
X60163626Y-51686619D01*
X59938457Y-51686619D01*
X59759842Y-51641966D01*
X59677376Y-51600733D01*
X59641805Y-51565162D01*
X59603539Y-51488630D01*
X59603539Y-51418179D01*
X59641805Y-51341647D01*
X59677376Y-51306076D01*
X59759842Y-51264843D01*
X59938457Y-51220191D01*
X60163626Y-51220191D01*
X60342238Y-51264844D01*
G37*
G36*
X60761272Y-62617015D02*
G01*
X59150331Y-62617015D01*
X59150331Y-62215309D01*
X59498539Y-62215309D01*
X59498539Y-62453404D01*
X59502535Y-62473495D01*
X59530948Y-62501908D01*
X59551039Y-62505904D01*
X60551039Y-62505904D01*
X60571130Y-62501908D01*
X60599543Y-62473495D01*
X60603539Y-62453404D01*
X60603539Y-62215309D01*
X60601897Y-62207055D01*
X60600845Y-62198707D01*
X60553226Y-62055850D01*
X60551924Y-62053565D01*
X60551924Y-62052361D01*
X60547250Y-62045367D01*
X60543082Y-62038054D01*
X60542003Y-62037514D01*
X60540543Y-62035329D01*
X60445305Y-61940091D01*
X60438306Y-61935414D01*
X60431660Y-61930256D01*
X60336423Y-61882638D01*
X60330879Y-61881119D01*
X60325677Y-61878662D01*
X60135201Y-61831044D01*
X60128777Y-61830731D01*
X60122468Y-61829476D01*
X59979611Y-61829476D01*
X59973301Y-61830731D01*
X59966878Y-61831044D01*
X59776402Y-61878663D01*
X59771202Y-61881118D01*
X59765656Y-61882638D01*
X59670418Y-61930257D01*
X59663770Y-61935415D01*
X59656774Y-61940091D01*
X59561536Y-62035329D01*
X59560075Y-62037514D01*
X59558998Y-62038053D01*
X59554830Y-62045364D01*
X59550155Y-62052361D01*
X59550155Y-62053565D01*
X59548853Y-62055850D01*
X59501233Y-62198707D01*
X59500180Y-62207055D01*
X59498539Y-62215309D01*
X59150331Y-62215309D01*
X59150331Y-61072452D01*
X59498539Y-61072452D01*
X59498539Y-61167690D01*
X59500180Y-61175943D01*
X59501233Y-61184292D01*
X59548853Y-61327149D01*
X59550155Y-61329433D01*
X59550155Y-61330638D01*
X59554830Y-61337634D01*
X59558998Y-61344946D01*
X59560075Y-61345484D01*
X59561536Y-61347670D01*
X59656774Y-61442908D01*
X59663770Y-61447583D01*
X59670418Y-61452742D01*
X59765656Y-61500361D01*
X59771202Y-61501880D01*
X59776402Y-61504336D01*
X59966878Y-61551955D01*
X59973301Y-61552267D01*
X59979611Y-61553523D01*
X60122468Y-61553523D01*
X60128777Y-61552267D01*
X60135201Y-61551955D01*
X60325677Y-61504337D01*
X60330879Y-61501879D01*
X60336423Y-61500361D01*
X60431660Y-61452743D01*
X60438306Y-61447584D01*
X60445305Y-61442908D01*
X60540543Y-61347670D01*
X60542003Y-61345484D01*
X60543082Y-61344945D01*
X60547250Y-61337631D01*
X60551924Y-61330638D01*
X60551924Y-61329433D01*
X60553226Y-61327149D01*
X60600845Y-61184292D01*
X60601897Y-61175943D01*
X60603539Y-61167690D01*
X60603539Y-61072452D01*
X60601897Y-61064198D01*
X60600845Y-61055850D01*
X60553226Y-60912993D01*
X60551924Y-60910708D01*
X60551924Y-60909504D01*
X60547250Y-60902510D01*
X60543082Y-60895197D01*
X60542003Y-60894657D01*
X60540543Y-60892472D01*
X60492924Y-60844853D01*
X60475892Y-60833472D01*
X60435710Y-60833472D01*
X60407297Y-60861885D01*
X60407297Y-60902067D01*
X60418678Y-60919099D01*
X60457533Y-60957954D01*
X60498539Y-61080971D01*
X60498539Y-61159170D01*
X60457533Y-61282187D01*
X60377083Y-61362638D01*
X60294619Y-61403870D01*
X60116007Y-61448523D01*
X59986076Y-61448523D01*
X59807461Y-61403870D01*
X59724995Y-61362637D01*
X59644545Y-61282187D01*
X59603539Y-61159169D01*
X59603539Y-61080972D01*
X59644545Y-60957954D01*
X59683401Y-60919099D01*
X59694782Y-60902067D01*
X59694782Y-60861885D01*
X59666369Y-60833472D01*
X59626187Y-60833472D01*
X59609155Y-60844853D01*
X59561536Y-60892472D01*
X59560075Y-60894657D01*
X59558998Y-60895196D01*
X59554830Y-60902507D01*
X59550155Y-60909504D01*
X59550155Y-60910708D01*
X59548853Y-60912993D01*
X59501233Y-61055850D01*
X59500180Y-61064198D01*
X59498539Y-61072452D01*
X59150331Y-61072452D01*
X59150331Y-60606449D01*
X59261442Y-60606449D01*
X59283731Y-60639883D01*
X59323132Y-60647763D01*
X59342066Y-60639944D01*
X60627780Y-59782802D01*
X60642281Y-59768333D01*
X60650161Y-59728931D01*
X60627872Y-59695497D01*
X60588470Y-59687617D01*
X60569537Y-59695437D01*
X59283822Y-60552578D01*
X59269322Y-60567048D01*
X59261442Y-60606449D01*
X59150331Y-60606449D01*
X59150331Y-59385694D01*
X59502535Y-59385694D01*
X59502535Y-59425876D01*
X59530948Y-59454289D01*
X59551039Y-59458285D01*
X60551039Y-59458285D01*
X60571130Y-59454289D01*
X60599543Y-59425876D01*
X60599543Y-59385694D01*
X60571130Y-59357281D01*
X60551039Y-59353285D01*
X59551039Y-59353285D01*
X59530948Y-59357281D01*
X59502535Y-59385694D01*
X59150331Y-59385694D01*
X59150331Y-58351546D01*
X59498958Y-58351546D01*
X59502535Y-58364662D01*
X59502535Y-58378258D01*
X59507633Y-58383356D01*
X59509530Y-58390312D01*
X59524992Y-58403750D01*
X60353347Y-58877095D01*
X59551039Y-58877095D01*
X59530948Y-58881091D01*
X59502535Y-58909504D01*
X59502535Y-58949686D01*
X59530948Y-58978099D01*
X59551039Y-58982095D01*
X60551039Y-58982095D01*
X60571130Y-58978099D01*
X60576227Y-58973001D01*
X60583185Y-58971104D01*
X60589930Y-58959298D01*
X60599543Y-58949686D01*
X60599543Y-58942476D01*
X60603120Y-58936216D01*
X60599543Y-58923099D01*
X60599543Y-58909504D01*
X60594444Y-58904405D01*
X60592548Y-58897450D01*
X60577086Y-58884012D01*
X59748731Y-58410667D01*
X60551039Y-58410667D01*
X60571130Y-58406671D01*
X60599543Y-58378258D01*
X60599543Y-58338076D01*
X60571130Y-58309663D01*
X60551039Y-58305667D01*
X59551039Y-58305667D01*
X59530948Y-58309663D01*
X59525849Y-58314761D01*
X59518894Y-58316658D01*
X59512148Y-58328462D01*
X59502535Y-58338076D01*
X59502535Y-58345286D01*
X59498958Y-58351546D01*
X59150331Y-58351546D01*
X59150331Y-56786738D01*
X59498539Y-56786738D01*
X59498539Y-57024833D01*
X59499051Y-57027412D01*
X59498671Y-57028555D01*
X59500892Y-57036667D01*
X59502535Y-57044924D01*
X59503387Y-57045776D01*
X59504082Y-57048312D01*
X59551702Y-57143550D01*
X59556860Y-57150197D01*
X59561536Y-57157194D01*
X59609155Y-57204813D01*
X59626187Y-57216194D01*
X59666369Y-57216194D01*
X59694782Y-57187781D01*
X59694782Y-57147599D01*
X59683401Y-57130567D01*
X59641805Y-57088971D01*
X59603539Y-57012439D01*
X59603539Y-56799131D01*
X59641805Y-56722599D01*
X59677376Y-56687028D01*
X59753910Y-56648762D01*
X59967218Y-56648762D01*
X60043750Y-56687028D01*
X60079320Y-56722598D01*
X60117587Y-56799131D01*
X60117587Y-57012439D01*
X60079320Y-57088972D01*
X60037726Y-57130567D01*
X60026345Y-57147599D01*
X60026345Y-57150376D01*
X60024587Y-57152525D01*
X60026345Y-57170106D01*
X60026345Y-57187781D01*
X60028308Y-57189744D01*
X60028585Y-57192508D01*
X60042261Y-57203697D01*
X60054758Y-57216194D01*
X60057535Y-57216194D01*
X60059684Y-57217952D01*
X60080073Y-57219929D01*
X60556263Y-57172310D01*
X60568511Y-57168575D01*
X60571130Y-57168575D01*
X60572278Y-57167426D01*
X60575857Y-57166335D01*
X60587046Y-57152658D01*
X60599543Y-57140162D01*
X60600272Y-57136492D01*
X60601301Y-57135236D01*
X60601040Y-57132632D01*
X60603539Y-57120071D01*
X60603539Y-56643881D01*
X60599543Y-56623790D01*
X60571130Y-56595377D01*
X60530948Y-56595377D01*
X60502535Y-56623790D01*
X60498539Y-56643881D01*
X60498539Y-57072559D01*
X60189466Y-57103466D01*
X60217044Y-57048312D01*
X60217738Y-57045776D01*
X60218591Y-57044924D01*
X60220233Y-57036667D01*
X60222455Y-57028555D01*
X60222074Y-57027412D01*
X60222587Y-57024833D01*
X60222587Y-56786738D01*
X60222074Y-56784158D01*
X60222455Y-56783016D01*
X60220233Y-56774903D01*
X60218591Y-56766647D01*
X60217738Y-56765794D01*
X60217044Y-56763259D01*
X60169425Y-56668021D01*
X60164266Y-56661373D01*
X60159591Y-56654377D01*
X60111972Y-56606758D01*
X60104973Y-56602081D01*
X60098327Y-56596923D01*
X60003090Y-56549305D01*
X60000554Y-56548610D01*
X59999702Y-56547758D01*
X59991445Y-56546115D01*
X59983333Y-56543894D01*
X59982190Y-56544274D01*
X59979611Y-56543762D01*
X59741516Y-56543762D01*
X59738936Y-56544274D01*
X59737794Y-56543894D01*
X59729681Y-56546115D01*
X59721425Y-56547758D01*
X59720572Y-56548610D01*
X59718037Y-56549305D01*
X59622799Y-56596924D01*
X59616151Y-56602082D01*
X59609155Y-56606758D01*
X59561536Y-56654377D01*
X59556860Y-56661373D01*
X59551702Y-56668021D01*
X59504082Y-56763259D01*
X59503387Y-56765794D01*
X59502535Y-56766647D01*
X59500892Y-56774903D01*
X59498671Y-56783016D01*
X59499051Y-56784158D01*
X59498539Y-56786738D01*
X59150331Y-56786738D01*
X59150331Y-56147598D01*
X59502535Y-56147598D01*
X59502535Y-56147599D01*
X59502535Y-56187782D01*
X59513916Y-56204813D01*
X59561536Y-56252432D01*
X59578568Y-56263813D01*
X59618750Y-56263813D01*
X59635782Y-56252432D01*
X59683401Y-56204813D01*
X59694782Y-56187781D01*
X59694782Y-56147599D01*
X59694781Y-56147598D01*
X59683401Y-56130567D01*
X59635782Y-56082948D01*
X59618750Y-56071567D01*
X59578568Y-56071567D01*
X59561536Y-56082948D01*
X59513916Y-56130567D01*
X59502535Y-56147598D01*
X59150331Y-56147598D01*
X59150331Y-55358167D01*
X59498539Y-55358167D01*
X59498539Y-55596262D01*
X59499051Y-55598841D01*
X59498671Y-55599984D01*
X59500892Y-55608096D01*
X59502535Y-55616353D01*
X59503387Y-55617205D01*
X59504082Y-55619741D01*
X59551702Y-55714979D01*
X59556860Y-55721626D01*
X59561536Y-55728623D01*
X59609155Y-55776242D01*
X59626187Y-55787623D01*
X59666369Y-55787623D01*
X59694782Y-55759210D01*
X59694782Y-55719028D01*
X59683401Y-55701996D01*
X59641805Y-55660400D01*
X59603539Y-55583868D01*
X59603539Y-55370560D01*
X59641805Y-55294028D01*
X59677376Y-55258457D01*
X59753910Y-55220191D01*
X59967218Y-55220191D01*
X60043750Y-55258457D01*
X60079320Y-55294027D01*
X60117587Y-55370560D01*
X60117587Y-55583868D01*
X60079320Y-55660401D01*
X60037726Y-55701996D01*
X60026345Y-55719028D01*
X60026345Y-55721805D01*
X60024587Y-55723954D01*
X60026345Y-55741535D01*
X60026345Y-55759210D01*
X60028308Y-55761173D01*
X60028585Y-55763937D01*
X60042261Y-55775126D01*
X60054758Y-55787623D01*
X60057535Y-55787623D01*
X60059684Y-55789381D01*
X60080073Y-55791358D01*
X60556263Y-55743739D01*
X60568511Y-55740004D01*
X60571130Y-55740004D01*
X60572278Y-55738855D01*
X60575857Y-55737764D01*
X60587046Y-55724087D01*
X60599543Y-55711591D01*
X60600272Y-55707921D01*
X60601301Y-55706665D01*
X60601040Y-55704061D01*
X60603539Y-55691500D01*
X60603539Y-55215310D01*
X60599543Y-55195219D01*
X60571130Y-55166806D01*
X60530948Y-55166806D01*
X60502535Y-55195219D01*
X60498539Y-55215310D01*
X60498539Y-55643988D01*
X60189466Y-55674895D01*
X60217044Y-55619741D01*
X60217738Y-55617205D01*
X60218591Y-55616353D01*
X60220233Y-55608096D01*
X60222455Y-55599984D01*
X60222074Y-55598841D01*
X60222587Y-55596262D01*
X60222587Y-55358167D01*
X60222074Y-55355587D01*
X60222455Y-55354445D01*
X60220233Y-55346332D01*
X60218591Y-55338076D01*
X60217738Y-55337223D01*
X60217044Y-55334688D01*
X60169425Y-55239450D01*
X60164266Y-55232802D01*
X60159591Y-55225806D01*
X60111972Y-55178187D01*
X60104973Y-55173510D01*
X60098327Y-55168352D01*
X60003090Y-55120734D01*
X60000554Y-55120039D01*
X59999702Y-55119187D01*
X59991445Y-55117544D01*
X59983333Y-55115323D01*
X59982190Y-55115703D01*
X59979611Y-55115191D01*
X59741516Y-55115191D01*
X59738936Y-55115703D01*
X59737794Y-55115323D01*
X59729681Y-55117544D01*
X59721425Y-55119187D01*
X59720572Y-55120039D01*
X59718037Y-55120734D01*
X59622799Y-55168353D01*
X59616151Y-55173511D01*
X59609155Y-55178187D01*
X59561536Y-55225806D01*
X59556860Y-55232802D01*
X59551702Y-55239450D01*
X59504082Y-55334688D01*
X59503387Y-55337223D01*
X59502535Y-55338076D01*
X59500892Y-55346332D01*
X59498671Y-55354445D01*
X59499051Y-55355587D01*
X59498539Y-55358167D01*
X59150331Y-55358167D01*
X59150331Y-54544921D01*
X59498671Y-54544921D01*
X59499911Y-54548643D01*
X59498671Y-54552365D01*
X59506113Y-54567250D01*
X59511377Y-54583041D01*
X59514886Y-54584795D01*
X59516641Y-54588305D01*
X59534437Y-54598449D01*
X60534437Y-54931782D01*
X60554760Y-54934344D01*
X60590700Y-54916374D01*
X60603407Y-54878254D01*
X60585437Y-54842314D01*
X60567641Y-54832170D01*
X59717059Y-54548643D01*
X60567641Y-54265116D01*
X60585437Y-54254972D01*
X60603407Y-54219032D01*
X60590700Y-54180912D01*
X60554760Y-54162942D01*
X60534437Y-54165504D01*
X59534437Y-54498837D01*
X59516641Y-54508981D01*
X59514886Y-54512490D01*
X59511377Y-54514245D01*
X59506113Y-54530035D01*
X59498671Y-54544921D01*
X59150331Y-54544921D01*
X59150331Y-53120072D01*
X59879492Y-53120072D01*
X59879492Y-53881976D01*
X59883488Y-53902067D01*
X59911901Y-53930480D01*
X59952083Y-53930480D01*
X59980496Y-53902067D01*
X59984492Y-53881976D01*
X59984492Y-53120072D01*
X59980496Y-53099981D01*
X59952083Y-53071568D01*
X59911901Y-53071568D01*
X59883488Y-53099981D01*
X59879492Y-53120072D01*
X59150331Y-53120072D01*
X59150331Y-52120072D01*
X59498539Y-52120072D01*
X59498539Y-52739119D01*
X59502535Y-52759210D01*
X59530948Y-52787623D01*
X59571130Y-52787623D01*
X59588162Y-52776242D01*
X60150827Y-52213577D01*
X60273844Y-52172572D01*
X60348170Y-52172572D01*
X60424702Y-52210838D01*
X60460272Y-52246408D01*
X60498539Y-52322941D01*
X60498539Y-52536249D01*
X60460272Y-52612782D01*
X60418678Y-52654377D01*
X60407297Y-52671409D01*
X60407297Y-52711591D01*
X60435710Y-52740004D01*
X60475892Y-52740004D01*
X60492924Y-52728623D01*
X60540543Y-52681004D01*
X60545218Y-52674007D01*
X60550377Y-52667360D01*
X60597996Y-52572122D01*
X60598690Y-52569586D01*
X60599543Y-52568734D01*
X60601185Y-52560477D01*
X60603407Y-52552365D01*
X60603026Y-52551222D01*
X60603539Y-52548643D01*
X60603539Y-52310548D01*
X60603026Y-52307968D01*
X60603407Y-52306826D01*
X60601185Y-52298713D01*
X60599543Y-52290457D01*
X60598690Y-52289604D01*
X60597996Y-52287069D01*
X60550377Y-52191831D01*
X60545218Y-52185183D01*
X60540543Y-52178187D01*
X60492924Y-52130568D01*
X60485925Y-52125891D01*
X60479279Y-52120733D01*
X60384042Y-52073115D01*
X60381506Y-52072420D01*
X60380654Y-52071568D01*
X60372397Y-52069925D01*
X60364285Y-52067704D01*
X60363142Y-52068084D01*
X60360563Y-52067572D01*
X60265325Y-52067572D01*
X60257071Y-52069213D01*
X60248723Y-52070266D01*
X60105866Y-52117885D01*
X60103582Y-52119187D01*
X60102377Y-52119187D01*
X60095383Y-52123860D01*
X60088070Y-52128029D01*
X60087530Y-52129107D01*
X60085345Y-52130568D01*
X59603539Y-52612373D01*
X59603539Y-52120072D01*
X59599543Y-52099981D01*
X59571130Y-52071568D01*
X59530948Y-52071568D01*
X59502535Y-52099981D01*
X59498539Y-52120072D01*
X59150331Y-52120072D01*
X59150331Y-51405786D01*
X59498539Y-51405786D01*
X59498539Y-51501024D01*
X59499051Y-51503603D01*
X59498671Y-51504746D01*
X59500892Y-51512858D01*
X59502535Y-51521115D01*
X59503387Y-51521967D01*
X59504082Y-51524503D01*
X59551702Y-51619741D01*
X59556860Y-51626388D01*
X59561536Y-51633385D01*
X59609155Y-51681004D01*
X59616151Y-51685679D01*
X59622799Y-51690838D01*
X59718037Y-51738457D01*
X59723583Y-51739976D01*
X59728783Y-51742432D01*
X59919259Y-51790051D01*
X59925682Y-51790363D01*
X59931992Y-51791619D01*
X60170087Y-51791619D01*
X60176396Y-51790363D01*
X60182820Y-51790051D01*
X60373296Y-51742433D01*
X60378498Y-51739975D01*
X60384042Y-51738457D01*
X60479279Y-51690839D01*
X60485925Y-51685680D01*
X60492924Y-51681004D01*
X60540543Y-51633385D01*
X60545218Y-51626388D01*
X60550377Y-51619741D01*
X60597996Y-51524503D01*
X60598690Y-51521967D01*
X60599543Y-51521115D01*
X60601185Y-51512858D01*
X60603407Y-51504746D01*
X60603026Y-51503603D01*
X60603539Y-51501024D01*
X60603539Y-51405786D01*
X60603026Y-51403206D01*
X60603407Y-51402064D01*
X60601185Y-51393951D01*
X60599543Y-51385695D01*
X60598690Y-51384842D01*
X60597996Y-51382307D01*
X60550377Y-51287069D01*
X60545218Y-51280421D01*
X60540543Y-51273425D01*
X60492924Y-51225806D01*
X60485925Y-51221129D01*
X60479279Y-51215971D01*
X60384042Y-51168353D01*
X60378498Y-51166834D01*
X60373296Y-51164377D01*
X60182820Y-51116759D01*
X60176396Y-51116446D01*
X60170087Y-51115191D01*
X59931992Y-51115191D01*
X59925682Y-51116446D01*
X59919259Y-51116759D01*
X59728783Y-51164378D01*
X59723583Y-51166833D01*
X59718037Y-51168353D01*
X59622799Y-51215972D01*
X59616151Y-51221130D01*
X59609155Y-51225806D01*
X59561536Y-51273425D01*
X59556860Y-51280421D01*
X59551702Y-51287069D01*
X59504082Y-51382307D01*
X59503387Y-51384842D01*
X59502535Y-51385695D01*
X59500892Y-51393951D01*
X59498671Y-51402064D01*
X59499051Y-51403206D01*
X59498539Y-51405786D01*
X59150331Y-51405786D01*
X59150331Y-50544921D01*
X59498671Y-50544921D01*
X59499911Y-50548643D01*
X59498671Y-50552365D01*
X59506113Y-50567250D01*
X59511377Y-50583041D01*
X59514886Y-50584795D01*
X59516641Y-50588305D01*
X59534437Y-50598449D01*
X60534437Y-50931782D01*
X60554760Y-50934344D01*
X60590700Y-50916374D01*
X60603407Y-50878254D01*
X60585437Y-50842314D01*
X60567641Y-50832170D01*
X59717059Y-50548643D01*
X60567641Y-50265116D01*
X60585437Y-50254972D01*
X60603407Y-50219032D01*
X60590700Y-50180912D01*
X60554760Y-50162942D01*
X60534437Y-50165504D01*
X59534437Y-50498837D01*
X59516641Y-50508981D01*
X59514886Y-50512490D01*
X59511377Y-50514245D01*
X59506113Y-50530035D01*
X59498671Y-50544921D01*
X59150331Y-50544921D01*
X59150331Y-50051831D01*
X60761272Y-50051831D01*
X60761272Y-62617015D01*
G37*
D11*
X94727945Y-76234656D02*
X94585088Y-76282275D01*
X94585088Y-76282275D02*
X94346993Y-76282275D01*
X94346993Y-76282275D02*
X94251755Y-76234656D01*
X94251755Y-76234656D02*
X94204136Y-76187036D01*
X94204136Y-76187036D02*
X94156517Y-76091798D01*
X94156517Y-76091798D02*
X94156517Y-75996560D01*
X94156517Y-75996560D02*
X94204136Y-75901322D01*
X94204136Y-75901322D02*
X94251755Y-75853703D01*
X94251755Y-75853703D02*
X94346993Y-75806084D01*
X94346993Y-75806084D02*
X94537469Y-75758465D01*
X94537469Y-75758465D02*
X94632707Y-75710846D01*
X94632707Y-75710846D02*
X94680326Y-75663227D01*
X94680326Y-75663227D02*
X94727945Y-75567989D01*
X94727945Y-75567989D02*
X94727945Y-75472751D01*
X94727945Y-75472751D02*
X94680326Y-75377513D01*
X94680326Y-75377513D02*
X94632707Y-75329894D01*
X94632707Y-75329894D02*
X94537469Y-75282275D01*
X94537469Y-75282275D02*
X94299374Y-75282275D01*
X94299374Y-75282275D02*
X94156517Y-75329894D01*
X93727945Y-76282275D02*
X93727945Y-75282275D01*
X93251755Y-76282275D02*
X93251755Y-75282275D01*
X93251755Y-75282275D02*
X92918422Y-75996560D01*
X92918422Y-75996560D02*
X92585089Y-75282275D01*
X92585089Y-75282275D02*
X92585089Y-76282275D01*
X90775565Y-76187036D02*
X90823184Y-76234656D01*
X90823184Y-76234656D02*
X90966041Y-76282275D01*
X90966041Y-76282275D02*
X91061279Y-76282275D01*
X91061279Y-76282275D02*
X91204136Y-76234656D01*
X91204136Y-76234656D02*
X91299374Y-76139417D01*
X91299374Y-76139417D02*
X91346993Y-76044179D01*
X91346993Y-76044179D02*
X91394612Y-75853703D01*
X91394612Y-75853703D02*
X91394612Y-75710846D01*
X91394612Y-75710846D02*
X91346993Y-75520370D01*
X91346993Y-75520370D02*
X91299374Y-75425132D01*
X91299374Y-75425132D02*
X91204136Y-75329894D01*
X91204136Y-75329894D02*
X91061279Y-75282275D01*
X91061279Y-75282275D02*
X90966041Y-75282275D01*
X90966041Y-75282275D02*
X90823184Y-75329894D01*
X90823184Y-75329894D02*
X90775565Y-75377513D01*
X90394612Y-75996560D02*
X89918422Y-75996560D01*
X90489850Y-76282275D02*
X90156517Y-75282275D01*
X90156517Y-75282275D02*
X89823184Y-76282275D01*
X88918422Y-76282275D02*
X89251755Y-75806084D01*
X89489850Y-76282275D02*
X89489850Y-75282275D01*
X89489850Y-75282275D02*
X89108898Y-75282275D01*
X89108898Y-75282275D02*
X89013660Y-75329894D01*
X89013660Y-75329894D02*
X88966041Y-75377513D01*
X88966041Y-75377513D02*
X88918422Y-75472751D01*
X88918422Y-75472751D02*
X88918422Y-75615608D01*
X88918422Y-75615608D02*
X88966041Y-75710846D01*
X88966041Y-75710846D02*
X89013660Y-75758465D01*
X89013660Y-75758465D02*
X89108898Y-75806084D01*
X89108898Y-75806084D02*
X89489850Y-75806084D01*
X88489850Y-76282275D02*
X88489850Y-75282275D01*
X88489850Y-75282275D02*
X88251755Y-75282275D01*
X88251755Y-75282275D02*
X88108898Y-75329894D01*
X88108898Y-75329894D02*
X88013660Y-75425132D01*
X88013660Y-75425132D02*
X87966041Y-75520370D01*
X87966041Y-75520370D02*
X87918422Y-75710846D01*
X87918422Y-75710846D02*
X87918422Y-75853703D01*
X87918422Y-75853703D02*
X87966041Y-76044179D01*
X87966041Y-76044179D02*
X88013660Y-76139417D01*
X88013660Y-76139417D02*
X88108898Y-76234656D01*
X88108898Y-76234656D02*
X88251755Y-76282275D01*
X88251755Y-76282275D02*
X88489850Y-76282275D01*
X93918421Y-77892219D02*
X93918421Y-76892219D01*
X93918421Y-77368409D02*
X93346993Y-77368409D01*
X93346993Y-77892219D02*
X93346993Y-76892219D01*
X92680326Y-76892219D02*
X92489850Y-76892219D01*
X92489850Y-76892219D02*
X92394612Y-76939838D01*
X92394612Y-76939838D02*
X92299374Y-77035076D01*
X92299374Y-77035076D02*
X92251755Y-77225552D01*
X92251755Y-77225552D02*
X92251755Y-77558885D01*
X92251755Y-77558885D02*
X92299374Y-77749361D01*
X92299374Y-77749361D02*
X92394612Y-77844600D01*
X92394612Y-77844600D02*
X92489850Y-77892219D01*
X92489850Y-77892219D02*
X92680326Y-77892219D01*
X92680326Y-77892219D02*
X92775564Y-77844600D01*
X92775564Y-77844600D02*
X92870802Y-77749361D01*
X92870802Y-77749361D02*
X92918421Y-77558885D01*
X92918421Y-77558885D02*
X92918421Y-77225552D01*
X92918421Y-77225552D02*
X92870802Y-77035076D01*
X92870802Y-77035076D02*
X92775564Y-76939838D01*
X92775564Y-76939838D02*
X92680326Y-76892219D01*
X91346993Y-77892219D02*
X91823183Y-77892219D01*
X91823183Y-77892219D02*
X91823183Y-76892219D01*
X91013659Y-77892219D02*
X91013659Y-76892219D01*
X91013659Y-76892219D02*
X90775564Y-76892219D01*
X90775564Y-76892219D02*
X90632707Y-76939838D01*
X90632707Y-76939838D02*
X90537469Y-77035076D01*
X90537469Y-77035076D02*
X90489850Y-77130314D01*
X90489850Y-77130314D02*
X90442231Y-77320790D01*
X90442231Y-77320790D02*
X90442231Y-77463647D01*
X90442231Y-77463647D02*
X90489850Y-77654123D01*
X90489850Y-77654123D02*
X90537469Y-77749361D01*
X90537469Y-77749361D02*
X90632707Y-77844600D01*
X90632707Y-77844600D02*
X90775564Y-77892219D01*
X90775564Y-77892219D02*
X91013659Y-77892219D01*
X90013659Y-77368409D02*
X89680326Y-77368409D01*
X89537469Y-77892219D02*
X90013659Y-77892219D01*
X90013659Y-77892219D02*
X90013659Y-76892219D01*
X90013659Y-76892219D02*
X89537469Y-76892219D01*
X88537469Y-77892219D02*
X88870802Y-77416028D01*
X89108897Y-77892219D02*
X89108897Y-76892219D01*
X89108897Y-76892219D02*
X88727945Y-76892219D01*
X88727945Y-76892219D02*
X88632707Y-76939838D01*
X88632707Y-76939838D02*
X88585088Y-76987457D01*
X88585088Y-76987457D02*
X88537469Y-77082695D01*
X88537469Y-77082695D02*
X88537469Y-77225552D01*
X88537469Y-77225552D02*
X88585088Y-77320790D01*
X88585088Y-77320790D02*
X88632707Y-77368409D01*
X88632707Y-77368409D02*
X88727945Y-77416028D01*
X88727945Y-77416028D02*
X89108897Y-77416028D01*
D12*
X72571370Y-71036652D02*
X72095179Y-70703319D01*
X72571370Y-70465224D02*
X71571370Y-70465224D01*
X71571370Y-70465224D02*
X71571370Y-70846176D01*
X71571370Y-70846176D02*
X71618989Y-70941414D01*
X71618989Y-70941414D02*
X71666608Y-70989033D01*
X71666608Y-70989033D02*
X71761846Y-71036652D01*
X71761846Y-71036652D02*
X71904703Y-71036652D01*
X71904703Y-71036652D02*
X71999941Y-70989033D01*
X71999941Y-70989033D02*
X72047560Y-70941414D01*
X72047560Y-70941414D02*
X72095179Y-70846176D01*
X72095179Y-70846176D02*
X72095179Y-70465224D01*
X71666608Y-71417605D02*
X71618989Y-71465224D01*
X71618989Y-71465224D02*
X71571370Y-71560462D01*
X71571370Y-71560462D02*
X71571370Y-71798557D01*
X71571370Y-71798557D02*
X71618989Y-71893795D01*
X71618989Y-71893795D02*
X71666608Y-71941414D01*
X71666608Y-71941414D02*
X71761846Y-71989033D01*
X71761846Y-71989033D02*
X71857084Y-71989033D01*
X71857084Y-71989033D02*
X71999941Y-71941414D01*
X71999941Y-71941414D02*
X72571370Y-71369986D01*
X72571370Y-71369986D02*
X72571370Y-71989033D01*
X90884635Y-40667489D02*
X90960825Y-40629394D01*
X90960825Y-40629394D02*
X91075111Y-40629394D01*
X91075111Y-40629394D02*
X91189397Y-40667489D01*
X91189397Y-40667489D02*
X91265587Y-40743679D01*
X91265587Y-40743679D02*
X91303682Y-40819870D01*
X91303682Y-40819870D02*
X91341778Y-40972251D01*
X91341778Y-40972251D02*
X91341778Y-41086537D01*
X91341778Y-41086537D02*
X91303682Y-41238918D01*
X91303682Y-41238918D02*
X91265587Y-41315108D01*
X91265587Y-41315108D02*
X91189397Y-41391299D01*
X91189397Y-41391299D02*
X91075111Y-41429394D01*
X91075111Y-41429394D02*
X90998920Y-41429394D01*
X90998920Y-41429394D02*
X90884635Y-41391299D01*
X90884635Y-41391299D02*
X90846539Y-41353203D01*
X90846539Y-41353203D02*
X90846539Y-41086537D01*
X90846539Y-41086537D02*
X90998920Y-41086537D01*
X90503682Y-41429394D02*
X90503682Y-40629394D01*
X90503682Y-40629394D02*
X90198920Y-40629394D01*
X90198920Y-40629394D02*
X90122730Y-40667489D01*
X90122730Y-40667489D02*
X90084635Y-40705584D01*
X90084635Y-40705584D02*
X90046539Y-40781775D01*
X90046539Y-40781775D02*
X90046539Y-40896060D01*
X90046539Y-40896060D02*
X90084635Y-40972251D01*
X90084635Y-40972251D02*
X90122730Y-41010346D01*
X90122730Y-41010346D02*
X90198920Y-41048441D01*
X90198920Y-41048441D02*
X90503682Y-41048441D01*
X89741778Y-41391299D02*
X89627492Y-41429394D01*
X89627492Y-41429394D02*
X89437016Y-41429394D01*
X89437016Y-41429394D02*
X89360825Y-41391299D01*
X89360825Y-41391299D02*
X89322730Y-41353203D01*
X89322730Y-41353203D02*
X89284635Y-41277013D01*
X89284635Y-41277013D02*
X89284635Y-41200822D01*
X89284635Y-41200822D02*
X89322730Y-41124632D01*
X89322730Y-41124632D02*
X89360825Y-41086537D01*
X89360825Y-41086537D02*
X89437016Y-41048441D01*
X89437016Y-41048441D02*
X89589397Y-41010346D01*
X89589397Y-41010346D02*
X89665587Y-40972251D01*
X89665587Y-40972251D02*
X89703682Y-40934156D01*
X89703682Y-40934156D02*
X89741778Y-40857965D01*
X89741778Y-40857965D02*
X89741778Y-40781775D01*
X89741778Y-40781775D02*
X89703682Y-40705584D01*
X89703682Y-40705584D02*
X89665587Y-40667489D01*
X89665587Y-40667489D02*
X89589397Y-40629394D01*
X89589397Y-40629394D02*
X89398920Y-40629394D01*
X89398920Y-40629394D02*
X89284635Y-40667489D01*
X88522730Y-41429394D02*
X88979873Y-41429394D01*
X88751301Y-41429394D02*
X88751301Y-40629394D01*
X88751301Y-40629394D02*
X88827492Y-40743679D01*
X88827492Y-40743679D02*
X88903682Y-40819870D01*
X88903682Y-40819870D02*
X88979873Y-40857965D01*
X70244721Y-72823332D02*
X69768530Y-72489999D01*
X70244721Y-72251904D02*
X69244721Y-72251904D01*
X69244721Y-72251904D02*
X69244721Y-72632856D01*
X69244721Y-72632856D02*
X69292340Y-72728094D01*
X69292340Y-72728094D02*
X69339959Y-72775713D01*
X69339959Y-72775713D02*
X69435197Y-72823332D01*
X69435197Y-72823332D02*
X69578054Y-72823332D01*
X69578054Y-72823332D02*
X69673292Y-72775713D01*
X69673292Y-72775713D02*
X69720911Y-72728094D01*
X69720911Y-72728094D02*
X69768530Y-72632856D01*
X69768530Y-72632856D02*
X69768530Y-72251904D01*
X69578054Y-73680475D02*
X70244721Y-73680475D01*
X69197102Y-73442380D02*
X69911387Y-73204285D01*
X69911387Y-73204285D02*
X69911387Y-73823332D01*
X69037428Y-72799372D02*
X68561237Y-72466039D01*
X69037428Y-72227944D02*
X68037428Y-72227944D01*
X68037428Y-72227944D02*
X68037428Y-72608896D01*
X68037428Y-72608896D02*
X68085047Y-72704134D01*
X68085047Y-72704134D02*
X68132666Y-72751753D01*
X68132666Y-72751753D02*
X68227904Y-72799372D01*
X68227904Y-72799372D02*
X68370761Y-72799372D01*
X68370761Y-72799372D02*
X68465999Y-72751753D01*
X68465999Y-72751753D02*
X68513618Y-72704134D01*
X68513618Y-72704134D02*
X68561237Y-72608896D01*
X68561237Y-72608896D02*
X68561237Y-72227944D01*
X68037428Y-73132706D02*
X68037428Y-73751753D01*
X68037428Y-73751753D02*
X68418380Y-73418420D01*
X68418380Y-73418420D02*
X68418380Y-73561277D01*
X68418380Y-73561277D02*
X68465999Y-73656515D01*
X68465999Y-73656515D02*
X68513618Y-73704134D01*
X68513618Y-73704134D02*
X68608856Y-73751753D01*
X68608856Y-73751753D02*
X68846951Y-73751753D01*
X68846951Y-73751753D02*
X68942189Y-73704134D01*
X68942189Y-73704134D02*
X68989809Y-73656515D01*
X68989809Y-73656515D02*
X69037428Y-73561277D01*
X69037428Y-73561277D02*
X69037428Y-73275563D01*
X69037428Y-73275563D02*
X68989809Y-73180325D01*
X68989809Y-73180325D02*
X68942189Y-73132706D01*
X96166666Y-42684580D02*
X96214285Y-42732200D01*
X96214285Y-42732200D02*
X96357142Y-42779819D01*
X96357142Y-42779819D02*
X96452380Y-42779819D01*
X96452380Y-42779819D02*
X96595237Y-42732200D01*
X96595237Y-42732200D02*
X96690475Y-42636961D01*
X96690475Y-42636961D02*
X96738094Y-42541723D01*
X96738094Y-42541723D02*
X96785713Y-42351247D01*
X96785713Y-42351247D02*
X96785713Y-42208390D01*
X96785713Y-42208390D02*
X96738094Y-42017914D01*
X96738094Y-42017914D02*
X96690475Y-41922676D01*
X96690475Y-41922676D02*
X96595237Y-41827438D01*
X96595237Y-41827438D02*
X96452380Y-41779819D01*
X96452380Y-41779819D02*
X96357142Y-41779819D01*
X96357142Y-41779819D02*
X96214285Y-41827438D01*
X96214285Y-41827438D02*
X96166666Y-41875057D01*
X95690475Y-42779819D02*
X95499999Y-42779819D01*
X95499999Y-42779819D02*
X95404761Y-42732200D01*
X95404761Y-42732200D02*
X95357142Y-42684580D01*
X95357142Y-42684580D02*
X95261904Y-42541723D01*
X95261904Y-42541723D02*
X95214285Y-42351247D01*
X95214285Y-42351247D02*
X95214285Y-41970295D01*
X95214285Y-41970295D02*
X95261904Y-41875057D01*
X95261904Y-41875057D02*
X95309523Y-41827438D01*
X95309523Y-41827438D02*
X95404761Y-41779819D01*
X95404761Y-41779819D02*
X95595237Y-41779819D01*
X95595237Y-41779819D02*
X95690475Y-41827438D01*
X95690475Y-41827438D02*
X95738094Y-41875057D01*
X95738094Y-41875057D02*
X95785713Y-41970295D01*
X95785713Y-41970295D02*
X95785713Y-42208390D01*
X95785713Y-42208390D02*
X95738094Y-42303628D01*
X95738094Y-42303628D02*
X95690475Y-42351247D01*
X95690475Y-42351247D02*
X95595237Y-42398866D01*
X95595237Y-42398866D02*
X95404761Y-42398866D01*
X95404761Y-42398866D02*
X95309523Y-42351247D01*
X95309523Y-42351247D02*
X95261904Y-42303628D01*
X95261904Y-42303628D02*
X95214285Y-42208390D01*
X91704365Y-51084864D02*
X91751984Y-51132484D01*
X91751984Y-51132484D02*
X91894841Y-51180103D01*
X91894841Y-51180103D02*
X91990079Y-51180103D01*
X91990079Y-51180103D02*
X92132936Y-51132484D01*
X92132936Y-51132484D02*
X92228174Y-51037245D01*
X92228174Y-51037245D02*
X92275793Y-50942007D01*
X92275793Y-50942007D02*
X92323412Y-50751531D01*
X92323412Y-50751531D02*
X92323412Y-50608674D01*
X92323412Y-50608674D02*
X92275793Y-50418198D01*
X92275793Y-50418198D02*
X92228174Y-50322960D01*
X92228174Y-50322960D02*
X92132936Y-50227722D01*
X92132936Y-50227722D02*
X91990079Y-50180103D01*
X91990079Y-50180103D02*
X91894841Y-50180103D01*
X91894841Y-50180103D02*
X91751984Y-50227722D01*
X91751984Y-50227722D02*
X91704365Y-50275341D01*
X91323412Y-50275341D02*
X91275793Y-50227722D01*
X91275793Y-50227722D02*
X91180555Y-50180103D01*
X91180555Y-50180103D02*
X90942460Y-50180103D01*
X90942460Y-50180103D02*
X90847222Y-50227722D01*
X90847222Y-50227722D02*
X90799603Y-50275341D01*
X90799603Y-50275341D02*
X90751984Y-50370579D01*
X90751984Y-50370579D02*
X90751984Y-50465817D01*
X90751984Y-50465817D02*
X90799603Y-50608674D01*
X90799603Y-50608674D02*
X91371031Y-51180103D01*
X91371031Y-51180103D02*
X90751984Y-51180103D01*
X61334524Y-75275390D02*
X61410714Y-75237295D01*
X61410714Y-75237295D02*
X61525000Y-75237295D01*
X61525000Y-75237295D02*
X61639286Y-75275390D01*
X61639286Y-75275390D02*
X61715476Y-75351580D01*
X61715476Y-75351580D02*
X61753571Y-75427771D01*
X61753571Y-75427771D02*
X61791667Y-75580152D01*
X61791667Y-75580152D02*
X61791667Y-75694438D01*
X61791667Y-75694438D02*
X61753571Y-75846819D01*
X61753571Y-75846819D02*
X61715476Y-75923009D01*
X61715476Y-75923009D02*
X61639286Y-75999200D01*
X61639286Y-75999200D02*
X61525000Y-76037295D01*
X61525000Y-76037295D02*
X61448809Y-76037295D01*
X61448809Y-76037295D02*
X61334524Y-75999200D01*
X61334524Y-75999200D02*
X61296428Y-75961104D01*
X61296428Y-75961104D02*
X61296428Y-75694438D01*
X61296428Y-75694438D02*
X61448809Y-75694438D01*
X60991667Y-75999200D02*
X60877381Y-76037295D01*
X60877381Y-76037295D02*
X60686905Y-76037295D01*
X60686905Y-76037295D02*
X60610714Y-75999200D01*
X60610714Y-75999200D02*
X60572619Y-75961104D01*
X60572619Y-75961104D02*
X60534524Y-75884914D01*
X60534524Y-75884914D02*
X60534524Y-75808723D01*
X60534524Y-75808723D02*
X60572619Y-75732533D01*
X60572619Y-75732533D02*
X60610714Y-75694438D01*
X60610714Y-75694438D02*
X60686905Y-75656342D01*
X60686905Y-75656342D02*
X60839286Y-75618247D01*
X60839286Y-75618247D02*
X60915476Y-75580152D01*
X60915476Y-75580152D02*
X60953571Y-75542057D01*
X60953571Y-75542057D02*
X60991667Y-75465866D01*
X60991667Y-75465866D02*
X60991667Y-75389676D01*
X60991667Y-75389676D02*
X60953571Y-75313485D01*
X60953571Y-75313485D02*
X60915476Y-75275390D01*
X60915476Y-75275390D02*
X60839286Y-75237295D01*
X60839286Y-75237295D02*
X60648809Y-75237295D01*
X60648809Y-75237295D02*
X60534524Y-75275390D01*
X60191666Y-76037295D02*
X60191666Y-75237295D01*
X60191666Y-75237295D02*
X59925000Y-75808723D01*
X59925000Y-75808723D02*
X59658333Y-75237295D01*
X59658333Y-75237295D02*
X59658333Y-76037295D01*
X58858333Y-76037295D02*
X59315476Y-76037295D01*
X59086904Y-76037295D02*
X59086904Y-75237295D01*
X59086904Y-75237295D02*
X59163095Y-75351580D01*
X59163095Y-75351580D02*
X59239285Y-75427771D01*
X59239285Y-75427771D02*
X59315476Y-75465866D01*
X93441335Y-53562438D02*
X93488954Y-53610058D01*
X93488954Y-53610058D02*
X93631811Y-53657677D01*
X93631811Y-53657677D02*
X93727049Y-53657677D01*
X93727049Y-53657677D02*
X93869906Y-53610058D01*
X93869906Y-53610058D02*
X93965144Y-53514819D01*
X93965144Y-53514819D02*
X94012763Y-53419581D01*
X94012763Y-53419581D02*
X94060382Y-53229105D01*
X94060382Y-53229105D02*
X94060382Y-53086248D01*
X94060382Y-53086248D02*
X94012763Y-52895772D01*
X94012763Y-52895772D02*
X93965144Y-52800534D01*
X93965144Y-52800534D02*
X93869906Y-52705296D01*
X93869906Y-52705296D02*
X93727049Y-52657677D01*
X93727049Y-52657677D02*
X93631811Y-52657677D01*
X93631811Y-52657677D02*
X93488954Y-52705296D01*
X93488954Y-52705296D02*
X93441335Y-52752915D01*
X93108001Y-52657677D02*
X92488954Y-52657677D01*
X92488954Y-52657677D02*
X92822287Y-53038629D01*
X92822287Y-53038629D02*
X92679430Y-53038629D01*
X92679430Y-53038629D02*
X92584192Y-53086248D01*
X92584192Y-53086248D02*
X92536573Y-53133867D01*
X92536573Y-53133867D02*
X92488954Y-53229105D01*
X92488954Y-53229105D02*
X92488954Y-53467200D01*
X92488954Y-53467200D02*
X92536573Y-53562438D01*
X92536573Y-53562438D02*
X92584192Y-53610058D01*
X92584192Y-53610058D02*
X92679430Y-53657677D01*
X92679430Y-53657677D02*
X92965144Y-53657677D01*
X92965144Y-53657677D02*
X93060382Y-53610058D01*
X93060382Y-53610058D02*
X93108001Y-53562438D01*
X64457414Y-78954041D02*
X64505033Y-79001661D01*
X64505033Y-79001661D02*
X64647890Y-79049280D01*
X64647890Y-79049280D02*
X64743128Y-79049280D01*
X64743128Y-79049280D02*
X64885985Y-79001661D01*
X64885985Y-79001661D02*
X64981223Y-78906422D01*
X64981223Y-78906422D02*
X65028842Y-78811184D01*
X65028842Y-78811184D02*
X65076461Y-78620708D01*
X65076461Y-78620708D02*
X65076461Y-78477851D01*
X65076461Y-78477851D02*
X65028842Y-78287375D01*
X65028842Y-78287375D02*
X64981223Y-78192137D01*
X64981223Y-78192137D02*
X64885985Y-78096899D01*
X64885985Y-78096899D02*
X64743128Y-78049280D01*
X64743128Y-78049280D02*
X64647890Y-78049280D01*
X64647890Y-78049280D02*
X64505033Y-78096899D01*
X64505033Y-78096899D02*
X64457414Y-78144518D01*
X63885985Y-78477851D02*
X63981223Y-78430232D01*
X63981223Y-78430232D02*
X64028842Y-78382613D01*
X64028842Y-78382613D02*
X64076461Y-78287375D01*
X64076461Y-78287375D02*
X64076461Y-78239756D01*
X64076461Y-78239756D02*
X64028842Y-78144518D01*
X64028842Y-78144518D02*
X63981223Y-78096899D01*
X63981223Y-78096899D02*
X63885985Y-78049280D01*
X63885985Y-78049280D02*
X63695509Y-78049280D01*
X63695509Y-78049280D02*
X63600271Y-78096899D01*
X63600271Y-78096899D02*
X63552652Y-78144518D01*
X63552652Y-78144518D02*
X63505033Y-78239756D01*
X63505033Y-78239756D02*
X63505033Y-78287375D01*
X63505033Y-78287375D02*
X63552652Y-78382613D01*
X63552652Y-78382613D02*
X63600271Y-78430232D01*
X63600271Y-78430232D02*
X63695509Y-78477851D01*
X63695509Y-78477851D02*
X63885985Y-78477851D01*
X63885985Y-78477851D02*
X63981223Y-78525470D01*
X63981223Y-78525470D02*
X64028842Y-78573089D01*
X64028842Y-78573089D02*
X64076461Y-78668327D01*
X64076461Y-78668327D02*
X64076461Y-78858803D01*
X64076461Y-78858803D02*
X64028842Y-78954041D01*
X64028842Y-78954041D02*
X63981223Y-79001661D01*
X63981223Y-79001661D02*
X63885985Y-79049280D01*
X63885985Y-79049280D02*
X63695509Y-79049280D01*
X63695509Y-79049280D02*
X63600271Y-79001661D01*
X63600271Y-79001661D02*
X63552652Y-78954041D01*
X63552652Y-78954041D02*
X63505033Y-78858803D01*
X63505033Y-78858803D02*
X63505033Y-78668327D01*
X63505033Y-78668327D02*
X63552652Y-78573089D01*
X63552652Y-78573089D02*
X63600271Y-78525470D01*
X63600271Y-78525470D02*
X63695509Y-78477851D01*
X89641666Y-64684580D02*
X89689285Y-64732200D01*
X89689285Y-64732200D02*
X89832142Y-64779819D01*
X89832142Y-64779819D02*
X89927380Y-64779819D01*
X89927380Y-64779819D02*
X90070237Y-64732200D01*
X90070237Y-64732200D02*
X90165475Y-64636961D01*
X90165475Y-64636961D02*
X90213094Y-64541723D01*
X90213094Y-64541723D02*
X90260713Y-64351247D01*
X90260713Y-64351247D02*
X90260713Y-64208390D01*
X90260713Y-64208390D02*
X90213094Y-64017914D01*
X90213094Y-64017914D02*
X90165475Y-63922676D01*
X90165475Y-63922676D02*
X90070237Y-63827438D01*
X90070237Y-63827438D02*
X89927380Y-63779819D01*
X89927380Y-63779819D02*
X89832142Y-63779819D01*
X89832142Y-63779819D02*
X89689285Y-63827438D01*
X89689285Y-63827438D02*
X89641666Y-63875057D01*
X88736904Y-63779819D02*
X89213094Y-63779819D01*
X89213094Y-63779819D02*
X89260713Y-64256009D01*
X89260713Y-64256009D02*
X89213094Y-64208390D01*
X89213094Y-64208390D02*
X89117856Y-64160771D01*
X89117856Y-64160771D02*
X88879761Y-64160771D01*
X88879761Y-64160771D02*
X88784523Y-64208390D01*
X88784523Y-64208390D02*
X88736904Y-64256009D01*
X88736904Y-64256009D02*
X88689285Y-64351247D01*
X88689285Y-64351247D02*
X88689285Y-64589342D01*
X88689285Y-64589342D02*
X88736904Y-64684580D01*
X88736904Y-64684580D02*
X88784523Y-64732200D01*
X88784523Y-64732200D02*
X88879761Y-64779819D01*
X88879761Y-64779819D02*
X89117856Y-64779819D01*
X89117856Y-64779819D02*
X89213094Y-64732200D01*
X89213094Y-64732200D02*
X89260713Y-64684580D01*
X90141666Y-43564866D02*
X90141666Y-44698200D01*
X90141666Y-44698200D02*
X90075000Y-44831533D01*
X90075000Y-44831533D02*
X90008333Y-44898200D01*
X90008333Y-44898200D02*
X89875000Y-44964866D01*
X89875000Y-44964866D02*
X89608333Y-44964866D01*
X89608333Y-44964866D02*
X89475000Y-44898200D01*
X89475000Y-44898200D02*
X89408333Y-44831533D01*
X89408333Y-44831533D02*
X89341666Y-44698200D01*
X89341666Y-44698200D02*
X89341666Y-43564866D01*
X87941666Y-44964866D02*
X88741666Y-44964866D01*
X88341666Y-44964866D02*
X88341666Y-43564866D01*
X88341666Y-43564866D02*
X88474999Y-43764866D01*
X88474999Y-43764866D02*
X88608333Y-43898200D01*
X88608333Y-43898200D02*
X88741666Y-43964866D01*
X89107917Y-73223802D02*
X89107917Y-73938087D01*
X89107917Y-73938087D02*
X89155536Y-74080944D01*
X89155536Y-74080944D02*
X89250774Y-74176183D01*
X89250774Y-74176183D02*
X89393631Y-74223802D01*
X89393631Y-74223802D02*
X89488869Y-74223802D01*
X88726964Y-73223802D02*
X88107917Y-73223802D01*
X88107917Y-73223802D02*
X88441250Y-73604754D01*
X88441250Y-73604754D02*
X88298393Y-73604754D01*
X88298393Y-73604754D02*
X88203155Y-73652373D01*
X88203155Y-73652373D02*
X88155536Y-73699992D01*
X88155536Y-73699992D02*
X88107917Y-73795230D01*
X88107917Y-73795230D02*
X88107917Y-74033325D01*
X88107917Y-74033325D02*
X88155536Y-74128563D01*
X88155536Y-74128563D02*
X88203155Y-74176183D01*
X88203155Y-74176183D02*
X88298393Y-74223802D01*
X88298393Y-74223802D02*
X88584107Y-74223802D01*
X88584107Y-74223802D02*
X88679345Y-74176183D01*
X88679345Y-74176183D02*
X88726964Y-74128563D01*
X74720237Y-71028426D02*
X74767857Y-70980807D01*
X74767857Y-70980807D02*
X74815476Y-70837950D01*
X74815476Y-70837950D02*
X74815476Y-70742712D01*
X74815476Y-70742712D02*
X74767857Y-70599855D01*
X74767857Y-70599855D02*
X74672618Y-70504617D01*
X74672618Y-70504617D02*
X74577380Y-70456998D01*
X74577380Y-70456998D02*
X74386904Y-70409379D01*
X74386904Y-70409379D02*
X74244047Y-70409379D01*
X74244047Y-70409379D02*
X74053571Y-70456998D01*
X74053571Y-70456998D02*
X73958333Y-70504617D01*
X73958333Y-70504617D02*
X73863095Y-70599855D01*
X73863095Y-70599855D02*
X73815476Y-70742712D01*
X73815476Y-70742712D02*
X73815476Y-70837950D01*
X73815476Y-70837950D02*
X73863095Y-70980807D01*
X73863095Y-70980807D02*
X73910714Y-71028426D01*
X73815476Y-71885569D02*
X73815476Y-71695093D01*
X73815476Y-71695093D02*
X73863095Y-71599855D01*
X73863095Y-71599855D02*
X73910714Y-71552236D01*
X73910714Y-71552236D02*
X74053571Y-71456998D01*
X74053571Y-71456998D02*
X74244047Y-71409379D01*
X74244047Y-71409379D02*
X74624999Y-71409379D01*
X74624999Y-71409379D02*
X74720237Y-71456998D01*
X74720237Y-71456998D02*
X74767857Y-71504617D01*
X74767857Y-71504617D02*
X74815476Y-71599855D01*
X74815476Y-71599855D02*
X74815476Y-71790331D01*
X74815476Y-71790331D02*
X74767857Y-71885569D01*
X74767857Y-71885569D02*
X74720237Y-71933188D01*
X74720237Y-71933188D02*
X74624999Y-71980807D01*
X74624999Y-71980807D02*
X74386904Y-71980807D01*
X74386904Y-71980807D02*
X74291666Y-71933188D01*
X74291666Y-71933188D02*
X74244047Y-71885569D01*
X74244047Y-71885569D02*
X74196428Y-71790331D01*
X74196428Y-71790331D02*
X74196428Y-71599855D01*
X74196428Y-71599855D02*
X74244047Y-71504617D01*
X74244047Y-71504617D02*
X74291666Y-71456998D01*
X74291666Y-71456998D02*
X74386904Y-71409379D01*
X94072063Y-55346788D02*
X94072063Y-54346788D01*
X94072063Y-54346788D02*
X93833968Y-54346788D01*
X93833968Y-54346788D02*
X93691111Y-54394407D01*
X93691111Y-54394407D02*
X93595873Y-54489645D01*
X93595873Y-54489645D02*
X93548254Y-54584883D01*
X93548254Y-54584883D02*
X93500635Y-54775359D01*
X93500635Y-54775359D02*
X93500635Y-54918216D01*
X93500635Y-54918216D02*
X93548254Y-55108692D01*
X93548254Y-55108692D02*
X93595873Y-55203930D01*
X93595873Y-55203930D02*
X93691111Y-55299169D01*
X93691111Y-55299169D02*
X93833968Y-55346788D01*
X93833968Y-55346788D02*
X94072063Y-55346788D01*
X92548254Y-55346788D02*
X93119682Y-55346788D01*
X92833968Y-55346788D02*
X92833968Y-54346788D01*
X92833968Y-54346788D02*
X92929206Y-54489645D01*
X92929206Y-54489645D02*
X93024444Y-54584883D01*
X93024444Y-54584883D02*
X93119682Y-54632502D01*
X86841666Y-71454819D02*
X87174999Y-70978628D01*
X87413094Y-71454819D02*
X87413094Y-70454819D01*
X87413094Y-70454819D02*
X87032142Y-70454819D01*
X87032142Y-70454819D02*
X86936904Y-70502438D01*
X86936904Y-70502438D02*
X86889285Y-70550057D01*
X86889285Y-70550057D02*
X86841666Y-70645295D01*
X86841666Y-70645295D02*
X86841666Y-70788152D01*
X86841666Y-70788152D02*
X86889285Y-70883390D01*
X86889285Y-70883390D02*
X86936904Y-70931009D01*
X86936904Y-70931009D02*
X87032142Y-70978628D01*
X87032142Y-70978628D02*
X87413094Y-70978628D01*
X85889285Y-71454819D02*
X86460713Y-71454819D01*
X86174999Y-71454819D02*
X86174999Y-70454819D01*
X86174999Y-70454819D02*
X86270237Y-70597676D01*
X86270237Y-70597676D02*
X86365475Y-70692914D01*
X86365475Y-70692914D02*
X86460713Y-70740533D01*
X68851377Y-77250967D02*
X68851377Y-78060490D01*
X68851377Y-78060490D02*
X68803758Y-78155728D01*
X68803758Y-78155728D02*
X68756139Y-78203348D01*
X68756139Y-78203348D02*
X68660901Y-78250967D01*
X68660901Y-78250967D02*
X68470425Y-78250967D01*
X68470425Y-78250967D02*
X68375187Y-78203348D01*
X68375187Y-78203348D02*
X68327568Y-78155728D01*
X68327568Y-78155728D02*
X68279949Y-78060490D01*
X68279949Y-78060490D02*
X68279949Y-77250967D01*
X67898996Y-77250967D02*
X67279949Y-77250967D01*
X67279949Y-77250967D02*
X67613282Y-77631919D01*
X67613282Y-77631919D02*
X67470425Y-77631919D01*
X67470425Y-77631919D02*
X67375187Y-77679538D01*
X67375187Y-77679538D02*
X67327568Y-77727157D01*
X67327568Y-77727157D02*
X67279949Y-77822395D01*
X67279949Y-77822395D02*
X67279949Y-78060490D01*
X67279949Y-78060490D02*
X67327568Y-78155728D01*
X67327568Y-78155728D02*
X67375187Y-78203348D01*
X67375187Y-78203348D02*
X67470425Y-78250967D01*
X67470425Y-78250967D02*
X67756139Y-78250967D01*
X67756139Y-78250967D02*
X67851377Y-78203348D01*
X67851377Y-78203348D02*
X67898996Y-78155728D01*
D13*
G36*
X58927522Y-47931203D02*
G01*
X55431960Y-47931203D01*
X55431960Y-47080007D01*
X58927522Y-47080007D01*
X58927522Y-47931203D01*
G37*
G36*
X56463484Y-45349284D02*
G01*
X56469444Y-45349738D01*
X56475318Y-45350484D01*
X56481098Y-45351516D01*
X56486776Y-45352827D01*
X56492346Y-45354409D01*
X56497799Y-45356254D01*
X56503129Y-45358356D01*
X56508329Y-45360706D01*
X56513389Y-45363299D01*
X56518305Y-45366125D01*
X56523067Y-45369178D01*
X56527669Y-45372450D01*
X56532103Y-45375935D01*
X56536362Y-45379624D01*
X56540438Y-45383511D01*
X56544324Y-45387587D01*
X56548014Y-45391846D01*
X56551498Y-45396280D01*
X56554771Y-45400882D01*
X56557824Y-45405644D01*
X56560650Y-45410559D01*
X56563242Y-45415620D01*
X56565593Y-45420819D01*
X56567694Y-45426149D01*
X56569540Y-45431603D01*
X56571121Y-45437172D01*
X56572432Y-45442851D01*
X56573464Y-45448630D01*
X56574211Y-45454504D01*
X56574664Y-45460465D01*
X56574817Y-45466504D01*
X56574664Y-45472544D01*
X56574211Y-45478504D01*
X56573464Y-45484378D01*
X56572432Y-45490157D01*
X56571121Y-45495835D01*
X56569540Y-45501405D01*
X56567694Y-45506858D01*
X56565593Y-45512188D01*
X56563242Y-45517386D01*
X56560650Y-45522447D01*
X56557824Y-45527361D01*
X56554771Y-45532123D01*
X56551498Y-45536725D01*
X56548014Y-45541158D01*
X56544324Y-45545417D01*
X56540438Y-45549492D01*
X56536362Y-45553378D01*
X56532103Y-45557067D01*
X56527669Y-45560551D01*
X56523067Y-45563823D01*
X56518305Y-45566876D01*
X56513389Y-45569702D01*
X56508329Y-45572293D01*
X56503129Y-45574644D01*
X56497799Y-45576745D01*
X56492346Y-45578590D01*
X56486776Y-45580172D01*
X56481098Y-45581482D01*
X56475318Y-45582514D01*
X56469444Y-45583260D01*
X56463484Y-45583714D01*
X56457444Y-45583866D01*
X56451405Y-45583714D01*
X56445444Y-45583260D01*
X56439570Y-45582514D01*
X56433791Y-45581482D01*
X56428112Y-45580172D01*
X56422543Y-45578590D01*
X56417089Y-45576745D01*
X56411759Y-45574644D01*
X56406560Y-45572293D01*
X56401499Y-45569702D01*
X56396584Y-45566876D01*
X56391822Y-45563823D01*
X56387220Y-45560551D01*
X56382786Y-45557067D01*
X56378527Y-45553378D01*
X56374451Y-45549492D01*
X56370564Y-45545417D01*
X56366875Y-45541158D01*
X56363391Y-45536725D01*
X56360118Y-45532123D01*
X56357065Y-45527362D01*
X56354239Y-45522447D01*
X56351647Y-45517386D01*
X56349296Y-45512188D01*
X56347194Y-45506858D01*
X56345349Y-45501405D01*
X56343767Y-45495835D01*
X56342457Y-45490157D01*
X56341424Y-45484378D01*
X56340678Y-45478504D01*
X56340225Y-45472544D01*
X56340072Y-45466504D01*
X56340225Y-45460464D01*
X56340678Y-45454504D01*
X56341424Y-45448630D01*
X56342457Y-45442850D01*
X56343767Y-45437172D01*
X56345349Y-45431602D01*
X56347194Y-45426149D01*
X56349296Y-45420819D01*
X56351647Y-45415620D01*
X56354239Y-45410559D01*
X56357065Y-45405644D01*
X56360118Y-45400882D01*
X56363391Y-45396280D01*
X56366875Y-45391846D01*
X56370564Y-45387587D01*
X56374451Y-45383510D01*
X56378527Y-45379624D01*
X56382786Y-45375935D01*
X56387220Y-45372450D01*
X56391822Y-45369178D01*
X56396584Y-45366125D01*
X56401499Y-45363298D01*
X56406560Y-45360706D01*
X56411759Y-45358356D01*
X56417089Y-45356254D01*
X56422543Y-45354409D01*
X56428112Y-45352827D01*
X56433791Y-45351516D01*
X56439570Y-45350484D01*
X56445444Y-45349738D01*
X56451405Y-45349284D01*
X56457444Y-45349132D01*
X56463484Y-45349284D01*
G37*
G36*
X58010025Y-42521225D02*
G01*
X58026544Y-42533926D01*
X58042308Y-42547181D01*
X58057283Y-42561003D01*
X58071435Y-42575401D01*
X58084730Y-42590388D01*
X58097134Y-42605976D01*
X58108612Y-42622175D01*
X58119131Y-42638996D01*
X58128656Y-42656452D01*
X58137154Y-42674552D01*
X58138548Y-42677827D01*
X58139858Y-42681011D01*
X58141088Y-42684104D01*
X58142239Y-42687103D01*
X58143313Y-42690004D01*
X58144314Y-42692806D01*
X58145243Y-42695505D01*
X58146099Y-42698089D01*
X58146102Y-42698099D01*
X58273981Y-42698099D01*
X58273981Y-42818749D01*
X58128638Y-42818749D01*
X58128208Y-42823746D01*
X58097802Y-43177221D01*
X59268137Y-41944660D01*
X59268137Y-42082151D01*
X58084601Y-43330627D01*
X58072516Y-43471114D01*
X57950488Y-44889717D01*
X57965951Y-44905451D01*
X59194571Y-46155717D01*
X59123769Y-46225292D01*
X57939378Y-45018862D01*
X57891641Y-45573722D01*
X57891365Y-45576166D01*
X57890958Y-45578598D01*
X57890425Y-45581017D01*
X57889771Y-45583417D01*
X57888998Y-45585796D01*
X57888111Y-45588149D01*
X57887115Y-45590473D01*
X57886012Y-45592764D01*
X57884807Y-45595019D01*
X57883504Y-45597234D01*
X57880619Y-45601528D01*
X57877390Y-45605619D01*
X57873849Y-45609476D01*
X57870027Y-45613069D01*
X57865957Y-45616371D01*
X57861670Y-45619352D01*
X57857198Y-45621981D01*
X57854903Y-45623155D01*
X57852573Y-45624231D01*
X57850214Y-45625204D01*
X57847828Y-45626071D01*
X57845420Y-45626828D01*
X57842994Y-45627473D01*
X57840553Y-45628000D01*
X57838103Y-45628406D01*
X57838103Y-45810397D01*
X57614528Y-45810397D01*
X57614528Y-45628869D01*
X56764750Y-45628869D01*
X56753156Y-45649094D01*
X56740275Y-45668438D01*
X56726163Y-45686843D01*
X56710880Y-45704249D01*
X56694485Y-45720599D01*
X56677035Y-45735834D01*
X56658590Y-45749895D01*
X56639208Y-45762725D01*
X56618947Y-45774264D01*
X56597866Y-45784455D01*
X56576023Y-45793238D01*
X56553478Y-45800555D01*
X56530287Y-45806348D01*
X56506511Y-45810558D01*
X56482207Y-45813127D01*
X56457435Y-45813996D01*
X56439553Y-45813544D01*
X56421906Y-45812202D01*
X56404515Y-45809993D01*
X56387403Y-45806937D01*
X56370591Y-45803057D01*
X56354101Y-45798375D01*
X56337955Y-45792912D01*
X56322175Y-45786690D01*
X56306783Y-45779731D01*
X56291799Y-45772058D01*
X56277247Y-45763691D01*
X56263149Y-45754653D01*
X56249525Y-45744965D01*
X56236397Y-45734649D01*
X56223789Y-45723727D01*
X56211721Y-45712222D01*
X56200215Y-45700154D01*
X56189293Y-45687545D01*
X56178977Y-45674418D01*
X56169289Y-45660794D01*
X56160250Y-45646696D01*
X56151883Y-45632144D01*
X56144209Y-45617160D01*
X56137250Y-45601768D01*
X56131028Y-45585987D01*
X56125565Y-45569841D01*
X56120882Y-45553351D01*
X56117002Y-45536539D01*
X56113946Y-45519426D01*
X56111736Y-45502035D01*
X56110394Y-45484387D01*
X56109942Y-45466504D01*
X56276721Y-45466504D01*
X56276956Y-45475804D01*
X56277654Y-45484982D01*
X56278803Y-45494026D01*
X56280393Y-45502925D01*
X56282411Y-45511669D01*
X56284846Y-45520245D01*
X56287688Y-45528642D01*
X56290924Y-45536849D01*
X56294543Y-45544854D01*
X56298534Y-45552646D01*
X56302886Y-45560214D01*
X56307587Y-45567547D01*
X56312625Y-45574633D01*
X56317990Y-45581460D01*
X56323671Y-45588017D01*
X56329655Y-45594294D01*
X56335931Y-45600278D01*
X56342489Y-45605958D01*
X56349316Y-45611323D01*
X56356402Y-45616362D01*
X56363734Y-45621063D01*
X56371302Y-45625415D01*
X56379095Y-45629406D01*
X56387100Y-45633025D01*
X56395307Y-45636261D01*
X56403704Y-45639102D01*
X56412280Y-45641538D01*
X56421023Y-45643556D01*
X56429923Y-45645145D01*
X56438967Y-45646295D01*
X56448145Y-45646993D01*
X56457445Y-45647228D01*
X56466745Y-45646993D01*
X56475924Y-45646295D01*
X56484969Y-45645145D01*
X56493869Y-45643556D01*
X56502613Y-45641538D01*
X56511189Y-45639102D01*
X56519586Y-45636261D01*
X56527793Y-45633025D01*
X56535799Y-45629406D01*
X56543591Y-45625415D01*
X56551159Y-45621063D01*
X56558492Y-45616362D01*
X56565577Y-45611323D01*
X56572404Y-45605958D01*
X56578962Y-45600278D01*
X56585238Y-45594294D01*
X56591222Y-45588017D01*
X56596902Y-45581460D01*
X56602267Y-45574633D01*
X56607305Y-45567547D01*
X56612006Y-45560214D01*
X56616357Y-45552646D01*
X56620348Y-45544854D01*
X56623967Y-45536849D01*
X56627203Y-45528642D01*
X56630044Y-45520245D01*
X56632479Y-45511669D01*
X56634497Y-45502925D01*
X56636086Y-45494026D01*
X56637235Y-45484982D01*
X56637933Y-45475804D01*
X56638168Y-45466504D01*
X56637933Y-45457204D01*
X56637235Y-45448025D01*
X56636086Y-45438980D01*
X56634497Y-45430080D01*
X56632479Y-45421336D01*
X56630044Y-45412760D01*
X56627203Y-45404363D01*
X56623967Y-45396155D01*
X56620348Y-45388150D01*
X56616357Y-45380357D01*
X56612006Y-45372789D01*
X56607305Y-45365457D01*
X56602267Y-45358371D01*
X56596902Y-45351544D01*
X56591222Y-45344987D01*
X56585238Y-45338711D01*
X56578962Y-45332727D01*
X56572404Y-45327047D01*
X56565577Y-45321682D01*
X56558492Y-45316643D01*
X56551159Y-45311943D01*
X56543591Y-45307591D01*
X56535799Y-45303601D01*
X56527793Y-45299982D01*
X56519586Y-45296746D01*
X56511189Y-45293905D01*
X56502612Y-45291470D01*
X56493869Y-45289452D01*
X56484968Y-45287863D01*
X56475924Y-45286713D01*
X56466745Y-45286015D01*
X56457445Y-45285780D01*
X56448145Y-45286015D01*
X56438967Y-45286713D01*
X56429923Y-45287863D01*
X56421023Y-45289452D01*
X56412280Y-45291470D01*
X56403704Y-45293905D01*
X56395307Y-45296746D01*
X56387100Y-45299982D01*
X56379095Y-45303601D01*
X56371302Y-45307591D01*
X56363734Y-45311943D01*
X56356402Y-45316643D01*
X56349316Y-45321682D01*
X56342489Y-45327047D01*
X56335931Y-45332727D01*
X56329655Y-45338711D01*
X56323671Y-45344987D01*
X56317990Y-45351544D01*
X56312625Y-45358371D01*
X56307587Y-45365457D01*
X56302886Y-45372789D01*
X56298534Y-45380357D01*
X56294543Y-45388150D01*
X56290924Y-45396155D01*
X56287688Y-45404363D01*
X56284846Y-45412760D01*
X56282411Y-45421336D01*
X56280393Y-45430080D01*
X56278803Y-45438980D01*
X56277654Y-45448025D01*
X56276956Y-45457204D01*
X56276721Y-45466504D01*
X56109942Y-45466504D01*
X56110019Y-45459118D01*
X56110249Y-45451770D01*
X56110630Y-45444461D01*
X56111161Y-45437194D01*
X56111840Y-45429969D01*
X56112665Y-45422787D01*
X56113635Y-45415651D01*
X56114748Y-45408562D01*
X55352431Y-46212714D01*
X55280424Y-46144376D01*
X56353181Y-45014579D01*
X56488240Y-45014579D01*
X56498194Y-45121365D01*
X56514270Y-45123624D01*
X56530103Y-45126607D01*
X56545673Y-45130298D01*
X56560965Y-45134679D01*
X56575960Y-45139732D01*
X56590641Y-45145440D01*
X56604990Y-45151785D01*
X56618991Y-45158750D01*
X56632625Y-45166318D01*
X56645875Y-45174471D01*
X56658725Y-45183191D01*
X56671155Y-45192462D01*
X56683149Y-45202265D01*
X56694690Y-45212583D01*
X56705760Y-45223399D01*
X56716341Y-45234695D01*
X56726416Y-45246454D01*
X56735967Y-45258659D01*
X56744978Y-45271291D01*
X56753430Y-45284334D01*
X56761306Y-45297769D01*
X56768589Y-45311581D01*
X56775261Y-45325750D01*
X56781305Y-45340260D01*
X56786704Y-45355093D01*
X56791439Y-45370231D01*
X56795493Y-45385658D01*
X56798850Y-45401356D01*
X56801491Y-45417306D01*
X56803399Y-45433493D01*
X56804557Y-45449898D01*
X56804947Y-45466504D01*
X56804907Y-45471789D01*
X56804789Y-45477054D01*
X56804593Y-45482301D01*
X56804321Y-45487529D01*
X56803972Y-45492735D01*
X56803547Y-45497922D01*
X56803047Y-45503086D01*
X56802473Y-45508229D01*
X57776199Y-45508229D01*
X57828049Y-44905451D01*
X57199060Y-44264760D01*
X56488240Y-45014579D01*
X56353181Y-45014579D01*
X56365821Y-45001267D01*
X56219090Y-43426906D01*
X56340283Y-43426906D01*
X56476175Y-44885062D01*
X57130993Y-44195426D01*
X57129246Y-44193646D01*
X57266473Y-44193646D01*
X57268222Y-44195426D01*
X57839138Y-44776406D01*
X57951423Y-43471114D01*
X57266473Y-44193646D01*
X57129246Y-44193646D01*
X56353686Y-43403641D01*
X56353686Y-43426906D01*
X56340283Y-43426906D01*
X56219090Y-43426906D01*
X55944300Y-43426906D01*
X55944300Y-43114724D01*
X56049888Y-43114724D01*
X56049888Y-43318421D01*
X56208996Y-43318421D01*
X56202592Y-43249751D01*
X56070027Y-43114724D01*
X56049888Y-43114724D01*
X55944300Y-43114724D01*
X55944300Y-43006219D01*
X55963514Y-43006219D01*
X55040491Y-42066024D01*
X55040491Y-41928463D01*
X56099597Y-43006229D01*
X56179889Y-43006229D01*
X56162874Y-42823746D01*
X56284081Y-42823746D01*
X56301082Y-43006240D01*
X56353686Y-43006240D01*
X56353686Y-43264782D01*
X56406397Y-43318421D01*
X56645196Y-43561421D01*
X56645196Y-43421919D01*
X57384187Y-43421919D01*
X57384187Y-43663219D01*
X56745225Y-43663219D01*
X57198437Y-44124404D01*
X57964645Y-43317456D01*
X58007113Y-42823746D01*
X56284081Y-42823746D01*
X56162874Y-42823746D01*
X56162546Y-42820227D01*
X56158927Y-42821700D01*
X56155265Y-42823087D01*
X56151560Y-42824387D01*
X56147815Y-42825598D01*
X56144031Y-42826719D01*
X56140208Y-42827750D01*
X56136349Y-42828688D01*
X56132454Y-42829532D01*
X56128524Y-42830282D01*
X56124561Y-42830936D01*
X56120567Y-42831493D01*
X56116541Y-42831951D01*
X56112487Y-42832310D01*
X56108404Y-42832567D01*
X56104295Y-42832723D01*
X56100160Y-42832775D01*
X56091881Y-42832566D01*
X56083711Y-42831944D01*
X56075660Y-42830921D01*
X56067738Y-42829506D01*
X56059955Y-42827710D01*
X56052321Y-42825542D01*
X56044847Y-42823013D01*
X56037541Y-42820132D01*
X56030415Y-42816911D01*
X56023479Y-42813358D01*
X56016742Y-42809484D01*
X56010216Y-42805300D01*
X56003909Y-42800815D01*
X55997832Y-42796039D01*
X55991995Y-42790983D01*
X55986408Y-42785656D01*
X55981082Y-42780069D01*
X55976026Y-42774232D01*
X55971250Y-42768155D01*
X55966765Y-42761848D01*
X55962581Y-42755321D01*
X55958708Y-42748584D01*
X55955155Y-42741648D01*
X55951934Y-42734522D01*
X55949054Y-42727217D01*
X55946525Y-42719743D01*
X55944357Y-42712109D01*
X55942561Y-42704327D01*
X55941449Y-42698099D01*
X56288816Y-42698099D01*
X57690809Y-42698099D01*
X57690809Y-42588308D01*
X57896980Y-42588308D01*
X57896980Y-42698089D01*
X58017107Y-42698089D01*
X58012506Y-42689918D01*
X58007470Y-42681930D01*
X58002010Y-42674125D01*
X57996136Y-42666500D01*
X57989858Y-42659054D01*
X57983185Y-42651783D01*
X57976128Y-42644686D01*
X57968698Y-42637762D01*
X57960903Y-42631007D01*
X57952753Y-42624420D01*
X57944260Y-42617999D01*
X57935432Y-42611742D01*
X57926280Y-42605646D01*
X57916814Y-42599710D01*
X57907044Y-42593931D01*
X57896980Y-42588308D01*
X57690809Y-42588308D01*
X57690809Y-42514591D01*
X57650735Y-42505659D01*
X57609943Y-42497689D01*
X57568684Y-42490631D01*
X57527204Y-42484433D01*
X57485754Y-42479047D01*
X57444580Y-42474420D01*
X57403932Y-42470503D01*
X57364059Y-42467246D01*
X57364059Y-42471891D01*
X57364059Y-42592541D01*
X56770873Y-42592541D01*
X56770873Y-42479935D01*
X56730951Y-42485499D01*
X56691235Y-42491896D01*
X56651967Y-42499176D01*
X56613383Y-42507393D01*
X56575716Y-42516598D01*
X56539201Y-42526844D01*
X56504070Y-42538183D01*
X56470558Y-42550669D01*
X56438899Y-42564353D01*
X56409326Y-42579287D01*
X56395396Y-42587240D01*
X56382075Y-42595525D01*
X56369393Y-42604149D01*
X56357378Y-42613119D01*
X56346061Y-42622441D01*
X56335470Y-42632121D01*
X56325634Y-42642166D01*
X56316584Y-42652583D01*
X56308348Y-42663378D01*
X56300955Y-42674558D01*
X56294435Y-42686130D01*
X56288816Y-42698099D01*
X55941449Y-42698099D01*
X55941146Y-42696405D01*
X55940123Y-42688355D01*
X55939502Y-42680186D01*
X55939293Y-42671908D01*
X55939502Y-42663630D01*
X55940123Y-42655460D01*
X55941146Y-42647409D01*
X55942561Y-42639487D01*
X55944357Y-42631704D01*
X55946525Y-42624070D01*
X55949054Y-42616595D01*
X55951934Y-42609290D01*
X55955155Y-42602164D01*
X55958708Y-42595228D01*
X55962581Y-42588491D01*
X55966765Y-42581964D01*
X55971250Y-42575657D01*
X55976026Y-42569580D01*
X55981082Y-42563743D01*
X55986408Y-42558157D01*
X55991995Y-42552830D01*
X55997832Y-42547774D01*
X56003909Y-42542999D01*
X56010216Y-42538514D01*
X56016742Y-42534330D01*
X56023479Y-42530456D01*
X56030415Y-42526904D01*
X56037541Y-42523683D01*
X56044847Y-42520802D01*
X56052321Y-42518273D01*
X56059955Y-42516106D01*
X56067738Y-42514310D01*
X56075660Y-42512895D01*
X56083711Y-42511872D01*
X56091881Y-42511251D01*
X56100160Y-42511042D01*
X56109724Y-42511321D01*
X56119142Y-42512150D01*
X56128396Y-42513512D01*
X56137471Y-42515391D01*
X56146353Y-42517773D01*
X56155024Y-42520641D01*
X56163469Y-42523979D01*
X56171674Y-42527773D01*
X56179621Y-42532006D01*
X56187296Y-42536663D01*
X56194682Y-42541727D01*
X56201764Y-42547184D01*
X56208527Y-42553018D01*
X56214955Y-42559213D01*
X56221032Y-42565753D01*
X56226742Y-42572623D01*
X56248692Y-42549200D01*
X56273039Y-42527350D01*
X56299614Y-42507021D01*
X56328248Y-42488160D01*
X56358772Y-42470715D01*
X56391016Y-42454631D01*
X56424811Y-42439857D01*
X56459989Y-42426339D01*
X56488851Y-42416573D01*
X56891543Y-42416573D01*
X56891543Y-42471891D01*
X57243429Y-42471891D01*
X57243429Y-42416573D01*
X56891543Y-42416573D01*
X56488851Y-42416573D01*
X56496381Y-42414025D01*
X56533816Y-42402861D01*
X56572126Y-42392795D01*
X56611142Y-42383775D01*
X56650695Y-42375746D01*
X56690616Y-42368656D01*
X56770873Y-42357084D01*
X56770873Y-42295933D01*
X57364059Y-42295933D01*
X57364059Y-42343710D01*
X57404064Y-42346585D01*
X57444635Y-42350134D01*
X57485609Y-42354411D01*
X57526823Y-42359471D01*
X57568114Y-42365369D01*
X57609317Y-42372159D01*
X57650270Y-42379895D01*
X57690809Y-42388632D01*
X57690809Y-42376296D01*
X57896970Y-42376296D01*
X57896970Y-42456035D01*
X57917302Y-42465646D01*
X57937083Y-42475743D01*
X57956280Y-42486338D01*
X57974859Y-42497443D01*
X57992785Y-42509068D01*
X58000616Y-42514591D01*
X58010025Y-42521225D01*
G37*
D14*
X73292461Y-41189145D02*
X73318182Y-41204843D01*
X73344833Y-41226423D01*
X73344833Y-41873880D01*
X73318182Y-41895460D01*
X73286822Y-41912935D01*
X73251021Y-41913771D01*
X73219583Y-41893278D01*
X73215707Y-41888612D01*
X73210241Y-41879145D01*
X73206034Y-41865463D01*
X73202922Y-41844944D01*
X73200742Y-41814964D01*
X73199331Y-41772900D01*
X73198526Y-41716128D01*
X73198162Y-41642026D01*
X73198077Y-41547969D01*
X73198077Y-41226423D01*
X73224728Y-41204843D01*
X73248441Y-41190073D01*
X73271455Y-41183263D01*
X73292461Y-41189145D01*
G36*
X73292461Y-41189145D02*
G01*
X73318182Y-41204843D01*
X73344833Y-41226423D01*
X73344833Y-41873880D01*
X73318182Y-41895460D01*
X73286822Y-41912935D01*
X73251021Y-41913771D01*
X73219583Y-41893278D01*
X73215707Y-41888612D01*
X73210241Y-41879145D01*
X73206034Y-41865463D01*
X73202922Y-41844944D01*
X73200742Y-41814964D01*
X73199331Y-41772900D01*
X73198526Y-41716128D01*
X73198162Y-41642026D01*
X73198077Y-41547969D01*
X73198077Y-41226423D01*
X73224728Y-41204843D01*
X73248441Y-41190073D01*
X73271455Y-41183263D01*
X73292461Y-41189145D01*
G37*
X80423192Y-41187659D02*
X80457346Y-41210972D01*
X80485055Y-41238681D01*
X80485055Y-41551733D01*
X80485014Y-41635763D01*
X80484756Y-41709985D01*
X80484085Y-41766737D01*
X80482807Y-41808708D01*
X80480728Y-41838585D01*
X80477654Y-41859057D01*
X80473389Y-41872810D01*
X80467739Y-41882533D01*
X80460510Y-41890913D01*
X80429046Y-41912377D01*
X80393881Y-41914143D01*
X80360877Y-41894463D01*
X80355571Y-41888594D01*
X80350121Y-41879510D01*
X80345955Y-41866169D01*
X80342901Y-41845953D01*
X80340787Y-41816245D01*
X80339441Y-41774428D01*
X80338693Y-41717885D01*
X80338369Y-41643998D01*
X80338300Y-41550152D01*
X80338339Y-41474490D01*
X80338594Y-41396581D01*
X80339238Y-41336571D01*
X80340442Y-41291844D01*
X80342379Y-41259781D01*
X80345219Y-41237767D01*
X80349134Y-41223183D01*
X80354297Y-41213414D01*
X80360877Y-41205841D01*
X80390061Y-41186819D01*
X80423192Y-41187659D01*
G36*
X80423192Y-41187659D02*
G01*
X80457346Y-41210972D01*
X80485055Y-41238681D01*
X80485055Y-41551733D01*
X80485014Y-41635763D01*
X80484756Y-41709985D01*
X80484085Y-41766737D01*
X80482807Y-41808708D01*
X80480728Y-41838585D01*
X80477654Y-41859057D01*
X80473389Y-41872810D01*
X80467739Y-41882533D01*
X80460510Y-41890913D01*
X80429046Y-41912377D01*
X80393881Y-41914143D01*
X80360877Y-41894463D01*
X80355571Y-41888594D01*
X80350121Y-41879510D01*
X80345955Y-41866169D01*
X80342901Y-41845953D01*
X80340787Y-41816245D01*
X80339441Y-41774428D01*
X80338693Y-41717885D01*
X80338369Y-41643998D01*
X80338300Y-41550152D01*
X80338339Y-41474490D01*
X80338594Y-41396581D01*
X80339238Y-41336571D01*
X80340442Y-41291844D01*
X80342379Y-41259781D01*
X80345219Y-41237767D01*
X80349134Y-41223183D01*
X80354297Y-41213414D01*
X80360877Y-41205841D01*
X80390061Y-41186819D01*
X80423192Y-41187659D01*
G37*
X79891617Y-35947046D02*
X79974368Y-35974249D01*
X80049461Y-36019680D01*
X80121353Y-36085498D01*
X80159901Y-36129763D01*
X80199311Y-36188157D01*
X80224501Y-36248782D01*
X80237916Y-36318061D01*
X80242003Y-36402418D01*
X80241724Y-36448503D01*
X80239515Y-36489646D01*
X80233949Y-36521778D01*
X80223641Y-36552318D01*
X80207203Y-36588685D01*
X80193255Y-36615924D01*
X80134720Y-36701625D01*
X80062674Y-36770813D01*
X79979002Y-36821937D01*
X79885586Y-36853446D01*
X79852489Y-36860421D01*
X79812015Y-36867290D01*
X79779054Y-36869115D01*
X79744753Y-36866143D01*
X79700255Y-36858622D01*
X79648989Y-36846198D01*
X79558489Y-36808308D01*
X79479400Y-36754032D01*
X79413583Y-36685966D01*
X79362895Y-36606707D01*
X79329195Y-36518850D01*
X79314341Y-36424991D01*
X79320191Y-36327726D01*
X79346454Y-36231416D01*
X79391473Y-36142690D01*
X79452428Y-36067615D01*
X79527239Y-36007837D01*
X79613823Y-35965005D01*
X79710098Y-35940767D01*
X79813983Y-35936772D01*
X79891617Y-35947046D01*
G36*
X79891617Y-35947046D02*
G01*
X79974368Y-35974249D01*
X80049461Y-36019680D01*
X80121353Y-36085498D01*
X80159901Y-36129763D01*
X80199311Y-36188157D01*
X80224501Y-36248782D01*
X80237916Y-36318061D01*
X80242003Y-36402418D01*
X80241724Y-36448503D01*
X80239515Y-36489646D01*
X80233949Y-36521778D01*
X80223641Y-36552318D01*
X80207203Y-36588685D01*
X80193255Y-36615924D01*
X80134720Y-36701625D01*
X80062674Y-36770813D01*
X79979002Y-36821937D01*
X79885586Y-36853446D01*
X79852489Y-36860421D01*
X79812015Y-36867290D01*
X79779054Y-36869115D01*
X79744753Y-36866143D01*
X79700255Y-36858622D01*
X79648989Y-36846198D01*
X79558489Y-36808308D01*
X79479400Y-36754032D01*
X79413583Y-36685966D01*
X79362895Y-36606707D01*
X79329195Y-36518850D01*
X79314341Y-36424991D01*
X79320191Y-36327726D01*
X79346454Y-36231416D01*
X79391473Y-36142690D01*
X79452428Y-36067615D01*
X79527239Y-36007837D01*
X79613823Y-35965005D01*
X79710098Y-35940767D01*
X79813983Y-35936772D01*
X79891617Y-35947046D01*
G37*
X72592822Y-41183264D02*
X72686945Y-41183354D01*
X72761460Y-41183694D01*
X72818866Y-41184435D01*
X72861666Y-41185731D01*
X72892359Y-41187733D01*
X72913446Y-41190592D01*
X72927428Y-41194462D01*
X72936805Y-41199494D01*
X72944077Y-41205841D01*
X72962883Y-41238558D01*
X72964330Y-41276135D01*
X72947972Y-41309374D01*
X72946612Y-41310827D01*
X72935409Y-41319188D01*
X72918307Y-41324743D01*
X72891137Y-41328036D01*
X72849733Y-41329614D01*
X72789928Y-41330018D01*
X72650566Y-41330018D01*
X72650566Y-41593785D01*
X72650491Y-41669613D01*
X72650083Y-41736279D01*
X72649101Y-41786063D01*
X72647305Y-41821980D01*
X72644454Y-41847046D01*
X72640308Y-41864277D01*
X72634626Y-41876688D01*
X72627169Y-41887296D01*
X72624879Y-41890102D01*
X72593701Y-41912744D01*
X72559321Y-41914308D01*
X72526389Y-41894463D01*
X72519410Y-41886387D01*
X72513938Y-41875789D01*
X72509918Y-41859945D01*
X72507127Y-41835969D01*
X72505343Y-41800970D01*
X72504344Y-41752060D01*
X72503907Y-41686350D01*
X72503811Y-41600952D01*
X72503811Y-41330018D01*
X72357875Y-41330018D01*
X72346775Y-41330017D01*
X72290257Y-41329792D01*
X72251413Y-41328653D01*
X72226020Y-41325853D01*
X72209859Y-41320646D01*
X72198707Y-41312285D01*
X72188344Y-41300022D01*
X72172496Y-41269334D01*
X72175598Y-41235554D01*
X72201242Y-41203018D01*
X72206184Y-41199301D01*
X72216393Y-41194465D01*
X72231819Y-41190702D01*
X72254941Y-41187879D01*
X72288238Y-41185866D01*
X72334192Y-41184529D01*
X72395283Y-41183738D01*
X72473990Y-41183359D01*
X72572795Y-41183263D01*
X72592822Y-41183264D01*
G36*
X72592822Y-41183264D02*
G01*
X72686945Y-41183354D01*
X72761460Y-41183694D01*
X72818866Y-41184435D01*
X72861666Y-41185731D01*
X72892359Y-41187733D01*
X72913446Y-41190592D01*
X72927428Y-41194462D01*
X72936805Y-41199494D01*
X72944077Y-41205841D01*
X72962883Y-41238558D01*
X72964330Y-41276135D01*
X72947972Y-41309374D01*
X72946612Y-41310827D01*
X72935409Y-41319188D01*
X72918307Y-41324743D01*
X72891137Y-41328036D01*
X72849733Y-41329614D01*
X72789928Y-41330018D01*
X72650566Y-41330018D01*
X72650566Y-41593785D01*
X72650491Y-41669613D01*
X72650083Y-41736279D01*
X72649101Y-41786063D01*
X72647305Y-41821980D01*
X72644454Y-41847046D01*
X72640308Y-41864277D01*
X72634626Y-41876688D01*
X72627169Y-41887296D01*
X72624879Y-41890102D01*
X72593701Y-41912744D01*
X72559321Y-41914308D01*
X72526389Y-41894463D01*
X72519410Y-41886387D01*
X72513938Y-41875789D01*
X72509918Y-41859945D01*
X72507127Y-41835969D01*
X72505343Y-41800970D01*
X72504344Y-41752060D01*
X72503907Y-41686350D01*
X72503811Y-41600952D01*
X72503811Y-41330018D01*
X72357875Y-41330018D01*
X72346775Y-41330017D01*
X72290257Y-41329792D01*
X72251413Y-41328653D01*
X72226020Y-41325853D01*
X72209859Y-41320646D01*
X72198707Y-41312285D01*
X72188344Y-41300022D01*
X72172496Y-41269334D01*
X72175598Y-41235554D01*
X72201242Y-41203018D01*
X72206184Y-41199301D01*
X72216393Y-41194465D01*
X72231819Y-41190702D01*
X72254941Y-41187879D01*
X72288238Y-41185866D01*
X72334192Y-41184529D01*
X72395283Y-41183738D01*
X72473990Y-41183359D01*
X72572795Y-41183263D01*
X72592822Y-41183264D01*
G37*
X71916789Y-41205841D02*
X71922421Y-41212031D01*
X71927511Y-41220237D01*
X71931598Y-41232013D01*
X71934776Y-41249472D01*
X71937142Y-41274726D01*
X71938793Y-41309886D01*
X71939824Y-41357065D01*
X71940332Y-41418373D01*
X71940414Y-41495923D01*
X71940164Y-41591827D01*
X71939680Y-41708196D01*
X71939612Y-41722371D01*
X71939026Y-41784133D01*
X71937703Y-41827816D01*
X71935158Y-41857197D01*
X71930903Y-41876051D01*
X71924451Y-41888155D01*
X71915317Y-41897285D01*
X71881859Y-41914702D01*
X71846911Y-41911800D01*
X71816008Y-41887296D01*
X71806999Y-41874093D01*
X71799547Y-41855557D01*
X71795179Y-41829529D01*
X71793124Y-41790983D01*
X71792611Y-41734896D01*
X71792611Y-41612241D01*
X71295900Y-41612241D01*
X71295900Y-41747067D01*
X71295827Y-41782858D01*
X71295064Y-41829188D01*
X71292888Y-41859722D01*
X71288591Y-41878753D01*
X71281467Y-41890570D01*
X71270810Y-41899467D01*
X71238559Y-41914537D01*
X71203272Y-41911869D01*
X71172541Y-41887296D01*
X71167886Y-41881041D01*
X71161950Y-41870517D01*
X71157419Y-41856587D01*
X71154103Y-41836513D01*
X71151814Y-41807556D01*
X71150363Y-41766976D01*
X71149560Y-41712036D01*
X71149217Y-41639995D01*
X71149144Y-41548116D01*
X71149144Y-41238681D01*
X71176853Y-41210972D01*
X71208232Y-41188729D01*
X71241461Y-41186040D01*
X71273322Y-41205841D01*
X71281608Y-41215611D01*
X71289020Y-41231503D01*
X71293357Y-41255471D01*
X71295393Y-41292344D01*
X71295900Y-41346952D01*
X71295900Y-41465485D01*
X71792611Y-41465485D01*
X71792611Y-41349972D01*
X71793049Y-41298274D01*
X71795013Y-41263750D01*
X71799529Y-41241174D01*
X71807622Y-41225322D01*
X71820320Y-41210972D01*
X71851698Y-41188729D01*
X71884927Y-41186040D01*
X71916789Y-41205841D01*
G36*
X71916789Y-41205841D02*
G01*
X71922421Y-41212031D01*
X71927511Y-41220237D01*
X71931598Y-41232013D01*
X71934776Y-41249472D01*
X71937142Y-41274726D01*
X71938793Y-41309886D01*
X71939824Y-41357065D01*
X71940332Y-41418373D01*
X71940414Y-41495923D01*
X71940164Y-41591827D01*
X71939680Y-41708196D01*
X71939612Y-41722371D01*
X71939026Y-41784133D01*
X71937703Y-41827816D01*
X71935158Y-41857197D01*
X71930903Y-41876051D01*
X71924451Y-41888155D01*
X71915317Y-41897285D01*
X71881859Y-41914702D01*
X71846911Y-41911800D01*
X71816008Y-41887296D01*
X71806999Y-41874093D01*
X71799547Y-41855557D01*
X71795179Y-41829529D01*
X71793124Y-41790983D01*
X71792611Y-41734896D01*
X71792611Y-41612241D01*
X71295900Y-41612241D01*
X71295900Y-41747067D01*
X71295827Y-41782858D01*
X71295064Y-41829188D01*
X71292888Y-41859722D01*
X71288591Y-41878753D01*
X71281467Y-41890570D01*
X71270810Y-41899467D01*
X71238559Y-41914537D01*
X71203272Y-41911869D01*
X71172541Y-41887296D01*
X71167886Y-41881041D01*
X71161950Y-41870517D01*
X71157419Y-41856587D01*
X71154103Y-41836513D01*
X71151814Y-41807556D01*
X71150363Y-41766976D01*
X71149560Y-41712036D01*
X71149217Y-41639995D01*
X71149144Y-41548116D01*
X71149144Y-41238681D01*
X71176853Y-41210972D01*
X71208232Y-41188729D01*
X71241461Y-41186040D01*
X71273322Y-41205841D01*
X71281608Y-41215611D01*
X71289020Y-41231503D01*
X71293357Y-41255471D01*
X71295393Y-41292344D01*
X71295900Y-41346952D01*
X71295900Y-41465485D01*
X71792611Y-41465485D01*
X71792611Y-41349972D01*
X71793049Y-41298274D01*
X71795013Y-41263750D01*
X71799529Y-41241174D01*
X71807622Y-41225322D01*
X71820320Y-41210972D01*
X71851698Y-41188729D01*
X71884927Y-41186040D01*
X71916789Y-41205841D01*
G37*
X76622188Y-41794592D02*
X76620218Y-41827371D01*
X76617290Y-41850291D01*
X76613213Y-41866093D01*
X76607798Y-41877515D01*
X76600858Y-41887296D01*
X76577461Y-41917041D01*
X76411769Y-41916447D01*
X76376973Y-41916149D01*
X76278490Y-41912718D01*
X76197528Y-41905035D01*
X76130434Y-41892478D01*
X76073551Y-41874423D01*
X76023224Y-41850248D01*
X76019865Y-41848331D01*
X75962053Y-41811613D01*
X75919699Y-41774647D01*
X75886883Y-41731162D01*
X75857683Y-41674885D01*
X75853401Y-41665269D01*
X75830824Y-41602083D01*
X75825089Y-41556529D01*
X75974334Y-41556529D01*
X75979947Y-41581257D01*
X75985673Y-41597135D01*
X76018603Y-41657043D01*
X76065941Y-41702796D01*
X76129707Y-41735932D01*
X76211916Y-41757986D01*
X76214710Y-41758488D01*
X76260995Y-41764451D01*
X76317391Y-41768679D01*
X76372329Y-41770285D01*
X76466211Y-41770285D01*
X76466211Y-41330018D01*
X76378722Y-41330466D01*
X76311802Y-41332942D01*
X76219404Y-41344194D01*
X76140089Y-41363733D01*
X76078115Y-41390707D01*
X76047175Y-41411436D01*
X76019055Y-41441202D01*
X75995715Y-41483630D01*
X75988588Y-41499596D01*
X75976764Y-41532098D01*
X75974334Y-41556529D01*
X75825089Y-41556529D01*
X75823852Y-41546705D01*
X75832454Y-41491679D01*
X75856596Y-41429547D01*
X75857392Y-41427854D01*
X75897843Y-41358432D01*
X75948528Y-41301834D01*
X76011253Y-41257266D01*
X76087829Y-41223937D01*
X76180064Y-41201057D01*
X76289767Y-41187832D01*
X76418746Y-41183471D01*
X76422318Y-41183466D01*
X76482338Y-41183606D01*
X76524269Y-41184642D01*
X76552383Y-41187236D01*
X76570952Y-41192049D01*
X76584249Y-41199740D01*
X76596546Y-41210972D01*
X76624255Y-41238681D01*
X76624255Y-41548116D01*
X76624230Y-41609722D01*
X76624005Y-41688507D01*
X76623387Y-41749217D01*
X76622830Y-41770285D01*
X76622188Y-41794592D01*
G36*
X76622188Y-41794592D02*
G01*
X76620218Y-41827371D01*
X76617290Y-41850291D01*
X76613213Y-41866093D01*
X76607798Y-41877515D01*
X76600858Y-41887296D01*
X76577461Y-41917041D01*
X76411769Y-41916447D01*
X76376973Y-41916149D01*
X76278490Y-41912718D01*
X76197528Y-41905035D01*
X76130434Y-41892478D01*
X76073551Y-41874423D01*
X76023224Y-41850248D01*
X76019865Y-41848331D01*
X75962053Y-41811613D01*
X75919699Y-41774647D01*
X75886883Y-41731162D01*
X75857683Y-41674885D01*
X75853401Y-41665269D01*
X75830824Y-41602083D01*
X75825089Y-41556529D01*
X75974334Y-41556529D01*
X75979947Y-41581257D01*
X75985673Y-41597135D01*
X76018603Y-41657043D01*
X76065941Y-41702796D01*
X76129707Y-41735932D01*
X76211916Y-41757986D01*
X76214710Y-41758488D01*
X76260995Y-41764451D01*
X76317391Y-41768679D01*
X76372329Y-41770285D01*
X76466211Y-41770285D01*
X76466211Y-41330018D01*
X76378722Y-41330466D01*
X76311802Y-41332942D01*
X76219404Y-41344194D01*
X76140089Y-41363733D01*
X76078115Y-41390707D01*
X76047175Y-41411436D01*
X76019055Y-41441202D01*
X75995715Y-41483630D01*
X75988588Y-41499596D01*
X75976764Y-41532098D01*
X75974334Y-41556529D01*
X75825089Y-41556529D01*
X75823852Y-41546705D01*
X75832454Y-41491679D01*
X75856596Y-41429547D01*
X75857392Y-41427854D01*
X75897843Y-41358432D01*
X75948528Y-41301834D01*
X76011253Y-41257266D01*
X76087829Y-41223937D01*
X76180064Y-41201057D01*
X76289767Y-41187832D01*
X76418746Y-41183471D01*
X76422318Y-41183466D01*
X76482338Y-41183606D01*
X76524269Y-41184642D01*
X76552383Y-41187236D01*
X76570952Y-41192049D01*
X76584249Y-41199740D01*
X76596546Y-41210972D01*
X76624255Y-41238681D01*
X76624255Y-41548116D01*
X76624230Y-41609722D01*
X76624005Y-41688507D01*
X76623387Y-41749217D01*
X76622830Y-41770285D01*
X76622188Y-41794592D01*
G37*
X83713872Y-41368623D02*
X83713925Y-41449237D01*
X83713677Y-41550152D01*
X83713638Y-41625813D01*
X83713383Y-41703722D01*
X83712739Y-41763732D01*
X83711535Y-41808460D01*
X83709598Y-41840522D01*
X83706758Y-41862536D01*
X83702843Y-41877120D01*
X83697681Y-41886890D01*
X83691100Y-41894463D01*
X83684132Y-41900697D01*
X83671134Y-41907997D01*
X83651986Y-41912750D01*
X83622583Y-41915488D01*
X83578817Y-41916741D01*
X83516583Y-41917041D01*
X83467637Y-41916665D01*
X83360777Y-41912237D01*
X83271549Y-41902149D01*
X83196751Y-41885561D01*
X83133180Y-41861631D01*
X83077634Y-41829517D01*
X83026909Y-41788378D01*
X83020921Y-41782526D01*
X82984054Y-41734017D01*
X82952954Y-41673209D01*
X82931472Y-41608965D01*
X82926191Y-41570222D01*
X83073408Y-41570222D01*
X83091690Y-41621157D01*
X83121360Y-41667074D01*
X83168057Y-41709483D01*
X83229447Y-41739286D01*
X83308593Y-41758422D01*
X83310083Y-41758660D01*
X83359054Y-41764452D01*
X83417748Y-41768592D01*
X83473789Y-41770200D01*
X83566922Y-41770285D01*
X83566922Y-41330018D01*
X83490722Y-41330004D01*
X83487694Y-41330013D01*
X83436574Y-41331978D01*
X83376471Y-41336703D01*
X83319763Y-41343231D01*
X83269805Y-41352527D01*
X83195053Y-41378796D01*
X83137544Y-41418095D01*
X83096043Y-41471129D01*
X83074826Y-41522396D01*
X83073408Y-41570222D01*
X82926191Y-41570222D01*
X82923455Y-41550152D01*
X82924734Y-41528935D01*
X82937046Y-41471519D01*
X82959575Y-41411609D01*
X82988805Y-41357559D01*
X83021222Y-41317728D01*
X83040763Y-41300706D01*
X83095475Y-41261518D01*
X83155778Y-41231389D01*
X83224974Y-41209428D01*
X83306366Y-41194746D01*
X83403255Y-41186455D01*
X83518944Y-41183663D01*
X83558426Y-41183262D01*
X83604137Y-41182849D01*
X83639938Y-41184653D01*
X83667029Y-41190935D01*
X83686611Y-41203955D01*
X83699885Y-41225974D01*
X83708053Y-41259251D01*
X83712315Y-41306047D01*
X83712912Y-41330018D01*
X83713872Y-41368623D01*
G36*
X83713872Y-41368623D02*
G01*
X83713925Y-41449237D01*
X83713677Y-41550152D01*
X83713638Y-41625813D01*
X83713383Y-41703722D01*
X83712739Y-41763732D01*
X83711535Y-41808460D01*
X83709598Y-41840522D01*
X83706758Y-41862536D01*
X83702843Y-41877120D01*
X83697681Y-41886890D01*
X83691100Y-41894463D01*
X83684132Y-41900697D01*
X83671134Y-41907997D01*
X83651986Y-41912750D01*
X83622583Y-41915488D01*
X83578817Y-41916741D01*
X83516583Y-41917041D01*
X83467637Y-41916665D01*
X83360777Y-41912237D01*
X83271549Y-41902149D01*
X83196751Y-41885561D01*
X83133180Y-41861631D01*
X83077634Y-41829517D01*
X83026909Y-41788378D01*
X83020921Y-41782526D01*
X82984054Y-41734017D01*
X82952954Y-41673209D01*
X82931472Y-41608965D01*
X82926191Y-41570222D01*
X83073408Y-41570222D01*
X83091690Y-41621157D01*
X83121360Y-41667074D01*
X83168057Y-41709483D01*
X83229447Y-41739286D01*
X83308593Y-41758422D01*
X83310083Y-41758660D01*
X83359054Y-41764452D01*
X83417748Y-41768592D01*
X83473789Y-41770200D01*
X83566922Y-41770285D01*
X83566922Y-41330018D01*
X83490722Y-41330004D01*
X83487694Y-41330013D01*
X83436574Y-41331978D01*
X83376471Y-41336703D01*
X83319763Y-41343231D01*
X83269805Y-41352527D01*
X83195053Y-41378796D01*
X83137544Y-41418095D01*
X83096043Y-41471129D01*
X83074826Y-41522396D01*
X83073408Y-41570222D01*
X82926191Y-41570222D01*
X82923455Y-41550152D01*
X82924734Y-41528935D01*
X82937046Y-41471519D01*
X82959575Y-41411609D01*
X82988805Y-41357559D01*
X83021222Y-41317728D01*
X83040763Y-41300706D01*
X83095475Y-41261518D01*
X83155778Y-41231389D01*
X83224974Y-41209428D01*
X83306366Y-41194746D01*
X83403255Y-41186455D01*
X83518944Y-41183663D01*
X83558426Y-41183262D01*
X83604137Y-41182849D01*
X83639938Y-41184653D01*
X83667029Y-41190935D01*
X83686611Y-41203955D01*
X83699885Y-41225974D01*
X83708053Y-41259251D01*
X83712315Y-41306047D01*
X83712912Y-41330018D01*
X83713872Y-41368623D01*
G37*
X78768948Y-41182088D02*
X78780356Y-41188225D01*
X78790905Y-41198887D01*
X78802191Y-41213007D01*
X78806644Y-41218968D01*
X78812643Y-41229464D01*
X78817222Y-41243289D01*
X78820574Y-41263194D01*
X78822888Y-41291928D01*
X78824356Y-41332241D01*
X78825168Y-41386883D01*
X78825515Y-41458603D01*
X78825589Y-41550152D01*
X78825566Y-41608682D01*
X78825347Y-41687769D01*
X78824738Y-41748712D01*
X78823547Y-41794258D01*
X78821584Y-41827159D01*
X78818658Y-41850164D01*
X78814578Y-41866022D01*
X78809152Y-41877482D01*
X78802191Y-41887296D01*
X78771763Y-41911689D01*
X78736820Y-41914568D01*
X78699839Y-41895478D01*
X78695655Y-41892003D01*
X78687479Y-41883475D01*
X78681419Y-41871924D01*
X78677036Y-41854092D01*
X78673894Y-41826720D01*
X78671557Y-41786550D01*
X78669586Y-41730324D01*
X78667544Y-41654785D01*
X78661900Y-41435654D01*
X78396611Y-41676295D01*
X78322777Y-41743071D01*
X78257597Y-41801187D01*
X78205403Y-41846145D01*
X78164328Y-41879067D01*
X78132510Y-41901075D01*
X78108081Y-41913290D01*
X78089179Y-41916835D01*
X78073938Y-41912832D01*
X78060494Y-41902403D01*
X78046982Y-41886670D01*
X78040737Y-41878187D01*
X78035105Y-41867609D01*
X78030894Y-41853451D01*
X78027942Y-41832999D01*
X78026087Y-41803538D01*
X78025168Y-41762357D01*
X78025023Y-41706740D01*
X78025490Y-41633975D01*
X78026407Y-41541347D01*
X78029722Y-41226395D01*
X78056373Y-41204829D01*
X78082438Y-41188637D01*
X78115296Y-41185866D01*
X78149827Y-41204819D01*
X78154139Y-41208404D01*
X78162271Y-41216933D01*
X78168300Y-41228525D01*
X78172661Y-41246431D01*
X78175789Y-41273902D01*
X78178118Y-41314190D01*
X78180084Y-41370547D01*
X78182122Y-41446225D01*
X78187766Y-41666074D01*
X78368389Y-41502280D01*
X78455127Y-41423647D01*
X78530898Y-41355254D01*
X78593035Y-41299904D01*
X78643133Y-41256534D01*
X78682790Y-41224077D01*
X78713603Y-41201469D01*
X78737169Y-41187644D01*
X78755085Y-41181539D01*
X78768948Y-41182088D01*
G36*
X78768948Y-41182088D02*
G01*
X78780356Y-41188225D01*
X78790905Y-41198887D01*
X78802191Y-41213007D01*
X78806644Y-41218968D01*
X78812643Y-41229464D01*
X78817222Y-41243289D01*
X78820574Y-41263194D01*
X78822888Y-41291928D01*
X78824356Y-41332241D01*
X78825168Y-41386883D01*
X78825515Y-41458603D01*
X78825589Y-41550152D01*
X78825566Y-41608682D01*
X78825347Y-41687769D01*
X78824738Y-41748712D01*
X78823547Y-41794258D01*
X78821584Y-41827159D01*
X78818658Y-41850164D01*
X78814578Y-41866022D01*
X78809152Y-41877482D01*
X78802191Y-41887296D01*
X78771763Y-41911689D01*
X78736820Y-41914568D01*
X78699839Y-41895478D01*
X78695655Y-41892003D01*
X78687479Y-41883475D01*
X78681419Y-41871924D01*
X78677036Y-41854092D01*
X78673894Y-41826720D01*
X78671557Y-41786550D01*
X78669586Y-41730324D01*
X78667544Y-41654785D01*
X78661900Y-41435654D01*
X78396611Y-41676295D01*
X78322777Y-41743071D01*
X78257597Y-41801187D01*
X78205403Y-41846145D01*
X78164328Y-41879067D01*
X78132510Y-41901075D01*
X78108081Y-41913290D01*
X78089179Y-41916835D01*
X78073938Y-41912832D01*
X78060494Y-41902403D01*
X78046982Y-41886670D01*
X78040737Y-41878187D01*
X78035105Y-41867609D01*
X78030894Y-41853451D01*
X78027942Y-41832999D01*
X78026087Y-41803538D01*
X78025168Y-41762357D01*
X78025023Y-41706740D01*
X78025490Y-41633975D01*
X78026407Y-41541347D01*
X78029722Y-41226395D01*
X78056373Y-41204829D01*
X78082438Y-41188637D01*
X78115296Y-41185866D01*
X78149827Y-41204819D01*
X78154139Y-41208404D01*
X78162271Y-41216933D01*
X78168300Y-41228525D01*
X78172661Y-41246431D01*
X78175789Y-41273902D01*
X78178118Y-41314190D01*
X78180084Y-41370547D01*
X78182122Y-41446225D01*
X78187766Y-41666074D01*
X78368389Y-41502280D01*
X78455127Y-41423647D01*
X78530898Y-41355254D01*
X78593035Y-41299904D01*
X78643133Y-41256534D01*
X78682790Y-41224077D01*
X78713603Y-41201469D01*
X78737169Y-41187644D01*
X78755085Y-41181539D01*
X78768948Y-41182088D01*
G37*
X79566205Y-41188375D02*
X79672212Y-41204690D01*
X79766024Y-41232741D01*
X79844820Y-41271648D01*
X79905774Y-41320530D01*
X79931844Y-41353391D01*
X79961352Y-41402590D01*
X79986623Y-41456448D01*
X80004273Y-41507615D01*
X80010913Y-41548740D01*
X80009353Y-41568455D01*
X79996412Y-41619788D01*
X79973249Y-41676314D01*
X79943357Y-41730231D01*
X79910228Y-41773735D01*
X79900032Y-41784083D01*
X79832947Y-41835858D01*
X79752821Y-41875750D01*
X79666611Y-41900152D01*
X79611647Y-41908264D01*
X79518194Y-41914869D01*
X79428413Y-41912782D01*
X79345924Y-41902536D01*
X79274341Y-41884666D01*
X79217283Y-41859704D01*
X79178366Y-41828184D01*
X79176991Y-41826208D01*
X79169903Y-41800982D01*
X79165664Y-41753731D01*
X79164255Y-41684267D01*
X79165115Y-41622034D01*
X79169835Y-41574652D01*
X79181525Y-41542549D01*
X79203294Y-41522996D01*
X79238253Y-41513266D01*
X79289511Y-41510629D01*
X79360178Y-41512357D01*
X79408798Y-41515369D01*
X79458994Y-41523562D01*
X79491488Y-41537615D01*
X79508947Y-41558850D01*
X79514038Y-41588590D01*
X79513932Y-41593132D01*
X79505230Y-41627926D01*
X79481220Y-41651343D01*
X79439955Y-41664543D01*
X79379486Y-41668685D01*
X79311011Y-41668685D01*
X79311011Y-41707037D01*
X79311061Y-41716172D01*
X79313282Y-41733423D01*
X79322549Y-41743717D01*
X79343930Y-41750655D01*
X79382491Y-41757837D01*
X79387965Y-41758771D01*
X79484915Y-41768674D01*
X79574907Y-41765755D01*
X79655815Y-41751025D01*
X79725514Y-41725495D01*
X79781879Y-41690174D01*
X79822784Y-41646075D01*
X79846106Y-41594208D01*
X79849718Y-41535584D01*
X79844200Y-41506690D01*
X79817516Y-41450800D01*
X79771328Y-41405141D01*
X79706346Y-41370304D01*
X79623284Y-41346886D01*
X79598610Y-41342437D01*
X79509281Y-41331938D01*
X79429474Y-41333167D01*
X79351381Y-41346102D01*
X79316238Y-41352892D01*
X79270800Y-41353909D01*
X79239485Y-41341378D01*
X79219332Y-41314591D01*
X79212948Y-41286344D01*
X79222434Y-41255120D01*
X79231763Y-41241695D01*
X79265998Y-41218163D01*
X79318620Y-41200291D01*
X79387136Y-41188795D01*
X79469055Y-41184388D01*
X79566205Y-41188375D01*
G36*
X79566205Y-41188375D02*
G01*
X79672212Y-41204690D01*
X79766024Y-41232741D01*
X79844820Y-41271648D01*
X79905774Y-41320530D01*
X79931844Y-41353391D01*
X79961352Y-41402590D01*
X79986623Y-41456448D01*
X80004273Y-41507615D01*
X80010913Y-41548740D01*
X80009353Y-41568455D01*
X79996412Y-41619788D01*
X79973249Y-41676314D01*
X79943357Y-41730231D01*
X79910228Y-41773735D01*
X79900032Y-41784083D01*
X79832947Y-41835858D01*
X79752821Y-41875750D01*
X79666611Y-41900152D01*
X79611647Y-41908264D01*
X79518194Y-41914869D01*
X79428413Y-41912782D01*
X79345924Y-41902536D01*
X79274341Y-41884666D01*
X79217283Y-41859704D01*
X79178366Y-41828184D01*
X79176991Y-41826208D01*
X79169903Y-41800982D01*
X79165664Y-41753731D01*
X79164255Y-41684267D01*
X79165115Y-41622034D01*
X79169835Y-41574652D01*
X79181525Y-41542549D01*
X79203294Y-41522996D01*
X79238253Y-41513266D01*
X79289511Y-41510629D01*
X79360178Y-41512357D01*
X79408798Y-41515369D01*
X79458994Y-41523562D01*
X79491488Y-41537615D01*
X79508947Y-41558850D01*
X79514038Y-41588590D01*
X79513932Y-41593132D01*
X79505230Y-41627926D01*
X79481220Y-41651343D01*
X79439955Y-41664543D01*
X79379486Y-41668685D01*
X79311011Y-41668685D01*
X79311011Y-41707037D01*
X79311061Y-41716172D01*
X79313282Y-41733423D01*
X79322549Y-41743717D01*
X79343930Y-41750655D01*
X79382491Y-41757837D01*
X79387965Y-41758771D01*
X79484915Y-41768674D01*
X79574907Y-41765755D01*
X79655815Y-41751025D01*
X79725514Y-41725495D01*
X79781879Y-41690174D01*
X79822784Y-41646075D01*
X79846106Y-41594208D01*
X79849718Y-41535584D01*
X79844200Y-41506690D01*
X79817516Y-41450800D01*
X79771328Y-41405141D01*
X79706346Y-41370304D01*
X79623284Y-41346886D01*
X79598610Y-41342437D01*
X79509281Y-41331938D01*
X79429474Y-41333167D01*
X79351381Y-41346102D01*
X79316238Y-41352892D01*
X79270800Y-41353909D01*
X79239485Y-41341378D01*
X79219332Y-41314591D01*
X79212948Y-41286344D01*
X79222434Y-41255120D01*
X79231763Y-41241695D01*
X79265998Y-41218163D01*
X79318620Y-41200291D01*
X79387136Y-41188795D01*
X79469055Y-41184388D01*
X79566205Y-41188375D01*
G37*
X77616858Y-41213007D02*
X77621807Y-41219691D01*
X77627651Y-41230262D01*
X77632112Y-41244349D01*
X77635376Y-41264674D01*
X77637629Y-41293961D01*
X77639057Y-41334933D01*
X77639847Y-41390313D01*
X77640184Y-41462824D01*
X77640255Y-41555190D01*
X77640226Y-41621107D01*
X77639994Y-41699424D01*
X77639374Y-41759692D01*
X77638181Y-41804589D01*
X77636234Y-41836798D01*
X77633349Y-41858996D01*
X77629343Y-41873865D01*
X77624034Y-41884085D01*
X77617238Y-41892334D01*
X77612723Y-41896991D01*
X77604493Y-41903478D01*
X77593133Y-41908390D01*
X77575865Y-41911945D01*
X77549910Y-41914363D01*
X77512491Y-41915863D01*
X77460828Y-41916663D01*
X77392144Y-41916983D01*
X77303661Y-41917041D01*
X77283986Y-41917034D01*
X77196961Y-41916768D01*
X77129309Y-41916002D01*
X77078354Y-41914588D01*
X77041422Y-41912376D01*
X77015838Y-41909218D01*
X76998926Y-41904965D01*
X76988012Y-41899467D01*
X76977519Y-41889481D01*
X76964258Y-41858364D01*
X76965441Y-41822476D01*
X76981605Y-41790929D01*
X76983794Y-41788653D01*
X76992482Y-41782385D01*
X77005824Y-41777719D01*
X77026807Y-41774423D01*
X77058418Y-41772264D01*
X77103645Y-41771010D01*
X77165475Y-41770427D01*
X77246894Y-41770285D01*
X77493500Y-41770285D01*
X77493500Y-41612241D01*
X77331061Y-41612241D01*
X77295393Y-41612160D01*
X77239623Y-41611363D01*
X77200485Y-41609358D01*
X77174031Y-41605717D01*
X77156314Y-41600008D01*
X77143384Y-41591803D01*
X77139741Y-41588619D01*
X77121333Y-41557644D01*
X77120699Y-41521308D01*
X77138238Y-41487689D01*
X77138300Y-41487620D01*
X77147971Y-41478994D01*
X77161264Y-41472938D01*
X77181972Y-41469007D01*
X77213883Y-41466752D01*
X77260789Y-41465727D01*
X77326479Y-41465485D01*
X77494626Y-41465485D01*
X77491241Y-41400574D01*
X77487855Y-41335663D01*
X77245778Y-41332610D01*
X77220762Y-41332282D01*
X77139142Y-41330802D01*
X77076823Y-41328418D01*
X77031209Y-41324423D01*
X76999707Y-41318109D01*
X76979722Y-41308770D01*
X76968659Y-41295699D01*
X76963924Y-41278188D01*
X76962922Y-41255531D01*
X76962928Y-41253166D01*
X76964082Y-41233135D01*
X76968879Y-41217342D01*
X76979687Y-41205286D01*
X76998872Y-41196463D01*
X77028800Y-41190371D01*
X77071838Y-41186507D01*
X77130354Y-41184370D01*
X77206712Y-41183456D01*
X77303281Y-41183263D01*
X77593461Y-41183263D01*
X77616858Y-41213007D01*
G36*
X77616858Y-41213007D02*
G01*
X77621807Y-41219691D01*
X77627651Y-41230262D01*
X77632112Y-41244349D01*
X77635376Y-41264674D01*
X77637629Y-41293961D01*
X77639057Y-41334933D01*
X77639847Y-41390313D01*
X77640184Y-41462824D01*
X77640255Y-41555190D01*
X77640226Y-41621107D01*
X77639994Y-41699424D01*
X77639374Y-41759692D01*
X77638181Y-41804589D01*
X77636234Y-41836798D01*
X77633349Y-41858996D01*
X77629343Y-41873865D01*
X77624034Y-41884085D01*
X77617238Y-41892334D01*
X77612723Y-41896991D01*
X77604493Y-41903478D01*
X77593133Y-41908390D01*
X77575865Y-41911945D01*
X77549910Y-41914363D01*
X77512491Y-41915863D01*
X77460828Y-41916663D01*
X77392144Y-41916983D01*
X77303661Y-41917041D01*
X77283986Y-41917034D01*
X77196961Y-41916768D01*
X77129309Y-41916002D01*
X77078354Y-41914588D01*
X77041422Y-41912376D01*
X77015838Y-41909218D01*
X76998926Y-41904965D01*
X76988012Y-41899467D01*
X76977519Y-41889481D01*
X76964258Y-41858364D01*
X76965441Y-41822476D01*
X76981605Y-41790929D01*
X76983794Y-41788653D01*
X76992482Y-41782385D01*
X77005824Y-41777719D01*
X77026807Y-41774423D01*
X77058418Y-41772264D01*
X77103645Y-41771010D01*
X77165475Y-41770427D01*
X77246894Y-41770285D01*
X77493500Y-41770285D01*
X77493500Y-41612241D01*
X77331061Y-41612241D01*
X77295393Y-41612160D01*
X77239623Y-41611363D01*
X77200485Y-41609358D01*
X77174031Y-41605717D01*
X77156314Y-41600008D01*
X77143384Y-41591803D01*
X77139741Y-41588619D01*
X77121333Y-41557644D01*
X77120699Y-41521308D01*
X77138238Y-41487689D01*
X77138300Y-41487620D01*
X77147971Y-41478994D01*
X77161264Y-41472938D01*
X77181972Y-41469007D01*
X77213883Y-41466752D01*
X77260789Y-41465727D01*
X77326479Y-41465485D01*
X77494626Y-41465485D01*
X77491241Y-41400574D01*
X77487855Y-41335663D01*
X77245778Y-41332610D01*
X77220762Y-41332282D01*
X77139142Y-41330802D01*
X77076823Y-41328418D01*
X77031209Y-41324423D01*
X76999707Y-41318109D01*
X76979722Y-41308770D01*
X76968659Y-41295699D01*
X76963924Y-41278188D01*
X76962922Y-41255531D01*
X76962928Y-41253166D01*
X76964082Y-41233135D01*
X76968879Y-41217342D01*
X76979687Y-41205286D01*
X76998872Y-41196463D01*
X77028800Y-41190371D01*
X77071838Y-41186507D01*
X77130354Y-41184370D01*
X77206712Y-41183456D01*
X77303281Y-41183263D01*
X77593461Y-41183263D01*
X77616858Y-41213007D01*
G37*
X82293789Y-41183279D02*
X82370886Y-41183471D01*
X82429832Y-41184056D01*
X82473419Y-41185247D01*
X82504438Y-41187260D01*
X82525680Y-41190308D01*
X82539937Y-41194605D01*
X82550000Y-41200368D01*
X82558661Y-41207808D01*
X82560446Y-41209489D01*
X82567690Y-41217028D01*
X82573332Y-41226046D01*
X82577572Y-41239180D01*
X82580611Y-41259068D01*
X82582649Y-41288347D01*
X82583885Y-41329654D01*
X82584520Y-41385627D01*
X82584755Y-41458903D01*
X82584789Y-41552119D01*
X82584752Y-41624909D01*
X82584503Y-41703085D01*
X82583867Y-41763299D01*
X82582670Y-41808178D01*
X82580739Y-41840348D01*
X82577901Y-41862435D01*
X82573982Y-41877066D01*
X82568810Y-41886866D01*
X82562211Y-41894463D01*
X82558877Y-41897640D01*
X82550355Y-41903750D01*
X82538353Y-41908425D01*
X82520142Y-41911855D01*
X82492995Y-41914232D01*
X82454184Y-41915748D01*
X82400979Y-41916594D01*
X82330653Y-41916961D01*
X82240477Y-41917041D01*
X82198369Y-41917029D01*
X82117222Y-41916847D01*
X82054730Y-41916294D01*
X82008164Y-41915178D01*
X81974796Y-41913309D01*
X81951899Y-41910494D01*
X81936743Y-41906542D01*
X81926601Y-41901262D01*
X81918744Y-41894463D01*
X81904018Y-41872863D01*
X81896166Y-41843663D01*
X81901665Y-41819756D01*
X81918744Y-41792863D01*
X81923723Y-41788255D01*
X81933498Y-41781968D01*
X81947614Y-41777342D01*
X81969109Y-41774126D01*
X82001023Y-41772066D01*
X82046397Y-41770908D01*
X82108268Y-41770398D01*
X82189677Y-41770285D01*
X82438033Y-41770285D01*
X82438033Y-41612241D01*
X82276856Y-41612241D01*
X82241038Y-41612095D01*
X82175414Y-41610372D01*
X82128173Y-41605937D01*
X82096438Y-41597833D01*
X82077332Y-41585102D01*
X82067978Y-41566788D01*
X82065500Y-41541934D01*
X82066297Y-41521678D01*
X82071549Y-41499852D01*
X82084343Y-41484500D01*
X82107683Y-41474505D01*
X82144572Y-41468749D01*
X82198014Y-41466115D01*
X82271013Y-41465485D01*
X82439160Y-41465485D01*
X82435774Y-41400574D01*
X82432389Y-41335663D01*
X82184672Y-41332614D01*
X82122081Y-41331735D01*
X82053620Y-41330291D01*
X82002716Y-41328360D01*
X81966463Y-41325710D01*
X81941956Y-41322106D01*
X81926290Y-41317317D01*
X81916561Y-41311109D01*
X81910546Y-41304706D01*
X81897537Y-41273024D01*
X81901098Y-41237338D01*
X81920873Y-41206280D01*
X81924124Y-41203357D01*
X81933104Y-41197006D01*
X81945208Y-41192153D01*
X81963214Y-41188599D01*
X81989902Y-41186142D01*
X82028052Y-41184581D01*
X82080441Y-41183714D01*
X82149849Y-41183342D01*
X82239056Y-41183263D01*
X82293789Y-41183279D01*
G36*
X82293789Y-41183279D02*
G01*
X82370886Y-41183471D01*
X82429832Y-41184056D01*
X82473419Y-41185247D01*
X82504438Y-41187260D01*
X82525680Y-41190308D01*
X82539937Y-41194605D01*
X82550000Y-41200368D01*
X82558661Y-41207808D01*
X82560446Y-41209489D01*
X82567690Y-41217028D01*
X82573332Y-41226046D01*
X82577572Y-41239180D01*
X82580611Y-41259068D01*
X82582649Y-41288347D01*
X82583885Y-41329654D01*
X82584520Y-41385627D01*
X82584755Y-41458903D01*
X82584789Y-41552119D01*
X82584752Y-41624909D01*
X82584503Y-41703085D01*
X82583867Y-41763299D01*
X82582670Y-41808178D01*
X82580739Y-41840348D01*
X82577901Y-41862435D01*
X82573982Y-41877066D01*
X82568810Y-41886866D01*
X82562211Y-41894463D01*
X82558877Y-41897640D01*
X82550355Y-41903750D01*
X82538353Y-41908425D01*
X82520142Y-41911855D01*
X82492995Y-41914232D01*
X82454184Y-41915748D01*
X82400979Y-41916594D01*
X82330653Y-41916961D01*
X82240477Y-41917041D01*
X82198369Y-41917029D01*
X82117222Y-41916847D01*
X82054730Y-41916294D01*
X82008164Y-41915178D01*
X81974796Y-41913309D01*
X81951899Y-41910494D01*
X81936743Y-41906542D01*
X81926601Y-41901262D01*
X81918744Y-41894463D01*
X81904018Y-41872863D01*
X81896166Y-41843663D01*
X81901665Y-41819756D01*
X81918744Y-41792863D01*
X81923723Y-41788255D01*
X81933498Y-41781968D01*
X81947614Y-41777342D01*
X81969109Y-41774126D01*
X82001023Y-41772066D01*
X82046397Y-41770908D01*
X82108268Y-41770398D01*
X82189677Y-41770285D01*
X82438033Y-41770285D01*
X82438033Y-41612241D01*
X82276856Y-41612241D01*
X82241038Y-41612095D01*
X82175414Y-41610372D01*
X82128173Y-41605937D01*
X82096438Y-41597833D01*
X82077332Y-41585102D01*
X82067978Y-41566788D01*
X82065500Y-41541934D01*
X82066297Y-41521678D01*
X82071549Y-41499852D01*
X82084343Y-41484500D01*
X82107683Y-41474505D01*
X82144572Y-41468749D01*
X82198014Y-41466115D01*
X82271013Y-41465485D01*
X82439160Y-41465485D01*
X82435774Y-41400574D01*
X82432389Y-41335663D01*
X82184672Y-41332614D01*
X82122081Y-41331735D01*
X82053620Y-41330291D01*
X82002716Y-41328360D01*
X81966463Y-41325710D01*
X81941956Y-41322106D01*
X81926290Y-41317317D01*
X81916561Y-41311109D01*
X81910546Y-41304706D01*
X81897537Y-41273024D01*
X81901098Y-41237338D01*
X81920873Y-41206280D01*
X81924124Y-41203357D01*
X81933104Y-41197006D01*
X81945208Y-41192153D01*
X81963214Y-41188599D01*
X81989902Y-41186142D01*
X82028052Y-41184581D01*
X82080441Y-41183714D01*
X82149849Y-41183342D01*
X82239056Y-41183263D01*
X82293789Y-41183279D01*
G37*
X73726757Y-41192674D02*
X73744718Y-41211185D01*
X73765318Y-41242267D01*
X73790150Y-41287952D01*
X73820805Y-41350274D01*
X73858875Y-41431267D01*
X73873509Y-41462650D01*
X73903258Y-41525834D01*
X73929352Y-41580440D01*
X73950347Y-41623486D01*
X73964794Y-41651989D01*
X73971246Y-41662966D01*
X73972605Y-41662385D01*
X73982597Y-41648438D01*
X73999888Y-41618900D01*
X74022485Y-41577283D01*
X74048393Y-41527099D01*
X74064366Y-41495610D01*
X74093316Y-41440257D01*
X74115804Y-41401240D01*
X74134020Y-41375762D01*
X74150151Y-41361027D01*
X74166385Y-41354238D01*
X74184912Y-41352596D01*
X74195415Y-41353071D01*
X74211531Y-41357278D01*
X74226845Y-41368142D01*
X74243443Y-41388415D01*
X74263412Y-41420850D01*
X74288838Y-41468200D01*
X74321807Y-41533218D01*
X74331540Y-41552473D01*
X74355998Y-41599142D01*
X74376233Y-41635305D01*
X74390366Y-41657693D01*
X74396515Y-41663041D01*
X74397882Y-41659769D01*
X74407257Y-41638860D01*
X74424117Y-41601921D01*
X74447034Y-41552070D01*
X74474575Y-41492422D01*
X74505310Y-41426094D01*
X74532025Y-41368873D01*
X74561648Y-41306884D01*
X74584719Y-41261145D01*
X74602698Y-41229104D01*
X74617045Y-41208210D01*
X74629221Y-41195914D01*
X74640687Y-41189662D01*
X74650097Y-41186770D01*
X74675202Y-41186621D01*
X74702345Y-41201964D01*
X74703645Y-41202949D01*
X74725729Y-41225584D01*
X74736778Y-41247809D01*
X74736824Y-41248449D01*
X74732283Y-41266111D01*
X74719419Y-41300677D01*
X74699660Y-41349022D01*
X74674436Y-41408021D01*
X74645174Y-41474551D01*
X74613305Y-41545487D01*
X74580256Y-41617703D01*
X74547456Y-41688076D01*
X74516335Y-41753481D01*
X74488320Y-41810793D01*
X74464841Y-41856888D01*
X74447327Y-41888642D01*
X74437206Y-41902929D01*
X74402798Y-41916298D01*
X74361101Y-41909937D01*
X74355736Y-41905240D01*
X74339907Y-41883089D01*
X74317705Y-41846328D01*
X74291288Y-41798611D01*
X74262815Y-41743589D01*
X74183041Y-41584346D01*
X74109854Y-41730938D01*
X74100158Y-41750228D01*
X74073180Y-41802576D01*
X74049151Y-41847366D01*
X74030387Y-41880350D01*
X74019201Y-41897285D01*
X74018055Y-41898528D01*
X73989934Y-41913815D01*
X73954872Y-41915498D01*
X73923831Y-41902929D01*
X73921405Y-41900080D01*
X73909145Y-41879455D01*
X73889407Y-41841904D01*
X73863503Y-41790076D01*
X73832740Y-41726619D01*
X73798430Y-41654181D01*
X73761880Y-41575412D01*
X73741640Y-41531289D01*
X73704867Y-41450561D01*
X73676410Y-41386883D01*
X73655386Y-41337948D01*
X73640909Y-41301453D01*
X73632094Y-41275091D01*
X73628059Y-41256557D01*
X73627917Y-41243548D01*
X73630785Y-41233757D01*
X73645442Y-41212874D01*
X73672045Y-41192573D01*
X73672800Y-41192231D01*
X73692390Y-41185230D01*
X73709845Y-41184700D01*
X73726757Y-41192674D01*
G36*
X73726757Y-41192674D02*
G01*
X73744718Y-41211185D01*
X73765318Y-41242267D01*
X73790150Y-41287952D01*
X73820805Y-41350274D01*
X73858875Y-41431267D01*
X73873509Y-41462650D01*
X73903258Y-41525834D01*
X73929352Y-41580440D01*
X73950347Y-41623486D01*
X73964794Y-41651989D01*
X73971246Y-41662966D01*
X73972605Y-41662385D01*
X73982597Y-41648438D01*
X73999888Y-41618900D01*
X74022485Y-41577283D01*
X74048393Y-41527099D01*
X74064366Y-41495610D01*
X74093316Y-41440257D01*
X74115804Y-41401240D01*
X74134020Y-41375762D01*
X74150151Y-41361027D01*
X74166385Y-41354238D01*
X74184912Y-41352596D01*
X74195415Y-41353071D01*
X74211531Y-41357278D01*
X74226845Y-41368142D01*
X74243443Y-41388415D01*
X74263412Y-41420850D01*
X74288838Y-41468200D01*
X74321807Y-41533218D01*
X74331540Y-41552473D01*
X74355998Y-41599142D01*
X74376233Y-41635305D01*
X74390366Y-41657693D01*
X74396515Y-41663041D01*
X74397882Y-41659769D01*
X74407257Y-41638860D01*
X74424117Y-41601921D01*
X74447034Y-41552070D01*
X74474575Y-41492422D01*
X74505310Y-41426094D01*
X74532025Y-41368873D01*
X74561648Y-41306884D01*
X74584719Y-41261145D01*
X74602698Y-41229104D01*
X74617045Y-41208210D01*
X74629221Y-41195914D01*
X74640687Y-41189662D01*
X74650097Y-41186770D01*
X74675202Y-41186621D01*
X74702345Y-41201964D01*
X74703645Y-41202949D01*
X74725729Y-41225584D01*
X74736778Y-41247809D01*
X74736824Y-41248449D01*
X74732283Y-41266111D01*
X74719419Y-41300677D01*
X74699660Y-41349022D01*
X74674436Y-41408021D01*
X74645174Y-41474551D01*
X74613305Y-41545487D01*
X74580256Y-41617703D01*
X74547456Y-41688076D01*
X74516335Y-41753481D01*
X74488320Y-41810793D01*
X74464841Y-41856888D01*
X74447327Y-41888642D01*
X74437206Y-41902929D01*
X74402798Y-41916298D01*
X74361101Y-41909937D01*
X74355736Y-41905240D01*
X74339907Y-41883089D01*
X74317705Y-41846328D01*
X74291288Y-41798611D01*
X74262815Y-41743589D01*
X74183041Y-41584346D01*
X74109854Y-41730938D01*
X74100158Y-41750228D01*
X74073180Y-41802576D01*
X74049151Y-41847366D01*
X74030387Y-41880350D01*
X74019201Y-41897285D01*
X74018055Y-41898528D01*
X73989934Y-41913815D01*
X73954872Y-41915498D01*
X73923831Y-41902929D01*
X73921405Y-41900080D01*
X73909145Y-41879455D01*
X73889407Y-41841904D01*
X73863503Y-41790076D01*
X73832740Y-41726619D01*
X73798430Y-41654181D01*
X73761880Y-41575412D01*
X73741640Y-41531289D01*
X73704867Y-41450561D01*
X73676410Y-41386883D01*
X73655386Y-41337948D01*
X73640909Y-41301453D01*
X73632094Y-41275091D01*
X73628059Y-41256557D01*
X73627917Y-41243548D01*
X73630785Y-41233757D01*
X73645442Y-41212874D01*
X73672045Y-41192573D01*
X73672800Y-41192231D01*
X73692390Y-41185230D01*
X73709845Y-41184700D01*
X73726757Y-41192674D01*
G37*
X81277908Y-41184132D02*
X81344155Y-41189562D01*
X81399455Y-41199160D01*
X81450338Y-41214021D01*
X81521650Y-41247154D01*
X81572807Y-41289836D01*
X81603630Y-41341901D01*
X81613944Y-41403179D01*
X81613007Y-41434428D01*
X81607215Y-41459225D01*
X81592408Y-41480895D01*
X81564435Y-41508245D01*
X81556457Y-41515574D01*
X81532747Y-41536477D01*
X81510353Y-41553447D01*
X81486320Y-41567401D01*
X81457692Y-41579252D01*
X81421515Y-41589916D01*
X81374835Y-41600307D01*
X81314696Y-41611342D01*
X81238145Y-41623934D01*
X81142226Y-41639000D01*
X81123863Y-41642034D01*
X81061533Y-41655654D01*
X81016315Y-41671388D01*
X80990031Y-41688459D01*
X80984502Y-41706093D01*
X80987123Y-41710364D01*
X81005055Y-41725429D01*
X81033181Y-41742063D01*
X81045981Y-41748053D01*
X81067279Y-41755246D01*
X81093665Y-41760023D01*
X81129509Y-41762842D01*
X81179183Y-41764160D01*
X81247055Y-41764433D01*
X81264840Y-41764360D01*
X81332461Y-41763249D01*
X81397400Y-41761024D01*
X81453025Y-41757958D01*
X81492706Y-41754323D01*
X81528217Y-41750255D01*
X81557470Y-41749472D01*
X81576370Y-41754072D01*
X81591484Y-41764747D01*
X81595140Y-41768340D01*
X81611482Y-41800114D01*
X81610162Y-41835768D01*
X81591205Y-41866386D01*
X81570835Y-41877992D01*
X81534851Y-41890687D01*
X81492427Y-41900737D01*
X81488977Y-41901336D01*
X81446307Y-41906552D01*
X81388921Y-41910926D01*
X81323904Y-41914014D01*
X81258344Y-41915373D01*
X81242112Y-41915414D01*
X81143799Y-41912937D01*
X81063747Y-41904931D01*
X80998568Y-41890399D01*
X80944872Y-41868345D01*
X80899271Y-41837772D01*
X80858378Y-41797682D01*
X80838257Y-41771455D01*
X80826631Y-41741908D01*
X80823722Y-41702191D01*
X80823863Y-41690222D01*
X80827736Y-41657541D01*
X80840120Y-41631015D01*
X80865285Y-41600167D01*
X80886497Y-41578027D01*
X80912893Y-41555481D01*
X80942610Y-41537113D01*
X80978840Y-41521857D01*
X81024772Y-41508645D01*
X81083599Y-41496410D01*
X81158511Y-41484085D01*
X81252700Y-41470602D01*
X81298012Y-41463592D01*
X81365966Y-41449033D01*
X81415102Y-41432533D01*
X81444669Y-41414635D01*
X81453919Y-41395881D01*
X81442103Y-41376811D01*
X81408471Y-41357967D01*
X81405425Y-41356753D01*
X81359066Y-41344675D01*
X81296416Y-41336475D01*
X81222982Y-41332315D01*
X81144272Y-41332357D01*
X81065794Y-41336765D01*
X80993055Y-41345701D01*
X80989128Y-41346350D01*
X80940312Y-41354057D01*
X80908060Y-41357669D01*
X80887063Y-41357072D01*
X80872009Y-41352150D01*
X80857589Y-41342792D01*
X80856419Y-41341921D01*
X80831902Y-41311547D01*
X80827109Y-41276046D01*
X80842915Y-41241465D01*
X80847461Y-41237009D01*
X80877075Y-41221869D01*
X80924057Y-41208746D01*
X80984361Y-41197946D01*
X81053943Y-41189777D01*
X81128758Y-41184547D01*
X81204761Y-41182563D01*
X81277908Y-41184132D01*
G36*
X81277908Y-41184132D02*
G01*
X81344155Y-41189562D01*
X81399455Y-41199160D01*
X81450338Y-41214021D01*
X81521650Y-41247154D01*
X81572807Y-41289836D01*
X81603630Y-41341901D01*
X81613944Y-41403179D01*
X81613007Y-41434428D01*
X81607215Y-41459225D01*
X81592408Y-41480895D01*
X81564435Y-41508245D01*
X81556457Y-41515574D01*
X81532747Y-41536477D01*
X81510353Y-41553447D01*
X81486320Y-41567401D01*
X81457692Y-41579252D01*
X81421515Y-41589916D01*
X81374835Y-41600307D01*
X81314696Y-41611342D01*
X81238145Y-41623934D01*
X81142226Y-41639000D01*
X81123863Y-41642034D01*
X81061533Y-41655654D01*
X81016315Y-41671388D01*
X80990031Y-41688459D01*
X80984502Y-41706093D01*
X80987123Y-41710364D01*
X81005055Y-41725429D01*
X81033181Y-41742063D01*
X81045981Y-41748053D01*
X81067279Y-41755246D01*
X81093665Y-41760023D01*
X81129509Y-41762842D01*
X81179183Y-41764160D01*
X81247055Y-41764433D01*
X81264840Y-41764360D01*
X81332461Y-41763249D01*
X81397400Y-41761024D01*
X81453025Y-41757958D01*
X81492706Y-41754323D01*
X81528217Y-41750255D01*
X81557470Y-41749472D01*
X81576370Y-41754072D01*
X81591484Y-41764747D01*
X81595140Y-41768340D01*
X81611482Y-41800114D01*
X81610162Y-41835768D01*
X81591205Y-41866386D01*
X81570835Y-41877992D01*
X81534851Y-41890687D01*
X81492427Y-41900737D01*
X81488977Y-41901336D01*
X81446307Y-41906552D01*
X81388921Y-41910926D01*
X81323904Y-41914014D01*
X81258344Y-41915373D01*
X81242112Y-41915414D01*
X81143799Y-41912937D01*
X81063747Y-41904931D01*
X80998568Y-41890399D01*
X80944872Y-41868345D01*
X80899271Y-41837772D01*
X80858378Y-41797682D01*
X80838257Y-41771455D01*
X80826631Y-41741908D01*
X80823722Y-41702191D01*
X80823863Y-41690222D01*
X80827736Y-41657541D01*
X80840120Y-41631015D01*
X80865285Y-41600167D01*
X80886497Y-41578027D01*
X80912893Y-41555481D01*
X80942610Y-41537113D01*
X80978840Y-41521857D01*
X81024772Y-41508645D01*
X81083599Y-41496410D01*
X81158511Y-41484085D01*
X81252700Y-41470602D01*
X81298012Y-41463592D01*
X81365966Y-41449033D01*
X81415102Y-41432533D01*
X81444669Y-41414635D01*
X81453919Y-41395881D01*
X81442103Y-41376811D01*
X81408471Y-41357967D01*
X81405425Y-41356753D01*
X81359066Y-41344675D01*
X81296416Y-41336475D01*
X81222982Y-41332315D01*
X81144272Y-41332357D01*
X81065794Y-41336765D01*
X80993055Y-41345701D01*
X80989128Y-41346350D01*
X80940312Y-41354057D01*
X80908060Y-41357669D01*
X80887063Y-41357072D01*
X80872009Y-41352150D01*
X80857589Y-41342792D01*
X80856419Y-41341921D01*
X80831902Y-41311547D01*
X80827109Y-41276046D01*
X80842915Y-41241465D01*
X80847461Y-41237009D01*
X80877075Y-41221869D01*
X80924057Y-41208746D01*
X80984361Y-41197946D01*
X81053943Y-41189777D01*
X81128758Y-41184547D01*
X81204761Y-41182563D01*
X81277908Y-41184132D01*
G37*
X77425766Y-36876229D02*
X77521323Y-36893719D01*
X77685613Y-36938760D01*
X77839644Y-37001852D01*
X77985564Y-37084111D01*
X78125521Y-37186653D01*
X78261663Y-37310595D01*
X78305528Y-37355857D01*
X78417813Y-37488061D01*
X78511027Y-37626028D01*
X78587774Y-37773946D01*
X78650658Y-37935999D01*
X78654475Y-37947587D01*
X78704562Y-38133588D01*
X78737954Y-38329717D01*
X78754639Y-38531764D01*
X78754606Y-38735521D01*
X78737846Y-38936777D01*
X78704347Y-39131324D01*
X78654099Y-39314952D01*
X78610245Y-39432249D01*
X78532403Y-39595147D01*
X78438883Y-39749062D01*
X78331877Y-39890867D01*
X78213574Y-40017435D01*
X78086166Y-40125637D01*
X78008661Y-40178316D01*
X77881780Y-40247946D01*
X77744298Y-40306664D01*
X77602771Y-40351783D01*
X77463757Y-40380618D01*
X77449652Y-40382302D01*
X77406208Y-40385630D01*
X77348778Y-40388471D01*
X77283177Y-40390569D01*
X77215222Y-40391664D01*
X77088433Y-40389336D01*
X76940728Y-40376332D01*
X76802834Y-40351329D01*
X76669069Y-40313514D01*
X76645617Y-40305085D01*
X76597667Y-40285604D01*
X76541195Y-40260669D01*
X76479434Y-40231918D01*
X76415618Y-40200986D01*
X76352981Y-40169511D01*
X76294758Y-40139130D01*
X76244182Y-40111479D01*
X76204488Y-40088195D01*
X76178909Y-40070914D01*
X76170680Y-40061275D01*
X76172131Y-40058180D01*
X76183305Y-40038275D01*
X76204189Y-40002616D01*
X76233320Y-39953655D01*
X76269236Y-39893842D01*
X76310475Y-39825629D01*
X76355572Y-39751467D01*
X76536840Y-39454204D01*
X76583370Y-39498735D01*
X76674778Y-39577061D01*
X76788389Y-39651635D01*
X76906177Y-39705670D01*
X77026614Y-39738486D01*
X77148172Y-39749407D01*
X77189640Y-39748064D01*
X77307135Y-39729808D01*
X77417144Y-39690813D01*
X77518485Y-39631866D01*
X77609976Y-39553753D01*
X77690435Y-39457260D01*
X77758682Y-39343174D01*
X77774963Y-39308920D01*
X77821037Y-39185436D01*
X77856161Y-39047114D01*
X77880252Y-38897757D01*
X77893228Y-38741169D01*
X77895004Y-38581152D01*
X77885498Y-38421510D01*
X77864627Y-38266046D01*
X77832307Y-38118562D01*
X77788454Y-37982863D01*
X77751037Y-37896272D01*
X77686240Y-37782884D01*
X77610827Y-37689266D01*
X77524473Y-37615155D01*
X77426850Y-37560290D01*
X77317632Y-37524408D01*
X77196494Y-37507247D01*
X77127093Y-37506076D01*
X77004223Y-37520337D01*
X76888719Y-37555437D01*
X76782008Y-37610878D01*
X76685519Y-37686160D01*
X76669775Y-37700636D01*
X76639205Y-37727158D01*
X76616864Y-37744334D01*
X76606746Y-37748983D01*
X76604761Y-37746793D01*
X76590296Y-37727917D01*
X76566455Y-37694593D01*
X76535084Y-37649576D01*
X76498029Y-37595621D01*
X76457138Y-37535481D01*
X76414257Y-37471914D01*
X76371233Y-37407672D01*
X76329912Y-37345511D01*
X76292141Y-37288187D01*
X76259767Y-37238453D01*
X76234637Y-37199064D01*
X76218597Y-37172776D01*
X76213494Y-37162343D01*
X76218105Y-37158137D01*
X76237322Y-37153129D01*
X76246893Y-37150582D01*
X76274864Y-37139445D01*
X76316503Y-37120998D01*
X76368050Y-37096921D01*
X76425745Y-37068895D01*
X76437012Y-37063350D01*
X76614742Y-36984085D01*
X76784545Y-36924581D01*
X76948485Y-36884441D01*
X77108626Y-36863267D01*
X77267032Y-36860662D01*
X77425766Y-36876229D01*
G36*
X77425766Y-36876229D02*
G01*
X77521323Y-36893719D01*
X77685613Y-36938760D01*
X77839644Y-37001852D01*
X77985564Y-37084111D01*
X78125521Y-37186653D01*
X78261663Y-37310595D01*
X78305528Y-37355857D01*
X78417813Y-37488061D01*
X78511027Y-37626028D01*
X78587774Y-37773946D01*
X78650658Y-37935999D01*
X78654475Y-37947587D01*
X78704562Y-38133588D01*
X78737954Y-38329717D01*
X78754639Y-38531764D01*
X78754606Y-38735521D01*
X78737846Y-38936777D01*
X78704347Y-39131324D01*
X78654099Y-39314952D01*
X78610245Y-39432249D01*
X78532403Y-39595147D01*
X78438883Y-39749062D01*
X78331877Y-39890867D01*
X78213574Y-40017435D01*
X78086166Y-40125637D01*
X78008661Y-40178316D01*
X77881780Y-40247946D01*
X77744298Y-40306664D01*
X77602771Y-40351783D01*
X77463757Y-40380618D01*
X77449652Y-40382302D01*
X77406208Y-40385630D01*
X77348778Y-40388471D01*
X77283177Y-40390569D01*
X77215222Y-40391664D01*
X77088433Y-40389336D01*
X76940728Y-40376332D01*
X76802834Y-40351329D01*
X76669069Y-40313514D01*
X76645617Y-40305085D01*
X76597667Y-40285604D01*
X76541195Y-40260669D01*
X76479434Y-40231918D01*
X76415618Y-40200986D01*
X76352981Y-40169511D01*
X76294758Y-40139130D01*
X76244182Y-40111479D01*
X76204488Y-40088195D01*
X76178909Y-40070914D01*
X76170680Y-40061275D01*
X76172131Y-40058180D01*
X76183305Y-40038275D01*
X76204189Y-40002616D01*
X76233320Y-39953655D01*
X76269236Y-39893842D01*
X76310475Y-39825629D01*
X76355572Y-39751467D01*
X76536840Y-39454204D01*
X76583370Y-39498735D01*
X76674778Y-39577061D01*
X76788389Y-39651635D01*
X76906177Y-39705670D01*
X77026614Y-39738486D01*
X77148172Y-39749407D01*
X77189640Y-39748064D01*
X77307135Y-39729808D01*
X77417144Y-39690813D01*
X77518485Y-39631866D01*
X77609976Y-39553753D01*
X77690435Y-39457260D01*
X77758682Y-39343174D01*
X77774963Y-39308920D01*
X77821037Y-39185436D01*
X77856161Y-39047114D01*
X77880252Y-38897757D01*
X77893228Y-38741169D01*
X77895004Y-38581152D01*
X77885498Y-38421510D01*
X77864627Y-38266046D01*
X77832307Y-38118562D01*
X77788454Y-37982863D01*
X77751037Y-37896272D01*
X77686240Y-37782884D01*
X77610827Y-37689266D01*
X77524473Y-37615155D01*
X77426850Y-37560290D01*
X77317632Y-37524408D01*
X77196494Y-37507247D01*
X77127093Y-37506076D01*
X77004223Y-37520337D01*
X76888719Y-37555437D01*
X76782008Y-37610878D01*
X76685519Y-37686160D01*
X76669775Y-37700636D01*
X76639205Y-37727158D01*
X76616864Y-37744334D01*
X76606746Y-37748983D01*
X76604761Y-37746793D01*
X76590296Y-37727917D01*
X76566455Y-37694593D01*
X76535084Y-37649576D01*
X76498029Y-37595621D01*
X76457138Y-37535481D01*
X76414257Y-37471914D01*
X76371233Y-37407672D01*
X76329912Y-37345511D01*
X76292141Y-37288187D01*
X76259767Y-37238453D01*
X76234637Y-37199064D01*
X76218597Y-37172776D01*
X76213494Y-37162343D01*
X76218105Y-37158137D01*
X76237322Y-37153129D01*
X76246893Y-37150582D01*
X76274864Y-37139445D01*
X76316503Y-37120998D01*
X76368050Y-37096921D01*
X76425745Y-37068895D01*
X76437012Y-37063350D01*
X76614742Y-36984085D01*
X76784545Y-36924581D01*
X76948485Y-36884441D01*
X77108626Y-36863267D01*
X77267032Y-36860662D01*
X77425766Y-36876229D01*
G37*
X73623049Y-39156907D02*
X73622323Y-39234354D01*
X73613744Y-39385790D01*
X73594888Y-39522479D01*
X73564892Y-39648472D01*
X73522891Y-39767821D01*
X73468024Y-39884577D01*
X73401222Y-39995375D01*
X73310418Y-40108935D01*
X73206763Y-40204407D01*
X73090942Y-40281269D01*
X72963641Y-40338993D01*
X72825544Y-40377054D01*
X72787848Y-40382862D01*
X72708807Y-40388592D01*
X72620684Y-40388779D01*
X72531291Y-40383735D01*
X72448439Y-40373774D01*
X72379942Y-40359208D01*
X72349090Y-40349560D01*
X72271785Y-40319319D01*
X72194734Y-40281813D01*
X72125255Y-40240810D01*
X72070670Y-40200075D01*
X72047971Y-40180701D01*
X72025256Y-40162858D01*
X72013834Y-40155974D01*
X72012592Y-40157620D01*
X72009783Y-40175401D01*
X72007831Y-40208566D01*
X72007100Y-40251929D01*
X72007100Y-40347885D01*
X71148951Y-40347885D01*
X71183216Y-40287170D01*
X71188410Y-40278064D01*
X71196770Y-40263445D01*
X71204343Y-40249369D01*
X71211167Y-40234736D01*
X71217282Y-40218445D01*
X71222728Y-40199394D01*
X71227542Y-40176482D01*
X71231763Y-40148609D01*
X71235432Y-40114674D01*
X71238586Y-40073575D01*
X71241266Y-40024211D01*
X71243509Y-39965482D01*
X71245354Y-39896286D01*
X71246842Y-39815522D01*
X71248010Y-39722090D01*
X71248899Y-39614888D01*
X71249546Y-39492816D01*
X71249991Y-39354772D01*
X71250273Y-39199655D01*
X71250430Y-39026364D01*
X71250503Y-38833799D01*
X71250529Y-38620858D01*
X71250540Y-38484726D01*
X72052255Y-38484726D01*
X72052255Y-39634917D01*
X72122811Y-39681285D01*
X72163472Y-39704987D01*
X72217601Y-39730835D01*
X72266744Y-39749025D01*
X72330220Y-39764747D01*
X72426386Y-39775737D01*
X72510955Y-39767561D01*
X72584274Y-39740001D01*
X72646692Y-39692838D01*
X72698557Y-39625854D01*
X72740215Y-39538829D01*
X72772017Y-39431546D01*
X72774600Y-39419205D01*
X72783055Y-39357968D01*
X72788718Y-39280888D01*
X72791631Y-39193198D01*
X72791838Y-39100130D01*
X72789385Y-39006916D01*
X72784316Y-38918790D01*
X72776674Y-38840984D01*
X72766503Y-38778729D01*
X72765222Y-38772862D01*
X72736181Y-38662317D01*
X72701665Y-38571771D01*
X72660511Y-38499149D01*
X72611554Y-38442377D01*
X72553629Y-38399380D01*
X72521675Y-38383811D01*
X72448839Y-38364918D01*
X72367498Y-38361661D01*
X72282374Y-38373585D01*
X72198188Y-38400236D01*
X72119663Y-38441158D01*
X72052255Y-38484726D01*
X71250540Y-38484726D01*
X71250548Y-38386441D01*
X71250744Y-36701574D01*
X72156072Y-36701574D01*
X72131640Y-36738263D01*
X72125373Y-36747843D01*
X72099263Y-36794177D01*
X72081524Y-36841298D01*
X72069963Y-36896447D01*
X72062386Y-36966863D01*
X72061894Y-36973846D01*
X72060117Y-37011837D01*
X72058499Y-37065772D01*
X72057054Y-37132899D01*
X72055795Y-37210467D01*
X72054735Y-37295724D01*
X72053884Y-37385920D01*
X72053258Y-37478303D01*
X72052867Y-37570121D01*
X72052725Y-37658623D01*
X72052845Y-37741058D01*
X72053238Y-37814675D01*
X72053917Y-37876722D01*
X72054896Y-37924447D01*
X72056187Y-37955100D01*
X72057802Y-37965929D01*
X72066012Y-37961529D01*
X72087702Y-37946558D01*
X72117069Y-37924644D01*
X72165934Y-37890432D01*
X72254180Y-37843910D01*
X72352971Y-37810242D01*
X72465565Y-37788427D01*
X72595219Y-37777461D01*
X72687725Y-37776415D01*
X72809066Y-37786210D01*
X72919154Y-37810370D01*
X73022444Y-37849981D01*
X73123393Y-37906128D01*
X73168558Y-37937079D01*
X73273966Y-38028311D01*
X73365593Y-38137302D01*
X73443387Y-38263922D01*
X73507296Y-38408041D01*
X73557269Y-38569528D01*
X73593253Y-38748255D01*
X73615198Y-38944091D01*
X73620955Y-39100130D01*
X73623049Y-39156907D01*
G36*
X73623049Y-39156907D02*
G01*
X73622323Y-39234354D01*
X73613744Y-39385790D01*
X73594888Y-39522479D01*
X73564892Y-39648472D01*
X73522891Y-39767821D01*
X73468024Y-39884577D01*
X73401222Y-39995375D01*
X73310418Y-40108935D01*
X73206763Y-40204407D01*
X73090942Y-40281269D01*
X72963641Y-40338993D01*
X72825544Y-40377054D01*
X72787848Y-40382862D01*
X72708807Y-40388592D01*
X72620684Y-40388779D01*
X72531291Y-40383735D01*
X72448439Y-40373774D01*
X72379942Y-40359208D01*
X72349090Y-40349560D01*
X72271785Y-40319319D01*
X72194734Y-40281813D01*
X72125255Y-40240810D01*
X72070670Y-40200075D01*
X72047971Y-40180701D01*
X72025256Y-40162858D01*
X72013834Y-40155974D01*
X72012592Y-40157620D01*
X72009783Y-40175401D01*
X72007831Y-40208566D01*
X72007100Y-40251929D01*
X72007100Y-40347885D01*
X71148951Y-40347885D01*
X71183216Y-40287170D01*
X71188410Y-40278064D01*
X71196770Y-40263445D01*
X71204343Y-40249369D01*
X71211167Y-40234736D01*
X71217282Y-40218445D01*
X71222728Y-40199394D01*
X71227542Y-40176482D01*
X71231763Y-40148609D01*
X71235432Y-40114674D01*
X71238586Y-40073575D01*
X71241266Y-40024211D01*
X71243509Y-39965482D01*
X71245354Y-39896286D01*
X71246842Y-39815522D01*
X71248010Y-39722090D01*
X71248899Y-39614888D01*
X71249546Y-39492816D01*
X71249991Y-39354772D01*
X71250273Y-39199655D01*
X71250430Y-39026364D01*
X71250503Y-38833799D01*
X71250529Y-38620858D01*
X71250540Y-38484726D01*
X72052255Y-38484726D01*
X72052255Y-39634917D01*
X72122811Y-39681285D01*
X72163472Y-39704987D01*
X72217601Y-39730835D01*
X72266744Y-39749025D01*
X72330220Y-39764747D01*
X72426386Y-39775737D01*
X72510955Y-39767561D01*
X72584274Y-39740001D01*
X72646692Y-39692838D01*
X72698557Y-39625854D01*
X72740215Y-39538829D01*
X72772017Y-39431546D01*
X72774600Y-39419205D01*
X72783055Y-39357968D01*
X72788718Y-39280888D01*
X72791631Y-39193198D01*
X72791838Y-39100130D01*
X72789385Y-39006916D01*
X72784316Y-38918790D01*
X72776674Y-38840984D01*
X72766503Y-38778729D01*
X72765222Y-38772862D01*
X72736181Y-38662317D01*
X72701665Y-38571771D01*
X72660511Y-38499149D01*
X72611554Y-38442377D01*
X72553629Y-38399380D01*
X72521675Y-38383811D01*
X72448839Y-38364918D01*
X72367498Y-38361661D01*
X72282374Y-38373585D01*
X72198188Y-38400236D01*
X72119663Y-38441158D01*
X72052255Y-38484726D01*
X71250540Y-38484726D01*
X71250548Y-38386441D01*
X71250744Y-36701574D01*
X72156072Y-36701574D01*
X72131640Y-36738263D01*
X72125373Y-36747843D01*
X72099263Y-36794177D01*
X72081524Y-36841298D01*
X72069963Y-36896447D01*
X72062386Y-36966863D01*
X72061894Y-36973846D01*
X72060117Y-37011837D01*
X72058499Y-37065772D01*
X72057054Y-37132899D01*
X72055795Y-37210467D01*
X72054735Y-37295724D01*
X72053884Y-37385920D01*
X72053258Y-37478303D01*
X72052867Y-37570121D01*
X72052725Y-37658623D01*
X72052845Y-37741058D01*
X72053238Y-37814675D01*
X72053917Y-37876722D01*
X72054896Y-37924447D01*
X72056187Y-37955100D01*
X72057802Y-37965929D01*
X72066012Y-37961529D01*
X72087702Y-37946558D01*
X72117069Y-37924644D01*
X72165934Y-37890432D01*
X72254180Y-37843910D01*
X72352971Y-37810242D01*
X72465565Y-37788427D01*
X72595219Y-37777461D01*
X72687725Y-37776415D01*
X72809066Y-37786210D01*
X72919154Y-37810370D01*
X73022444Y-37849981D01*
X73123393Y-37906128D01*
X73168558Y-37937079D01*
X73273966Y-38028311D01*
X73365593Y-38137302D01*
X73443387Y-38263922D01*
X73507296Y-38408041D01*
X73557269Y-38569528D01*
X73593253Y-38748255D01*
X73615198Y-38944091D01*
X73620955Y-39100130D01*
X73623049Y-39156907D01*
G37*
X76164810Y-39557663D02*
X76164316Y-39591559D01*
X76160687Y-39666398D01*
X76153077Y-39728597D01*
X76140743Y-39785180D01*
X76096368Y-39911272D01*
X76033455Y-40025875D01*
X75953293Y-40126764D01*
X75856795Y-40213120D01*
X75744877Y-40284128D01*
X75618452Y-40338972D01*
X75478433Y-40376834D01*
X75442204Y-40382547D01*
X75363210Y-40388509D01*
X75274896Y-40388842D01*
X75185130Y-40383855D01*
X75101777Y-40373862D01*
X75032706Y-40359174D01*
X74946242Y-40328945D01*
X74836341Y-40274253D01*
X74739011Y-40206739D01*
X74676922Y-40155752D01*
X74673660Y-40251818D01*
X74670398Y-40347885D01*
X74247505Y-40347885D01*
X74236598Y-40347882D01*
X74142111Y-40347576D01*
X74055386Y-40346812D01*
X73978892Y-40345647D01*
X73915098Y-40344138D01*
X73866473Y-40342343D01*
X73835488Y-40340317D01*
X73824611Y-40338118D01*
X73824633Y-40337659D01*
X73831669Y-40322106D01*
X73847489Y-40299267D01*
X73851789Y-40293834D01*
X73862832Y-40279802D01*
X73872366Y-40266382D01*
X73880516Y-40251918D01*
X73887407Y-40234752D01*
X73893166Y-40213230D01*
X73897917Y-40185694D01*
X73901786Y-40150488D01*
X73904899Y-40105956D01*
X73907380Y-40050442D01*
X73909355Y-39982289D01*
X73910949Y-39899841D01*
X73912289Y-39801442D01*
X73913499Y-39685435D01*
X73914704Y-39550164D01*
X73915650Y-39438782D01*
X74716433Y-39438782D01*
X74716433Y-39634658D01*
X74761103Y-39691169D01*
X74773840Y-39706408D01*
X74820659Y-39749040D01*
X74881310Y-39784868D01*
X74891952Y-39790046D01*
X74930731Y-39806941D01*
X74965747Y-39817105D01*
X75005777Y-39822521D01*
X75059596Y-39825174D01*
X75077703Y-39825579D01*
X75153066Y-39822736D01*
X75213798Y-39810816D01*
X75265507Y-39788233D01*
X75313801Y-39753407D01*
X75318858Y-39748994D01*
X75367327Y-39693356D01*
X75395514Y-39629529D01*
X75404807Y-39554478D01*
X75397575Y-39482889D01*
X75372851Y-39419841D01*
X75328304Y-39361954D01*
X75273374Y-39315004D01*
X75200949Y-39275157D01*
X75114395Y-39247459D01*
X75011725Y-39231292D01*
X74890949Y-39226038D01*
X74882062Y-39226053D01*
X74826715Y-39226851D01*
X74779791Y-39228684D01*
X74746008Y-39231307D01*
X74730083Y-39234470D01*
X74725998Y-39240937D01*
X74721627Y-39263071D01*
X74718659Y-39302184D01*
X74716969Y-39360135D01*
X74716433Y-39438782D01*
X73915650Y-39438782D01*
X73916030Y-39393974D01*
X73917283Y-39251208D01*
X73918706Y-39106138D01*
X73920231Y-38980223D01*
X73921988Y-38871632D01*
X73924106Y-38778530D01*
X73926715Y-38699087D01*
X73929945Y-38631469D01*
X73933924Y-38573845D01*
X73938783Y-38524381D01*
X73944652Y-38481246D01*
X73951659Y-38442606D01*
X73959935Y-38406630D01*
X73969609Y-38371485D01*
X73980811Y-38335338D01*
X73993671Y-38296357D01*
X74009145Y-38253287D01*
X74052049Y-38161067D01*
X74105790Y-38081295D01*
X74174631Y-38007161D01*
X74252240Y-37943601D01*
X74356816Y-37881921D01*
X74476299Y-37834398D01*
X74611563Y-37800763D01*
X74763481Y-37780748D01*
X74932927Y-37774085D01*
X74990945Y-37774483D01*
X75056453Y-37776531D01*
X75117748Y-37780900D01*
X75179152Y-37788231D01*
X75244987Y-37799165D01*
X75319575Y-37814343D01*
X75407239Y-37834405D01*
X75512300Y-37859993D01*
X75540861Y-37867016D01*
X75616109Y-37884972D01*
X75686443Y-37901016D01*
X75747622Y-37914224D01*
X75795409Y-37923670D01*
X75825566Y-37928427D01*
X75853838Y-37932106D01*
X75880115Y-37937383D01*
X75890114Y-37942138D01*
X75887007Y-37950977D01*
X75876249Y-37978268D01*
X75858919Y-38021102D01*
X75836181Y-38076621D01*
X75809202Y-38141968D01*
X75779145Y-38214285D01*
X75772548Y-38230075D01*
X75733962Y-38320680D01*
X75702823Y-38390413D01*
X75678972Y-38439601D01*
X75662253Y-38468570D01*
X75652509Y-38477648D01*
X75644821Y-38475601D01*
X75618470Y-38465956D01*
X75580037Y-38450386D01*
X75534877Y-38431011D01*
X75440348Y-38393010D01*
X75303535Y-38351976D01*
X75162344Y-38326808D01*
X75124369Y-38322807D01*
X75021114Y-38320643D01*
X74934007Y-38333818D01*
X74862184Y-38362952D01*
X74804786Y-38408662D01*
X74760951Y-38471568D01*
X74729817Y-38552288D01*
X74710525Y-38651441D01*
X74703105Y-38710420D01*
X74864991Y-38703641D01*
X74991550Y-38702009D01*
X75143006Y-38708390D01*
X75291451Y-38722973D01*
X75427633Y-38745078D01*
X75492300Y-38760017D01*
X75624545Y-38802937D01*
X75746817Y-38859536D01*
X75856740Y-38928213D01*
X75951938Y-39007366D01*
X76030035Y-39095392D01*
X76088654Y-39190689D01*
X76112650Y-39243060D01*
X76138287Y-39313786D01*
X76154533Y-39385008D01*
X76162877Y-39463908D01*
X76164745Y-39554478D01*
X76164810Y-39557663D01*
G36*
X76164810Y-39557663D02*
G01*
X76164316Y-39591559D01*
X76160687Y-39666398D01*
X76153077Y-39728597D01*
X76140743Y-39785180D01*
X76096368Y-39911272D01*
X76033455Y-40025875D01*
X75953293Y-40126764D01*
X75856795Y-40213120D01*
X75744877Y-40284128D01*
X75618452Y-40338972D01*
X75478433Y-40376834D01*
X75442204Y-40382547D01*
X75363210Y-40388509D01*
X75274896Y-40388842D01*
X75185130Y-40383855D01*
X75101777Y-40373862D01*
X75032706Y-40359174D01*
X74946242Y-40328945D01*
X74836341Y-40274253D01*
X74739011Y-40206739D01*
X74676922Y-40155752D01*
X74673660Y-40251818D01*
X74670398Y-40347885D01*
X74247505Y-40347885D01*
X74236598Y-40347882D01*
X74142111Y-40347576D01*
X74055386Y-40346812D01*
X73978892Y-40345647D01*
X73915098Y-40344138D01*
X73866473Y-40342343D01*
X73835488Y-40340317D01*
X73824611Y-40338118D01*
X73824633Y-40337659D01*
X73831669Y-40322106D01*
X73847489Y-40299267D01*
X73851789Y-40293834D01*
X73862832Y-40279802D01*
X73872366Y-40266382D01*
X73880516Y-40251918D01*
X73887407Y-40234752D01*
X73893166Y-40213230D01*
X73897917Y-40185694D01*
X73901786Y-40150488D01*
X73904899Y-40105956D01*
X73907380Y-40050442D01*
X73909355Y-39982289D01*
X73910949Y-39899841D01*
X73912289Y-39801442D01*
X73913499Y-39685435D01*
X73914704Y-39550164D01*
X73915650Y-39438782D01*
X74716433Y-39438782D01*
X74716433Y-39634658D01*
X74761103Y-39691169D01*
X74773840Y-39706408D01*
X74820659Y-39749040D01*
X74881310Y-39784868D01*
X74891952Y-39790046D01*
X74930731Y-39806941D01*
X74965747Y-39817105D01*
X75005777Y-39822521D01*
X75059596Y-39825174D01*
X75077703Y-39825579D01*
X75153066Y-39822736D01*
X75213798Y-39810816D01*
X75265507Y-39788233D01*
X75313801Y-39753407D01*
X75318858Y-39748994D01*
X75367327Y-39693356D01*
X75395514Y-39629529D01*
X75404807Y-39554478D01*
X75397575Y-39482889D01*
X75372851Y-39419841D01*
X75328304Y-39361954D01*
X75273374Y-39315004D01*
X75200949Y-39275157D01*
X75114395Y-39247459D01*
X75011725Y-39231292D01*
X74890949Y-39226038D01*
X74882062Y-39226053D01*
X74826715Y-39226851D01*
X74779791Y-39228684D01*
X74746008Y-39231307D01*
X74730083Y-39234470D01*
X74725998Y-39240937D01*
X74721627Y-39263071D01*
X74718659Y-39302184D01*
X74716969Y-39360135D01*
X74716433Y-39438782D01*
X73915650Y-39438782D01*
X73916030Y-39393974D01*
X73917283Y-39251208D01*
X73918706Y-39106138D01*
X73920231Y-38980223D01*
X73921988Y-38871632D01*
X73924106Y-38778530D01*
X73926715Y-38699087D01*
X73929945Y-38631469D01*
X73933924Y-38573845D01*
X73938783Y-38524381D01*
X73944652Y-38481246D01*
X73951659Y-38442606D01*
X73959935Y-38406630D01*
X73969609Y-38371485D01*
X73980811Y-38335338D01*
X73993671Y-38296357D01*
X74009145Y-38253287D01*
X74052049Y-38161067D01*
X74105790Y-38081295D01*
X74174631Y-38007161D01*
X74252240Y-37943601D01*
X74356816Y-37881921D01*
X74476299Y-37834398D01*
X74611563Y-37800763D01*
X74763481Y-37780748D01*
X74932927Y-37774085D01*
X74990945Y-37774483D01*
X75056453Y-37776531D01*
X75117748Y-37780900D01*
X75179152Y-37788231D01*
X75244987Y-37799165D01*
X75319575Y-37814343D01*
X75407239Y-37834405D01*
X75512300Y-37859993D01*
X75540861Y-37867016D01*
X75616109Y-37884972D01*
X75686443Y-37901016D01*
X75747622Y-37914224D01*
X75795409Y-37923670D01*
X75825566Y-37928427D01*
X75853838Y-37932106D01*
X75880115Y-37937383D01*
X75890114Y-37942138D01*
X75887007Y-37950977D01*
X75876249Y-37978268D01*
X75858919Y-38021102D01*
X75836181Y-38076621D01*
X75809202Y-38141968D01*
X75779145Y-38214285D01*
X75772548Y-38230075D01*
X75733962Y-38320680D01*
X75702823Y-38390413D01*
X75678972Y-38439601D01*
X75662253Y-38468570D01*
X75652509Y-38477648D01*
X75644821Y-38475601D01*
X75618470Y-38465956D01*
X75580037Y-38450386D01*
X75534877Y-38431011D01*
X75440348Y-38393010D01*
X75303535Y-38351976D01*
X75162344Y-38326808D01*
X75124369Y-38322807D01*
X75021114Y-38320643D01*
X74934007Y-38333818D01*
X74862184Y-38362952D01*
X74804786Y-38408662D01*
X74760951Y-38471568D01*
X74729817Y-38552288D01*
X74710525Y-38651441D01*
X74703105Y-38710420D01*
X74864991Y-38703641D01*
X74991550Y-38702009D01*
X75143006Y-38708390D01*
X75291451Y-38722973D01*
X75427633Y-38745078D01*
X75492300Y-38760017D01*
X75624545Y-38802937D01*
X75746817Y-38859536D01*
X75856740Y-38928213D01*
X75951938Y-39007366D01*
X76030035Y-39095392D01*
X76088654Y-39190689D01*
X76112650Y-39243060D01*
X76138287Y-39313786D01*
X76154533Y-39385008D01*
X76162877Y-39463908D01*
X76164745Y-39554478D01*
X76164810Y-39557663D01*
G37*
X83712669Y-37025988D02*
X83713114Y-37157207D01*
X83713417Y-37304412D01*
X83713603Y-37468545D01*
X83713697Y-37650548D01*
X83713726Y-37851361D01*
X83713716Y-38071928D01*
X83713691Y-38313188D01*
X83713677Y-38576085D01*
X83713677Y-38618236D01*
X83713701Y-38878864D01*
X83713740Y-39117992D01*
X83713763Y-39336556D01*
X83713742Y-39535491D01*
X83713648Y-39715731D01*
X83713450Y-39878211D01*
X83713118Y-40023866D01*
X83712624Y-40153630D01*
X83711938Y-40268439D01*
X83711031Y-40369226D01*
X83709872Y-40456926D01*
X83708433Y-40532475D01*
X83706684Y-40596807D01*
X83704595Y-40650857D01*
X83702138Y-40695559D01*
X83699282Y-40731848D01*
X83695998Y-40760659D01*
X83692257Y-40782927D01*
X83688029Y-40799586D01*
X83683284Y-40811571D01*
X83677994Y-40819817D01*
X83672128Y-40825258D01*
X83665657Y-40828830D01*
X83658552Y-40831466D01*
X83650783Y-40834102D01*
X83642321Y-40837673D01*
X83637963Y-40839341D01*
X83629450Y-40841307D01*
X83616749Y-40843107D01*
X83598940Y-40844751D01*
X83575104Y-40846243D01*
X83544321Y-40847593D01*
X83505672Y-40848807D01*
X83458237Y-40849893D01*
X83401098Y-40850857D01*
X83333334Y-40851707D01*
X83254026Y-40852449D01*
X83162254Y-40853093D01*
X83057099Y-40853643D01*
X82937642Y-40854109D01*
X82802963Y-40854496D01*
X82652143Y-40854812D01*
X82484261Y-40855065D01*
X82298400Y-40855262D01*
X82093638Y-40855409D01*
X81869057Y-40855514D01*
X81623737Y-40855585D01*
X81356759Y-40855628D01*
X81318376Y-40855633D01*
X81052977Y-40855676D01*
X80809105Y-40855721D01*
X80585838Y-40855744D01*
X80382251Y-40855720D01*
X80197422Y-40855626D01*
X80030428Y-40855439D01*
X79880345Y-40855135D01*
X79746251Y-40854690D01*
X79627221Y-40854081D01*
X79522334Y-40853285D01*
X79430665Y-40852276D01*
X79351292Y-40851033D01*
X79283292Y-40849531D01*
X79225741Y-40847747D01*
X79177717Y-40845657D01*
X79138295Y-40843238D01*
X79106554Y-40840466D01*
X79081569Y-40837317D01*
X79062419Y-40833768D01*
X79048178Y-40829794D01*
X79037926Y-40825374D01*
X79030737Y-40820482D01*
X79025690Y-40815096D01*
X79021860Y-40809192D01*
X79018326Y-40802745D01*
X79014163Y-40795733D01*
X79013080Y-40793883D01*
X79010868Y-40788376D01*
X79008841Y-40780064D01*
X79006993Y-40768005D01*
X79005316Y-40751259D01*
X79003800Y-40728883D01*
X79002438Y-40699936D01*
X79001222Y-40663476D01*
X79000144Y-40618563D01*
X78999195Y-40564253D01*
X78998367Y-40499606D01*
X78997652Y-40423680D01*
X78997042Y-40335534D01*
X78996997Y-40326689D01*
X79288433Y-40326689D01*
X79292315Y-40327961D01*
X79315575Y-40329987D01*
X79357929Y-40331822D01*
X79417187Y-40333423D01*
X79491162Y-40334745D01*
X79577665Y-40335744D01*
X79674507Y-40336376D01*
X79779500Y-40336596D01*
X80477706Y-40336596D01*
X81632145Y-40336596D01*
X81631511Y-40260396D01*
X81632629Y-40218356D01*
X81638359Y-40182530D01*
X81650945Y-40144968D01*
X81672623Y-40096773D01*
X81675844Y-40090093D01*
X81701243Y-40040555D01*
X81728051Y-39992565D01*
X81750972Y-39955662D01*
X81755540Y-39949030D01*
X81777571Y-39917789D01*
X81809748Y-39872850D01*
X81850512Y-39816343D01*
X81898300Y-39750400D01*
X81951553Y-39677153D01*
X82008710Y-39598732D01*
X82068210Y-39517268D01*
X82128492Y-39434894D01*
X82187995Y-39353740D01*
X82245160Y-39275938D01*
X82298425Y-39203619D01*
X82346229Y-39138914D01*
X82387012Y-39083955D01*
X82419213Y-39040872D01*
X82441271Y-39011798D01*
X82451626Y-38998863D01*
X82456099Y-38994547D01*
X82460291Y-38992508D01*
X82463698Y-38995122D01*
X82466380Y-39004182D01*
X82468396Y-39021481D01*
X82469803Y-39048810D01*
X82470660Y-39087961D01*
X82471025Y-39140729D01*
X82470958Y-39208903D01*
X82470515Y-39294278D01*
X82469757Y-39398645D01*
X82468740Y-39523796D01*
X82468363Y-39568496D01*
X82467224Y-39689591D01*
X82466027Y-39790884D01*
X82464691Y-39874458D01*
X82463132Y-39942400D01*
X82461270Y-39996795D01*
X82459021Y-40039728D01*
X82456303Y-40073285D01*
X82453034Y-40099551D01*
X82449133Y-40120612D01*
X82444516Y-40138553D01*
X82436247Y-40164966D01*
X82412638Y-40226968D01*
X82386740Y-40279769D01*
X82361590Y-40316841D01*
X82360394Y-40318271D01*
X82358223Y-40322620D01*
X82360383Y-40326222D01*
X82368699Y-40329147D01*
X82384995Y-40331465D01*
X82411096Y-40333247D01*
X82448826Y-40334563D01*
X82500011Y-40335482D01*
X82566475Y-40336074D01*
X82650042Y-40336411D01*
X82752538Y-40336561D01*
X82875787Y-40336596D01*
X83407351Y-40336596D01*
X83368578Y-40278979D01*
X83362487Y-40270089D01*
X83352031Y-40255265D01*
X83342634Y-40241618D01*
X83334238Y-40227961D01*
X83326788Y-40213107D01*
X83320228Y-40195866D01*
X83314501Y-40175051D01*
X83309550Y-40149476D01*
X83305321Y-40117951D01*
X83301756Y-40079289D01*
X83298799Y-40032303D01*
X83296395Y-39975804D01*
X83294486Y-39908605D01*
X83293017Y-39829518D01*
X83291931Y-39737356D01*
X83291173Y-39630930D01*
X83290685Y-39509053D01*
X83290413Y-39370537D01*
X83290298Y-39214195D01*
X83290286Y-39038838D01*
X83290320Y-38843278D01*
X83290344Y-38626329D01*
X83290335Y-38503709D01*
X83290298Y-38298643D01*
X83290282Y-38114312D01*
X83290343Y-37949530D01*
X83290539Y-37803112D01*
X83290925Y-37673870D01*
X83291560Y-37560618D01*
X83292499Y-37462171D01*
X83293800Y-37377340D01*
X83295519Y-37304940D01*
X83297714Y-37243785D01*
X83300440Y-37192688D01*
X83303756Y-37150463D01*
X83307717Y-37115923D01*
X83312380Y-37087882D01*
X83317802Y-37065154D01*
X83324041Y-37046552D01*
X83331152Y-37030889D01*
X83339193Y-37016980D01*
X83348221Y-37003637D01*
X83358291Y-36989675D01*
X83369462Y-36973907D01*
X83409252Y-36916063D01*
X82349369Y-36916063D01*
X82387366Y-36979162D01*
X82402048Y-37004201D01*
X82416586Y-37031782D01*
X82428682Y-37059896D01*
X82438587Y-37090747D01*
X82446549Y-37126540D01*
X82452816Y-37169479D01*
X82457637Y-37221770D01*
X82461261Y-37285615D01*
X82463936Y-37363221D01*
X82465912Y-37456790D01*
X82467437Y-37568529D01*
X82468759Y-37700641D01*
X82469668Y-37820630D01*
X82470075Y-37937259D01*
X82469822Y-38032727D01*
X82468912Y-38106752D01*
X82467348Y-38159051D01*
X82465134Y-38189345D01*
X82462275Y-38197352D01*
X82459216Y-38194054D01*
X82441061Y-38172604D01*
X82411330Y-38136085D01*
X82371694Y-38086638D01*
X82323826Y-38026403D01*
X82269398Y-37957523D01*
X82210082Y-37882139D01*
X82147550Y-37802392D01*
X82083476Y-37720424D01*
X82019530Y-37638376D01*
X81957386Y-37558390D01*
X81898716Y-37482607D01*
X81845192Y-37413169D01*
X81798485Y-37352217D01*
X81760269Y-37301892D01*
X81732216Y-37264336D01*
X81715998Y-37241691D01*
X81670690Y-37169408D01*
X81630716Y-37089659D01*
X81609185Y-37021384D01*
X81605882Y-36964040D01*
X81611171Y-36916063D01*
X80479411Y-36916313D01*
X80518922Y-36946918D01*
X80528303Y-36954285D01*
X80591238Y-37008634D01*
X80660052Y-37076455D01*
X80736651Y-37159712D01*
X80822943Y-37260374D01*
X80840107Y-37281043D01*
X80880888Y-37330605D01*
X80930643Y-37391522D01*
X80988010Y-37462094D01*
X81051624Y-37540620D01*
X81120124Y-37625400D01*
X81192145Y-37714733D01*
X81266325Y-37806918D01*
X81281572Y-37825898D01*
X81341301Y-37900256D01*
X81415708Y-37993044D01*
X81488186Y-38083584D01*
X81557369Y-38170174D01*
X81621896Y-38251114D01*
X81680402Y-38324702D01*
X81731525Y-38389240D01*
X81773902Y-38443025D01*
X81806170Y-38484358D01*
X81826965Y-38511538D01*
X81834924Y-38522864D01*
X81833166Y-38526967D01*
X81820285Y-38547530D01*
X81795940Y-38583757D01*
X81761302Y-38634020D01*
X81717541Y-38696688D01*
X81665830Y-38770132D01*
X81607339Y-38852723D01*
X81543239Y-38942832D01*
X81474701Y-39038827D01*
X81402898Y-39139081D01*
X81328999Y-39241964D01*
X81254176Y-39345846D01*
X81179600Y-39449097D01*
X81106442Y-39550088D01*
X81035874Y-39647190D01*
X80969066Y-39738773D01*
X80907190Y-39823207D01*
X80851416Y-39898863D01*
X80802917Y-39964112D01*
X80762862Y-40017324D01*
X80732424Y-40056869D01*
X80711999Y-40082222D01*
X80665954Y-40136491D01*
X80615667Y-40192971D01*
X80568870Y-40242865D01*
X80477706Y-40336596D01*
X79779500Y-40336596D01*
X79848411Y-40336545D01*
X79946662Y-40336287D01*
X80036085Y-40335833D01*
X80114388Y-40335206D01*
X80179278Y-40334431D01*
X80228466Y-40333531D01*
X80259659Y-40332530D01*
X80270566Y-40331453D01*
X80269377Y-40328233D01*
X80259231Y-40310648D01*
X80242095Y-40284354D01*
X80233595Y-40271887D01*
X80224384Y-40257818D01*
X80216288Y-40243547D01*
X80209240Y-40227675D01*
X80203172Y-40208805D01*
X80198016Y-40185537D01*
X80193706Y-40156474D01*
X80190174Y-40120217D01*
X80187352Y-40075366D01*
X80185173Y-40020524D01*
X80183569Y-39954293D01*
X80182474Y-39875273D01*
X80181820Y-39782067D01*
X80181539Y-39673275D01*
X80181564Y-39547499D01*
X80181827Y-39403341D01*
X80182261Y-39239403D01*
X80182800Y-39054285D01*
X80183334Y-38875428D01*
X80183860Y-38716570D01*
X80184405Y-38577512D01*
X80185000Y-38456861D01*
X80185674Y-38353224D01*
X80186458Y-38265207D01*
X80187381Y-38191419D01*
X80188474Y-38130465D01*
X80189767Y-38080953D01*
X80191290Y-38041489D01*
X80193074Y-38010680D01*
X80195147Y-37987134D01*
X80197541Y-37969456D01*
X80200285Y-37956255D01*
X80203411Y-37946136D01*
X80206947Y-37937707D01*
X80210846Y-37929571D01*
X80230493Y-37892740D01*
X80249280Y-37862587D01*
X80250327Y-37861104D01*
X80264657Y-37838855D01*
X80270566Y-37825898D01*
X80269559Y-37825445D01*
X80252360Y-37823999D01*
X80215711Y-37822676D01*
X80162017Y-37821512D01*
X80093685Y-37820543D01*
X80013119Y-37819807D01*
X79922725Y-37819338D01*
X79824908Y-37819174D01*
X79379250Y-37819174D01*
X79376175Y-38996041D01*
X79373100Y-40172907D01*
X79346462Y-40231818D01*
X79334540Y-40256379D01*
X79317301Y-40286630D01*
X79304129Y-40303756D01*
X79296131Y-40311787D01*
X79288433Y-40326689D01*
X78996997Y-40326689D01*
X78996529Y-40234225D01*
X78996105Y-40118813D01*
X78995761Y-39988356D01*
X78995489Y-39841912D01*
X78995282Y-39678540D01*
X78995131Y-39497297D01*
X78995027Y-39297244D01*
X78994963Y-39077437D01*
X78994931Y-38836935D01*
X78994922Y-38574798D01*
X78994922Y-36383227D01*
X79033304Y-36344845D01*
X79060410Y-36321107D01*
X79087308Y-36309307D01*
X79123615Y-36306463D01*
X79175544Y-36306463D01*
X79175544Y-36394402D01*
X79177482Y-36444298D01*
X79196254Y-36554719D01*
X79233272Y-36656183D01*
X79286424Y-36747348D01*
X79353601Y-36826869D01*
X79432693Y-36893401D01*
X79521589Y-36945602D01*
X79618180Y-36982126D01*
X79720355Y-37001630D01*
X79826005Y-37002769D01*
X79933019Y-36984201D01*
X80039287Y-36944580D01*
X80136274Y-36886712D01*
X80221348Y-36811880D01*
X80290070Y-36723811D01*
X80340973Y-36624812D01*
X80372590Y-36517189D01*
X80383455Y-36403250D01*
X80383455Y-36306463D01*
X82003808Y-36306463D01*
X82214952Y-36306476D01*
X82419075Y-36306526D01*
X82602741Y-36306626D01*
X82767046Y-36306788D01*
X82913084Y-36307025D01*
X83041949Y-36307349D01*
X83154738Y-36307771D01*
X83252543Y-36308305D01*
X83336459Y-36308963D01*
X83407582Y-36309757D01*
X83467005Y-36310700D01*
X83515823Y-36311804D01*
X83555132Y-36313080D01*
X83586024Y-36314543D01*
X83609596Y-36316203D01*
X83626941Y-36318074D01*
X83639154Y-36320168D01*
X83647330Y-36322496D01*
X83652563Y-36325072D01*
X83658559Y-36328641D01*
X83665334Y-36332174D01*
X83671533Y-36335684D01*
X83677181Y-36340114D01*
X83682302Y-36346404D01*
X83686924Y-36355497D01*
X83691070Y-36368335D01*
X83694768Y-36385858D01*
X83698042Y-36409009D01*
X83700918Y-36438730D01*
X83703422Y-36475961D01*
X83705579Y-36521645D01*
X83707415Y-36576723D01*
X83708955Y-36642137D01*
X83710225Y-36718829D01*
X83711250Y-36807740D01*
X83712056Y-36909813D01*
X83712089Y-36916063D01*
X83712669Y-37025988D01*
G36*
X83712669Y-37025988D02*
G01*
X83713114Y-37157207D01*
X83713417Y-37304412D01*
X83713603Y-37468545D01*
X83713697Y-37650548D01*
X83713726Y-37851361D01*
X83713716Y-38071928D01*
X83713691Y-38313188D01*
X83713677Y-38576085D01*
X83713677Y-38618236D01*
X83713701Y-38878864D01*
X83713740Y-39117992D01*
X83713763Y-39336556D01*
X83713742Y-39535491D01*
X83713648Y-39715731D01*
X83713450Y-39878211D01*
X83713118Y-40023866D01*
X83712624Y-40153630D01*
X83711938Y-40268439D01*
X83711031Y-40369226D01*
X83709872Y-40456926D01*
X83708433Y-40532475D01*
X83706684Y-40596807D01*
X83704595Y-40650857D01*
X83702138Y-40695559D01*
X83699282Y-40731848D01*
X83695998Y-40760659D01*
X83692257Y-40782927D01*
X83688029Y-40799586D01*
X83683284Y-40811571D01*
X83677994Y-40819817D01*
X83672128Y-40825258D01*
X83665657Y-40828830D01*
X83658552Y-40831466D01*
X83650783Y-40834102D01*
X83642321Y-40837673D01*
X83637963Y-40839341D01*
X83629450Y-40841307D01*
X83616749Y-40843107D01*
X83598940Y-40844751D01*
X83575104Y-40846243D01*
X83544321Y-40847593D01*
X83505672Y-40848807D01*
X83458237Y-40849893D01*
X83401098Y-40850857D01*
X83333334Y-40851707D01*
X83254026Y-40852449D01*
X83162254Y-40853093D01*
X83057099Y-40853643D01*
X82937642Y-40854109D01*
X82802963Y-40854496D01*
X82652143Y-40854812D01*
X82484261Y-40855065D01*
X82298400Y-40855262D01*
X82093638Y-40855409D01*
X81869057Y-40855514D01*
X81623737Y-40855585D01*
X81356759Y-40855628D01*
X81318376Y-40855633D01*
X81052977Y-40855676D01*
X80809105Y-40855721D01*
X80585838Y-40855744D01*
X80382251Y-40855720D01*
X80197422Y-40855626D01*
X80030428Y-40855439D01*
X79880345Y-40855135D01*
X79746251Y-40854690D01*
X79627221Y-40854081D01*
X79522334Y-40853285D01*
X79430665Y-40852276D01*
X79351292Y-40851033D01*
X79283292Y-40849531D01*
X79225741Y-40847747D01*
X79177717Y-40845657D01*
X79138295Y-40843238D01*
X79106554Y-40840466D01*
X79081569Y-40837317D01*
X79062419Y-40833768D01*
X79048178Y-40829794D01*
X79037926Y-40825374D01*
X79030737Y-40820482D01*
X79025690Y-40815096D01*
X79021860Y-40809192D01*
X79018326Y-40802745D01*
X79014163Y-40795733D01*
X79013080Y-40793883D01*
X79010868Y-40788376D01*
X79008841Y-40780064D01*
X79006993Y-40768005D01*
X79005316Y-40751259D01*
X79003800Y-40728883D01*
X79002438Y-40699936D01*
X79001222Y-40663476D01*
X79000144Y-40618563D01*
X78999195Y-40564253D01*
X78998367Y-40499606D01*
X78997652Y-40423680D01*
X78997042Y-40335534D01*
X78996997Y-40326689D01*
X79288433Y-40326689D01*
X79292315Y-40327961D01*
X79315575Y-40329987D01*
X79357929Y-40331822D01*
X79417187Y-40333423D01*
X79491162Y-40334745D01*
X79577665Y-40335744D01*
X79674507Y-40336376D01*
X79779500Y-40336596D01*
X80477706Y-40336596D01*
X81632145Y-40336596D01*
X81631511Y-40260396D01*
X81632629Y-40218356D01*
X81638359Y-40182530D01*
X81650945Y-40144968D01*
X81672623Y-40096773D01*
X81675844Y-40090093D01*
X81701243Y-40040555D01*
X81728051Y-39992565D01*
X81750972Y-39955662D01*
X81755540Y-39949030D01*
X81777571Y-39917789D01*
X81809748Y-39872850D01*
X81850512Y-39816343D01*
X81898300Y-39750400D01*
X81951553Y-39677153D01*
X82008710Y-39598732D01*
X82068210Y-39517268D01*
X82128492Y-39434894D01*
X82187995Y-39353740D01*
X82245160Y-39275938D01*
X82298425Y-39203619D01*
X82346229Y-39138914D01*
X82387012Y-39083955D01*
X82419213Y-39040872D01*
X82441271Y-39011798D01*
X82451626Y-38998863D01*
X82456099Y-38994547D01*
X82460291Y-38992508D01*
X82463698Y-38995122D01*
X82466380Y-39004182D01*
X82468396Y-39021481D01*
X82469803Y-39048810D01*
X82470660Y-39087961D01*
X82471025Y-39140729D01*
X82470958Y-39208903D01*
X82470515Y-39294278D01*
X82469757Y-39398645D01*
X82468740Y-39523796D01*
X82468363Y-39568496D01*
X82467224Y-39689591D01*
X82466027Y-39790884D01*
X82464691Y-39874458D01*
X82463132Y-39942400D01*
X82461270Y-39996795D01*
X82459021Y-40039728D01*
X82456303Y-40073285D01*
X82453034Y-40099551D01*
X82449133Y-40120612D01*
X82444516Y-40138553D01*
X82436247Y-40164966D01*
X82412638Y-40226968D01*
X82386740Y-40279769D01*
X82361590Y-40316841D01*
X82360394Y-40318271D01*
X82358223Y-40322620D01*
X82360383Y-40326222D01*
X82368699Y-40329147D01*
X82384995Y-40331465D01*
X82411096Y-40333247D01*
X82448826Y-40334563D01*
X82500011Y-40335482D01*
X82566475Y-40336074D01*
X82650042Y-40336411D01*
X82752538Y-40336561D01*
X82875787Y-40336596D01*
X83407351Y-40336596D01*
X83368578Y-40278979D01*
X83362487Y-40270089D01*
X83352031Y-40255265D01*
X83342634Y-40241618D01*
X83334238Y-40227961D01*
X83326788Y-40213107D01*
X83320228Y-40195866D01*
X83314501Y-40175051D01*
X83309550Y-40149476D01*
X83305321Y-40117951D01*
X83301756Y-40079289D01*
X83298799Y-40032303D01*
X83296395Y-39975804D01*
X83294486Y-39908605D01*
X83293017Y-39829518D01*
X83291931Y-39737356D01*
X83291173Y-39630930D01*
X83290685Y-39509053D01*
X83290413Y-39370537D01*
X83290298Y-39214195D01*
X83290286Y-39038838D01*
X83290320Y-38843278D01*
X83290344Y-38626329D01*
X83290335Y-38503709D01*
X83290298Y-38298643D01*
X83290282Y-38114312D01*
X83290343Y-37949530D01*
X83290539Y-37803112D01*
X83290925Y-37673870D01*
X83291560Y-37560618D01*
X83292499Y-37462171D01*
X83293800Y-37377340D01*
X83295519Y-37304940D01*
X83297714Y-37243785D01*
X83300440Y-37192688D01*
X83303756Y-37150463D01*
X83307717Y-37115923D01*
X83312380Y-37087882D01*
X83317802Y-37065154D01*
X83324041Y-37046552D01*
X83331152Y-37030889D01*
X83339193Y-37016980D01*
X83348221Y-37003637D01*
X83358291Y-36989675D01*
X83369462Y-36973907D01*
X83409252Y-36916063D01*
X82349369Y-36916063D01*
X82387366Y-36979162D01*
X82402048Y-37004201D01*
X82416586Y-37031782D01*
X82428682Y-37059896D01*
X82438587Y-37090747D01*
X82446549Y-37126540D01*
X82452816Y-37169479D01*
X82457637Y-37221770D01*
X82461261Y-37285615D01*
X82463936Y-37363221D01*
X82465912Y-37456790D01*
X82467437Y-37568529D01*
X82468759Y-37700641D01*
X82469668Y-37820630D01*
X82470075Y-37937259D01*
X82469822Y-38032727D01*
X82468912Y-38106752D01*
X82467348Y-38159051D01*
X82465134Y-38189345D01*
X82462275Y-38197352D01*
X82459216Y-38194054D01*
X82441061Y-38172604D01*
X82411330Y-38136085D01*
X82371694Y-38086638D01*
X82323826Y-38026403D01*
X82269398Y-37957523D01*
X82210082Y-37882139D01*
X82147550Y-37802392D01*
X82083476Y-37720424D01*
X82019530Y-37638376D01*
X81957386Y-37558390D01*
X81898716Y-37482607D01*
X81845192Y-37413169D01*
X81798485Y-37352217D01*
X81760269Y-37301892D01*
X81732216Y-37264336D01*
X81715998Y-37241691D01*
X81670690Y-37169408D01*
X81630716Y-37089659D01*
X81609185Y-37021384D01*
X81605882Y-36964040D01*
X81611171Y-36916063D01*
X80479411Y-36916313D01*
X80518922Y-36946918D01*
X80528303Y-36954285D01*
X80591238Y-37008634D01*
X80660052Y-37076455D01*
X80736651Y-37159712D01*
X80822943Y-37260374D01*
X80840107Y-37281043D01*
X80880888Y-37330605D01*
X80930643Y-37391522D01*
X80988010Y-37462094D01*
X81051624Y-37540620D01*
X81120124Y-37625400D01*
X81192145Y-37714733D01*
X81266325Y-37806918D01*
X81281572Y-37825898D01*
X81341301Y-37900256D01*
X81415708Y-37993044D01*
X81488186Y-38083584D01*
X81557369Y-38170174D01*
X81621896Y-38251114D01*
X81680402Y-38324702D01*
X81731525Y-38389240D01*
X81773902Y-38443025D01*
X81806170Y-38484358D01*
X81826965Y-38511538D01*
X81834924Y-38522864D01*
X81833166Y-38526967D01*
X81820285Y-38547530D01*
X81795940Y-38583757D01*
X81761302Y-38634020D01*
X81717541Y-38696688D01*
X81665830Y-38770132D01*
X81607339Y-38852723D01*
X81543239Y-38942832D01*
X81474701Y-39038827D01*
X81402898Y-39139081D01*
X81328999Y-39241964D01*
X81254176Y-39345846D01*
X81179600Y-39449097D01*
X81106442Y-39550088D01*
X81035874Y-39647190D01*
X80969066Y-39738773D01*
X80907190Y-39823207D01*
X80851416Y-39898863D01*
X80802917Y-39964112D01*
X80762862Y-40017324D01*
X80732424Y-40056869D01*
X80711999Y-40082222D01*
X80665954Y-40136491D01*
X80615667Y-40192971D01*
X80568870Y-40242865D01*
X80477706Y-40336596D01*
X79779500Y-40336596D01*
X79848411Y-40336545D01*
X79946662Y-40336287D01*
X80036085Y-40335833D01*
X80114388Y-40335206D01*
X80179278Y-40334431D01*
X80228466Y-40333531D01*
X80259659Y-40332530D01*
X80270566Y-40331453D01*
X80269377Y-40328233D01*
X80259231Y-40310648D01*
X80242095Y-40284354D01*
X80233595Y-40271887D01*
X80224384Y-40257818D01*
X80216288Y-40243547D01*
X80209240Y-40227675D01*
X80203172Y-40208805D01*
X80198016Y-40185537D01*
X80193706Y-40156474D01*
X80190174Y-40120217D01*
X80187352Y-40075366D01*
X80185173Y-40020524D01*
X80183569Y-39954293D01*
X80182474Y-39875273D01*
X80181820Y-39782067D01*
X80181539Y-39673275D01*
X80181564Y-39547499D01*
X80181827Y-39403341D01*
X80182261Y-39239403D01*
X80182800Y-39054285D01*
X80183334Y-38875428D01*
X80183860Y-38716570D01*
X80184405Y-38577512D01*
X80185000Y-38456861D01*
X80185674Y-38353224D01*
X80186458Y-38265207D01*
X80187381Y-38191419D01*
X80188474Y-38130465D01*
X80189767Y-38080953D01*
X80191290Y-38041489D01*
X80193074Y-38010680D01*
X80195147Y-37987134D01*
X80197541Y-37969456D01*
X80200285Y-37956255D01*
X80203411Y-37946136D01*
X80206947Y-37937707D01*
X80210846Y-37929571D01*
X80230493Y-37892740D01*
X80249280Y-37862587D01*
X80250327Y-37861104D01*
X80264657Y-37838855D01*
X80270566Y-37825898D01*
X80269559Y-37825445D01*
X80252360Y-37823999D01*
X80215711Y-37822676D01*
X80162017Y-37821512D01*
X80093685Y-37820543D01*
X80013119Y-37819807D01*
X79922725Y-37819338D01*
X79824908Y-37819174D01*
X79379250Y-37819174D01*
X79376175Y-38996041D01*
X79373100Y-40172907D01*
X79346462Y-40231818D01*
X79334540Y-40256379D01*
X79317301Y-40286630D01*
X79304129Y-40303756D01*
X79296131Y-40311787D01*
X79288433Y-40326689D01*
X78996997Y-40326689D01*
X78996529Y-40234225D01*
X78996105Y-40118813D01*
X78995761Y-39988356D01*
X78995489Y-39841912D01*
X78995282Y-39678540D01*
X78995131Y-39497297D01*
X78995027Y-39297244D01*
X78994963Y-39077437D01*
X78994931Y-38836935D01*
X78994922Y-38574798D01*
X78994922Y-36383227D01*
X79033304Y-36344845D01*
X79060410Y-36321107D01*
X79087308Y-36309307D01*
X79123615Y-36306463D01*
X79175544Y-36306463D01*
X79175544Y-36394402D01*
X79177482Y-36444298D01*
X79196254Y-36554719D01*
X79233272Y-36656183D01*
X79286424Y-36747348D01*
X79353601Y-36826869D01*
X79432693Y-36893401D01*
X79521589Y-36945602D01*
X79618180Y-36982126D01*
X79720355Y-37001630D01*
X79826005Y-37002769D01*
X79933019Y-36984201D01*
X80039287Y-36944580D01*
X80136274Y-36886712D01*
X80221348Y-36811880D01*
X80290070Y-36723811D01*
X80340973Y-36624812D01*
X80372590Y-36517189D01*
X80383455Y-36403250D01*
X80383455Y-36306463D01*
X82003808Y-36306463D01*
X82214952Y-36306476D01*
X82419075Y-36306526D01*
X82602741Y-36306626D01*
X82767046Y-36306788D01*
X82913084Y-36307025D01*
X83041949Y-36307349D01*
X83154738Y-36307771D01*
X83252543Y-36308305D01*
X83336459Y-36308963D01*
X83407582Y-36309757D01*
X83467005Y-36310700D01*
X83515823Y-36311804D01*
X83555132Y-36313080D01*
X83586024Y-36314543D01*
X83609596Y-36316203D01*
X83626941Y-36318074D01*
X83639154Y-36320168D01*
X83647330Y-36322496D01*
X83652563Y-36325072D01*
X83658559Y-36328641D01*
X83665334Y-36332174D01*
X83671533Y-36335684D01*
X83677181Y-36340114D01*
X83682302Y-36346404D01*
X83686924Y-36355497D01*
X83691070Y-36368335D01*
X83694768Y-36385858D01*
X83698042Y-36409009D01*
X83700918Y-36438730D01*
X83703422Y-36475961D01*
X83705579Y-36521645D01*
X83707415Y-36576723D01*
X83708955Y-36642137D01*
X83710225Y-36718829D01*
X83711250Y-36807740D01*
X83712056Y-36909813D01*
X83712089Y-36916063D01*
X83712669Y-37025988D01*
G37*
D15*
X70593208Y-71048112D02*
X70593208Y-71355394D01*
X71353208Y-71048112D02*
X71353208Y-71355394D01*
D16*
X88625000Y-36950000D02*
X88625000Y-36980000D01*
X88625000Y-39550000D02*
X88625000Y-39520000D01*
X89225000Y-39550000D02*
X88625000Y-39550000D01*
X90625000Y-39550000D02*
X91225000Y-39550000D01*
X91225000Y-36950000D02*
X88625000Y-36950000D01*
X91225000Y-36980000D02*
X91225000Y-36950000D01*
X91225000Y-39550000D02*
X91225000Y-39520000D01*
D15*
X69409902Y-71046358D02*
X69409902Y-71353640D01*
X70169902Y-71046358D02*
X70169902Y-71353640D01*
X68190629Y-71046358D02*
X68190629Y-71353640D01*
X68950629Y-71046358D02*
X68950629Y-71353640D01*
X93690000Y-51965000D02*
X93690000Y-43900000D01*
X98210000Y-43900000D02*
X98210000Y-51965000D01*
X98210000Y-51965000D02*
X93690000Y-51965000D01*
X91644916Y-51448560D02*
X91429244Y-51448560D01*
X91644916Y-52168560D02*
X91429244Y-52168560D01*
D16*
X58991219Y-71667155D02*
X58991219Y-74267155D01*
X58991219Y-74267155D02*
X59021219Y-74267155D01*
X59021219Y-71667155D02*
X58991219Y-71667155D01*
X61591219Y-71667155D02*
X61561219Y-71667155D01*
X61591219Y-72267155D02*
X61591219Y-71667155D01*
X61591219Y-73667155D02*
X61591219Y-74267155D01*
X61591219Y-74267155D02*
X61561219Y-74267155D01*
D15*
X91647103Y-52841232D02*
X91431431Y-52841232D01*
X91647103Y-53561232D02*
X91431431Y-53561232D01*
X65284534Y-78485283D02*
X65284534Y-78700955D01*
X66004534Y-78485283D02*
X66004534Y-78700955D01*
D16*
X63099646Y-44451031D02*
X63099646Y-47906031D01*
X63099646Y-65146031D02*
X63099646Y-68601031D01*
X63099646Y-68601031D02*
X66554646Y-68601031D01*
X66554646Y-44451031D02*
X63099646Y-44451031D01*
X83794646Y-68601031D02*
X87249646Y-68601031D01*
X87249646Y-44451031D02*
X83794646Y-44451031D01*
X87249646Y-47906031D02*
X87249646Y-44451031D01*
X87249646Y-68601031D02*
X87249646Y-65146031D01*
D11*
X89274646Y-48526031D02*
G75*
G02*
X89074646Y-48526031I-100000J0D01*
G01*
X89074646Y-48526031D02*
G75*
G02*
X89274646Y-48526031I100000J0D01*
G01*
X70815927Y-73218247D02*
X75815927Y-73218247D01*
X70815927Y-75968247D02*
X70815927Y-73218247D01*
X70815927Y-87068247D02*
X71845927Y-87068247D01*
X70815927Y-89818247D02*
X70815927Y-87068247D01*
X71845927Y-75968247D02*
X70815927Y-75968247D01*
X71845927Y-79538247D02*
X71845927Y-75968247D01*
X71845927Y-87068247D02*
X71845927Y-86238247D01*
X75815927Y-89818247D02*
X70815927Y-89818247D01*
X83515927Y-75968247D02*
X87315927Y-75968247D01*
X83515927Y-79538247D02*
X83515927Y-75968247D01*
X83515927Y-82038247D02*
X83515927Y-81138247D01*
X83515927Y-84538247D02*
X83515927Y-83738247D01*
X83515927Y-86238247D02*
X83515927Y-87068247D01*
X83515927Y-87068247D02*
X87315927Y-87068247D01*
X87315927Y-73218247D02*
X80815927Y-73218247D01*
X87315927Y-75968247D02*
X87315927Y-73218247D01*
X87315927Y-87068247D02*
X87315927Y-89818247D01*
X87315927Y-89818247D02*
X80815927Y-89818247D01*
D17*
X85415927Y-85418247D02*
G75*
G02*
X85215927Y-85418247I-100000J0D01*
G01*
X85215927Y-85418247D02*
G75*
G02*
X85415927Y-85418247I100000J0D01*
G01*
D15*
X72869426Y-71085806D02*
X72869426Y-71301478D01*
X73589426Y-71085806D02*
X73589426Y-71301478D01*
X89610322Y-53923875D02*
X92295322Y-53923875D01*
X92295322Y-53923875D02*
X92295322Y-55843875D01*
X92295322Y-55843875D02*
X89610322Y-55843875D01*
X86812940Y-69462856D02*
X86505658Y-69462856D01*
X86812940Y-70222856D02*
X86505658Y-70222856D01*
D18*
X67406985Y-78612201D02*
X68766985Y-78612201D01*
X68766985Y-80812201D02*
X67406985Y-80812201D01*
M02*
