G04 #@! TF.GenerationSoftware,KiCad,Pcbnew,9.0.5*
G04 #@! TF.CreationDate,2025-12-11T22:36:07+05:30*
G04 #@! TF.ProjectId,GPS_with_STM32,4750535f-7769-4746-985f-53544d33322e,rev?*
G04 #@! TF.SameCoordinates,Original*
G04 #@! TF.FileFunction,Copper,L1,Top*
G04 #@! TF.FilePolarity,Positive*
%FSLAX46Y46*%
G04 Gerber Fmt 4.6, Leading zero omitted, Abs format (unit mm)*
G04 Created by KiCad (PCBNEW 9.0.5) date 2025-12-11 22:36:07*
%MOMM*%
%LPD*%
G01*
G04 APERTURE LIST*
G04 Aperture macros list*
%AMRoundRect*
0 Rectangle with rounded corners*
0 $1 Rounding radius*
0 $2 $3 $4 $5 $6 $7 $8 $9 X,Y pos of 4 corners*
0 Add a 4 corners polygon primitive as box body*
4,1,4,$2,$3,$4,$5,$6,$7,$8,$9,$2,$3,0*
0 Add four circle primitives for the rounded corners*
1,1,$1+$1,$2,$3*
1,1,$1+$1,$4,$5*
1,1,$1+$1,$6,$7*
1,1,$1+$1,$8,$9*
0 Add four rect primitives between the rounded corners*
20,1,$1+$1,$2,$3,$4,$5,0*
20,1,$1+$1,$4,$5,$6,$7,0*
20,1,$1+$1,$6,$7,$8,$9,0*
20,1,$1+$1,$8,$9,$2,$3,0*%
G04 Aperture macros list end*
G04 #@! TA.AperFunction,SMDPad,CuDef*
%ADD10RoundRect,0.140000X0.170000X-0.140000X0.170000X0.140000X-0.170000X0.140000X-0.170000X-0.140000X0*%
G04 #@! TD*
G04 #@! TA.AperFunction,SMDPad,CuDef*
%ADD11RoundRect,0.140000X-0.170000X0.140000X-0.170000X-0.140000X0.170000X-0.140000X0.170000X0.140000X0*%
G04 #@! TD*
G04 #@! TA.AperFunction,SMDPad,CuDef*
%ADD12RoundRect,0.250000X0.450000X-0.262500X0.450000X0.262500X-0.450000X0.262500X-0.450000X-0.262500X0*%
G04 #@! TD*
G04 #@! TA.AperFunction,SMDPad,CuDef*
%ADD13RoundRect,0.100000X-0.100000X0.130000X-0.100000X-0.130000X0.100000X-0.130000X0.100000X0.130000X0*%
G04 #@! TD*
G04 #@! TA.AperFunction,SMDPad,CuDef*
%ADD14RoundRect,0.250000X-1.150000X-0.250000X1.150000X-0.250000X1.150000X0.250000X-1.150000X0.250000X0*%
G04 #@! TD*
G04 #@! TA.AperFunction,ComponentPad*
%ADD15R,1.700000X1.700000*%
G04 #@! TD*
G04 #@! TA.AperFunction,ComponentPad*
%ADD16C,1.700000*%
G04 #@! TD*
G04 #@! TA.AperFunction,SMDPad,CuDef*
%ADD17RoundRect,0.250000X-0.650000X0.325000X-0.650000X-0.325000X0.650000X-0.325000X0.650000X0.325000X0*%
G04 #@! TD*
G04 #@! TA.AperFunction,SMDPad,CuDef*
%ADD18RoundRect,0.250000X0.262500X0.450000X-0.262500X0.450000X-0.262500X-0.450000X0.262500X-0.450000X0*%
G04 #@! TD*
G04 #@! TA.AperFunction,SMDPad,CuDef*
%ADD19RoundRect,0.150000X-0.825000X-0.150000X0.825000X-0.150000X0.825000X0.150000X-0.825000X0.150000X0*%
G04 #@! TD*
G04 #@! TA.AperFunction,HeatsinkPad*
%ADD20R,2.290000X3.000000*%
G04 #@! TD*
G04 #@! TA.AperFunction,SMDPad,CuDef*
%ADD21RoundRect,0.250000X-0.950000X0.750000X-0.950000X-0.750000X0.950000X-0.750000X0.950000X0.750000X0*%
G04 #@! TD*
G04 #@! TA.AperFunction,SMDPad,CuDef*
%ADD22RoundRect,0.162500X0.162500X-0.447500X0.162500X0.447500X-0.162500X0.447500X-0.162500X-0.447500X0*%
G04 #@! TD*
G04 #@! TA.AperFunction,SMDPad,CuDef*
%ADD23RoundRect,0.200000X0.275000X-0.200000X0.275000X0.200000X-0.275000X0.200000X-0.275000X-0.200000X0*%
G04 #@! TD*
G04 #@! TA.AperFunction,SMDPad,CuDef*
%ADD24RoundRect,0.147500X-0.172500X0.147500X-0.172500X-0.147500X0.172500X-0.147500X0.172500X0.147500X0*%
G04 #@! TD*
G04 #@! TA.AperFunction,SMDPad,CuDef*
%ADD25RoundRect,0.218750X-0.256250X0.218750X-0.256250X-0.218750X0.256250X-0.218750X0.256250X0.218750X0*%
G04 #@! TD*
G04 #@! TA.AperFunction,SMDPad,CuDef*
%ADD26R,2.700000X3.600000*%
G04 #@! TD*
G04 #@! TA.AperFunction,ComponentPad*
%ADD27RoundRect,0.250000X1.050000X1.050000X-1.050000X1.050000X-1.050000X-1.050000X1.050000X-1.050000X0*%
G04 #@! TD*
G04 #@! TA.AperFunction,ComponentPad*
%ADD28C,2.600000*%
G04 #@! TD*
G04 #@! TA.AperFunction,SMDPad,CuDef*
%ADD29RoundRect,0.135000X-0.185000X0.135000X-0.185000X-0.135000X0.185000X-0.135000X0.185000X0.135000X0*%
G04 #@! TD*
G04 #@! TA.AperFunction,SMDPad,CuDef*
%ADD30RoundRect,0.075000X-0.521491X0.415425X0.415425X-0.521491X0.521491X-0.415425X-0.415425X0.521491X0*%
G04 #@! TD*
G04 #@! TA.AperFunction,SMDPad,CuDef*
%ADD31RoundRect,0.075000X-0.521491X-0.415425X-0.415425X-0.521491X0.521491X0.415425X0.415425X0.521491X0*%
G04 #@! TD*
G04 #@! TA.AperFunction,SMDPad,CuDef*
%ADD32RoundRect,0.250000X-0.450000X0.262500X-0.450000X-0.262500X0.450000X-0.262500X0.450000X0.262500X0*%
G04 #@! TD*
G04 #@! TA.AperFunction,SMDPad,CuDef*
%ADD33RoundRect,0.100000X0.100000X-0.130000X0.100000X0.130000X-0.100000X0.130000X-0.100000X-0.130000X0*%
G04 #@! TD*
G04 #@! TA.AperFunction,SMDPad,CuDef*
%ADD34RoundRect,0.250000X-0.475000X0.250000X-0.475000X-0.250000X0.475000X-0.250000X0.475000X0.250000X0*%
G04 #@! TD*
G04 #@! TA.AperFunction,SMDPad,CuDef*
%ADD35RoundRect,0.218750X0.218750X0.256250X-0.218750X0.256250X-0.218750X-0.256250X0.218750X-0.256250X0*%
G04 #@! TD*
G04 #@! TA.AperFunction,SMDPad,CuDef*
%ADD36RoundRect,0.250000X-1.400000X-1.000000X1.400000X-1.000000X1.400000X1.000000X-1.400000X1.000000X0*%
G04 #@! TD*
G04 #@! TA.AperFunction,SMDPad,CuDef*
%ADD37RoundRect,0.140000X-0.140000X-0.170000X0.140000X-0.170000X0.140000X0.170000X-0.140000X0.170000X0*%
G04 #@! TD*
G04 #@! TA.AperFunction,ViaPad*
%ADD38C,0.600000*%
G04 #@! TD*
G04 #@! TA.AperFunction,Conductor*
%ADD39C,0.200000*%
G04 #@! TD*
G04 #@! TA.AperFunction,Conductor*
%ADD40C,0.300000*%
G04 #@! TD*
G04 #@! TA.AperFunction,Conductor*
%ADD41C,0.500000*%
G04 #@! TD*
G04 APERTURE END LIST*
D10*
X78740812Y-57301217D03*
X78740812Y-56341217D03*
X77456244Y-57301217D03*
X77456244Y-56341217D03*
D11*
X66189673Y-75234968D03*
X66189673Y-76194968D03*
D12*
X84221766Y-79911938D03*
X84221766Y-78086938D03*
D13*
X71049107Y-79663757D03*
X71049107Y-80303757D03*
D14*
X62525000Y-84050000D03*
X68325000Y-84050000D03*
X62525000Y-88050000D03*
X68325000Y-88050000D03*
D15*
X96656505Y-77903590D03*
D16*
X96656505Y-75363590D03*
X96656505Y-72823590D03*
X96656505Y-70283590D03*
X96656505Y-67743590D03*
X96656505Y-65203590D03*
X96656505Y-62663590D03*
X96656505Y-60123590D03*
D17*
X73836204Y-51157017D03*
X73836204Y-54107017D03*
D10*
X80047153Y-57279444D03*
X80047153Y-56319444D03*
X76171675Y-57301217D03*
X76171675Y-56341217D03*
D18*
X88308268Y-47830082D03*
X86483268Y-47830082D03*
D19*
X75520032Y-44970104D03*
X75520032Y-46240104D03*
X75520032Y-47510104D03*
X75520032Y-48780104D03*
X80470032Y-48780104D03*
X80470032Y-47510104D03*
X80470032Y-46240104D03*
X80470032Y-44970104D03*
D20*
X77995032Y-46875104D03*
D21*
X64738380Y-69021478D03*
X64738380Y-72721478D03*
D22*
X80557146Y-39336031D03*
X82457146Y-39336031D03*
X81507146Y-36716031D03*
D23*
X73730948Y-80041542D03*
X73730948Y-78391542D03*
D24*
X74148683Y-36934789D03*
X74148683Y-37904789D03*
D25*
X82165633Y-78415935D03*
X82165633Y-79990935D03*
D26*
X61599646Y-52851031D03*
X69899646Y-52851031D03*
D27*
X68469646Y-40753531D03*
D28*
X63389646Y-40753531D03*
D29*
X81330448Y-56307282D03*
X81330448Y-57327282D03*
D12*
X84410042Y-54184503D03*
X84410042Y-52359503D03*
D30*
X77087421Y-61859175D03*
X76733867Y-62212729D03*
X76380314Y-62566282D03*
X76026760Y-62919836D03*
X75673207Y-63273389D03*
X75319654Y-63626942D03*
X74966100Y-63980496D03*
X74612547Y-64334049D03*
X74258994Y-64687602D03*
X73905440Y-65041156D03*
X73551887Y-65394709D03*
X73198333Y-65748263D03*
D31*
X73198333Y-67745839D03*
X73551887Y-68099393D03*
X73905440Y-68452946D03*
X74258994Y-68806500D03*
X74612547Y-69160053D03*
X74966100Y-69513606D03*
X75319654Y-69867160D03*
X75673207Y-70220713D03*
X76026760Y-70574266D03*
X76380314Y-70927820D03*
X76733867Y-71281373D03*
X77087421Y-71634927D03*
D30*
X79084997Y-71634927D03*
X79438551Y-71281373D03*
X79792104Y-70927820D03*
X80145658Y-70574266D03*
X80499211Y-70220713D03*
X80852764Y-69867160D03*
X81206318Y-69513606D03*
X81559871Y-69160053D03*
X81913424Y-68806500D03*
X82266978Y-68452946D03*
X82620531Y-68099393D03*
X82974085Y-67745839D03*
D31*
X82974085Y-65748263D03*
X82620531Y-65394709D03*
X82266978Y-65041156D03*
X81913424Y-64687602D03*
X81559871Y-64334049D03*
X81206318Y-63980496D03*
X80852764Y-63626942D03*
X80499211Y-63273389D03*
X80145658Y-62919836D03*
X79792104Y-62566282D03*
X79438551Y-62212729D03*
X79084997Y-61859175D03*
D32*
X79390546Y-52315907D03*
X79390546Y-54140907D03*
D11*
X76538810Y-78157876D03*
X76538810Y-79117876D03*
D33*
X74996835Y-56966991D03*
X74996835Y-56326991D03*
D11*
X72213242Y-79287006D03*
X72213242Y-80247006D03*
D34*
X74124646Y-40626031D03*
X74124646Y-42526031D03*
D35*
X92069553Y-47830082D03*
X90494553Y-47830082D03*
D12*
X82019994Y-54172604D03*
X82019994Y-52347604D03*
D14*
X84975601Y-83901187D03*
X90775601Y-83901187D03*
X84975601Y-87901187D03*
X90775601Y-87901187D03*
D12*
X80100543Y-79923679D03*
X80100543Y-78098679D03*
D11*
X75277766Y-78159795D03*
X75277766Y-79119795D03*
D13*
X72521258Y-45928959D03*
X72521258Y-46568959D03*
D36*
X89774646Y-37026031D03*
X89774646Y-43826031D03*
D15*
X56556455Y-77833363D03*
D16*
X56556455Y-75293363D03*
X56556455Y-72753363D03*
X56556455Y-70213363D03*
X56556455Y-67673363D03*
X56556455Y-65133363D03*
X56556455Y-62593363D03*
X56556455Y-60053363D03*
D37*
X64732112Y-66681125D03*
X65692112Y-66681125D03*
D25*
X78095243Y-78433294D03*
X78095243Y-80008294D03*
D38*
X76237500Y-76787500D03*
X78400000Y-42526031D03*
X84075000Y-48875000D03*
X72585486Y-81110225D03*
X81625000Y-76425000D03*
X93375000Y-43925000D03*
X65350000Y-62350000D03*
X66189673Y-76194968D03*
X67100000Y-66750000D03*
X77198378Y-69995796D03*
X90375000Y-66475000D03*
X78625000Y-66650000D03*
X90560335Y-54399891D03*
X78825000Y-76325000D03*
X77775000Y-85425000D03*
X68246637Y-60053363D03*
X76325000Y-52450000D03*
X86050000Y-51500000D03*
X66000000Y-86275000D03*
X68400000Y-66525000D03*
X75665925Y-73450000D03*
X90775601Y-83901187D03*
X65925000Y-65125000D03*
X63400000Y-66700000D03*
X67500000Y-76375000D03*
X70675000Y-66725000D03*
X70125000Y-80338247D03*
X64225000Y-80825000D03*
X62100000Y-81675000D03*
X67362500Y-81512500D03*
X86400000Y-72600000D03*
X85825000Y-70775000D03*
X70475000Y-87700000D03*
X75300000Y-80375000D03*
X61325000Y-68825000D03*
X61350000Y-64100000D03*
X92737500Y-63437500D03*
X91512500Y-66312500D03*
X85150000Y-71600000D03*
X85350000Y-61525000D03*
X84025000Y-70500000D03*
X83137500Y-62037500D03*
X91300000Y-68925000D03*
X84525000Y-56950000D03*
X85950000Y-39225000D03*
X85950037Y-35869403D03*
X82125000Y-58325000D03*
X82800000Y-60975000D03*
X70100000Y-59275000D03*
D39*
X79323969Y-42526031D02*
X78400000Y-42526031D01*
D40*
X81330448Y-56307282D02*
X75016544Y-56307282D01*
D39*
X75277766Y-79119795D02*
X75576891Y-79119795D01*
X75576891Y-79119795D02*
X76538810Y-78157876D01*
X71313757Y-79663757D02*
X71897006Y-80247006D01*
X76237500Y-76787500D02*
X76538810Y-77088810D01*
X82232282Y-56307282D02*
X81330448Y-56307282D01*
X82165633Y-76965633D02*
X81625000Y-76425000D01*
D41*
X89774646Y-43826031D02*
X90301031Y-43826031D01*
D39*
X80900000Y-59150000D02*
X82175000Y-59150000D01*
X78625000Y-66650000D02*
X78575000Y-66600000D01*
D41*
X89873615Y-43925000D02*
X89774646Y-43826031D01*
D39*
X90560335Y-54399891D02*
X90575000Y-54414556D01*
X78095243Y-77054757D02*
X78095243Y-78433294D01*
D41*
X68469646Y-40753531D02*
X68469646Y-41319646D01*
X69676031Y-42526031D02*
X74124646Y-42526031D01*
D39*
X90575000Y-54414556D02*
X90575000Y-66275000D01*
X71897006Y-80247006D02*
X72213242Y-80247006D01*
X82175000Y-59150000D02*
X82850000Y-58475000D01*
X79390546Y-52315907D02*
X77734093Y-52315907D01*
X73528498Y-63250000D02*
X70900000Y-63250000D01*
X82850000Y-58475000D02*
X82850000Y-56925000D01*
X80375000Y-61276280D02*
X80375000Y-59675000D01*
X67100000Y-65225000D02*
X67100000Y-66750000D01*
X78400000Y-42526031D02*
X74124646Y-42526031D01*
X80375000Y-59675000D02*
X80900000Y-59150000D01*
D41*
X82710104Y-47510104D02*
X84075000Y-48875000D01*
X68469646Y-41319646D02*
X69676031Y-42526031D01*
D39*
X67175000Y-65150000D02*
X67100000Y-65225000D01*
X80557146Y-41292854D02*
X79323969Y-42526031D01*
D41*
X83350000Y-87918247D02*
X80268247Y-87918247D01*
D39*
X78575000Y-66600000D02*
X78575000Y-63076280D01*
X82850000Y-56925000D02*
X82232282Y-56307282D01*
X77279275Y-70735965D02*
X76733867Y-71281373D01*
X72213242Y-80247006D02*
X72213242Y-80737981D01*
X82165633Y-78415935D02*
X82165633Y-76965633D01*
X67031125Y-66681125D02*
X67100000Y-66750000D01*
D40*
X73836204Y-54811204D02*
X73836204Y-54107017D01*
X74996835Y-55971835D02*
X73836204Y-54811204D01*
X75016544Y-56307282D02*
X74996835Y-56326991D01*
D39*
X78575000Y-63076280D02*
X79438551Y-62212729D01*
X65692112Y-66681125D02*
X67031125Y-66681125D01*
X71049107Y-79663757D02*
X71313757Y-79663757D01*
X78825000Y-76325000D02*
X78095243Y-77054757D01*
D41*
X80268247Y-87918247D02*
X77775000Y-85425000D01*
D39*
X77198378Y-69995796D02*
X77279275Y-70076693D01*
X77279275Y-70076693D02*
X77279275Y-70735965D01*
D41*
X92069553Y-45594553D02*
X92069553Y-47830082D01*
X80470032Y-47510104D02*
X82710104Y-47510104D01*
X90733290Y-87943498D02*
X83341952Y-87943498D01*
X90301031Y-43826031D02*
X92069553Y-45594553D01*
D39*
X77734093Y-52315907D02*
X75942983Y-54107017D01*
X90575000Y-66275000D02*
X90375000Y-66475000D01*
X74612547Y-64334049D02*
X73528498Y-63250000D01*
X70900000Y-63250000D02*
X69075000Y-63250000D01*
X69075000Y-63250000D02*
X67175000Y-65150000D01*
X76538810Y-77088810D02*
X76538810Y-78157876D01*
X75942983Y-54107017D02*
X73836204Y-54107017D01*
D41*
X90775601Y-87901187D02*
X90733290Y-87943498D01*
D39*
X72213242Y-80737981D02*
X72585486Y-81110225D01*
X80557146Y-39336031D02*
X80557146Y-41292854D01*
D40*
X74996835Y-56326991D02*
X74996835Y-55971835D01*
D41*
X93375000Y-43925000D02*
X89873615Y-43925000D01*
D39*
X79438551Y-62212729D02*
X80375000Y-61276280D01*
X78200000Y-69825000D02*
X77700000Y-70325000D01*
X69975000Y-63900000D02*
X68200000Y-65675000D01*
D41*
X65550000Y-88074868D02*
X62540291Y-88074868D01*
X70954444Y-57279444D02*
X69899646Y-56224646D01*
D39*
X75950000Y-73165925D02*
X75665925Y-73450000D01*
D41*
X80047153Y-57279444D02*
X70954444Y-57279444D01*
D39*
X74258994Y-64687602D02*
X73471392Y-63900000D01*
X77700000Y-71022348D02*
X77087421Y-71634927D01*
X78200000Y-68628608D02*
X78200000Y-69825000D01*
D41*
X86050000Y-53800000D02*
X86050000Y-51500000D01*
X65550000Y-88074868D02*
X65550000Y-86725000D01*
X85665497Y-54184503D02*
X86050000Y-53800000D01*
X86050000Y-51500000D02*
X86050000Y-48263350D01*
X69900000Y-55600354D02*
X69899646Y-55600000D01*
X65550000Y-86725000D02*
X66000000Y-86275000D01*
D40*
X74996835Y-56966991D02*
X74996835Y-59768589D01*
D39*
X75950000Y-72775000D02*
X75950000Y-73165925D01*
D41*
X86050000Y-48263350D02*
X86483268Y-47830082D01*
D40*
X77778246Y-62550000D02*
X78394172Y-62550000D01*
X74996835Y-59768589D02*
X77087421Y-61859175D01*
D41*
X56556455Y-60053363D02*
X68246637Y-60053363D01*
X69899646Y-56224646D02*
X69899646Y-55600000D01*
D39*
X73471392Y-63900000D02*
X71575000Y-63900000D01*
D40*
X77087421Y-61859175D02*
X77778246Y-62550000D01*
D41*
X69900000Y-58400000D02*
X69900000Y-55600354D01*
X68340291Y-88074868D02*
X65550000Y-88074868D01*
X71593660Y-51157017D02*
X69899646Y-52851031D01*
D39*
X77087421Y-71634927D02*
X77087421Y-71637579D01*
D41*
X73836204Y-51157017D02*
X71593660Y-51157017D01*
D39*
X68200000Y-66325000D02*
X68400000Y-66525000D01*
D41*
X68246637Y-60053363D02*
X69900000Y-58400000D01*
X75032017Y-51157017D02*
X76325000Y-52450000D01*
D39*
X77700000Y-70325000D02*
X77700000Y-71022348D01*
X77087421Y-71637579D02*
X75950000Y-72775000D01*
D41*
X69899646Y-55600000D02*
X69899646Y-52851031D01*
X84410042Y-54184503D02*
X85665497Y-54184503D01*
D39*
X71575000Y-63900000D02*
X69975000Y-63900000D01*
X74258994Y-64687602D02*
X78200000Y-68628608D01*
D40*
X78394172Y-62550000D02*
X79084997Y-61859175D01*
D39*
X68200000Y-65675000D02*
X68200000Y-66325000D01*
D41*
X73836204Y-51157017D02*
X75032017Y-51157017D01*
D39*
X75520032Y-44970104D02*
X74254896Y-44970104D01*
X73231041Y-46568959D02*
X72521258Y-46568959D01*
X74254896Y-44970104D02*
X73550000Y-45675000D01*
X73550000Y-46250000D02*
X73231041Y-46568959D01*
X73550000Y-45675000D02*
X73550000Y-46250000D01*
D41*
X76870211Y-37904789D02*
X78058969Y-36716031D01*
X78058969Y-36716031D02*
X81507146Y-36716031D01*
X74148683Y-37904789D02*
X76870211Y-37904789D01*
X74124646Y-40626031D02*
X74124646Y-37928826D01*
X74124646Y-37928826D02*
X74148683Y-37904789D01*
D39*
X78375000Y-83925000D02*
X76525000Y-82075000D01*
X78100000Y-75450000D02*
X77149810Y-76400190D01*
X78800000Y-70376000D02*
X78100000Y-71076000D01*
X74966100Y-63980496D02*
X78800000Y-67814396D01*
X90775601Y-83901187D02*
X90758541Y-83918247D01*
X83343247Y-83925000D02*
X78375000Y-83925000D01*
X76538810Y-81661190D02*
X76538810Y-79117876D01*
X90758541Y-83918247D02*
X83350000Y-83918247D01*
X76525000Y-82075000D02*
X76525000Y-81675000D01*
X83350000Y-83918247D02*
X83343247Y-83925000D01*
X78100000Y-71076000D02*
X78100000Y-75450000D01*
X78800000Y-67814396D02*
X78800000Y-70376000D01*
X77149810Y-76400190D02*
X77149810Y-78506876D01*
X76525000Y-81675000D02*
X76538810Y-81661190D01*
X77149810Y-78506876D02*
X76538810Y-79117876D01*
X66950000Y-61825000D02*
X64732112Y-64042888D01*
X75673207Y-63273389D02*
X74224818Y-61825000D01*
X74224818Y-61825000D02*
X66950000Y-61825000D01*
X64738380Y-66824156D02*
X64738380Y-69021478D01*
X64732112Y-64042888D02*
X64732112Y-66681125D01*
X64732112Y-66681125D02*
X64732112Y-66817888D01*
X64732112Y-66817888D02*
X64738380Y-66824156D01*
X61550000Y-66700000D02*
X63400000Y-66700000D01*
X64738380Y-72721478D02*
X63583978Y-72721478D01*
X67925000Y-62400000D02*
X65925000Y-64400000D01*
X66189673Y-75234968D02*
X67190032Y-75234968D01*
X63583978Y-72721478D02*
X60400000Y-69537500D01*
X60400000Y-69537500D02*
X60400000Y-67850000D01*
X67850000Y-74575000D02*
X67850000Y-73425000D01*
X75319654Y-63626942D02*
X74092712Y-62400000D01*
X65925000Y-64400000D02*
X65925000Y-65125000D01*
X60400000Y-67850000D02*
X61550000Y-66700000D01*
X67850000Y-73425000D02*
X67146478Y-72721478D01*
X74092712Y-62400000D02*
X67925000Y-62400000D01*
X67146478Y-72721478D02*
X64738380Y-72721478D01*
X67190032Y-75234968D02*
X67850000Y-74575000D01*
X70675000Y-69250000D02*
X70675000Y-66725000D01*
X68775000Y-71150000D02*
X70675000Y-69250000D01*
X67500000Y-76375000D02*
X68775000Y-75100000D01*
X68775000Y-75100000D02*
X68775000Y-71150000D01*
D41*
X72525000Y-44219104D02*
X79719032Y-44219104D01*
X65405896Y-44219104D02*
X72525000Y-44219104D01*
D39*
X72521258Y-45928959D02*
X72521258Y-44222846D01*
D41*
X85798969Y-37026031D02*
X84400000Y-38425000D01*
X82654896Y-44970104D02*
X80470032Y-44970104D01*
X61599646Y-52851031D02*
X61599646Y-48025354D01*
X79719032Y-44219104D02*
X80470032Y-44970104D01*
X84400000Y-38425000D02*
X84400000Y-43225000D01*
D39*
X72521258Y-44222846D02*
X72525000Y-44219104D01*
D41*
X61599646Y-48025354D02*
X65405896Y-44219104D01*
X84400000Y-43225000D02*
X82654896Y-44970104D01*
X89774646Y-37026031D02*
X85798969Y-37026031D01*
D39*
X74300000Y-76575000D02*
X73730948Y-77144052D01*
X76380314Y-70927820D02*
X75833134Y-71475000D01*
X75325000Y-71475000D02*
X74300000Y-72500000D01*
X72625248Y-78875000D02*
X72213242Y-79287006D01*
X74300000Y-72500000D02*
X74300000Y-76575000D01*
X73247490Y-78875000D02*
X72625248Y-78875000D01*
X73730948Y-77144052D02*
X73730948Y-78391542D01*
X73730948Y-78391542D02*
X73247490Y-78875000D01*
X75833134Y-71475000D02*
X75325000Y-71475000D01*
X71049107Y-80303757D02*
X71049107Y-81499107D01*
X71049107Y-81499107D02*
X72837500Y-83287500D01*
X72837500Y-83287500D02*
X72075000Y-84050000D01*
X73730948Y-79706613D02*
X73730948Y-80041542D01*
X72075000Y-84050000D02*
X68325000Y-84050000D01*
X62525000Y-84050000D02*
X68325000Y-84050000D01*
X73730948Y-82394052D02*
X72837500Y-83287500D01*
X73730948Y-80041542D02*
X73730948Y-82394052D01*
X75277766Y-78159795D02*
X73730948Y-79706613D01*
D41*
X90494553Y-47830082D02*
X88308268Y-47830082D01*
D39*
X78095243Y-80008294D02*
X80015928Y-80008294D01*
X80015928Y-80008294D02*
X80100543Y-79923679D01*
X84142769Y-79990935D02*
X84221766Y-79911938D01*
X82165633Y-79990935D02*
X84142769Y-79990935D01*
D41*
X63389646Y-38310354D02*
X64765211Y-36934789D01*
X63389646Y-40753531D02*
X63389646Y-38310354D01*
X64765211Y-36934789D02*
X74148683Y-36934789D01*
D39*
X69638247Y-80825000D02*
X70125000Y-80338247D01*
X64225000Y-80825000D02*
X69638247Y-80825000D01*
X67200000Y-81675000D02*
X67362500Y-81512500D01*
X62100000Y-81675000D02*
X67200000Y-81675000D01*
X85825000Y-70775000D02*
X85825000Y-70950000D01*
X86400000Y-71525000D02*
X86400000Y-72600000D01*
X85825000Y-70950000D02*
X86400000Y-71525000D01*
X70475000Y-87700000D02*
X72300000Y-87700000D01*
X74700000Y-80975000D02*
X75300000Y-80375000D01*
X74700000Y-85300000D02*
X74700000Y-80975000D01*
X72300000Y-87700000D02*
X74700000Y-85300000D01*
X58375000Y-73200000D02*
X57928363Y-72753363D01*
X72725000Y-70375000D02*
X72725000Y-75750000D01*
X58375000Y-74050000D02*
X58375000Y-73200000D01*
X57928363Y-72753363D02*
X56556455Y-72753363D01*
X72725000Y-75750000D02*
X69625000Y-78850000D01*
X74258994Y-68806500D02*
X74258994Y-68841006D01*
X74258994Y-68841006D02*
X72725000Y-70375000D01*
X69625000Y-78850000D02*
X63175000Y-78850000D01*
X63175000Y-78850000D02*
X58375000Y-74050000D01*
X64175000Y-78275000D02*
X58975000Y-73075000D01*
X57913363Y-70213363D02*
X56556455Y-70213363D01*
X69050000Y-78275000D02*
X64175000Y-78275000D01*
X73905440Y-68452946D02*
X71900000Y-70458386D01*
X58975000Y-71275000D02*
X57913363Y-70213363D01*
X71900000Y-75425000D02*
X69050000Y-78275000D01*
X71900000Y-70458386D02*
X71900000Y-75425000D01*
X58975000Y-73075000D02*
X58975000Y-71275000D01*
X56556455Y-67673363D02*
X57998363Y-67673363D01*
X57998363Y-67673363D02*
X58475000Y-68150000D01*
X68500000Y-77650000D02*
X71025000Y-75125000D01*
X58475000Y-69825000D02*
X59550000Y-70900000D01*
X58475000Y-68150000D02*
X58475000Y-69825000D01*
X64850000Y-77650000D02*
X68500000Y-77650000D01*
X71025000Y-75125000D02*
X71025000Y-70626280D01*
X71025000Y-70626280D02*
X73551887Y-68099393D01*
X59550000Y-72350000D02*
X64850000Y-77650000D01*
X59550000Y-70900000D02*
X59550000Y-72350000D01*
X65562500Y-76975000D02*
X67950000Y-76975000D01*
X70175000Y-74750000D02*
X70175000Y-70769172D01*
X70175000Y-70769172D02*
X73198333Y-67745839D01*
X59475000Y-66625000D02*
X59475000Y-69700000D01*
X67950000Y-76975000D02*
X70175000Y-74750000D01*
X60250000Y-71662500D02*
X65562500Y-76975000D01*
X59475000Y-69700000D02*
X60250000Y-70475000D01*
X56556455Y-65133363D02*
X57983363Y-65133363D01*
X60250000Y-70475000D02*
X60250000Y-71662500D01*
X57983363Y-65133363D02*
X59475000Y-66625000D01*
X70100000Y-79575000D02*
X62250000Y-79575000D01*
X73500000Y-76175000D02*
X70100000Y-79575000D01*
X74612547Y-69160053D02*
X73500000Y-70272600D01*
X73500000Y-70272600D02*
X73500000Y-76175000D01*
X57968363Y-75293363D02*
X56556455Y-75293363D01*
X62250000Y-79575000D02*
X57968363Y-75293363D01*
X59843363Y-62593363D02*
X56556455Y-62593363D01*
X70825000Y-64775000D02*
X72175000Y-64775000D01*
X69525000Y-66075000D02*
X70825000Y-64775000D01*
X61325000Y-68825000D02*
X61325000Y-68850000D01*
X63350000Y-70875000D02*
X67775000Y-70875000D01*
X61325000Y-68850000D02*
X63350000Y-70875000D01*
X61350000Y-64100000D02*
X59843363Y-62593363D01*
X73148263Y-65748263D02*
X73198333Y-65748263D01*
X67775000Y-70875000D02*
X69525000Y-69125000D01*
X69525000Y-69125000D02*
X69525000Y-66075000D01*
X72175000Y-64775000D02*
X73148263Y-65748263D01*
X80852764Y-69867160D02*
X82585604Y-71600000D01*
X91900000Y-64275000D02*
X91900000Y-65925000D01*
X91900000Y-65925000D02*
X91512500Y-66312500D01*
X92737500Y-63437500D02*
X91900000Y-64275000D01*
X82585604Y-71600000D02*
X85150000Y-71600000D01*
X82192712Y-70500000D02*
X81206318Y-69513606D01*
X83650000Y-61525000D02*
X85350000Y-61525000D01*
X83137500Y-62037500D02*
X83650000Y-61525000D01*
X84025000Y-70500000D02*
X82192712Y-70500000D01*
X93613590Y-75363590D02*
X96656505Y-75363590D01*
X87850000Y-69600000D02*
X93613590Y-75363590D01*
X82266978Y-68452946D02*
X83414032Y-69600000D01*
X83414032Y-69600000D02*
X87850000Y-69600000D01*
X84053246Y-68825000D02*
X82974085Y-67745839D01*
X82974085Y-67745839D02*
X83070839Y-67745839D01*
X84100000Y-68825000D02*
X84053246Y-68825000D01*
X84200000Y-68925000D02*
X84100000Y-68825000D01*
X91300000Y-68925000D02*
X84200000Y-68925000D01*
X79792104Y-62566282D02*
X84525000Y-57833386D01*
X84525000Y-57833386D02*
X84525000Y-56950000D01*
D41*
X83709896Y-46240104D02*
X85600000Y-44350000D01*
X85950037Y-35869403D02*
X85930634Y-35850000D01*
X80470032Y-46240104D02*
X83709896Y-46240104D01*
X85600000Y-44350000D02*
X85950000Y-44000000D01*
X85930634Y-35850000D02*
X84475000Y-35850000D01*
X84475000Y-35850000D02*
X82457146Y-37867854D01*
X82457146Y-37867854D02*
X82457146Y-39336031D01*
X85950000Y-44000000D02*
X85950000Y-39225000D01*
X84410042Y-52359503D02*
X82031893Y-52359503D01*
X81500000Y-50450000D02*
X82019994Y-50969994D01*
X75520032Y-48780104D02*
X75520032Y-49720032D01*
X76250000Y-50450000D02*
X81500000Y-50450000D01*
X82019994Y-50969994D02*
X82019994Y-52347604D01*
X82031893Y-52359503D02*
X82019994Y-52347604D01*
X75520032Y-49720032D02*
X76250000Y-50450000D01*
X82019994Y-54172604D02*
X79422243Y-54172604D01*
X79422243Y-54172604D02*
X79390546Y-54140907D01*
D39*
X81330448Y-57530448D02*
X82125000Y-58325000D01*
X81330448Y-57327282D02*
X81330448Y-57530448D01*
X82800000Y-60975000D02*
X82797600Y-60975000D01*
X82797600Y-60975000D02*
X80499211Y-63273389D01*
X79084997Y-71734997D02*
X80100543Y-72750543D01*
X80100543Y-72750543D02*
X80100543Y-78098679D01*
X79084997Y-71634927D02*
X79084997Y-71734997D01*
X79438551Y-71281373D02*
X80700000Y-72542822D01*
X80700000Y-72542822D02*
X80700000Y-72550000D01*
X82525000Y-72550000D02*
X84221766Y-74246766D01*
X80700000Y-72550000D02*
X82525000Y-72550000D01*
X84221766Y-74246766D02*
X84221766Y-78086938D01*
X71475000Y-60625000D02*
X71450000Y-60625000D01*
X76380314Y-62566282D02*
X74439032Y-60625000D01*
X74439032Y-60625000D02*
X71475000Y-60625000D01*
X71450000Y-60625000D02*
X70100000Y-59275000D01*
X91675000Y-67450000D02*
X94508590Y-70283590D01*
X82974085Y-65748263D02*
X84147348Y-64575000D01*
X88475000Y-67450000D02*
X91675000Y-67450000D01*
X84147348Y-64575000D02*
X85600000Y-64575000D01*
X85600000Y-64575000D02*
X88475000Y-67450000D01*
X94508590Y-70283590D02*
X96656505Y-70283590D01*
G04 #@! TA.AperFunction,Conductor*
G36*
X96003582Y-35550701D02*
G01*
X96323297Y-35568656D01*
X96337094Y-35570210D01*
X96649457Y-35623283D01*
X96663014Y-35626377D01*
X96967469Y-35714089D01*
X96980593Y-35718682D01*
X97273304Y-35839926D01*
X97285826Y-35845955D01*
X97554474Y-35994432D01*
X97563139Y-35999221D01*
X97574900Y-36006611D01*
X97833314Y-36189966D01*
X97844174Y-36198627D01*
X98080418Y-36409749D01*
X98090250Y-36419581D01*
X98301372Y-36655825D01*
X98310035Y-36666687D01*
X98493385Y-36925094D01*
X98500778Y-36936860D01*
X98654040Y-37214166D01*
X98660073Y-37226695D01*
X98781317Y-37519406D01*
X98785910Y-37532530D01*
X98873622Y-37836985D01*
X98876716Y-37850542D01*
X98929787Y-38162895D01*
X98931344Y-38176713D01*
X98942115Y-38368513D01*
X98948810Y-38487736D01*
X98949305Y-38496540D01*
X98949499Y-38503098D01*
X98949500Y-38503412D01*
X98949500Y-38565892D01*
X98949701Y-38566643D01*
X98949729Y-38575374D01*
X98949728Y-38575376D01*
X98949729Y-38575387D01*
X99099486Y-87229048D01*
X99099317Y-87235919D01*
X99083408Y-87539494D01*
X99082051Y-87552403D01*
X99034971Y-87849655D01*
X99032273Y-87862351D01*
X98954374Y-88153073D01*
X98950363Y-88165416D01*
X98842510Y-88446384D01*
X98837231Y-88458242D01*
X98700591Y-88726414D01*
X98694101Y-88737654D01*
X98530188Y-88990057D01*
X98522559Y-89000558D01*
X98333149Y-89234460D01*
X98324464Y-89244105D01*
X98111651Y-89456919D01*
X98102005Y-89465604D01*
X97868114Y-89655004D01*
X97857614Y-89662633D01*
X97605203Y-89826551D01*
X97593963Y-89833041D01*
X97325793Y-89969681D01*
X97313935Y-89974960D01*
X97032967Y-90082813D01*
X97020624Y-90086824D01*
X96729902Y-90164723D01*
X96717205Y-90167421D01*
X96419953Y-90214500D01*
X96407046Y-90215857D01*
X96103294Y-90231776D01*
X96096700Y-90231946D01*
X57207929Y-90199419D01*
X57200240Y-90199174D01*
X56882519Y-90179166D01*
X56868773Y-90177526D01*
X56558154Y-90122738D01*
X56544677Y-90119576D01*
X56242106Y-90030508D01*
X56229065Y-90025864D01*
X55938300Y-89903622D01*
X55925858Y-89897553D01*
X55650533Y-89743665D01*
X55638845Y-89736247D01*
X55382386Y-89552625D01*
X55371598Y-89543950D01*
X55137210Y-89332892D01*
X55127462Y-89323076D01*
X54918046Y-89087193D01*
X54909455Y-89076353D01*
X54891217Y-89050498D01*
X54727640Y-88818600D01*
X54720307Y-88806863D01*
X54568363Y-88530464D01*
X54562382Y-88517980D01*
X54554012Y-88497671D01*
X54442189Y-88226361D01*
X54437643Y-88213307D01*
X54350698Y-87910082D01*
X54347638Y-87896610D01*
X54295036Y-87585599D01*
X54293494Y-87571844D01*
X54293459Y-87571213D01*
X54275692Y-87253425D01*
X54275500Y-87246657D01*
X54275500Y-87184108D01*
X54275431Y-87183854D01*
X54275385Y-87139829D01*
X55867177Y-87139829D01*
X55867177Y-87352402D01*
X55896809Y-87539494D01*
X55900431Y-87562359D01*
X55913056Y-87601216D01*
X55966121Y-87764530D01*
X56062628Y-87953936D01*
X56187567Y-88125902D01*
X56337890Y-88276225D01*
X56509856Y-88401164D01*
X56509858Y-88401165D01*
X56509861Y-88401167D01*
X56699265Y-88497673D01*
X56901434Y-88563362D01*
X57111390Y-88596616D01*
X57111391Y-88596616D01*
X57323963Y-88596616D01*
X57323964Y-88596616D01*
X57533920Y-88563362D01*
X57736089Y-88497673D01*
X57925493Y-88401167D01*
X57995908Y-88350008D01*
X58097463Y-88276225D01*
X58097465Y-88276222D01*
X58097469Y-88276220D01*
X58247781Y-88125908D01*
X58247783Y-88125904D01*
X58247786Y-88125902D01*
X58372725Y-87953936D01*
X58372724Y-87953936D01*
X58372728Y-87953932D01*
X58469234Y-87764528D01*
X58534923Y-87562359D01*
X58568177Y-87352403D01*
X58568177Y-87139829D01*
X58534923Y-86929873D01*
X58469234Y-86727704D01*
X58372728Y-86538300D01*
X58372726Y-86538297D01*
X58372725Y-86538295D01*
X58247786Y-86366329D01*
X58097463Y-86216006D01*
X57925497Y-86091067D01*
X57736091Y-85994560D01*
X57736090Y-85994559D01*
X57736089Y-85994559D01*
X57533920Y-85928870D01*
X57533918Y-85928869D01*
X57533917Y-85928869D01*
X57372634Y-85903324D01*
X57323964Y-85895616D01*
X57111390Y-85895616D01*
X57062719Y-85903324D01*
X56901437Y-85928869D01*
X56699262Y-85994560D01*
X56509856Y-86091067D01*
X56337890Y-86216006D01*
X56187567Y-86366329D01*
X56062628Y-86538295D01*
X55966121Y-86727701D01*
X55900430Y-86929876D01*
X55867177Y-87139829D01*
X54275385Y-87139829D01*
X54275360Y-87115185D01*
X54271492Y-83346923D01*
X54225503Y-38553516D01*
X54225697Y-38546481D01*
X54231135Y-38449660D01*
X55801353Y-38449660D01*
X55801353Y-38662233D01*
X55830430Y-38845821D01*
X55834607Y-38872190D01*
X55889694Y-39041731D01*
X55900297Y-39074361D01*
X55996804Y-39263767D01*
X56121743Y-39435733D01*
X56272066Y-39586056D01*
X56444032Y-39710995D01*
X56444034Y-39710996D01*
X56444037Y-39710998D01*
X56633441Y-39807504D01*
X56835610Y-39873193D01*
X57045566Y-39906447D01*
X57045567Y-39906447D01*
X57258139Y-39906447D01*
X57258140Y-39906447D01*
X57468096Y-39873193D01*
X57670265Y-39807504D01*
X57859669Y-39710998D01*
X57938728Y-39653559D01*
X58031639Y-39586056D01*
X58031641Y-39586053D01*
X58031645Y-39586051D01*
X58181957Y-39435739D01*
X58181959Y-39435735D01*
X58181962Y-39435733D01*
X58306901Y-39263767D01*
X58306900Y-39263767D01*
X58306904Y-39263763D01*
X58403410Y-39074359D01*
X58469099Y-38872190D01*
X58502353Y-38662234D01*
X58502353Y-38449660D01*
X58469099Y-38239704D01*
X58403410Y-38037535D01*
X58306904Y-37848131D01*
X58306902Y-37848128D01*
X58306901Y-37848126D01*
X58181962Y-37676160D01*
X58031639Y-37525837D01*
X57859673Y-37400898D01*
X57670267Y-37304391D01*
X57670266Y-37304390D01*
X57670265Y-37304390D01*
X57468096Y-37238701D01*
X57468094Y-37238700D01*
X57468093Y-37238700D01*
X57306810Y-37213155D01*
X57258140Y-37205447D01*
X57045566Y-37205447D01*
X56996895Y-37213155D01*
X56835613Y-37238700D01*
X56633438Y-37304391D01*
X56444032Y-37400898D01*
X56272066Y-37525837D01*
X56121743Y-37676160D01*
X55996804Y-37848126D01*
X55900297Y-38037532D01*
X55834606Y-38239707D01*
X55801353Y-38449660D01*
X54231135Y-38449660D01*
X54243499Y-38229499D01*
X54245053Y-38215705D01*
X54297657Y-37906100D01*
X54300750Y-37892548D01*
X54311594Y-37854910D01*
X54387687Y-37590783D01*
X54392279Y-37577662D01*
X54393210Y-37575415D01*
X54512457Y-37287527D01*
X54518477Y-37275027D01*
X54670399Y-37000142D01*
X54677776Y-36988403D01*
X54859510Y-36732274D01*
X54868156Y-36721431D01*
X55077435Y-36487247D01*
X55087247Y-36477435D01*
X55321431Y-36268156D01*
X55332274Y-36259510D01*
X55588403Y-36077776D01*
X55600142Y-36070399D01*
X55875027Y-35918477D01*
X55887527Y-35912457D01*
X56177666Y-35792277D01*
X56190783Y-35787687D01*
X56492553Y-35700748D01*
X56506100Y-35697657D01*
X56815703Y-35645053D01*
X56829502Y-35643499D01*
X57146515Y-35625695D01*
X57153217Y-35625500D01*
X57215892Y-35625500D01*
X57216365Y-35625372D01*
X57219270Y-35625366D01*
X80796100Y-35579851D01*
X80863176Y-35599406D01*
X80909033Y-35652122D01*
X80919110Y-35721261D01*
X80890208Y-35784873D01*
X80884020Y-35791531D01*
X80818910Y-35856642D01*
X80818908Y-35856644D01*
X80789265Y-35905681D01*
X80737737Y-35952868D01*
X80683148Y-35965531D01*
X77985045Y-35965531D01*
X77956211Y-35971265D01*
X77956212Y-35971266D01*
X77840062Y-35994370D01*
X77840052Y-35994373D01*
X77760050Y-36027510D01*
X77760051Y-36027511D01*
X77703475Y-36050946D01*
X77647549Y-36088315D01*
X77580551Y-36133080D01*
X77580548Y-36133083D01*
X76595662Y-37117970D01*
X76534339Y-37151455D01*
X76507981Y-37154289D01*
X75093183Y-37154289D01*
X75026144Y-37134604D01*
X74980389Y-37081800D01*
X74969183Y-37030289D01*
X74969183Y-36721856D01*
X74969182Y-36721841D01*
X74968982Y-36719305D01*
X74966292Y-36685114D01*
X74966291Y-36685109D01*
X74920616Y-36527896D01*
X74920614Y-36527893D01*
X74920614Y-36527892D01*
X74837273Y-36386969D01*
X74837271Y-36386967D01*
X74837268Y-36386963D01*
X74721508Y-36271203D01*
X74721500Y-36271197D01*
X74643618Y-36225138D01*
X74580580Y-36187858D01*
X74580579Y-36187857D01*
X74580578Y-36187857D01*
X74580575Y-36187855D01*
X74423362Y-36142180D01*
X74423356Y-36142179D01*
X74386630Y-36139289D01*
X74386623Y-36139289D01*
X73910743Y-36139289D01*
X73910735Y-36139289D01*
X73874009Y-36142179D01*
X73874006Y-36142180D01*
X73780234Y-36169424D01*
X73746017Y-36179365D01*
X73711423Y-36184289D01*
X64691293Y-36184289D01*
X64677528Y-36187027D01*
X64677526Y-36187027D01*
X64673351Y-36187858D01*
X64546299Y-36213130D01*
X64487188Y-36237615D01*
X64479861Y-36240649D01*
X64479853Y-36240652D01*
X64409719Y-36269703D01*
X64357832Y-36304373D01*
X64286793Y-36351838D01*
X62806691Y-37831940D01*
X62791345Y-37854910D01*
X62791344Y-37854911D01*
X62724562Y-37954857D01*
X62724560Y-37954860D01*
X62667989Y-38091436D01*
X62667986Y-38091446D01*
X62639146Y-38236433D01*
X62639146Y-39036202D01*
X62619461Y-39103241D01*
X62577147Y-39143589D01*
X62453345Y-39215066D01*
X62387196Y-39253258D01*
X62387193Y-39253259D01*
X62387188Y-39253263D01*
X62199948Y-39396937D01*
X62199941Y-39396943D01*
X62033058Y-39563826D01*
X62033052Y-39563833D01*
X61889376Y-39751076D01*
X61771365Y-39955474D01*
X61771360Y-39955485D01*
X61681040Y-40173537D01*
X61619952Y-40401520D01*
X61589147Y-40635510D01*
X61589146Y-40635526D01*
X61589146Y-40871535D01*
X61589147Y-40871551D01*
X61609852Y-41028826D01*
X61619953Y-41105545D01*
X61644020Y-41195365D01*
X61681040Y-41333524D01*
X61771360Y-41551576D01*
X61771365Y-41551587D01*
X61808572Y-41616030D01*
X61889373Y-41755981D01*
X61889375Y-41755984D01*
X61889376Y-41755985D01*
X62033052Y-41943228D01*
X62033058Y-41943235D01*
X62199941Y-42110118D01*
X62199948Y-42110124D01*
X62241065Y-42141674D01*
X62387196Y-42253804D01*
X62518564Y-42329649D01*
X62591589Y-42371811D01*
X62591594Y-42371813D01*
X62591597Y-42371815D01*
X62809653Y-42462137D01*
X63037632Y-42523224D01*
X63271635Y-42554031D01*
X63271642Y-42554031D01*
X63507650Y-42554031D01*
X63507657Y-42554031D01*
X63741660Y-42523224D01*
X63969639Y-42462137D01*
X64187695Y-42371815D01*
X64392096Y-42253804D01*
X64579345Y-42110123D01*
X64746238Y-41943230D01*
X64889919Y-41755981D01*
X65007930Y-41551580D01*
X65098252Y-41333524D01*
X65159339Y-41105545D01*
X65190146Y-40871542D01*
X65190146Y-40635520D01*
X65159339Y-40401517D01*
X65098252Y-40173538D01*
X65007930Y-39955482D01*
X65007928Y-39955479D01*
X65007926Y-39955474D01*
X64922495Y-39807504D01*
X64889919Y-39751081D01*
X64815088Y-39653559D01*
X64815076Y-39653544D01*
X66669646Y-39653544D01*
X66669646Y-40503531D01*
X67869645Y-40503531D01*
X67844625Y-40563933D01*
X67819646Y-40689512D01*
X67819646Y-40817550D01*
X67844625Y-40943129D01*
X67869645Y-41003531D01*
X66669647Y-41003531D01*
X66669647Y-41853517D01*
X66680140Y-41956228D01*
X66735287Y-42122650D01*
X66735289Y-42122655D01*
X66827330Y-42271876D01*
X66951300Y-42395846D01*
X67100521Y-42487887D01*
X67100526Y-42487889D01*
X67266948Y-42543036D01*
X67266955Y-42543037D01*
X67369665Y-42553530D01*
X68219645Y-42553530D01*
X68219646Y-42553529D01*
X68219646Y-41353532D01*
X68280048Y-41378552D01*
X68405627Y-41403531D01*
X68533665Y-41403531D01*
X68659244Y-41378552D01*
X68719646Y-41353532D01*
X68719646Y-42553530D01*
X69569618Y-42553530D01*
X69569632Y-42553529D01*
X69672343Y-42543036D01*
X69838765Y-42487889D01*
X69838770Y-42487887D01*
X69987991Y-42395846D01*
X70111961Y-42271876D01*
X70204002Y-42122655D01*
X70204004Y-42122650D01*
X70259151Y-41956228D01*
X70259152Y-41956221D01*
X70269645Y-41853517D01*
X70269646Y-41853504D01*
X70269646Y-41003531D01*
X69069647Y-41003531D01*
X69094667Y-40943129D01*
X69119646Y-40817550D01*
X69119646Y-40689512D01*
X69094667Y-40563933D01*
X69069647Y-40503531D01*
X70269645Y-40503531D01*
X70269645Y-39653559D01*
X70269644Y-39653544D01*
X70259151Y-39550833D01*
X70204004Y-39384411D01*
X70204002Y-39384406D01*
X70111961Y-39235185D01*
X69987991Y-39111215D01*
X69838770Y-39019174D01*
X69838765Y-39019172D01*
X69672343Y-38964025D01*
X69672336Y-38964024D01*
X69569632Y-38953531D01*
X68719646Y-38953531D01*
X68719646Y-40153529D01*
X68659244Y-40128510D01*
X68533665Y-40103531D01*
X68405627Y-40103531D01*
X68280048Y-40128510D01*
X68219646Y-40153529D01*
X68219646Y-38953531D01*
X67369674Y-38953531D01*
X67369658Y-38953532D01*
X67266948Y-38964025D01*
X67100526Y-39019172D01*
X67100521Y-39019174D01*
X66951300Y-39111215D01*
X66827330Y-39235185D01*
X66735289Y-39384406D01*
X66735287Y-39384411D01*
X66680140Y-39550833D01*
X66680139Y-39550840D01*
X66669646Y-39653544D01*
X64815076Y-39653544D01*
X64746239Y-39563833D01*
X64746233Y-39563826D01*
X64579350Y-39396943D01*
X64579343Y-39396937D01*
X64392103Y-39253263D01*
X64392101Y-39253261D01*
X64392096Y-39253258D01*
X64283194Y-39190383D01*
X64202145Y-39143589D01*
X64153930Y-39093021D01*
X64140146Y-39036202D01*
X64140146Y-38672583D01*
X64159831Y-38605544D01*
X64176465Y-38584902D01*
X65039759Y-37721608D01*
X65101082Y-37688123D01*
X65127440Y-37685289D01*
X73204183Y-37685289D01*
X73271222Y-37704974D01*
X73316977Y-37757778D01*
X73328183Y-37809289D01*
X73328183Y-38117736D01*
X73331073Y-38154462D01*
X73331074Y-38154465D01*
X73338153Y-38178830D01*
X73369222Y-38285769D01*
X73374146Y-38320362D01*
X73374146Y-39594973D01*
X73354461Y-39662012D01*
X73315244Y-39700510D01*
X73298247Y-39710995D01*
X73180988Y-39783320D01*
X73056935Y-39907373D01*
X72964833Y-40056694D01*
X72964832Y-40056697D01*
X72909647Y-40223234D01*
X72909647Y-40223235D01*
X72909646Y-40223235D01*
X72899146Y-40326014D01*
X72899146Y-40926032D01*
X72899147Y-40926050D01*
X72909646Y-41028827D01*
X72909647Y-41028830D01*
X72955725Y-41167882D01*
X72964832Y-41195365D01*
X73056934Y-41344687D01*
X73180990Y-41468743D01*
X73184274Y-41470768D01*
X73184299Y-41470784D01*
X73186091Y-41472777D01*
X73186657Y-41473224D01*
X73186580Y-41473320D01*
X73231025Y-41522730D01*
X73242249Y-41591692D01*
X73214407Y-41655775D01*
X73184311Y-41681857D01*
X73181306Y-41683710D01*
X73181301Y-41683714D01*
X73057330Y-41807685D01*
X72965289Y-41956906D01*
X72965287Y-41956911D01*
X72910140Y-42123333D01*
X72910139Y-42123340D01*
X72899646Y-42226044D01*
X72899646Y-42276031D01*
X75349645Y-42276031D01*
X75349645Y-42226059D01*
X75349644Y-42226044D01*
X75339151Y-42123333D01*
X75284004Y-41956911D01*
X75284002Y-41956906D01*
X75191961Y-41807685D01*
X75067990Y-41683714D01*
X75067987Y-41683712D01*
X75064985Y-41681860D01*
X75063359Y-41680052D01*
X75062323Y-41679233D01*
X75062463Y-41679055D01*
X75018263Y-41629911D01*
X75007043Y-41560948D01*
X75034889Y-41496867D01*
X75064990Y-41470785D01*
X75068302Y-41468743D01*
X75192358Y-41344687D01*
X75284460Y-41195365D01*
X75339645Y-41028828D01*
X75350146Y-40926040D01*
X75350145Y-40326023D01*
X75348433Y-40309267D01*
X75339645Y-40223234D01*
X75339644Y-40223231D01*
X75323177Y-40173537D01*
X75284460Y-40056697D01*
X75192358Y-39907375D01*
X75122057Y-39837074D01*
X79732146Y-39837074D01*
X79738211Y-39903823D01*
X79786075Y-40057427D01*
X79869309Y-40195111D01*
X79983065Y-40308867D01*
X80120753Y-40392103D01*
X80120752Y-40392103D01*
X80274343Y-40439963D01*
X80274353Y-40439966D01*
X80307145Y-40442945D01*
X80307146Y-40442945D01*
X80807146Y-40442945D01*
X80839938Y-40439966D01*
X80839948Y-40439963D01*
X80993538Y-40392103D01*
X81131226Y-40308867D01*
X81244982Y-40195111D01*
X81328216Y-40057427D01*
X81376080Y-39903823D01*
X81382146Y-39837074D01*
X81382146Y-39586031D01*
X80807146Y-39586031D01*
X80807146Y-40442945D01*
X80307146Y-40442945D01*
X80307146Y-39586031D01*
X79732146Y-39586031D01*
X79732146Y-39837074D01*
X75122057Y-39837074D01*
X75068302Y-39783319D01*
X74934048Y-39700511D01*
X74927224Y-39692924D01*
X74917943Y-39688686D01*
X74904254Y-39667386D01*
X74887325Y-39648564D01*
X74884680Y-39636928D01*
X74880169Y-39629908D01*
X74875146Y-39594973D01*
X74875146Y-38834987D01*
X79732146Y-38834987D01*
X79732146Y-39086031D01*
X80307146Y-39086031D01*
X80807146Y-39086031D01*
X81382146Y-39086031D01*
X81382146Y-38834987D01*
X81376080Y-38768238D01*
X81328216Y-38614634D01*
X81244982Y-38476950D01*
X81131226Y-38363194D01*
X80993542Y-38279960D01*
X80839940Y-38232097D01*
X80807146Y-38229116D01*
X80807146Y-39086031D01*
X80307146Y-39086031D01*
X80307146Y-38229116D01*
X80307145Y-38229116D01*
X80274351Y-38232097D01*
X80120749Y-38279960D01*
X79983065Y-38363194D01*
X79869309Y-38476950D01*
X79786075Y-38614634D01*
X79738211Y-38768238D01*
X79732146Y-38834987D01*
X74875146Y-38834987D01*
X74875146Y-38779289D01*
X74894831Y-38712250D01*
X74947635Y-38666495D01*
X74999146Y-38655289D01*
X76944131Y-38655289D01*
X77041673Y-38635885D01*
X77089124Y-38626447D01*
X77212421Y-38575376D01*
X77225704Y-38569874D01*
X77225704Y-38569873D01*
X77225706Y-38569873D01*
X77286479Y-38529266D01*
X77286479Y-38529265D01*
X77286481Y-38529265D01*
X77338231Y-38494687D01*
X77348627Y-38487741D01*
X78333517Y-37502849D01*
X78394840Y-37469365D01*
X78421198Y-37466531D01*
X80683148Y-37466531D01*
X80750187Y-37486216D01*
X80789265Y-37526381D01*
X80818907Y-37575415D01*
X80818908Y-37575416D01*
X80818910Y-37575419D01*
X80932758Y-37689267D01*
X81070544Y-37772562D01*
X81224259Y-37820461D01*
X81291055Y-37826531D01*
X81582647Y-37826530D01*
X81649685Y-37846214D01*
X81695440Y-37899018D01*
X81706646Y-37950530D01*
X81706646Y-38545071D01*
X81688764Y-38609218D01*
X81685617Y-38614423D01*
X81685615Y-38614428D01*
X81685615Y-38614429D01*
X81685551Y-38614634D01*
X81637715Y-38768147D01*
X81631646Y-38834942D01*
X81631646Y-39837129D01*
X81637714Y-39903913D01*
X81637717Y-39903924D01*
X81685613Y-40057629D01*
X81685614Y-40057631D01*
X81685615Y-40057633D01*
X81758083Y-40177509D01*
X81768912Y-40195422D01*
X81882754Y-40309264D01*
X81882756Y-40309265D01*
X81882758Y-40309267D01*
X82020544Y-40392562D01*
X82174259Y-40440461D01*
X82241055Y-40446531D01*
X82673236Y-40446530D01*
X82673244Y-40446530D01*
X82740028Y-40440462D01*
X82740031Y-40440461D01*
X82740033Y-40440461D01*
X82893748Y-40392562D01*
X83031534Y-40309267D01*
X83145382Y-40195419D01*
X83228677Y-40057633D01*
X83276576Y-39903918D01*
X83282646Y-39837122D01*
X83282645Y-38834941D01*
X83282645Y-38834940D01*
X83282645Y-38834929D01*
X83276577Y-38768148D01*
X83276574Y-38768137D01*
X83228678Y-38614431D01*
X83228674Y-38614423D01*
X83225528Y-38609218D01*
X83207646Y-38545071D01*
X83207646Y-38230083D01*
X83227331Y-38163044D01*
X83243965Y-38142402D01*
X84749548Y-36636819D01*
X84776475Y-36622115D01*
X84802294Y-36605523D01*
X84808494Y-36604631D01*
X84810871Y-36603334D01*
X84837229Y-36600500D01*
X84863770Y-36600500D01*
X84930809Y-36620185D01*
X84976564Y-36672989D01*
X84986508Y-36742147D01*
X84957483Y-36805703D01*
X84951451Y-36812181D01*
X83817050Y-37946580D01*
X83817044Y-37946588D01*
X83767812Y-38020268D01*
X83767813Y-38020269D01*
X83734921Y-38069496D01*
X83734914Y-38069508D01*
X83678342Y-38206086D01*
X83678340Y-38206092D01*
X83649500Y-38351079D01*
X83649500Y-42862770D01*
X83629815Y-42929809D01*
X83613181Y-42950451D01*
X82380347Y-44183285D01*
X82319024Y-44216770D01*
X82292666Y-44219604D01*
X81577360Y-44219604D01*
X81542765Y-44214680D01*
X81397605Y-44172506D01*
X81397599Y-44172505D01*
X81360733Y-44169604D01*
X81360726Y-44169604D01*
X80782261Y-44169604D01*
X80715222Y-44149919D01*
X80694580Y-44133285D01*
X80197453Y-43636156D01*
X80197452Y-43636155D01*
X80114148Y-43580494D01*
X80114147Y-43580493D01*
X80074532Y-43554023D01*
X80074520Y-43554016D01*
X79937949Y-43497447D01*
X79937939Y-43497444D01*
X79792952Y-43468604D01*
X79792950Y-43468604D01*
X75267096Y-43468604D01*
X75200057Y-43448919D01*
X75154302Y-43396115D01*
X75144358Y-43326957D01*
X75173383Y-43263401D01*
X75179415Y-43256923D01*
X75191961Y-43244376D01*
X75284002Y-43095155D01*
X75284004Y-43095150D01*
X75339151Y-42928728D01*
X75339152Y-42928721D01*
X75349645Y-42826017D01*
X75349646Y-42826004D01*
X75349646Y-42776031D01*
X72899647Y-42776031D01*
X72899647Y-42826017D01*
X72910140Y-42928728D01*
X72965287Y-43095150D01*
X72965289Y-43095155D01*
X73057330Y-43244376D01*
X73069877Y-43256923D01*
X73103362Y-43318246D01*
X73098378Y-43387938D01*
X73056506Y-43443871D01*
X72991042Y-43468288D01*
X72982196Y-43468604D01*
X65331976Y-43468604D01*
X65186988Y-43497444D01*
X65186978Y-43497447D01*
X65050407Y-43554016D01*
X65050394Y-43554023D01*
X64927480Y-43636152D01*
X64927476Y-43636155D01*
X61016691Y-47546940D01*
X60982401Y-47598263D01*
X60982399Y-47598266D01*
X60934565Y-47669853D01*
X60934558Y-47669865D01*
X60877989Y-47806436D01*
X60877986Y-47806446D01*
X60849146Y-47951433D01*
X60849146Y-50426531D01*
X60829461Y-50493570D01*
X60776657Y-50539325D01*
X60725146Y-50550531D01*
X60201775Y-50550531D01*
X60201769Y-50550532D01*
X60142162Y-50556939D01*
X60007317Y-50607233D01*
X60007310Y-50607237D01*
X59892101Y-50693483D01*
X59892098Y-50693486D01*
X59805852Y-50808695D01*
X59805848Y-50808702D01*
X59755554Y-50943548D01*
X59749147Y-51003147D01*
X59749147Y-51003154D01*
X59749146Y-51003166D01*
X59749146Y-54698901D01*
X59749147Y-54698907D01*
X59755554Y-54758514D01*
X59805848Y-54893359D01*
X59805852Y-54893366D01*
X59892098Y-55008575D01*
X59892101Y-55008578D01*
X60007310Y-55094824D01*
X60007317Y-55094828D01*
X60142163Y-55145122D01*
X60142162Y-55145122D01*
X60149090Y-55145866D01*
X60201773Y-55151531D01*
X62997518Y-55151530D01*
X63057129Y-55145122D01*
X63191977Y-55094827D01*
X63307192Y-55008577D01*
X63393442Y-54893362D01*
X63443737Y-54758514D01*
X63450146Y-54698904D01*
X63450145Y-51003159D01*
X63443737Y-50943548D01*
X63403221Y-50834920D01*
X63393443Y-50808702D01*
X63393439Y-50808695D01*
X63307193Y-50693486D01*
X63307190Y-50693483D01*
X63191981Y-50607237D01*
X63191974Y-50607233D01*
X63057128Y-50556939D01*
X63057129Y-50556939D01*
X62997529Y-50550532D01*
X62997527Y-50550531D01*
X62997519Y-50550531D01*
X62997511Y-50550531D01*
X62474146Y-50550531D01*
X62407107Y-50530846D01*
X62361352Y-50478042D01*
X62350146Y-50426531D01*
X62350146Y-48387583D01*
X62369831Y-48320544D01*
X62386465Y-48299902D01*
X65680444Y-45005923D01*
X65741767Y-44972438D01*
X65768125Y-44969604D01*
X71796758Y-44969604D01*
X71863797Y-44989289D01*
X71909552Y-45042093D01*
X71920758Y-45093604D01*
X71920758Y-45422701D01*
X71901073Y-45489740D01*
X71897331Y-45495062D01*
X71896723Y-45496115D01*
X71836214Y-45642196D01*
X71836213Y-45642198D01*
X71820758Y-45759597D01*
X71820758Y-46098322D01*
X71836213Y-46215722D01*
X71836521Y-46216871D01*
X71836521Y-46218060D01*
X71837274Y-46223780D01*
X71836521Y-46223879D01*
X71836523Y-46274040D01*
X71837275Y-46274139D01*
X71836523Y-46279843D01*
X71836524Y-46281038D01*
X71836214Y-46282193D01*
X71820758Y-46399597D01*
X71820758Y-46738322D01*
X71836211Y-46855712D01*
X71836213Y-46855719D01*
X71836214Y-46855721D01*
X71896722Y-47001800D01*
X71992976Y-47127241D01*
X72118417Y-47223495D01*
X72264496Y-47284003D01*
X72381897Y-47299459D01*
X72660618Y-47299458D01*
X72660621Y-47299458D01*
X72778011Y-47284005D01*
X72778015Y-47284003D01*
X72778020Y-47284003D01*
X72924094Y-47223497D01*
X72924095Y-47223497D01*
X72924095Y-47223496D01*
X72924099Y-47223495D01*
X72961127Y-47195082D01*
X72982447Y-47186839D01*
X73001677Y-47174482D01*
X73021955Y-47171566D01*
X73026294Y-47169889D01*
X73036612Y-47169459D01*
X73144372Y-47169459D01*
X73144388Y-47169460D01*
X73151984Y-47169460D01*
X73310095Y-47169460D01*
X73310098Y-47169460D01*
X73462826Y-47128536D01*
X73512945Y-47099598D01*
X73599757Y-47049479D01*
X73711561Y-46937675D01*
X73711561Y-46937673D01*
X73721769Y-46927466D01*
X73721771Y-46927463D01*
X73918713Y-46730521D01*
X73918716Y-46730520D01*
X73945117Y-46704118D01*
X73980506Y-46684796D01*
X74006432Y-46670639D01*
X74006434Y-46670639D01*
X74006437Y-46670638D01*
X74053743Y-46674022D01*
X74076124Y-46675623D01*
X74076129Y-46675624D01*
X74110242Y-46701162D01*
X74132058Y-46717493D01*
X74139524Y-46728684D01*
X74176948Y-46791965D01*
X74181734Y-46798135D01*
X74179288Y-46800031D01*
X74205889Y-46848746D01*
X74200905Y-46918438D01*
X74180101Y-46950807D01*
X74181734Y-46952073D01*
X74176949Y-46958241D01*
X74093287Y-47099707D01*
X74093286Y-47099710D01*
X74047434Y-47257530D01*
X74047433Y-47257536D01*
X74044532Y-47294402D01*
X74044532Y-47725805D01*
X74047433Y-47762671D01*
X74047434Y-47762677D01*
X74093286Y-47920497D01*
X74093287Y-47920500D01*
X74093288Y-47920502D01*
X74111582Y-47951436D01*
X74176949Y-48061966D01*
X74181734Y-48068135D01*
X74179288Y-48070031D01*
X74205889Y-48118746D01*
X74200905Y-48188438D01*
X74180101Y-48220807D01*
X74181734Y-48222073D01*
X74176949Y-48228241D01*
X74093287Y-48369707D01*
X74093286Y-48369710D01*
X74047434Y-48527530D01*
X74047433Y-48527536D01*
X74044532Y-48564402D01*
X74044532Y-48995805D01*
X74047433Y-49032671D01*
X74047434Y-49032677D01*
X74093286Y-49190497D01*
X74093287Y-49190500D01*
X74176949Y-49331966D01*
X74176955Y-49331974D01*
X74293161Y-49448180D01*
X74293165Y-49448183D01*
X74293167Y-49448185D01*
X74434634Y-49531848D01*
X74476256Y-49543940D01*
X74592458Y-49577701D01*
X74592461Y-49577701D01*
X74592463Y-49577702D01*
X74629338Y-49580604D01*
X74645532Y-49580604D01*
X74712571Y-49600289D01*
X74758326Y-49653093D01*
X74769532Y-49704604D01*
X74769532Y-49793950D01*
X74799562Y-49944919D01*
X74798409Y-49945148D01*
X74798975Y-50008748D01*
X74761724Y-50067859D01*
X74698428Y-50097447D01*
X74645710Y-50093002D01*
X74645618Y-50093435D01*
X74642222Y-50092707D01*
X74640694Y-50092579D01*
X74639860Y-50092302D01*
X74638999Y-50092017D01*
X74536214Y-50081517D01*
X73136202Y-50081517D01*
X73136185Y-50081518D01*
X73033407Y-50092017D01*
X73033404Y-50092018D01*
X72866872Y-50147202D01*
X72866867Y-50147204D01*
X72717546Y-50239306D01*
X72588385Y-50368468D01*
X72586498Y-50366581D01*
X72539579Y-50399805D01*
X72499336Y-50406517D01*
X71519736Y-50406517D01*
X71490902Y-50412251D01*
X71490903Y-50412252D01*
X71374753Y-50435356D01*
X71374743Y-50435359D01*
X71294741Y-50468496D01*
X71294742Y-50468497D01*
X71238166Y-50491932D01*
X71190296Y-50523918D01*
X71190294Y-50523919D01*
X71181739Y-50529635D01*
X71115062Y-50550511D01*
X71112851Y-50550531D01*
X68501775Y-50550531D01*
X68501769Y-50550532D01*
X68442162Y-50556939D01*
X68307317Y-50607233D01*
X68307310Y-50607237D01*
X68192101Y-50693483D01*
X68192098Y-50693486D01*
X68105852Y-50808695D01*
X68105848Y-50808702D01*
X68055554Y-50943548D01*
X68049147Y-51003147D01*
X68049147Y-51003154D01*
X68049146Y-51003166D01*
X68049146Y-54698901D01*
X68049147Y-54698907D01*
X68055554Y-54758514D01*
X68105848Y-54893359D01*
X68105852Y-54893366D01*
X68192098Y-55008575D01*
X68192101Y-55008578D01*
X68307310Y-55094824D01*
X68307317Y-55094828D01*
X68352264Y-55111592D01*
X68442163Y-55145122D01*
X68501773Y-55151531D01*
X69025146Y-55151530D01*
X69092185Y-55171214D01*
X69137940Y-55224018D01*
X69149146Y-55275530D01*
X69149146Y-56301041D01*
X69149500Y-56308251D01*
X69149500Y-58037770D01*
X69129815Y-58104809D01*
X69113181Y-58125451D01*
X67972088Y-59266544D01*
X67910765Y-59300029D01*
X67884407Y-59302863D01*
X57743676Y-59302863D01*
X57676637Y-59283178D01*
X57643358Y-59251748D01*
X57586562Y-59173574D01*
X57436241Y-59023253D01*
X57264275Y-58898314D01*
X57074869Y-58801807D01*
X57074868Y-58801806D01*
X57074867Y-58801806D01*
X56872698Y-58736117D01*
X56872696Y-58736116D01*
X56872695Y-58736116D01*
X56711412Y-58710571D01*
X56662742Y-58702863D01*
X56450168Y-58702863D01*
X56401497Y-58710571D01*
X56240215Y-58736116D01*
X56038040Y-58801807D01*
X55848634Y-58898314D01*
X55676668Y-59023253D01*
X55526345Y-59173576D01*
X55401406Y-59345542D01*
X55304899Y-59534948D01*
X55239208Y-59737123D01*
X55205955Y-59947076D01*
X55205955Y-60159649D01*
X55239058Y-60368657D01*
X55239209Y-60369606D01*
X55270109Y-60464707D01*
X55304899Y-60571777D01*
X55401406Y-60761183D01*
X55526345Y-60933149D01*
X55676668Y-61083472D01*
X55848637Y-61208413D01*
X55857401Y-61212879D01*
X55908197Y-61260854D01*
X55924991Y-61328675D01*
X55902453Y-61394810D01*
X55857401Y-61433847D01*
X55848637Y-61438312D01*
X55676668Y-61563253D01*
X55526345Y-61713576D01*
X55401406Y-61885542D01*
X55304899Y-62074948D01*
X55239208Y-62277123D01*
X55226695Y-62356127D01*
X55205955Y-62487076D01*
X55205955Y-62699650D01*
X55213437Y-62746890D01*
X55233719Y-62874947D01*
X55239209Y-62909606D01*
X55287527Y-63058314D01*
X55304899Y-63111777D01*
X55401406Y-63301183D01*
X55526345Y-63473149D01*
X55676668Y-63623472D01*
X55848637Y-63748413D01*
X55857401Y-63752879D01*
X55908197Y-63800854D01*
X55924991Y-63868675D01*
X55902453Y-63934810D01*
X55857401Y-63973847D01*
X55848637Y-63978312D01*
X55676668Y-64103253D01*
X55526345Y-64253576D01*
X55401406Y-64425542D01*
X55304899Y-64614948D01*
X55239208Y-64817123D01*
X55205955Y-65027076D01*
X55205955Y-65239649D01*
X55238196Y-65443215D01*
X55239209Y-65449606D01*
X55301948Y-65642697D01*
X55304899Y-65651777D01*
X55401406Y-65841183D01*
X55526345Y-66013149D01*
X55676668Y-66163472D01*
X55848637Y-66288413D01*
X55857401Y-66292879D01*
X55908197Y-66340854D01*
X55924991Y-66408675D01*
X55902453Y-66474810D01*
X55857401Y-66513847D01*
X55848637Y-66518312D01*
X55676668Y-66643253D01*
X55526345Y-66793576D01*
X55401406Y-66965542D01*
X55304899Y-67154948D01*
X55239208Y-67357123D01*
X55213892Y-67516965D01*
X55205955Y-67567076D01*
X55205955Y-67779650D01*
X55212235Y-67819297D01*
X55236645Y-67973421D01*
X55239209Y-67989606D01*
X55304648Y-68191007D01*
X55304899Y-68191777D01*
X55401406Y-68381183D01*
X55526345Y-68553149D01*
X55676668Y-68703472D01*
X55848637Y-68828413D01*
X55857401Y-68832879D01*
X55908197Y-68880854D01*
X55924991Y-68948675D01*
X55902453Y-69014810D01*
X55857401Y-69053847D01*
X55848637Y-69058312D01*
X55676668Y-69183253D01*
X55526345Y-69333576D01*
X55401406Y-69505542D01*
X55304899Y-69694948D01*
X55239208Y-69897123D01*
X55205955Y-70107076D01*
X55205955Y-70319649D01*
X55217634Y-70393391D01*
X55239209Y-70529606D01*
X55293325Y-70696158D01*
X55304899Y-70731777D01*
X55401406Y-70921183D01*
X55526345Y-71093149D01*
X55676668Y-71243472D01*
X55848637Y-71368413D01*
X55857401Y-71372879D01*
X55908197Y-71420854D01*
X55924991Y-71488675D01*
X55902453Y-71554810D01*
X55857401Y-71593847D01*
X55848637Y-71598312D01*
X55676668Y-71723253D01*
X55526345Y-71873576D01*
X55401406Y-72045542D01*
X55304899Y-72234948D01*
X55239208Y-72437123D01*
X55205955Y-72647076D01*
X55205955Y-72859649D01*
X55231943Y-73023735D01*
X55239209Y-73069606D01*
X55296192Y-73244982D01*
X55304899Y-73271777D01*
X55401406Y-73461183D01*
X55526345Y-73633149D01*
X55676668Y-73783472D01*
X55848637Y-73908413D01*
X55857401Y-73912879D01*
X55908197Y-73960854D01*
X55924991Y-74028675D01*
X55902453Y-74094810D01*
X55857401Y-74133847D01*
X55848637Y-74138312D01*
X55676668Y-74263253D01*
X55526345Y-74413576D01*
X55401406Y-74585542D01*
X55304899Y-74774948D01*
X55239208Y-74977123D01*
X55211843Y-75149902D01*
X55205955Y-75187076D01*
X55205955Y-75399650D01*
X55239209Y-75609606D01*
X55303173Y-75806467D01*
X55304899Y-75811777D01*
X55401406Y-76001183D01*
X55526345Y-76173149D01*
X55640273Y-76287077D01*
X55673758Y-76348400D01*
X55668774Y-76418092D01*
X55626902Y-76474025D01*
X55595926Y-76490940D01*
X55464367Y-76540009D01*
X55464361Y-76540012D01*
X55349267Y-76626172D01*
X55349264Y-76626175D01*
X55263104Y-76741269D01*
X55263100Y-76741276D01*
X55212858Y-76875983D01*
X55212856Y-76875990D01*
X55206455Y-76935518D01*
X55206455Y-77583363D01*
X56123443Y-77583363D01*
X56090530Y-77640370D01*
X56056455Y-77767537D01*
X56056455Y-77899189D01*
X56090530Y-78026356D01*
X56123443Y-78083363D01*
X55206455Y-78083363D01*
X55206455Y-78731207D01*
X55212856Y-78790735D01*
X55212858Y-78790742D01*
X55263100Y-78925449D01*
X55263104Y-78925456D01*
X55349264Y-79040550D01*
X55349267Y-79040553D01*
X55464361Y-79126713D01*
X55464368Y-79126717D01*
X55599075Y-79176959D01*
X55599082Y-79176961D01*
X55658610Y-79183362D01*
X55658627Y-79183363D01*
X56306455Y-79183363D01*
X56306455Y-78266375D01*
X56363462Y-78299288D01*
X56490629Y-78333363D01*
X56622281Y-78333363D01*
X56749448Y-78299288D01*
X56806455Y-78266375D01*
X56806455Y-79183363D01*
X57454283Y-79183363D01*
X57454299Y-79183362D01*
X57513827Y-79176961D01*
X57513834Y-79176959D01*
X57648541Y-79126717D01*
X57648548Y-79126713D01*
X57763642Y-79040553D01*
X57763645Y-79040550D01*
X57849805Y-78925456D01*
X57849809Y-78925449D01*
X57900051Y-78790742D01*
X57900053Y-78790735D01*
X57906454Y-78731207D01*
X57906455Y-78731190D01*
X57906455Y-78083363D01*
X56989467Y-78083363D01*
X57022380Y-78026356D01*
X57056455Y-77899189D01*
X57056455Y-77767537D01*
X57022380Y-77640370D01*
X56989467Y-77583363D01*
X57906455Y-77583363D01*
X57906455Y-76935535D01*
X57906454Y-76935518D01*
X57900053Y-76875990D01*
X57900051Y-76875983D01*
X57849809Y-76741276D01*
X57849805Y-76741269D01*
X57763645Y-76626175D01*
X57763642Y-76626172D01*
X57648548Y-76540012D01*
X57648543Y-76540009D01*
X57516983Y-76490940D01*
X57461050Y-76449068D01*
X57436633Y-76383604D01*
X57451485Y-76315331D01*
X57472630Y-76287083D01*
X57586559Y-76173155D01*
X57674747Y-76051773D01*
X57730073Y-76009110D01*
X57799686Y-76003129D01*
X57861482Y-76035734D01*
X57862744Y-76036979D01*
X61765139Y-79939374D01*
X61765149Y-79939385D01*
X61769479Y-79943715D01*
X61769480Y-79943716D01*
X61881284Y-80055520D01*
X61966554Y-80104750D01*
X62018215Y-80134577D01*
X62170943Y-80175500D01*
X62329057Y-80175500D01*
X63464241Y-80175500D01*
X63531280Y-80195185D01*
X63577035Y-80247989D01*
X63586979Y-80317147D01*
X63567343Y-80368391D01*
X63515609Y-80445815D01*
X63515602Y-80445827D01*
X63455264Y-80591498D01*
X63455261Y-80591510D01*
X63424500Y-80746153D01*
X63424500Y-80746158D01*
X63424500Y-80903842D01*
X63426766Y-80915237D01*
X63428969Y-80926310D01*
X63422740Y-80995901D01*
X63379877Y-81051078D01*
X63313987Y-81074322D01*
X63307351Y-81074500D01*
X62679766Y-81074500D01*
X62612727Y-81054815D01*
X62610875Y-81053602D01*
X62479185Y-80965609D01*
X62479172Y-80965602D01*
X62333501Y-80905264D01*
X62333489Y-80905261D01*
X62178845Y-80874500D01*
X62178842Y-80874500D01*
X62021158Y-80874500D01*
X62021155Y-80874500D01*
X61866510Y-80905261D01*
X61866498Y-80905264D01*
X61720827Y-80965602D01*
X61720814Y-80965609D01*
X61589711Y-81053210D01*
X61589707Y-81053213D01*
X61478213Y-81164707D01*
X61478210Y-81164711D01*
X61390609Y-81295814D01*
X61390602Y-81295827D01*
X61330264Y-81441498D01*
X61330261Y-81441510D01*
X61299500Y-81596153D01*
X61299500Y-81753846D01*
X61330261Y-81908489D01*
X61330264Y-81908501D01*
X61390602Y-82054172D01*
X61390609Y-82054185D01*
X61478210Y-82185288D01*
X61478213Y-82185292D01*
X61589707Y-82296786D01*
X61589711Y-82296789D01*
X61720814Y-82384390D01*
X61720827Y-82384397D01*
X61864033Y-82443714D01*
X61866503Y-82444737D01*
X62021153Y-82475499D01*
X62021156Y-82475500D01*
X62021158Y-82475500D01*
X62178844Y-82475500D01*
X62178845Y-82475499D01*
X62333497Y-82444737D01*
X62479179Y-82384394D01*
X62586028Y-82313000D01*
X62610875Y-82296398D01*
X62677553Y-82275520D01*
X62679766Y-82275500D01*
X67088399Y-82275500D01*
X67124391Y-82280838D01*
X67128995Y-82282233D01*
X67129003Y-82282237D01*
X67283653Y-82312999D01*
X67283656Y-82313000D01*
X67283658Y-82313000D01*
X67441344Y-82313000D01*
X67441345Y-82312999D01*
X67595997Y-82282237D01*
X67741679Y-82221894D01*
X67872789Y-82134289D01*
X67984289Y-82022789D01*
X68071894Y-81891679D01*
X68132237Y-81745997D01*
X68163000Y-81591342D01*
X68163000Y-81549500D01*
X68182685Y-81482461D01*
X68235489Y-81436706D01*
X68287000Y-81425500D01*
X69551578Y-81425500D01*
X69551594Y-81425501D01*
X69559190Y-81425501D01*
X69717301Y-81425501D01*
X69717304Y-81425501D01*
X69870032Y-81384577D01*
X69940805Y-81343716D01*
X70006963Y-81305520D01*
X70118767Y-81193716D01*
X70118768Y-81193714D01*
X70139662Y-81172819D01*
X70200983Y-81139336D01*
X70203149Y-81138885D01*
X70235530Y-81132443D01*
X70300416Y-81119537D01*
X70370007Y-81125764D01*
X70425184Y-81168627D01*
X70448429Y-81234516D01*
X70448607Y-81241154D01*
X70448607Y-81412437D01*
X70448606Y-81412455D01*
X70448606Y-81578161D01*
X70448605Y-81578161D01*
X70489530Y-81730892D01*
X70502906Y-81754060D01*
X70518465Y-81781007D01*
X70518466Y-81781011D01*
X70518467Y-81781011D01*
X70568586Y-81867821D01*
X70568588Y-81867824D01*
X70687456Y-81986692D01*
X70687462Y-81986697D01*
X71900582Y-83199818D01*
X71904919Y-83207761D01*
X71912166Y-83213186D01*
X71921402Y-83237947D01*
X71934067Y-83261141D01*
X71933421Y-83270168D01*
X71936585Y-83278650D01*
X71930968Y-83304473D01*
X71929083Y-83330833D01*
X71923265Y-83339884D01*
X71921735Y-83346923D01*
X71900585Y-83375178D01*
X71862586Y-83413179D01*
X71801263Y-83446666D01*
X71774902Y-83449500D01*
X70209798Y-83449500D01*
X70142759Y-83429815D01*
X70104259Y-83390597D01*
X70067712Y-83331344D01*
X69943656Y-83207288D01*
X69794334Y-83115186D01*
X69627797Y-83060001D01*
X69627795Y-83060000D01*
X69525010Y-83049500D01*
X67124998Y-83049500D01*
X67124981Y-83049501D01*
X67022203Y-83060000D01*
X67022200Y-83060001D01*
X66855668Y-83115185D01*
X66855663Y-83115187D01*
X66706342Y-83207289D01*
X66582289Y-83331342D01*
X66545741Y-83390597D01*
X66493793Y-83437321D01*
X66440202Y-83449500D01*
X64409798Y-83449500D01*
X64342759Y-83429815D01*
X64304259Y-83390597D01*
X64267712Y-83331344D01*
X64143656Y-83207288D01*
X63994334Y-83115186D01*
X63827797Y-83060001D01*
X63827795Y-83060000D01*
X63725010Y-83049500D01*
X61324998Y-83049500D01*
X61324981Y-83049501D01*
X61222203Y-83060000D01*
X61222200Y-83060001D01*
X61055668Y-83115185D01*
X61055663Y-83115187D01*
X60906342Y-83207289D01*
X60782289Y-83331342D01*
X60690187Y-83480663D01*
X60690186Y-83480666D01*
X60635001Y-83647203D01*
X60635001Y-83647204D01*
X60635000Y-83647204D01*
X60624500Y-83749983D01*
X60624500Y-84350001D01*
X60624501Y-84350019D01*
X60635000Y-84452796D01*
X60635001Y-84452798D01*
X60690185Y-84619331D01*
X60690187Y-84619336D01*
X60709409Y-84650500D01*
X60782288Y-84768656D01*
X60906344Y-84892712D01*
X61055666Y-84984814D01*
X61222203Y-85039999D01*
X61324991Y-85050500D01*
X63725008Y-85050499D01*
X63827797Y-85039999D01*
X63994334Y-84984814D01*
X64143656Y-84892712D01*
X64267712Y-84768656D01*
X64304259Y-84709402D01*
X64356207Y-84662679D01*
X64409798Y-84650500D01*
X66440202Y-84650500D01*
X66507241Y-84670185D01*
X66545739Y-84709401D01*
X66582288Y-84768656D01*
X66706344Y-84892712D01*
X66855666Y-84984814D01*
X67022203Y-85039999D01*
X67124991Y-85050500D01*
X69525008Y-85050499D01*
X69627797Y-85039999D01*
X69794334Y-84984814D01*
X69943656Y-84892712D01*
X70067712Y-84768656D01*
X70104259Y-84709402D01*
X70156207Y-84662679D01*
X70209798Y-84650500D01*
X71988331Y-84650500D01*
X71988347Y-84650501D01*
X71995943Y-84650501D01*
X72154054Y-84650501D01*
X72154057Y-84650501D01*
X72306785Y-84609577D01*
X72356904Y-84580639D01*
X72443716Y-84530520D01*
X72555520Y-84418716D01*
X72555520Y-84418714D01*
X72565728Y-84408507D01*
X72565730Y-84408504D01*
X73206213Y-83768021D01*
X73206216Y-83768020D01*
X73318020Y-83656216D01*
X73318021Y-83656213D01*
X73887820Y-83086414D01*
X73949142Y-83052930D01*
X74018834Y-83057914D01*
X74074767Y-83099786D01*
X74099184Y-83165250D01*
X74099500Y-83174096D01*
X74099500Y-84999902D01*
X74079815Y-85066941D01*
X74063181Y-85087583D01*
X72087584Y-87063181D01*
X72026261Y-87096666D01*
X71999903Y-87099500D01*
X71054766Y-87099500D01*
X70987727Y-87079815D01*
X70985875Y-87078602D01*
X70854185Y-86990609D01*
X70854172Y-86990602D01*
X70708501Y-86930264D01*
X70708489Y-86930261D01*
X70553845Y-86899500D01*
X70553842Y-86899500D01*
X70396158Y-86899500D01*
X70396155Y-86899500D01*
X70241510Y-86930261D01*
X70241498Y-86930264D01*
X70095827Y-86990602D01*
X70095814Y-86990609D01*
X69964714Y-87078208D01*
X69964707Y-87078213D01*
X69946168Y-87096752D01*
X69884844Y-87130234D01*
X69815152Y-87125247D01*
X69799629Y-87117656D01*
X69794336Y-87115187D01*
X69794334Y-87115186D01*
X69627797Y-87060001D01*
X69627795Y-87060000D01*
X69525010Y-87049500D01*
X67124998Y-87049500D01*
X67124981Y-87049501D01*
X67022203Y-87060000D01*
X67022200Y-87060001D01*
X66855668Y-87115185D01*
X66855663Y-87115187D01*
X66706342Y-87207289D01*
X66625583Y-87288049D01*
X66598655Y-87302752D01*
X66572837Y-87319345D01*
X66566636Y-87320236D01*
X66564260Y-87321534D01*
X66537902Y-87324368D01*
X66424500Y-87324368D01*
X66357461Y-87304683D01*
X66311706Y-87251879D01*
X66300500Y-87200368D01*
X66300500Y-87099838D01*
X66320185Y-87032799D01*
X66372989Y-86987044D01*
X66377026Y-86985285D01*
X66379179Y-86984394D01*
X66510289Y-86896789D01*
X66621789Y-86785289D01*
X66709394Y-86654179D01*
X66769737Y-86508497D01*
X66800500Y-86353842D01*
X66800500Y-86196158D01*
X66800500Y-86196155D01*
X66800499Y-86196153D01*
X66781357Y-86099921D01*
X66769737Y-86041503D01*
X66750293Y-85994560D01*
X66709397Y-85895827D01*
X66709390Y-85895814D01*
X66621789Y-85764711D01*
X66621786Y-85764707D01*
X66510292Y-85653213D01*
X66510288Y-85653210D01*
X66379185Y-85565609D01*
X66379172Y-85565602D01*
X66233501Y-85505264D01*
X66233489Y-85505261D01*
X66078845Y-85474500D01*
X66078842Y-85474500D01*
X65921158Y-85474500D01*
X65921155Y-85474500D01*
X65766510Y-85505261D01*
X65766498Y-85505264D01*
X65620827Y-85565602D01*
X65620814Y-85565609D01*
X65489711Y-85653210D01*
X65489707Y-85653213D01*
X65378213Y-85764707D01*
X65378210Y-85764711D01*
X65290609Y-85895814D01*
X65290603Y-85895826D01*
X65280806Y-85919478D01*
X65253927Y-85959704D01*
X64967050Y-86246580D01*
X64967044Y-86246588D01*
X64917812Y-86320268D01*
X64917813Y-86320269D01*
X64884921Y-86369496D01*
X64884914Y-86369508D01*
X64828342Y-86506086D01*
X64828340Y-86506092D01*
X64799500Y-86651079D01*
X64799500Y-87200368D01*
X64779815Y-87267407D01*
X64727011Y-87313162D01*
X64675500Y-87324368D01*
X64312098Y-87324368D01*
X64245059Y-87304683D01*
X64224417Y-87288049D01*
X64143657Y-87207289D01*
X64143656Y-87207288D01*
X64034287Y-87139829D01*
X63994336Y-87115187D01*
X63994331Y-87115185D01*
X63992862Y-87114698D01*
X63827797Y-87060001D01*
X63827795Y-87060000D01*
X63725010Y-87049500D01*
X61324998Y-87049500D01*
X61324981Y-87049501D01*
X61222203Y-87060000D01*
X61222200Y-87060001D01*
X61055668Y-87115185D01*
X61055663Y-87115187D01*
X60906342Y-87207289D01*
X60782289Y-87331342D01*
X60690187Y-87480663D01*
X60690185Y-87480668D01*
X60680343Y-87510370D01*
X60635001Y-87647203D01*
X60635001Y-87647204D01*
X60635000Y-87647204D01*
X60624500Y-87749983D01*
X60624500Y-88350001D01*
X60624501Y-88350019D01*
X60635000Y-88452796D01*
X60635001Y-88452799D01*
X60682658Y-88596616D01*
X60690186Y-88619334D01*
X60782288Y-88768656D01*
X60906344Y-88892712D01*
X61055666Y-88984814D01*
X61222203Y-89039999D01*
X61324991Y-89050500D01*
X63725008Y-89050499D01*
X63827797Y-89039999D01*
X63994334Y-88984814D01*
X64143656Y-88892712D01*
X64174681Y-88861687D01*
X64236004Y-88828202D01*
X64262362Y-88825368D01*
X65476082Y-88825368D01*
X66587638Y-88825368D01*
X66654677Y-88845053D01*
X66675319Y-88861687D01*
X66706344Y-88892712D01*
X66855666Y-88984814D01*
X67022203Y-89039999D01*
X67124991Y-89050500D01*
X69525008Y-89050499D01*
X69627797Y-89039999D01*
X69794334Y-88984814D01*
X69943656Y-88892712D01*
X70067712Y-88768656D01*
X70159814Y-88619334D01*
X70176914Y-88567728D01*
X70216685Y-88510284D01*
X70281200Y-88483460D01*
X70318812Y-88485115D01*
X70396155Y-88500500D01*
X70396158Y-88500500D01*
X70553844Y-88500500D01*
X70553845Y-88500499D01*
X70708497Y-88469737D01*
X70821166Y-88423067D01*
X70854172Y-88409397D01*
X70854172Y-88409396D01*
X70854179Y-88409394D01*
X70943040Y-88350019D01*
X70985875Y-88321398D01*
X71052553Y-88300520D01*
X71054766Y-88300500D01*
X72213331Y-88300500D01*
X72213347Y-88300501D01*
X72220943Y-88300501D01*
X72379054Y-88300501D01*
X72379057Y-88300501D01*
X72531785Y-88259577D01*
X72600410Y-88219956D01*
X72632944Y-88201173D01*
X83075602Y-88201173D01*
X83086095Y-88303884D01*
X83141242Y-88470306D01*
X83141244Y-88470311D01*
X83233285Y-88619532D01*
X83357255Y-88743502D01*
X83506476Y-88835543D01*
X83506481Y-88835545D01*
X83672903Y-88890692D01*
X83672910Y-88890693D01*
X83775620Y-88901186D01*
X84725600Y-88901186D01*
X85225601Y-88901186D01*
X86175573Y-88901186D01*
X86175587Y-88901185D01*
X86278298Y-88890692D01*
X86444720Y-88835545D01*
X86444725Y-88835543D01*
X86593946Y-88743502D01*
X86717916Y-88619532D01*
X86809957Y-88470311D01*
X86809959Y-88470306D01*
X86865106Y-88303884D01*
X86865107Y-88303877D01*
X86875600Y-88201173D01*
X88875602Y-88201173D01*
X88886095Y-88303884D01*
X88941242Y-88470306D01*
X88941244Y-88470311D01*
X89033285Y-88619532D01*
X89157255Y-88743502D01*
X89306476Y-88835543D01*
X89306481Y-88835545D01*
X89472903Y-88890692D01*
X89472910Y-88890693D01*
X89575620Y-88901186D01*
X90525600Y-88901186D01*
X91025601Y-88901186D01*
X91975573Y-88901186D01*
X91975587Y-88901185D01*
X92078298Y-88890692D01*
X92244720Y-88835545D01*
X92244725Y-88835543D01*
X92393946Y-88743502D01*
X92517916Y-88619532D01*
X92609957Y-88470311D01*
X92609959Y-88470306D01*
X92665106Y-88303884D01*
X92665107Y-88303877D01*
X92675600Y-88201173D01*
X92675601Y-88201160D01*
X92675601Y-88151187D01*
X91025601Y-88151187D01*
X91025601Y-88901186D01*
X90525600Y-88901186D01*
X90525601Y-88901185D01*
X90525601Y-88151187D01*
X88875602Y-88151187D01*
X88875602Y-88201173D01*
X86875600Y-88201173D01*
X86875601Y-88201160D01*
X86875601Y-88151187D01*
X85225601Y-88151187D01*
X85225601Y-88901186D01*
X84725600Y-88901186D01*
X84725601Y-88901185D01*
X84725601Y-88151187D01*
X83075602Y-88151187D01*
X83075602Y-88201173D01*
X72632944Y-88201173D01*
X72668716Y-88180520D01*
X72780520Y-88068716D01*
X72780520Y-88068714D01*
X72790723Y-88058512D01*
X72790727Y-88058506D01*
X73248034Y-87601200D01*
X83075601Y-87601200D01*
X83075601Y-87651187D01*
X84725601Y-87651187D01*
X85225601Y-87651187D01*
X86875600Y-87651187D01*
X86875600Y-87601216D01*
X86875599Y-87601200D01*
X88875601Y-87601200D01*
X88875601Y-87651187D01*
X90525601Y-87651187D01*
X91025601Y-87651187D01*
X92675600Y-87651187D01*
X92675600Y-87601215D01*
X92675599Y-87601200D01*
X92665106Y-87498489D01*
X92609959Y-87332067D01*
X92609957Y-87332062D01*
X92533995Y-87208908D01*
X92533994Y-87208906D01*
X92517918Y-87182843D01*
X92483758Y-87148683D01*
X94778098Y-87148683D01*
X94778098Y-87361256D01*
X94809949Y-87562359D01*
X94811352Y-87571213D01*
X94869438Y-87749983D01*
X94877042Y-87773384D01*
X94973549Y-87962790D01*
X95098488Y-88134756D01*
X95248811Y-88285079D01*
X95420777Y-88410018D01*
X95420779Y-88410019D01*
X95420782Y-88410021D01*
X95610186Y-88506527D01*
X95812355Y-88572216D01*
X96022311Y-88605470D01*
X96022312Y-88605470D01*
X96234884Y-88605470D01*
X96234885Y-88605470D01*
X96444841Y-88572216D01*
X96647010Y-88506527D01*
X96836414Y-88410021D01*
X96858387Y-88394056D01*
X97008384Y-88285079D01*
X97008386Y-88285076D01*
X97008390Y-88285074D01*
X97158702Y-88134762D01*
X97158704Y-88134758D01*
X97158707Y-88134756D01*
X97283646Y-87962790D01*
X97283645Y-87962790D01*
X97283649Y-87962786D01*
X97380155Y-87773382D01*
X97445844Y-87571213D01*
X97479098Y-87361257D01*
X97479098Y-87148683D01*
X97445844Y-86938727D01*
X97380155Y-86736558D01*
X97283649Y-86547154D01*
X97283647Y-86547151D01*
X97283646Y-86547149D01*
X97158707Y-86375183D01*
X97008384Y-86224860D01*
X96836418Y-86099921D01*
X96647012Y-86003414D01*
X96647011Y-86003413D01*
X96647010Y-86003413D01*
X96444841Y-85937724D01*
X96444839Y-85937723D01*
X96444838Y-85937723D01*
X96283555Y-85912178D01*
X96234885Y-85904470D01*
X96022311Y-85904470D01*
X95973640Y-85912178D01*
X95812358Y-85937723D01*
X95610183Y-86003414D01*
X95420777Y-86099921D01*
X95248811Y-86224860D01*
X95098488Y-86375183D01*
X94973549Y-86547149D01*
X94877042Y-86736555D01*
X94811351Y-86938730D01*
X94778098Y-87148683D01*
X92483758Y-87148683D01*
X92393946Y-87058871D01*
X92244725Y-86966830D01*
X92244720Y-86966828D01*
X92078298Y-86911681D01*
X92078291Y-86911680D01*
X91975587Y-86901187D01*
X91025601Y-86901187D01*
X91025601Y-87651187D01*
X90525601Y-87651187D01*
X90525601Y-86901187D01*
X89575629Y-86901187D01*
X89575613Y-86901188D01*
X89472903Y-86911681D01*
X89306481Y-86966828D01*
X89306476Y-86966830D01*
X89157255Y-87058871D01*
X89033285Y-87182841D01*
X88941244Y-87332062D01*
X88941242Y-87332067D01*
X88886095Y-87498489D01*
X88886094Y-87498496D01*
X88875601Y-87601200D01*
X86875599Y-87601200D01*
X86875599Y-87601199D01*
X86865106Y-87498489D01*
X86809959Y-87332067D01*
X86809957Y-87332062D01*
X86717916Y-87182841D01*
X86593946Y-87058871D01*
X86444725Y-86966830D01*
X86444720Y-86966828D01*
X86278298Y-86911681D01*
X86278291Y-86911680D01*
X86175587Y-86901187D01*
X85225601Y-86901187D01*
X85225601Y-87651187D01*
X84725601Y-87651187D01*
X84725601Y-86901187D01*
X83775629Y-86901187D01*
X83775613Y-86901188D01*
X83672903Y-86911681D01*
X83506481Y-86966828D01*
X83506476Y-86966830D01*
X83357255Y-87058871D01*
X83233285Y-87182841D01*
X83141244Y-87332062D01*
X83141242Y-87332067D01*
X83086095Y-87498489D01*
X83086094Y-87498496D01*
X83075601Y-87601200D01*
X73248034Y-87601200D01*
X75180520Y-85668716D01*
X75259577Y-85531784D01*
X75300501Y-85379057D01*
X75300501Y-85220942D01*
X75300501Y-85213347D01*
X75300500Y-85213329D01*
X75300500Y-81292847D01*
X75320185Y-81225808D01*
X75372989Y-81180053D01*
X75400309Y-81171230D01*
X75416291Y-81168050D01*
X75533497Y-81144737D01*
X75679179Y-81084394D01*
X75745419Y-81040134D01*
X75812096Y-81019256D01*
X75879476Y-81037740D01*
X75926167Y-81089719D01*
X75938310Y-81143236D01*
X75938310Y-81528074D01*
X75938098Y-81535318D01*
X75937358Y-81547950D01*
X75924499Y-81595943D01*
X75924499Y-81754057D01*
X75924500Y-81754060D01*
X75924500Y-81767680D01*
X75924500Y-81988330D01*
X75924499Y-81988348D01*
X75924499Y-82154054D01*
X75924498Y-82154054D01*
X75942675Y-82221890D01*
X75965423Y-82306785D01*
X75990710Y-82350583D01*
X75994358Y-82356900D01*
X75994359Y-82356904D01*
X75994360Y-82356904D01*
X76044479Y-82443714D01*
X76044481Y-82443717D01*
X76163349Y-82562585D01*
X76163355Y-82562590D01*
X77890139Y-84289374D01*
X77890149Y-84289385D01*
X77894479Y-84293715D01*
X77894480Y-84293716D01*
X78006284Y-84405520D01*
X78088171Y-84452797D01*
X78088172Y-84452798D01*
X78143209Y-84484574D01*
X78143210Y-84484574D01*
X78143215Y-84484577D01*
X78295943Y-84525500D01*
X83105491Y-84525500D01*
X83172530Y-84545185D01*
X83211028Y-84584401D01*
X83232889Y-84619843D01*
X83356945Y-84743899D01*
X83506267Y-84836001D01*
X83672804Y-84891186D01*
X83775592Y-84901687D01*
X86175609Y-84901686D01*
X86278398Y-84891186D01*
X86444935Y-84836001D01*
X86594257Y-84743899D01*
X86718313Y-84619843D01*
X86744337Y-84577650D01*
X86796285Y-84530926D01*
X86849876Y-84518747D01*
X88901326Y-84518747D01*
X88968365Y-84538432D01*
X89006864Y-84577650D01*
X89032889Y-84619843D01*
X89156945Y-84743899D01*
X89306267Y-84836001D01*
X89472804Y-84891186D01*
X89575592Y-84901687D01*
X91975609Y-84901686D01*
X92078398Y-84891186D01*
X92244935Y-84836001D01*
X92394257Y-84743899D01*
X92518313Y-84619843D01*
X92610415Y-84470521D01*
X92665600Y-84303984D01*
X92676101Y-84201196D01*
X92676100Y-83601179D01*
X92665600Y-83498390D01*
X92610415Y-83331853D01*
X92518313Y-83182531D01*
X92394257Y-83058475D01*
X92244935Y-82966373D01*
X92078398Y-82911188D01*
X92078396Y-82911187D01*
X91975611Y-82900687D01*
X89575599Y-82900687D01*
X89575582Y-82900688D01*
X89472804Y-82911187D01*
X89472801Y-82911188D01*
X89306269Y-82966372D01*
X89306264Y-82966374D01*
X89156943Y-83058476D01*
X89032891Y-83182528D01*
X89032889Y-83182530D01*
X89032889Y-83182531D01*
X88985818Y-83258845D01*
X88933872Y-83305568D01*
X88880281Y-83317747D01*
X86870921Y-83317747D01*
X86803882Y-83298062D01*
X86765383Y-83258845D01*
X86718313Y-83182531D01*
X86594257Y-83058475D01*
X86444935Y-82966373D01*
X86278398Y-82911188D01*
X86278396Y-82911187D01*
X86175611Y-82900687D01*
X83775599Y-82900687D01*
X83775582Y-82900688D01*
X83672804Y-82911187D01*
X83672801Y-82911188D01*
X83506269Y-82966372D01*
X83506264Y-82966374D01*
X83356943Y-83058476D01*
X83232890Y-83182529D01*
X83181654Y-83265597D01*
X83129706Y-83312321D01*
X83076115Y-83324500D01*
X78675097Y-83324500D01*
X78608058Y-83304815D01*
X78587416Y-83288181D01*
X77168836Y-81869601D01*
X77135351Y-81808278D01*
X77136743Y-81749824D01*
X77139310Y-81740248D01*
X77139310Y-81582133D01*
X77139310Y-80843895D01*
X77158995Y-80776856D01*
X77211799Y-80731101D01*
X77280957Y-80721157D01*
X77344513Y-80750182D01*
X77350991Y-80756214D01*
X77389851Y-80795074D01*
X77389855Y-80795077D01*
X77532947Y-80883338D01*
X77532950Y-80883339D01*
X77532956Y-80883343D01*
X77692558Y-80936230D01*
X77791069Y-80946294D01*
X77791074Y-80946294D01*
X78399412Y-80946294D01*
X78399417Y-80946294D01*
X78497928Y-80936230D01*
X78657530Y-80883343D01*
X78800634Y-80795075D01*
X78911674Y-80684034D01*
X78972993Y-80650552D01*
X79042685Y-80655536D01*
X79087033Y-80684037D01*
X79181887Y-80778891D01*
X79331209Y-80870993D01*
X79497746Y-80926178D01*
X79600534Y-80936679D01*
X80600551Y-80936678D01*
X80600559Y-80936677D01*
X80600562Y-80936677D01*
X80656845Y-80930927D01*
X80703340Y-80926178D01*
X80869877Y-80870993D01*
X81019199Y-80778891D01*
X81143255Y-80654835D01*
X81143262Y-80654823D01*
X81143453Y-80654583D01*
X81143638Y-80654451D01*
X81148362Y-80649728D01*
X81149168Y-80650534D01*
X81200472Y-80614202D01*
X81270271Y-80611059D01*
X81330689Y-80646150D01*
X81337989Y-80654573D01*
X81341352Y-80658826D01*
X81460241Y-80777715D01*
X81460245Y-80777718D01*
X81603337Y-80865979D01*
X81603340Y-80865980D01*
X81603346Y-80865984D01*
X81762948Y-80918871D01*
X81861459Y-80928935D01*
X81861464Y-80928935D01*
X82469802Y-80928935D01*
X82469807Y-80928935D01*
X82568318Y-80918871D01*
X82727920Y-80865984D01*
X82871024Y-80777716D01*
X82989914Y-80658826D01*
X82989919Y-80658817D01*
X82993952Y-80653718D01*
X83050972Y-80613338D01*
X83120771Y-80610196D01*
X83178903Y-80642943D01*
X83179054Y-80643094D01*
X83303110Y-80767150D01*
X83452432Y-80859252D01*
X83618969Y-80914437D01*
X83721757Y-80924938D01*
X84721774Y-80924937D01*
X84721782Y-80924936D01*
X84721785Y-80924936D01*
X84781166Y-80918870D01*
X84824563Y-80914437D01*
X84991100Y-80859252D01*
X85140422Y-80767150D01*
X85264478Y-80643094D01*
X85356580Y-80493772D01*
X85411765Y-80327235D01*
X85422266Y-80224447D01*
X85422265Y-79599430D01*
X85419718Y-79574500D01*
X85411765Y-79496641D01*
X85411764Y-79496638D01*
X85410126Y-79491696D01*
X85356580Y-79330104D01*
X85264478Y-79180782D01*
X85170815Y-79087119D01*
X85137330Y-79025796D01*
X85142314Y-78956104D01*
X85170815Y-78911757D01*
X85206980Y-78875592D01*
X85264478Y-78818094D01*
X85356580Y-78668772D01*
X85411765Y-78502235D01*
X85422266Y-78399447D01*
X85422265Y-78085387D01*
X85422265Y-77774437D01*
X85422264Y-77774418D01*
X85411765Y-77671641D01*
X85411764Y-77671638D01*
X85406370Y-77655361D01*
X85356580Y-77505104D01*
X85264478Y-77355782D01*
X85140422Y-77231726D01*
X85010137Y-77151366D01*
X84991102Y-77139625D01*
X84991097Y-77139623D01*
X84988848Y-77138877D01*
X84907261Y-77111842D01*
X84849817Y-77072070D01*
X84822994Y-77007554D01*
X84822266Y-76994137D01*
X84822266Y-74167710D01*
X84822266Y-74167709D01*
X84815065Y-74140836D01*
X84813192Y-74133847D01*
X84808415Y-74116016D01*
X84807348Y-74112033D01*
X84781343Y-74014982D01*
X84775534Y-74004920D01*
X84702290Y-73878056D01*
X84702287Y-73878052D01*
X84702286Y-73878050D01*
X84590482Y-73766246D01*
X84590481Y-73766245D01*
X84586151Y-73761915D01*
X84586140Y-73761905D01*
X83236416Y-72412181D01*
X83202931Y-72350858D01*
X83207915Y-72281166D01*
X83249787Y-72225233D01*
X83315251Y-72200816D01*
X83324097Y-72200500D01*
X84570234Y-72200500D01*
X84637273Y-72220185D01*
X84639125Y-72221398D01*
X84770814Y-72309390D01*
X84770827Y-72309397D01*
X84875521Y-72352762D01*
X84916503Y-72369737D01*
X85071153Y-72400499D01*
X85071156Y-72400500D01*
X85071158Y-72400500D01*
X85228844Y-72400500D01*
X85228845Y-72400499D01*
X85383497Y-72369737D01*
X85437390Y-72347413D01*
X85506859Y-72339945D01*
X85569338Y-72371220D01*
X85604990Y-72431309D01*
X85606460Y-72486164D01*
X85599500Y-72521157D01*
X85599500Y-72678846D01*
X85630261Y-72833489D01*
X85630264Y-72833501D01*
X85690602Y-72979172D01*
X85690609Y-72979185D01*
X85778210Y-73110288D01*
X85778213Y-73110292D01*
X85889707Y-73221786D01*
X85889711Y-73221789D01*
X86020814Y-73309390D01*
X86020827Y-73309397D01*
X86166498Y-73369735D01*
X86166503Y-73369737D01*
X86307127Y-73397709D01*
X86321153Y-73400499D01*
X86321156Y-73400500D01*
X86321158Y-73400500D01*
X86478844Y-73400500D01*
X86478845Y-73400499D01*
X86633497Y-73369737D01*
X86779179Y-73309394D01*
X86910289Y-73221789D01*
X87021789Y-73110289D01*
X87109394Y-72979179D01*
X87116113Y-72962959D01*
X87158904Y-72859650D01*
X87169737Y-72833497D01*
X87200500Y-72678842D01*
X87200500Y-72521158D01*
X87200500Y-72521157D01*
X87200500Y-72521155D01*
X87200499Y-72521153D01*
X87183784Y-72437123D01*
X87169737Y-72366503D01*
X87161830Y-72347414D01*
X87109397Y-72220827D01*
X87109390Y-72220814D01*
X87021398Y-72089125D01*
X87000520Y-72022447D01*
X87000500Y-72020234D01*
X87000500Y-71614060D01*
X87000501Y-71614047D01*
X87000501Y-71445945D01*
X87000501Y-71445943D01*
X86959577Y-71293215D01*
X86880520Y-71156284D01*
X86661819Y-70937583D01*
X86628334Y-70876260D01*
X86625500Y-70849902D01*
X86625500Y-70696155D01*
X86625499Y-70696153D01*
X86615916Y-70647975D01*
X86594737Y-70541503D01*
X86589809Y-70529606D01*
X86534397Y-70395827D01*
X86534390Y-70395814D01*
X86532771Y-70393391D01*
X86532312Y-70391927D01*
X86531521Y-70390446D01*
X86531801Y-70390295D01*
X86511893Y-70326713D01*
X86530378Y-70259333D01*
X86582356Y-70212643D01*
X86635873Y-70200500D01*
X87549903Y-70200500D01*
X87616942Y-70220185D01*
X87637584Y-70236819D01*
X93128729Y-75727964D01*
X93128739Y-75727975D01*
X93133069Y-75732305D01*
X93133070Y-75732306D01*
X93244874Y-75844110D01*
X93331050Y-75893863D01*
X93381805Y-75923167D01*
X93534533Y-75964090D01*
X93692647Y-75964090D01*
X95370786Y-75964090D01*
X95437825Y-75983775D01*
X95481270Y-76031795D01*
X95501452Y-76071404D01*
X95501453Y-76071405D01*
X95626395Y-76243376D01*
X95740323Y-76357304D01*
X95773808Y-76418627D01*
X95768824Y-76488319D01*
X95726952Y-76544252D01*
X95695976Y-76561167D01*
X95564417Y-76610236D01*
X95564411Y-76610239D01*
X95449317Y-76696399D01*
X95449314Y-76696402D01*
X95363154Y-76811496D01*
X95363150Y-76811503D01*
X95312908Y-76946210D01*
X95312906Y-76946217D01*
X95306505Y-77005745D01*
X95306505Y-77653590D01*
X96223493Y-77653590D01*
X96190580Y-77710597D01*
X96156505Y-77837764D01*
X96156505Y-77969416D01*
X96190580Y-78096583D01*
X96223493Y-78153590D01*
X95306505Y-78153590D01*
X95306505Y-78801434D01*
X95312906Y-78860962D01*
X95312908Y-78860969D01*
X95363150Y-78995676D01*
X95363154Y-78995683D01*
X95449314Y-79110777D01*
X95449317Y-79110780D01*
X95564411Y-79196940D01*
X95564418Y-79196944D01*
X95699125Y-79247186D01*
X95699132Y-79247188D01*
X95758660Y-79253589D01*
X95758677Y-79253590D01*
X96406505Y-79253590D01*
X96406505Y-78336602D01*
X96463512Y-78369515D01*
X96590679Y-78403590D01*
X96722331Y-78403590D01*
X96849498Y-78369515D01*
X96906505Y-78336602D01*
X96906505Y-79253590D01*
X97554333Y-79253590D01*
X97554349Y-79253589D01*
X97613877Y-79247188D01*
X97613884Y-79247186D01*
X97748591Y-79196944D01*
X97748598Y-79196940D01*
X97863692Y-79110780D01*
X97863695Y-79110777D01*
X97949855Y-78995683D01*
X97949859Y-78995676D01*
X98000101Y-78860969D01*
X98000103Y-78860962D01*
X98006504Y-78801434D01*
X98006505Y-78801417D01*
X98006505Y-78153590D01*
X97089517Y-78153590D01*
X97122430Y-78096583D01*
X97156505Y-77969416D01*
X97156505Y-77837764D01*
X97122430Y-77710597D01*
X97089517Y-77653590D01*
X98006505Y-77653590D01*
X98006505Y-77005762D01*
X98006504Y-77005745D01*
X98000103Y-76946217D01*
X98000101Y-76946210D01*
X97949859Y-76811503D01*
X97949855Y-76811496D01*
X97863695Y-76696402D01*
X97863692Y-76696399D01*
X97748598Y-76610239D01*
X97748593Y-76610236D01*
X97617033Y-76561167D01*
X97561100Y-76519295D01*
X97536683Y-76453831D01*
X97551535Y-76385558D01*
X97572680Y-76357310D01*
X97686609Y-76243382D01*
X97811556Y-76071406D01*
X97908062Y-75882002D01*
X97973751Y-75679833D01*
X98007005Y-75469877D01*
X98007005Y-75257303D01*
X97973751Y-75047347D01*
X97908062Y-74845178D01*
X97811556Y-74655774D01*
X97811554Y-74655771D01*
X97811553Y-74655769D01*
X97686614Y-74483803D01*
X97536291Y-74333480D01*
X97364325Y-74208541D01*
X97363620Y-74208181D01*
X97355559Y-74204075D01*
X97304764Y-74156102D01*
X97287968Y-74088282D01*
X97310504Y-74022146D01*
X97355559Y-73983105D01*
X97364321Y-73978641D01*
X97401101Y-73951919D01*
X97536291Y-73853699D01*
X97536293Y-73853696D01*
X97536297Y-73853694D01*
X97686609Y-73703382D01*
X97686611Y-73703378D01*
X97686614Y-73703376D01*
X97811553Y-73531410D01*
X97811552Y-73531410D01*
X97811556Y-73531406D01*
X97908062Y-73342002D01*
X97973751Y-73139833D01*
X98007005Y-72929877D01*
X98007005Y-72717303D01*
X97973751Y-72507347D01*
X97908062Y-72305178D01*
X97811556Y-72115774D01*
X97811554Y-72115771D01*
X97811553Y-72115769D01*
X97686614Y-71943803D01*
X97536291Y-71793480D01*
X97364325Y-71668541D01*
X97361465Y-71667084D01*
X97355559Y-71664075D01*
X97304764Y-71616102D01*
X97287968Y-71548282D01*
X97310504Y-71482146D01*
X97355559Y-71443105D01*
X97364321Y-71438641D01*
X97388803Y-71420854D01*
X97536291Y-71313699D01*
X97536293Y-71313696D01*
X97536297Y-71313694D01*
X97686609Y-71163382D01*
X97686611Y-71163378D01*
X97686614Y-71163376D01*
X97811553Y-70991410D01*
X97811552Y-70991410D01*
X97811556Y-70991406D01*
X97908062Y-70802002D01*
X97973751Y-70599833D01*
X98007005Y-70389877D01*
X98007005Y-70177303D01*
X97973751Y-69967347D01*
X97908062Y-69765178D01*
X97811556Y-69575774D01*
X97811554Y-69575771D01*
X97811553Y-69575769D01*
X97686614Y-69403803D01*
X97536291Y-69253480D01*
X97364325Y-69128541D01*
X97363620Y-69128181D01*
X97355559Y-69124075D01*
X97304764Y-69076102D01*
X97287968Y-69008282D01*
X97310504Y-68942146D01*
X97355559Y-68903105D01*
X97364321Y-68898641D01*
X97443625Y-68841024D01*
X97536291Y-68773699D01*
X97536293Y-68773696D01*
X97536297Y-68773694D01*
X97686609Y-68623382D01*
X97686611Y-68623378D01*
X97686614Y-68623376D01*
X97811553Y-68451410D01*
X97811552Y-68451410D01*
X97811556Y-68451406D01*
X97908062Y-68262002D01*
X97973751Y-68059833D01*
X98007005Y-67849877D01*
X98007005Y-67637303D01*
X97973751Y-67427347D01*
X97908062Y-67225178D01*
X97811556Y-67035774D01*
X97811554Y-67035771D01*
X97811553Y-67035769D01*
X97686614Y-66863803D01*
X97536291Y-66713480D01*
X97364325Y-66588541D01*
X97363620Y-66588181D01*
X97355559Y-66584075D01*
X97304764Y-66536102D01*
X97287968Y-66468282D01*
X97310504Y-66402146D01*
X97355559Y-66363105D01*
X97364321Y-66358641D01*
X97407651Y-66327160D01*
X97536291Y-66233699D01*
X97536293Y-66233696D01*
X97536297Y-66233694D01*
X97686609Y-66083382D01*
X97686611Y-66083378D01*
X97686614Y-66083376D01*
X97811553Y-65911410D01*
X97811552Y-65911410D01*
X97811556Y-65911406D01*
X97908062Y-65722002D01*
X97973751Y-65519833D01*
X98007005Y-65309877D01*
X98007005Y-65097303D01*
X97973751Y-64887347D01*
X97908062Y-64685178D01*
X97811556Y-64495774D01*
X97811554Y-64495771D01*
X97811553Y-64495769D01*
X97686614Y-64323803D01*
X97536291Y-64173480D01*
X97364325Y-64048541D01*
X97363620Y-64048181D01*
X97355559Y-64044075D01*
X97304764Y-63996102D01*
X97287968Y-63928282D01*
X97310504Y-63862146D01*
X97355559Y-63823105D01*
X97364321Y-63818641D01*
X97453419Y-63753908D01*
X97536291Y-63693699D01*
X97536293Y-63693696D01*
X97536297Y-63693694D01*
X97686609Y-63543382D01*
X97686611Y-63543378D01*
X97686614Y-63543376D01*
X97811553Y-63371410D01*
X97811552Y-63371410D01*
X97811556Y-63371406D01*
X97908062Y-63182002D01*
X97973751Y-62979833D01*
X98007005Y-62769877D01*
X98007005Y-62557303D01*
X97973751Y-62347347D01*
X97908062Y-62145178D01*
X97811556Y-61955774D01*
X97811554Y-61955771D01*
X97811553Y-61955769D01*
X97686614Y-61783803D01*
X97536291Y-61633480D01*
X97364325Y-61508541D01*
X97363620Y-61508181D01*
X97355559Y-61504075D01*
X97304764Y-61456102D01*
X97287968Y-61388282D01*
X97310504Y-61322146D01*
X97355559Y-61283105D01*
X97364321Y-61278641D01*
X97401101Y-61251919D01*
X97536291Y-61153699D01*
X97536293Y-61153696D01*
X97536297Y-61153694D01*
X97686609Y-61003382D01*
X97686611Y-61003378D01*
X97686614Y-61003376D01*
X97811553Y-60831410D01*
X97811552Y-60831410D01*
X97811556Y-60831406D01*
X97908062Y-60642002D01*
X97973751Y-60439833D01*
X98007005Y-60229877D01*
X98007005Y-60017303D01*
X97973751Y-59807347D01*
X97908062Y-59605178D01*
X97811556Y-59415774D01*
X97811554Y-59415771D01*
X97811553Y-59415769D01*
X97686614Y-59243803D01*
X97536291Y-59093480D01*
X97364325Y-58968541D01*
X97174919Y-58872034D01*
X97174918Y-58872033D01*
X97174917Y-58872033D01*
X96972748Y-58806344D01*
X96972746Y-58806343D01*
X96972745Y-58806343D01*
X96811462Y-58780798D01*
X96762792Y-58773090D01*
X96550218Y-58773090D01*
X96501547Y-58780798D01*
X96340265Y-58806343D01*
X96138090Y-58872034D01*
X95948684Y-58968541D01*
X95776718Y-59093480D01*
X95626395Y-59243803D01*
X95501456Y-59415769D01*
X95404949Y-59605175D01*
X95339258Y-59807350D01*
X95308575Y-60001076D01*
X95306005Y-60017303D01*
X95306005Y-60229877D01*
X95316039Y-60293234D01*
X95325539Y-60353213D01*
X95339259Y-60439833D01*
X95382130Y-60571777D01*
X95404949Y-60642004D01*
X95501456Y-60831410D01*
X95626395Y-61003376D01*
X95776718Y-61153699D01*
X95948687Y-61278640D01*
X95957451Y-61283106D01*
X96008247Y-61331081D01*
X96025041Y-61398902D01*
X96002503Y-61465037D01*
X95957451Y-61504074D01*
X95948687Y-61508539D01*
X95776718Y-61633480D01*
X95626395Y-61783803D01*
X95501456Y-61955769D01*
X95404949Y-62145175D01*
X95339258Y-62347350D01*
X95328277Y-62416685D01*
X95306005Y-62557303D01*
X95306005Y-62769877D01*
X95312079Y-62808224D01*
X95335532Y-62956306D01*
X95339259Y-62979833D01*
X95403818Y-63178525D01*
X95404949Y-63182004D01*
X95501456Y-63371410D01*
X95626395Y-63543376D01*
X95776718Y-63693699D01*
X95948687Y-63818640D01*
X95957451Y-63823106D01*
X96008247Y-63871081D01*
X96025041Y-63938902D01*
X96002503Y-64005037D01*
X95957451Y-64044074D01*
X95948687Y-64048539D01*
X95776718Y-64173480D01*
X95626395Y-64323803D01*
X95501456Y-64495769D01*
X95404949Y-64685175D01*
X95339258Y-64887350D01*
X95306005Y-65097303D01*
X95306005Y-65309876D01*
X95336780Y-65504185D01*
X95339259Y-65519833D01*
X95382130Y-65651777D01*
X95404949Y-65722004D01*
X95501456Y-65911410D01*
X95626395Y-66083376D01*
X95776718Y-66233699D01*
X95948687Y-66358640D01*
X95957451Y-66363106D01*
X96008247Y-66411081D01*
X96025041Y-66478902D01*
X96002503Y-66545037D01*
X95957451Y-66584074D01*
X95948687Y-66588539D01*
X95776718Y-66713480D01*
X95626395Y-66863803D01*
X95501456Y-67035769D01*
X95404949Y-67225175D01*
X95339258Y-67427350D01*
X95306005Y-67637303D01*
X95306005Y-67849876D01*
X95337780Y-68050500D01*
X95339259Y-68059833D01*
X95402901Y-68255703D01*
X95404949Y-68262004D01*
X95501456Y-68451410D01*
X95626395Y-68623376D01*
X95776718Y-68773699D01*
X95948687Y-68898640D01*
X95957451Y-68903106D01*
X96008247Y-68951081D01*
X96025041Y-69018902D01*
X96002503Y-69085037D01*
X95957451Y-69124074D01*
X95948687Y-69128539D01*
X95776718Y-69253480D01*
X95626395Y-69403803D01*
X95501453Y-69575774D01*
X95501452Y-69575775D01*
X95481270Y-69615385D01*
X95433296Y-69666181D01*
X95370786Y-69683090D01*
X94808687Y-69683090D01*
X94741648Y-69663405D01*
X94721006Y-69646771D01*
X92162590Y-67088355D01*
X92155521Y-67081286D01*
X92155520Y-67081284D01*
X92103335Y-67029099D01*
X92076827Y-66980550D01*
X92069853Y-66967779D01*
X92074837Y-66898087D01*
X92103339Y-66853739D01*
X92134286Y-66822792D01*
X92134289Y-66822789D01*
X92221894Y-66691679D01*
X92282237Y-66545997D01*
X92313000Y-66391342D01*
X92313000Y-66391340D01*
X92313137Y-66390652D01*
X92345521Y-66328741D01*
X92347045Y-66327189D01*
X92380520Y-66293716D01*
X92381005Y-66292877D01*
X92403028Y-66254730D01*
X92459577Y-66156784D01*
X92500501Y-66004057D01*
X92500501Y-65845942D01*
X92500501Y-65838347D01*
X92500500Y-65838329D01*
X92500500Y-64575097D01*
X92520185Y-64508058D01*
X92536819Y-64487416D01*
X92643325Y-64380910D01*
X92752162Y-64272072D01*
X92813483Y-64238589D01*
X92815650Y-64238138D01*
X92873585Y-64226613D01*
X92970997Y-64207237D01*
X93083666Y-64160567D01*
X93116672Y-64146897D01*
X93116672Y-64146896D01*
X93116679Y-64146894D01*
X93247789Y-64059289D01*
X93359289Y-63947789D01*
X93446894Y-63816679D01*
X93507237Y-63670997D01*
X93538000Y-63516342D01*
X93538000Y-63358658D01*
X93538000Y-63358655D01*
X93537999Y-63358653D01*
X93526567Y-63301183D01*
X93507237Y-63204003D01*
X93499284Y-63184802D01*
X93446897Y-63058327D01*
X93446890Y-63058314D01*
X93359289Y-62927211D01*
X93359286Y-62927207D01*
X93247792Y-62815713D01*
X93247788Y-62815710D01*
X93116685Y-62728109D01*
X93116672Y-62728102D01*
X92971001Y-62667764D01*
X92970989Y-62667761D01*
X92816345Y-62637000D01*
X92816342Y-62637000D01*
X92658658Y-62637000D01*
X92658655Y-62637000D01*
X92504010Y-62667761D01*
X92503998Y-62667764D01*
X92358327Y-62728102D01*
X92358314Y-62728109D01*
X92227211Y-62815710D01*
X92227207Y-62815713D01*
X92115713Y-62927207D01*
X92115710Y-62927211D01*
X92028109Y-63058314D01*
X92028102Y-63058327D01*
X91967764Y-63203998D01*
X91967761Y-63204008D01*
X91936861Y-63359350D01*
X91904476Y-63421261D01*
X91902925Y-63422839D01*
X91419481Y-63906282D01*
X91419479Y-63906284D01*
X91400648Y-63938902D01*
X91380096Y-63974500D01*
X91353158Y-64021158D01*
X91340913Y-64042367D01*
X91340423Y-64043215D01*
X91299499Y-64195943D01*
X91299499Y-64195945D01*
X91299499Y-64364046D01*
X91299500Y-64364059D01*
X91299500Y-65451418D01*
X91279815Y-65518457D01*
X91227011Y-65564212D01*
X91222953Y-65565979D01*
X91133323Y-65603104D01*
X91133314Y-65603109D01*
X91002211Y-65690710D01*
X91002207Y-65690713D01*
X90890713Y-65802207D01*
X90890710Y-65802211D01*
X90803109Y-65933314D01*
X90803102Y-65933327D01*
X90742764Y-66078998D01*
X90742761Y-66079010D01*
X90712000Y-66233653D01*
X90712000Y-66391346D01*
X90742761Y-66545989D01*
X90742764Y-66546001D01*
X90797459Y-66678048D01*
X90804928Y-66747517D01*
X90773652Y-66809996D01*
X90713563Y-66845648D01*
X90682898Y-66849500D01*
X88775097Y-66849500D01*
X88708058Y-66829815D01*
X88687416Y-66813181D01*
X86087590Y-64213355D01*
X86087588Y-64213352D01*
X85968717Y-64094481D01*
X85968716Y-64094480D01*
X85878453Y-64042367D01*
X85878452Y-64042366D01*
X85831790Y-64015425D01*
X85831789Y-64015424D01*
X85819078Y-64012018D01*
X85679057Y-63974499D01*
X85520943Y-63974499D01*
X85513347Y-63974499D01*
X85513331Y-63974500D01*
X84068288Y-63974500D01*
X84027367Y-63985464D01*
X84027367Y-63985465D01*
X84016440Y-63988393D01*
X83915562Y-64015423D01*
X83915557Y-64015426D01*
X83778638Y-64094475D01*
X83778630Y-64094481D01*
X83666828Y-64206283D01*
X83666828Y-64206284D01*
X83666826Y-64206286D01*
X83575533Y-64297579D01*
X83502897Y-64370215D01*
X83441574Y-64403699D01*
X83371882Y-64398715D01*
X83339731Y-64380910D01*
X83319743Y-64365573D01*
X83321609Y-64363140D01*
X83298557Y-64340072D01*
X83296116Y-64341946D01*
X83259767Y-64294576D01*
X83222081Y-64245463D01*
X83222080Y-64245462D01*
X83222073Y-64245454D01*
X83062680Y-64086061D01*
X83062671Y-64086053D01*
X82966188Y-64012018D01*
X82968054Y-64009585D01*
X82945004Y-63986519D01*
X82942563Y-63988393D01*
X82868526Y-63891908D01*
X82868519Y-63891900D01*
X82709126Y-63732507D01*
X82709117Y-63732499D01*
X82612634Y-63658464D01*
X82614500Y-63656031D01*
X82591450Y-63632965D01*
X82589009Y-63634839D01*
X82533398Y-63562366D01*
X82514974Y-63538356D01*
X82514973Y-63538355D01*
X82514966Y-63538347D01*
X82355573Y-63378954D01*
X82355564Y-63378946D01*
X82259081Y-63304911D01*
X82260947Y-63302478D01*
X82237897Y-63279412D01*
X82235456Y-63281286D01*
X82172115Y-63198740D01*
X82161421Y-63184803D01*
X82161420Y-63184802D01*
X82161413Y-63184794D01*
X82002020Y-63025401D01*
X82002011Y-63025393D01*
X81907283Y-62952705D01*
X81907148Y-62952656D01*
X81906991Y-62952480D01*
X81905528Y-62951358D01*
X81905739Y-62951082D01*
X81896293Y-62940526D01*
X81881964Y-62927929D01*
X81877025Y-62921455D01*
X81876954Y-62921284D01*
X81866356Y-62907472D01*
X81853885Y-62874947D01*
X81841369Y-62842574D01*
X81841404Y-62842399D01*
X81841341Y-62842233D01*
X81848414Y-62808224D01*
X81855407Y-62774129D01*
X81855543Y-62773944D01*
X81855568Y-62773827D01*
X81855820Y-62773570D01*
X81877255Y-62744578D01*
X82232223Y-62389610D01*
X82293544Y-62356127D01*
X82363236Y-62361111D01*
X82419169Y-62402983D01*
X82424679Y-62411641D01*
X82424721Y-62411614D01*
X82515710Y-62547788D01*
X82515713Y-62547792D01*
X82627207Y-62659286D01*
X82627211Y-62659289D01*
X82758314Y-62746890D01*
X82758327Y-62746897D01*
X82903998Y-62807235D01*
X82904003Y-62807237D01*
X83024719Y-62831249D01*
X83058653Y-62837999D01*
X83058656Y-62838000D01*
X83058658Y-62838000D01*
X83216344Y-62838000D01*
X83216345Y-62837999D01*
X83370997Y-62807237D01*
X83516679Y-62746894D01*
X83647789Y-62659289D01*
X83759289Y-62547789D01*
X83846894Y-62416679D01*
X83907237Y-62270997D01*
X83916325Y-62225307D01*
X83948709Y-62163398D01*
X84009424Y-62128824D01*
X84037942Y-62125500D01*
X84770234Y-62125500D01*
X84837273Y-62145185D01*
X84839125Y-62146398D01*
X84970814Y-62234390D01*
X84970827Y-62234397D01*
X85116498Y-62294735D01*
X85116503Y-62294737D01*
X85271153Y-62325499D01*
X85271156Y-62325500D01*
X85271158Y-62325500D01*
X85428844Y-62325500D01*
X85428845Y-62325499D01*
X85583497Y-62294737D01*
X85729179Y-62234394D01*
X85860289Y-62146789D01*
X85971789Y-62035289D01*
X86059394Y-61904179D01*
X86067827Y-61883821D01*
X86119735Y-61758501D01*
X86119737Y-61758497D01*
X86150500Y-61603842D01*
X86150500Y-61446158D01*
X86150500Y-61446155D01*
X86150499Y-61446153D01*
X86140286Y-61394810D01*
X86119737Y-61291503D01*
X86116258Y-61283104D01*
X86059397Y-61145827D01*
X86059390Y-61145814D01*
X85971789Y-61014711D01*
X85971786Y-61014707D01*
X85860292Y-60903213D01*
X85860288Y-60903210D01*
X85729185Y-60815609D01*
X85729172Y-60815602D01*
X85583501Y-60755264D01*
X85583489Y-60755261D01*
X85428845Y-60724500D01*
X85428842Y-60724500D01*
X85271158Y-60724500D01*
X85271155Y-60724500D01*
X85116510Y-60755261D01*
X85116498Y-60755264D01*
X84970827Y-60815602D01*
X84970814Y-60815609D01*
X84839125Y-60903602D01*
X84772447Y-60924480D01*
X84770234Y-60924500D01*
X83707902Y-60924500D01*
X83640863Y-60904815D01*
X83595108Y-60852011D01*
X83586285Y-60824692D01*
X83569738Y-60741508D01*
X83569737Y-60741507D01*
X83569737Y-60741503D01*
X83542254Y-60675152D01*
X83509397Y-60595827D01*
X83509390Y-60595814D01*
X83421789Y-60464711D01*
X83421786Y-60464707D01*
X83310292Y-60353213D01*
X83310288Y-60353210D01*
X83179185Y-60265609D01*
X83173809Y-60262736D01*
X83174899Y-60260695D01*
X83128510Y-60223294D01*
X83106461Y-60156994D01*
X83123756Y-60089299D01*
X83142698Y-60064922D01*
X85005520Y-58202102D01*
X85084577Y-58065170D01*
X85125501Y-57912443D01*
X85125501Y-57754328D01*
X85125501Y-57746733D01*
X85125500Y-57746715D01*
X85125500Y-57529765D01*
X85145185Y-57462726D01*
X85146398Y-57460874D01*
X85234390Y-57329185D01*
X85234390Y-57329184D01*
X85234394Y-57329179D01*
X85294737Y-57183497D01*
X85325500Y-57028842D01*
X85325500Y-56871158D01*
X85325500Y-56871155D01*
X85325499Y-56871153D01*
X85311283Y-56799684D01*
X85294737Y-56716503D01*
X85294735Y-56716498D01*
X85234397Y-56570827D01*
X85234390Y-56570814D01*
X85146789Y-56439711D01*
X85146786Y-56439707D01*
X85035292Y-56328213D01*
X85035288Y-56328210D01*
X84904185Y-56240609D01*
X84904172Y-56240602D01*
X84758501Y-56180264D01*
X84758489Y-56180261D01*
X84603845Y-56149500D01*
X84603842Y-56149500D01*
X84446158Y-56149500D01*
X84446155Y-56149500D01*
X84291510Y-56180261D01*
X84291498Y-56180264D01*
X84145827Y-56240602D01*
X84145814Y-56240609D01*
X84014711Y-56328210D01*
X84014707Y-56328213D01*
X83903213Y-56439707D01*
X83903210Y-56439711D01*
X83815609Y-56570814D01*
X83815602Y-56570827D01*
X83755264Y-56716498D01*
X83755261Y-56716510D01*
X83724500Y-56871153D01*
X83724500Y-57028846D01*
X83755261Y-57183489D01*
X83755264Y-57183501D01*
X83815602Y-57329172D01*
X83815609Y-57329185D01*
X83903602Y-57460874D01*
X83909252Y-57478920D01*
X83919477Y-57494830D01*
X83923928Y-57525789D01*
X83924480Y-57527551D01*
X83924500Y-57529765D01*
X83924500Y-57533287D01*
X83904815Y-57600326D01*
X83888181Y-57620968D01*
X83137181Y-58371968D01*
X83075858Y-58405453D01*
X83006166Y-58400469D01*
X82950233Y-58358597D01*
X82925816Y-58293133D01*
X82925500Y-58284287D01*
X82925500Y-58246155D01*
X82925499Y-58246153D01*
X82903445Y-58135283D01*
X82894737Y-58091503D01*
X82877608Y-58050150D01*
X82834397Y-57945827D01*
X82834390Y-57945814D01*
X82746789Y-57814711D01*
X82746786Y-57814707D01*
X82635292Y-57703213D01*
X82635288Y-57703210D01*
X82504185Y-57615609D01*
X82504172Y-57615602D01*
X82358501Y-57555264D01*
X82358491Y-57555261D01*
X82250755Y-57533831D01*
X82188844Y-57501446D01*
X82154270Y-57440730D01*
X82150947Y-57412214D01*
X82150947Y-57128113D01*
X82150946Y-57128088D01*
X82148113Y-57092081D01*
X82148113Y-57092078D01*
X82103317Y-56937889D01*
X82069029Y-56879911D01*
X82051846Y-56812187D01*
X82069030Y-56753668D01*
X82102852Y-56696478D01*
X82102853Y-56696476D01*
X82143292Y-56557282D01*
X81590857Y-56557282D01*
X81581128Y-56556900D01*
X81579634Y-56556782D01*
X81081278Y-56556782D01*
X81081261Y-56556783D01*
X81079901Y-56556890D01*
X81079777Y-56556900D01*
X81045244Y-56559617D01*
X81044512Y-56559829D01*
X80933893Y-56569018D01*
X80931728Y-56568573D01*
X80923629Y-56569444D01*
X80545505Y-56569444D01*
X80482386Y-56552176D01*
X80473548Y-56546950D01*
X80473546Y-56546949D01*
X80473542Y-56546947D01*
X80318150Y-56501801D01*
X80318144Y-56501800D01*
X80281850Y-56498944D01*
X80281843Y-56498944D01*
X79812463Y-56498944D01*
X79812455Y-56498944D01*
X79776161Y-56501800D01*
X79776158Y-56501801D01*
X79717988Y-56518701D01*
X79699681Y-56524020D01*
X79665087Y-56528944D01*
X79047936Y-56528944D01*
X79039969Y-56526604D01*
X79031768Y-56527885D01*
X79013345Y-56524021D01*
X79011805Y-56523574D01*
X79011802Y-56523573D01*
X79011803Y-56523573D01*
X78975509Y-56520717D01*
X78975502Y-56520717D01*
X78506122Y-56520717D01*
X78506114Y-56520717D01*
X78469822Y-56523573D01*
X78469819Y-56523574D01*
X78468281Y-56524020D01*
X78464172Y-56524605D01*
X78463589Y-56524712D01*
X78463584Y-56524689D01*
X78433688Y-56528944D01*
X77763368Y-56528944D01*
X77733471Y-56524689D01*
X77733467Y-56524712D01*
X77732883Y-56524605D01*
X77728774Y-56524020D01*
X77727237Y-56523574D01*
X77727234Y-56523573D01*
X77727235Y-56523573D01*
X77690941Y-56520717D01*
X77690934Y-56520717D01*
X77221554Y-56520717D01*
X77221546Y-56520717D01*
X77185254Y-56523573D01*
X77185251Y-56523574D01*
X77183713Y-56524020D01*
X77179604Y-56524605D01*
X77179021Y-56524712D01*
X77179016Y-56524689D01*
X77149120Y-56528944D01*
X76478799Y-56528944D01*
X76448902Y-56524689D01*
X76448898Y-56524712D01*
X76448314Y-56524605D01*
X76444205Y-56524020D01*
X76442668Y-56523574D01*
X76442665Y-56523573D01*
X76442666Y-56523573D01*
X76406372Y-56520717D01*
X76406365Y-56520717D01*
X75936985Y-56520717D01*
X75936977Y-56520717D01*
X75900685Y-56523573D01*
X75900682Y-56523574D01*
X75899144Y-56524020D01*
X75895035Y-56524605D01*
X75894452Y-56524712D01*
X75894447Y-56524689D01*
X75864551Y-56528944D01*
X75678526Y-56528944D01*
X75611487Y-56509259D01*
X75580150Y-56480430D01*
X75525117Y-56408709D01*
X75401158Y-56313592D01*
X75359956Y-56257165D01*
X75355801Y-56187419D01*
X75390013Y-56126499D01*
X75451731Y-56093746D01*
X75476645Y-56091217D01*
X75921675Y-56091217D01*
X75921675Y-55562427D01*
X75921674Y-55562426D01*
X76421675Y-55562426D01*
X76421675Y-56091217D01*
X77206244Y-56091217D01*
X77206244Y-55562427D01*
X77206243Y-55562426D01*
X77706244Y-55562426D01*
X77706244Y-56091217D01*
X78490812Y-56091217D01*
X78490812Y-55562427D01*
X78490811Y-55562426D01*
X78990812Y-55562426D01*
X78990812Y-56091217D01*
X79116227Y-56091217D01*
X79127422Y-56081278D01*
X79141460Y-56079086D01*
X79153930Y-56072278D01*
X79180288Y-56069444D01*
X79797153Y-56069444D01*
X79797153Y-55540654D01*
X79797152Y-55540653D01*
X80297153Y-55540653D01*
X80297153Y-56069444D01*
X80400531Y-56069444D01*
X80417614Y-56060116D01*
X80443972Y-56057282D01*
X81080448Y-56057282D01*
X81580448Y-56057282D01*
X82143292Y-56057282D01*
X82102852Y-55918087D01*
X82021186Y-55779996D01*
X82021179Y-55779987D01*
X81907742Y-55666550D01*
X81907733Y-55666543D01*
X81769639Y-55584875D01*
X81769636Y-55584874D01*
X81615578Y-55540116D01*
X81580448Y-55537350D01*
X81580448Y-56057282D01*
X81080448Y-56057282D01*
X81080448Y-55537350D01*
X81080447Y-55537350D01*
X81045317Y-55540116D01*
X81045316Y-55540116D01*
X80891259Y-55584874D01*
X80891256Y-55584875D01*
X80746444Y-55670517D01*
X80745174Y-55668370D01*
X80691532Y-55689425D01*
X80623016Y-55675736D01*
X80617463Y-55672641D01*
X80473348Y-55587412D01*
X80473343Y-55587410D01*
X80318071Y-55542299D01*
X80318065Y-55542298D01*
X80297153Y-55540653D01*
X79797152Y-55540653D01*
X79776240Y-55542298D01*
X79776234Y-55542299D01*
X79620962Y-55587410D01*
X79620957Y-55587412D01*
X79481778Y-55669722D01*
X79481772Y-55669727D01*
X79470110Y-55681389D01*
X79408786Y-55714872D01*
X79339094Y-55709886D01*
X79312983Y-55695336D01*
X79312905Y-55695469D01*
X79307736Y-55692412D01*
X79306433Y-55691686D01*
X79306191Y-55691498D01*
X79167007Y-55609185D01*
X79167002Y-55609183D01*
X79011730Y-55564072D01*
X79011724Y-55564071D01*
X78990812Y-55562426D01*
X78490811Y-55562426D01*
X78469899Y-55564071D01*
X78469893Y-55564072D01*
X78314621Y-55609183D01*
X78314616Y-55609185D01*
X78175426Y-55691502D01*
X78174519Y-55692206D01*
X78173678Y-55692535D01*
X78168719Y-55695469D01*
X78168245Y-55694668D01*
X78109481Y-55717735D01*
X78040964Y-55704049D01*
X78022537Y-55692206D01*
X78021629Y-55691502D01*
X77882439Y-55609185D01*
X77882434Y-55609183D01*
X77727162Y-55564072D01*
X77727156Y-55564071D01*
X77706244Y-55562426D01*
X77206243Y-55562426D01*
X77185331Y-55564071D01*
X77185325Y-55564072D01*
X77030053Y-55609183D01*
X77030048Y-55609185D01*
X76890862Y-55691499D01*
X76889952Y-55692206D01*
X76889108Y-55692537D01*
X76884151Y-55695469D01*
X76883677Y-55694668D01*
X76824914Y-55717736D01*
X76756398Y-55704051D01*
X76737959Y-55692201D01*
X76737050Y-55691496D01*
X76597870Y-55609185D01*
X76597865Y-55609183D01*
X76442593Y-55564072D01*
X76442587Y-55564071D01*
X76421675Y-55562426D01*
X75921674Y-55562426D01*
X75900762Y-55564071D01*
X75900756Y-55564072D01*
X75745484Y-55609183D01*
X75745479Y-55609185D01*
X75606302Y-55691494D01*
X75606294Y-55691500D01*
X75603895Y-55693900D01*
X75601553Y-55695178D01*
X75600136Y-55696278D01*
X75599958Y-55696049D01*
X75542569Y-55727381D01*
X75472878Y-55722392D01*
X75440733Y-55704589D01*
X75399424Y-55672892D01*
X75399422Y-55672891D01*
X75253466Y-55612435D01*
X75196835Y-55604978D01*
X75196835Y-56112491D01*
X75194284Y-56121176D01*
X75195573Y-56130138D01*
X75184594Y-56154178D01*
X75177150Y-56179530D01*
X75170309Y-56185457D01*
X75166548Y-56193694D01*
X75144313Y-56207983D01*
X75124346Y-56225285D01*
X75113831Y-56227572D01*
X75107770Y-56231468D01*
X75072835Y-56236491D01*
X74920835Y-56236491D01*
X74853796Y-56216806D01*
X74808041Y-56164002D01*
X74796835Y-56112491D01*
X74796835Y-55604978D01*
X74740203Y-55612435D01*
X74594248Y-55672890D01*
X74468910Y-55769066D01*
X74372734Y-55894404D01*
X74312280Y-56040356D01*
X74312279Y-56040360D01*
X74300873Y-56126991D01*
X74470403Y-56126991D01*
X74491981Y-56133327D01*
X74514405Y-56135061D01*
X74524859Y-56142981D01*
X74537442Y-56146676D01*
X74552167Y-56163670D01*
X74570096Y-56177253D01*
X74574609Y-56189569D01*
X74583197Y-56199480D01*
X74586397Y-56221739D01*
X74594136Y-56242857D01*
X74591274Y-56255656D01*
X74593141Y-56268638D01*
X74583797Y-56289097D01*
X74578891Y-56311043D01*
X74567998Y-56323692D01*
X74564116Y-56332194D01*
X74557578Y-56339175D01*
X74552050Y-56344639D01*
X74468553Y-56408709D01*
X74409852Y-56485209D01*
X74403818Y-56491175D01*
X74380232Y-56503878D01*
X74358592Y-56519680D01*
X74347211Y-56521663D01*
X74342303Y-56524307D01*
X74335196Y-56523757D01*
X74316643Y-56526991D01*
X74256863Y-56526991D01*
X74242981Y-56528944D01*
X71316673Y-56528944D01*
X71249634Y-56509259D01*
X71228992Y-56492625D01*
X70686819Y-55950451D01*
X70653334Y-55889128D01*
X70650500Y-55862770D01*
X70650500Y-55523958D01*
X70650146Y-55516751D01*
X70650146Y-55275530D01*
X70669831Y-55208491D01*
X70722635Y-55162736D01*
X70774146Y-55151530D01*
X71297517Y-55151530D01*
X71297518Y-55151530D01*
X71357129Y-55145122D01*
X71491977Y-55094827D01*
X71607192Y-55008577D01*
X71693442Y-54893362D01*
X71743737Y-54758514D01*
X71750146Y-54698904D01*
X71750146Y-54482003D01*
X72436205Y-54482003D01*
X72446698Y-54584714D01*
X72501845Y-54751136D01*
X72501847Y-54751141D01*
X72593888Y-54900362D01*
X72717858Y-55024332D01*
X72867079Y-55116373D01*
X72867084Y-55116375D01*
X73033506Y-55171522D01*
X73033513Y-55171523D01*
X73136223Y-55182016D01*
X73586203Y-55182016D01*
X74086204Y-55182016D01*
X74536176Y-55182016D01*
X74536190Y-55182015D01*
X74638901Y-55171522D01*
X74805323Y-55116375D01*
X74805328Y-55116373D01*
X74954549Y-55024332D01*
X75078519Y-54900362D01*
X75170560Y-54751141D01*
X75170562Y-54751136D01*
X75225709Y-54584714D01*
X75225710Y-54584707D01*
X75236203Y-54482003D01*
X75236204Y-54481990D01*
X75236204Y-54357017D01*
X74086204Y-54357017D01*
X74086204Y-55182016D01*
X73586203Y-55182016D01*
X73586204Y-55182015D01*
X73586204Y-54357017D01*
X72436205Y-54357017D01*
X72436205Y-54482003D01*
X71750146Y-54482003D01*
X71750145Y-53732030D01*
X72436204Y-53732030D01*
X72436204Y-53857017D01*
X73586204Y-53857017D01*
X74086204Y-53857017D01*
X75236203Y-53857017D01*
X75236203Y-53732036D01*
X75236202Y-53732030D01*
X75225709Y-53629319D01*
X75170562Y-53462897D01*
X75170560Y-53462892D01*
X75078519Y-53313671D01*
X74954549Y-53189701D01*
X74805328Y-53097660D01*
X74805323Y-53097658D01*
X74638901Y-53042511D01*
X74638894Y-53042510D01*
X74536190Y-53032017D01*
X74086204Y-53032017D01*
X74086204Y-53857017D01*
X73586204Y-53857017D01*
X73586204Y-53032017D01*
X73136232Y-53032017D01*
X73136216Y-53032018D01*
X73033506Y-53042511D01*
X72867084Y-53097658D01*
X72867079Y-53097660D01*
X72717858Y-53189701D01*
X72593888Y-53313671D01*
X72501847Y-53462892D01*
X72501845Y-53462897D01*
X72446698Y-53629319D01*
X72446697Y-53629326D01*
X72436204Y-53732030D01*
X71750145Y-53732030D01*
X71750145Y-53351240D01*
X71750145Y-52113261D01*
X71758789Y-52083823D01*
X71765313Y-52053833D01*
X71769068Y-52048816D01*
X71769830Y-52046222D01*
X71786464Y-52025579D01*
X71868209Y-51943835D01*
X71929533Y-51910351D01*
X71955890Y-51907517D01*
X72499336Y-51907517D01*
X72566375Y-51927202D01*
X72587550Y-51946400D01*
X72588385Y-51945566D01*
X72593492Y-51950673D01*
X72717548Y-52074729D01*
X72866870Y-52166831D01*
X73033407Y-52222016D01*
X73136195Y-52232517D01*
X74536212Y-52232516D01*
X74639001Y-52222016D01*
X74805538Y-52166831D01*
X74830280Y-52151569D01*
X74897671Y-52133128D01*
X74964335Y-52154049D01*
X74983058Y-52169425D01*
X75322578Y-52508946D01*
X75578927Y-52765295D01*
X75605806Y-52805521D01*
X75615606Y-52829179D01*
X75615607Y-52829181D01*
X75703207Y-52960284D01*
X75703213Y-52960292D01*
X75814707Y-53071786D01*
X75814711Y-53071789D01*
X75945814Y-53159390D01*
X75945827Y-53159397D01*
X76091498Y-53219735D01*
X76091503Y-53219737D01*
X76238029Y-53248883D01*
X76246153Y-53250499D01*
X76246156Y-53250500D01*
X76246158Y-53250500D01*
X76403844Y-53250500D01*
X76403845Y-53250499D01*
X76558497Y-53219737D01*
X76704179Y-53159394D01*
X76835289Y-53071789D01*
X76946789Y-52960289D01*
X77034394Y-52829179D01*
X77094737Y-52683497D01*
X77125500Y-52528842D01*
X77125500Y-52371158D01*
X77125500Y-52371155D01*
X77125499Y-52371153D01*
X77097922Y-52232515D01*
X77094737Y-52216503D01*
X77075237Y-52169426D01*
X77034397Y-52070827D01*
X77034390Y-52070814D01*
X76946789Y-51939711D01*
X76946786Y-51939707D01*
X76835292Y-51828213D01*
X76835284Y-51828207D01*
X76704181Y-51740607D01*
X76704179Y-51740606D01*
X76680521Y-51730806D01*
X76640295Y-51703927D01*
X76348549Y-51412181D01*
X76315064Y-51350858D01*
X76320048Y-51281166D01*
X76361920Y-51225233D01*
X76427384Y-51200816D01*
X76436230Y-51200500D01*
X78457447Y-51200500D01*
X78524486Y-51220185D01*
X78570241Y-51272989D01*
X78580185Y-51342147D01*
X78551160Y-51405703D01*
X78522544Y-51430038D01*
X78472205Y-51461087D01*
X78472201Y-51461090D01*
X78348230Y-51585061D01*
X78256189Y-51734282D01*
X78256187Y-51734287D01*
X78201040Y-51900709D01*
X78201039Y-51900716D01*
X78190546Y-52003420D01*
X78190546Y-52065907D01*
X79266546Y-52065907D01*
X79333585Y-52085592D01*
X79379340Y-52138396D01*
X79390546Y-52189907D01*
X79390546Y-52441907D01*
X79370861Y-52508946D01*
X79318057Y-52554701D01*
X79266546Y-52565907D01*
X78190547Y-52565907D01*
X78190547Y-52628393D01*
X78201040Y-52731104D01*
X78256187Y-52897526D01*
X78256189Y-52897531D01*
X78348230Y-53046752D01*
X78441850Y-53140372D01*
X78475335Y-53201695D01*
X78470351Y-53271387D01*
X78441851Y-53315734D01*
X78347833Y-53409752D01*
X78255733Y-53559070D01*
X78255731Y-53559075D01*
X78241286Y-53602669D01*
X78200547Y-53725610D01*
X78200547Y-53725611D01*
X78200546Y-53725611D01*
X78190046Y-53828390D01*
X78190046Y-54453408D01*
X78190047Y-54453426D01*
X78200546Y-54556203D01*
X78200547Y-54556206D01*
X78209994Y-54584714D01*
X78255732Y-54722741D01*
X78347834Y-54872063D01*
X78471890Y-54996119D01*
X78621212Y-55088221D01*
X78787749Y-55143406D01*
X78890537Y-55153907D01*
X79890554Y-55153906D01*
X79890562Y-55153905D01*
X79890565Y-55153905D01*
X79976544Y-55145122D01*
X79993343Y-55143406D01*
X80159880Y-55088221D01*
X80309202Y-54996119D01*
X80345898Y-54959423D01*
X80407221Y-54925938D01*
X80433579Y-54923104D01*
X80945264Y-54923104D01*
X81012303Y-54942789D01*
X81032945Y-54959423D01*
X81101338Y-55027816D01*
X81250660Y-55119918D01*
X81417197Y-55175103D01*
X81519985Y-55185604D01*
X82520002Y-55185603D01*
X82520010Y-55185602D01*
X82520013Y-55185602D01*
X82576296Y-55179852D01*
X82622791Y-55175103D01*
X82789328Y-55119918D01*
X82938650Y-55027816D01*
X83062706Y-54903760D01*
X83105809Y-54833877D01*
X83157756Y-54787153D01*
X83226719Y-54775930D01*
X83290801Y-54803773D01*
X83316886Y-54833876D01*
X83367330Y-54915659D01*
X83491386Y-55039715D01*
X83640708Y-55131817D01*
X83807245Y-55187002D01*
X83910033Y-55197503D01*
X84910050Y-55197502D01*
X84910058Y-55197501D01*
X84910061Y-55197501D01*
X84966344Y-55191751D01*
X85012839Y-55187002D01*
X85179376Y-55131817D01*
X85328698Y-55039715D01*
X85397091Y-54971322D01*
X85458414Y-54937837D01*
X85484772Y-54935003D01*
X85739417Y-54935003D01*
X85836959Y-54915599D01*
X85884410Y-54906161D01*
X86020992Y-54849587D01*
X86070226Y-54816689D01*
X86143913Y-54767455D01*
X86632951Y-54278416D01*
X86715084Y-54155495D01*
X86771658Y-54018913D01*
X86800500Y-53873918D01*
X86800500Y-53726083D01*
X86800500Y-51804604D01*
X86809939Y-51757151D01*
X86819737Y-51733497D01*
X86850500Y-51578842D01*
X86850500Y-51421158D01*
X86850500Y-51421155D01*
X86850499Y-51421153D01*
X86819739Y-51266511D01*
X86819738Y-51266508D01*
X86819737Y-51266503D01*
X86809937Y-51242844D01*
X86800500Y-51195396D01*
X86800500Y-49141338D01*
X86820185Y-49074299D01*
X86872989Y-49028544D01*
X86898558Y-49020082D01*
X86898560Y-49020081D01*
X86898565Y-49020081D01*
X87065102Y-48964896D01*
X87214424Y-48872794D01*
X87308087Y-48779131D01*
X87369410Y-48745646D01*
X87439102Y-48750630D01*
X87483449Y-48779131D01*
X87577112Y-48872794D01*
X87726434Y-48964896D01*
X87892971Y-49020081D01*
X87995759Y-49030582D01*
X88620776Y-49030581D01*
X88620784Y-49030580D01*
X88620787Y-49030580D01*
X88677070Y-49024830D01*
X88723565Y-49020081D01*
X88890102Y-48964896D01*
X89039424Y-48872794D01*
X89163480Y-48748738D01*
X89230867Y-48639484D01*
X89282815Y-48592761D01*
X89336406Y-48580582D01*
X89701519Y-48580582D01*
X89768558Y-48600267D01*
X89789200Y-48616901D01*
X89826661Y-48654362D01*
X89826665Y-48654365D01*
X89969757Y-48742626D01*
X89969760Y-48742627D01*
X89969766Y-48742631D01*
X90129368Y-48795518D01*
X90227879Y-48805582D01*
X90227884Y-48805582D01*
X90761222Y-48805582D01*
X90761227Y-48805582D01*
X90859738Y-48795518D01*
X91019340Y-48742631D01*
X91162444Y-48654363D01*
X91194725Y-48622082D01*
X91256048Y-48588597D01*
X91325740Y-48593581D01*
X91370087Y-48622082D01*
X91401972Y-48653967D01*
X91544975Y-48742173D01*
X91544980Y-48742175D01*
X91704469Y-48795024D01*
X91802909Y-48805081D01*
X92319553Y-48805081D01*
X92336189Y-48805081D01*
X92336205Y-48805080D01*
X92434636Y-48795025D01*
X92594125Y-48742175D01*
X92594130Y-48742173D01*
X92737133Y-48653967D01*
X92855938Y-48535162D01*
X92944144Y-48392159D01*
X92944146Y-48392154D01*
X92996995Y-48232665D01*
X93007052Y-48134232D01*
X93007053Y-48134219D01*
X93007053Y-48080082D01*
X92319553Y-48080082D01*
X92319553Y-48805081D01*
X91802909Y-48805081D01*
X91819553Y-48805080D01*
X91819553Y-47580082D01*
X92319553Y-47580082D01*
X93007052Y-47580082D01*
X93007052Y-47525946D01*
X93007051Y-47525929D01*
X92996996Y-47427498D01*
X92944146Y-47268009D01*
X92944144Y-47268004D01*
X92855938Y-47125001D01*
X92737133Y-47006196D01*
X92594130Y-46917990D01*
X92594125Y-46917988D01*
X92434636Y-46865139D01*
X92336203Y-46855082D01*
X92319553Y-46855082D01*
X92319553Y-47580082D01*
X91819553Y-47580082D01*
X91819553Y-46855081D01*
X91802909Y-46855082D01*
X91704468Y-46865139D01*
X91544980Y-46917988D01*
X91544975Y-46917990D01*
X91401972Y-47006196D01*
X91370086Y-47038082D01*
X91308762Y-47071567D01*
X91239071Y-47066581D01*
X91194726Y-47038082D01*
X91162445Y-47005801D01*
X91162440Y-47005798D01*
X91019348Y-46917537D01*
X91019342Y-46917534D01*
X91019340Y-46917533D01*
X90859738Y-46864646D01*
X90859736Y-46864645D01*
X90761234Y-46854582D01*
X90761227Y-46854582D01*
X90227879Y-46854582D01*
X90227871Y-46854582D01*
X90129369Y-46864645D01*
X90129368Y-46864646D01*
X90050272Y-46890855D01*
X89969768Y-46917532D01*
X89969757Y-46917537D01*
X89826665Y-47005798D01*
X89826661Y-47005801D01*
X89789200Y-47043263D01*
X89727877Y-47076748D01*
X89701519Y-47079582D01*
X89336406Y-47079582D01*
X89269367Y-47059897D01*
X89230867Y-47020679D01*
X89221934Y-47006196D01*
X89163480Y-46911426D01*
X89039424Y-46787370D01*
X88890102Y-46695268D01*
X88723565Y-46640083D01*
X88723563Y-46640082D01*
X88620778Y-46629582D01*
X87995766Y-46629582D01*
X87995748Y-46629583D01*
X87892971Y-46640082D01*
X87892968Y-46640083D01*
X87726436Y-46695267D01*
X87726431Y-46695269D01*
X87577110Y-46787371D01*
X87483449Y-46881033D01*
X87422126Y-46914518D01*
X87352434Y-46909534D01*
X87308087Y-46881033D01*
X87214425Y-46787371D01*
X87214424Y-46787370D01*
X87065102Y-46695268D01*
X86898565Y-46640083D01*
X86898563Y-46640082D01*
X86795778Y-46629582D01*
X86170766Y-46629582D01*
X86170748Y-46629583D01*
X86067971Y-46640082D01*
X86067968Y-46640083D01*
X85901436Y-46695267D01*
X85901431Y-46695269D01*
X85752110Y-46787371D01*
X85628057Y-46911424D01*
X85535955Y-47060745D01*
X85535953Y-47060750D01*
X85514765Y-47124691D01*
X85480769Y-47227285D01*
X85480769Y-47227286D01*
X85480768Y-47227286D01*
X85470268Y-47330065D01*
X85470268Y-47742499D01*
X85450583Y-47809538D01*
X85449371Y-47811389D01*
X85417813Y-47858620D01*
X85417812Y-47858619D01*
X85384921Y-47907846D01*
X85384914Y-47907858D01*
X85328342Y-48044436D01*
X85328340Y-48044442D01*
X85299500Y-48189429D01*
X85299500Y-51195396D01*
X85299471Y-51195595D01*
X85299500Y-51195695D01*
X85299342Y-51196480D01*
X85294393Y-51230617D01*
X85292549Y-51236841D01*
X85280263Y-51266503D01*
X85273112Y-51302452D01*
X85271496Y-51307908D01*
X85255498Y-51332669D01*
X85241834Y-51358791D01*
X85236752Y-51361684D01*
X85233580Y-51366595D01*
X85206739Y-51378774D01*
X85181118Y-51393364D01*
X85175165Y-51393102D01*
X85169954Y-51395467D01*
X85144578Y-51391756D01*
X85113600Y-51390393D01*
X85012839Y-51357004D01*
X85012837Y-51357003D01*
X84910052Y-51346503D01*
X83910040Y-51346503D01*
X83910022Y-51346504D01*
X83807245Y-51357003D01*
X83807242Y-51357004D01*
X83640710Y-51412188D01*
X83640705Y-51412190D01*
X83491384Y-51504292D01*
X83422993Y-51572684D01*
X83396065Y-51587387D01*
X83370247Y-51603980D01*
X83364046Y-51604871D01*
X83361670Y-51606169D01*
X83335312Y-51609003D01*
X83106623Y-51609003D01*
X83039584Y-51589318D01*
X83018942Y-51572684D01*
X82938651Y-51492393D01*
X82938650Y-51492392D01*
X82829396Y-51425004D01*
X82782673Y-51373057D01*
X82770494Y-51319466D01*
X82770494Y-50896076D01*
X82758328Y-50834916D01*
X82741653Y-50751082D01*
X82687402Y-50620111D01*
X82685758Y-50615516D01*
X82617047Y-50512682D01*
X82617047Y-50512683D01*
X82602944Y-50491576D01*
X82602941Y-50491573D01*
X81978421Y-49867052D01*
X81978420Y-49867051D01*
X81869015Y-49793950D01*
X81855495Y-49784916D01*
X81855490Y-49784913D01*
X81718917Y-49728343D01*
X81718907Y-49728340D01*
X81666015Y-49717819D01*
X81604104Y-49685433D01*
X81569530Y-49624717D01*
X81573271Y-49554948D01*
X81614138Y-49498276D01*
X81627071Y-49489479D01*
X81696897Y-49448185D01*
X81813113Y-49331969D01*
X81896776Y-49190502D01*
X81942630Y-49032673D01*
X81945532Y-48995798D01*
X81945532Y-48564410D01*
X81942630Y-48527535D01*
X81896776Y-48369706D01*
X81813113Y-48228239D01*
X81813110Y-48228236D01*
X81808330Y-48222073D01*
X81810667Y-48220259D01*
X81783830Y-48171154D01*
X81788788Y-48101460D01*
X81809586Y-48069102D01*
X81807935Y-48067821D01*
X81812718Y-48061654D01*
X81896313Y-47920302D01*
X81942132Y-47762590D01*
X81942327Y-47760105D01*
X81942327Y-47760104D01*
X78997737Y-47760104D01*
X78997736Y-47760105D01*
X78997931Y-47762590D01*
X79043750Y-47920302D01*
X79127346Y-48061656D01*
X79132132Y-48067826D01*
X79129672Y-48069733D01*
X79156242Y-48118392D01*
X79151258Y-48188084D01*
X79130194Y-48220885D01*
X79131731Y-48222078D01*
X79126947Y-48228244D01*
X79043287Y-48369707D01*
X79043286Y-48369710D01*
X78997434Y-48527530D01*
X78997433Y-48527536D01*
X78994532Y-48564402D01*
X78994532Y-48995805D01*
X78997433Y-49032671D01*
X78997434Y-49032677D01*
X79043286Y-49190497D01*
X79043287Y-49190500D01*
X79126949Y-49331966D01*
X79126955Y-49331974D01*
X79243161Y-49448180D01*
X79243165Y-49448183D01*
X79243167Y-49448185D01*
X79243169Y-49448186D01*
X79277971Y-49468768D01*
X79325654Y-49519837D01*
X79338158Y-49588578D01*
X79311513Y-49653168D01*
X79254178Y-49693098D01*
X79214850Y-49699500D01*
X76775214Y-49699500D01*
X76708175Y-49679815D01*
X76662420Y-49627011D01*
X76652476Y-49557853D01*
X76681501Y-49494297D01*
X76712093Y-49468768D01*
X76714519Y-49467332D01*
X76746897Y-49448185D01*
X76863113Y-49331969D01*
X76946776Y-49190502D01*
X76992630Y-49032673D01*
X76995532Y-48995798D01*
X76995532Y-48564410D01*
X76992630Y-48527535D01*
X76946776Y-48369706D01*
X76863113Y-48228239D01*
X76863110Y-48228236D01*
X76858330Y-48222073D01*
X76860782Y-48220170D01*
X76834187Y-48171525D01*
X76839136Y-48101830D01*
X76859972Y-48069408D01*
X76858330Y-48068135D01*
X76863107Y-48061974D01*
X76863113Y-48061969D01*
X76946776Y-47920502D01*
X76992630Y-47762673D01*
X76995532Y-47725798D01*
X76995532Y-47294410D01*
X76992630Y-47257535D01*
X76983841Y-47227285D01*
X76946777Y-47099710D01*
X76946776Y-47099707D01*
X76946776Y-47099706D01*
X76863113Y-46958239D01*
X76863110Y-46958236D01*
X76858330Y-46952073D01*
X76860782Y-46950170D01*
X76834187Y-46901525D01*
X76839136Y-46831830D01*
X76859972Y-46799408D01*
X76858330Y-46798135D01*
X76863107Y-46791974D01*
X76863113Y-46791969D01*
X76946776Y-46650502D01*
X76992630Y-46492673D01*
X76995532Y-46455798D01*
X76995532Y-46024410D01*
X76992630Y-45987535D01*
X76946776Y-45829706D01*
X76863113Y-45688239D01*
X76863110Y-45688236D01*
X76858330Y-45682073D01*
X76860782Y-45680170D01*
X76834187Y-45631525D01*
X76839136Y-45561830D01*
X76859972Y-45529408D01*
X76858330Y-45528135D01*
X76863107Y-45521974D01*
X76863113Y-45521969D01*
X76946776Y-45380502D01*
X76992630Y-45222673D01*
X76995532Y-45185798D01*
X76995532Y-45093604D01*
X77015217Y-45026565D01*
X77068021Y-44980810D01*
X77119532Y-44969604D01*
X78870532Y-44969604D01*
X78937571Y-44989289D01*
X78983326Y-45042093D01*
X78994532Y-45093604D01*
X78994532Y-45185805D01*
X78997433Y-45222671D01*
X78997434Y-45222677D01*
X79043286Y-45380497D01*
X79043287Y-45380500D01*
X79126949Y-45521966D01*
X79131734Y-45528135D01*
X79129288Y-45530031D01*
X79155889Y-45578746D01*
X79150905Y-45648438D01*
X79130101Y-45680807D01*
X79131734Y-45682073D01*
X79126949Y-45688241D01*
X79043287Y-45829707D01*
X79043286Y-45829710D01*
X78997434Y-45987530D01*
X78997433Y-45987536D01*
X78994532Y-46024402D01*
X78994532Y-46455805D01*
X78997433Y-46492671D01*
X78997434Y-46492677D01*
X79043286Y-46650497D01*
X79043287Y-46650500D01*
X79043288Y-46650502D01*
X79058145Y-46675624D01*
X79126949Y-46791966D01*
X79131734Y-46798135D01*
X79129401Y-46799944D01*
X79156242Y-46849099D01*
X79151258Y-46918791D01*
X79130502Y-46951125D01*
X79132129Y-46952387D01*
X79127345Y-46958553D01*
X79043750Y-47099905D01*
X78997931Y-47257617D01*
X78997736Y-47260102D01*
X78997737Y-47260104D01*
X81942327Y-47260104D01*
X81942327Y-47260102D01*
X81942132Y-47257615D01*
X81942131Y-47257609D01*
X81910635Y-47149199D01*
X81910834Y-47079329D01*
X81948776Y-47020659D01*
X82012415Y-46991816D01*
X82029711Y-46990604D01*
X83783816Y-46990604D01*
X83881358Y-46971200D01*
X83928809Y-46961762D01*
X84065391Y-46905188D01*
X84139424Y-46855721D01*
X84188312Y-46823056D01*
X86135351Y-44876017D01*
X87624647Y-44876017D01*
X87635140Y-44978728D01*
X87690287Y-45145150D01*
X87690289Y-45145155D01*
X87782330Y-45294376D01*
X87906300Y-45418346D01*
X88055521Y-45510387D01*
X88055526Y-45510389D01*
X88221948Y-45565536D01*
X88221955Y-45565537D01*
X88324665Y-45576030D01*
X89524645Y-45576030D01*
X90024646Y-45576030D01*
X91224618Y-45576030D01*
X91224632Y-45576029D01*
X91327343Y-45565536D01*
X91493765Y-45510389D01*
X91493770Y-45510387D01*
X91642991Y-45418346D01*
X91766961Y-45294376D01*
X91859002Y-45145155D01*
X91859004Y-45145150D01*
X91914151Y-44978728D01*
X91914152Y-44978721D01*
X91924645Y-44876017D01*
X91924646Y-44876004D01*
X91924646Y-44076031D01*
X90024646Y-44076031D01*
X90024646Y-45576030D01*
X89524645Y-45576030D01*
X89524646Y-45576029D01*
X89524646Y-44076031D01*
X87624647Y-44076031D01*
X87624647Y-44876017D01*
X86135351Y-44876017D01*
X86182952Y-44828416D01*
X86532952Y-44478416D01*
X86593931Y-44387153D01*
X86615084Y-44355495D01*
X86640962Y-44293021D01*
X86671659Y-44218912D01*
X86700500Y-44073917D01*
X86700500Y-43926082D01*
X86700500Y-42776044D01*
X87624646Y-42776044D01*
X87624646Y-43576031D01*
X89524646Y-43576031D01*
X90024646Y-43576031D01*
X91924645Y-43576031D01*
X91924645Y-42776059D01*
X91924644Y-42776044D01*
X91914151Y-42673333D01*
X91859004Y-42506911D01*
X91859002Y-42506906D01*
X91766961Y-42357685D01*
X91642991Y-42233715D01*
X91493770Y-42141674D01*
X91493765Y-42141672D01*
X91327343Y-42086525D01*
X91327336Y-42086524D01*
X91224632Y-42076031D01*
X90024646Y-42076031D01*
X90024646Y-43576031D01*
X89524646Y-43576031D01*
X89524646Y-42076031D01*
X88324674Y-42076031D01*
X88324658Y-42076032D01*
X88221948Y-42086525D01*
X88055526Y-42141672D01*
X88055521Y-42141674D01*
X87906300Y-42233715D01*
X87782330Y-42357685D01*
X87690289Y-42506906D01*
X87690287Y-42506911D01*
X87635140Y-42673333D01*
X87635139Y-42673340D01*
X87624646Y-42776044D01*
X86700500Y-42776044D01*
X86700500Y-39529604D01*
X86709939Y-39482151D01*
X86719737Y-39458497D01*
X86750500Y-39303842D01*
X86750500Y-39146158D01*
X86750500Y-39146155D01*
X86750499Y-39146153D01*
X86738540Y-39086031D01*
X86719737Y-38991503D01*
X86704009Y-38953531D01*
X86659397Y-38845827D01*
X86659390Y-38845814D01*
X86571789Y-38714711D01*
X86571786Y-38714707D01*
X86460292Y-38603213D01*
X86460288Y-38603210D01*
X86329185Y-38515609D01*
X86329172Y-38515602D01*
X86183501Y-38455264D01*
X86183489Y-38455261D01*
X86028845Y-38424500D01*
X86028842Y-38424500D01*
X85871158Y-38424500D01*
X85840216Y-38430654D01*
X85761158Y-38446380D01*
X85691566Y-38440152D01*
X85636389Y-38397288D01*
X85613145Y-38331398D01*
X85629213Y-38263401D01*
X85649282Y-38237085D01*
X86073518Y-37812850D01*
X86134841Y-37779365D01*
X86161199Y-37776531D01*
X87500147Y-37776531D01*
X87567186Y-37796216D01*
X87612941Y-37849020D01*
X87624147Y-37900531D01*
X87624147Y-38076049D01*
X87634646Y-38178827D01*
X87634647Y-38178830D01*
X87689831Y-38345362D01*
X87689833Y-38345367D01*
X87690879Y-38347063D01*
X87781934Y-38494687D01*
X87905990Y-38618743D01*
X88055312Y-38710845D01*
X88221849Y-38766030D01*
X88324637Y-38776531D01*
X91224654Y-38776530D01*
X91327443Y-38766030D01*
X91493980Y-38710845D01*
X91643302Y-38618743D01*
X91767358Y-38494687D01*
X91815256Y-38417032D01*
X94626859Y-38417032D01*
X94626859Y-38629605D01*
X94650566Y-38779289D01*
X94660113Y-38839562D01*
X94709480Y-38991498D01*
X94725803Y-39041733D01*
X94822310Y-39231139D01*
X94947249Y-39403105D01*
X95097572Y-39553428D01*
X95269538Y-39678367D01*
X95269540Y-39678368D01*
X95269543Y-39678370D01*
X95458947Y-39774876D01*
X95661116Y-39840565D01*
X95871072Y-39873819D01*
X95871073Y-39873819D01*
X96083645Y-39873819D01*
X96083646Y-39873819D01*
X96293602Y-39840565D01*
X96495771Y-39774876D01*
X96685175Y-39678370D01*
X96726200Y-39648564D01*
X96857145Y-39553428D01*
X96857147Y-39553425D01*
X96857151Y-39553423D01*
X97007463Y-39403111D01*
X97007465Y-39403107D01*
X97007468Y-39403105D01*
X97116445Y-39253108D01*
X97132410Y-39231135D01*
X97228916Y-39041731D01*
X97294605Y-38839562D01*
X97327859Y-38629606D01*
X97327859Y-38417032D01*
X97294605Y-38207076D01*
X97228916Y-38004907D01*
X97132410Y-37815503D01*
X97132408Y-37815500D01*
X97132407Y-37815498D01*
X97007468Y-37643532D01*
X96857145Y-37493209D01*
X96685179Y-37368270D01*
X96495773Y-37271763D01*
X96495772Y-37271762D01*
X96495771Y-37271762D01*
X96293602Y-37206073D01*
X96293600Y-37206072D01*
X96293599Y-37206072D01*
X96132316Y-37180527D01*
X96083646Y-37172819D01*
X95871072Y-37172819D01*
X95822401Y-37180527D01*
X95661119Y-37206072D01*
X95458944Y-37271763D01*
X95269538Y-37368270D01*
X95097572Y-37493209D01*
X94947249Y-37643532D01*
X94822310Y-37815498D01*
X94725803Y-38004904D01*
X94660112Y-38207079D01*
X94626859Y-38417032D01*
X91815256Y-38417032D01*
X91859460Y-38345365D01*
X91914645Y-38178828D01*
X91925146Y-38076040D01*
X91925145Y-35976023D01*
X91922307Y-35948245D01*
X91914645Y-35873234D01*
X91864284Y-35721257D01*
X91861883Y-35651433D01*
X91897614Y-35591391D01*
X91960134Y-35560198D01*
X91981744Y-35558257D01*
X95996453Y-35550507D01*
X96003582Y-35550701D01*
G37*
G04 #@! TD.AperFunction*
G04 #@! TA.AperFunction,Conductor*
G36*
X72406281Y-80266691D02*
G01*
X72452036Y-80319495D01*
X72463242Y-80371006D01*
X72463242Y-81025795D01*
X72484152Y-81024151D01*
X72639437Y-80979037D01*
X72778616Y-80896727D01*
X72778621Y-80896723D01*
X72863299Y-80812045D01*
X72888799Y-80798120D01*
X72912793Y-80781753D01*
X72919091Y-80781580D01*
X72924622Y-80778560D01*
X72953600Y-80780632D01*
X72982636Y-80779835D01*
X72990791Y-80783292D01*
X72994314Y-80783544D01*
X73015131Y-80793609D01*
X73020762Y-80797013D01*
X73020763Y-80797014D01*
X73070598Y-80827140D01*
X73117785Y-80878668D01*
X73130448Y-80933257D01*
X73130448Y-82093954D01*
X73110763Y-82160993D01*
X73094129Y-82181635D01*
X72925181Y-82350583D01*
X72863858Y-82384068D01*
X72794166Y-82379084D01*
X72749819Y-82350583D01*
X71685926Y-81286690D01*
X71671222Y-81259762D01*
X71654630Y-81233944D01*
X71653738Y-81227743D01*
X71652441Y-81225367D01*
X71649607Y-81199009D01*
X71649607Y-81104260D01*
X71669292Y-81037221D01*
X71722096Y-80991466D01*
X71791254Y-80981522D01*
X71808202Y-80985184D01*
X71942328Y-81024150D01*
X71963242Y-81025795D01*
X71963242Y-80371006D01*
X71982927Y-80303967D01*
X72035731Y-80258212D01*
X72087242Y-80247006D01*
X72339242Y-80247006D01*
X72406281Y-80266691D01*
G37*
G04 #@! TD.AperFunction*
G04 #@! TA.AperFunction,Conductor*
G36*
X78905703Y-72405384D02*
G01*
X78912181Y-72411416D01*
X79463724Y-72962959D01*
X79497209Y-73024282D01*
X79500043Y-73050640D01*
X79500043Y-77005878D01*
X79480358Y-77072917D01*
X79427554Y-77118672D01*
X79415050Y-77123582D01*
X79382505Y-77134367D01*
X79331211Y-77151364D01*
X79331206Y-77151366D01*
X79181885Y-77243468D01*
X79057832Y-77367521D01*
X78965730Y-77516842D01*
X78965729Y-77516845D01*
X78951202Y-77560684D01*
X78911430Y-77618127D01*
X78846914Y-77644950D01*
X78778138Y-77632635D01*
X78768401Y-77627217D01*
X78657324Y-77558704D01*
X78657315Y-77558700D01*
X78497826Y-77505851D01*
X78399393Y-77495794D01*
X78345243Y-77495794D01*
X78345243Y-78309294D01*
X78325558Y-78376333D01*
X78272754Y-78422088D01*
X78221243Y-78433294D01*
X77969243Y-78433294D01*
X77902204Y-78413609D01*
X77856449Y-78360805D01*
X77845243Y-78309294D01*
X77845243Y-77495794D01*
X77833157Y-77483709D01*
X77807271Y-77476108D01*
X77761516Y-77423304D01*
X77750310Y-77371793D01*
X77750310Y-76700287D01*
X77769995Y-76633248D01*
X77786629Y-76612606D01*
X78155861Y-76243374D01*
X78580520Y-75818716D01*
X78659577Y-75681784D01*
X78700501Y-75529057D01*
X78700501Y-75370942D01*
X78700501Y-75363347D01*
X78700500Y-75363329D01*
X78700500Y-72499097D01*
X78720185Y-72432058D01*
X78772989Y-72386303D01*
X78842147Y-72376359D01*
X78905703Y-72405384D01*
G37*
G04 #@! TD.AperFunction*
G04 #@! TA.AperFunction,Conductor*
G36*
X82291942Y-73170185D02*
G01*
X82312584Y-73186819D01*
X83584947Y-74459182D01*
X83618432Y-74520505D01*
X83621266Y-74546863D01*
X83621266Y-76994137D01*
X83601581Y-77061176D01*
X83548777Y-77106931D01*
X83536273Y-77111841D01*
X83515661Y-77118672D01*
X83452434Y-77139623D01*
X83452429Y-77139625D01*
X83303108Y-77231727D01*
X83179055Y-77355780D01*
X83086953Y-77505101D01*
X83086952Y-77505104D01*
X83065085Y-77571094D01*
X83025311Y-77628539D01*
X82960795Y-77655361D01*
X82892020Y-77643045D01*
X82872786Y-77630827D01*
X82727710Y-77541343D01*
X82727705Y-77541341D01*
X82568216Y-77488492D01*
X82469783Y-77478435D01*
X82415633Y-77478435D01*
X82415633Y-78291935D01*
X82395948Y-78358974D01*
X82343144Y-78404729D01*
X82291633Y-78415935D01*
X82039633Y-78415935D01*
X81972594Y-78396250D01*
X81926839Y-78343446D01*
X81915633Y-78291935D01*
X81915633Y-77478435D01*
X81915632Y-77478434D01*
X81861497Y-77478435D01*
X81861480Y-77478436D01*
X81763048Y-77488492D01*
X81603560Y-77541341D01*
X81603555Y-77541343D01*
X81460551Y-77629549D01*
X81454891Y-77634026D01*
X81453862Y-77632725D01*
X81400272Y-77661979D01*
X81330581Y-77656986D01*
X81274653Y-77615108D01*
X81256223Y-77579815D01*
X81252892Y-77569762D01*
X81235357Y-77516845D01*
X81143255Y-77367523D01*
X81019199Y-77243467D01*
X80869877Y-77151365D01*
X80786038Y-77123583D01*
X80728594Y-77083811D01*
X80701771Y-77019295D01*
X80701043Y-77005878D01*
X80701043Y-73274500D01*
X80720728Y-73207461D01*
X80773532Y-73161706D01*
X80825043Y-73150500D01*
X82224903Y-73150500D01*
X82291942Y-73170185D01*
G37*
G04 #@! TD.AperFunction*
G04 #@! TA.AperFunction,Conductor*
G36*
X77418833Y-72325974D02*
G01*
X77474767Y-72367845D01*
X77499184Y-72433310D01*
X77499500Y-72442156D01*
X77499500Y-75149902D01*
X77479815Y-75216941D01*
X77463181Y-75237583D01*
X76669291Y-76031472D01*
X76669289Y-76031475D01*
X76657569Y-76051776D01*
X76632069Y-76095943D01*
X76590233Y-76168405D01*
X76549309Y-76321133D01*
X76549309Y-76321135D01*
X76549309Y-76489236D01*
X76549310Y-76489249D01*
X76549310Y-78033876D01*
X76546759Y-78042561D01*
X76548048Y-78051523D01*
X76537069Y-78075563D01*
X76529625Y-78100915D01*
X76522784Y-78106842D01*
X76519023Y-78115079D01*
X76496788Y-78129368D01*
X76476821Y-78146670D01*
X76466306Y-78148957D01*
X76460245Y-78152853D01*
X76425310Y-78157876D01*
X76412810Y-78157876D01*
X76345771Y-78138191D01*
X76300016Y-78085387D01*
X76288810Y-78033876D01*
X76288810Y-77379086D01*
X76288809Y-77379085D01*
X76267897Y-77380730D01*
X76267891Y-77380731D01*
X76112619Y-77425842D01*
X76112614Y-77425844D01*
X75970277Y-77510022D01*
X75902553Y-77527205D01*
X75844035Y-77510022D01*
X75732648Y-77444148D01*
X75704161Y-77427301D01*
X75704160Y-77427300D01*
X75704159Y-77427300D01*
X75704156Y-77427299D01*
X75548763Y-77382152D01*
X75548757Y-77382151D01*
X75512463Y-77379295D01*
X75512456Y-77379295D01*
X75043076Y-77379295D01*
X75043068Y-77379295D01*
X75006774Y-77382151D01*
X75006768Y-77382152D01*
X74851375Y-77427299D01*
X74851372Y-77427300D01*
X74712081Y-77509676D01*
X74712073Y-77509682D01*
X74599864Y-77621892D01*
X74574311Y-77635844D01*
X74550238Y-77652227D01*
X74544009Y-77652391D01*
X74538541Y-77655377D01*
X74509500Y-77653300D01*
X74480393Y-77654067D01*
X74473713Y-77650740D01*
X74468849Y-77650393D01*
X74447913Y-77640255D01*
X74441325Y-77636262D01*
X74441133Y-77636070D01*
X74391295Y-77605941D01*
X74391295Y-77605940D01*
X74391178Y-77605870D01*
X74367721Y-77580197D01*
X74344110Y-77554413D01*
X74344092Y-77554336D01*
X74344049Y-77554289D01*
X74343959Y-77553762D01*
X74331448Y-77499826D01*
X74331448Y-77444148D01*
X74351133Y-77377109D01*
X74367763Y-77356471D01*
X74658506Y-77065727D01*
X74658511Y-77065724D01*
X74668714Y-77055520D01*
X74668716Y-77055520D01*
X74780520Y-76943716D01*
X74831440Y-76855519D01*
X74859577Y-76806785D01*
X74900500Y-76654057D01*
X74900500Y-76495943D01*
X74900500Y-74116016D01*
X74920185Y-74048977D01*
X74972989Y-74003222D01*
X75042147Y-73993278D01*
X75105703Y-74022303D01*
X75112181Y-74028335D01*
X75155632Y-74071786D01*
X75155636Y-74071789D01*
X75286739Y-74159390D01*
X75286752Y-74159397D01*
X75432423Y-74219735D01*
X75432428Y-74219737D01*
X75568030Y-74246710D01*
X75587078Y-74250499D01*
X75587081Y-74250500D01*
X75587083Y-74250500D01*
X75744769Y-74250500D01*
X75744770Y-74250499D01*
X75899422Y-74219737D01*
X76025032Y-74167708D01*
X76045097Y-74159397D01*
X76045097Y-74159396D01*
X76045104Y-74159394D01*
X76176214Y-74071789D01*
X76287714Y-73960289D01*
X76375319Y-73829179D01*
X76435662Y-73683497D01*
X76466425Y-73528842D01*
X76466425Y-73505676D01*
X76483038Y-73443676D01*
X76509577Y-73397709D01*
X76550501Y-73244982D01*
X76550501Y-73086867D01*
X76550501Y-73079272D01*
X76550500Y-73079254D01*
X76550500Y-73075096D01*
X76570185Y-73008057D01*
X76586815Y-72987419D01*
X76864366Y-72709867D01*
X76904590Y-72682990D01*
X76962228Y-72659117D01*
X77052264Y-72590030D01*
X77287819Y-72354475D01*
X77349142Y-72320990D01*
X77418833Y-72325974D01*
G37*
G04 #@! TD.AperFunction*
G04 #@! TA.AperFunction,Conductor*
G36*
X73859654Y-63020185D02*
G01*
X73880296Y-63036819D01*
X73941606Y-63098129D01*
X73941724Y-63098346D01*
X73941943Y-63098467D01*
X73958482Y-63129036D01*
X73975091Y-63159452D01*
X73975073Y-63159699D01*
X73975192Y-63159919D01*
X73972581Y-63194544D01*
X73970107Y-63229144D01*
X73969951Y-63229424D01*
X73969939Y-63229591D01*
X73952905Y-63260502D01*
X73952577Y-63260935D01*
X73941910Y-63274838D01*
X73941694Y-63275357D01*
X73936735Y-63281930D01*
X73913241Y-63305614D01*
X73862894Y-63344246D01*
X73797724Y-63369440D01*
X73729280Y-63355401D01*
X73725409Y-63353258D01*
X73703179Y-63340424D01*
X73703178Y-63340423D01*
X73703177Y-63340423D01*
X73550449Y-63299499D01*
X73392335Y-63299499D01*
X73384739Y-63299499D01*
X73384723Y-63299500D01*
X71654057Y-63299500D01*
X70054057Y-63299500D01*
X69895943Y-63299500D01*
X69743215Y-63340423D01*
X69743214Y-63340423D01*
X69743212Y-63340424D01*
X69743209Y-63340425D01*
X69705887Y-63361974D01*
X69705886Y-63361975D01*
X69606287Y-63419477D01*
X69606282Y-63419481D01*
X67719481Y-65306282D01*
X67719479Y-65306285D01*
X67698331Y-65342915D01*
X67677182Y-65379547D01*
X67640423Y-65443215D01*
X67599499Y-65595943D01*
X67599499Y-65595945D01*
X67599499Y-65764046D01*
X67599500Y-65764059D01*
X67599500Y-66245939D01*
X67599499Y-66245943D01*
X67599499Y-66404057D01*
X67601087Y-66409985D01*
X67601218Y-66424137D01*
X67599469Y-66430299D01*
X67599153Y-66440002D01*
X67600097Y-66440095D01*
X67599500Y-66446157D01*
X67599500Y-66603846D01*
X67630261Y-66758489D01*
X67630264Y-66758501D01*
X67690602Y-66904172D01*
X67690609Y-66904185D01*
X67778210Y-67035288D01*
X67778213Y-67035292D01*
X67889707Y-67146786D01*
X67889711Y-67146789D01*
X68020814Y-67234390D01*
X68020827Y-67234397D01*
X68155455Y-67290161D01*
X68166503Y-67294737D01*
X68294438Y-67320185D01*
X68321153Y-67325499D01*
X68321156Y-67325500D01*
X68321158Y-67325500D01*
X68478844Y-67325500D01*
X68478845Y-67325499D01*
X68633497Y-67294737D01*
X68700631Y-67266929D01*
X68753048Y-67245218D01*
X68822517Y-67237749D01*
X68884996Y-67269024D01*
X68920648Y-67329113D01*
X68924500Y-67359779D01*
X68924500Y-68824902D01*
X68904815Y-68891941D01*
X68888181Y-68912583D01*
X67562584Y-70238181D01*
X67501261Y-70271666D01*
X67474903Y-70274500D01*
X66482069Y-70274500D01*
X66415030Y-70254815D01*
X66369275Y-70202011D01*
X66359331Y-70132853D01*
X66371895Y-70098178D01*
X66370140Y-70097360D01*
X66373188Y-70090821D01*
X66373194Y-70090812D01*
X66428379Y-69924275D01*
X66438880Y-69821487D01*
X66438879Y-68221470D01*
X66437191Y-68204950D01*
X66428379Y-68118681D01*
X66428378Y-68118678D01*
X66412309Y-68070185D01*
X66373194Y-67952144D01*
X66281092Y-67802822D01*
X66157036Y-67678766D01*
X66103108Y-67645503D01*
X66056385Y-67593556D01*
X66045162Y-67524593D01*
X66073006Y-67460511D01*
X66105086Y-67433232D01*
X66227489Y-67360844D01*
X66227495Y-67360839D01*
X66341828Y-67246507D01*
X66341833Y-67246499D01*
X66424143Y-67107320D01*
X66424145Y-67107315D01*
X66469256Y-66952043D01*
X66469257Y-66952037D01*
X66470902Y-66931125D01*
X65816112Y-66931125D01*
X65749073Y-66911440D01*
X65703318Y-66858636D01*
X65692112Y-66807125D01*
X65692112Y-66555125D01*
X65711797Y-66488086D01*
X65764601Y-66442331D01*
X65816112Y-66431125D01*
X66470902Y-66431125D01*
X66469257Y-66410214D01*
X66424143Y-66254929D01*
X66341833Y-66115750D01*
X66341826Y-66115741D01*
X66263081Y-66036996D01*
X66229596Y-65975673D01*
X66234580Y-65905981D01*
X66276452Y-65850048D01*
X66298830Y-65837305D01*
X66298809Y-65837264D01*
X66300340Y-65836445D01*
X66303313Y-65834752D01*
X66304179Y-65834394D01*
X66435289Y-65746789D01*
X66546789Y-65635289D01*
X66634394Y-65504179D01*
X66694737Y-65358497D01*
X66725500Y-65203842D01*
X66725500Y-65046158D01*
X66725500Y-65046155D01*
X66725499Y-65046153D01*
X66703508Y-64935598D01*
X66694737Y-64891503D01*
X66685721Y-64869737D01*
X66634396Y-64745825D01*
X66634395Y-64745824D01*
X66634394Y-64745821D01*
X66608425Y-64706957D01*
X66587548Y-64640281D01*
X66606032Y-64572901D01*
X66623843Y-64550391D01*
X68137416Y-63036819D01*
X68198739Y-63003334D01*
X68225097Y-63000500D01*
X73792615Y-63000500D01*
X73859654Y-63020185D01*
G37*
G04 #@! TD.AperFunction*
G04 #@! TA.AperFunction,Conductor*
G36*
X74724272Y-66036829D02*
G01*
X74758246Y-66043795D01*
X74758428Y-66043929D01*
X74758545Y-66043954D01*
X74758800Y-66044205D01*
X74787806Y-66065649D01*
X77563181Y-68841024D01*
X77596666Y-68902347D01*
X77599500Y-68928705D01*
X77599500Y-69524901D01*
X77579815Y-69591940D01*
X77563181Y-69612582D01*
X77268201Y-69907562D01*
X77267649Y-69907863D01*
X77267343Y-69908412D01*
X77237033Y-69924581D01*
X77206878Y-69941047D01*
X77206250Y-69941002D01*
X77205696Y-69941298D01*
X77171470Y-69938514D01*
X77137186Y-69936063D01*
X77136472Y-69935668D01*
X77136056Y-69935635D01*
X77110855Y-69921517D01*
X77105246Y-69918419D01*
X77105067Y-69918282D01*
X77085972Y-69903630D01*
X77085784Y-69903552D01*
X77079269Y-69898575D01*
X77067004Y-69881853D01*
X77058340Y-69873183D01*
X77055899Y-69875057D01*
X76981862Y-69778572D01*
X76981855Y-69778564D01*
X76822462Y-69619171D01*
X76822453Y-69619163D01*
X76725970Y-69545128D01*
X76727836Y-69542695D01*
X76704786Y-69519629D01*
X76702345Y-69521503D01*
X76663586Y-69470992D01*
X76628310Y-69425020D01*
X76628309Y-69425019D01*
X76628302Y-69425011D01*
X76468909Y-69265618D01*
X76468900Y-69265610D01*
X76372417Y-69191575D01*
X76374283Y-69189142D01*
X76351233Y-69166076D01*
X76348792Y-69167950D01*
X76285170Y-69085037D01*
X76274757Y-69071467D01*
X76274756Y-69071466D01*
X76274749Y-69071458D01*
X76115356Y-68912065D01*
X76115347Y-68912057D01*
X76018864Y-68838022D01*
X76020730Y-68835589D01*
X75997680Y-68812523D01*
X75995239Y-68814397D01*
X75921202Y-68717912D01*
X75921195Y-68717904D01*
X75761802Y-68558511D01*
X75761793Y-68558503D01*
X75665310Y-68484468D01*
X75667176Y-68482035D01*
X75644126Y-68458969D01*
X75641685Y-68460843D01*
X75567649Y-68364359D01*
X75567642Y-68364351D01*
X75408249Y-68204958D01*
X75408240Y-68204950D01*
X75311757Y-68130915D01*
X75313623Y-68128482D01*
X75290573Y-68105416D01*
X75288132Y-68107290D01*
X75214096Y-68010806D01*
X75214089Y-68010798D01*
X75054696Y-67851405D01*
X75054687Y-67851397D01*
X74958204Y-67777362D01*
X74960070Y-67774929D01*
X74937020Y-67751863D01*
X74934579Y-67753737D01*
X74860542Y-67657252D01*
X74860535Y-67657244D01*
X74701142Y-67497851D01*
X74701133Y-67497843D01*
X74604650Y-67423808D01*
X74606516Y-67421375D01*
X74583466Y-67398309D01*
X74581025Y-67400183D01*
X74530145Y-67333876D01*
X74506990Y-67303700D01*
X74506989Y-67303699D01*
X74506982Y-67303691D01*
X74347589Y-67144298D01*
X74347580Y-67144290D01*
X74251097Y-67070255D01*
X74252963Y-67067822D01*
X74229913Y-67044756D01*
X74227472Y-67046630D01*
X74154949Y-66952118D01*
X74153436Y-66950146D01*
X74153435Y-66950145D01*
X74153428Y-66950137D01*
X74038023Y-66834732D01*
X74004538Y-66773409D01*
X74009522Y-66703717D01*
X74038023Y-66659370D01*
X74153428Y-66543965D01*
X74153431Y-66543960D01*
X74153436Y-66543956D01*
X74213350Y-66465875D01*
X74227472Y-66447472D01*
X74229917Y-66449348D01*
X74252972Y-66426293D01*
X74251096Y-66423848D01*
X74293452Y-66391346D01*
X74347580Y-66349812D01*
X74347584Y-66349807D01*
X74347589Y-66349804D01*
X74506982Y-66190411D01*
X74506985Y-66190406D01*
X74506990Y-66190402D01*
X74576077Y-66100367D01*
X74576077Y-66100364D01*
X74579672Y-66095681D01*
X74579721Y-66095548D01*
X74579894Y-66095392D01*
X74581026Y-66093918D01*
X74581303Y-66094130D01*
X74591871Y-66084664D01*
X74604447Y-66070362D01*
X74610928Y-66065416D01*
X74611098Y-66065346D01*
X74624903Y-66054752D01*
X74657407Y-66042286D01*
X74689800Y-66029761D01*
X74689972Y-66029796D01*
X74690138Y-66029733D01*
X74724272Y-66036829D01*
G37*
G04 #@! TD.AperFunction*
G04 #@! TA.AperFunction,Conductor*
G36*
X77554587Y-63173633D02*
G01*
X77588862Y-63175573D01*
X77714174Y-63200500D01*
X77714177Y-63200500D01*
X78458242Y-63200500D01*
X78554250Y-63181402D01*
X78583916Y-63175501D01*
X78583916Y-63175500D01*
X78584207Y-63175443D01*
X78618652Y-63178525D01*
X78653111Y-63181402D01*
X78653548Y-63181647D01*
X78653798Y-63181670D01*
X78683884Y-63198683D01*
X78739245Y-63241162D01*
X78761538Y-63266587D01*
X78762966Y-63265492D01*
X78837000Y-63361974D01*
X78837009Y-63361984D01*
X78996402Y-63521377D01*
X78996410Y-63521384D01*
X78996411Y-63521385D01*
X79009314Y-63531286D01*
X79092895Y-63595421D01*
X79091021Y-63597862D01*
X79114087Y-63620912D01*
X79116520Y-63619046D01*
X79190555Y-63715529D01*
X79190563Y-63715538D01*
X79349956Y-63874931D01*
X79349964Y-63874938D01*
X79446448Y-63948974D01*
X79444574Y-63951415D01*
X79467640Y-63974465D01*
X79470073Y-63972599D01*
X79544108Y-64069082D01*
X79544116Y-64069091D01*
X79703509Y-64228484D01*
X79703517Y-64228491D01*
X79800001Y-64302527D01*
X79798127Y-64304968D01*
X79821193Y-64328018D01*
X79823626Y-64326152D01*
X79897661Y-64422635D01*
X79897669Y-64422644D01*
X80057062Y-64582037D01*
X80057070Y-64582044D01*
X80153555Y-64656081D01*
X80151681Y-64658522D01*
X80174747Y-64681572D01*
X80177180Y-64679706D01*
X80251215Y-64776189D01*
X80251223Y-64776198D01*
X80410616Y-64935591D01*
X80410624Y-64935598D01*
X80507108Y-65009634D01*
X80505234Y-65012075D01*
X80528300Y-65035125D01*
X80530733Y-65033259D01*
X80604768Y-65129742D01*
X80604776Y-65129751D01*
X80764169Y-65289144D01*
X80764177Y-65289151D01*
X80860661Y-65363187D01*
X80858787Y-65365628D01*
X80881853Y-65388678D01*
X80884286Y-65386812D01*
X80958318Y-65483291D01*
X80958329Y-65483304D01*
X81117722Y-65642697D01*
X81117730Y-65642704D01*
X81214215Y-65716741D01*
X81212341Y-65719182D01*
X81235407Y-65742232D01*
X81237840Y-65740366D01*
X81311875Y-65836849D01*
X81311883Y-65836858D01*
X81471276Y-65996251D01*
X81471284Y-65996258D01*
X81471285Y-65996259D01*
X81493296Y-66013149D01*
X81567768Y-66070294D01*
X81565894Y-66072735D01*
X81588960Y-66095785D01*
X81591393Y-66093919D01*
X81665428Y-66190402D01*
X81665436Y-66190411D01*
X81824829Y-66349804D01*
X81824837Y-66349811D01*
X81921322Y-66423848D01*
X81919448Y-66426289D01*
X81942514Y-66449339D01*
X81944947Y-66447473D01*
X82018982Y-66543956D01*
X82018990Y-66543965D01*
X82134395Y-66659370D01*
X82167880Y-66720693D01*
X82162896Y-66790385D01*
X82134395Y-66834732D01*
X82018982Y-66950145D01*
X81944947Y-67046629D01*
X81942582Y-67044814D01*
X81919506Y-67067890D01*
X81921321Y-67070255D01*
X81824837Y-67144290D01*
X81665436Y-67303691D01*
X81665434Y-67303692D01*
X81591393Y-67400183D01*
X81589027Y-67398368D01*
X81565953Y-67421442D01*
X81567768Y-67423808D01*
X81471277Y-67497849D01*
X81471276Y-67497851D01*
X81311875Y-67657252D01*
X81237840Y-67753736D01*
X81235475Y-67751921D01*
X81212399Y-67774997D01*
X81214214Y-67777362D01*
X81117730Y-67851397D01*
X80958329Y-68010798D01*
X80958327Y-68010799D01*
X80884286Y-68107290D01*
X80881920Y-68105475D01*
X80858846Y-68128549D01*
X80860661Y-68130915D01*
X80764170Y-68204956D01*
X80764169Y-68204958D01*
X80604776Y-68364351D01*
X80604774Y-68364352D01*
X80530733Y-68460843D01*
X80528367Y-68459028D01*
X80505293Y-68482102D01*
X80507108Y-68484468D01*
X80410617Y-68558509D01*
X80410616Y-68558511D01*
X80251215Y-68717912D01*
X80177180Y-68814396D01*
X80174815Y-68812581D01*
X80151739Y-68835657D01*
X80153554Y-68838022D01*
X80057070Y-68912057D01*
X79897669Y-69071458D01*
X79897667Y-69071459D01*
X79823626Y-69167950D01*
X79821260Y-69166135D01*
X79798186Y-69189209D01*
X79800001Y-69191575D01*
X79703510Y-69265616D01*
X79703509Y-69265618D01*
X79612181Y-69356946D01*
X79550858Y-69390431D01*
X79481166Y-69385447D01*
X79425233Y-69343575D01*
X79400816Y-69278111D01*
X79400500Y-69269265D01*
X79400500Y-67735341D01*
X79400500Y-67735339D01*
X79359577Y-67582612D01*
X79325530Y-67523640D01*
X79280524Y-67445686D01*
X79280521Y-67445682D01*
X79280520Y-67445680D01*
X79168716Y-67333876D01*
X79168715Y-67333875D01*
X79164385Y-67329545D01*
X79164374Y-67329535D01*
X76344147Y-64509308D01*
X76343861Y-64508785D01*
X76343341Y-64508495D01*
X76327127Y-64478139D01*
X76310662Y-64447985D01*
X76310704Y-64447391D01*
X76310424Y-64446866D01*
X76313192Y-64412607D01*
X76315646Y-64378293D01*
X76316019Y-64377617D01*
X76316051Y-64377223D01*
X76329342Y-64353483D01*
X76333249Y-64346407D01*
X76343844Y-64332600D01*
X76343914Y-64332430D01*
X76348860Y-64325949D01*
X76365480Y-64313744D01*
X76374274Y-64304950D01*
X76372416Y-64302528D01*
X76436210Y-64253576D01*
X76468900Y-64228492D01*
X76468904Y-64228487D01*
X76468909Y-64228484D01*
X76628302Y-64069091D01*
X76628305Y-64069086D01*
X76628310Y-64069082D01*
X76684310Y-63996102D01*
X76702346Y-63972598D01*
X76704768Y-63974456D01*
X76727827Y-63951397D01*
X76725969Y-63948975D01*
X76770053Y-63915147D01*
X76822453Y-63874939D01*
X76822457Y-63874934D01*
X76822462Y-63874931D01*
X76981855Y-63715538D01*
X76981858Y-63715533D01*
X76981863Y-63715529D01*
X77050950Y-63625494D01*
X77055899Y-63619045D01*
X77058344Y-63620921D01*
X77081399Y-63597866D01*
X77079523Y-63595421D01*
X77147340Y-63543382D01*
X77176007Y-63521385D01*
X77176011Y-63521380D01*
X77176016Y-63521377D01*
X77335409Y-63361984D01*
X77335418Y-63361974D01*
X77375407Y-63309859D01*
X77404504Y-63271940D01*
X77404504Y-63271937D01*
X77407980Y-63267409D01*
X77408024Y-63267290D01*
X77408179Y-63267150D01*
X77409453Y-63265491D01*
X77409763Y-63265729D01*
X77419976Y-63256564D01*
X77432707Y-63242062D01*
X77439303Y-63237010D01*
X77439525Y-63236919D01*
X77489280Y-63198739D01*
X77522022Y-63186119D01*
X77554352Y-63173620D01*
X77554435Y-63173624D01*
X77554474Y-63173610D01*
X77554587Y-63173633D01*
G37*
G04 #@! TD.AperFunction*
G04 #@! TA.AperFunction,Conductor*
G36*
X69535733Y-59887404D02*
G01*
X69567475Y-59887972D01*
X69571659Y-59889974D01*
X69573754Y-59890124D01*
X69599310Y-59903203D01*
X69720821Y-59984394D01*
X69720823Y-59984395D01*
X69720827Y-59984397D01*
X69817646Y-60024500D01*
X69866503Y-60044737D01*
X69931147Y-60057595D01*
X70021849Y-60075638D01*
X70083760Y-60108023D01*
X70085339Y-60109574D01*
X70969478Y-60993713D01*
X70969480Y-60993716D01*
X70988586Y-61012822D01*
X71007911Y-61048217D01*
X71022067Y-61074142D01*
X71022066Y-61074144D01*
X71022068Y-61074147D01*
X71020182Y-61100500D01*
X71017083Y-61143834D01*
X71017081Y-61143836D01*
X71017081Y-61143839D01*
X71001438Y-61164733D01*
X70975211Y-61199767D01*
X70975208Y-61199767D01*
X70975207Y-61199770D01*
X70949572Y-61209330D01*
X70909747Y-61224184D01*
X70900901Y-61224500D01*
X67029057Y-61224500D01*
X66870942Y-61224500D01*
X66718215Y-61265423D01*
X66718214Y-61265423D01*
X66718212Y-61265424D01*
X66718209Y-61265425D01*
X66668096Y-61294359D01*
X66668095Y-61294360D01*
X66627054Y-61318055D01*
X66581285Y-61344479D01*
X66581282Y-61344481D01*
X64251593Y-63674170D01*
X64251589Y-63674175D01*
X64205557Y-63753907D01*
X64205557Y-63753908D01*
X64172535Y-63811102D01*
X64172535Y-63811103D01*
X64131611Y-63963831D01*
X64131611Y-63963833D01*
X64131611Y-64131934D01*
X64131612Y-64131947D01*
X64131612Y-66000171D01*
X64111927Y-66067210D01*
X64059123Y-66112965D01*
X63989965Y-66122909D01*
X63926409Y-66093884D01*
X63919931Y-66087852D01*
X63910292Y-66078213D01*
X63910288Y-66078210D01*
X63779185Y-65990609D01*
X63779172Y-65990602D01*
X63633501Y-65930264D01*
X63633489Y-65930261D01*
X63478845Y-65899500D01*
X63478842Y-65899500D01*
X63321158Y-65899500D01*
X63321155Y-65899500D01*
X63166510Y-65930261D01*
X63166498Y-65930264D01*
X63020827Y-65990602D01*
X63020814Y-65990609D01*
X62889125Y-66078602D01*
X62822447Y-66099480D01*
X62820234Y-66099500D01*
X61636670Y-66099500D01*
X61636654Y-66099499D01*
X61629058Y-66099499D01*
X61470943Y-66099499D01*
X61410295Y-66115750D01*
X61318214Y-66140423D01*
X61318209Y-66140426D01*
X61181290Y-66219475D01*
X61181282Y-66219481D01*
X60287181Y-67113583D01*
X60225858Y-67147068D01*
X60156166Y-67142084D01*
X60100233Y-67100212D01*
X60075816Y-67034748D01*
X60075500Y-67025902D01*
X60075500Y-66545940D01*
X60072638Y-66535258D01*
X60072638Y-66535259D01*
X60056440Y-66474810D01*
X60034577Y-66393215D01*
X60014615Y-66358641D01*
X59987923Y-66312409D01*
X59987922Y-66312407D01*
X59955521Y-66256286D01*
X59955520Y-66256284D01*
X59843716Y-66144480D01*
X59843715Y-66144479D01*
X59839385Y-66140149D01*
X59839374Y-66140139D01*
X58470953Y-64771718D01*
X58470951Y-64771715D01*
X58352080Y-64652844D01*
X58352079Y-64652843D01*
X58258847Y-64599016D01*
X58215148Y-64573786D01*
X58062420Y-64532862D01*
X57904306Y-64532862D01*
X57896710Y-64532862D01*
X57896694Y-64532863D01*
X57842174Y-64532863D01*
X57775135Y-64513178D01*
X57731690Y-64465158D01*
X57711507Y-64425548D01*
X57711506Y-64425547D01*
X57586564Y-64253576D01*
X57436241Y-64103253D01*
X57264275Y-63978314D01*
X57256791Y-63974501D01*
X57255509Y-63973848D01*
X57204714Y-63925875D01*
X57187918Y-63858055D01*
X57210454Y-63791919D01*
X57255509Y-63752878D01*
X57264271Y-63748414D01*
X57302250Y-63720821D01*
X57436241Y-63623472D01*
X57436243Y-63623469D01*
X57436247Y-63623467D01*
X57586559Y-63473155D01*
X57586561Y-63473151D01*
X57586564Y-63473149D01*
X57647871Y-63388765D01*
X57711506Y-63301179D01*
X57712310Y-63299601D01*
X57731690Y-63261568D01*
X57779664Y-63210772D01*
X57842174Y-63193863D01*
X59543266Y-63193863D01*
X59610305Y-63213548D01*
X59630947Y-63230182D01*
X60515425Y-64114660D01*
X60548910Y-64175983D01*
X60549361Y-64178149D01*
X60580261Y-64333491D01*
X60580264Y-64333501D01*
X60640602Y-64479172D01*
X60640609Y-64479185D01*
X60728210Y-64610288D01*
X60728213Y-64610292D01*
X60839707Y-64721786D01*
X60839711Y-64721789D01*
X60970814Y-64809390D01*
X60970827Y-64809397D01*
X61116498Y-64869735D01*
X61116503Y-64869737D01*
X61225963Y-64891510D01*
X61271153Y-64900499D01*
X61271156Y-64900500D01*
X61271158Y-64900500D01*
X61428844Y-64900500D01*
X61428845Y-64900499D01*
X61583497Y-64869737D01*
X61696166Y-64823067D01*
X61729172Y-64809397D01*
X61729172Y-64809396D01*
X61729179Y-64809394D01*
X61860289Y-64721789D01*
X61971789Y-64610289D01*
X62059394Y-64479179D01*
X62119737Y-64333497D01*
X62150500Y-64178842D01*
X62150500Y-64021158D01*
X62150500Y-64021155D01*
X62150499Y-64021153D01*
X62142700Y-63981944D01*
X62119737Y-63866503D01*
X62099102Y-63816685D01*
X62059397Y-63720827D01*
X62059390Y-63720814D01*
X61971789Y-63589711D01*
X61971786Y-63589707D01*
X61860292Y-63478213D01*
X61860288Y-63478210D01*
X61729185Y-63390609D01*
X61729172Y-63390602D01*
X61583501Y-63330264D01*
X61583491Y-63330261D01*
X61428149Y-63299361D01*
X61366238Y-63266976D01*
X61364660Y-63265425D01*
X60330953Y-62231718D01*
X60330951Y-62231715D01*
X60212080Y-62112844D01*
X60212079Y-62112843D01*
X60114981Y-62056784D01*
X60114980Y-62056783D01*
X60075146Y-62033785D01*
X60019244Y-62018806D01*
X59922420Y-61992862D01*
X59764306Y-61992862D01*
X59756710Y-61992862D01*
X59756694Y-61992863D01*
X57842174Y-61992863D01*
X57775135Y-61973178D01*
X57731690Y-61925158D01*
X57711507Y-61885548D01*
X57711506Y-61885547D01*
X57586564Y-61713576D01*
X57436241Y-61563253D01*
X57264275Y-61438314D01*
X57263570Y-61437954D01*
X57255509Y-61433848D01*
X57204714Y-61385875D01*
X57187918Y-61318055D01*
X57210454Y-61251919D01*
X57255509Y-61212878D01*
X57264271Y-61208414D01*
X57330956Y-61159965D01*
X57436241Y-61083472D01*
X57436243Y-61083469D01*
X57436247Y-61083467D01*
X57586559Y-60933155D01*
X57607689Y-60904072D01*
X57643358Y-60854978D01*
X57698688Y-60812312D01*
X57743676Y-60803863D01*
X67942033Y-60803863D01*
X67989481Y-60813300D01*
X68013140Y-60823100D01*
X68013145Y-60823101D01*
X68013148Y-60823102D01*
X68167790Y-60853862D01*
X68167793Y-60853863D01*
X68167795Y-60853863D01*
X68325481Y-60853863D01*
X68325482Y-60853862D01*
X68480134Y-60823100D01*
X68625816Y-60762757D01*
X68756926Y-60675152D01*
X68868426Y-60563652D01*
X68956031Y-60432542D01*
X68965828Y-60408887D01*
X68992707Y-60368659D01*
X69442742Y-59918623D01*
X69470600Y-59903412D01*
X69497616Y-59886724D01*
X69501049Y-59886785D01*
X69504063Y-59885140D01*
X69535733Y-59887404D01*
G37*
G04 #@! TD.AperFunction*
G04 #@! TA.AperFunction,Conductor*
G36*
X80727599Y-57945908D02*
G01*
X80744418Y-57959985D01*
X80752845Y-57968413D01*
X80752848Y-57968415D01*
X80752850Y-57968417D01*
X80891055Y-58050151D01*
X81015331Y-58086256D01*
X81068416Y-58117651D01*
X81290425Y-58339660D01*
X81323910Y-58400983D01*
X81324361Y-58403149D01*
X81355261Y-58558491D01*
X81355264Y-58558501D01*
X81415602Y-58704172D01*
X81415609Y-58704185D01*
X81503210Y-58835288D01*
X81503213Y-58835292D01*
X81614707Y-58946786D01*
X81614711Y-58946789D01*
X81745814Y-59034390D01*
X81745827Y-59034397D01*
X81888468Y-59093480D01*
X81891503Y-59094737D01*
X82046153Y-59125499D01*
X82046156Y-59125500D01*
X82084287Y-59125500D01*
X82151326Y-59145185D01*
X82197081Y-59197989D01*
X82207025Y-59267147D01*
X82178000Y-59330703D01*
X82171968Y-59337181D01*
X80320558Y-61188589D01*
X80319885Y-61188956D01*
X80319510Y-61189625D01*
X80289259Y-61205679D01*
X80259235Y-61222074D01*
X80258470Y-61222019D01*
X80257793Y-61222379D01*
X80223665Y-61219530D01*
X80189543Y-61217090D01*
X80188675Y-61216609D01*
X80188166Y-61216567D01*
X80157392Y-61199285D01*
X80137856Y-61184295D01*
X80115562Y-61158869D01*
X80114135Y-61159965D01*
X80055435Y-61083467D01*
X80040100Y-61063482D01*
X80040099Y-61063481D01*
X80040092Y-61063473D01*
X79880699Y-60904080D01*
X79880690Y-60904072D01*
X79790656Y-60834985D01*
X79790653Y-60834983D01*
X79650661Y-60776998D01*
X79650656Y-60776996D01*
X79500423Y-60757218D01*
X79500422Y-60757218D01*
X79350187Y-60776997D01*
X79350183Y-60776998D01*
X79210189Y-60834984D01*
X79120155Y-60904070D01*
X79120148Y-60904076D01*
X78670328Y-61353898D01*
X78173890Y-61850336D01*
X78112567Y-61883821D01*
X78042875Y-61878837D01*
X77998528Y-61850336D01*
X75683654Y-59535462D01*
X75650169Y-59474139D01*
X75647335Y-59447781D01*
X75647335Y-58170408D01*
X75667020Y-58103369D01*
X75719824Y-58057614D01*
X75788982Y-58047670D01*
X75805930Y-58051332D01*
X75900677Y-58078859D01*
X75900680Y-58078859D01*
X75900682Y-58078860D01*
X75936985Y-58081717D01*
X75936993Y-58081717D01*
X76406357Y-58081717D01*
X76406365Y-58081717D01*
X76442668Y-58078860D01*
X76442670Y-58078859D01*
X76442672Y-58078859D01*
X76594089Y-58034868D01*
X76628684Y-58029944D01*
X76999235Y-58029944D01*
X77033830Y-58034868D01*
X77185246Y-58078859D01*
X77185249Y-58078859D01*
X77185251Y-58078860D01*
X77221554Y-58081717D01*
X77221562Y-58081717D01*
X77690926Y-58081717D01*
X77690934Y-58081717D01*
X77727237Y-58078860D01*
X77727239Y-58078859D01*
X77727241Y-58078859D01*
X77878658Y-58034868D01*
X77913253Y-58029944D01*
X78283803Y-58029944D01*
X78318398Y-58034868D01*
X78469814Y-58078859D01*
X78469817Y-58078859D01*
X78469819Y-58078860D01*
X78506122Y-58081717D01*
X78506130Y-58081717D01*
X78975494Y-58081717D01*
X78975502Y-58081717D01*
X79011805Y-58078860D01*
X79011807Y-58078859D01*
X79011809Y-58078859D01*
X79163226Y-58034868D01*
X79197821Y-58029944D01*
X79665087Y-58029944D01*
X79699681Y-58034867D01*
X79776160Y-58057087D01*
X79812463Y-58059944D01*
X79812471Y-58059944D01*
X80281835Y-58059944D01*
X80281843Y-58059944D01*
X80318146Y-58057087D01*
X80318148Y-58057086D01*
X80318150Y-58057086D01*
X80359128Y-58045180D01*
X80473548Y-58011938D01*
X80593615Y-57940930D01*
X80661336Y-57923748D01*
X80727599Y-57945908D01*
G37*
G04 #@! TD.AperFunction*
M02*
